<svg xmlns="http://www.w3.org/2000/svg" width="229.026" height="68" viewBox="0 0 229.026 68">
  <g id="Grupo_85822" data-name="Grupo 85822" transform="translate(-1048.974 -4129)">
    <path id="Trazado_119380" data-name="Trazado 119380" d="M8.235,14.609H4.008L3.27,17h-3.3L4.667,4.2h2.9L12.3,17H8.982ZM4.746,12.228H7.5L6.117,7.789ZM15.469,7.49l.1,1.116a3.27,3.27,0,0,1,2.716-1.292,2.407,2.407,0,0,1,2.435,1.433,3.165,3.165,0,0,1,2.795-1.433q2.892,0,2.971,3.5V17H23.511V11a1.813,1.813,0,0,0-.246-1.063,1.048,1.048,0,0,0-.9-.334,1.4,1.4,0,0,0-1.31.782l.009.123V17H18.1V11.015a1.906,1.906,0,0,0-.237-1.081,1.045,1.045,0,0,0-.905-.334,1.42,1.42,0,0,0-1.3.782V17H12.691V7.49ZM33.53,17a3.344,3.344,0,0,1-.281-.853,2.754,2.754,0,0,1-2.285,1.028,3.374,3.374,0,0,1-2.285-.813,2.588,2.588,0,0,1-.94-2.043,2.66,2.66,0,0,1,1.143-2.338A5.821,5.821,0,0,1,32.2,11.19h.914v-.5q0-1.316-1.134-1.316a.927.927,0,0,0-1.055,1.042H27.967A2.655,2.655,0,0,1,29.14,8.175a4.931,4.931,0,0,1,2.993-.86,4.323,4.323,0,0,1,2.874.888,3.086,3.086,0,0,1,1.081,2.435v4.21a4.311,4.311,0,0,0,.4,2V17Zm-1.854-1.934a1.652,1.652,0,0,0,.918-.237,1.487,1.487,0,0,0,.523-.536V12.772h-.861q-1.547,0-1.547,1.389a.848.848,0,0,0,.272.655A.986.986,0,0,0,31.676,15.066Zm11.8-4.9L42.5,10.1a1.752,1.752,0,0,0-1.793.879V17H37.749V7.49h2.777l.1,1.222a2.294,2.294,0,0,1,2.083-1.4,2.888,2.888,0,0,1,.826.105ZM47.672,17H44.7V7.49h2.971ZM44.525,5.029a1.334,1.334,0,0,1,.457-1.043,1.934,1.934,0,0,1,2.373,0,1.334,1.334,0,0,1,.457,1.043,1.334,1.334,0,0,1-.457,1.043,1.934,1.934,0,0,1-2.373,0A1.334,1.334,0,0,1,44.525,5.029ZM52.62,17H49.649V3.5H52.62Zm4.948,0H54.6V3.5h2.971Zm1.45-4.843a5.613,5.613,0,0,1,.554-2.536,3.96,3.96,0,0,1,1.591-1.709,4.791,4.791,0,0,1,2.435-.6,4.373,4.373,0,0,1,3.366,1.323,5.076,5.076,0,0,1,1.23,3.6v.105a4.925,4.925,0,0,1-1.235,3.529,4.384,4.384,0,0,1-3.344,1.305,4.434,4.434,0,0,1-3.261-1.217,4.761,4.761,0,0,1-1.327-3.3Zm2.962.185a3.538,3.538,0,0,0,.413,1.934,1.376,1.376,0,0,0,1.222.615q1.582,0,1.617-2.435v-.3Q65.232,9.6,63.6,9.6q-1.485,0-1.608,2.206Z" transform="translate(1049 4152)" fill="#12263f"/>
    <g id="Grupo_78329" data-name="Grupo 78329" transform="translate(0 5)">
      <g id="Polígono_3" data-name="Polígono 3" transform="translate(1278 4124) rotate(90)" fill="#fff612">
        <path d="M 67.13478851318359 58.5 L 0.8652116656303406 58.5 L 34 1.001396775245667 L 67.13478851318359 58.5 Z" stroke="none"/>
        <path d="M 34 2.002811431884766 L 1.730430603027344 58 L 66.26956939697266 58 L 34 2.002811431884766 M 34 0 L 68 59 L 0 59 L 34 0 Z" stroke="none" fill="#fff612"/>
      </g>
      <g id="Polígono_4" data-name="Polígono 4" transform="translate(1160 4192) rotate(-90)" fill="#fff612">
        <path d="M 67.13478851318359 58.5 L 0.8652116656303406 58.5 L 34 1.001396775245667 L 67.13478851318359 58.5 Z" stroke="none"/>
        <path d="M 34 2.002811431884766 L 1.730430603027344 58 L 66.26956939697266 58 L 34 2.002811431884766 M 34 0 L 68 59 L 0 59 L 34 0 Z" stroke="none" fill="#fff612"/>
      </g>
    </g>
  </g>
</svg>
