<svg xmlns="http://www.w3.org/2000/svg" xmlns:xlink="http://www.w3.org/1999/xlink" width="295" height="476" viewBox="0 0 295 476">
  <defs>
    <filter id="Rectángulo_33773" x="25" y="0" width="246" height="285" filterUnits="userSpaceOnUse">
      <feOffset dy="3" input="SourceAlpha"/>
      <feGaussianBlur stdDeviation="3" result="blur"/>
      <feFlood flood-opacity="0.243"/>
      <feComposite operator="in" in2="blur"/>
      <feComposite in="SourceGraphic"/>
    </filter>
    <clipPath id="clip-path">
      <rect id="Rectángulo_33769-2" data-name="Rectángulo 33769-2" width="228" height="267" rx="27" transform="translate(-399.032 116.747)" fill="none"/>
    </clipPath>
  </defs>
  <g id="Grupo_85821" data-name="Grupo 85821" transform="translate(-810 -4361.368)">
    <rect id="Rectángulo_33772" data-name="Rectángulo 33772" width="295" height="406" rx="28" transform="translate(810 4431.368)" fill="#b2e4f7" opacity="0.998"/>
    <g transform="matrix(1, 0, 0, 1, 810, 4361.37)" filter="url(#Rectángulo_33773)">
      <rect id="Rectángulo_33773-2" data-name="Rectángulo 33773" width="228" height="267" rx="27" transform="translate(34 6)" fill="#fff"/>
    </g>
    <path id="Trazado_119370" data-name="Trazado 119370" d="M9.207,9.93A7.053,7.053,0,0,1,6.4,8.566a2.6,2.6,0,0,1-.879-2A2.751,2.751,0,0,1,6.594,4.348a4.269,4.269,0,0,1,2.793-.879,4.66,4.66,0,0,1,2.09.453A3.436,3.436,0,0,1,12.9,5.172a3.2,3.2,0,0,1,.5,1.742H11.895a2.08,2.08,0,0,0-.656-1.627A2.669,2.669,0,0,0,9.387,4.7a2.732,2.732,0,0,0-1.73.489,1.632,1.632,0,0,0-.621,1.358,1.468,1.468,0,0,0,.59,1.178,5.785,5.785,0,0,0,2.008.88,9.316,9.316,0,0,1,2.219.88A3.367,3.367,0,0,1,13.039,10.6a2.861,2.861,0,0,1,.387,1.508,2.658,2.658,0,0,1-1.078,2.215,4.6,4.6,0,0,1-2.883.832,5.347,5.347,0,0,1-2.187-.449,3.681,3.681,0,0,1-1.566-1.23A3,3,0,0,1,5.16,11.7H6.668a1.959,1.959,0,0,0,.762,1.629,3.207,3.207,0,0,0,2.035.6,2.948,2.948,0,0,0,1.82-.484,1.573,1.573,0,0,0,.633-1.32,1.545,1.545,0,0,0-.586-1.293A6.755,6.755,0,0,0,9.207,9.93Zm9.422,5.227a3.693,3.693,0,0,1-2.8-1.129,4.19,4.19,0,0,1-1.078-3.02v-.266a5.073,5.073,0,0,1,.48-2.246,3.748,3.748,0,0,1,1.344-1.547,3.378,3.378,0,0,1,1.871-.559,3.166,3.166,0,0,1,2.563,1.086,4.7,4.7,0,0,1,.914,3.109v.6H16.2a3,3,0,0,0,.73,2.02,2.3,2.3,0,0,0,1.777.77,2.517,2.517,0,0,0,1.3-.312,3.259,3.259,0,0,0,.93-.828l.883.688A3.55,3.55,0,0,1,18.629,15.156Zm-.18-7.578a1.928,1.928,0,0,0-1.469.637A3.1,3.1,0,0,0,16.246,10H20.48V9.891a2.753,2.753,0,0,0-.594-1.707A1.815,1.815,0,0,0,18.449,7.578Zm13.2.266a4.331,4.331,0,0,0-.711-.055A1.9,1.9,0,0,0,29,9v6H27.559V6.547h1.406l.023.977A2.251,2.251,0,0,1,31,6.391a1.477,1.477,0,0,1,.641.109Zm4.688,7.313a3.693,3.693,0,0,1-2.8-1.129,4.19,4.19,0,0,1-1.078-3.02v-.266a5.073,5.073,0,0,1,.48-2.246,3.748,3.748,0,0,1,1.344-1.547,3.378,3.378,0,0,1,1.871-.559,3.166,3.166,0,0,1,2.563,1.086,4.7,4.7,0,0,1,.914,3.109v.6H33.9a3,3,0,0,0,.73,2.02,2.3,2.3,0,0,0,1.777.77,2.517,2.517,0,0,0,1.3-.312,3.259,3.259,0,0,0,.93-.828l.883.688A3.55,3.55,0,0,1,36.332,15.156Zm-.18-7.578a1.928,1.928,0,0,0-1.469.637A3.1,3.1,0,0,0,33.949,10h4.234V9.891a2.753,2.753,0,0,0-.594-1.707A1.815,1.815,0,0,0,36.152,7.578ZM46.52,15a3.036,3.036,0,0,1-.2-.891,3.225,3.225,0,0,1-2.406,1.047,2.984,2.984,0,0,1-2.051-.707,2.287,2.287,0,0,1-.8-1.793,2.39,2.39,0,0,1,1-2.051,4.733,4.733,0,0,1,2.824-.73h1.406V9.211A1.623,1.623,0,0,0,45.84,8,1.821,1.821,0,0,0,44.5,7.555a2.107,2.107,0,0,0-1.3.391,1.151,1.151,0,0,0-.523.945H41.23a2,2,0,0,1,.449-1.223A3.066,3.066,0,0,1,42.9,6.734a4.1,4.1,0,0,1,1.691-.344,3.342,3.342,0,0,1,2.289.73,2.635,2.635,0,0,1,.859,2.012v3.891a4.757,4.757,0,0,0,.3,1.852V15Zm-2.4-1.1a2.54,2.54,0,0,0,1.289-.352,2.127,2.127,0,0,0,.883-.914V10.9H45.16q-2.656,0-2.656,1.555a1.316,1.316,0,0,0,.453,1.063A1.742,1.742,0,0,0,44.121,13.9ZM51.574,15H50.129V3h1.445Zm3.883,0H54.012V6.547h1.445ZM53.895,4.3a.863.863,0,0,1,.215-.594.807.807,0,0,1,.637-.242.819.819,0,0,1,.641.242.854.854,0,0,1,.219.594.826.826,0,0,1-.219.586.834.834,0,0,1-.641.234.821.821,0,0,1-.637-.234A.834.834,0,0,1,53.895,4.3Zm5.234,9.516h4.945V15H57.363V13.938l4.664-6.2H57.434v-1.2H63.84V7.57ZM70.918,15a3.036,3.036,0,0,1-.2-.891,3.225,3.225,0,0,1-2.406,1.047,2.984,2.984,0,0,1-2.051-.707,2.288,2.288,0,0,1-.8-1.793,2.39,2.39,0,0,1,1-2.051,4.733,4.733,0,0,1,2.824-.73h1.406V9.211A1.623,1.623,0,0,0,70.238,8,1.821,1.821,0,0,0,68.9,7.555a2.108,2.108,0,0,0-1.3.391,1.151,1.151,0,0,0-.523.945H65.629a2,2,0,0,1,.449-1.223A3.066,3.066,0,0,1,67.3,6.734a4.1,4.1,0,0,1,1.691-.344,3.342,3.342,0,0,1,2.289.73,2.635,2.635,0,0,1,.859,2.012v3.891a4.757,4.757,0,0,0,.3,1.852V15Zm-2.4-1.1a2.54,2.54,0,0,0,1.289-.352,2.127,2.127,0,0,0,.883-.914V10.9H69.559q-2.656,0-2.656,1.555a1.316,1.316,0,0,0,.453,1.063A1.742,1.742,0,0,0,68.52,13.9Zm15.063.266a3.07,3.07,0,0,1-2.477.992,2.628,2.628,0,0,1-2.059-.785,3.4,3.4,0,0,1-.715-2.324v-5.5h1.445v5.461q0,1.922,1.563,1.922a2.163,2.163,0,0,0,2.2-1.234V6.547h1.445V15H83.613Zm4.969-7.617L88.6,7.609a3.08,3.08,0,0,1,2.531-1.219q2.68,0,2.7,3.023V15H92.387V9.406a1.946,1.946,0,0,0-.418-1.352,1.675,1.675,0,0,0-1.277-.437,2.086,2.086,0,0,0-1.234.375,2.546,2.546,0,0,0-.828.984V15H87.184V6.547ZM99.621,10.7a4.952,4.952,0,0,1,.922-3.129,3.137,3.137,0,0,1,4.766-.168V3h1.445V15h-1.328l-.07-.906a2.943,2.943,0,0,1-2.414,1.063,2.887,2.887,0,0,1-2.395-1.2,5.008,5.008,0,0,1-.926-3.141Zm1.445.164a3.749,3.749,0,0,0,.594,2.25,1.92,1.92,0,0,0,1.641.813,2.108,2.108,0,0,0,2.008-1.234V8.813a2.125,2.125,0,0,0-1.992-1.2,1.929,1.929,0,0,0-1.656.82A4.128,4.128,0,0,0,101.066,10.867Zm9.5,4.133h-1.453V6.547h1.453Zm.016-11.977h1.75l-2.094,2.3-1.164,0ZM118.168,15a3.036,3.036,0,0,1-.2-.891,3.225,3.225,0,0,1-2.406,1.047,2.984,2.984,0,0,1-2.051-.707,2.288,2.288,0,0,1-.8-1.793,2.39,2.39,0,0,1,1-2.051,4.733,4.733,0,0,1,2.824-.73h1.406V9.211A1.623,1.623,0,0,0,117.488,8a1.821,1.821,0,0,0-1.336-.449,2.108,2.108,0,0,0-1.3.391,1.151,1.151,0,0,0-.523.945h-1.453a2,2,0,0,1,.449-1.223,3.066,3.066,0,0,1,1.219-.934,4.1,4.1,0,0,1,1.691-.344,3.342,3.342,0,0,1,2.289.73,2.635,2.635,0,0,1,.859,2.012v3.891a4.757,4.757,0,0,0,.3,1.852V15Zm-2.4-1.1a2.54,2.54,0,0,0,1.289-.352,2.127,2.127,0,0,0,.883-.914V10.9h-1.133q-2.656,0-2.656,1.555a1.316,1.316,0,0,0,.453,1.063A1.742,1.742,0,0,0,115.77,13.9ZM130.832,15a3.036,3.036,0,0,1-.2-.891,3.225,3.225,0,0,1-2.406,1.047,2.984,2.984,0,0,1-2.051-.707,2.288,2.288,0,0,1-.8-1.793,2.39,2.39,0,0,1,1-2.051,4.733,4.733,0,0,1,2.824-.73h1.406V9.211A1.623,1.623,0,0,0,130.152,8a1.821,1.821,0,0,0-1.336-.449,2.108,2.108,0,0,0-1.3.391,1.151,1.151,0,0,0-.523.945h-1.453a2,2,0,0,1,.449-1.223,3.066,3.066,0,0,1,1.219-.934,4.1,4.1,0,0,1,1.691-.344,3.342,3.342,0,0,1,2.289.73,2.635,2.635,0,0,1,.859,2.012v3.891a4.757,4.757,0,0,0,.3,1.852V15Zm-2.4-1.1a2.54,2.54,0,0,0,1.289-.352,2.127,2.127,0,0,0,.883-.914V10.9h-1.133q-2.656,0-2.656,1.555a1.316,1.316,0,0,0,.453,1.063A1.742,1.742,0,0,0,128.434,13.9Zm7.25-7.352.047,1.063a3.08,3.08,0,0,1,2.531-1.219q2.68,0,2.7,3.023V15H139.52V9.406a1.946,1.946,0,0,0-.418-1.352,1.675,1.675,0,0,0-1.277-.437,2.086,2.086,0,0,0-1.234.375,2.546,2.546,0,0,0-.828.984V15h-1.445V6.547ZM145.105,4.5V6.547h1.578V7.664h-1.578v5.249a1.173,1.173,0,0,0,.211.763.888.888,0,0,0,.719.254,3.5,3.5,0,0,0,.688-.094V15a4.215,4.215,0,0,1-1.109.155,1.8,1.8,0,0,1-1.461-.586,2.517,2.517,0,0,1-.492-1.664V7.664h-1.539V6.547h1.539V4.5Zm6.773,10.656a3.693,3.693,0,0,1-2.8-1.129A4.19,4.19,0,0,1,148,11.008v-.266a5.073,5.073,0,0,1,.48-2.246,3.748,3.748,0,0,1,1.344-1.547,3.378,3.378,0,0,1,1.871-.559,3.166,3.166,0,0,1,2.563,1.086,4.7,4.7,0,0,1,.914,3.109v.6h-5.727a3,3,0,0,0,.73,2.02,2.3,2.3,0,0,0,1.777.77,2.517,2.517,0,0,0,1.3-.312,3.258,3.258,0,0,0,.93-.828l.883.688A3.55,3.55,0,0,1,151.879,15.156Zm-.18-7.578a1.928,1.928,0,0,0-1.469.637A3.1,3.1,0,0,0,149.5,10h4.234V9.891a2.753,2.753,0,0,0-.594-1.707A1.815,1.815,0,0,0,151.7,7.578Zm10.07,5.18a1.064,1.064,0,0,0-.441-.91,4.249,4.249,0,0,0-1.539-.559,7.277,7.277,0,0,1-1.742-.562,2.479,2.479,0,0,1-.953-.781,1.869,1.869,0,0,1-.309-1.078,2.193,2.193,0,0,1,.879-1.758,3.432,3.432,0,0,1,2.246-.719,3.532,3.532,0,0,1,2.332.742,2.357,2.357,0,0,1,.895,1.9h-1.453a1.3,1.3,0,0,0-.5-1.023,1.888,1.888,0,0,0-1.27-.43,1.976,1.976,0,0,0-1.234.344,1.082,1.082,0,0,0-.445.9.877.877,0,0,0,.414.789,5.1,5.1,0,0,0,1.5.508,7.8,7.8,0,0,1,1.754.578,2.558,2.558,0,0,1,1,.809,1.988,1.988,0,0,1,.324,1.152,2.163,2.163,0,0,1-.906,1.816,3.8,3.8,0,0,1-2.352.684,4.257,4.257,0,0,1-1.8-.359,2.922,2.922,0,0,1-1.223-1A2.42,2.42,0,0,1,156.5,12.4h1.445a1.5,1.5,0,0,0,.582,1.152,2.258,2.258,0,0,0,1.434.426,2.331,2.331,0,0,0,1.316-.332A1.02,1.02,0,0,0,161.77,12.758Zm6.938-2.055a4.952,4.952,0,0,1,.922-3.129,3.137,3.137,0,0,1,4.766-.168V3h1.445V15h-1.328l-.07-.906a2.943,2.943,0,0,1-2.414,1.063,2.887,2.887,0,0,1-2.395-1.2,5.008,5.008,0,0,1-.926-3.141Zm1.445.164a3.749,3.749,0,0,0,.594,2.25,1.919,1.919,0,0,0,1.641.813,2.108,2.108,0,0,0,2.008-1.234V8.813a2.125,2.125,0,0,0-1.992-1.2,1.929,1.929,0,0,0-1.656.82A4.128,4.128,0,0,0,170.152,10.867Zm11.438,4.289a3.693,3.693,0,0,1-2.8-1.129,4.19,4.19,0,0,1-1.078-3.02v-.266A5.073,5.073,0,0,1,178.2,8.5a3.748,3.748,0,0,1,1.344-1.547,3.378,3.378,0,0,1,1.871-.559,3.166,3.166,0,0,1,2.563,1.086,4.7,4.7,0,0,1,.914,3.109v.6H179.16a3,3,0,0,0,.73,2.02,2.3,2.3,0,0,0,1.777.77,2.517,2.517,0,0,0,1.3-.312,3.258,3.258,0,0,0,.93-.828l.883.688A3.55,3.55,0,0,1,181.59,15.156Zm-.18-7.578a1.928,1.928,0,0,0-1.469.637A3.1,3.1,0,0,0,179.207,10h4.234V9.891a2.753,2.753,0,0,0-.594-1.707A1.815,1.815,0,0,0,181.41,7.578ZM6.992,39H5.547V27H6.992Zm7.531,0a3.036,3.036,0,0,1-.2-.891,3.225,3.225,0,0,1-2.406,1.047,2.984,2.984,0,0,1-2.051-.707,2.287,2.287,0,0,1-.8-1.793,2.39,2.39,0,0,1,1-2.051,4.733,4.733,0,0,1,2.824-.73H14.3v-.664A1.623,1.623,0,0,0,13.844,32a1.821,1.821,0,0,0-1.336-.449,2.108,2.108,0,0,0-1.3.391,1.151,1.151,0,0,0-.523.945H9.234a2,2,0,0,1,.449-1.223,3.066,3.066,0,0,1,1.219-.934,4.1,4.1,0,0,1,1.691-.344,3.342,3.342,0,0,1,2.289.73,2.635,2.635,0,0,1,.859,2.012v3.891a4.757,4.757,0,0,0,.3,1.852V39Zm-2.4-1.1a2.54,2.54,0,0,0,1.289-.352,2.127,2.127,0,0,0,.883-.914V34.9H13.164q-2.656,0-2.656,1.555a1.316,1.316,0,0,0,.453,1.063A1.742,1.742,0,0,0,12.125,37.9Zm14.766-1.141a1.064,1.064,0,0,0-.441-.91,4.249,4.249,0,0,0-1.539-.559,7.277,7.277,0,0,1-1.742-.562,2.479,2.479,0,0,1-.953-.781,1.869,1.869,0,0,1-.309-1.078,2.193,2.193,0,0,1,.879-1.758,3.432,3.432,0,0,1,2.246-.719,3.532,3.532,0,0,1,2.332.742,2.357,2.357,0,0,1,.895,1.9H26.8a1.3,1.3,0,0,0-.5-1.023,1.888,1.888,0,0,0-1.27-.43,1.976,1.976,0,0,0-1.234.344,1.082,1.082,0,0,0-.445.9.877.877,0,0,0,.414.789,5.1,5.1,0,0,0,1.5.508,7.8,7.8,0,0,1,1.754.578,2.558,2.558,0,0,1,1,.809,1.988,1.988,0,0,1,.324,1.152,2.163,2.163,0,0,1-.906,1.816,3.8,3.8,0,0,1-2.352.684,4.257,4.257,0,0,1-1.8-.359,2.922,2.922,0,0,1-1.223-1,2.42,2.42,0,0,1-.441-1.395h1.445a1.5,1.5,0,0,0,.582,1.152,2.258,2.258,0,0,0,1.434.426,2.331,2.331,0,0,0,1.316-.332A1.02,1.02,0,0,0,26.891,36.758ZM31.789,39H30.344V30.547h1.445ZM30.227,28.3a.863.863,0,0,1,.215-.594.807.807,0,0,1,.637-.242.819.819,0,0,1,.641.242.854.854,0,0,1,.219.594.826.826,0,0,1-.219.586.834.834,0,0,1-.641.234.821.821,0,0,1-.637-.234A.834.834,0,0,1,30.227,28.3Zm7.383,10.852a3.693,3.693,0,0,1-2.8-1.129,4.19,4.19,0,0,1-1.078-3.02v-.266a5.073,5.073,0,0,1,.48-2.246,3.748,3.748,0,0,1,1.344-1.547,3.378,3.378,0,0,1,1.871-.559,3.166,3.166,0,0,1,2.563,1.086,4.7,4.7,0,0,1,.914,3.109v.6H35.18a3,3,0,0,0,.73,2.02,2.3,2.3,0,0,0,1.777.77,2.517,2.517,0,0,0,1.3-.312,3.258,3.258,0,0,0,.93-.828l.883.688A3.55,3.55,0,0,1,37.609,39.156Zm-.18-7.578a1.928,1.928,0,0,0-1.469.637A3.1,3.1,0,0,0,35.227,34h4.234v-.109a2.753,2.753,0,0,0-.594-1.707A1.815,1.815,0,0,0,37.43,31.578Zm6.508-1.031.039.938a3.122,3.122,0,0,1,2.508-1.094A2.417,2.417,0,0,1,48.9,31.75a3.2,3.2,0,0,1,1.1-.984,3.242,3.242,0,0,1,1.6-.375q2.781,0,2.828,2.945V39H52.977V33.422a1.941,1.941,0,0,0-.414-1.355,1.823,1.823,0,0,0-1.391-.449,1.916,1.916,0,0,0-1.336.48,1.949,1.949,0,0,0-.617,1.293V39H47.766V33.461a1.613,1.613,0,0,0-1.8-1.844,1.934,1.934,0,0,0-1.945,1.211V39H42.57V30.547Zm19.82,4.32a5.026,5.026,0,0,1-.891,3.113,2.846,2.846,0,0,1-2.391,1.176A2.947,2.947,0,0,1,58,38.023L57.93,39H56.6V27h1.445v4.477a2.93,2.93,0,0,1,2.414-1.086,2.863,2.863,0,0,1,2.418,1.164,5.177,5.177,0,0,1,.879,3.188ZM62.313,34.7a3.906,3.906,0,0,0-.57-2.281,1.888,1.888,0,0,0-1.641-.8,2.122,2.122,0,0,0-2.055,1.328V36.6a2.181,2.181,0,0,0,2.07,1.328,1.878,1.878,0,0,0,1.617-.8A4.153,4.153,0,0,0,62.313,34.7Zm7.352-2.859a4.331,4.331,0,0,0-.711-.055A1.9,1.9,0,0,0,67.023,33v6H65.578V30.547h1.406l.023.977a2.251,2.251,0,0,1,2.016-1.133,1.477,1.477,0,0,1,.641.109ZM75.9,39a3.036,3.036,0,0,1-.2-.891,3.225,3.225,0,0,1-2.406,1.047,2.984,2.984,0,0,1-2.051-.707,2.288,2.288,0,0,1-.8-1.793,2.39,2.39,0,0,1,1-2.051,4.733,4.733,0,0,1,2.824-.73h1.406v-.664A1.623,1.623,0,0,0,75.219,32a1.821,1.821,0,0,0-1.336-.449,2.108,2.108,0,0,0-1.3.391,1.151,1.151,0,0,0-.523.945H70.609a2,2,0,0,1,.449-1.223,3.066,3.066,0,0,1,1.219-.934,4.1,4.1,0,0,1,1.691-.344,3.342,3.342,0,0,1,2.289.73,2.635,2.635,0,0,1,.859,2.012v3.891a4.757,4.757,0,0,0,.3,1.852V39Zm-2.4-1.1a2.54,2.54,0,0,0,1.289-.352,2.127,2.127,0,0,0,.883-.914V34.9H74.539q-2.656,0-2.656,1.555a1.316,1.316,0,0,0,.453,1.063A1.742,1.742,0,0,0,73.5,37.9Zm16.984-3.031a5.062,5.062,0,0,1-.883,3.109,2.829,2.829,0,0,1-2.391,1.18,3.1,3.1,0,0,1-2.422-.977v4.07H83.344v-11.7h1.32l.07.938a2.977,2.977,0,0,1,2.453-1.094,2.882,2.882,0,0,1,2.41,1.148,5.117,5.117,0,0,1,.887,3.2ZM89.039,34.7a3.735,3.735,0,0,0-.609-2.258,1.963,1.963,0,0,0-1.672-.828,2.125,2.125,0,0,0-1.969,1.164V36.82a2.129,2.129,0,0,0,1.984,1.156,1.954,1.954,0,0,0,1.652-.824A4.077,4.077,0,0,0,89.039,34.7Zm8.5,4.3a3.036,3.036,0,0,1-.2-.891,3.225,3.225,0,0,1-2.406,1.047,2.984,2.984,0,0,1-2.051-.707,2.288,2.288,0,0,1-.8-1.793,2.39,2.39,0,0,1,1-2.051,4.733,4.733,0,0,1,2.824-.73h1.406v-.664A1.623,1.623,0,0,0,96.859,32a1.821,1.821,0,0,0-1.336-.449,2.108,2.108,0,0,0-1.3.391,1.151,1.151,0,0,0-.523.945H92.25a2,2,0,0,1,.449-1.223,3.066,3.066,0,0,1,1.219-.934,4.1,4.1,0,0,1,1.691-.344,3.342,3.342,0,0,1,2.289.73,2.635,2.635,0,0,1,.859,2.012v3.891a4.757,4.757,0,0,0,.3,1.852V39Zm-2.4-1.1a2.54,2.54,0,0,0,1.289-.352,2.127,2.127,0,0,0,.883-.914V34.9H96.18q-2.656,0-2.656,1.555a1.316,1.316,0,0,0,.453,1.063A1.742,1.742,0,0,0,95.141,37.9Zm9.969-6.055a4.331,4.331,0,0,0-.711-.055A1.9,1.9,0,0,0,102.469,33v6h-1.445V30.547h1.406l.023.977a2.251,2.251,0,0,1,2.016-1.133,1.477,1.477,0,0,1,.641.109ZM111.344,39a3.036,3.036,0,0,1-.2-.891,3.225,3.225,0,0,1-2.406,1.047,2.984,2.984,0,0,1-2.051-.707,2.288,2.288,0,0,1-.8-1.793,2.39,2.39,0,0,1,1-2.051,4.733,4.733,0,0,1,2.824-.73h1.406v-.664A1.623,1.623,0,0,0,110.664,32a1.821,1.821,0,0,0-1.336-.449,2.108,2.108,0,0,0-1.3.391,1.151,1.151,0,0,0-.523.945h-1.453a2,2,0,0,1,.449-1.223,3.066,3.066,0,0,1,1.219-.934,4.1,4.1,0,0,1,1.691-.344,3.342,3.342,0,0,1,2.289.73,2.635,2.635,0,0,1,.859,2.012v3.891a4.757,4.757,0,0,0,.3,1.852V39Zm-2.4-1.1a2.54,2.54,0,0,0,1.289-.352,2.127,2.127,0,0,0,.883-.914V34.9h-1.133q-2.656,0-2.656,1.555a1.316,1.316,0,0,0,.453,1.063A1.742,1.742,0,0,0,108.945,37.9Zm11.2-7.352.039.938a3.122,3.122,0,0,1,2.508-1.094,2.417,2.417,0,0,1,2.414,1.359,3.2,3.2,0,0,1,1.1-.984,3.242,3.242,0,0,1,1.6-.375q2.781,0,2.828,2.945V39h-1.445V33.422a1.941,1.941,0,0,0-.414-1.355,1.823,1.823,0,0,0-1.391-.449,1.916,1.916,0,0,0-1.336.48,1.949,1.949,0,0,0-.617,1.293V39h-1.453V33.461a1.613,1.613,0,0,0-1.8-1.844,1.934,1.934,0,0,0-1.945,1.211V39h-1.445V30.547ZM138.031,39a3.036,3.036,0,0,1-.2-.891,3.225,3.225,0,0,1-2.406,1.047,2.984,2.984,0,0,1-2.051-.707,2.287,2.287,0,0,1-.8-1.793,2.39,2.39,0,0,1,1-2.051,4.733,4.733,0,0,1,2.824-.73H137.8v-.664A1.623,1.623,0,0,0,137.352,32a1.821,1.821,0,0,0-1.336-.449,2.107,2.107,0,0,0-1.3.391,1.151,1.151,0,0,0-.523.945h-1.453a2,2,0,0,1,.449-1.223,3.066,3.066,0,0,1,1.219-.934,4.1,4.1,0,0,1,1.691-.344,3.342,3.342,0,0,1,2.289.73,2.635,2.635,0,0,1,.859,2.012v3.891a4.757,4.757,0,0,0,.3,1.852V39Zm-2.4-1.1a2.54,2.54,0,0,0,1.289-.352,2.127,2.127,0,0,0,.883-.914V34.9h-1.133q-2.656,0-2.656,1.555a1.316,1.316,0,0,0,.453,1.063A1.742,1.742,0,0,0,135.633,37.9Zm7.25-7.352.047,1.063a3.08,3.08,0,0,1,2.531-1.219q2.68,0,2.7,3.023V39h-1.445V33.406a1.946,1.946,0,0,0-.418-1.352,1.675,1.675,0,0,0-1.277-.437,2.086,2.086,0,0,0-1.234.375,2.546,2.546,0,0,0-.828.984V39h-1.445V30.547ZM152.3,28.5v2.047h1.578v1.117H152.3v5.249a1.173,1.173,0,0,0,.211.763.888.888,0,0,0,.719.254,3.5,3.5,0,0,0,.688-.094V39a4.215,4.215,0,0,1-1.109.155,1.8,1.8,0,0,1-1.461-.586,2.517,2.517,0,0,1-.492-1.664V31.664H149.32V30.547h1.539V28.5Zm6.773,10.656a3.693,3.693,0,0,1-2.8-1.129,4.19,4.19,0,0,1-1.078-3.02v-.266a5.073,5.073,0,0,1,.48-2.246,3.748,3.748,0,0,1,1.344-1.547,3.378,3.378,0,0,1,1.871-.559,3.166,3.166,0,0,1,2.563,1.086,4.7,4.7,0,0,1,.914,3.109v.6h-5.727a3,3,0,0,0,.73,2.02,2.3,2.3,0,0,0,1.777.77,2.517,2.517,0,0,0,1.3-.312,3.258,3.258,0,0,0,.93-.828l.883.688A3.55,3.55,0,0,1,159.078,39.156Zm-.18-7.578a1.928,1.928,0,0,0-1.469.637A3.1,3.1,0,0,0,156.7,34h4.234v-.109a2.753,2.753,0,0,0-.594-1.707A1.815,1.815,0,0,0,158.9,31.578Zm6.516-1.031.047,1.063a3.08,3.08,0,0,1,2.531-1.219q2.68,0,2.7,3.023V39H169.25V33.406a1.946,1.946,0,0,0-.418-1.352,1.675,1.675,0,0,0-1.277-.437,2.086,2.086,0,0,0-1.234.375,2.546,2.546,0,0,0-.828.984V39h-1.445V30.547Zm10.969,8.609a3.693,3.693,0,0,1-2.8-1.129,4.19,4.19,0,0,1-1.078-3.02v-.266a5.073,5.073,0,0,1,.48-2.246,3.748,3.748,0,0,1,1.344-1.547,3.378,3.378,0,0,1,1.871-.559,3.166,3.166,0,0,1,2.563,1.086,4.7,4.7,0,0,1,.914,3.109v.6h-5.727a3,3,0,0,0,.73,2.02,2.3,2.3,0,0,0,1.777.77,2.517,2.517,0,0,0,1.3-.312,3.258,3.258,0,0,0,.93-.828l.883.688A3.55,3.55,0,0,1,176.383,39.156Zm-.18-7.578a1.928,1.928,0,0,0-1.469.637A3.1,3.1,0,0,0,174,34h4.234v-.109a2.753,2.753,0,0,0-.594-1.707A1.815,1.815,0,0,0,176.2,31.578Zm9.234.266a4.331,4.331,0,0,0-.711-.055A1.9,1.9,0,0,0,182.8,33v6h-1.445V30.547h1.406l.023.977a2.251,2.251,0,0,1,2.016-1.133,1.477,1.477,0,0,1,.641.109ZM14.457,63H13.012V51h1.445Zm7.531,0a3.036,3.036,0,0,1-.2-.891,3.225,3.225,0,0,1-2.406,1.047,2.984,2.984,0,0,1-2.051-.707,2.287,2.287,0,0,1-.8-1.793,2.39,2.39,0,0,1,1-2.051,4.733,4.733,0,0,1,2.824-.73h1.406v-.664A1.623,1.623,0,0,0,21.309,56a1.821,1.821,0,0,0-1.336-.449,2.107,2.107,0,0,0-1.3.391,1.151,1.151,0,0,0-.523.945H16.7a2,2,0,0,1,.449-1.223,3.066,3.066,0,0,1,1.219-.934,4.1,4.1,0,0,1,1.691-.344,3.342,3.342,0,0,1,2.289.73,2.635,2.635,0,0,1,.859,2.012v3.891a4.757,4.757,0,0,0,.3,1.852V63Zm-2.4-1.1a2.54,2.54,0,0,0,1.289-.352,2.127,2.127,0,0,0,.883-.914V58.9H20.629q-2.656,0-2.656,1.555a1.316,1.316,0,0,0,.453,1.063A1.742,1.742,0,0,0,19.59,61.9ZM30.879,55.57a3.073,3.073,0,0,1,2.5-1.18q2.68,0,2.7,3.023V63H34.637V57.406a1.946,1.946,0,0,0-.418-1.352,1.675,1.675,0,0,0-1.277-.437,2.086,2.086,0,0,0-1.234.375,2.546,2.546,0,0,0-.828.984V63H29.434V51h1.445Zm12.586,6.594a3.07,3.07,0,0,1-2.477.992,2.628,2.628,0,0,1-2.059-.785,3.4,3.4,0,0,1-.715-2.324v-5.5H39.66v5.461q0,1.922,1.563,1.922a2.163,2.163,0,0,0,2.2-1.234V54.547h1.445V63H43.5Zm4.961-7.617.039.938a3.122,3.122,0,0,1,2.508-1.094,2.417,2.417,0,0,1,2.414,1.359,3.2,3.2,0,0,1,1.1-.984,3.242,3.242,0,0,1,1.6-.375q2.781,0,2.828,2.945V63H57.465V57.422a1.941,1.941,0,0,0-.414-1.355,1.823,1.823,0,0,0-1.391-.449,1.916,1.916,0,0,0-1.336.48,1.949,1.949,0,0,0-.617,1.293V63H52.254V57.461a1.613,1.613,0,0,0-1.8-1.844A1.934,1.934,0,0,0,48.5,56.828V63H47.059V54.547ZM64.6,63.156a3.693,3.693,0,0,1-2.8-1.129,4.19,4.19,0,0,1-1.078-3.02v-.266A5.073,5.073,0,0,1,61.2,56.5a3.748,3.748,0,0,1,1.344-1.547,3.378,3.378,0,0,1,1.871-.559,3.166,3.166,0,0,1,2.563,1.086,4.7,4.7,0,0,1,.914,3.109v.6H62.168a3,3,0,0,0,.73,2.02,2.3,2.3,0,0,0,1.777.77,2.517,2.517,0,0,0,1.3-.312,3.259,3.259,0,0,0,.93-.828l.883.688A3.55,3.55,0,0,1,64.6,63.156Zm-.18-7.578a1.928,1.928,0,0,0-1.469.637A3.1,3.1,0,0,0,62.215,58h4.234v-.109a2.753,2.753,0,0,0-.594-1.707A1.815,1.815,0,0,0,64.418,55.578Zm4.8,3.125a4.952,4.952,0,0,1,.922-3.129,3.137,3.137,0,0,1,4.766-.168V51h1.445V63H75.02l-.07-.906a2.943,2.943,0,0,1-2.414,1.063,2.887,2.887,0,0,1-2.395-1.2,5.008,5.008,0,0,1-.926-3.141Zm1.445.164a3.749,3.749,0,0,0,.594,2.25,1.92,1.92,0,0,0,1.641.813A2.108,2.108,0,0,0,74.9,60.7V56.813a2.125,2.125,0,0,0-1.992-1.2,1.929,1.929,0,0,0-1.656.82A4.128,4.128,0,0,0,70.66,58.867ZM83.809,63a3.036,3.036,0,0,1-.2-.891A3.225,3.225,0,0,1,81.2,63.156a2.984,2.984,0,0,1-2.051-.707,2.288,2.288,0,0,1-.8-1.793,2.39,2.39,0,0,1,1-2.051,4.733,4.733,0,0,1,2.824-.73h1.406v-.664A1.623,1.623,0,0,0,83.129,56a1.821,1.821,0,0,0-1.336-.449,2.107,2.107,0,0,0-1.3.391,1.151,1.151,0,0,0-.523.945H78.52a2,2,0,0,1,.449-1.223,3.066,3.066,0,0,1,1.219-.934,4.1,4.1,0,0,1,1.691-.344,3.342,3.342,0,0,1,2.289.73,2.635,2.635,0,0,1,.859,2.012v3.891a4.757,4.757,0,0,0,.3,1.852V63Zm-2.4-1.1a2.54,2.54,0,0,0,1.289-.352,2.127,2.127,0,0,0,.883-.914V58.9H82.449q-2.656,0-2.656,1.555a1.316,1.316,0,0,0,.453,1.063A1.742,1.742,0,0,0,81.41,61.9Zm5.531-3.2a4.952,4.952,0,0,1,.922-3.129,3.137,3.137,0,0,1,4.766-.168V51h1.445V63H92.746l-.07-.906a2.943,2.943,0,0,1-2.414,1.063,2.887,2.887,0,0,1-2.395-1.2,5.008,5.008,0,0,1-.926-3.141Zm1.445.164a3.749,3.749,0,0,0,.594,2.25,1.92,1.92,0,0,0,1.641.813A2.108,2.108,0,0,0,92.629,60.7V56.813a2.125,2.125,0,0,0-1.992-1.2,1.929,1.929,0,0,0-1.656.82A4.128,4.128,0,0,0,88.387,58.867ZM99.926,58.7a4.952,4.952,0,0,1,.922-3.129,3.137,3.137,0,0,1,4.766-.168V51h1.445V63H105.73l-.07-.906a2.943,2.943,0,0,1-2.414,1.063,2.887,2.887,0,0,1-2.395-1.2,5.008,5.008,0,0,1-.926-3.141Zm1.445.164a3.749,3.749,0,0,0,.594,2.25,1.92,1.92,0,0,0,1.641.813,2.108,2.108,0,0,0,2.008-1.234V56.813a2.125,2.125,0,0,0-1.992-1.2,1.929,1.929,0,0,0-1.656.82A4.128,4.128,0,0,0,101.371,58.867Zm11.438,4.289a3.693,3.693,0,0,1-2.8-1.129,4.19,4.19,0,0,1-1.078-3.02v-.266a5.073,5.073,0,0,1,.48-2.246,3.748,3.748,0,0,1,1.344-1.547,3.378,3.378,0,0,1,1.871-.559,3.166,3.166,0,0,1,2.563,1.086,4.7,4.7,0,0,1,.914,3.109v.6h-5.727a3,3,0,0,0,.73,2.02,2.3,2.3,0,0,0,1.777.77,2.517,2.517,0,0,0,1.3-.312,3.259,3.259,0,0,0,.93-.828l.883.688A3.55,3.55,0,0,1,112.809,63.156Zm-.18-7.578a1.928,1.928,0,0,0-1.469.637A3.1,3.1,0,0,0,110.426,58h4.234v-.109a2.753,2.753,0,0,0-.594-1.707A1.815,1.815,0,0,0,112.629,55.578ZM123.309,63h-1.445V51h1.445Zm7.531,0a3.036,3.036,0,0,1-.2-.891,3.225,3.225,0,0,1-2.406,1.047,2.984,2.984,0,0,1-2.051-.707,2.288,2.288,0,0,1-.8-1.793,2.39,2.39,0,0,1,1-2.051,4.733,4.733,0,0,1,2.824-.73h1.406v-.664A1.623,1.623,0,0,0,130.16,56a1.821,1.821,0,0,0-1.336-.449,2.107,2.107,0,0,0-1.3.391,1.151,1.151,0,0,0-.523.945h-1.453A2,2,0,0,1,126,55.668a3.066,3.066,0,0,1,1.219-.934,4.1,4.1,0,0,1,1.691-.344,3.342,3.342,0,0,1,2.289.73,2.635,2.635,0,0,1,.859,2.012v3.891a4.757,4.757,0,0,0,.3,1.852V63Zm-2.4-1.1a2.54,2.54,0,0,0,1.289-.352,2.127,2.127,0,0,0,.883-.914V58.9H129.48q-2.656,0-2.656,1.555a1.316,1.316,0,0,0,.453,1.063A1.742,1.742,0,0,0,128.441,61.9Zm11.8-9.4v2.047h1.578v1.117h-1.578v5.249a1.173,1.173,0,0,0,.211.763.888.888,0,0,0,.719.254,3.5,3.5,0,0,0,.688-.094V63a4.215,4.215,0,0,1-1.109.155,1.8,1.8,0,0,1-1.461-.586,2.517,2.517,0,0,1-.492-1.664V55.664h-1.539V54.547H138.8V52.5ZM145.082,63h-1.445V54.547h1.445ZM143.52,52.3a.863.863,0,0,1,.215-.594.807.807,0,0,1,.637-.242.819.819,0,0,1,.641.242.854.854,0,0,1,.219.594.826.826,0,0,1-.219.586.834.834,0,0,1-.641.234.821.821,0,0,1-.637-.234A.834.834,0,0,1,143.52,52.3ZM150.9,63.156a3.693,3.693,0,0,1-2.8-1.129,4.19,4.19,0,0,1-1.078-3.02v-.266a5.073,5.073,0,0,1,.48-2.246,3.748,3.748,0,0,1,1.344-1.547,3.378,3.378,0,0,1,1.871-.559,3.166,3.166,0,0,1,2.563,1.086,4.7,4.7,0,0,1,.914,3.109v.6h-5.727a3,3,0,0,0,.73,2.02,2.3,2.3,0,0,0,1.777.77,2.517,2.517,0,0,0,1.3-.312,3.258,3.258,0,0,0,.93-.828l.883.688A3.55,3.55,0,0,1,150.9,63.156Zm-.18-7.578a1.928,1.928,0,0,0-1.469.637A3.1,3.1,0,0,0,148.52,58h4.234v-.109a2.753,2.753,0,0,0-.594-1.707A1.815,1.815,0,0,0,150.723,55.578Zm9.234.266a4.331,4.331,0,0,0-.711-.055A1.9,1.9,0,0,0,157.316,57v6h-1.445V54.547h1.406l.023.977a2.251,2.251,0,0,1,2.016-1.133,1.477,1.477,0,0,1,.641.109Zm5.414,0a4.331,4.331,0,0,0-.711-.055A1.9,1.9,0,0,0,162.73,57v6h-1.445V54.547h1.406l.023.977a2.251,2.251,0,0,1,2.016-1.133,1.477,1.477,0,0,1,.641.109ZM171.605,63a3.036,3.036,0,0,1-.2-.891A3.225,3.225,0,0,1,169,63.156a2.984,2.984,0,0,1-2.051-.707,2.287,2.287,0,0,1-.8-1.793,2.39,2.39,0,0,1,1-2.051,4.733,4.733,0,0,1,2.824-.73h1.406v-.664A1.623,1.623,0,0,0,170.926,56a1.821,1.821,0,0,0-1.336-.449,2.107,2.107,0,0,0-1.3.391,1.151,1.151,0,0,0-.523.945h-1.453a2,2,0,0,1,.449-1.223,3.066,3.066,0,0,1,1.219-.934,4.1,4.1,0,0,1,1.691-.344,3.342,3.342,0,0,1,2.289.73,2.635,2.635,0,0,1,.859,2.012v3.891a4.757,4.757,0,0,0,.3,1.852V63Zm-2.4-1.1a2.54,2.54,0,0,0,1.289-.352,2.127,2.127,0,0,0,.883-.914V58.9h-1.133q-2.656,0-2.656,1.555a1.316,1.316,0,0,0,.453,1.063A1.742,1.742,0,0,0,169.207,61.9Zm5.914.344a.905.905,0,0,1,.223-.625.848.848,0,0,1,.668-.25.874.874,0,0,1,.676.25.887.887,0,0,1,.23.625.839.839,0,0,1-.23.6.89.89,0,0,1-.676.242.8.8,0,0,1-.891-.844Z" transform="translate(863 4721.368)" fill="#12263f"/>
    <path id="Trazado_119369" data-name="Trazado 119369" d="M68.962,13.6a1.268,1.268,0,0,0-.479-1.055,5.954,5.954,0,0,0-1.683-.782,16.147,16.147,0,0,1-1.969-.782q-2.487-1.222-2.487-3.357a3.011,3.011,0,0,1,.62-1.876A4.008,4.008,0,0,1,64.717,4.48a6.823,6.823,0,0,1,2.549-.453,5.969,5.969,0,0,1,2.474.492,3.917,3.917,0,0,1,1.7,1.4A3.661,3.661,0,0,1,72.047,8H68.971a1.547,1.547,0,0,0-.479-1.213,1.867,1.867,0,0,0-1.3-.431,2.106,2.106,0,0,0-1.305.365,1.074,1.074,0,0,0,.048,1.819,6.65,6.65,0,0,0,1.854.826,11.36,11.36,0,0,1,2.18.918,3.663,3.663,0,0,1,2.074,3.3,3.125,3.125,0,0,1-1.266,2.637,5.629,5.629,0,0,1-3.472.958,6.888,6.888,0,0,1-2.817-.558,4.247,4.247,0,0,1-1.9-1.529,3.985,3.985,0,0,1-.637-2.237h3.094a1.963,1.963,0,0,0,.532,1.516,2.513,2.513,0,0,0,1.727.488,1.985,1.985,0,0,0,1.208-.33A1.088,1.088,0,0,0,68.962,13.6Zm10.2,2.373a3.054,3.054,0,0,1-2.54,1.2,3,3,0,0,1-2.369-.91,3.826,3.826,0,0,1-.8-2.615V7.49h2.962v6.179a1.065,1.065,0,0,0,1.187,1.222,1.548,1.548,0,0,0,1.45-.729V7.49h2.979V17H79.246Zm10.239-5.8-.976-.07a1.752,1.752,0,0,0-1.793.879V17H83.667V7.49h2.777l.1,1.222a2.294,2.294,0,0,1,2.083-1.4,2.888,2.888,0,0,1,.826.105Zm4.922,4.72a1.317,1.317,0,0,0,.967-.338,1.241,1.241,0,0,0,.334-.945H98.4a3.288,3.288,0,0,1-1.121,2.566,4.168,4.168,0,0,1-2.887,1,4.22,4.22,0,0,1-3.27-1.3,5.125,5.125,0,0,1-1.2-3.6v-.123A5.792,5.792,0,0,1,90.456,9.6a3.872,3.872,0,0,1,1.534-1.7,4.573,4.573,0,0,1,2.373-.593,4.116,4.116,0,0,1,2.944,1.028,3.647,3.647,0,0,1,1.09,2.786H95.62A1.626,1.626,0,0,0,95.259,10a1.244,1.244,0,0,0-.967-.4q-1.151,0-1.345,1.468a10.357,10.357,0,0,0-.062,1.283,4.068,4.068,0,0,0,.343,1.986A1.187,1.187,0,0,0,94.319,14.891ZM105.006,17a3.344,3.344,0,0,1-.281-.853,2.754,2.754,0,0,1-2.285,1.028,3.374,3.374,0,0,1-2.285-.813,2.588,2.588,0,0,1-.94-2.043,2.66,2.66,0,0,1,1.143-2.338,5.821,5.821,0,0,1,3.322-.791h.914v-.5q0-1.316-1.134-1.316a.927.927,0,0,0-1.055,1.042H99.443a2.655,2.655,0,0,1,1.173-2.239,4.931,4.931,0,0,1,2.993-.86,4.323,4.323,0,0,1,2.874.888,3.086,3.086,0,0,1,1.081,2.435v4.21a4.311,4.311,0,0,0,.4,2V17Zm-1.854-1.934a1.652,1.652,0,0,0,.918-.237,1.487,1.487,0,0,0,.523-.536V12.772h-.861q-1.547,0-1.547,1.389a.848.848,0,0,0,.272.655A.986.986,0,0,0,103.152,15.066Zm5.678-2.892a5.809,5.809,0,0,1,.976-3.56,3.211,3.211,0,0,1,2.725-1.3,2.731,2.731,0,0,1,2.145,1V3.5h2.971V17h-2.663l-.149-1.02a2.8,2.8,0,0,1-2.32,1.2,3.205,3.205,0,0,1-2.689-1.3A5.993,5.993,0,0,1,108.83,12.175Zm2.962.185q0,2.531,1.477,2.531a1.458,1.458,0,0,0,1.406-.826V10.443a1.419,1.419,0,0,0-1.389-.844q-1.371,0-1.485,2.215Zm7.163-.2a5.613,5.613,0,0,1,.554-2.536A3.96,3.96,0,0,1,121.1,7.912a4.791,4.791,0,0,1,2.435-.6A4.373,4.373,0,0,1,126.9,8.637a5.076,5.076,0,0,1,1.23,3.6v.105a4.925,4.925,0,0,1-1.235,3.529,4.384,4.384,0,0,1-3.344,1.305,4.434,4.434,0,0,1-3.261-1.217,4.761,4.761,0,0,1-1.327-3.3Zm2.962.185a3.538,3.538,0,0,0,.413,1.934,1.376,1.376,0,0,0,1.222.615q1.582,0,1.617-2.435v-.3q0-2.558-1.635-2.558-1.485,0-1.608,2.206Z" transform="translate(863 4671.368)" fill="#12263f"/>
    <g id="Grupo_82050" data-name="Grupo 82050" transform="translate(1243.032 4250.621)">
      <g id="Grupo_82049" data-name="Grupo 82049" clip-path="url(#clip-path)">
        <rect id="Rectángulo_33968" data-name="Rectángulo 33968" width="237.669" height="187.994" transform="translate(-401.006 97.056)" fill="#9cc2e8"/>
        <g id="Grupo_81876" data-name="Grupo 81876">
          <path id="Trazado_117012" data-name="Trazado 117012" d="M-424.989,283.459l1.159,138.314c10.072.357,20.143.74,30.211,1.355,18.449,1.129,36.9,2.162,55.367,2.558,13.01.276,26.021.334,39.024-.255,11.43-.515,22.861-1.189,34.276-2.142,7.339-.614,14.652-1.79,21.97-2.835,4.8-.684,9.591-1.584,14.388-2.38.328-.053.7-.269.927.349l29.055-5.956c.123-.68.514-.63.841-.7q13.354-2.964,26.562-7.165c5.138-1.631,10.351-2.365,15.053-7.25A75.734,75.734,0,0,1-143.17,386.7V283.459Z" fill="#7c5757"/>
          <g id="Grupo_78547" data-name="Grupo 78547">
            <path id="Trazado_117013" data-name="Trazado 117013" d="M-337.513,285.624q-33.027,8.517-65.477,19.038v5.7q39.717-13.879,80.416-24.734Z" fill="#a88585"/>
            <path id="Trazado_117014" data-name="Trazado 117014" d="M-272.248,285.624q-65.841,19.734-130.742,43.3v7.19q71.416-27.629,144.212-50.485Z" fill="#a88585"/>
            <path id="Trazado_117015" data-name="Trazado 117015" d="M-224.575,285.624A1418.96,1418.96,0,0,0-374.026,342.5q-14.545,6.519-28.964,13.4v8.281q15.519-7.811,31.185-15.22a1422.2,1422.2,0,0,1,158.821-63.344Z" fill="#a88585"/>
            <path id="Trazado_117016" data-name="Trazado 117016" d="M-194.285,285.624q-65.926,25.809-130.118,57.189-39.909,19.525-78.587,41.39v9.821q39.771-23.64,80.956-44.813,68.091-34.906,138.273-63.587Z" fill="#a88585"/>
            <path id="Trazado_117017" data-name="Trazado 117017" d="M-147.282,285.624a951.916,951.916,0,0,0-96.2,45.947A773.8,773.8,0,0,0-351.4,402.9l4.92,8.708A776.6,776.6,0,0,1-240.9,337.85a956.182,956.182,0,0,1,103.481-52.226Z" fill="#a88585"/>
            <path id="Trazado_117018" data-name="Trazado 117018" d="M-125.006,287.837q-4.566,2.236-9.1,4.565a387.868,387.868,0,0,0-44.631,26.743c-14.212,10.108-28.585,19.817-42.9,29.854-14.292,10.066-44.234,30.668-57.856,42.41l20.889-1.834c12.973-11.843,26.848-22.506,40.832-32.97,13.994-10.446,28.212-20.654,42.2-31.255a389.348,389.348,0,0,1,43.38-28.079q3.577-2.008,7.185-3.946Z" fill="#a88585"/>
            <path id="Trazado_117019" data-name="Trazado 117019" d="M-125.006,304.687c-.912.69-1.829,1.372-2.733,2.073-25.95,19.731-73.94,63.919-98.976,84.649L-221.65,400c24.513-21.723,71.684-66.6,96.644-86.99Z" fill="#a88585"/>
            <path id="Trazado_117020" data-name="Trazado 117020" d="M-125.006,345.178a253.732,253.732,0,0,0-22.348,39.481l7.5,5.185a250.22,250.22,0,0,1,14.851-29.907Z" fill="#a88585"/>
          </g>
        </g>
        <g id="Grupo_81877" data-name="Grupo 81877">
          <path id="Trazado_117021" data-name="Trazado 117021" d="M-230.166,290.166a5.642,5.642,0,0,0-3.732.869,4.655,4.655,0,0,1-1.142.66,6.572,6.572,0,0,1-.84.141,3.323,3.323,0,0,0-1.671.807.76.76,0,0,0,.216,1.12,2.188,2.188,0,0,0,1.273.228l6.851-.163C-228.564,292.683-230.462,291.448-230.166,290.166Z" fill="#a88585"/>
        </g>
        <g id="Grupo_81878" data-name="Grupo 81878">
          <path id="Trazado_117022" data-name="Trazado 117022" d="M-245.951,294.512l5.164.263a2.51,2.51,0,0,0-1.135-1.835,2.006,2.006,0,0,0-2.172-.447A4.717,4.717,0,0,0-245.951,294.512Z" fill="#a88585"/>
        </g>
        <g id="Grupo_81879" data-name="Grupo 81879">
          <path id="Trazado_117023" data-name="Trazado 117023" d="M-291.576,287.736a2.758,2.758,0,0,0-2.249-1.06c-.781-.073-1.57-.08-2.34-.226-1.435-.273-2.809-1.023-4.265-.9-1.608.136-2.913,1.3-4.364,2-.209.648.55,1.162,1.18,1.421a20.3,20.3,0,0,0,4.233,1.387,6.833,6.833,0,0,0,4.35-.536C-293.837,289.188-292.886,288.073-291.576,287.736Z" fill="#a88585"/>
        </g>
        <g id="Grupo_81880" data-name="Grupo 81880">
          <path id="Trazado_117024" data-name="Trazado 117024" d="M-329.4,299.2c1.924-.569,4.166.33,5.925-.637a1.851,1.851,0,0,0-1.1-2.565,4.821,4.821,0,0,0-3.148.248,6.844,6.844,0,0,1-3.139.567c.133-.244-.089-.523-.294-.711l-1.618-1.488a10.609,10.609,0,0,0-4.827,1.762c.338.243.693.462,1.047.681l3.652,2.259a3.227,3.227,0,0,0,1.025.477A5.411,5.411,0,0,0-329.4,299.2Z" fill="#a88585"/>
        </g>
        <g id="Grupo_81881" data-name="Grupo 81881">
          <path id="Trazado_117025" data-name="Trazado 117025" d="M-184.923,325.378c1.924-.57,4.167.33,5.925-.638a1.851,1.851,0,0,0-1.1-2.565,4.828,4.828,0,0,0-3.148.248,6.829,6.829,0,0,1-3.138.567c.132-.244-.09-.523-.294-.711l-1.619-1.487a10.586,10.586,0,0,0-4.827,1.762c.339.242.693.462,1.047.681l3.653,2.259a3.192,3.192,0,0,0,1.025.476A5.4,5.4,0,0,0-184.923,325.378Z" fill="#a88585"/>
        </g>
        <g id="Grupo_81882" data-name="Grupo 81882">
          <path id="Trazado_117026" data-name="Trazado 117026" d="M-204.143,350.437c1.925-.57,4.167.33,5.926-.637a1.852,1.852,0,0,0-1.1-2.566,4.831,4.831,0,0,0-3.149.249,6.838,6.838,0,0,1-3.138.566c.133-.243-.089-.523-.294-.71l-1.618-1.488a10.582,10.582,0,0,0-4.827,1.762c.338.243.693.462,1.047.681l3.652,2.259a3.192,3.192,0,0,0,1.025.476A5.39,5.39,0,0,0-204.143,350.437Z" fill="#a88585"/>
        </g>
        <g id="Grupo_81883" data-name="Grupo 81883">
          <path id="Trazado_117027" data-name="Trazado 117027" d="M-362.262,340.234c1.925-.57,4.167.33,5.925-.638a1.85,1.85,0,0,0-1.1-2.565,4.831,4.831,0,0,0-3.149.248,6.826,6.826,0,0,1-3.138.567c.133-.244-.09-.523-.294-.711l-1.618-1.488a10.6,10.6,0,0,0-4.827,1.763c.338.242.693.462,1.047.681q1.826,1.129,3.652,2.258a3.173,3.173,0,0,0,1.025.477A5.4,5.4,0,0,0-362.262,340.234Z" fill="#a88585"/>
        </g>
        <g id="Grupo_81884" data-name="Grupo 81884">
          <path id="Trazado_117028" data-name="Trazado 117028" d="M-357.615,373.033c1.924-.569,4.167.331,5.925-.637a1.851,1.851,0,0,0-1.1-2.565,4.827,4.827,0,0,0-3.148.248,6.842,6.842,0,0,1-3.138.567c.132-.244-.09-.523-.294-.711l-1.619-1.488a10.609,10.609,0,0,0-4.827,1.762c.338.243.693.462,1.047.681l3.652,2.259a3.193,3.193,0,0,0,1.025.477A5.386,5.386,0,0,0-357.615,373.033Z" fill="#a88585"/>
        </g>
        <g id="Grupo_81885" data-name="Grupo 81885">
          <path id="Trazado_117029" data-name="Trazado 117029" d="M-389.607,318.513c1.925-.57,4.167.33,5.925-.638a1.85,1.85,0,0,0-1.1-2.565,4.831,4.831,0,0,0-3.149.248,6.839,6.839,0,0,1-3.138.567c.133-.244-.09-.523-.294-.711l-1.618-1.488a10.606,10.606,0,0,0-4.827,1.762c.338.243.693.462,1.047.681l3.652,2.259a3.173,3.173,0,0,0,1.025.477A5.4,5.4,0,0,0-389.607,318.513Z" fill="#a88585"/>
        </g>
        <g id="Grupo_81886" data-name="Grupo 81886">
          <path id="Trazado_117030" data-name="Trazado 117030" d="M-245.746,364.538c1.924-.569,4.167.33,5.925-.637a1.851,1.851,0,0,0-1.1-2.565,4.821,4.821,0,0,0-3.148.248,6.842,6.842,0,0,1-3.138.567c.132-.244-.09-.523-.294-.711l-1.619-1.488a10.61,10.61,0,0,0-4.827,1.762c.339.243.693.462,1.047.681l3.652,2.259a3.236,3.236,0,0,0,1.025.477A5.411,5.411,0,0,0-245.746,364.538Z" fill="#a88585"/>
        </g>
        <g id="Grupo_81887" data-name="Grupo 81887">
          <path id="Trazado_117031" data-name="Trazado 117031" d="M-320.828,293.724a2.266,2.266,0,0,0,1.7-.152,2.247,2.247,0,0,0,.62-.82l1.206-2.252a16.637,16.637,0,0,0-6.645-.469,2.082,2.082,0,0,1,.858,1.56,5.565,5.565,0,0,0,.028.7C-322.892,293.218-321.761,293.563-320.828,293.724Z" fill="#a88585"/>
        </g>
        <g id="Grupo_81888" data-name="Grupo 81888">
          <path id="Trazado_117032" data-name="Trazado 117032" d="M-278.557,307.3l6.894.918a14.312,14.312,0,0,0,5.2.054,4.863,4.863,0,0,0,3.73-3.281,17.423,17.423,0,0,0-6.973-.864c-1.95.292-3.763,1.242-5.722,1.462C-276.735,305.736-278.554,305.988-278.557,307.3Z" fill="#a88585"/>
        </g>
        <g id="Grupo_81889" data-name="Grupo 81889">
          <path id="Trazado_117033" data-name="Trazado 117033" d="M-270.646,365.541l6.895.918a14.329,14.329,0,0,0,5.2.054,4.863,4.863,0,0,0,3.73-3.281,17.419,17.419,0,0,0-6.972-.865c-1.95.293-3.763,1.243-5.723,1.463C-268.824,363.976-270.643,364.228-270.646,365.541Z" fill="#a88585"/>
        </g>
        <g id="Grupo_81890" data-name="Grupo 81890">
          <path id="Trazado_117034" data-name="Trazado 117034" d="M-259.156,307.789a2.193,2.193,0,0,0,1.061,1.063,4.55,4.55,0,0,0,4.875-.442c.869-.693,1.555-1.752,2.65-1.941.533-.092,1.083.046,1.621-.02s1.116-.476,1.05-1.013l-7.315-.312a5.778,5.778,0,0,0-2.794.344A1.984,1.984,0,0,0-259.156,307.789Z" fill="#a88585"/>
        </g>
        <g id="Grupo_81891" data-name="Grupo 81891">
          <path id="Trazado_117035" data-name="Trazado 117035" d="M-383.082,308.92l6.895.918a14.334,14.334,0,0,0,5.2.054,4.869,4.869,0,0,0,3.73-3.282,17.443,17.443,0,0,0-6.973-.864c-1.95.292-3.763,1.242-5.723,1.462C-381.26,307.355-383.079,307.606-383.082,308.92Z" fill="#a88585"/>
        </g>
        <g id="Grupo_81892" data-name="Grupo 81892">
          <path id="Trazado_117036" data-name="Trazado 117036" d="M-363.681,309.407a2.193,2.193,0,0,0,1.061,1.063,4.552,4.552,0,0,0,4.875-.441c.869-.694,1.555-1.753,2.651-1.942.533-.092,1.083.047,1.62-.02s1.116-.476,1.051-1.013l-7.315-.312a5.793,5.793,0,0,0-2.795.344A1.985,1.985,0,0,0-363.681,309.407Z" fill="#a88585"/>
        </g>
        <g id="Grupo_81893" data-name="Grupo 81893">
          <path id="Trazado_117037" data-name="Trazado 117037" d="M-211.873,343.791l6.9.918a14.335,14.335,0,0,0,5.2.054,4.866,4.866,0,0,0,3.73-3.282,17.441,17.441,0,0,0-6.973-.864c-1.95.293-3.763,1.243-5.722,1.462C-210.051,342.226-211.869,342.478-211.873,343.791Z" fill="#a88585"/>
        </g>
        <g id="Grupo_81894" data-name="Grupo 81894">
          <path id="Trazado_117038" data-name="Trazado 117038" d="M-192.472,344.278a2.195,2.195,0,0,0,1.062,1.063,4.552,4.552,0,0,0,4.875-.441c.868-.694,1.555-1.753,2.65-1.942.533-.092,1.083.047,1.62-.02s1.117-.476,1.051-1.013l-7.315-.311a5.777,5.777,0,0,0-2.794.343A1.986,1.986,0,0,0-192.472,344.278Z" fill="#a88585"/>
        </g>
        <g id="Grupo_81895" data-name="Grupo 81895">
          <path id="Trazado_117039" data-name="Trazado 117039" d="M-379.107,367.635l6.894.918a14.335,14.335,0,0,0,5.2.054,4.863,4.863,0,0,0,3.73-3.281,17.424,17.424,0,0,0-6.973-.865c-1.95.293-3.763,1.243-5.722,1.463C-377.285,366.07-379.1,366.322-379.107,367.635Z" fill="#a88585"/>
        </g>
        <g id="Grupo_81896" data-name="Grupo 81896">
          <path id="Trazado_117040" data-name="Trazado 117040" d="M-359.706,368.123a2.191,2.191,0,0,0,1.061,1.062,4.55,4.55,0,0,0,4.875-.441c.869-.694,1.555-1.753,2.65-1.941.533-.092,1.084.046,1.621-.021s1.116-.476,1.05-1.013l-7.315-.311a5.778,5.778,0,0,0-2.794.344A1.983,1.983,0,0,0-359.706,368.123Z" fill="#a88585"/>
        </g>
        <g id="Grupo_81897" data-name="Grupo 81897">
          <path id="Trazado_117041" data-name="Trazado 117041" d="M-320.862,336.1a2.195,2.195,0,0,0,1.061,1.062,4.548,4.548,0,0,0,4.875-.441c.869-.693,1.555-1.752,2.651-1.941.533-.092,1.083.046,1.62-.02s1.116-.476,1.051-1.014l-7.315-.311a5.781,5.781,0,0,0-2.795.344A1.984,1.984,0,0,0-320.862,336.1Z" fill="#a88585"/>
        </g>
        <g id="Grupo_81898" data-name="Grupo 81898">
          <path id="Trazado_117042" data-name="Trazado 117042" d="M-211.8,321.825a2.191,2.191,0,0,0,1.062,1.063,4.552,4.552,0,0,0,4.875-.441c.868-.694,1.554-1.753,2.65-1.942.533-.092,1.083.047,1.62-.02s1.116-.476,1.051-1.013l-7.315-.312a5.789,5.789,0,0,0-2.794.344A1.986,1.986,0,0,0-211.8,321.825Z" fill="#a88585"/>
        </g>
        <g id="Grupo_81899" data-name="Grupo 81899">
          <path id="Trazado_117043" data-name="Trazado 117043" d="M-299.706,293.354l-4.018-1.888c-.833-.391-1.666-.783-2.506-1.158a2.157,2.157,0,0,0-.977-.26,2.193,2.193,0,0,0-.908.336l-5.324,2.939c3.73,1.863,8.12,1.622,12.28,1.338C-300.368,294.606-299.275,294.019-299.706,293.354Z" fill="#a88585"/>
        </g>
        <g id="Grupo_81900" data-name="Grupo 81900">
          <path id="Trazado_117044" data-name="Trazado 117044" d="M-285.945,290.929l6.9.918a14.306,14.306,0,0,0,5.2.054,4.863,4.863,0,0,0,3.73-3.281,17.419,17.419,0,0,0-6.972-.865c-1.95.293-3.763,1.243-5.723,1.463C-284.123,289.364-285.942,289.616-285.945,290.929Z" fill="#a88585"/>
        </g>
        <g id="Grupo_81901" data-name="Grupo 81901">
          <path id="Trazado_117045" data-name="Trazado 117045" d="M-254.6,290.445a2.189,2.189,0,0,0,1.061,1.063,4.552,4.552,0,0,0,4.875-.441c.869-.694,1.555-1.753,2.65-1.942.534-.092,1.084.047,1.621-.02s1.116-.476,1.05-1.013l-7.314-.311a5.779,5.779,0,0,0-2.795.343A1.984,1.984,0,0,0-254.6,290.445Z" fill="#a88585"/>
        </g>
        <g id="Grupo_81902" data-name="Grupo 81902">
          <path id="Trazado_117046" data-name="Trazado 117046" d="M-296.073,281.088c-10.434-4.4-20.831-3.722-31.223-2.193-13.341,1.581-26.718-1.564-40.065-.832-5.761-1.951-11.734,2.147-17.681.644-4.31,1.253-8.655-2.471-12.964-1.122-2.883,3.582,1.309,6.674.054,7.713,18.878-.781,37.761-.8,56.664,1.971,9.866-3.214,19.754-3.126,29.639-3.526,13.487.286,26.981,1.651,40.476,3.169,35.375-1.962,70.755-3.232,106.155-1.489.015,2.127.166-4.167.156-5.69C-208.6,280.856-252.334,280.934-296.073,281.088Z" fill="#a88585"/>
        </g>
        <g id="Grupo_81903" data-name="Grupo 81903">
          <path id="Trazado_117047" data-name="Trazado 117047" d="M-339.775,290.4c0,1.07-2.415,1.937-5.394,1.937s-5.395-.867-5.395-1.937,2.415-1.936,5.395-1.936S-339.775,289.336-339.775,290.4Z" fill="#7c5757" fill-rule="evenodd"/>
        </g>
        <g id="Grupo_81904" data-name="Grupo 81904">
          <path id="Trazado_117048" data-name="Trazado 117048" d="M-266.931,291.6c0,.892-2.015,1.615-4.5,1.615s-4.5-.723-4.5-1.615,2.015-1.616,4.5-1.616S-266.931,290.7-266.931,291.6Z" fill="#7c5757" fill-rule="evenodd"/>
        </g>
        <g id="Grupo_81905" data-name="Grupo 81905">
          <path id="Trazado_117049" data-name="Trazado 117049" d="M-300.157,294.791c0,.688-1.554,1.246-3.471,1.246s-3.47-.558-3.47-1.246,1.554-1.246,3.47-1.246S-300.157,294.1-300.157,294.791Z" fill="#7c5757" fill-rule="evenodd"/>
        </g>
        <g id="Grupo_81906" data-name="Grupo 81906">
          <path id="Trazado_117050" data-name="Trazado 117050" d="M-238.378,294.929c0,.483-1.092.875-2.439.875s-2.44-.392-2.44-.875,1.093-.876,2.44-.876S-238.378,294.445-238.378,294.929Z" fill="#7c5757" fill-rule="evenodd"/>
        </g>
        <g id="Grupo_81907" data-name="Grupo 81907">
          <path id="Trazado_117051" data-name="Trazado 117051" d="M-274.387,307.436c0,.483-1.092.875-2.44.875s-2.439-.392-2.439-.875,1.092-.876,2.439-.876S-274.387,306.952-274.387,307.436Z" fill="#7c5757" fill-rule="evenodd"/>
        </g>
        <g id="Grupo_81908" data-name="Grupo 81908">
          <path id="Trazado_117052" data-name="Trazado 117052" d="M-183.542,151.614a4.932,4.932,0,0,0-5.08-3.711,5.169,5.169,0,0,0-4.828,2.859,12.624,12.624,0,0,0-3.934-.764,6.149,6.149,0,0,0,.1-1.064c0-4.213-4.292-7.628-9.587-7.628-.278,0-.552.015-.825.033a14.292,14.292,0,0,0-10.72-4.362c-5.374,0-9.975,2.5-11.908,6.055-4.79.39-8.655,2.39-9.855,5.009-2.218.417-3.916,1.823-4.247,3.573Z" fill="#fff"/>
        </g>
        <g id="Grupo_81909" data-name="Grupo 81909">
          <path id="Trazado_117053" data-name="Trazado 117053" d="M-319.191,168.794a5.73,5.73,0,0,0-3.042.85,7.293,7.293,0,0,0-4.379-1.107,11.691,11.691,0,0,0-1.368.086c-.726-3.641-4.677-6.426-9.456-6.426-.278,0-.552.015-.825.033a14.294,14.294,0,0,0-10.72-4.362c-5.374,0-9.976,2.5-11.909,6.055-4.789.39-8.654,2.39-9.854,5.009-2.218.417-3.916,1.823-4.247,3.573h60.88A4.932,4.932,0,0,0-319.191,168.794Z" fill="#fff"/>
        </g>
        <g id="Grupo_82048" data-name="Grupo 82048">
          <g id="Grupo_81910" data-name="Grupo 81910">
            <path id="Trazado_117054" data-name="Trazado 117054" d="M-359.252,284.69c33.868.084,150.037.263,169.518-.2l-19.91,4.881a1.958,1.958,0,0,1-1.684-.105c-.455-.365-.191-1.354.371-1.193l-6.587.909c.666-.191-.184-1.1-.875-1.14a80.268,80.268,0,0,0-32.54,5.115q.8-1.6,1.6-3.2l-7.144,1.115-7.667.6,1.725-1.774-6.92,1.647c.473.277.915-.6.546-1.006a1.779,1.779,0,0,0-1.55-.314L-296.694,293a4.62,4.62,0,0,1,.39-2.387l-3.321-.018,1.539-1.2-18.085,1.178c.585-.8-.8-1.548-1.792-1.576l-21.467-.621c-10.138-.293-20.336-.593-30.275-2.615l15.337-.311Z" fill="#a88585"/>
          </g>
          <g id="Grupo_81911" data-name="Grupo 81911">
            <path id="Trazado_117055" data-name="Trazado 117055" d="M-308.672,297.755c2.061-.353,4.462.2,6.345-.4.658-.547-.1-1.36-1.177-1.591a8.7,8.7,0,0,0-3.372.154,12.147,12.147,0,0,1-3.361.351c.142-.151-.1-.324-.315-.441l-1.733-.923a17.191,17.191,0,0,0-5.17,1.093c.363.151.742.287,1.122.423l3.911,1.4a4.9,4.9,0,0,0,1.1.3A9.37,9.37,0,0,0-308.672,297.755Z" fill="#a88585"/>
          </g>
          <g id="Grupo_81912" data-name="Grupo 81912">
            <path id="Trazado_117056" data-name="Trazado 117056" d="M-321.835,368.794c2.061-.354,4.463.2,6.346-.4.658-.546-.1-1.359-1.178-1.591a8.735,8.735,0,0,0-3.372.154,12.144,12.144,0,0,1-3.361.352c.143-.151-.1-.324-.314-.441l-1.734-.923a17.179,17.179,0,0,0-5.169,1.093c.362.151.742.287,1.121.423l3.911,1.4a4.852,4.852,0,0,0,1.1.3A9.37,9.37,0,0,0-321.835,368.794Z" fill="#a88585"/>
          </g>
          <g id="Grupo_81913" data-name="Grupo 81913">
            <path id="Trazado_117057" data-name="Trazado 117057" d="M-321.8,297.729a4.063,4.063,0,0,0,1.818-.094,1.817,1.817,0,0,0,.663-.509l1.293-1.4a30.4,30.4,0,0,0-7.117-.29,1.328,1.328,0,0,1,.919.967,1.9,1.9,0,0,0,.03.432C-324.006,297.415-322.8,297.629-321.8,297.729Z" fill="#a88585"/>
          </g>
          <g id="Grupo_81914" data-name="Grupo 81914">
            <path id="Trazado_117058" data-name="Trazado 117058" d="M-245.5,293.347a2.17,2.17,0,0,0,1.136.659,7.908,7.908,0,0,0,5.221-.274,8.351,8.351,0,0,1,2.839-1.2c.571-.057,1.16.029,1.735-.012s1.2-.295,1.125-.629l-7.834-.193a10.409,10.409,0,0,0-2.992.214C-245.185,292.165-245.869,292.8-245.5,293.347Z" fill="#a88585"/>
          </g>
          <g id="Grupo_81915" data-name="Grupo 81915">
            <ellipse id="Elipse_4834" data-name="Elipse 4834" cx="4.099" cy="1.51" rx="4.099" ry="1.51" transform="translate(-338.896 292.706)" fill="#a88585"/>
          </g>
          <g id="Grupo_81916" data-name="Grupo 81916">
            <ellipse id="Elipse_4835" data-name="Elipse 4835" cx="4.099" cy="1.51" rx="4.099" ry="1.51" transform="translate(-209.265 369.543)" fill="#a88585"/>
          </g>
          <g id="Grupo_81917" data-name="Grupo 81917">
            <ellipse id="Elipse_4836" data-name="Elipse 4836" cx="4.099" cy="1.51" rx="4.099" ry="1.51" transform="translate(-236.772 373.469)" fill="#a88585"/>
          </g>
          <g id="Grupo_81918" data-name="Grupo 81918">
            <ellipse id="Elipse_4837" data-name="Elipse 4837" cx="4.099" cy="1.51" rx="4.099" ry="1.51" transform="translate(-331.129 287.241)" fill="#a88585"/>
          </g>
          <g id="Grupo_81919" data-name="Grupo 81919">
            <ellipse id="Elipse_4838" data-name="Elipse 4838" cx="4.099" cy="1.51" rx="4.099" ry="1.51" transform="translate(-237.638 295.295)" fill="#a88585"/>
          </g>
          <g id="Grupo_81920" data-name="Grupo 81920">
            <ellipse id="Elipse_4839" data-name="Elipse 4839" cx="4.099" cy="1.51" rx="4.099" ry="1.51" transform="translate(-180.582 296.806)" fill="#a88585"/>
          </g>
          <g id="Grupo_81921" data-name="Grupo 81921">
            <path id="Trazado_117059" data-name="Trazado 117059" d="M-272.9,292.922c0,.437-.962.791-2.147.791s-2.148-.354-2.148-.791.962-.791,2.148-.791S-272.9,292.485-272.9,292.922Z" fill="#a88585" fill-rule="evenodd"/>
          </g>
          <g id="Grupo_81922" data-name="Grupo 81922">
            <path id="Trazado_117060" data-name="Trazado 117060" d="M-307.4,290.189c0,.82-1.8,1.484-4.026,1.484s-4.026-.664-4.026-1.484,1.8-1.483,4.026-1.483S-307.4,289.37-307.4,290.189Z" fill="#7c5757" fill-rule="evenodd"/>
          </g>
          <g id="Grupo_81923" data-name="Grupo 81923">
            <ellipse id="Elipse_4840" data-name="Elipse 4840" cx="3.245" cy="1.196" rx="3.245" ry="1.196" transform="translate(-347.095 286.836)" fill="#7c5757"/>
          </g>
          <g id="Grupo_81924" data-name="Grupo 81924">
            <ellipse id="Elipse_4841" data-name="Elipse 4841" cx="3.245" cy="1.196" rx="3.245" ry="1.196" transform="translate(-228.432 289.713)" fill="#7c5757"/>
          </g>
          <g id="Grupo_82047" data-name="Grupo 82047">
            <g id="Grupo_81926" data-name="Grupo 81926">
              <g id="Grupo_81925" data-name="Grupo 81925">
                <path id="Trazado_117061" data-name="Trazado 117061" d="M-260.939,277.5l-1.5-.135c.038-.421.049-1.353.062-2.433.056-4.682.2-9.394,1.225-11.1l7.167-10.33,1.238.86-7.141,10.29c-.876,1.452-.945,7.2-.982,10.3C-260.884,276.1-260.895,277.018-260.939,277.5Z" fill="#404041"/>
              </g>
            </g>
            <g id="Grupo_81927" data-name="Grupo 81927">
              <path id="Trazado_117062" data-name="Trazado 117062" d="M-254.1,253.281l-3.078,4.414a.467.467,0,0,0,.115.648l.827.575a.464.464,0,0,0,.647-.114l3.079-4.415a.466.466,0,0,0-.116-.646l-.827-.577a.465.465,0,0,0-.647.115Z" fill="#58595b" fill-rule="evenodd"/>
            </g>
            <g id="Grupo_82016" data-name="Grupo 82016">
              <g id="Grupo_81933" data-name="Grupo 81933">
                <g id="Grupo_81928" data-name="Grupo 81928">
                  <path id="Trazado_117063" data-name="Trazado 117063" d="M-313.372,211.014l-27.787,22.236-.056,3,31.527-25.229Z" fill="#2b646f"/>
                </g>
                <g id="Grupo_81929" data-name="Grupo 81929">
                  <path id="Trazado_117064" data-name="Trazado 117064" d="M-337.769,210.967c-1.088,4.471-1.892,8.99-2.548,13.533l16.877-13.505Z" fill="#2b646f"/>
                </g>
                <g id="Grupo_81930" data-name="Grupo 81930">
                  <path id="Trazado_117065" data-name="Trazado 117065" d="M-307.373,211.025l1.636,2.044-33.675,26.948-1.83-2.287-.164,8.812h6.89l0-.367h18.733v-16.3h11.218V211.031Z" fill="#2b646f"/>
                </g>
                <g id="Grupo_81931" data-name="Grupo 81931">
                  <path id="Trazado_117066" data-name="Trazado 117066" d="M-323.44,210.995-340.317,224.5c-.287,1.992-.555,3.987-.791,5.987l-.051,2.763,27.787-22.236Z" fill="#4eaaa7"/>
                </g>
                <g id="Grupo_81932" data-name="Grupo 81932">
                  <path id="Trazado_117067" data-name="Trazado 117067" d="M-305.738,213.07l-1.636-2.044-2.314,0-31.527,25.229-.027,1.48,1.83,2.287Z" fill="#4eaaa7"/>
                </g>
              </g>
              <g id="Grupo_82013" data-name="Grupo 82013">
                <g id="Grupo_81934" data-name="Grupo 81934">
                  <path id="Trazado_117068" data-name="Trazado 117068" d="M-340.381,244.242h15.613v3.423h-15.613v-3.423Z" fill="#404041" fill-rule="evenodd"/>
                </g>
                <g id="Grupo_81935" data-name="Grupo 81935">
                  <path id="Trazado_117069" data-name="Trazado 117069" d="M-294.23,234.777c3.113,0,5.638-1.49,5.638-3.328s-2.525-3.327-5.638-3.327-5.638,1.49-5.638,3.327,2.525,3.328,5.638,3.328Z" fill="#17854a" fill-rule="evenodd"/>
                </g>
                <g id="Grupo_81936" data-name="Grupo 81936">
                  <path id="Trazado_117070" data-name="Trazado 117070" d="M-288.622,231.79a1.937,1.937,0,0,0,.03-.341c0-1.432-1.535-2.652-3.685-3.121a5.918,5.918,0,0,0,3.655,3.462Z" fill="#f48120" fill-rule="evenodd"/>
                </g>
                <g id="Grupo_81937" data-name="Grupo 81937">
                  <path id="Trazado_117071" data-name="Trazado 117071" d="M-361.569,260.957h55.049v2.314h-55.049v-2.314Z" fill="#404041" fill-rule="evenodd"/>
                </g>
                <g id="Grupo_81938" data-name="Grupo 81938">
                  <path id="Trazado_117072" data-name="Trazado 117072" d="M-316.079,211.56v22.468h-1.785V211.56h-22.39l.32-1.515,34.121-.887v2.4Z" fill="#404041" fill-rule="evenodd"/>
                </g>
                <g id="Grupo_81939" data-name="Grupo 81939">
                  <path id="Trazado_117073" data-name="Trazado 117073" d="M-303.312,211.372l2.487,18.877-3.622.1-1.655-18.77,2.79-.209Z" fill="#404041" fill-rule="evenodd"/>
                </g>
                <g id="Grupo_81940" data-name="Grupo 81940">
                  <path id="Trazado_117074" data-name="Trazado 117074" d="M-303.846,226.378c-3.3,0-11.969,1.447-13.768,2.826-3.519,2.7-10.528,14.231-9.724,21.562.844,7.7,17.43,2.39,20.149-9,.349-1.465,7.96-15.653,3.343-15.391Z" fill="#404041" fill-rule="evenodd"/>
                </g>
                <g id="Grupo_81941" data-name="Grupo 81941">
                  <path id="Trazado_117075" data-name="Trazado 117075" d="M-335.6,211.073h1.835v39.406H-335.6V211.073Z" fill="#404041" fill-rule="evenodd"/>
                </g>
                <g id="Grupo_81942" data-name="Grupo 81942">
                  <path id="Trazado_117076" data-name="Trazado 117076" d="M-393.193,251.95l.23-2.391a1.077,1.077,0,0,1,.565-.862,1.078,1.078,0,0,1,1.031-.021l6.213,3.11-8.039.164Z" fill="#17854a" fill-rule="evenodd"/>
                </g>
                <g id="Grupo_81943" data-name="Grupo 81943">
                  <path id="Trazado_117077" data-name="Trazado 117077" d="M-369.83,259.336l-2.052-13.476-1.457-5.868c-.674-2.712-2.6-3.046-4.661-3.046h-6.368c5.088-5.331,33.279-6.456,44.305-6.456l0,16.052h14.005c1.865-6.535,6.5-14.187,9.745-15.939,25.627-8,36.655,6.683,36.559,9.025-.285,6.982-13.917,1.723-15.844,12.191-1.39,7.554-7.176,12.954-14.591,12.954-4.43,0-6.39-5.146-10.917-5.171l-48.726-.266Z" fill="#00a551" fill-rule="evenodd"/>
                </g>
                <g id="Grupo_81944" data-name="Grupo 81944">
                  <path id="Trazado_117078" data-name="Trazado 117078" d="M-384.37,236.946l1.871,16.564h15.727l-5-17.214-12.6.65Z" fill="#404041" fill-rule="evenodd"/>
                </g>
                <g id="Grupo_81945" data-name="Grupo 81945">
                  <path id="Trazado_117079" data-name="Trazado 117079" d="M-383.416,236.9l2.266,16.613h.959l-2.327-16.66-.9.046Z" fill="#231f20" fill-rule="evenodd"/>
                </g>
                <g id="Grupo_81946" data-name="Grupo 81946">
                  <path id="Trazado_117080" data-name="Trazado 117080" d="M-381.312,236.789l2.282,16.722h.959l-2.343-16.768-.9.046Z" fill="#231f20" fill-rule="evenodd"/>
                </g>
                <g id="Grupo_81947" data-name="Grupo 81947">
                  <path id="Trazado_117081" data-name="Trazado 117081" d="M-379.207,236.68l2.3,16.831h.96l-2.358-16.877-.9.046Z" fill="#231f20" fill-rule="evenodd"/>
                </g>
                <g id="Grupo_81948" data-name="Grupo 81948">
                  <path id="Trazado_117082" data-name="Trazado 117082" d="M-377.1,236.571l2.311,16.939h.959l-2.373-16.986-.9.047Z" fill="#231f20" fill-rule="evenodd"/>
                </g>
                <g id="Grupo_81949" data-name="Grupo 81949">
                  <path id="Trazado_117083" data-name="Trazado 117083" d="M-375,236.463l2.326,17.048h.959l-2.388-17.094-.9.046Z" fill="#231f20" fill-rule="evenodd"/>
                </g>
                <g id="Grupo_81950" data-name="Grupo 81950">
                  <path id="Trazado_117084" data-name="Trazado 117084" d="M-372.893,236.354l2.34,17.156h.96l-2.4-17.2-.9.046Z" fill="#231f20" fill-rule="evenodd"/>
                </g>
                <g id="Grupo_81951" data-name="Grupo 81951">
                  <path id="Trazado_117085" data-name="Trazado 117085" d="M-274.658,268.244a3.206,3.206,0,0,1-1.958,3.575,2.633,2.633,0,0,1-3.176-2.31,3.747,3.747,0,0,1,.13-1.983h-4.914c-.289,0-.525-.083-.525-.185v-.715c0-.1.236-.185.525-.185h6.4c.289,0,.525.083.525.185v.715c0,.1-.236.185-.525.185h-.386a3.932,3.932,0,0,0,.078.689c.286,1.393,1.246,2.3,2.144,2.037a2.02,2.02,0,0,0,1.172-1.856l.509-.152Z" fill="#00a551" fill-rule="evenodd"/>
                </g>
                <g id="Grupo_81952" data-name="Grupo 81952">
                  <path id="Trazado_117086" data-name="Trazado 117086" d="M-340.465,230.247h1.83v16.3h-1.83v-16.3Z" fill="#404041" fill-rule="evenodd"/>
                </g>
                <g id="Grupo_81953" data-name="Grupo 81953">
                  <path id="Trazado_117087" data-name="Trazado 117087" d="M-397.911,252.336c0,1.662.336,8,.793,8.441.693.672,9.74,1.115,13.115,1.115,4.646,0,4.168-11.361.425-11.361-2.236,0-14.15.883-14.333,1.8Z" fill="#00a551" fill-rule="evenodd"/>
                </g>
                <g id="Grupo_81954" data-name="Grupo 81954">
                  <path id="Trazado_117088" data-name="Trazado 117088" d="M-339.934,210.045c.132-2.4,20.966-2.837,31.946-2.065,3.871.272,4.474,1.486,4.7,3.6H-306.1c-.2-.85-.648-1.536-4.186-1.536Z" fill="#00a551" fill-rule="evenodd"/>
                </g>
                <g id="Grupo_81955" data-name="Grupo 81955">
                  <path id="Trazado_117089" data-name="Trazado 117089" d="M-341.152,229.007h23.821v1.546l-24.072-.067.25-1.479Z" fill="#404041" fill-rule="evenodd"/>
                </g>
                <g id="Grupo_81956" data-name="Grupo 81956">
                  <path id="Trazado_117090" data-name="Trazado 117090" d="M-302.561,210.7h0a1.669,1.669,0,0,1,2.1-1.069l1.074.348-1.028,3.167-1.073-.349a1.669,1.669,0,0,1-1.071-2.1Z" fill="#404041" fill-rule="evenodd"/>
                </g>
                <g id="Grupo_81957" data-name="Grupo 81957">
                  <path id="Trazado_117091" data-name="Trazado 117091" d="M-342.555,214.768h2.295a.745.745,0,0,1,.743.743v7.775a.745.745,0,0,1-.743.743h-2.295a.745.745,0,0,1-.744-.743v-7.775a.745.745,0,0,1,.744-.743Z" fill="#404041" fill-rule="evenodd"/>
                </g>
                <g id="Grupo_81958" data-name="Grupo 81958">
                  <path id="Trazado_117092" data-name="Trazado 117092" d="M-341.2,216.02h-.691v-2.754a2.561,2.561,0,0,1,2.542-2.558l3.521-.02,0,.692-3.521.019a1.868,1.868,0,0,0-1.854,1.867Z" fill="#404041"/>
                </g>
                <g id="Grupo_81959" data-name="Grupo 81959">
                  <path id="Trazado_117093" data-name="Trazado 117093" d="M-374.758,235.2c5.207-2.075,18.78-2.582,33.132-3.007l-.108,2c-10.357-.121-21.179.084-33.024,1Z" fill="#ffdd0f" fill-rule="evenodd"/>
                </g>
                <g id="Grupo_81960" data-name="Grupo 81960">
                  <path id="Trazado_117094" data-name="Trazado 117094" d="M-277.529,241.513c-1.112-3.976-16.037-14.747-29.419-10.777-12.158,3.606-18.87,11.886-19.074,28.84l15.747-.011,32.746-18.052Z" fill="#404041" fill-rule="evenodd"/>
                </g>
                <g id="Grupo_81961" data-name="Grupo 81961">
                  <path id="Trazado_117095" data-name="Trazado 117095" d="M-300.549,235.793a23.28,23.28,0,0,1,23.277,23.277,23.28,23.28,0,0,1-23.277,23.277,23.28,23.28,0,0,1-23.277-23.277,23.28,23.28,0,0,1,23.277-23.277Z" fill="#404041" fill-rule="evenodd"/>
                </g>
                <g id="Grupo_81962" data-name="Grupo 81962">
                  <path id="Trazado_117096" data-name="Trazado 117096" d="M-300.549,239.109a19.963,19.963,0,0,1,19.961,19.961,19.963,19.963,0,0,1-19.961,19.961A19.963,19.963,0,0,1-320.51,259.07a19.962,19.962,0,0,1,19.961-19.961Z" fill="#58595b" fill-rule="evenodd"/>
                </g>
                <g id="Grupo_81963" data-name="Grupo 81963">
                  <path id="Trazado_117097" data-name="Trazado 117097" d="M-301.643,235.715l-.194,4.151q.639-.042,1.288-.043.33,0,.655.012l-.36-4.142c-.1,0-.2,0-.3,0-.367,0-.732.01-1.094.026Zm4.881.281q.687.111,1.362.263l-.508,4.128a19.348,19.348,0,0,0-1.907-.371l1.053-4.02Zm4.716,1.289q.646.252,1.276.543l-1.355,3.933a19.221,19.221,0,0,0-1.787-.763l1.866-3.713Zm4.34,2.248q.58.381,1.137.8l-2.143,3.564q-.765-.6-1.59-1.117l2.6-3.243Zm3.78,3.1q.487.494.947,1.016l-2.838,3.041a18.961,18.961,0,0,0-1.324-1.423l3.215-2.634Zm3.058,3.814q.375.583.714,1.19l-3.407,2.385a19.286,19.286,0,0,0-1-1.667l3.693-1.908Zm2.2,4.368c.163.431.315.868.453,1.311l-3.831,1.624a18.835,18.835,0,0,0-.63-1.837l4.008-1.1Zm1.237,4.729q.1.682.166,1.378l-4.083.792a19.123,19.123,0,0,0-.232-1.929l4.149-.241Zm.225,4.883c-.026.464-.067.926-.12,1.383l-4.158-.074a19.294,19.294,0,0,0,.17-1.936l4.108.627ZM-278,265.25q-.183.67-.4,1.327l-4.053-.937a19.1,19.1,0,0,0,.569-1.858L-278,265.25Zm-1.778,4.553q-.32.618-.675,1.213l-3.769-1.759a19.359,19.359,0,0,0,.945-1.7l3.5,2.244Zm-2.688,4.082q-.441.537-.912,1.047l-3.321-2.5a19.32,19.32,0,0,0,1.278-1.464l2.955,2.921Zm-3.476,3.436q-.541.433-1.108.837l-2.727-3.139q.805-.546,1.552-1.17l2.283,3.472Zm-4.113,2.643q-.618.312-1.256.588l-2.016-3.639a19.052,19.052,0,0,0,1.761-.821l1.511,3.872Zm-4.573,1.728q-.668.174-1.352.31l-1.215-3.977a19.427,19.427,0,0,0,1.894-.434l.673,4.1Zm-4.832.733c-.363.016-.726.026-1.092.026-.1,0-.2,0-.3,0l-.362-4.142c.219.007.438.013.658.013.432,0,.86-.017,1.286-.045l-.194,4.152Zm-4.88-.281q-.688-.113-1.363-.264l.508-4.129a19.029,19.029,0,0,0,1.908.371l-1.053,4.022Zm-4.716-1.29c-.432-.168-.857-.351-1.277-.544l1.356-3.932a18.951,18.951,0,0,0,1.787.762l-1.866,3.714Zm-4.34-2.248c-.387-.255-.767-.519-1.137-.8l2.143-3.565a19.224,19.224,0,0,0,1.591,1.117l-2.6,3.244Zm-3.78-3.1q-.487-.494-.946-1.016l2.837-3.041a19.155,19.155,0,0,0,1.324,1.423l-3.215,2.634Zm-3.057-3.814q-.375-.584-.715-1.19l3.408-2.384a19.02,19.02,0,0,0,1,1.666l-3.693,1.908Zm-2.2-4.367c-.163-.431-.316-.868-.453-1.311l3.83-1.625a19.036,19.036,0,0,0,.631,1.838l-4.008,1.1Zm-1.238-4.729c-.069-.455-.123-.915-.166-1.378l4.083-.792a19.357,19.357,0,0,0,.233,1.929l-4.15.241Zm-.225-4.882q.041-.7.121-1.383l4.157.073q-.132.955-.17,1.937l-4.108-.627Zm.788-4.825q.183-.671.4-1.327l4.053.937a19.015,19.015,0,0,0-.569,1.858l-3.888-1.468Zm1.778-4.553c.212-.412.438-.816.674-1.213l3.769,1.759a19.213,19.213,0,0,0-.945,1.7l-3.5-2.244Zm2.688-4.082q.441-.537.912-1.047l3.32,2.5a19.335,19.335,0,0,0-1.278,1.465l-2.954-2.921Zm3.475-3.436q.542-.435,1.108-.837l2.727,3.139a19.016,19.016,0,0,0-1.552,1.169l-2.283-3.471Zm4.112-2.644q.618-.312,1.258-.587l2.015,3.638a19.048,19.048,0,0,0-1.761.821l-1.512-3.872Zm4.573-1.728q.669-.176,1.353-.31l1.215,3.977a18.852,18.852,0,0,0-1.894.433l-.674-4.1Z" fill="#58595b" fill-rule="evenodd"/>
                </g>
                <g id="Grupo_81964" data-name="Grupo 81964">
                  <path id="Trazado_117098" data-name="Trazado 117098" d="M-300.549,246.139a12.932,12.932,0,0,1,12.931,12.931A12.933,12.933,0,0,1-300.549,272a12.933,12.933,0,0,1-12.932-12.932,12.933,12.933,0,0,1,12.932-12.931Z" fill="#ffdd0f" fill-rule="evenodd"/>
                </g>
                <g id="Grupo_81965" data-name="Grupo 81965">
                  <path id="Trazado_117099" data-name="Trazado 117099" d="M-300.549,248.393a10.679,10.679,0,0,1,10.677,10.677,10.678,10.678,0,0,1-10.677,10.677,10.678,10.678,0,0,1-10.677-10.677,10.679,10.679,0,0,1,10.677-10.677Z" fill="#eeb926" fill-rule="evenodd"/>
                </g>
                <g id="Grupo_81966" data-name="Grupo 81966">
                  <path id="Trazado_117100" data-name="Trazado 117100" d="M-300.549,254.627a4.443,4.443,0,0,1,4.443,4.443,4.444,4.444,0,0,1-4.443,4.444,4.444,4.444,0,0,1-4.443-4.444,4.444,4.444,0,0,1,4.443-4.443Z" fill="#ffdd0f" fill-rule="evenodd"/>
                </g>
                <g id="Grupo_81967" data-name="Grupo 81967">
                  <path id="Trazado_117101" data-name="Trazado 117101" d="M-300.549,252.108a.686.686,0,0,1,.686.686.687.687,0,0,1-.686.687.687.687,0,0,1-.686-.687.686.686,0,0,1,.686-.686Z" fill="#ffdd0f" fill-rule="evenodd"/>
                </g>
                <g id="Grupo_81968" data-name="Grupo 81968">
                  <path id="Trazado_117102" data-name="Trazado 117102" d="M-304.642,253.437a.686.686,0,0,1,.959.152.686.686,0,0,1-.152.959.687.687,0,0,1-.958-.152.687.687,0,0,1,.151-.959Z" fill="#ffdd0f" fill-rule="evenodd"/>
                </g>
                <g id="Grupo_81969" data-name="Grupo 81969">
                  <path id="Trazado_117103" data-name="Trazado 117103" d="M-307.171,256.918a.685.685,0,0,1,.864-.441.687.687,0,0,1,.441.865.686.686,0,0,1-.865.44.685.685,0,0,1-.44-.864Z" fill="#ffdd0f" fill-rule="evenodd"/>
                </g>
                <g id="Grupo_81970" data-name="Grupo 81970">
                  <path id="Trazado_117104" data-name="Trazado 117104" d="M-307.172,261.221a.686.686,0,0,1,.44-.865.686.686,0,0,1,.865.441.685.685,0,0,1-.44.864.686.686,0,0,1-.865-.44Z" fill="#ffdd0f" fill-rule="evenodd"/>
                </g>
                <g id="Grupo_81971" data-name="Grupo 81971">
                  <path id="Trazado_117105" data-name="Trazado 117105" d="M-304.643,264.7a.685.685,0,0,1-.152-.958.686.686,0,0,1,.958-.152.685.685,0,0,1,.152.958.685.685,0,0,1-.958.152Z" fill="#ffdd0f" fill-rule="evenodd"/>
                </g>
                <g id="Grupo_81972" data-name="Grupo 81972">
                  <path id="Trazado_117106" data-name="Trazado 117106" d="M-300.551,266.033a.688.688,0,0,1-.687-.687.687.687,0,0,1,.687-.686.686.686,0,0,1,.686.686.687.687,0,0,1-.686.687Z" fill="#ffdd0f" fill-rule="evenodd"/>
                </g>
                <g id="Grupo_81973" data-name="Grupo 81973">
                  <path id="Trazado_117107" data-name="Trazado 117107" d="M-296.459,264.7a.686.686,0,0,1-.958-.152.686.686,0,0,1,.152-.959.686.686,0,0,1,.958.152.686.686,0,0,1-.152.959Z" fill="#ffdd0f" fill-rule="evenodd"/>
                </g>
                <g id="Grupo_81974" data-name="Grupo 81974">
                  <path id="Trazado_117108" data-name="Trazado 117108" d="M-293.929,261.223a.686.686,0,0,1-.865.44.687.687,0,0,1-.441-.864.688.688,0,0,1,.866-.441.686.686,0,0,1,.44.865Z" fill="#ffdd0f" fill-rule="evenodd"/>
                </g>
                <g id="Grupo_81975" data-name="Grupo 81975">
                  <path id="Trazado_117109" data-name="Trazado 117109" d="M-293.928,256.92a.687.687,0,0,1-.441.865.687.687,0,0,1-.865-.441.687.687,0,0,1,.441-.865.686.686,0,0,1,.865.441Z" fill="#ffdd0f" fill-rule="evenodd"/>
                </g>
                <g id="Grupo_81976" data-name="Grupo 81976">
                  <path id="Trazado_117110" data-name="Trazado 117110" d="M-296.457,253.438a.687.687,0,0,1,.152.959.687.687,0,0,1-.958.152.687.687,0,0,1-.153-.959.687.687,0,0,1,.959-.152Z" fill="#ffdd0f" fill-rule="evenodd"/>
                </g>
                <g id="Grupo_81977" data-name="Grupo 81977">
                  <path id="Trazado_117111" data-name="Trazado 117111" d="M-335.024,204.02h1.064v9.05h-1.064v-9.05Z" fill="#404041" fill-rule="evenodd"/>
                </g>
                <g id="Grupo_81978" data-name="Grupo 81978">
                  <path id="Trazado_117112" data-name="Trazado 117112" d="M-334.492,199.442h0a1.813,1.813,0,0,1,1.808,1.808v1.228a1.813,1.813,0,0,1-1.808,1.808h0a1.813,1.813,0,0,1-1.808-1.808V201.25a1.813,1.813,0,0,1,1.808-1.808Z" fill="#f48120" fill-rule="evenodd"/>
                </g>
                <g id="Grupo_81979" data-name="Grupo 81979">
                  <path id="Trazado_117113" data-name="Trazado 117113" d="M-332.684,202.423v.055a1.813,1.813,0,0,1-1.808,1.808h0a1.813,1.813,0,0,1-1.808-1.808v-.055Z" fill="#404041" fill-rule="evenodd"/>
                </g>
                <g id="Grupo_81980" data-name="Grupo 81980">
                  <path id="Trazado_117114" data-name="Trazado 117114" d="M-371.766,236.308c6.945-.655,20.732-.9,31.3-.893v11.127h13.929l-.549,13.027-37.38-.2-5.464-16.728-1.837-6.329Z" fill="#17854a" fill-rule="evenodd"/>
                </g>
                <g id="Grupo_81981" data-name="Grupo 81981">
                  <path id="Trazado_117115" data-name="Trazado 117115" d="M-379.139,245.233h0c.01,1.1-1.279,2.016-2.866,2.023l-1.955.009-.037-4.021,1.956-.009c1.585-.006,2.891.891,2.9,2Z" fill="#58595b" fill-rule="evenodd"/>
                </g>
                <g id="Grupo_81982" data-name="Grupo 81982">
                  <path id="Trazado_117116" data-name="Trazado 117116" d="M-330.067,248.686l-.909,18.843h3.442l1.063-18.843Z" fill="#00a551" fill-rule="evenodd"/>
                </g>
                <g id="Grupo_81983" data-name="Grupo 81983">
                  <path id="Trazado_117117" data-name="Trazado 117117" d="M-345.364,244.279h9.764l-1.1,21.629h-5.911a1.1,1.1,0,0,1-1.1-1.023c-.5-6.644-1.3-12.66-3.062-16.662a1.072,1.072,0,0,1,.008-.911l1.407-3.033Z" fill="#58595b" fill-rule="evenodd"/>
                </g>
                <g id="Grupo_81984" data-name="Grupo 81984">
                  <path id="Trazado_117118" data-name="Trazado 117118" d="M-336.854,248.686l-.912,18.894,3.445-.051,1.064-18.843Z" fill="#00a551" fill-rule="evenodd"/>
                </g>
                <g id="Grupo_81985" data-name="Grupo 81985">
                  <path id="Trazado_117119" data-name="Trazado 117119" d="M-336.095,252.333h8.814v.912h-8.814v-.912Z" fill="#a5cd39" fill-rule="evenodd"/>
                </g>
                <g id="Grupo_81986" data-name="Grupo 81986">
                  <path id="Trazado_117120" data-name="Trazado 117120" d="M-336.5,258.918h8.814v.912H-336.5v-.912Z" fill="#a5cd39" fill-rule="evenodd"/>
                </g>
                <g id="Grupo_81987" data-name="Grupo 81987">
                  <path id="Trazado_117121" data-name="Trazado 117121" d="M-336.905,266.617h8.814v.912h-8.814v-.912Z" fill="#a5cd39" fill-rule="evenodd"/>
                </g>
                <g id="Grupo_81988" data-name="Grupo 81988">
                  <path id="Trazado_117122" data-name="Trazado 117122" d="M-367.477,247.808l-1.61-9.1a2.262,2.262,0,0,1,.638-2.022,3.107,3.107,0,0,1,2.17-.958l2.916-.149a2.949,2.949,0,0,1,3.16,2.145l1.849,9.137a2.259,2.259,0,0,1-.625,2.072,3.117,3.117,0,0,1-2.227.964l-3.155.113a2.93,2.93,0,0,1-3.116-2.2Z" fill="#00a551" fill-rule="evenodd"/>
                </g>
                <g id="Grupo_81989" data-name="Grupo 81989">
                  <path id="Trazado_117123" data-name="Trazado 117123" d="M-366.857,247.069l-1.179-7.759a2.138,2.138,0,0,1,.467-1.724,2.141,2.141,0,0,1,1.588-.817l2.133-.128a2.206,2.206,0,0,1,2.312,1.83l1.353,7.79a2.145,2.145,0,0,1-.457,1.767,2.146,2.146,0,0,1-1.63.822l-2.308.1a2.2,2.2,0,0,1-2.279-1.878Z" fill="#404041" fill-rule="evenodd"/>
                </g>
                <g id="Grupo_81990" data-name="Grupo 81990">
                  <path id="Trazado_117124" data-name="Trazado 117124" d="M-368.4,239.817l7.976-.782-.056.893-7.92.781v-.893Z" fill="#00a551" fill-rule="evenodd"/>
                </g>
                <g id="Grupo_81991" data-name="Grupo 81991">
                  <path id="Trazado_117125" data-name="Trazado 117125" d="M-367.53,245.024l7.712-2.178.1.889-7.657,2.167-.158-.879Z" fill="#00a551" fill-rule="evenodd"/>
                </g>
                <g id="Grupo_81992" data-name="Grupo 81992">
                  <path id="Trazado_117126" data-name="Trazado 117126" d="M-378.44,244.06c16.87-6.028,31.8,5.86,31.067,19.262l-2.176.726c-2.565-17.643-14.835-22.277-27.329-19.15.242-.354-1.8-.484-1.562-.838Z" fill="#6d6e70" fill-rule="evenodd"/>
                </g>
                <g id="Grupo_81993" data-name="Grupo 81993">
                  <path id="Trazado_117127" data-name="Trazado 117127" d="M-345.364,244.279h9.764l-.172,3.386h-11.1a1.121,1.121,0,0,1,.1-.353l1.407-3.033Z" fill="#6d6e70" fill-rule="evenodd"/>
                </g>
                <g id="Grupo_81994" data-name="Grupo 81994">
                  <path id="Trazado_117128" data-name="Trazado 117128" d="M-344.276,241.493h1.368a.457.457,0,0,1,.456.456v2.431a.457.457,0,0,1-.456.456h-1.368a.457.457,0,0,1-.455-.456v-2.431a.457.457,0,0,1,.455-.456Z" fill="#58595b" fill-rule="evenodd"/>
                </g>
                <g id="Grupo_81995" data-name="Grupo 81995">
                  <path id="Trazado_117129" data-name="Trazado 117129" d="M-336.856,244.242H-325.3a27.793,27.793,0,0,0-.995,4.487h-10.556v-4.487Z" fill="#404041" fill-rule="evenodd"/>
                </g>
                <g id="Grupo_81996" data-name="Grupo 81996">
                  <path id="Trazado_117130" data-name="Trazado 117130" d="M-391.661,249.213a.547.547,0,0,1,.547.547.547.547,0,0,1-.547.548.547.547,0,0,1-.547-.548.547.547,0,0,1,.547-.547Z" fill="#fff" fill-rule="evenodd"/>
                </g>
                <g id="Grupo_81997" data-name="Grupo 81997">
                  <path id="Trazado_117131" data-name="Trazado 117131" d="M-370.967,245.106a18.675,18.675,0,0,1,18.673,18.673,18.674,18.674,0,0,1-18.673,18.672,18.674,18.674,0,0,1-18.672-18.672,18.674,18.674,0,0,1,18.672-18.673Z" fill="#404041" fill-rule="evenodd"/>
                </g>
                <g id="Grupo_81998" data-name="Grupo 81998">
                  <path id="Trazado_117132" data-name="Trazado 117132" d="M-370.967,247.766a16.014,16.014,0,0,1,16.013,16.013,16.014,16.014,0,0,1-16.013,16.012,16.014,16.014,0,0,1-16.012-16.012,16.014,16.014,0,0,1,16.012-16.013Z" fill="#58595b" fill-rule="evenodd"/>
                </g>
                <g id="Grupo_81999" data-name="Grupo 81999">
                  <path id="Trazado_117133" data-name="Trazado 117133" d="M-371.844,245.043l-.156,3.33c.342-.022.686-.035,1.033-.035.176,0,.352,0,.527.01l-.29-3.322c-.079,0-.157,0-.237,0-.294,0-.586.008-.877.021Zm3.915.225q.552.09,1.093.212l-.407,3.311a15.447,15.447,0,0,0-1.531-.3l.845-3.226Zm3.784,1.034q.519.2,1.023.436l-1.087,3.155a15.266,15.266,0,0,0-1.433-.612l1.5-2.979Zm3.481,1.8c.31.2.615.416.912.638l-1.719,2.86a15.132,15.132,0,0,0-1.276-.9l2.083-2.6Zm3.033,2.486q.392.395.759.814l-2.276,2.439q-.5-.6-1.062-1.141l2.579-2.112Zm2.453,3.059c.2.311.391.63.573.955l-2.734,1.912a15.166,15.166,0,0,0-.8-1.337l2.963-1.53Zm1.762,3.5c.131.346.253.7.363,1.052l-3.072,1.3q-.217-.755-.506-1.474l3.215-.882Zm.993,3.794q.082.547.132,1.106l-3.274.636q-.055-.786-.187-1.549l3.329-.193Zm.18,3.918c-.021.372-.054.742-.1,1.108l-3.336-.058q.106-.766.136-1.554l3.3.5Zm-.632,3.87q-.147.539-.324,1.064l-3.252-.751a15.228,15.228,0,0,0,.457-1.491l3.119,1.178Zm-1.426,3.653q-.258.495-.542.972l-3.024-1.411a15.434,15.434,0,0,0,.759-1.362l2.807,1.8Zm-2.157,3.274q-.354.431-.732.84l-2.663-2.009a15.462,15.462,0,0,0,1.024-1.175l2.371,2.344Zm-2.789,2.757q-.434.348-.888.67l-2.188-2.517a15.411,15.411,0,0,0,1.245-.939l1.831,2.786Zm-3.3,2.12q-.5.249-1.008.471l-1.617-2.919a15.143,15.143,0,0,0,1.413-.659l1.212,3.107Zm-3.668,1.386q-.536.14-1.085.249l-.974-3.192a15.065,15.065,0,0,0,1.519-.347l.54,3.29Zm-3.877.588c-.29.013-.582.021-.876.021l-.237,0-.29-3.323c.175.006.351.01.527.01.347,0,.691-.013,1.032-.036l-.156,3.331Zm-3.915-.226q-.55-.09-1.093-.212l.408-3.311a15.49,15.49,0,0,0,1.53.3l-.845,3.226Zm-3.783-1.034c-.345-.136-.687-.282-1.023-.437l1.087-3.154a15.164,15.164,0,0,0,1.434.612l-1.5,2.979Zm-3.481-1.8c-.31-.2-.615-.416-.912-.639l1.72-2.859c.408.319.835.618,1.275.9l-2.083,2.6Zm-3.032-2.485q-.391-.4-.759-.815l2.276-2.439a15.267,15.267,0,0,0,1.062,1.141l-2.579,2.113Zm-2.453-3.06q-.3-.468-.573-.954l2.733-1.912a15.392,15.392,0,0,0,.8,1.336l-2.963,1.53Zm-1.762-3.5c-.131-.345-.253-.7-.363-1.052l3.072-1.3q.218.754.506,1.474l-3.215.881Zm-.993-3.793q-.082-.548-.133-1.106l3.275-.635a15.433,15.433,0,0,0,.187,1.548l-3.329.193Zm-.181-3.917q.033-.558.1-1.109l3.335.059a15.556,15.556,0,0,0-.136,1.553l-3.3-.5Zm.632-3.87c.1-.359.206-.715.325-1.065l3.251.752A15.217,15.217,0,0,0-385.94,260l-3.119-1.178Zm1.427-3.653c.17-.33.352-.654.541-.973l3.023,1.411a15.45,15.45,0,0,0-.758,1.362l-2.806-1.8Zm2.156-3.275q.354-.431.731-.839l2.664,2.008a15.473,15.473,0,0,0-1.025,1.175l-2.37-2.344Zm2.788-2.756q.434-.348.889-.671l2.187,2.518a15.579,15.579,0,0,0-1.245.938l-1.831-2.785Zm3.3-2.121q.5-.249,1.01-.471l1.616,2.919a15.507,15.507,0,0,0-1.413.658l-1.213-3.106Zm3.669-1.386q.537-.14,1.085-.249l.975,3.191q-.774.137-1.52.347l-.54-3.289Z" fill="#58595b" fill-rule="evenodd"/>
                </g>
                <g id="Grupo_82000" data-name="Grupo 82000">
                  <path id="Trazado_117134" data-name="Trazado 117134" d="M-370.967,253.4a10.375,10.375,0,0,1,10.374,10.374,10.374,10.374,0,0,1-10.374,10.373,10.374,10.374,0,0,1-10.373-10.373A10.374,10.374,0,0,1-370.967,253.4Z" fill="#ffdd0f" fill-rule="evenodd"/>
                </g>
                <g id="Grupo_82001" data-name="Grupo 82001">
                  <path id="Trazado_117135" data-name="Trazado 117135" d="M-370.967,255.214a8.565,8.565,0,0,1,8.565,8.565,8.565,8.565,0,0,1-8.565,8.564,8.566,8.566,0,0,1-8.565-8.564,8.566,8.566,0,0,1,8.565-8.565Z" fill="#eeb926" fill-rule="evenodd"/>
                </g>
                <g id="Grupo_82002" data-name="Grupo 82002">
                  <path id="Trazado_117136" data-name="Trazado 117136" d="M-370.967,260.214a3.565,3.565,0,0,1,3.565,3.565,3.565,3.565,0,0,1-3.565,3.564,3.564,3.564,0,0,1-3.564-3.564,3.565,3.565,0,0,1,3.564-3.565Z" fill="#ffdd0f" fill-rule="evenodd"/>
                </g>
                <g id="Grupo_82003" data-name="Grupo 82003">
                  <path id="Trazado_117137" data-name="Trazado 117137" d="M-370.967,258.193a.551.551,0,0,1,.551.551.551.551,0,0,1-.551.551.551.551,0,0,1-.55-.551.551.551,0,0,1,.55-.551Z" fill="#ffdd0f" fill-rule="evenodd"/>
                </g>
                <g id="Grupo_82004" data-name="Grupo 82004">
                  <path id="Trazado_117138" data-name="Trazado 117138" d="M-374.249,259.26a.548.548,0,0,1,.768.122.549.549,0,0,1-.121.768.551.551,0,0,1-.769-.121.55.55,0,0,1,.122-.769Z" fill="#ffdd0f" fill-rule="evenodd"/>
                </g>
                <g id="Grupo_82005" data-name="Grupo 82005">
                  <path id="Trazado_117139" data-name="Trazado 117139" d="M-376.279,262.052a.551.551,0,0,1,.694-.354.551.551,0,0,1,.353.694.551.551,0,0,1-.694.354.552.552,0,0,1-.353-.694Z" fill="#ffdd0f" fill-rule="evenodd"/>
                </g>
                <g id="Grupo_82006" data-name="Grupo 82006">
                  <path id="Trazado_117140" data-name="Trazado 117140" d="M-376.28,265.5a.552.552,0,0,1,.354-.694.551.551,0,0,1,.694.354.551.551,0,0,1-.354.693.551.551,0,0,1-.694-.353Z" fill="#ffdd0f" fill-rule="evenodd"/>
                </g>
                <g id="Grupo_82007" data-name="Grupo 82007">
                  <path id="Trazado_117141" data-name="Trazado 117141" d="M-374.251,268.3a.551.551,0,0,1-.122-.769.55.55,0,0,1,.769-.122.551.551,0,0,1,.122.769.551.551,0,0,1-.769.122Z" fill="#ffdd0f" fill-rule="evenodd"/>
                </g>
                <g id="Grupo_82008" data-name="Grupo 82008">
                  <path id="Trazado_117142" data-name="Trazado 117142" d="M-370.968,269.364a.551.551,0,0,1-.551-.551.551.551,0,0,1,.551-.55.55.55,0,0,1,.55.55.551.551,0,0,1-.55.551Z" fill="#ffdd0f" fill-rule="evenodd"/>
                </g>
                <g id="Grupo_82009" data-name="Grupo 82009">
                  <path id="Trazado_117143" data-name="Trazado 117143" d="M-367.685,268.3a.551.551,0,0,1-.769-.122.55.55,0,0,1,.122-.769.55.55,0,0,1,.769.122.551.551,0,0,1-.122.769Z" fill="#ffdd0f" fill-rule="evenodd"/>
                </g>
                <g id="Grupo_82010" data-name="Grupo 82010">
                  <path id="Trazado_117144" data-name="Trazado 117144" d="M-365.656,265.505a.551.551,0,0,1-.693.354.551.551,0,0,1-.354-.694.551.551,0,0,1,.694-.353.55.55,0,0,1,.353.693Z" fill="#ffdd0f" fill-rule="evenodd"/>
                </g>
                <g id="Grupo_82011" data-name="Grupo 82011">
                  <path id="Trazado_117145" data-name="Trazado 117145" d="M-365.655,262.054a.55.55,0,0,1-.354.693.549.549,0,0,1-.693-.353.55.55,0,0,1,.353-.694.551.551,0,0,1,.694.354Z" fill="#ffdd0f" fill-rule="evenodd"/>
                </g>
                <g id="Grupo_82012" data-name="Grupo 82012">
                  <path id="Trazado_117146" data-name="Trazado 117146" d="M-367.684,259.261a.55.55,0,0,1,.122.769.55.55,0,0,1-.769.121.55.55,0,0,1-.122-.768.549.549,0,0,1,.769-.122Z" fill="#ffdd0f" fill-rule="evenodd"/>
                </g>
              </g>
              <g id="Grupo_82014" data-name="Grupo 82014" opacity="0.33">
                <path id="Trazado_117147" data-name="Trazado 117147" d="M-370.967,245.106c-.093,0-.183.012-.276.014v37.317c.093,0,.183.014.276.014a18.674,18.674,0,0,0,18.673-18.672A18.675,18.675,0,0,0-370.967,245.106Z" fill="#020000" fill-rule="evenodd"/>
              </g>
              <g id="Grupo_82015" data-name="Grupo 82015" opacity="0.33">
                <path id="Trazado_117148" data-name="Trazado 117148" d="M-300.549,235.793h0v46.554h0a23.28,23.28,0,0,0,23.278-23.277A23.28,23.28,0,0,0-300.549,235.793Z" fill="#020000" fill-rule="evenodd"/>
              </g>
            </g>
            <g id="Grupo_82017" data-name="Grupo 82017">
              <path id="Trazado_117149" data-name="Trazado 117149" d="M-231.183,287.945a4.944,4.944,0,0,0-3.268.761,4.059,4.059,0,0,1-1,.578,5.667,5.667,0,0,1-.735.123,2.913,2.913,0,0,0-1.464.707.666.666,0,0,0,.19.981,1.929,1.929,0,0,0,1.115.2l6-.142C-229.781,290.149-231.443,289.068-231.183,287.945Z" fill="#a88585"/>
            </g>
            <g id="Grupo_82018" data-name="Grupo 82018">
              <path id="Trazado_117150" data-name="Trazado 117150" d="M-248.788,293.013l4.521.23a2.2,2.2,0,0,0-.993-1.607,1.759,1.759,0,0,0-1.9-.391A4.137,4.137,0,0,0-248.788,293.013Z" fill="#a88585"/>
            </g>
            <g id="Grupo_82019" data-name="Grupo 82019">
              <path id="Trazado_117151" data-name="Trazado 117151" d="M-288.734,287.08a2.414,2.414,0,0,0-1.969-.928c-.684-.063-1.375-.07-2.049-.2-1.257-.239-2.46-.9-3.734-.788-1.408.119-2.551,1.134-3.821,1.753-.183.567.482,1.017,1.033,1.244a17.844,17.844,0,0,0,3.706,1.215,5.981,5.981,0,0,0,3.809-.47C-290.714,288.352-289.881,287.375-288.734,287.08Z" fill="#a88585"/>
            </g>
            <g id="Grupo_82020" data-name="Grupo 82020">
              <path id="Trazado_117152" data-name="Trazado 117152" d="M-335.96,289.056c1.684-.5,3.648.289,5.187-.558a1.621,1.621,0,0,0-.963-2.246,4.229,4.229,0,0,0-2.756.217,6,6,0,0,1-2.748.5c.116-.214-.078-.458-.257-.623l-1.417-1.3a9.279,9.279,0,0,0-4.226,1.542c.3.213.606.4.916.6l3.2,1.977a2.792,2.792,0,0,0,.9.418A4.738,4.738,0,0,0-335.96,289.056Z" fill="#a88585"/>
            </g>
            <g id="Grupo_82021" data-name="Grupo 82021">
              <path id="Trazado_117153" data-name="Trazado 117153" d="M-314.345,292.323a1.988,1.988,0,0,0,1.486-.133,1.978,1.978,0,0,0,.542-.719l1.057-1.971a14.579,14.579,0,0,0-5.819-.411,1.825,1.825,0,0,1,.752,1.366,4.765,4.765,0,0,0,.024.61C-316.152,291.88-315.162,292.182-314.345,292.323Z" fill="#a88585"/>
            </g>
            <g id="Grupo_82022" data-name="Grupo 82022">
              <path id="Trazado_117154" data-name="Trazado 117154" d="M-295.852,292l-3.518-1.652c-.729-.343-1.459-.685-2.2-1.014a1.89,1.89,0,0,0-.855-.228,1.913,1.913,0,0,0-.794.295l-4.662,2.573c3.266,1.631,7.109,1.42,10.751,1.171C-296.432,293.1-295.475,292.582-295.852,292Z" fill="#a88585"/>
            </g>
            <g id="Grupo_82023" data-name="Grupo 82023">
              <path id="Trazado_117155" data-name="Trazado 117155" d="M-258.767,268.675l-17.577-.172v1.553l17.577.172v-1.553Z" fill="#404041" fill-rule="evenodd"/>
            </g>
            <g id="Grupo_82038" data-name="Grupo 82038">
              <g id="Grupo_82024" data-name="Grupo 82024">
                <path id="Trazado_117156" data-name="Trazado 117156" d="M-261.057,278.207l.632,7.839.948-7.885Z" fill="#020000" fill-rule="evenodd"/>
              </g>
              <g id="Grupo_82025" data-name="Grupo 82025">
                <path id="Trazado_117157" data-name="Trazado 117157" d="M-256.434,286.046l.948-7.885-1.58.046Z" fill="#020000" fill-rule="evenodd"/>
              </g>
              <g id="Grupo_82026" data-name="Grupo 82026">
                <path id="Trazado_117158" data-name="Trazado 117158" d="M-252.442,286.046l.948-7.885-1.58.046Z" fill="#020000" fill-rule="evenodd"/>
              </g>
              <g id="Grupo_82027" data-name="Grupo 82027">
                <path id="Trazado_117159" data-name="Trazado 117159" d="M-248.45,286.046l.948-7.885-1.58.046Z" fill="#020000" fill-rule="evenodd"/>
              </g>
              <g id="Grupo_82028" data-name="Grupo 82028">
                <path id="Trazado_117160" data-name="Trazado 117160" d="M-244.458,286.046l.948-7.885-1.58.046Z" fill="#020000" fill-rule="evenodd"/>
              </g>
              <g id="Grupo_82029" data-name="Grupo 82029">
                <path id="Trazado_117161" data-name="Trazado 117161" d="M-240.466,286.046l.948-7.885-1.58.046Z" fill="#020000" fill-rule="evenodd"/>
              </g>
              <g id="Grupo_82030" data-name="Grupo 82030">
                <path id="Trazado_117162" data-name="Trazado 117162" d="M-236.474,286.046l.948-7.885-1.58.046Z" fill="#020000" fill-rule="evenodd"/>
              </g>
              <g id="Grupo_82031" data-name="Grupo 82031">
                <path id="Trazado_117163" data-name="Trazado 117163" d="M-232.483,286.046l.948-7.885-1.58.046Z" fill="#020000" fill-rule="evenodd"/>
              </g>
              <g id="Grupo_82032" data-name="Grupo 82032">
                <path id="Trazado_117164" data-name="Trazado 117164" d="M-228.491,286.046l.948-7.885-1.58.046Z" fill="#020000" fill-rule="evenodd"/>
              </g>
              <g id="Grupo_82033" data-name="Grupo 82033">
                <path id="Trazado_117165" data-name="Trazado 117165" d="M-224.5,286.046l.948-7.885-1.58.046Z" fill="#020000" fill-rule="evenodd"/>
              </g>
              <g id="Grupo_82034" data-name="Grupo 82034">
                <path id="Trazado_117166" data-name="Trazado 117166" d="M-220.507,286.046l.948-7.885-1.58.046Z" fill="#020000" fill-rule="evenodd"/>
              </g>
              <g id="Grupo_82035" data-name="Grupo 82035">
                <path id="Trazado_117167" data-name="Trazado 117167" d="M-216.515,286.046l.948-7.885-1.58.046Z" fill="#020000" fill-rule="evenodd"/>
              </g>
              <g id="Grupo_82036" data-name="Grupo 82036">
                <path id="Trazado_117168" data-name="Trazado 117168" d="M-212.524,286.046l.948-7.885-1.58.046Z" fill="#020000" fill-rule="evenodd"/>
              </g>
              <g id="Grupo_82037" data-name="Grupo 82037">
                <path id="Trazado_117169" data-name="Trazado 117169" d="M-209.164,278.207l.632,7.839.948-7.885Z" fill="#020000" fill-rule="evenodd"/>
              </g>
            </g>
            <g id="Grupo_82039" data-name="Grupo 82039">
              <path id="Trazado_117170" data-name="Trazado 117170" d="M-204.751,275.933l-59.464-.051-.019,3.109,59.464.051.019-3.109Z" fill="#58595b" fill-rule="evenodd"/>
            </g>
            <g id="Grupo_82040" data-name="Grupo 82040">
              <path id="Trazado_117171" data-name="Trazado 117171" d="M-299.2,290.015l6.036.8a12.529,12.529,0,0,0,4.551.047,4.26,4.26,0,0,0,3.266-2.873,15.257,15.257,0,0,0-6.1-.756c-1.707.256-3.3,1.088-5.01,1.28C-297.608,288.644-299.2,288.865-299.2,290.015Z" fill="#7c5757"/>
            </g>
            <g id="Grupo_82041" data-name="Grupo 82041">
              <path id="Trazado_117172" data-name="Trazado 117172" d="M-204.749,272.917l-15.324-.126v2.372l15.323.126v-2.372Z" fill="#58595b" fill-rule="evenodd"/>
            </g>
            <g id="Grupo_82042" data-name="Grupo 82042">
              <path id="Trazado_117173" data-name="Trazado 117173" d="M-280.378,293.858c0,.864-1.4,1.564-3.129,1.564s-3.129-.7-3.129-1.564,1.4-1.565,3.129-1.565S-280.378,292.994-280.378,293.858Z" fill="#a88585"/>
            </g>
            <g id="Grupo_82043" data-name="Grupo 82043">
              <path id="Trazado_117174" data-name="Trazado 117174" d="M-332.964,292.534c0,1.063-1.724,1.925-3.851,1.925s-3.851-.862-3.851-1.925,1.724-1.925,3.851-1.925S-332.964,291.471-332.964,292.534Z" fill="#a88585"/>
            </g>
            <g id="Grupo_82044" data-name="Grupo 82044">
              <path id="Trazado_117175" data-name="Trazado 117175" d="M-232.967,294.459c0,1.064-1.724,1.926-3.851,1.926s-3.85-.862-3.85-1.926,1.724-1.925,3.85-1.925S-232.967,293.4-232.967,294.459Z" fill="#a88585"/>
            </g>
            <g id="Grupo_82045" data-name="Grupo 82045">
              <path id="Trazado_117176" data-name="Trazado 117176" d="M-266.781,288.8c0,.731-1.185,1.323-2.647,1.323s-2.647-.592-2.647-1.323,1.185-1.324,2.647-1.324S-266.781,288.073-266.781,288.8Z" fill="#7c5757"/>
            </g>
            <g id="Grupo_82046" data-name="Grupo 82046">
              <path id="Trazado_117177" data-name="Trazado 117177" d="M-321.532,288.8c0,1.063-1.724,1.925-3.851,1.925s-3.851-.862-3.851-1.925,1.724-1.926,3.851-1.926S-321.532,287.74-321.532,288.8Z" fill="#7c5757"/>
            </g>
          </g>
        </g>
      </g>
    </g>
  </g>
</svg>
