<svg xmlns="http://www.w3.org/2000/svg" xmlns:xlink="http://www.w3.org/1999/xlink" width="295" height="470" viewBox="0 0 295 470">
  <defs>
    <clipPath id="clip-path">
      <rect id="Rectángulo_33769-2" data-name="Rectángulo 33769-2" width="228" height="267" rx="27" transform="translate(-362.333 109.489)" fill="none"/>
    </clipPath>
  </defs>
  <g id="Grupo_85819" data-name="Grupo 85819" transform="translate(-180 -4367.368)">
    <rect id="Rectángulo_33768" data-name="Rectángulo 33768" width="295" height="406" rx="28" transform="translate(180 4431.368)" fill="#b2e4f7" opacity="0.998"/>
    <path id="Trazado_119366" data-name="Trazado 119366" d="M23.609,10.4H20.938V15H19.43V3.625H23.2a4.457,4.457,0,0,1,2.957.875,3.148,3.148,0,0,1,1.035,2.547A3.062,3.062,0,0,1,26.613,8.9a3.428,3.428,0,0,1-1.6,1.18l2.672,4.828V15H26.078ZM20.938,9.172h2.3a2.6,2.6,0,0,0,1.777-.579,1.959,1.959,0,0,0,.66-1.55,2.062,2.062,0,0,0-.629-1.62,2.663,2.663,0,0,0-1.816-.571h-2.3ZM28.68,10.7a4.993,4.993,0,0,1,.488-2.234A3.643,3.643,0,0,1,30.527,6.93a3.7,3.7,0,0,1,1.988-.539,3.565,3.565,0,0,1,2.793,1.2,4.6,4.6,0,0,1,1.066,3.18v.1a5.036,5.036,0,0,1-.473,2.215,3.589,3.589,0,0,1-1.352,1.527,3.743,3.743,0,0,1-2.02.547,3.556,3.556,0,0,1-2.785-1.2A4.575,4.575,0,0,1,28.68,10.8Zm1.453.172a3.616,3.616,0,0,0,.652,2.258,2.211,2.211,0,0,0,3.5-.012A3.955,3.955,0,0,0,34.93,10.7a3.61,3.61,0,0,0-.66-2.254,2.1,2.1,0,0,0-1.754-.863,2.075,2.075,0,0,0-1.727.852A3.925,3.925,0,0,0,30.133,10.867ZM40.148,4.5V6.547h1.578V7.664H40.148v5.249a1.173,1.173,0,0,0,.211.763.888.888,0,0,0,.719.254,3.5,3.5,0,0,0,.688-.094V15a4.215,4.215,0,0,1-1.109.155A1.8,1.8,0,0,1,39.2,14.57a2.517,2.517,0,0,1-.492-1.664V7.664H37.164V6.547H38.7V4.5Zm8.484,9.664a3.07,3.07,0,0,1-2.477.992,2.628,2.628,0,0,1-2.059-.785,3.4,3.4,0,0,1-.715-2.324v-5.5h1.445v5.461q0,1.922,1.563,1.922a2.163,2.163,0,0,0,2.2-1.234V6.547h1.445V15H48.664Zm7.688-6.32a4.331,4.331,0,0,0-.711-.055A1.9,1.9,0,0,0,53.68,9v6H52.234V6.547h1.406l.023.977A2.251,2.251,0,0,1,55.68,6.391a1.477,1.477,0,0,1,.641.109ZM62.555,15a3.036,3.036,0,0,1-.2-.891,3.225,3.225,0,0,1-2.406,1.047,2.984,2.984,0,0,1-2.051-.707,2.287,2.287,0,0,1-.8-1.793,2.39,2.39,0,0,1,1-2.051,4.733,4.733,0,0,1,2.824-.73h1.406V9.211A1.623,1.623,0,0,0,61.875,8a1.821,1.821,0,0,0-1.336-.449,2.107,2.107,0,0,0-1.3.391,1.151,1.151,0,0,0-.523.945H57.266a2,2,0,0,1,.449-1.223,3.066,3.066,0,0,1,1.219-.934,4.1,4.1,0,0,1,1.691-.344,3.342,3.342,0,0,1,2.289.73,2.635,2.635,0,0,1,.859,2.012v3.891a4.757,4.757,0,0,0,.3,1.852V15Zm-2.4-1.1a2.54,2.54,0,0,0,1.289-.352,2.127,2.127,0,0,0,.883-.914V10.9H61.2q-2.656,0-2.656,1.555a1.316,1.316,0,0,0,.453,1.063A1.742,1.742,0,0,0,60.156,13.9Zm9.273.078a2.082,2.082,0,0,0,1.352-.469,1.649,1.649,0,0,0,.641-1.172h1.367a2.621,2.621,0,0,1-.5,1.383,3.293,3.293,0,0,1-1.23,1.047,3.55,3.55,0,0,1-1.629.391A3.482,3.482,0,0,1,66.684,14a4.59,4.59,0,0,1-1.02-3.152v-.242a5.089,5.089,0,0,1,.453-2.2,3.451,3.451,0,0,1,1.3-1.492,3.7,3.7,0,0,1,2-.531,3.39,3.39,0,0,1,2.363.852,3.043,3.043,0,0,1,1,2.211H71.422A1.992,1.992,0,0,0,70.8,8.105a1.932,1.932,0,0,0-1.379-.527,2.023,2.023,0,0,0-1.707.793,3.724,3.724,0,0,0-.605,2.293v.273a3.65,3.65,0,0,0,.6,2.25A2.033,2.033,0,0,0,69.43,13.977ZM75.984,15H74.539V6.547h1.445ZM74.422,4.3a.863.863,0,0,1,.215-.594.807.807,0,0,1,.637-.242.819.819,0,0,1,.641.242.854.854,0,0,1,.219.594.826.826,0,0,1-.219.586.834.834,0,0,1-.641.234.821.821,0,0,1-.637-.234A.834.834,0,0,1,74.422,4.3ZM77.914,10.7A4.993,4.993,0,0,1,78.4,8.461,3.643,3.643,0,0,1,79.762,6.93a3.7,3.7,0,0,1,1.988-.539,3.565,3.565,0,0,1,2.793,1.2,4.6,4.6,0,0,1,1.066,3.18v.1a5.036,5.036,0,0,1-.473,2.215,3.589,3.589,0,0,1-1.352,1.527,3.743,3.743,0,0,1-2.02.547,3.556,3.556,0,0,1-2.785-1.2A4.575,4.575,0,0,1,77.914,10.8Zm1.453.172a3.616,3.616,0,0,0,.652,2.258,2.211,2.211,0,0,0,3.5-.012,3.955,3.955,0,0,0,.648-2.418,3.61,3.61,0,0,0-.66-2.254,2.1,2.1,0,0,0-1.754-.863,2.075,2.075,0,0,0-1.727.852A3.925,3.925,0,0,0,79.367,10.867Zm3.039-7.852h1.75l-2.094,2.3-1.164,0Zm6.383,3.531.047,1.063a3.08,3.08,0,0,1,2.531-1.219q2.68,0,2.7,3.023V15H92.625V9.406a1.946,1.946,0,0,0-.418-1.352,1.675,1.675,0,0,0-1.277-.437,2.086,2.086,0,0,0-1.234.375,2.546,2.546,0,0,0-.828.984V15H87.422V6.547ZM99.859,10.7a4.952,4.952,0,0,1,.922-3.129,3.137,3.137,0,0,1,4.766-.168V3h1.445V15h-1.328l-.07-.906a2.943,2.943,0,0,1-2.414,1.063,2.887,2.887,0,0,1-2.395-1.2,5.008,5.008,0,0,1-.926-3.141Zm1.445.164a3.749,3.749,0,0,0,.594,2.25,1.92,1.92,0,0,0,1.641.813,2.108,2.108,0,0,0,2.008-1.234V8.813a2.125,2.125,0,0,0-1.992-1.2,1.929,1.929,0,0,0-1.656.82A4.128,4.128,0,0,0,101.3,10.867Zm11.438,4.289a3.693,3.693,0,0,1-2.8-1.129,4.19,4.19,0,0,1-1.078-3.02v-.266a5.073,5.073,0,0,1,.48-2.246,3.748,3.748,0,0,1,1.344-1.547,3.378,3.378,0,0,1,1.871-.559,3.166,3.166,0,0,1,2.563,1.086,4.7,4.7,0,0,1,.914,3.109v.6h-5.727a3,3,0,0,0,.73,2.02,2.3,2.3,0,0,0,1.777.77,2.517,2.517,0,0,0,1.3-.312,3.259,3.259,0,0,0,.93-.828l.883.688A3.55,3.55,0,0,1,112.742,15.156Zm-.18-7.578a1.928,1.928,0,0,0-1.469.637A3.1,3.1,0,0,0,110.359,10h4.234V9.891A2.753,2.753,0,0,0,114,8.184,1.815,1.815,0,0,0,112.563,7.578ZM123.242,15H121.8V3h1.445Zm7.531,0a3.036,3.036,0,0,1-.2-.891,3.225,3.225,0,0,1-2.406,1.047,2.984,2.984,0,0,1-2.051-.707,2.288,2.288,0,0,1-.8-1.793,2.39,2.39,0,0,1,1-2.051,4.733,4.733,0,0,1,2.824-.73h1.406V9.211A1.623,1.623,0,0,0,130.094,8a1.821,1.821,0,0,0-1.336-.449,2.108,2.108,0,0,0-1.3.391,1.151,1.151,0,0,0-.523.945h-1.453a2,2,0,0,1,.449-1.223,3.066,3.066,0,0,1,1.219-.934,4.1,4.1,0,0,1,1.691-.344,3.342,3.342,0,0,1,2.289.73,2.635,2.635,0,0,1,.859,2.012v3.891a4.757,4.757,0,0,0,.3,1.852V15Zm-2.4-1.1a2.54,2.54,0,0,0,1.289-.352,2.127,2.127,0,0,0,.883-.914V10.9h-1.133q-2.656,0-2.656,1.555a1.316,1.316,0,0,0,.453,1.063A1.742,1.742,0,0,0,128.375,13.9Zm13.234.078a2.082,2.082,0,0,0,1.352-.469,1.649,1.649,0,0,0,.641-1.172h1.367a2.621,2.621,0,0,1-.5,1.383,3.293,3.293,0,0,1-1.23,1.047,3.55,3.55,0,0,1-1.629.391A3.482,3.482,0,0,1,138.863,14a4.59,4.59,0,0,1-1.02-3.152v-.242a5.089,5.089,0,0,1,.453-2.2,3.451,3.451,0,0,1,1.3-1.492,3.7,3.7,0,0,1,2-.531,3.39,3.39,0,0,1,2.363.852,3.043,3.043,0,0,1,1,2.211H143.6a1.992,1.992,0,0,0-.621-1.348,1.932,1.932,0,0,0-1.379-.527,2.023,2.023,0,0,0-1.707.793,3.724,3.724,0,0,0-.605,2.293v.273a3.65,3.65,0,0,0,.6,2.25A2.033,2.033,0,0,0,141.609,13.977ZM151.813,15a3.036,3.036,0,0,1-.2-.891,3.225,3.225,0,0,1-2.406,1.047,2.984,2.984,0,0,1-2.051-.707,2.287,2.287,0,0,1-.8-1.793,2.39,2.39,0,0,1,1-2.051,4.733,4.733,0,0,1,2.824-.73h1.406V9.211A1.623,1.623,0,0,0,151.133,8a1.821,1.821,0,0,0-1.336-.449,2.107,2.107,0,0,0-1.3.391,1.151,1.151,0,0,0-.523.945h-1.453a2,2,0,0,1,.449-1.223,3.066,3.066,0,0,1,1.219-.934,4.1,4.1,0,0,1,1.691-.344,3.342,3.342,0,0,1,2.289.73,2.635,2.635,0,0,1,.859,2.012v3.891a4.757,4.757,0,0,0,.3,1.852V15Zm-2.4-1.1a2.54,2.54,0,0,0,1.289-.352,2.127,2.127,0,0,0,.883-.914V10.9h-1.133q-2.656,0-2.656,1.555a1.316,1.316,0,0,0,.453,1.063A1.742,1.742,0,0,0,149.414,13.9Zm13.023-3.031a5.062,5.062,0,0,1-.883,3.109,2.829,2.829,0,0,1-2.391,1.18,3.1,3.1,0,0,1-2.422-.977v4.07H155.3V6.547h1.32l.07.938a2.977,2.977,0,0,1,2.453-1.094,2.882,2.882,0,0,1,2.41,1.148,5.117,5.117,0,0,1,.887,3.2Zm-1.445-.164a3.735,3.735,0,0,0-.609-2.258,1.963,1.963,0,0,0-1.672-.828,2.125,2.125,0,0,0-1.969,1.164V12.82a2.129,2.129,0,0,0,1.984,1.156,1.954,1.954,0,0,0,1.652-.824A4.077,4.077,0,0,0,160.992,10.7Zm8.5,4.3a3.036,3.036,0,0,1-.2-.891,3.225,3.225,0,0,1-2.406,1.047,2.984,2.984,0,0,1-2.051-.707,2.287,2.287,0,0,1-.8-1.793,2.39,2.39,0,0,1,1-2.051,4.733,4.733,0,0,1,2.824-.73h1.406V9.211A1.623,1.623,0,0,0,168.813,8a1.821,1.821,0,0,0-1.336-.449,2.107,2.107,0,0,0-1.3.391,1.151,1.151,0,0,0-.523.945H164.2a2,2,0,0,1,.449-1.223,3.066,3.066,0,0,1,1.219-.934,4.1,4.1,0,0,1,1.691-.344,3.342,3.342,0,0,1,2.289.73,2.635,2.635,0,0,1,.859,2.012v3.891a4.757,4.757,0,0,0,.3,1.852V15Zm-2.4-1.1a2.54,2.54,0,0,0,1.289-.352,2.127,2.127,0,0,0,.883-.914V10.9h-1.133q-2.656,0-2.656,1.555a1.316,1.316,0,0,0,.453,1.063A1.742,1.742,0,0,0,167.094,13.9Zm-105,22.859a1.064,1.064,0,0,0-.441-.91,4.249,4.249,0,0,0-1.539-.559,7.277,7.277,0,0,1-1.742-.562,2.479,2.479,0,0,1-.953-.781,1.869,1.869,0,0,1-.309-1.078,2.193,2.193,0,0,1,.879-1.758,3.432,3.432,0,0,1,2.246-.719,3.532,3.532,0,0,1,2.332.742,2.357,2.357,0,0,1,.895,1.9H62a1.3,1.3,0,0,0-.5-1.023,1.888,1.888,0,0,0-1.27-.43A1.976,1.976,0,0,0,59,31.922a1.082,1.082,0,0,0-.445.9.877.877,0,0,0,.414.789,5.1,5.1,0,0,0,1.5.508,7.8,7.8,0,0,1,1.754.578,2.558,2.558,0,0,1,1,.809,1.988,1.988,0,0,1,.324,1.152,2.163,2.163,0,0,1-.906,1.816,3.8,3.8,0,0,1-2.352.684,4.257,4.257,0,0,1-1.8-.359,2.922,2.922,0,0,1-1.223-1,2.42,2.42,0,0,1-.441-1.395h1.445a1.5,1.5,0,0,0,.582,1.152,2.258,2.258,0,0,0,1.434.426,2.331,2.331,0,0,0,1.316-.332A1.02,1.02,0,0,0,62.09,36.758Zm8.547,1.406a3.07,3.07,0,0,1-2.477.992,2.628,2.628,0,0,1-2.059-.785,3.4,3.4,0,0,1-.715-2.324v-5.5h1.445v5.461q0,1.922,1.563,1.922A2.163,2.163,0,0,0,70.6,36.7V30.547h1.445V39H70.668Zm10.742-3.3a5.062,5.062,0,0,1-.883,3.109,2.829,2.829,0,0,1-2.391,1.18,3.1,3.1,0,0,1-2.422-.977v4.07H74.238v-11.7h1.32l.07.938a2.977,2.977,0,0,1,2.453-1.094,2.882,2.882,0,0,1,2.41,1.148,5.117,5.117,0,0,1,.887,3.2ZM79.934,34.7a3.735,3.735,0,0,0-.609-2.258,1.963,1.963,0,0,0-1.672-.828,2.125,2.125,0,0,0-1.969,1.164V36.82a2.129,2.129,0,0,0,1.984,1.156,1.954,1.954,0,0,0,1.652-.824A4.077,4.077,0,0,0,79.934,34.7Zm6.789,4.453a3.693,3.693,0,0,1-2.8-1.129,4.19,4.19,0,0,1-1.078-3.02v-.266a5.073,5.073,0,0,1,.48-2.246,3.748,3.748,0,0,1,1.344-1.547,3.378,3.378,0,0,1,1.871-.559,3.166,3.166,0,0,1,2.563,1.086,4.7,4.7,0,0,1,.914,3.109v.6H84.293a3,3,0,0,0,.73,2.02,2.3,2.3,0,0,0,1.777.77,2.517,2.517,0,0,0,1.3-.312,3.259,3.259,0,0,0,.93-.828l.883.688A3.55,3.55,0,0,1,86.723,39.156Zm-.18-7.578a1.928,1.928,0,0,0-1.469.637A3.1,3.1,0,0,0,84.34,34h4.234v-.109a2.753,2.753,0,0,0-.594-1.707A1.815,1.815,0,0,0,86.543,31.578Zm9.234.266a4.331,4.331,0,0,0-.711-.055A1.9,1.9,0,0,0,93.137,33v6H91.691V30.547H93.1l.023.977a2.251,2.251,0,0,1,2.016-1.133,1.477,1.477,0,0,1,.641.109ZM97.59,39V31.664H96.254V30.547H97.59v-.719a2.937,2.937,0,0,1,.809-2.2,3.136,3.136,0,0,1,2.285-.789,6.881,6.881,0,0,1,2.211.477l-.242,1.219a5.008,5.008,0,0,0-1.859-.391,1.819,1.819,0,0,0-1.34.418,1.723,1.723,0,0,0-.41,1.254v.734h1.727v1.117H99.043V39Zm6.023,0H102.16V30.547h1.453Zm5.742-1.023a2.082,2.082,0,0,0,1.352-.469,1.649,1.649,0,0,0,.641-1.172h1.367a2.621,2.621,0,0,1-.5,1.383,3.293,3.293,0,0,1-1.23,1.047,3.55,3.55,0,0,1-1.629.391A3.482,3.482,0,0,1,106.609,38a4.59,4.59,0,0,1-1.02-3.152v-.242a5.089,5.089,0,0,1,.453-2.2,3.451,3.451,0,0,1,1.3-1.492,3.7,3.7,0,0,1,2-.531,3.39,3.39,0,0,1,2.363.852,3.043,3.043,0,0,1,1,2.211h-1.367a1.992,1.992,0,0,0-.621-1.348,1.932,1.932,0,0,0-1.379-.527,2.023,2.023,0,0,0-1.707.793,3.724,3.724,0,0,0-.605,2.293v.273a3.65,3.65,0,0,0,.6,2.25A2.033,2.033,0,0,0,109.355,37.977ZM115.91,39h-1.445V30.547h1.445Zm-1.562-10.7a.863.863,0,0,1,.215-.594.807.807,0,0,1,.637-.242.819.819,0,0,1,.641.242.854.854,0,0,1,.219.594.826.826,0,0,1-.219.586.834.834,0,0,1-.641.234.821.821,0,0,1-.637-.234A.834.834,0,0,1,114.348,28.3ZM123.441,39a3.036,3.036,0,0,1-.2-.891,3.225,3.225,0,0,1-2.406,1.047,2.984,2.984,0,0,1-2.051-.707,2.288,2.288,0,0,1-.8-1.793,2.39,2.39,0,0,1,1-2.051,4.733,4.733,0,0,1,2.824-.73h1.406v-.664A1.623,1.623,0,0,0,122.762,32a1.821,1.821,0,0,0-1.336-.449,2.108,2.108,0,0,0-1.3.391,1.151,1.151,0,0,0-.523.945h-1.453a2,2,0,0,1,.449-1.223,3.066,3.066,0,0,1,1.219-.934,4.1,4.1,0,0,1,1.691-.344,3.342,3.342,0,0,1,2.289.73,2.635,2.635,0,0,1,.859,2.012v3.891a4.757,4.757,0,0,0,.3,1.852V39Zm-2.4-1.1a2.54,2.54,0,0,0,1.289-.352,2.127,2.127,0,0,0,.883-.914V34.9h-1.133q-2.656,0-2.656,1.555a1.316,1.316,0,0,0,.453,1.063A1.742,1.742,0,0,0,121.043,37.9ZM128.5,39h-1.445V27H128.5Zm2.344-.758a.905.905,0,0,1,.223-.625.848.848,0,0,1,.668-.25.874.874,0,0,1,.676.25.887.887,0,0,1,.23.625.839.839,0,0,1-.23.6.89.89,0,0,1-.676.242.8.8,0,0,1-.891-.844Z" transform="translate(233 4721.368)" fill="#12263f"/>
    <path id="Trazado_119365" data-name="Trazado 119365" d="M79.21,14.609H74.983L74.245,17h-3.3L75.642,4.2h2.9L83.271,17H79.958Zm-3.489-2.382h2.751l-1.38-4.438Zm14.1-2.057-.976-.07a1.752,1.752,0,0,0-1.793.879V17H84.088V7.49h2.777l.1,1.222a2.294,2.294,0,0,1,2.083-1.4,2.888,2.888,0,0,1,.826.105ZM95.98,17a3.344,3.344,0,0,1-.281-.853,2.754,2.754,0,0,1-2.285,1.028,3.374,3.374,0,0,1-2.285-.813,2.588,2.588,0,0,1-.94-2.043,2.66,2.66,0,0,1,1.143-2.338,5.821,5.821,0,0,1,3.322-.791h.914v-.5q0-1.316-1.134-1.316a.927.927,0,0,0-1.055,1.042H90.417A2.655,2.655,0,0,1,91.59,8.175a4.931,4.931,0,0,1,2.993-.86,4.323,4.323,0,0,1,2.874.888,3.086,3.086,0,0,1,1.081,2.435v4.21a4.311,4.311,0,0,0,.4,2V17Zm-1.854-1.934a1.652,1.652,0,0,0,.918-.237,1.487,1.487,0,0,0,.523-.536V12.772h-.861q-1.547,0-1.547,1.389a.848.848,0,0,0,.272.655A.986.986,0,0,0,94.125,15.066ZM99.8,12.175a5.809,5.809,0,0,1,.976-3.56,3.211,3.211,0,0,1,2.725-1.3,2.731,2.731,0,0,1,2.145,1V3.5h2.971V17h-2.663l-.149-1.02a2.8,2.8,0,0,1-2.32,1.2,3.205,3.205,0,0,1-2.689-1.3A5.993,5.993,0,0,1,99.8,12.175Zm2.962.185q0,2.531,1.477,2.531a1.458,1.458,0,0,0,1.406-.826V10.443a1.419,1.419,0,0,0-1.389-.844q-1.371,0-1.485,2.215ZM115.659,17a3.344,3.344,0,0,1-.281-.853,2.754,2.754,0,0,1-2.285,1.028,3.374,3.374,0,0,1-2.285-.813,2.588,2.588,0,0,1-.94-2.043,2.66,2.66,0,0,1,1.143-2.338,5.821,5.821,0,0,1,3.322-.791h.914v-.5q0-1.316-1.134-1.316a.927.927,0,0,0-1.055,1.042H110.1a2.655,2.655,0,0,1,1.173-2.239,4.931,4.931,0,0,1,2.993-.86,4.323,4.323,0,0,1,2.874.888,3.086,3.086,0,0,1,1.081,2.435v4.21a4.311,4.311,0,0,0,.4,2V17ZM113.8,15.066a1.652,1.652,0,0,0,.918-.237,1.487,1.487,0,0,0,.523-.536V12.772h-.861q-1.547,0-1.547,1.389a.848.848,0,0,0,.272.655A.986.986,0,0,0,113.8,15.066Z" transform="translate(233 4671.368)" fill="#12263f"/>
    <g id="Grupo_81564" data-name="Grupo 81564" transform="translate(576.333 4257.879)">
      <g id="Grupo_81563" data-name="Grupo 81563" clip-path="url(#clip-path)">
        <rect id="Rectángulo_33965" data-name="Rectángulo 33965" width="237.669" height="187.994" transform="translate(-364.307 89.797)" fill="#9cc2e8"/>
        <rect id="Rectángulo_33966" data-name="Rectángulo 33966" width="237.669" height="105.624" transform="translate(-364.307 276.524)" fill="#8d6e61"/>
        <g id="Grupo_81413" data-name="Grupo 81413">
          <path id="Trazado_116574" data-name="Trazado 116574" d="M-350.014,247l5.412,2.932a1.188,1.188,0,0,1,.477,1.6l-.395.729a1.188,1.188,0,0,1-1.605.477l-5.412-2.933a1.186,1.186,0,0,1-.476-1.6l.394-.729a1.188,1.188,0,0,1,1.6-.477Z" fill="#00a551" fill-rule="evenodd"/>
        </g>
        <g id="Grupo_81414" data-name="Grupo 81414">
          <path id="Trazado_116575" data-name="Trazado 116575" d="M-345.172,252.817q-4.184,4.993-3.16,9.973l-4.26.25a17.662,17.662,0,0,1,2.21-13.619l5.21,3.4Z" fill="#00a551" fill-rule="evenodd"/>
        </g>
        <g id="Grupo_81415" data-name="Grupo 81415">
          <path id="Trazado_116576" data-name="Trazado 116576" d="M-346.829,250.359l43.955-.127.01,3.551-43.955.127-.01-3.551Z" fill="#00a551" fill-rule="evenodd"/>
        </g>
        <g id="Grupo_81416" data-name="Grupo 81416">
          <path id="Trazado_116577" data-name="Trazado 116577" d="M-343.411,252.006a9.463,9.463,0,0,0-1.188-4.48l-8.156-11.753,1.415-.98,8.155,11.753c.809,1.166,1.255,2.753,1.488,5.3Z" fill="#17854a"/>
        </g>
        <g id="Grupo_81417" data-name="Grupo 81417">
          <path id="Trazado_116578" data-name="Trazado 116578" d="M-351.213,234.541l3.515,5.042a.534.534,0,0,1-.13.74l-.945.656a.528.528,0,0,1-.739-.13l-3.517-5.042a.532.532,0,0,1,.132-.738l.945-.659a.531.531,0,0,1,.739.131Z" fill="#58595b" fill-rule="evenodd"/>
        </g>
        <g id="Grupo_81418" data-name="Grupo 81418">
          <path id="Trazado_116579" data-name="Trazado 116579" d="M-345.172,252.817q-4.184,4.993-3.16,9.973l-4.26.25a17.662,17.662,0,0,1,2.21-13.619l5.21,3.4Z" fill="#00a551" fill-rule="evenodd"/>
        </g>
        <g id="Grupo_81419" data-name="Grupo 81419">
          <path id="Trazado_116580" data-name="Trazado 116580" d="M-334.92,247l5.412,2.932a1.188,1.188,0,0,1,.477,1.6l-.395.729a1.188,1.188,0,0,1-1.605.477l-5.412-2.933a1.187,1.187,0,0,1-.477-1.6l.4-.729a1.188,1.188,0,0,1,1.6-.477Z" fill="#00a551" fill-rule="evenodd"/>
        </g>
        <g id="Grupo_81420" data-name="Grupo 81420">
          <path id="Trazado_116581" data-name="Trazado 116581" d="M-330.078,252.817q-4.184,4.993-3.16,9.973l-4.26.25a17.661,17.661,0,0,1,2.209-13.619l5.211,3.4Z" fill="#00a551" fill-rule="evenodd"/>
        </g>
        <g id="Grupo_81427" data-name="Grupo 81427">
          <g id="Grupo_81421" data-name="Grupo 81421">
            <path id="Trazado_116582" data-name="Trazado 116582" d="M-319.467,247l5.412,2.932a1.188,1.188,0,0,1,.477,1.6l-.395.729a1.188,1.188,0,0,1-1.605.477l-5.412-2.933a1.187,1.187,0,0,1-.477-1.6l.4-.729a1.188,1.188,0,0,1,1.6-.477Z" fill="#00a551" fill-rule="evenodd"/>
          </g>
          <g id="Grupo_81422" data-name="Grupo 81422">
            <path id="Trazado_116583" data-name="Trazado 116583" d="M-314.625,252.817q-4.184,4.993-3.16,9.973l-4.26.25a17.661,17.661,0,0,1,2.209-13.619l5.211,3.4Z" fill="#00a551" fill-rule="evenodd"/>
          </g>
          <g id="Grupo_81423" data-name="Grupo 81423">
            <path id="Trazado_116584" data-name="Trazado 116584" d="M-329.27,261.64l16.334-.047,13.656,14.875-19.53.057.107-3.788-12.09-5.528,1.523-5.568Z" fill="#6d6e70" fill-rule="evenodd"/>
          </g>
          <g id="Grupo_81424" data-name="Grupo 81424">
            <path id="Trazado_116585" data-name="Trazado 116585" d="M-302.808,272.624l3.528,3.843-19.53.057.107-3.788-.143-.065,16.038-.047Z" fill="#58595b" fill-rule="evenodd"/>
          </g>
          <g id="Grupo_81425" data-name="Grupo 81425">
            <path id="Trazado_116586" data-name="Trazado 116586" d="M-314.625,252.817q-4.184,4.993-3.16,9.973l-4.26.25a17.661,17.661,0,0,1,2.209-13.619l5.211,3.4Z" fill="#00a551" fill-rule="evenodd"/>
          </g>
          <g id="Grupo_81426" data-name="Grupo 81426">
            <path id="Trazado_116587" data-name="Trazado 116587" d="M-329.27,261.64l16.334-.047,13.656,14.875-19.53.057.107-3.788-12.09-5.528,1.523-5.568Z" fill="#6d6e70" fill-rule="evenodd"/>
          </g>
        </g>
        <g id="Grupo_81428" data-name="Grupo 81428">
          <path id="Trazado_116588" data-name="Trazado 116588" d="M-310.136,248.1l43.955-.128.005,1.774-43.955.128-.005-1.774Z" fill="#00a551" fill-rule="evenodd"/>
        </g>
        <g id="Grupo_81534" data-name="Grupo 81534">
          <g id="Grupo_81434" data-name="Grupo 81434">
            <g id="Grupo_81429" data-name="Grupo 81429">
              <path id="Trazado_116589" data-name="Trazado 116589" d="M-263.145,194.339v17.667l22.4-17.667Z" fill="#2b646f"/>
            </g>
            <g id="Grupo_81430" data-name="Grupo 81430">
              <path id="Trazado_116590" data-name="Trazado 116590" d="M-226.266,194.262l-1.8.077h-1.727l-33.352,26.3V223.8l36.95-29.142C-226.221,194.53-226.24,194.4-226.266,194.262Z" fill="#2b646f"/>
            </g>
            <g id="Grupo_81431" data-name="Grupo 81431">
              <path id="Trazado_116591" data-name="Trazado 116591" d="M-225.332,199.554l-37.813,29.823v5.51h33.753l-.009,2.447h6.641l-.287-19.44C-223.624,211.743-224.341,205.619-225.332,199.554Z" fill="#2b646f"/>
            </g>
            <g id="Grupo_81432" data-name="Grupo 81432">
              <path id="Trazado_116592" data-name="Trazado 116592" d="M-240.745,194.339l-22.4,17.667v8.638l33.352-26.3Z" fill="#4eaaa7"/>
            </g>
            <g id="Grupo_81433" data-name="Grupo 81433">
              <path id="Trazado_116593" data-name="Trazado 116593" d="M-226.2,194.663l-36.95,29.142v5.572l37.813-29.823Q-225.732,197.1-226.2,194.663Z" fill="#4eaaa7"/>
            </g>
          </g>
          <g id="Grupo_81521" data-name="Grupo 81521">
            <g id="Grupo_81435" data-name="Grupo 81435">
              <path id="Trazado_116594" data-name="Trazado 116594" d="M-227.753,186.28h0a2.2,2.2,0,0,0-2.189,2.189v1.487a2.2,2.2,0,0,0,2.189,2.19h0a2.2,2.2,0,0,0,2.19-2.19v-1.487a2.2,2.2,0,0,0-2.19-2.189Z" fill="#f48120" fill-rule="evenodd"/>
            </g>
            <g id="Grupo_81436" data-name="Grupo 81436">
              <path id="Trazado_116595" data-name="Trazado 116595" d="M-229.942,189.89v.066a2.2,2.2,0,0,0,2.189,2.19h0a2.2,2.2,0,0,0,2.19-2.19v-.066Z" fill="#404041" fill-rule="evenodd"/>
            </g>
            <g id="Grupo_81437" data-name="Grupo 81437">
              <path id="Trazado_116596" data-name="Trazado 116596" d="M-219.938,194.98l-.388-1.834-41.311-1.074v2.908Z" fill="#404041" fill-rule="evenodd"/>
            </g>
            <g id="Grupo_81438" data-name="Grupo 81438">
              <path id="Trazado_116597" data-name="Trazado 116597" d="M-220.325,193.146c-.16-2.909-25.384-3.436-38.679-2.5-4.686.33-5.416,1.8-5.694,4.36h3.412c.238-1.029.783-1.86,5.067-1.86Z" fill="#00a551" fill-rule="evenodd"/>
            </g>
            <g id="Grupo_81439" data-name="Grupo 81439">
              <path id="Trazado_116598" data-name="Trazado 116598" d="M-264.664,194.753l-3.011,22.855,4.386.124,2-22.725-3.378-.254Z" fill="#404041" fill-rule="evenodd"/>
            </g>
            <g id="Grupo_81440" data-name="Grupo 81440">
              <path id="Trazado_116599" data-name="Trazado 116599" d="M-222.9,222.78h50.707v28.7H-222.9v-28.7Z" fill="#156b40" fill-rule="evenodd"/>
            </g>
            <g id="Grupo_81441" data-name="Grupo 81441">
              <path id="Trazado_116600" data-name="Trazado 116600" d="M-217.981,231.366h6.872v9.71h-6.872v-9.71Z" fill="#404041" fill-rule="evenodd"/>
            </g>
            <g id="Grupo_81442" data-name="Grupo 81442">
              <path id="Trazado_116601" data-name="Trazado 116601" d="M-167.9,247.2l-15.554-2.383c-1.155-.178-2.1-2.221-3.675-5.816-1.259-2.879-2.984-6.821-4.218-6.821h-15.851a2.882,2.882,0,0,0-2.212.824,3.816,3.816,0,0,0-.786,2.785l-1.039.077a4.85,4.85,0,0,1,1.061-3.57,3.87,3.87,0,0,1,2.976-1.157h15.851c1.915,0,3.5,3.616,5.173,7.443.89,2.034,2.234,5.106,2.878,5.2l15.554,2.384Z" fill="#17854a"/>
            </g>
            <g id="Grupo_81443" data-name="Grupo 81443">
              <path id="Trazado_116602" data-name="Trazado 116602" d="M-148.446,240.547h9.782a1.335,1.335,0,0,1,1.331,1.33v10.3a1.334,1.334,0,0,1-1.331,1.33h-9.782a1.333,1.333,0,0,1-1.33-1.33v-10.3a1.334,1.334,0,0,1,1.33-1.33Z" fill="#00a551" fill-rule="evenodd"/>
            </g>
            <g id="Grupo_81444" data-name="Grupo 81444">
              <path id="Trazado_116603" data-name="Trazado 116603" d="M-263.357,215.015c7.675,0,20.639.541,28.161,8.755,1.157,1.264,11.267,6.138,12.554-10.311.145-1.84.561,13.247,2.285,15.8,5.244,7.775-35.661,18.174-38.952,4.388-.423-1.774-9.639-18.952-4.048-18.636Z" fill="#404041" fill-rule="evenodd"/>
            </g>
            <g id="Grupo_81445" data-name="Grupo 81445">
              <path id="Trazado_116604" data-name="Trazado 116604" d="M-231.02,233.3c-3.745-13.117-16.362-17.532-35.368-17.279-2.919.642-5.374,16.373-5.29,18.432.345,8.454-.969-2.3,1.364,10.37,1.683,9.145,12.418,13.9,21.4,13.9,5.363,0,5.12-.286,8.906-4.248l8.992-21.18Z" fill="#00a551" fill-rule="evenodd"/>
            </g>
            <g id="Grupo_81446" data-name="Grupo 81446">
              <path id="Trazado_116605" data-name="Trazado 116605" d="M-268.886,258.316l108.8.041.485-8.825L-274.16,233.743l5.274,24.573Z" fill="#17854a" fill-rule="evenodd"/>
            </g>
            <g id="Grupo_81447" data-name="Grupo 81447">
              <path id="Trazado_116606" data-name="Trazado 116606" d="M-156.563,218.672l-2.531,29.759h-13.1l-1.976-32.126,17.606,2.367Z" fill="#404041" fill-rule="evenodd"/>
            </g>
            <g id="Grupo_81448" data-name="Grupo 81448">
              <path id="Trazado_116607" data-name="Trazado 116607" d="M-157.8,217.427l-2.908,31h-1.231l2.986-31.09,1.153.086Z" fill="#231f20" fill-rule="evenodd"/>
            </g>
            <g id="Grupo_81449" data-name="Grupo 81449">
              <path id="Trazado_116608" data-name="Trazado 116608" d="M-160.5,217.224l-2.926,31.207h-1.231l3.005-31.293,1.152.087Z" fill="#231f20" fill-rule="evenodd"/>
            </g>
            <g id="Grupo_81450" data-name="Grupo 81450">
              <path id="Trazado_116609" data-name="Trazado 116609" d="M-163.2,217.022l-2.946,31.409h-1.231l3.025-31.5,1.152.087Z" fill="#231f20" fill-rule="evenodd"/>
            </g>
            <g id="Grupo_81451" data-name="Grupo 81451">
              <path id="Trazado_116610" data-name="Trazado 116610" d="M-165.9,216.819l-2.965,31.611H-170.1l3.044-31.7,1.152.087Z" fill="#231f20" fill-rule="evenodd"/>
            </g>
            <g id="Grupo_81452" data-name="Grupo 81452">
              <path id="Trazado_116611" data-name="Trazado 116611" d="M-168.6,216.616l-2.984,31.814h-1.231l3.064-31.9,1.151.086Z" fill="#231f20" fill-rule="evenodd"/>
            </g>
            <g id="Grupo_81453" data-name="Grupo 81453">
              <path id="Trazado_116612" data-name="Trazado 116612" d="M-171.3,216.413l-3,32.017h-1.231l3.083-32.1,1.15.086Z" fill="#231f20" fill-rule="evenodd"/>
            </g>
            <g id="Grupo_81454" data-name="Grupo 81454">
              <path id="Trazado_116613" data-name="Trazado 116613" d="M-158.827,251.611l.221-2.43a1.292,1.292,0,0,0-.334-1.011,1.292,1.292,0,0,0-.965-.448l-2.354-.062a3.26,3.26,0,0,1-2.7-2.581l-4.092-22.4c-.631-3.061,2.953-4.324,5.439-4.113l7.011.6c.014-.162.028-.324.041-.486a1.331,1.331,0,0,0-1.033-1.418c-25.328-5.852-49.976-5.122-63.144-4.611l.569,24.691-.2-8.758c23.207.63,34.513,1.7,47.117,24.3l13.1-.049a1.335,1.335,0,0,0,1.328-1.218Z" fill="#00a551" fill-rule="evenodd"/>
            </g>
            <g id="Grupo_81455" data-name="Grupo 81455">
              <path id="Trazado_116614" data-name="Trazado 116614" d="M-219.784,234.55h-18.9v4.145h18.9V234.55Z" fill="#404041" fill-rule="evenodd"/>
            </g>
            <g id="Grupo_81456" data-name="Grupo 81456">
              <path id="Trazado_116615" data-name="Trazado 116615" d="M-268.347,225.649c-3.662.9-7.059-.132-7.587-2.294s2.013-4.639,5.675-5.533,7.059.133,7.587,2.294-2.014,4.639-5.675,5.533Z" fill="#17854a" fill-rule="evenodd"/>
            </g>
            <g id="Grupo_81457" data-name="Grupo 81457">
              <path id="Trazado_116616" data-name="Trazado 116616" d="M-275.8,223.748a2.52,2.52,0,0,1-.132-.393c-.412-1.684,1.042-3.56,3.437-4.73a7.168,7.168,0,0,1-3.3,5.123Z" fill="#f48120" fill-rule="evenodd"/>
            </g>
            <g id="Grupo_81458" data-name="Grupo 81458">
              <path id="Trazado_116617" data-name="Trazado 116617" d="M-228.332,194.39h-2.222V242.1h2.222V194.39Z" fill="#404041" fill-rule="evenodd"/>
            </g>
            <g id="Grupo_81459" data-name="Grupo 81459">
              <path id="Trazado_116618" data-name="Trazado 116618" d="M-265.575,193.937h0a2.019,2.019,0,0,0-2.539-1.295l-1.3.421,1.244,3.835,1.3-.422a2.022,2.022,0,0,0,1.295-2.539Z" fill="#404041" fill-rule="evenodd"/>
            </g>
            <g id="Grupo_81460" data-name="Grupo 81460">
              <path id="Trazado_116619" data-name="Trazado 116619" d="M-235.666,199.007h2.779a.9.9,0,0,1,.9.9v9.413a.9.9,0,0,1-.9.9h-2.779a.9.9,0,0,1-.9-.9v-9.413a.9.9,0,0,1,.9-.9Z" fill="#404041" fill-rule="evenodd"/>
            </g>
            <g id="Grupo_81461" data-name="Grupo 81461">
              <path id="Trazado_116620" data-name="Trazado 116620" d="M-234.067,200.524h-.744v-3.336a3.058,3.058,0,0,1,3.033-3.05l4.263-.024.005.744-4.263.024a2.312,2.312,0,0,0-2.294,2.306Z" fill="#404041"/>
            </g>
            <g id="Grupo_81462" data-name="Grupo 81462">
              <path id="Trazado_116621" data-name="Trazado 116621" d="M-165.316,217.866c-8.661-2.512-31.236-3.126-55.105-3.641l.178,2.424c17.227-.146,35.227.1,54.927,1.217Z" fill="#ffdd0f" fill-rule="evenodd"/>
            </g>
            <g id="Grupo_81463" data-name="Grupo 81463">
              <path id="Trazado_116622" data-name="Trazado 116622" d="M-224.051,234.55h-13.986a33.611,33.611,0,0,1,1.205,5.432h12.781V234.55Z" fill="#404041" fill-rule="evenodd"/>
              <path id="Trazado_116623" data-name="Trazado 116623" d="M-223.937,240.094h-12.989l-.017-.092c-.069-.365-.13-.731-.193-1.11a25.62,25.62,0,0,0-1.009-4.306l-.049-.149h14.257Zm-12.8-.225h12.574v-5.206H-237.88a26.013,26.013,0,0,1,.968,4.192C-236.855,239.2-236.8,239.535-236.738,239.869Z" fill="#58595b"/>
            </g>
            <g id="Grupo_81464" data-name="Grupo 81464">
              <path id="Trazado_116624" data-name="Trazado 116624" d="M-178.121,235.472l-2.093-12.363a5.228,5.228,0,0,0-1.413-2.746,3.8,3.8,0,0,0-2.446-1.3l-2.833-.2c-1.5-.107-2.42,1.139-2.151,2.915l1.046,6.9a29.912,29.912,0,0,1,9.922,7.891,3.721,3.721,0,0,0-.032-1.092Z" fill="#404041" fill-rule="evenodd"/>
            </g>
            <g id="Grupo_81465" data-name="Grupo 81465">
              <path id="Trazado_116625" data-name="Trazado 116625" d="M-274.586,244.262l64.741,8.505c10.127,1.494,13.639,13.041,9,20.262h-88.042a17.584,17.584,0,0,1-4.324-11.6c.053-8.429,7.071-18.073,18.621-17.164Z" fill="#17854a" fill-rule="evenodd"/>
            </g>
            <g id="Grupo_81466" data-name="Grupo 81466">
              <path id="Trazado_116626" data-name="Trazado 116626" d="M-212.131,253.229a12.561,12.561,0,0,0-12.559,12.56,12.561,12.561,0,0,0,12.559,12.56,12.562,12.562,0,0,0,12.56-12.56,12.562,12.562,0,0,0-12.56-12.56Z" fill="#ffdd0f" fill-rule="evenodd"/>
            </g>
            <g id="Grupo_81467" data-name="Grupo 81467">
              <path id="Trazado_116627" data-name="Trazado 116627" d="M-212.131,255.419a10.371,10.371,0,0,0-10.369,10.37,10.371,10.371,0,0,0,10.369,10.37,10.37,10.37,0,0,0,10.37-10.37,10.371,10.371,0,0,0-10.37-10.37Z" fill="#eeb926" fill-rule="evenodd"/>
            </g>
            <g id="Grupo_81468" data-name="Grupo 81468">
              <path id="Trazado_116628" data-name="Trazado 116628" d="M-212.131,261.474a4.315,4.315,0,0,0-4.315,4.315,4.316,4.316,0,0,0,4.315,4.316,4.317,4.317,0,0,0,4.316-4.316,4.316,4.316,0,0,0-4.316-4.315Z" fill="#ffdd0f" fill-rule="evenodd"/>
            </g>
            <g id="Grupo_81469" data-name="Grupo 81469">
              <path id="Trazado_116629" data-name="Trazado 116629" d="M-212.131,259.027a.667.667,0,0,0-.666.667.667.667,0,0,0,.666.666.667.667,0,0,0,.667-.666.667.667,0,0,0-.667-.667Z" fill="#ffdd0f" fill-rule="evenodd"/>
            </g>
            <g id="Grupo_81470" data-name="Grupo 81470">
              <path id="Trazado_116630" data-name="Trazado 116630" d="M-208.156,260.318a.668.668,0,0,0-.931.147.667.667,0,0,0,.148.931.666.666,0,0,0,.931-.147.667.667,0,0,0-.148-.931Z" fill="#ffdd0f" fill-rule="evenodd"/>
            </g>
            <g id="Grupo_81471" data-name="Grupo 81471">
              <path id="Trazado_116631" data-name="Trazado 116631" d="M-205.7,263.7a.666.666,0,0,0-.839-.428.666.666,0,0,0-.428.84.667.667,0,0,0,.84.428.666.666,0,0,0,.427-.84Z" fill="#ffdd0f" fill-rule="evenodd"/>
            </g>
            <g id="Grupo_81472" data-name="Grupo 81472">
              <path id="Trazado_116632" data-name="Trazado 116632" d="M-205.7,267.878a.666.666,0,0,0-.428-.84.667.667,0,0,0-.84.428.667.667,0,0,0,.428.84.667.667,0,0,0,.84-.428Z" fill="#ffdd0f" fill-rule="evenodd"/>
            </g>
            <g id="Grupo_81473" data-name="Grupo 81473">
              <path id="Trazado_116633" data-name="Trazado 116633" d="M-208.154,271.259a.666.666,0,0,0,.148-.93.666.666,0,0,0-.931-.148.667.667,0,0,0-.148.931.666.666,0,0,0,.931.147Z" fill="#ffdd0f" fill-rule="evenodd"/>
            </g>
            <g id="Grupo_81474" data-name="Grupo 81474">
              <path id="Trazado_116634" data-name="Trazado 116634" d="M-212.128,272.551a.666.666,0,0,0,.666-.666.667.667,0,0,0-.666-.667.667.667,0,0,0-.667.667.667.667,0,0,0,.667.666Z" fill="#ffdd0f" fill-rule="evenodd"/>
            </g>
            <g id="Grupo_81475" data-name="Grupo 81475">
              <path id="Trazado_116635" data-name="Trazado 116635" d="M-216.1,271.261a.667.667,0,0,0,.931-.148.667.667,0,0,0-.148-.931.667.667,0,0,0-.931.148.667.667,0,0,0,.148.931Z" fill="#ffdd0f" fill-rule="evenodd"/>
            </g>
            <g id="Grupo_81476" data-name="Grupo 81476">
              <path id="Trazado_116636" data-name="Trazado 116636" d="M-218.561,267.88a.668.668,0,0,0,.84.428.666.666,0,0,0,.428-.84.666.666,0,0,0-.839-.428.668.668,0,0,0-.429.84Z" fill="#ffdd0f" fill-rule="evenodd"/>
            </g>
            <g id="Grupo_81477" data-name="Grupo 81477">
              <path id="Trazado_116637" data-name="Trazado 116637" d="M-218.561,263.7a.666.666,0,0,0,.428.839.666.666,0,0,0,.84-.428.666.666,0,0,0-.428-.839.667.667,0,0,0-.84.428Z" fill="#ffdd0f" fill-rule="evenodd"/>
            </g>
            <g id="Grupo_81478" data-name="Grupo 81478">
              <path id="Trazado_116638" data-name="Trazado 116638" d="M-216.1,260.319a.666.666,0,0,0-.147.931.666.666,0,0,0,.93.148.667.667,0,0,0,.148-.931.667.667,0,0,0-.931-.148Z" fill="#ffdd0f" fill-rule="evenodd"/>
            </g>
            <g id="Grupo_81479" data-name="Grupo 81479">
              <path id="Trazado_116639" data-name="Trazado 116639" d="M-256.783,269.307a4.243,4.243,0,0,1,4.242,4.242,4.243,4.243,0,0,1-4.242,4.243,4.243,4.243,0,0,1-4.243-4.243,4.243,4.243,0,0,1,4.243-4.242Z" fill="#58595b" fill-rule="evenodd"/>
            </g>
            <g id="Grupo_81480" data-name="Grupo 81480">
              <path id="Trazado_116640" data-name="Trazado 116640" d="M-256.783,270.983a2.566,2.566,0,0,1,2.566,2.566,2.567,2.567,0,0,1-2.566,2.567,2.568,2.568,0,0,1-2.567-2.567,2.567,2.567,0,0,1,2.567-2.566Z" fill="#404041" fill-rule="evenodd"/>
            </g>
            <g id="Grupo_81481" data-name="Grupo 81481">
              <path id="Trazado_116641" data-name="Trazado 116641" d="M-256.783,272.256a1.293,1.293,0,0,1,1.293,1.293,1.293,1.293,0,0,1-1.293,1.293,1.294,1.294,0,0,1-1.294-1.293,1.294,1.294,0,0,1,1.294-1.293Z" fill="#58595b" fill-rule="evenodd"/>
            </g>
            <g id="Grupo_81482" data-name="Grupo 81482">
              <path id="Trazado_116642" data-name="Trazado 116642" d="M-248.3,269.307a4.243,4.243,0,0,1,4.242,4.242,4.243,4.243,0,0,1-4.242,4.243,4.243,4.243,0,0,1-4.243-4.243,4.243,4.243,0,0,1,4.243-4.242Z" fill="#58595b" fill-rule="evenodd"/>
            </g>
            <g id="Grupo_81483" data-name="Grupo 81483">
              <path id="Trazado_116643" data-name="Trazado 116643" d="M-248.3,270.983a2.566,2.566,0,0,1,2.566,2.566,2.567,2.567,0,0,1-2.566,2.567,2.567,2.567,0,0,1-2.566-2.567,2.566,2.566,0,0,1,2.566-2.566Z" fill="#404041" fill-rule="evenodd"/>
            </g>
            <g id="Grupo_81484" data-name="Grupo 81484">
              <path id="Trazado_116644" data-name="Trazado 116644" d="M-248.3,272.256a1.293,1.293,0,0,1,1.293,1.293,1.293,1.293,0,0,1-1.293,1.293,1.293,1.293,0,0,1-1.294-1.293,1.293,1.293,0,0,1,1.294-1.293Z" fill="#58595b" fill-rule="evenodd"/>
            </g>
            <g id="Grupo_81485" data-name="Grupo 81485">
              <path id="Trazado_116645" data-name="Trazado 116645" d="M-237.247,269.307a4.243,4.243,0,0,1,4.242,4.242,4.243,4.243,0,0,1-4.242,4.243,4.243,4.243,0,0,1-4.243-4.243,4.243,4.243,0,0,1,4.243-4.242Z" fill="#58595b" fill-rule="evenodd"/>
            </g>
            <g id="Grupo_81486" data-name="Grupo 81486">
              <path id="Trazado_116646" data-name="Trazado 116646" d="M-237.247,270.983a2.566,2.566,0,0,1,2.566,2.566,2.567,2.567,0,0,1-2.566,2.567,2.567,2.567,0,0,1-2.566-2.567,2.566,2.566,0,0,1,2.566-2.566Z" fill="#404041" fill-rule="evenodd"/>
            </g>
            <g id="Grupo_81487" data-name="Grupo 81487">
              <path id="Trazado_116647" data-name="Trazado 116647" d="M-237.247,272.256a1.293,1.293,0,0,1,1.293,1.293,1.293,1.293,0,0,1-1.293,1.293,1.294,1.294,0,0,1-1.294-1.293,1.294,1.294,0,0,1,1.294-1.293Z" fill="#58595b" fill-rule="evenodd"/>
            </g>
            <g id="Grupo_81488" data-name="Grupo 81488">
              <path id="Trazado_116648" data-name="Trazado 116648" d="M-228.762,269.307a4.243,4.243,0,0,1,4.242,4.242,4.243,4.243,0,0,1-4.242,4.243,4.243,4.243,0,0,1-4.243-4.243,4.243,4.243,0,0,1,4.243-4.242Z" fill="#58595b" fill-rule="evenodd"/>
            </g>
            <g id="Grupo_81489" data-name="Grupo 81489">
              <path id="Trazado_116649" data-name="Trazado 116649" d="M-228.762,270.983a2.566,2.566,0,0,1,2.566,2.566,2.567,2.567,0,0,1-2.566,2.567,2.567,2.567,0,0,1-2.566-2.567,2.566,2.566,0,0,1,2.566-2.566Z" fill="#404041" fill-rule="evenodd"/>
            </g>
            <g id="Grupo_81490" data-name="Grupo 81490">
              <path id="Trazado_116650" data-name="Trazado 116650" d="M-228.762,272.256a1.293,1.293,0,0,1,1.293,1.293,1.293,1.293,0,0,1-1.293,1.293,1.293,1.293,0,0,1-1.293-1.293,1.293,1.293,0,0,1,1.293-1.293Z" fill="#58595b" fill-rule="evenodd"/>
            </g>
            <g id="Grupo_81491" data-name="Grupo 81491">
              <path id="Trazado_116651" data-name="Trazado 116651" d="M-275.635,244.64a16.857,16.857,0,0,0-16.855,16.854,16.857,16.857,0,0,0,16.855,16.855,16.856,16.856,0,0,0,16.854-16.855,16.856,16.856,0,0,0-16.854-16.854Z" fill="#ffdd0f" fill-rule="evenodd"/>
            </g>
            <g id="Grupo_81492" data-name="Grupo 81492">
              <path id="Trazado_116652" data-name="Trazado 116652" d="M-275.635,247.579a13.918,13.918,0,0,0-13.916,13.916,13.917,13.917,0,0,0,13.916,13.915,13.917,13.917,0,0,0,13.916-13.915,13.918,13.918,0,0,0-13.916-13.916Z" fill="#eeb926" fill-rule="evenodd"/>
            </g>
            <g id="Grupo_81493" data-name="Grupo 81493">
              <path id="Trazado_116653" data-name="Trazado 116653" d="M-275.635,255.7a5.792,5.792,0,0,0-5.791,5.792,5.792,5.792,0,0,0,5.791,5.791,5.792,5.792,0,0,0,5.791-5.791,5.792,5.792,0,0,0-5.791-5.792Z" fill="#ffdd0f" fill-rule="evenodd"/>
            </g>
            <g id="Grupo_81494" data-name="Grupo 81494">
              <path id="Trazado_116654" data-name="Trazado 116654" d="M-275.635,252.42a.9.9,0,0,0-.894.9.894.894,0,0,0,.894.894.894.894,0,0,0,.894-.894.9.9,0,0,0-.894-.9Z" fill="#ffdd0f" fill-rule="evenodd"/>
            </g>
            <g id="Grupo_81495" data-name="Grupo 81495">
              <path id="Trazado_116655" data-name="Trazado 116655" d="M-270.3,254.152a.9.9,0,0,0-1.249.2.9.9,0,0,0,.2,1.25.9.9,0,0,0,1.25-.2.9.9,0,0,0-.2-1.25Z" fill="#ffdd0f" fill-rule="evenodd"/>
            </g>
            <g id="Grupo_81496" data-name="Grupo 81496">
              <path id="Trazado_116656" data-name="Trazado 116656" d="M-267,258.689a.894.894,0,0,0-1.127-.574.894.894,0,0,0-.574,1.127.894.894,0,0,0,1.127.574.894.894,0,0,0,.574-1.127Z" fill="#ffdd0f" fill-rule="evenodd"/>
            </g>
            <g id="Grupo_81497" data-name="Grupo 81497">
              <path id="Trazado_116657" data-name="Trazado 116657" d="M-267,264.3a.9.9,0,0,0-.574-1.128.9.9,0,0,0-1.127.575.894.894,0,0,0,.574,1.127A.9.9,0,0,0-267,264.3Z" fill="#ffdd0f" fill-rule="evenodd"/>
            </g>
            <g id="Grupo_81498" data-name="Grupo 81498">
              <path id="Trazado_116658" data-name="Trazado 116658" d="M-270.3,268.835a.893.893,0,0,0,.2-1.249.894.894,0,0,0-1.249-.2.894.894,0,0,0-.2,1.249.894.894,0,0,0,1.249.2Z" fill="#ffdd0f" fill-rule="evenodd"/>
            </g>
            <g id="Grupo_81499" data-name="Grupo 81499">
              <path id="Trazado_116659" data-name="Trazado 116659" d="M-275.632,270.569a.894.894,0,0,0,.894-.894.9.9,0,0,0-.894-.895.9.9,0,0,0-.9.895.9.9,0,0,0,.9.894Z" fill="#ffdd0f" fill-rule="evenodd"/>
            </g>
            <g id="Grupo_81500" data-name="Grupo 81500">
              <path id="Trazado_116660" data-name="Trazado 116660" d="M-280.966,268.837a.894.894,0,0,0,1.249-.2.9.9,0,0,0-.2-1.249.894.894,0,0,0-1.249.2.894.894,0,0,0,.2,1.25Z" fill="#ffdd0f" fill-rule="evenodd"/>
            </g>
            <g id="Grupo_81501" data-name="Grupo 81501">
              <path id="Trazado_116661" data-name="Trazado 116661" d="M-284.263,264.3a.893.893,0,0,0,1.126.574.9.9,0,0,0,.575-1.127.9.9,0,0,0-1.127-.574.894.894,0,0,0-.574,1.127Z" fill="#ffdd0f" fill-rule="evenodd"/>
            </g>
            <g id="Grupo_81502" data-name="Grupo 81502">
              <path id="Trazado_116662" data-name="Trazado 116662" d="M-284.265,258.692a.9.9,0,0,0,.575,1.127.9.9,0,0,0,1.127-.574.9.9,0,0,0-.575-1.127.894.894,0,0,0-1.127.574Z" fill="#ffdd0f" fill-rule="evenodd"/>
            </g>
            <g id="Grupo_81503" data-name="Grupo 81503">
              <path id="Trazado_116663" data-name="Trazado 116663" d="M-280.969,254.154a.9.9,0,0,0-.2,1.25.894.894,0,0,0,1.249.2.9.9,0,0,0,.2-1.249.9.9,0,0,0-1.25-.2Z" fill="#ffdd0f" fill-rule="evenodd"/>
            </g>
            <g id="Grupo_81504" data-name="Grupo 81504">
              <path id="Trazado_116664" data-name="Trazado 116664" d="M-224.832,194.367h6.3v-7.622h-6.3v7.622Z" fill="#6d6e70" fill-rule="evenodd"/>
            </g>
            <g id="Grupo_81505" data-name="Grupo 81505">
              <path id="Trazado_116665" data-name="Trazado 116665" d="M-225.561,186.745h7.763l-.657-2.686h-6.523l-.584,2.686Z" fill="#6d6e70" fill-rule="evenodd"/>
            </g>
            <g id="Grupo_81506" data-name="Grupo 81506">
              <path id="Trazado_116666" data-name="Trazado 116666" d="M-286.454,237.17c-3.272-.511-5.971-4.95-4.321-7.271,6.972-6.2,31.02-14.775,41.627-8.354v18.631c-3.507.914-6.605,1.789-11.724.99l-25.582-4Z" fill="#58595b" fill-rule="evenodd"/>
            </g>
            <g id="Grupo_81507" data-name="Grupo 81507">
              <path id="Trazado_116667" data-name="Trazado 116667" d="M-211.879,279.572h-64.6a17.03,17.03,0,0,1-12.124-5.146,18.423,18.423,0,0,1-5.349-13c.058-9.042,7.555-18.836,19.423-17.9l64.78,8.509c8.067,1.189,11.964,8.268,11.65,14.646-.279,5.658-4.051,12.429-13.763,12.9Zm-64.21-34.625c-10.05,0-16.324,8.557-16.374,16.485a16.924,16.924,0,0,0,4.917,11.946,15.553,15.553,0,0,0,11.068,4.706h64.563c8.7-.425,12.083-6.449,12.331-11.482.281-5.708-3.19-12.04-10.37-13.1l-64.729-8.5C-275.135,244.966-275.615,244.947-276.089,244.947Z" fill="#404041"/>
            </g>
            <g id="Grupo_81508" data-name="Grupo 81508">
              <path id="Trazado_116668" data-name="Trazado 116668" d="M-223.929,194.367h4.5v30.519h-4.5V194.367Z" fill="#6d6e70" fill-rule="evenodd"/>
            </g>
            <g id="Grupo_81509" data-name="Grupo 81509">
              <path id="Trazado_116669" data-name="Trazado 116669" d="M-181.068,238.134l-3.785-20.29-1.086.389,3.746,20.152,1.125-.251Z" fill="#00a551" fill-rule="evenodd"/>
            </g>
            <g id="Grupo_81510" data-name="Grupo 81510">
              <path id="Trazado_116670" data-name="Trazado 116670" d="M-160.669,258.289l4.875,0,6.02-8.549h5.667a.536.536,0,0,0,.535-.532l.034-4.348a.516.516,0,0,0-.156-.382.517.517,0,0,0-.38-.158h-6.794l-6.061,8.525-3.748.012.008,5.434Z" fill="#17854a" fill-rule="evenodd"/>
            </g>
            <g id="Grupo_81511" data-name="Grupo 81511">
              <path id="Trazado_116671" data-name="Trazado 116671" d="M-163.351,218.584a8.938,8.938,0,0,0,6.415,4.469l.332-3.895-6.747-.574Z" fill="#bbbdbf" fill-rule="evenodd"/>
            </g>
            <g id="Grupo_81512" data-name="Grupo 81512">
              <path id="Trazado_116672" data-name="Trazado 116672" d="M-212.31,235.823h3.2v4.8h-3.2v-4.8Z" fill="#17854a" fill-rule="evenodd"/>
            </g>
            <g id="Grupo_81513" data-name="Grupo 81513">
              <path id="Trazado_116673" data-name="Trazado 116673" d="M-194.243,234h3.2V241.8h-3.2V234Z" fill="#17854a" fill-rule="evenodd"/>
            </g>
            <g id="Grupo_81514" data-name="Grupo 81514">
              <path id="Trazado_116674" data-name="Trazado 116674" d="M-199.254,233.744h3.2v7.807h-3.2v-7.807Z" fill="#404041" fill-rule="evenodd"/>
            </g>
            <g id="Grupo_81515" data-name="Grupo 81515">
              <path id="Trazado_116675" data-name="Trazado 116675" d="M-190.169,242.231h3.2v7.807h-3.2v-7.807Z" fill="#17854a" fill-rule="evenodd"/>
            </g>
            <g id="Grupo_81516" data-name="Grupo 81516">
              <path id="Trazado_116676" data-name="Trazado 116676" d="M-247.67,250.465l17.832,2.159-.646,5.333-17.832-2.159.646-5.333Z" fill="#404041" fill-rule="evenodd"/>
            </g>
            <g id="Grupo_81517" data-name="Grupo 81517">
              <path id="Trazado_116677" data-name="Trazado 116677" d="M-256.473,248.987l17.832,2.158-1.182,8.32-17.831-2.159,1.182-8.32Z" fill="#58595b" fill-rule="evenodd"/>
            </g>
            <g id="Grupo_81518" data-name="Grupo 81518">
              <path id="Trazado_116678" data-name="Trazado 116678" d="M-234.7,262.747a1.979,1.979,0,0,1,1.979,1.979A1.979,1.979,0,0,1-234.7,266.7a1.979,1.979,0,0,1-1.979-1.979,1.979,1.979,0,0,1,1.979-1.979Z" fill="#156b40" fill-rule="evenodd"/>
            </g>
            <g id="Grupo_81519" data-name="Grupo 81519">
              <path id="Trazado_116679" data-name="Trazado 116679" d="M-227.973,259.419a3.169,3.169,0,0,1,3.17,3.169,3.17,3.17,0,0,1-3.17,3.17,3.17,3.17,0,0,1-3.17-3.17,3.17,3.17,0,0,1,3.17-3.169Z" fill="#156b40" fill-rule="evenodd"/>
            </g>
            <g id="Grupo_81520" data-name="Grupo 81520">
              <path id="Trazado_116680" data-name="Trazado 116680" d="M-227.973,260.868a1.72,1.72,0,0,1,1.721,1.72,1.72,1.72,0,0,1-1.721,1.721,1.72,1.72,0,0,1-1.72-1.721,1.72,1.72,0,0,1,1.72-1.72Z" fill="#00a551" fill-rule="evenodd"/>
            </g>
          </g>
          <g id="Grupo_81522" data-name="Grupo 81522" opacity="0.33">
            <path id="Trazado_116681" data-name="Trazado 116681" d="M-275.632,244.64v33.709a16.856,16.856,0,0,0,16.851-16.855A16.857,16.857,0,0,0-275.632,244.64Z" fill="#020000" fill-rule="evenodd"/>
          </g>
          <g id="Grupo_81523" data-name="Grupo 81523" opacity="0.33">
            <path id="Trazado_116682" data-name="Trazado 116682" d="M-212.128,253.23v25.119a12.562,12.562,0,0,0,12.558-12.56A12.562,12.562,0,0,0-212.128,253.23Z" fill="#020000" fill-rule="evenodd"/>
          </g>
          <g id="Grupo_81524" data-name="Grupo 81524" opacity="0.33">
            <path id="Trazado_116683" data-name="Trazado 116683" d="M-256.783,269.307h0v8.485h0a4.243,4.243,0,0,0,4.242-4.243A4.243,4.243,0,0,0-256.783,269.307Z" fill="#020000" fill-rule="evenodd"/>
          </g>
          <g id="Grupo_81525" data-name="Grupo 81525" opacity="0.33">
            <path id="Trazado_116684" data-name="Trazado 116684" d="M-248.3,269.307h-.018v8.482l.018,0a4.243,4.243,0,0,0,4.242-4.243A4.243,4.243,0,0,0-248.3,269.307Z" fill="#020000" fill-rule="evenodd"/>
          </g>
          <g id="Grupo_81526" data-name="Grupo 81526" opacity="0.33">
            <path id="Trazado_116685" data-name="Trazado 116685" d="M-237.247,269.307v8.484a4.242,4.242,0,0,0,4.242-4.242A4.243,4.243,0,0,0-237.247,269.307Z" fill="#020000" fill-rule="evenodd"/>
          </g>
          <g id="Grupo_81527" data-name="Grupo 81527" opacity="0.33">
            <path id="Trazado_116686" data-name="Trazado 116686" d="M-228.762,269.307v8.485a4.243,4.243,0,0,0,4.242-4.243A4.242,4.242,0,0,0-228.762,269.307Z" fill="#020000" fill-rule="evenodd"/>
          </g>
          <g id="Grupo_81528" data-name="Grupo 81528">
            <path id="Trazado_116687" data-name="Trazado 116687" d="M-284.857,232.276c11.189,2.077,22.593,4.161,33.884,2.744.3-.037.6-.072.9-.1V221.005c-8.708-5.259-32.606.059-40.7,8.894a2.61,2.61,0,0,0-.393.87A43.848,43.848,0,0,0-284.857,232.276Z" fill="#6d6e70" fill-rule="evenodd"/>
          </g>
          <g id="Grupo_81529" data-name="Grupo 81529">
            <path id="Trazado_116688" data-name="Trazado 116688" d="M-249.148,221.545c3.017,1.92,3.083,3.711,6.958,4.319,7.963,1.249,10.96-.015,14.4,1.412,14.8,6.15,12.883,20.837.151,19.08l-12.671-1.726c-2.468-.336-7.345-2.972-8.834-4.454V221.545Z" fill="#58595b" fill-rule="evenodd"/>
          </g>
          <g id="Grupo_81530" data-name="Grupo 81530">
            <path id="Trazado_116689" data-name="Trazado 116689" d="M-248.658,234.989a6.5,6.5,0,0,1,1.37.556,62.751,62.751,0,0,0,29.45,6.369c1.67-4.441-1.244-11.017-9.956-14.638-3.436-1.427-6.433-.163-14.4-1.412-3.875-.608-3.941-2.4-6.958-4.319v13.372A3.508,3.508,0,0,1-248.658,234.989Z" fill="#6d6e70" fill-rule="evenodd"/>
          </g>
          <g id="Grupo_81531" data-name="Grupo 81531">
            <path id="Trazado_116690" data-name="Trazado 116690" d="M-224.3,232.732a5.034,5.034,0,0,1,5.033,5.033A5.034,5.034,0,0,1-224.3,242.8a5.034,5.034,0,0,1-5.033-5.033,5.034,5.034,0,0,1,5.033-5.033Z" fill="#58595b" fill-rule="evenodd"/>
          </g>
          <g id="Grupo_81532" data-name="Grupo 81532">
            <path id="Trazado_116691" data-name="Trazado 116691" d="M-223.929,224.887h4.5v12.448h-4.5V224.887Z" fill="#58595b" fill-rule="evenodd"/>
          </g>
          <g id="Grupo_81533" data-name="Grupo 81533">
            <path id="Trazado_116692" data-name="Trazado 116692" d="M-224.832,227.469h6.3v-7.482h-6.3v7.482Z" fill="#6d6e70" fill-rule="evenodd"/>
          </g>
        </g>
        <g id="Grupo_81535" data-name="Grupo 81535">
          <path id="Trazado_116693" data-name="Trazado 116693" d="M-193.467,282.908a5.636,5.636,0,0,0-3.732.869,4.687,4.687,0,0,1-1.142.66,6.4,6.4,0,0,1-.84.14,3.316,3.316,0,0,0-1.671.808.76.76,0,0,0,.216,1.12,2.2,2.2,0,0,0,1.273.228l6.851-.163C-191.865,285.424-193.763,284.19-193.467,282.908Z" fill="#a88585"/>
        </g>
        <g id="Grupo_81536" data-name="Grupo 81536">
          <path id="Trazado_116694" data-name="Trazado 116694" d="M-209.252,287.254l5.164.263a2.507,2.507,0,0,0-1.135-1.835,2.006,2.006,0,0,0-2.172-.447A4.717,4.717,0,0,0-209.252,287.254Z" fill="#a88585"/>
        </g>
        <g id="Grupo_81537" data-name="Grupo 81537">
          <path id="Trazado_116695" data-name="Trazado 116695" d="M-254.877,280.478a2.758,2.758,0,0,0-2.249-1.061c-.781-.072-1.57-.08-2.34-.226-1.435-.272-2.809-1.023-4.265-.9-1.608.136-2.913,1.3-4.364,2-.209.647.55,1.162,1.18,1.42a20.307,20.307,0,0,0,4.233,1.388,6.833,6.833,0,0,0,4.35-.536C-257.138,281.93-256.187,280.815-254.877,280.478Z" fill="#a88585"/>
        </g>
        <g id="Grupo_81538" data-name="Grupo 81538">
          <path id="Trazado_116696" data-name="Trazado 116696" d="M-292.7,291.938c1.924-.57,4.166.33,5.925-.637a1.852,1.852,0,0,0-1.1-2.566,4.828,4.828,0,0,0-3.148.249,6.844,6.844,0,0,1-3.139.566c.133-.243-.089-.523-.294-.71l-1.618-1.488a10.586,10.586,0,0,0-4.827,1.762c.338.243.693.462,1.047.681l3.652,2.259a3.2,3.2,0,0,0,1.025.476A5.4,5.4,0,0,0-292.7,291.938Z" fill="#a88585"/>
        </g>
        <g id="Grupo_81539" data-name="Grupo 81539">
          <path id="Trazado_116697" data-name="Trazado 116697" d="M-284.129,286.466a2.271,2.271,0,0,0,1.7-.152,2.251,2.251,0,0,0,.62-.821l1.206-2.252a16.637,16.637,0,0,0-6.645-.468,2.082,2.082,0,0,1,.858,1.56,5.374,5.374,0,0,0,.028.7C-286.193,285.96-285.062,286.3-284.129,286.466Z" fill="#a88585"/>
        </g>
        <g id="Grupo_81540" data-name="Grupo 81540">
          <path id="Trazado_116698" data-name="Trazado 116698" d="M-241.859,300.043l6.895.918a14.334,14.334,0,0,0,5.2.054,4.865,4.865,0,0,0,3.73-3.281,17.424,17.424,0,0,0-6.973-.865c-1.95.293-3.763,1.243-5.722,1.463C-240.037,298.478-241.855,298.73-241.859,300.043Z" fill="#a88585"/>
        </g>
        <g id="Grupo_81541" data-name="Grupo 81541">
          <path id="Trazado_116699" data-name="Trazado 116699" d="M-222.458,300.531a2.2,2.2,0,0,0,1.062,1.062,4.55,4.55,0,0,0,4.875-.441c.868-.694,1.555-1.753,2.65-1.942.533-.091,1.083.047,1.62-.02s1.117-.476,1.051-1.013l-7.315-.311a5.766,5.766,0,0,0-2.794.344A1.985,1.985,0,0,0-222.458,300.531Z" fill="#a88585"/>
        </g>
        <g id="Grupo_81542" data-name="Grupo 81542">
          <path id="Trazado_116700" data-name="Trazado 116700" d="M-263.007,286.1l-4.018-1.887c-.833-.392-1.666-.783-2.507-1.159a2.148,2.148,0,0,0-.976-.259,2.193,2.193,0,0,0-.908.336l-5.324,2.939c3.73,1.863,8.12,1.622,12.28,1.337C-263.669,287.348-262.576,286.761-263.007,286.1Z" fill="#a88585"/>
        </g>
        <g id="Grupo_81543" data-name="Grupo 81543">
          <path id="Trazado_116701" data-name="Trazado 116701" d="M-249.246,283.671l6.9.918a14.328,14.328,0,0,0,5.2.054,4.864,4.864,0,0,0,3.73-3.282,17.436,17.436,0,0,0-6.972-.864c-1.95.292-3.763,1.243-5.723,1.463C-247.424,282.106-249.243,282.357-249.246,283.671Z" fill="#a88585"/>
        </g>
        <g id="Grupo_81544" data-name="Grupo 81544">
          <path id="Trazado_116702" data-name="Trazado 116702" d="M-217.9,283.187a2.193,2.193,0,0,0,1.061,1.063,4.55,4.55,0,0,0,4.875-.442c.869-.693,1.555-1.752,2.65-1.941.534-.092,1.083.046,1.62-.02s1.117-.476,1.051-1.013l-7.315-.312a5.777,5.777,0,0,0-2.794.344A1.983,1.983,0,0,0-217.9,283.187Z" fill="#a88585"/>
        </g>
        <g id="Grupo_81545" data-name="Grupo 81545">
          <path id="Trazado_116703" data-name="Trazado 116703" d="M-296.752,270.487a2.01,2.01,0,0,0-.332,1.991,1.223,1.223,0,0,0,1.762.53,5.069,5.069,0,0,0,.7-3.372A2.022,2.022,0,0,0-296.752,270.487Z" fill="#a88585"/>
        </g>
        <g id="Grupo_81546" data-name="Grupo 81546">
          <path id="Trazado_116704" data-name="Trazado 116704" d="M-336.4,269.908a1.652,1.652,0,0,0-.621,1.677c.408.2.921.382,1.281.109a1.251,1.251,0,0,0,.348-.541,1.632,1.632,0,0,0,.18-1.114c-.12-.366-.659-.587-.9-.287Z" fill="#a88585"/>
        </g>
        <g id="Grupo_81547" data-name="Grupo 81547">
          <path id="Trazado_116705" data-name="Trazado 116705" d="M-329.364,260.042l19.137,17.182-8.13.746-11.722-17.128Z" fill="#fff" fill-rule="evenodd"/>
        </g>
        <g id="Grupo_81548" data-name="Grupo 81548">
          <path id="Trazado_116706" data-name="Trazado 116706" d="M-344.723,261.64l16.335-.047,13.655,14.875-19.531.057.107-3.788-12.089-5.528,1.523-5.568Z" fill="#6d6e70" fill-rule="evenodd"/>
        </g>
        <g id="Grupo_81549" data-name="Grupo 81549">
          <path id="Trazado_116707" data-name="Trazado 116707" d="M-344.379,260.042l19.137,17.182-8.13.746-11.722-17.128Z" fill="#fff" fill-rule="evenodd"/>
        </g>
        <g id="Grupo_81550" data-name="Grupo 81550">
          <path id="Trazado_116708" data-name="Trazado 116708" d="M-359.816,261.64l16.334-.047,13.655,14.875-19.53.057.107-3.788-12.09-5.528,1.523-5.568Z" fill="#6d6e70" fill-rule="evenodd"/>
        </g>
        <g id="Grupo_81551" data-name="Grupo 81551">
          <path id="Trazado_116709" data-name="Trazado 116709" d="M-348.05,270.326a2.267,2.267,0,0,0,1.48.844,2.244,2.244,0,0,0,.977-.32l2.277-1.16a16.629,16.629,0,0,0-5.189-4.179,2.083,2.083,0,0,1-.186,1.771,5.6,5.6,0,0,0-.374.587C-349.455,268.732-348.724,269.661-348.05,270.326Z" fill="#a88585"/>
        </g>
        <g id="Grupo_81552" data-name="Grupo 81552">
          <path id="Trazado_116710" data-name="Trazado 116710" d="M-358.907,269.755a3.619,3.619,0,0,0-.037,3.294,2.111,2.111,0,0,0,2.933.762l1.008-4.487a3.014,3.014,0,0,0-2.508-.975A2.384,2.384,0,0,0-358.907,269.755Z" fill="#a88585"/>
        </g>
        <g id="Grupo_81553" data-name="Grupo 81553">
          <path id="Trazado_116711" data-name="Trazado 116711" d="M-340.461,272.544a11.67,11.67,0,0,1-2.424-2.208,2.647,2.647,0,0,0,.635,3.566,1.551,1.551,0,0,0,.54.252A1.189,1.189,0,0,0-340.461,272.544Z" fill="#a88585"/>
        </g>
        <g id="Grupo_81554" data-name="Grupo 81554">
          <path id="Trazado_116712" data-name="Trazado 116712" d="M-274.991,276.969c-7.976-4.469-15.951-3.868-23.927-2.411-10.236,1.487-20.476-1.751-30.712-1.112-4.407-1.991-9.009,2.065-13.56.52-3.311,1.223-6.622-2.531-9.933-1.213-2.229,3.562.967,6.684,0,7.713,14.478-.648,28.955-.539,43.433,2.368,7.581-3.145,15.162-2.987,22.743-3.319a265.551,265.551,0,0,1,31.015,3.452c27.132-1.715,54.264-2.737,81.4-.747,0,2.128.149-4.165.149-5.688C-207.921,277.349-241.456,277.122-274.991,276.969Z" fill="#a88585"/>
        </g>
        <g id="Grupo_81555" data-name="Grupo 81555">
          <path id="Trazado_116713" data-name="Trazado 116713" d="M-301.982,263.508l4.289,2.887a2.5,2.5,0,0,0-.027-2.157,2.006,2.006,0,0,0-1.631-1.5A4.708,4.708,0,0,0-301.982,263.508Z" fill="#a88585"/>
        </g>
        <g id="Grupo_81556" data-name="Grupo 81556">
          <path id="Trazado_116714" data-name="Trazado 116714" d="M-303.076,283.147c0,1.069-2.415,1.936-5.394,1.936s-5.395-.867-5.395-1.936,2.415-1.937,5.395-1.937S-303.076,282.077-303.076,283.147Z" fill="#7c5757" fill-rule="evenodd"/>
        </g>
        <g id="Grupo_81557" data-name="Grupo 81557">
          <path id="Trazado_116715" data-name="Trazado 116715" d="M-230.232,284.338c0,.892-2.015,1.616-4.5,1.616s-4.5-.724-4.5-1.616,2.015-1.616,4.5-1.616S-230.232,283.446-230.232,284.338Z" fill="#7c5757" fill-rule="evenodd"/>
        </g>
        <g id="Grupo_81558" data-name="Grupo 81558">
          <path id="Trazado_116716" data-name="Trazado 116716" d="M-263.458,287.533c0,.688-1.554,1.246-3.471,1.246s-3.47-.558-3.47-1.246,1.554-1.246,3.47-1.246S-263.458,286.845-263.458,287.533Z" fill="#7c5757" fill-rule="evenodd"/>
        </g>
        <g id="Grupo_81559" data-name="Grupo 81559">
          <path id="Trazado_116717" data-name="Trazado 116717" d="M-201.679,287.67c0,.484-1.092.876-2.439.876s-2.44-.392-2.44-.876,1.092-.876,2.44-.876S-201.679,287.186-201.679,287.67Z" fill="#7c5757" fill-rule="evenodd"/>
        </g>
        <g id="Grupo_81560" data-name="Grupo 81560">
          <path id="Trazado_116718" data-name="Trazado 116718" d="M-237.688,300.177c0,.484-1.092.876-2.44.876s-2.439-.392-2.439-.876,1.092-.875,2.439-.875S-237.688,299.694-237.688,300.177Z" fill="#7c5757" fill-rule="evenodd"/>
        </g>
        <g id="Grupo_81561" data-name="Grupo 81561">
          <path id="Trazado_116719" data-name="Trazado 116719" d="M-152.377,199.776a4.932,4.932,0,0,0-5.08-3.71,5.166,5.166,0,0,0-4.828,2.859,12.6,12.6,0,0,0-3.935-.765,6.053,6.053,0,0,0,.1-1.064c0-4.212-4.292-7.628-9.586-7.628-.278,0-.552.015-.825.034a14.29,14.29,0,0,0-10.72-4.363c-5.374,0-9.976,2.5-11.909,6.056-4.789.389-8.654,2.389-9.854,5.008-2.218.417-3.916,1.823-4.247,3.573Z" fill="#fff"/>
        </g>
        <g id="Grupo_81562" data-name="Grupo 81562">
          <path id="Trazado_116720" data-name="Trazado 116720" d="M-288.026,216.957a5.735,5.735,0,0,0-3.042.849,7.3,7.3,0,0,0-4.38-1.107,11.684,11.684,0,0,0-1.367.086c-.727-3.64-4.677-6.425-9.456-6.425-.279,0-.553.014-.825.033a14.29,14.29,0,0,0-10.72-4.363c-5.374,0-9.976,2.5-11.909,6.056-4.79.389-8.654,2.389-9.854,5.008-2.218.417-3.916,1.823-4.247,3.574h60.88A4.931,4.931,0,0,0-288.026,216.957Z" fill="#fff"/>
        </g>
      </g>
    </g>
  </g>
</svg>
