<svg xmlns="http://www.w3.org/2000/svg" width="398.991" height="271.129" viewBox="0 0 398.991 271.129">
  <g id="Grupo_81134" data-name="Grupo 81134" transform="translate(-363.313 -103.832)">
    <path id="Trazado_116197" data-name="Trazado 116197" d="M743.444,374.383l-213.77-.074-107.421-.037-5.98,0-21.581,0s-30.828-25.082-31.362-60.539c-1.052-69.866,44.641-38.4,38.434-122.6C396.1,114.29,544.1,72.858,624.462,131.56c29.217,21.342,31.51,36.311,73.5,31.578,47.394-5.342,52.793,52.3,36.206,84.259C710.626,292.736,799.428,285.288,743.444,374.383Z" transform="translate(0 0)" fill="#ebf3fa" opacity="0.586"/>
    <g id="Grupo_81105" data-name="Grupo 81105" transform="translate(415.545 244.985)">
      <path id="Trazado_116198" data-name="Trazado 116198" d="M917.382,1127.28l-57.981.074-112.992.147-6.3.008,0-.01-14.91,0-30.933.014c5.651-15.479,24.315-61.21,37.62-79.264a143.39,143.39,0,0,1,12.094-14.407c7.936-8.241,13.183-1.1,18.417,4.218.01.01.019.022.029.031a17.27,17.27,0,0,0,5.19,4c3.415,1.418,10-7.949,17.061-18.385q.823-1.211,1.648-2.433h0c7.577-11.219,15.465-22.8,20.422-23.037,8.869-.429,16.238,7.751,22.406,19.271h0c13.646,25.486,22.69,41,26.05,45.36,5.481,7.12,11.2,15.984,16.832,10.045,3.1-3.274,6.106-5.89,8.749-5.95,4.7-.109,9.632,4.548,14.3,11.318l0,0C907.123,1095.747,917.382,1127.28,917.382,1127.28Z" transform="translate(-694.271 -998.212)" fill="#d4e157"/>
      <path id="Trazado_116199" data-name="Trazado 116199" d="M954.989,1209.264c-2.129-2.9-6.968,9.238-10.065,10.065s-.194-4.274-1.549-6.2-10.739,5.205-10.739,5.205a143.376,143.376,0,0,1,12.093-14.406c7.938-8.241,13.183-1.1,18.417,4.216l.029.032C964.4,1209.433,957.118,1212.159,954.989,1209.264Z" transform="translate(-895.017 -1168.297)" fill="#fff"/>
      <path id="Trazado_116200" data-name="Trazado 116200" d="M1320.4,1017.5h0a34.993,34.993,0,0,1-5.458-2.727c-1.742-1.241,0,4.964-3.1,6.481s-4.258-4.412-7.742-5.4-9.1,12.706-13.549,12.844-1.161-10.755-2.129-12.547-10.853,5.114-10.853,5.114h0c7.578-11.218,15.465-22.8,20.422-23.037C1306.861,997.8,1314.23,1005.976,1320.4,1017.5Z" transform="translate(-1185.512 -998.208)" fill="#fff"/>
      <path id="Trazado_116201" data-name="Trazado 116201" d="M1836.666,1442.391c-.871,1.379,1.742,4.895-.484,5.032s-8.13-7.032-9.291-7.376-2.129,3.378-4.161,3.1c-.927-.126-1.612-1.728-2.083-3.432,3.1-3.275,6.107-5.89,8.749-5.951,4.7-.109,9.633,4.549,14.3,11.319C1843.531,1444.981,1837.525,1441.031,1836.666,1442.391Z" transform="translate(-1642.879 -1365.024)" fill="#fff"/>
    </g>
    <g id="Grupo_81106" data-name="Grupo 81106" transform="translate(555.931 207.368)">
      <path id="Trazado_116202" data-name="Trazado 116202" d="M1650.558,842.031V955.084a11.211,11.211,0,0,1-11.006,11.4h-44.762a11.21,11.21,0,0,1-11-11.4V839.993a25.33,25.33,0,0,1,14.317-23.019,6.736,6.736,0,0,0,3.767-6.128v-4.554h30.6v5.077a7.22,7.22,0,0,0,3.793,6.378A27.431,27.431,0,0,1,1650.558,842.031Z" transform="translate(-1583.787 -798.964)" fill="#b2e4f7"/>
      <path id="Trazado_116203" data-name="Trazado 116203" d="M1671.372,1059.648v99.48c0,5.541-4.213,10.034-9.408,10.034h-38.274c-5.2,0-9.41-4.493-9.41-10.034V1057.854c0-.756.035-1.5.106-2.241a33.157,33.157,0,0,1,16.537-.414c8.841,2.167,16.122-2.08,26.524-2.08,7.245,0,10.454,1.122,13.295.865A25.56,25.56,0,0,1,1671.372,1059.648Z" transform="translate(-1609.467 -1006.835)" fill="#6ac8eb"/>
      <path id="Rectángulo_33956" data-name="Rectángulo 33956" d="M8.759,0H25.072A8.329,8.329,0,0,1,33.4,8.329v.43a0,0,0,0,1,0,0H0a0,0,0,0,1,0,0v0A8.759,8.759,0,0,1,8.759,0Z" transform="translate(16.659)" fill="#f99746"/>
      <path id="Trazado_116204" data-name="Trazado 116204" d="M1896.067,903.981s-4.992-8.037-9.357-6.933-1.5,3.917,1.153,6.933,4.415,3.677,6.5,2.541S1896.773,905.023,1896.067,903.981Z" transform="translate(-1837.004 -875.309)" fill="#e3eeff"/>
    </g>
    <path id="Trazado_116205" data-name="Trazado 116205" d="M1532.692,628.656s3.146-7.006,10.67-6.228c0,0,10.924-11.677,22.572-1.557,0,0,12.382-2.508,21.552,2.171,6.114,3.12,8.133,6.392,8.133,6.392Z" transform="translate(-984.825 -431.963)" fill="#f8fcff"/>
    <path id="Trazado_116206" data-name="Trazado 116206" d="M808.595,394.231s6.708-15.681,22.749-13.939c0,0,23.289-26.137,48.123-3.485,0,0,26.4-5.613,45.949,4.86,13.035,6.982,17.34,14.306,17.34,14.306Z" transform="translate(-375.007 -222.114)" fill="#f8fcff"/>
    <path id="Trazado_116207" data-name="Trazado 116207" d="M2226.22,566.476s2.369-6.669,8.035-5.928c0,0,8.225-11.116,17-1.482,0,0,9.324-2.387,16.229,2.067,4.6,2.969,6.124,6.085,6.124,6.085Z" transform="translate(-1568.898 -380.079)" fill="#f8fcff"/>
    <path id="Trazado_116208" data-name="Trazado 116208" d="M1240.466,239.376s2.344-6.034,7.948-5.363c0,0,8.136-10.057,16.813-1.341,0,0,9.223-2.16,16.054,1.87,4.554,2.687,6.058,5.5,6.058,5.5Z" transform="translate(-738.719 -105.512)" fill="#f8fcff"/>
    <g id="Grupo_81107" data-name="Grupo 81107" transform="translate(647.611 199.746)">
      <path id="Trazado_116209" data-name="Trazado 116209" d="M2327.382,716.674c.015-.414.335-4.873,7.128-5.106,0,0-3.34.4-3.918,1.867,0,0,2.274-1.815,4.127-1.231s2.94,3.828,2.951,4.9-1.018,4.508-2.194,4.8a3.587,3.587,0,0,1-1.424,0,15.954,15.954,0,0,1,.912,1.629c2.71,5.564-.085,11-2.379,10.4-1.472-.385-1.888,2.126-1.888,2.126l-14.3-11.574S2321.652,713.616,2327.382,716.674Z" transform="translate(-2292.458 -711.568)" fill="#2c3a64"/>
      <path id="Trazado_116210" data-name="Trazado 116210" d="M2191.045,982.3c4.183-.414,9.147-1.149,11.123-2.367,3.011-1.839,8.223-9.559,11.441-15.19.092-.138.3-2.99.369-3.128,1.678-2.988,2.439-1.148,2.531-3.516a11.877,11.877,0,0,0-.391-3.769,9.613,9.613,0,0,0-1.7-3.4,1.715,1.715,0,0,0-.322-.391,7.933,7.933,0,0,0-2.183-1.861c-.552-.23-1.149.046-1.77.712v.023a10.541,10.541,0,0,0-1.586,2.344c-.023.023-.046.046-.046.069-.115.207-.23.436-.368.689a.573.573,0,0,0-.092.161q-.379.793-.759,1.655c-2.827,6.159-4.955,16.344-7.46,19.124-1.08,1.2-6.9,2.686-10.834,4.432C2186.173,979.126,2188.265,982.6,2191.045,982.3Z" transform="translate(-2184.032 -911.187)" fill="#ffb27d"/>
      <path id="Trazado_116211" data-name="Trazado 116211" d="M2354.441,1278.938l3.037,1.131s13.191-18.294,14.814-34.39a24.451,24.451,0,0,0-.434-8.229s.129-.736.354-2.038c.1-.607.233-1.339.379-2.177.429-2.457,1.019-5.819,1.694-9.647,1.552-8.809,3.563-20.07,5.125-28.349l-.818-.263-8.854-2.856-1.83-5.812-6.593-1.736s-1.473,2.881-2.789,16.49c-.243,1.785-.464,3.754-.63,5.888a116.513,116.513,0,0,0,.627,23.839q.453,3.548,1.157,7.317a32.607,32.607,0,0,1,.253,7.225C2359.271,1258.49,2354.441,1278.938,2354.441,1278.938Z" transform="translate(-2324.494 -1109.922)" fill="#d4e157"/>
      <path id="Trazado_116212" data-name="Trazado 116212" d="M2376.341,1203.544l14.316,28.46c.1-.607.233-1.339.379-2.177.429-2.457,1.019-5.819,1.693-9.647,1.552-8.809,3.563-20.07,5.125-28.349l-.818-.263-8.854-2.856-1.83-5.812-9.018-2.374S2376.341,1198.116,2376.341,1203.544Z" transform="translate(-2342.938 -1106.515)" fill="#aab541"/>
      <path id="Trazado_116213" data-name="Trazado 116213" d="M2416.245,1170.561l.332-2.842c5.552,1.475,20.387-4.121,20.387-4.121s5.379,4.728,4.672,16.061c-.345,5.532-.974,29.038-1.632,35.994-.238,2.521-.446,4.315-.531,5.032a.013.013,0,0,0,0,.007.994.994,0,0,0,.161.616,32.658,32.658,0,0,1,2.427,5.1c6.454,17.2-.994,38.381-.994,38.381l-1.933-.779s-4.239-23.572-7.683-33.986a20.6,20.6,0,0,0-1.659-3.984c-1.5-2.417-2.887-6.366-4.148-11.062a272.128,272.128,0,0,1-5.58-29.348C2419.887,1185.642,2416.245,1170.561,2416.245,1170.561Z" transform="translate(-2376.544 -1092.257)" fill="#d4e157"/>
      <path id="Trazado_116214" data-name="Trazado 116214" d="M2349.037,879.027a17.289,17.289,0,0,0,6.394,1.5c9.545.523,11.713-7.845,12.107-13.4a8,8,0,0,0-3.275-.414c-.258.014-.521.033-.78.055a2.814,2.814,0,0,1-2.457-1.074,20.005,20.005,0,0,1-3.207-7.332l-.412.191-6.888,3.238s.731,2.241,1.272,4.386a22.548,22.548,0,0,1,.516,2.543,1.513,1.513,0,0,1-.912,1.571h0a.019.019,0,0,1,0,.007A47.29,47.29,0,0,0,2349.037,879.027Z" transform="translate(-2319.943 -835.195)" fill="#ffb27d"/>
      <path id="Trazado_116215" data-name="Trazado 116215" d="M2329.635,928.876c.072.191.152.377.238.568,2.417,5.207,6.893,26.774,6.893,26.774,1.374,4.17,29.142-.761,29.219-4.292,1.049-3.744-3.722-9.759-6.412-12.776a8.553,8.553,0,0,1-.9-1.215,8.467,8.467,0,0,1-1.22-3.56,123.135,123.135,0,0,1-.372-12.548h0c-.526-.389-1.034-.749-1.507-1.091a13.439,13.439,0,0,1-1.835-1.522,2.777,2.777,0,0,1-.88-1.733,9.154,9.154,0,0,1,.037-1.453c.022-.231.052-.461.087-.692a19.7,19.7,0,0,1,1.384-4.619c-2.562-1.036-7.116-.419-7.116-.419s0,.253.008.667c.015,1.664,0,5.936-.533,6.744-.667,1.007-12.868,5.417-13.512,4.051-.635-1.344,1.1-7.639,1.168-7.877a.018.018,0,0,0,0-.007,19.243,19.243,0,0,0-5.547,2.95C2331.3,918.423,2327.731,923.826,2329.635,928.876Z" transform="translate(-2302.928 -878.78)" fill="#f99746"/>
      <path id="Trazado_116216" data-name="Trazado 116216" d="M2358.431,862.819s.732,2.239,1.272,4.386c4.026-1.123,5.249-5.355,5.617-7.624Z" transform="translate(-2327.854 -836.221)" fill="#ed985f"/>
      <path id="Trazado_116217" data-name="Trazado 116217" d="M2320.379,801.641s9.632-2.229,8.151-8.206-1.234-10.29-7.447-9.119-6.838,3.746-6.829,5.861S2317.835,802.066,2320.379,801.641Z" transform="translate(-2290.65 -772.672)" fill="#ffb27d"/>
      <path id="Trazado_116218" data-name="Trazado 116218" d="M2308.534,780.97c1.036-2.166,2.254-2.051,3.017-1.667a6.909,6.909,0,0,1,8.965-.767,11.763,11.763,0,0,0,5.412,5.814s-1.479,1.515-5.768,1.482a7.058,7.058,0,0,1-3.826-1.44,23.071,23.071,0,0,0,5.022,3.746c-5.369-1.027-8.969-7.243-9.337-7.9a7.743,7.743,0,0,0-1.4,3.308c-.1,1.641.465,4.827-.475,4.947C2310.146,788.491,2306.981,784.219,2308.534,780.97Z" transform="translate(-2285.471 -766.859)" fill="#2c3a64"/>
      <path id="Trazado_116219" data-name="Trazado 116219" d="M2314.6,951.856c-1.084.941-2.319,4.046-2.666,5.087,0,0,3.007-.116,4.222,2.2C2316.157,959.14,2316.167,950.5,2314.6,951.856Z" transform="translate(-2288.697 -913.811)" fill="#f99746"/>
      <path id="Trazado_116220" data-name="Trazado 116220" d="M2415.783,997.521c5.874-.062,10.847-6.161,13.887-11.035a8.473,8.473,0,0,1-1.22-3.56,123.206,123.206,0,0,1-.372-12.548h0c-.525-.389-1.034-.749-1.507-1.091a13.438,13.438,0,0,1-1.835-1.522C2419.926,975.894,2407.82,997.605,2415.783,997.521Z" transform="translate(-2373.928 -927.33)" fill="#ed7d2b"/>
      <path id="Trazado_116221" data-name="Trazado 116221" d="M2502.312,1768.793h15.3a8.4,8.4,0,0,0-.432-4.1c-.766-1.7-1.965-2.468-1.678-4.521a5.508,5.508,0,0,1-4.767,1.824,16.778,16.778,0,0,1-2.654,3.44C2507.077,1766.154,2502.62,1765.9,2502.312,1768.793Z" transform="translate(-2449.028 -1594.678)" fill="#2b478b"/>
      <path id="Trazado_116222" data-name="Trazado 116222" d="M2294.223,1772.454h15.3a6.357,6.357,0,0,0-.432-4.1c-.889-1.469-.548-2.305.11-3.52a5.95,5.95,0,0,1-2.576.485,5.392,5.392,0,0,1-2.275-.8,55.013,55.013,0,0,1-4.358,4.578C2298.988,1769.815,2294.531,1769.559,2294.223,1772.454Z" transform="translate(-2273.78 -1598.339)" fill="#2b478b"/>
      <path id="Trazado_116223" data-name="Trazado 116223" d="M2281.34,955.811l.615,2.373s7.638-1.6,9.316-1.969h.023c2.873-.689,6.09-1.516,8.8-2.436a24.166,24.166,0,0,0,4.688-2.091,2.824,2.824,0,0,0,.322-.23c2.689-1.953,5.883-7.7,8.365-13.858.345-.85.667-1.7.988-2.528a62.822,62.822,0,0,0,2.62-8.733,24.656,24.656,0,0,0,.621-4.16,10.126,10.126,0,0,0,.023-1.172c-.046-6.665-3.355-7.584-3.355-7.584-.069-.023-.138-.046-.23-.069-.574-.092-1.172.3-1.792,1.057a20.881,20.881,0,0,0-2.459,4.343c-1.31,2.965-2.689,6.8-3.976,10.618-.712,2.091-1.4,4.183-2.091,6.113-.391,1.172-.781,2.275-1.149,3.286a31.692,31.692,0,0,1-1.93,4.481,11.136,11.136,0,0,1-2.827,2.551C2295.477,947.573,2281.34,955.811,2281.34,955.811Z" transform="translate(-2262.93 -881.496)" fill="#ffb27d"/>
      <path id="Trazado_116224" data-name="Trazado 116224" d="M2457.908,919.111c4.425-1.22,8.526,1.985,8.526,1.985-.055-6.654-3.367-7.565-3.367-7.565C2461.733,912.979,2459.5,915.537,2457.908,919.111Z" transform="translate(-2411.632 -881.594)" fill="#f99746"/>
      <path id="Trazado_116225" data-name="Trazado 116225" d="M2252.792,1176.977a37.658,37.658,0,0,0-4.642,2.106,9.642,9.642,0,0,0-2.459,3.535s.013.416.4.416,1.259-1.49,1.9-1.252a13.049,13.049,0,0,1-1.287,2.472c-.477.5-.749,3.011-.652,3.556s3.372-2.055,4.744-3.236c.73-.629.709-2.156.935-3.881.2-1.513,4.375-2.388,4.375-2.388Z" transform="translate(-2232.907 -1103.525)" fill="#ffb27d"/>
      <path id="Trazado_116226" data-name="Trazado 116226" d="M2166.225,1156.154s-1.985,1.823-1.44,3.791,2.655,2.2,3,1.164S2167.257,1155.79,2166.225,1156.154Z" transform="translate(-2164.69 -1085.969)" fill="#ffb27d"/>
    </g>
    <g id="Grupo_81108" data-name="Grupo 81108" transform="translate(626.164 221.971)">
      <path id="Trazado_116227" data-name="Trazado 116227" d="M2028.8,865.513c0-4.462,7.4-13.126,7.4-13.126s7.4,8.664,7.4,13.126-3.313,8.08-7.4,8.08S2028.8,869.975,2028.8,865.513Z" transform="translate(-2028.796 -852.387)" fill="#5abee3"/>
      <path id="Trazado_116228" data-name="Trazado 116228" d="M2043.268,933.457a3.061,3.061,0,0,1-.145-1.241c.086-1.955,1.891-3.01,3.328-1.681a5.406,5.406,0,0,1,.991,1.366c.557,1.354.319,2.575-.92,3.085A2.547,2.547,0,0,1,2043.268,933.457Z" transform="translate(-2040.857 -917.702)" fill="#ccdcff"/>
    </g>
    <g id="Grupo_81109" data-name="Grupo 81109" transform="translate(470.168 190.631)">
      <path id="Trazado_116229" data-name="Trazado 116229" d="M1040.374,684.451c0-10.417,17.272-30.642,17.272-30.642s17.272,20.225,17.272,30.642-7.733,18.862-17.272,18.862S1040.374,694.868,1040.374,684.451Z" transform="translate(-1040.374 -653.809)" fill="#5abee3"/>
      <path id="Trazado_116230" data-name="Trazado 116230" d="M1074.159,843.064a7.148,7.148,0,0,1-.339-2.9c.2-4.564,4.415-7.026,7.769-3.925a12.622,12.622,0,0,1,2.314,3.188c1.3,3.161.746,6.012-2.149,7.2A5.945,5.945,0,0,1,1074.159,843.064Z" transform="translate(-1068.531 -806.284)" fill="#ccdcff"/>
    </g>
    <g id="Grupo_81111" data-name="Grupo 81111" transform="translate(496.733 137.041)">
      <rect id="Rectángulo_33957" data-name="Rectángulo 33957" width="33.189" height="5.432" transform="translate(51.134 184.002)" fill="#2b478b"/>
      <g id="Grupo_81110" data-name="Grupo 81110" transform="translate(21.486 0)">
        <path id="Trazado_116231" data-name="Trazado 116231" d="M1358.766,549.2h-13.929v-174.3a60.656,60.656,0,1,1,121.312,0v14.36h-13.93v-14.36a46.727,46.727,0,0,0-93.453,0Z" transform="translate(-1344.836 -314.252)" fill="#233862"/>
      </g>
      <path id="Rectángulo_33958" data-name="Rectángulo 33958" d="M0,0H7.714a8.739,8.739,0,0,1,8.739,8.739v0a8.739,8.739,0,0,1-8.739,8.739H0a0,0,0,0,1,0,0V0A0,0,0,0,1,0,0Z" transform="translate(36.459 177.979)" fill="#233862"/>
      <path id="Trazado_116232" data-name="Trazado 116232" d="M1650.887,1470.311l-29.914-1.256a3.826,3.826,0,0,1-3.666-3.823v-2.672a3.826,3.826,0,0,1,3.713-3.825l29.914-.884a3.827,3.827,0,0,1,3.939,3.825v4.812A3.826,3.826,0,0,1,1650.887,1470.311Z" transform="translate(-1552.819 -1277.363)" fill="#f99746"/>
      <path id="Rectángulo_33959" data-name="Rectángulo 33959" d="M12.668,0h0A11.645,11.645,0,0,1,24.313,11.645V66.953a0,0,0,0,1,0,0H0a0,0,0,0,1,0,0V12.668A12.668,12.668,0,0,1,12.668,0Z" transform="translate(16.294 168)" fill="#2b478b"/>
      <path id="Rectángulo_33960" data-name="Rectángulo 33960" d="M5,0H51.9a5,5,0,0,1,5,5V5a0,0,0,0,1,0,0H0A0,0,0,0,1,0,5V5A5,5,0,0,1,5,0Z" transform="translate(0 231.737)" fill="#163560"/>
      <rect id="Rectángulo_33961" data-name="Rectángulo 33961" width="18.811" height="6.117" rx="3.059" transform="translate(126.428 70.327)" fill="#060633"/>
    </g>
    <g id="Grupo_81112" data-name="Grupo 81112" transform="translate(603.325 248.026)">
      <path id="Trazado_116233" data-name="Trazado 116233" d="M1904.708,1017.477h57.3l-2.165,53.052-2.642,64.733-49.553-.686Z" transform="translate(-1901.453 -1017.477)" fill="#b2e4f7"/>
      <path id="Trazado_116234" data-name="Trazado 116234" d="M1964.37,1205.157l-2.209,70.6c-.107,3.39-2.459,6.074-5.325,6.074h-36.969c-3.024,0-5.514-2.82-5.647-6.4l-2.875-77.233c4.506-1.1,13.394-1.908,24,4.249C1944.335,1207.667,1956.121,1206.79,1964.37,1205.157Z" transform="translate(-1907.043 -1169.033)" fill="#6ac8eb"/>
      <rect id="Rectángulo_33962" data-name="Rectángulo 33962" width="59.489" height="0.75" transform="translate(1.067 0)" fill="#83a9ff"/>
      <path id="Trazado_116235" data-name="Trazado 116235" d="M1945.763,1018.092l-3.83,122.4a3.429,3.429,0,0,1-3.427,3.321h-49.74l-4.68-125.72h3.255l.827,22.447.22,5.964,2.876,77.93c.132,3.613,2.623,6.457,5.647,6.457h36.968c2.866,0,5.219-2.707,5.325-6.128l2.209-71.236.512-16.513.587-18.92Z" transform="translate(-1884.086 -1017.995)" fill="#4294b2"/>
      <path id="Trazado_116236" data-name="Trazado 116236" d="M2182.767,1046.342s-.1-2.567-3.485-2.567c-5.458,0-5.227,18.755-3.383,20.908s5.5.976,6.149-.2C2184.558,1059.917,2182.767,1046.342,2182.767,1046.342Z" transform="translate(-2128.851 -1039.625)" fill="#e3eeff"/>
      <path id="Trazado_116237" data-name="Trazado 116237" d="M2148.058,1609.707c-.149-1.012-.434-2.979-2.256-3.413s-3.828,1.735-4.864,5.293-6.329,5.987-4.681,9.111,6.888,2.132,8.319.948C2147.19,1619.483,2148.49,1612.634,2148.058,1609.707Z" transform="translate(-2096.193 -1513.319)" fill="#e3eeff"/>
      <path id="Trazado_116238" data-name="Trazado 116238" d="M2087.755,1192.113s-6.662-1.665-7.892-4.829,1-4.96,3.305-4.255,1.256,3.7,2.921,6.394Z" transform="translate(-2048.671 -1156.772)" fill="#a6c6ff"/>
    </g>
    <g id="Grupo_81126" data-name="Grupo 81126" transform="translate(558.359 323.759)">
      <g id="Grupo_81114" data-name="Grupo 81114" transform="translate(16.217 22.505)">
        <path id="Trazado_116239" data-name="Trazado 116239" d="M1703.938,1646.167c1.655.671,7.568.128,7.759-.344s-3.676-4.978-5.33-5.648a3.233,3.233,0,0,0-2.429,5.993Z" transform="translate(-1701.919 -1639.937)" fill="#d4e157"/>
        <path id="Trazado_116240" data-name="Trazado 116240" d="M1803.429,1689.018c-.929,1.525-1.349,7.447-.913,7.713s5.506-2.823,6.435-4.348a3.233,3.233,0,0,0-5.522-3.364Z" transform="translate(-1786.494 -1679.965)" fill="#d4e157"/>
        <path id="Trazado_116241" data-name="Trazado 116241" d="M1746.719,1737.042c1.7.543,7.555-.448,7.71-.934s-4.044-4.684-5.745-5.226a3.233,3.233,0,0,0-1.966,6.16Z" transform="translate(-1737.753 -1716.399)" fill="#d4e157"/>
        <g id="Grupo_81113" data-name="Grupo 81113" transform="translate(9.578 5.749)">
          <path id="Trazado_116242" data-name="Trazado 116242" d="M1770.607,1696.991c-.006-.135-.66-13.539-8-20.46l.156-.166c7.407,6.985,8.065,20.48,8.07,20.615Z" transform="translate(-1762.608 -1676.366)" fill="#d4e157"/>
        </g>
      </g>
      <g id="Grupo_81116" data-name="Grupo 81116" transform="translate(44.675 24.918)">
        <path id="Trazado_116243" data-name="Trazado 116243" d="M1940.089,1659.33c-1.031.684-5.12,1.134-5.315.84s1.807-3.888,2.837-4.572a2.24,2.24,0,1,1,2.478,3.732Z" transform="translate(-1926.471 -1655.224)" fill="#d4e157"/>
        <path id="Trazado_116244" data-name="Trazado 116244" d="M1886.119,1702.643c.842.907,1.946,4.87,1.687,5.11s-4.129-1.155-4.971-2.062a2.24,2.24,0,0,1,3.284-3.048Z" transform="translate(-1882.237 -1694.557)" fill="#d4e157"/>
        <path id="Trazado_116245" data-name="Trazado 116245" d="M1922.605,1726.948c-1.08.6-5.192.741-5.364.433s2.1-3.74,3.177-4.344a2.24,2.24,0,1,1,2.187,3.91Z" transform="translate(-1911.709 -1712.095)" fill="#d4e157"/>
        <g id="Grupo_81115" data-name="Grupo 81115" transform="translate(5.435 4.848)">
          <path id="Trazado_116246" data-name="Trazado 116246" d="M1917.08,1701.029c-.015-.092-1.426-9.284,2.6-15l-.129-.091c-4.062,5.767-2.641,15.021-2.627,15.114Z" transform="translate(-1916.672 -1685.94)" fill="#d4e157"/>
        </g>
      </g>
      <g id="Grupo_81119" data-name="Grupo 81119" transform="translate(26.658)">
        <g id="Grupo_81117" data-name="Grupo 81117" transform="translate(6.919 6.737)">
          <path id="Trazado_116247" data-name="Trazado 116247" d="M1821.591,1581.388l-.467-.074a142.423,142.423,0,0,0-9.208-41.1l.425-.184A142.892,142.892,0,0,1,1821.591,1581.388Z" transform="translate(-1811.916 -1540.026)" fill="#a8d29f"/>
        </g>
        <g id="Grupo_81118" data-name="Grupo 81118">
          <path id="Trazado_116248" data-name="Trazado 116248" d="M1777.406,1504.274c.9,1.015,5.092,2.648,5.382,2.392s-.81-4.622-1.706-5.637a2.452,2.452,0,0,0-3.676,3.245Z" transform="translate(-1775.417 -1499.748)" fill="#fff"/>
          <path id="Trazado_116249" data-name="Trazado 116249" d="M1814.451,1498.326c-.809,1.086-1.544,5.528-1.234,5.759s4.357-1.743,5.166-2.829a2.452,2.452,0,0,0-3.932-2.93Z" transform="translate(-1806.032 -1497.339)" fill="#fff"/>
          <path id="Trazado_116250" data-name="Trazado 116250" d="M1820.984,1533.1c-1.306-.356-5.71.585-5.811.958s3.216,3.417,4.522,3.773a2.452,2.452,0,0,0,1.289-4.731Z" transform="translate(-1807.738 -1527.388)" fill="#fff"/>
          <path id="Trazado_116251" data-name="Trazado 116251" d="M1807.073,1543.648c-.13-1.348-2.571-5.132-2.955-5.094s-2.056,4.218-1.925,5.566a2.452,2.452,0,1,0,4.881-.472Z" transform="translate(-1796.802 -1532.049)" fill="#fff"/>
          <path id="Trazado_116252" data-name="Trazado 116252" d="M1771.67,1542.973c1.2-.629,3.781-4.318,3.6-4.66s-4.682-.311-5.881.319a2.452,2.452,0,0,0,2.28,4.341Z" transform="translate(-1768.078 -1531.664)" fill="#fff"/>
          <path id="Trazado_116253" data-name="Trazado 116253" d="M1808.551,1535.035a.807.807,0,1,1,.671.924A.808.808,0,0,1,1808.551,1535.035Z" transform="translate(-1802.155 -1528.513)" fill="#163560"/>
        </g>
        <path id="Trazado_116254" data-name="Trazado 116254" d="M1859.6,1640.416c-1.332,1.638-2.77,8.512-2.3,8.892s6.9-2.429,8.236-4.067a3.824,3.824,0,1,0-5.933-4.825Z" transform="translate(-1843.141 -1616.646)" fill="#d4e157"/>
      </g>
      <g id="Grupo_81122" data-name="Grupo 81122" transform="translate(2.303 19.147)">
        <g id="Grupo_81120" data-name="Grupo 81120" transform="translate(4.41 4.752)">
          <path id="Trazado_116255" data-name="Trazado 116255" d="M1651.74,1675.4l-.316-.008a95.328,95.328,0,0,0-9.717-26.466l.266-.159A95.643,95.643,0,0,1,1651.74,1675.4Z" transform="translate(-1641.706 -1648.767)" fill="#d4e157"/>
        </g>
        <g id="Grupo_81121" data-name="Grupo 81121">
          <path id="Trazado_116256" data-name="Trazado 116256" d="M1616.639,1627.084a2.168,2.168,0,1,0,2.155-2.476,1.641,1.641,0,1,0-2.155,2.476Z" transform="translate(-1615.71 -1623.33)" fill="#fff"/>
          <path id="Trazado_116257" data-name="Trazado 116257" d="M1642.416,1619.5a2.168,2.168,0,1,0,2.866,1.6,1.641,1.641,0,0,0-2.866-1.6Z" transform="translate(-1637.531 -1618.659)" fill="#fff"/>
          <path id="Trazado_116258" data-name="Trazado 116258" d="M1647.5,1641.112a2.168,2.168,0,1,0-.44,3.252,1.641,1.641,0,1,0,.44-3.252Z" transform="translate(-1639.002 -1637.56)" fill="#fff"/>
          <path id="Trazado_116259" data-name="Trazado 116259" d="M1641.154,1650.922a2.168,2.168,0,1,0-3.2.741,1.641,1.641,0,1,0,3.2-.741Z" transform="translate(-1634.109 -1643.201)" fill="#fff"/>
          <path id="Trazado_116260" data-name="Trazado 116260" d="M1616.35,1651.59a2.168,2.168,0,1,0-1.894-2.681,1.641,1.641,0,1,0,1.894,2.681Z" transform="translate(-1613.762 -1643.475)" fill="#fff"/>
          <path id="Trazado_116261" data-name="Trazado 116261" d="M1639.288,1645.584a.54.54,0,1,1,.526.555A.54.54,0,0,1,1639.288,1645.584Z" transform="translate(-1635.259 -1640.891)" fill="#163560"/>
        </g>
        <path id="Trazado_116262" data-name="Trazado 116262" d="M1686.494,1708.8c-.74,1.2-1.091,5.891-.748,6.1s4.368-2.218,5.108-3.422a2.559,2.559,0,1,0-4.36-2.681Z" transform="translate(-1674.274 -1693.549)" fill="#d4e157"/>
      </g>
      <g id="Grupo_81125" data-name="Grupo 81125" transform="translate(60.217 5.63)">
        <g id="Grupo_81123" data-name="Grupo 81123" transform="translate(7.013 6)">
          <path id="Trazado_116263" data-name="Trazado 116263" d="M2025.147,1607.867l.416-.066a126.86,126.86,0,0,1,8.2-36.607l-.379-.163A127.276,127.276,0,0,0,2025.147,1607.867Z" transform="translate(-2025.147 -1571.031)" fill="#d4e157"/>
        </g>
        <g id="Grupo_81124" data-name="Grupo 81124" transform="translate(8.384)">
          <path id="Trazado_116264" data-name="Trazado 116264" d="M2081.757,1539.191c-.8.9-4.535,2.358-4.793,2.131s.721-4.116,1.519-5.021a2.183,2.183,0,0,1,3.274,2.89Z" transform="translate(-2070.122 -1535.161)" fill="#fff"/>
          <path id="Trazado_116265" data-name="Trazado 116265" d="M2050.278,1533.894c.72.967,1.375,4.923,1.1,5.129s-3.88-1.553-4.6-2.519a2.183,2.183,0,1,1,3.5-2.609Z" transform="translate(-2044.369 -1533.015)" fill="#fff"/>
          <path id="Trazado_116266" data-name="Trazado 116266" d="M2035.445,1564.861c1.164-.317,5.085.521,5.176.853s-2.864,3.044-4.027,3.361a2.184,2.184,0,1,1-1.148-4.213Z" transform="translate(-2033.835 -1559.775)" fill="#fff"/>
          <path id="Trazado_116267" data-name="Trazado 116267" d="M2060.768,1574.258c.116-1.2,2.29-4.57,2.632-4.537s1.831,3.757,1.715,4.957a2.183,2.183,0,0,1-4.347-.42Z" transform="translate(-2056.509 -1563.927)" fill="#fff"/>
          <path id="Trazado_116268" data-name="Trazado 116268" d="M2081.354,1573.656c-1.068-.561-3.368-3.845-3.208-4.15s4.17-.277,5.238.284a2.183,2.183,0,0,1-2.03,3.866Z" transform="translate(-2071.146 -1563.584)" fill="#fff"/>
          <path id="Trazado_116269" data-name="Trazado 116269" d="M2075.061,1566.587a.719.719,0,1,0-.6.823A.719.719,0,0,0,2075.061,1566.587Z" transform="translate(-2067.351 -1560.778)" fill="#163560"/>
        </g>
        <path id="Trazado_116270" data-name="Trazado 116270" d="M1986.76,1696.393c1.187,1.459,2.467,7.58,2.051,7.919s-6.148-2.163-7.334-3.622a3.405,3.405,0,1,1,5.284-4.3Z" transform="translate(-1980.713 -1669.549)" fill="#d4e157"/>
      </g>
      <path id="Trazado_116271" data-name="Trazado 116271" d="M1599.167,1763.616s2.351-6.18,10.886-6.568,14.412,4.656,21.464,2.328,18.723-7.584,29.764-4.083,12.9,8.323,12.9,8.323Z" transform="translate(-1599.167 -1713.597)" fill="#d4e157"/>
    </g>
    <g id="Grupo_81127" data-name="Grupo 81127" transform="translate(406.013 201.628)">
      <path id="Trazado_116272" data-name="Trazado 116272" d="M878.584,1760.7H860.135c-1.322-.9.357-9.66.357-9.66s5.035-1.911,5.9,1.975,6.413,5.117,9.346,5.59A3.157,3.157,0,0,1,878.584,1760.7Z" transform="translate(-823.999 -1588.473)" fill="#2b478b"/>
      <path id="Trazado_116273" data-name="Trazado 116273" d="M826.559,1198.22l-8.612,89.458s-1.8,2.78-7.53.905a163.931,163.931,0,0,1-5.737-30.942c-.02-.271-.042-.543-.062-.815-.437-5.957-.958-14.253-1.45-22.477-.895-14.951-1.69-29.665-1.69-29.665Z" transform="translate(-775.027 -1123.297)" fill="#12263f"/>
      <path id="Trazado_116274" data-name="Trazado 116274" d="M824.474,1306.656s-2.953,19.926-3.973,25.983c-2.172,12.894-6.8,16.325-6.8,16.325-.02-.271-.042-.543-.062-.815-.437-5.957-.958-14.253-1.45-22.477Z" transform="translate(-784.043 -1214.619)" fill="#091421"/>
      <path id="Trazado_116275" data-name="Trazado 116275" d="M1149.443,1028.01s1.71-2.075,2.629-2.366,2.7-1.668,2.931-1.1-1.2,1.442-1.12,2.091c.033.286,1.137.3,2.36.287,1.552-.018,3.442-.853,3.511-.475.256,1.384-1.781,3.9-3.895,4.125-1.7.181-4.073-.172-6.918.128C1147.955,1030.8,1149.443,1028.01,1149.443,1028.01Z" transform="translate(-1067.367 -976.916)" fill="#ffb27d"/>
      <path id="Trazado_116276" data-name="Trazado 116276" d="M894.293,924.849c-.058.168-6.191,1.193-11.5,1.937-3.125.44-5.966.783-7.115.795-2.5.029-7.276-.813-12.929-3.195a54.921,54.921,0,0,1-10.024-5.533c-3.032-2.108-3.125-3.759-5.647-7.145-7.825-10.512,2.46-14.957,8.116-12.94a16.108,16.108,0,0,1,8.4,6.989c2.509,3.81,4.557,8.05,10.8,11.713,4.707,2.761,18.737,3.517,18.737,3.517a2.9,2.9,0,0,1,1.031,1.614A8.652,8.652,0,0,1,894.293,924.849Z" transform="translate(-811.047 -870.706)" fill="#8d6e61"/>
      <path id="Trazado_116277" data-name="Trazado 116277" d="M705.217,1760.7H686.768c-1.322-.9.357-9.66.357-9.66s5.035-1.911,5.9,1.975,6.414,5.117,9.346,5.59A3.157,3.157,0,0,1,705.217,1760.7Z" transform="translate(-677.993 -1588.473)" fill="#2b478b"/>
      <path id="Trazado_116278" data-name="Trazado 116278" d="M719.484,1170.765l-27.938,85.51s-5.944,1.589-8.989-1.652c0,0,.706-30.15,4.519-40.444,3.086-8.329,1.589-53.3,15.266-53.68S719.484,1170.765,719.484,1170.765Z" transform="translate(-674.874 -1091.52)" fill="#12263f"/>
      <path id="Trazado_116279" data-name="Trazado 116279" d="M772.736,942.489c-4.311,2.22-9.9,3.78-19.132,3.179-8.87-.578-14.291-3.01-14.016-5.132.137-1.056.269-2.142.384-3.276a82.061,82.061,0,0,0-.312-19.036c-.261-2.165-.6-4.465-.878-6.465v-.006h0a46.407,46.407,0,0,1-.581-5.179s2.807-12.612,4.912-14.639a9.056,9.056,0,0,1,3.193-1.817l.012,0c6.341-2.286,18-1.768,23.149,2.7.7.609,3.19,4.813,3.259,9.359C772.822,908.5,775.535,941.048,772.736,942.489Z" transform="translate(-721.732 -862.698)" fill="#8d6e61"/>
      <path id="Trazado_116280" data-name="Trazado 116280" d="M817.344,850.555c-.636-.8,1.159-2.3.357-8.173a4.165,4.165,0,0,1,1.449.24c2.614.619,7.869,2.11,8.1,2.176h.009s.064,1.235.281,3.448c.018.2.038.4.059.61.027.259.046.536.086.818C828.31,854.091,820.321,854.314,817.344,850.555Z" transform="translate(-788.271 -823.597)" fill="#ffb27d"/>
      <path id="Trazado_116281" data-name="Trazado 116281" d="M830.8,849.657c-3.9.895-9.727-4.867-9.727-4.867a6.143,6.143,0,0,1,1.335-.757c2.614.619,7.869,2.109,8.1,2.176h.009S830.584,847.444,830.8,849.657Z" transform="translate(-791.529 -825.009)" fill="#ed975d"/>
      <path id="Trazado_116282" data-name="Trazado 116282" d="M815.248,770.339a19.852,19.852,0,0,1-3.65.851c-2.992.4-6.926.166-8.162-3.454-2.082-6.093-4.741-9.746,1.385-12.234,3.279-1.332,5.377-1.4,6.8-.894a4.927,4.927,0,0,1,2.52,2.182C815.333,758.654,817.726,769.272,815.248,770.339Z" transform="translate(-774.651 -749.451)" fill="#ffb27d"/>
      <path id="Trazado_116283" data-name="Trazado 116283" d="M787.206,725.751a3.409,3.409,0,0,1-2.033,5.938,9.947,9.947,0,0,0-2.878.343c-1.523.677-1.8,3.232-1.825,4.043s-.134,1.5-2.2,1.012a1.006,1.006,0,0,0-.751.045c-.858.509.239,2.977.569,3.512,0,0,.476,1.768-.58,2.628-.128.1-2.2,1.01-7.2-6.644a7.109,7.109,0,0,1-.322-6.514c1.212-2.606,6.191-5.461,10.579-6.459A7.362,7.362,0,0,1,787.206,725.751Z" transform="translate(-747.958 -723.491)" fill="#2b478b"/>
      <path id="Trazado_116284" data-name="Trazado 116284" d="M872.583,830.917s.128.789-1.706,1.418c0,0-1.54.529-1.821-.28A5.227,5.227,0,0,1,872.583,830.917Z" transform="translate(-831.94 -813.962)" fill="#fff"/>
      <path id="Trazado_116285" data-name="Trazado 116285" d="M980.126,1032.352c-3.125.44-5.966.782-7.115.795-2.5.029-7.276-.813-12.929-3.195-.231-.806-.462-5.849.031-6.188,1.5-1.03,4.474,4.786,9.47,6.3A84.89,84.89,0,0,0,980.126,1032.352Z" transform="translate(-908.379 -976.272)" fill="#715144"/>
      <path id="Trazado_116286" data-name="Trazado 116286" d="M744.721,1050.622a1.543,1.543,0,0,1-1.628-.418,82.061,82.061,0,0,0-.312-19.035c-.261-2.165-.595-4.465-.878-6.465v-.006s4.183-3.6,5.618-.627-2.664,10.865-.409,15.58S747.251,1049.912,744.721,1050.622Z" transform="translate(-724.854 -975.642)" fill="#715144"/>
      <path id="Trazado_116287" data-name="Trazado 116287" d="M711.782,1180.964s2.261,1.64,2.842,1.543c1.7-.284,2.578-1.667,4.155-1.536s4.913,1.9,4.526,2.3c-1.4,1.465-3.564.672-4.579,1.568-.705.622-1.13,1.914-3.692,1.651a9.781,9.781,0,0,1-4.828-2.369Z" transform="translate(-698.159 -1108.763)" fill="#ffb27d"/>
      <path id="Trazado_116288" data-name="Trazado 116288" d="M658.465,897.193a34.682,34.682,0,0,0-16.908,12.445c-7.03,9.685-9.306,16.229-6.539,21.073s8.148,13.406,13.375,17.013c0,0,2.613-.559,2.408-4.556,0,0-6.417-13.681-6.186-15.532.431-3.446,9.568-12.18,11.566-13.982S658.465,897.193,658.465,897.193Z" transform="translate(-633.873 -869.779)" fill="#8d6e61"/>
      <path id="Trazado_116289" data-name="Trazado 116289" d="M744.958,1176.541a18.616,18.616,0,0,0,1.293-2.272c.154-.512.415.266.307.794a2.067,2.067,0,0,0,.025.948Z" transform="translate(-727.426 -1102.985)" fill="#ffb27d"/>
    </g>
    <path id="Trazado_116290" data-name="Trazado 116290" d="M2653.217,1740.391h-12.562c-.673-.571.466-1.868,1.656-1.955a7.333,7.333,0,0,1,1.918.227c.173-2.3,1.16-12.618,4.881-12.2,4.184.464,0,4.546-1.183,6.962a57.579,57.579,0,0,0-2.223,5.568c.34.073.691.146,1.051.212.555-1.7,2.618-7.429,5.241-7.1,3.081.391,1.843,2.687-.341,4.05-1.6,1-3.569,2.427-4.5,3.115a13.344,13.344,0,0,0,2.457.2A5.3,5.3,0,0,1,2653.217,1740.391Z" transform="translate(-1917.756 -1366.53)" fill="#a8d29f"/>
    <g id="Grupo_81130" data-name="Grupo 81130" transform="translate(466.564 335.141)">
      <g id="Grupo_81128" data-name="Grupo 81128" transform="translate(5.548 5.402)">
        <path id="Trazado_116291" data-name="Trazado 116291" d="M1060.448,1636.849l-.374-.06a114.211,114.211,0,0,0-7.383-32.959l.341-.147A114.581,114.581,0,0,1,1060.448,1636.849Z" transform="translate(-1052.69 -1603.683)" fill="#a8d29f"/>
      </g>
      <g id="Grupo_81129" data-name="Grupo 81129" transform="translate(0)">
        <path id="Trazado_116292" data-name="Trazado 116292" d="M1025.018,1575.015c.718.814,4.083,2.124,4.315,1.918s-.649-3.706-1.368-4.52a1.966,1.966,0,1,0-2.948,2.6Z" transform="translate(-1023.423 -1571.386)" fill="#fff"/>
        <path id="Trazado_116293" data-name="Trazado 116293" d="M1054.723,1570.245c-.649.87-1.238,4.433-.99,4.618s3.494-1.4,4.142-2.268a1.966,1.966,0,0,0-3.153-2.349Z" transform="translate(-1047.972 -1569.454)" fill="#fff"/>
        <path id="Trazado_116294" data-name="Trazado 116294" d="M1059.961,1598.127c-1.048-.286-4.578.469-4.66.768s2.578,2.74,3.626,3.026a1.966,1.966,0,0,0,1.034-3.793Z" transform="translate(-1049.34 -1593.548)" fill="#fff"/>
        <path id="Trazado_116295" data-name="Trazado 116295" d="M1048.808,1606.587c-.1-1.081-2.062-4.115-2.37-4.085s-1.648,3.382-1.544,4.463a1.966,1.966,0,0,0,3.914-.378Z" transform="translate(-1040.572 -1597.286)" fill="#fff"/>
        <path id="Trazado_116296" data-name="Trazado 116296" d="M1020.419,1606.045c.961-.5,3.032-3.462,2.888-3.737s-3.754-.249-4.716.256a1.966,1.966,0,0,0,1.828,3.481Z" transform="translate(-1017.539 -1596.977)" fill="#fff"/>
        <path id="Trazado_116297" data-name="Trazado 116297" d="M1049.993,1599.68a.647.647,0,1,1,.538.741A.648.648,0,0,1,1049.993,1599.68Z" transform="translate(-1044.864 -1594.45)" fill="#f78248"/>
      </g>
      <path id="Trazado_116298" data-name="Trazado 116298" d="M1080.434,1632.106c-1.068,1.314-2.221,6.825-1.846,7.13s5.536-1.948,6.6-3.261a3.066,3.066,0,1,0-4.757-3.869Z" transform="translate(-1068.892 -1621.265)" fill="#a8d29f"/>
      <path id="Trazado_116299" data-name="Trazado 116299" d="M1056.872,1737.233c1.109.541,3.563,3.831,3.408,4.148s-4.257.41-5.367-.131a2.235,2.235,0,0,1,1.959-4.017Z" transform="translate(-1047.957 -1710.563)" fill="#a8d29f"/>
    </g>
    <g id="Grupo_81133" data-name="Grupo 81133" transform="translate(483.845 329.428)">
      <g id="Grupo_81131" data-name="Grupo 81131" transform="translate(6.128 6.202)">
        <path id="Trazado_116300" data-name="Trazado 116300" d="M1165.86,1610.634l.43-.068a131.133,131.133,0,0,1,8.477-37.841l-.391-.169A131.559,131.559,0,0,0,1165.86,1610.634Z" transform="translate(-1165.86 -1572.556)" fill="#a8d29f"/>
      </g>
      <g id="Grupo_81132" data-name="Grupo 81132" transform="translate(7.546)">
        <path id="Trazado_116301" data-name="Trazado 116301" d="M1224.379,1539.641c-.825.935-4.688,2.438-4.955,2.2s.745-4.255,1.57-5.19a2.257,2.257,0,0,1,3.384,2.987Z" transform="translate(-1212.352 -1535.475)" fill="#fff"/>
        <path id="Trazado_116302" data-name="Trazado 116302" d="M1191.839,1534.165c.745,1,1.422,5.089,1.136,5.3s-4.011-1.6-4.756-2.6a2.257,2.257,0,0,1,3.62-2.7Z" transform="translate(-1185.731 -1533.257)" fill="#fff"/>
        <path id="Trazado_116303" data-name="Trazado 116303" d="M1176.506,1566.177c1.2-.328,5.256.538,5.35.881s-2.96,3.146-4.163,3.474a2.257,2.257,0,1,1-1.187-4.355Z" transform="translate(-1174.842 -1560.92)" fill="#fff"/>
        <path id="Trazado_116304" data-name="Trazado 116304" d="M1202.683,1575.89c.12-1.241,2.367-4.724,2.721-4.69s1.892,3.884,1.772,5.124a2.257,2.257,0,0,1-4.493-.434Z" transform="translate(-1198.28 -1565.211)" fill="#fff"/>
        <path id="Trazado_116305" data-name="Trazado 116305" d="M1223.962,1575.269c-1.1-.579-3.481-3.975-3.316-4.29s4.311-.286,5.414.293a2.257,2.257,0,1,1-2.1,4Z" transform="translate(-1213.411 -1564.857)" fill="#fff"/>
        <path id="Trazado_116306" data-name="Trazado 116306" d="M1217.458,1567.961a.743.743,0,1,0-.617.851A.743.743,0,0,0,1217.458,1567.961Z" transform="translate(-1209.488 -1561.956)" fill="#f78248"/>
      </g>
      <path id="Trazado_116307" data-name="Trazado 116307" d="M1133.281,1664.977c1.227,1.509,2.55,7.836,2.12,8.186s-6.355-2.236-7.582-3.744a3.52,3.52,0,0,1,5.462-4.442Z" transform="translate(-1127.03 -1643.094)" fill="#a8d29f"/>
      <path id="Trazado_116308" data-name="Trazado 116308" d="M1176.877,1725.887c-1.274.621-4.09,4.4-3.913,4.762s4.888.471,6.162-.15a2.566,2.566,0,0,0-2.249-4.612Z" transform="translate(-1165.708 -1695.267)" fill="#a8d29f"/>
    </g>
    <path id="Trazado_116309" data-name="Trazado 116309" d="M1080.233,1798.719a6.6,6.6,0,0,0-5.2-2.5c-3.728-.2-5.573,1.946-9.339.717s-13.585-2.336-15.709,1.715Z" transform="translate(-578.3 -1424.944)" fill="#a8d29f"/>
    <path id="Trazado_116310" data-name="Trazado 116310" d="M831.43,1814.959l-381.323-.131a.461.461,0,0,1-.46-.46v-.224a.461.461,0,0,1,.46-.46l381.323.131a.461.461,0,0,1,.46.46v.224A.461.461,0,0,1,831.43,1814.959Z" transform="translate(-72.71 -1439.998)" fill="#2e3552"/>
  </g>
</svg>
