<?xml version="1.0" encoding="utf-8"?>
<!-- Generator: Adobe Illustrator 25.4.1, SVG Export Plug-In . SVG Version: 6.00 Build 0)  -->
<svg version="1.1" id="Layer_1" xmlns="http://www.w3.org/2000/svg" xmlns:xlink="http://www.w3.org/1999/xlink" x="0px" y="0px"
	 viewBox="0 0 650 460" style="enable-background:new 0 0 650 460;" xml:space="preserve">
<style type="text/css">
	.st0{fill:none;}
	.st1{fill:none;stroke:#707070;stroke-dasharray:11;}
	.st2{fill:#12263F;}
	.st3{fill:#FFFFFF;}
	.st4{fill:#D4E157;}
</style>
<g id="Elipse_4753" transform="translate(528 3393)">
	<circle class="st0" cx="-189" cy="-3172" r="215"/>
	<circle class="st1" cx="-189" cy="-3172" r="214.5"/>
</g>
<path id="Rectángulo_33815" class="st2" d="M232.5,0h217c13,0,23.5,10.5,23.5,23.5l0,0c0,13-10.5,23.5-23.5,23.5h-217
	c-13,0-23.5-10.5-23.5-23.5l0,0C209,10.5,219.5,0,232.5,0z"/>
<path id="Rectángulo_33835" class="st2" d="M119.5,92h54c13,0,23.5,10.5,23.5,23.5l0,0c0,13-10.5,23.5-23.5,23.5h-54
	c-13,0-23.5-10.5-23.5-23.5l0,0C96,102.5,106.5,92,119.5,92z"/>
<path id="Rectángulo_33836" class="st2" d="M24,205h216c13.3,0,24,10.7,24,24v25c0,13.3-10.7,24-24,24H24c-13.3,0-24-10.7-24-24
	v-25C0,215.7,10.7,205,24,205z"/>
<path id="Rectángulo_33837" class="st2" d="M409,287h216c13.3,0,24,10.7,24,24v25c0,13.3-10.7,24-24,24H409c-13.3,0-24-10.7-24-24
	v-25C385,297.7,395.7,287,409,287z"/>
<path id="Rectángulo_33838" class="st2" d="M410,125h216c13.3,0,24,10.7,24,24v25c0,13.3-10.7,24-24,24H410c-13.3,0-24-10.7-24-24
	v-25C386,135.7,396.7,125,410,125z"/>
<path id="Rectángulo_33829" class="st2" d="M318.5,413h86c13,0,23.5,10.5,23.5,23.5l0,0c0,13-10.5,23.5-23.5,23.5h-86
	c-13,0-23.5-10.5-23.5-23.5l0,0C295,423.5,305.5,413,318.5,413z"/>
<path id="Rectángulo_33832" class="st2" d="M149.5,338h67c13,0,23.5,10.5,23.5,23.5l0,0c0,13-10.5,23.5-23.5,23.5h-67
	c-13,0-23.5-10.5-23.5-23.5l0,0C126,348.5,136.5,338,149.5,338z"/>
<path id="Trazado_119378" class="st3" d="M247.3,24.5V29h-1.5V17.6h4.2c1.1-0.1,2.1,0.3,2.9,1c0.7,0.6,1.1,1.6,1.1,2.5
	c0.1,1-0.3,1.9-1,2.6c-0.8,0.6-1.9,1-3,0.9H247.3z M247.3,23.3h2.7c0.7,0,1.3-0.2,1.8-0.6c0.4-0.4,0.7-1,0.6-1.6
	c0-0.6-0.2-1.2-0.6-1.6c-0.5-0.4-1.1-0.7-1.8-0.6h-2.8V23.3z M259.7,21.8c-0.2,0-0.5-0.1-0.7-0.1c-0.8-0.1-1.6,0.4-1.9,1.2v6h-1.4
	v-8.5h1.4l0,1c0.4-0.7,1.2-1.2,2-1.1c0.2,0,0.4,0,0.6,0.1V21.8z M264.4,29.2c-1.1,0-2.1-0.4-2.8-1.1c-0.7-0.8-1.1-1.9-1.1-3v-0.3
	c0-0.8,0.2-1.5,0.5-2.2c0.3-0.6,0.8-1.2,1.3-1.5c0.6-0.4,1.2-0.6,1.9-0.6c1-0.1,1.9,0.3,2.6,1.1c0.7,0.9,1,2,0.9,3.1v0.6H262
	c0,0.7,0.2,1.5,0.7,2c0.5,0.5,1.1,0.8,1.8,0.8c0.5,0,0.9-0.1,1.3-0.3c0.4-0.2,0.7-0.5,0.9-0.8l0.9,0.7
	C266.9,28.6,265.7,29.2,264.4,29.2L264.4,29.2z M264.2,21.6c-0.6,0-1.1,0.2-1.5,0.6c-0.4,0.5-0.7,1.1-0.7,1.8h4.2v-0.1
	c0-0.6-0.2-1.2-0.6-1.7C265.3,21.8,264.8,21.6,264.2,21.6L264.2,21.6z M274.3,26.8c0-0.4-0.2-0.7-0.4-0.9c-0.5-0.3-1-0.5-1.5-0.6
	c-0.6-0.1-1.2-0.3-1.7-0.6c-0.4-0.2-0.7-0.4-1-0.8c-0.2-0.3-0.3-0.7-0.3-1.1c0-0.7,0.3-1.3,0.9-1.8c0.6-0.5,1.4-0.8,2.2-0.7
	c0.8,0,1.7,0.2,2.3,0.7c0.6,0.5,0.9,1.2,0.9,1.9h-1.5c0-0.4-0.2-0.8-0.5-1c-0.4-0.3-0.8-0.4-1.3-0.4c-0.4,0-0.9,0.1-1.2,0.3
	c-0.3,0.2-0.5,0.5-0.4,0.9c0,0.3,0.1,0.6,0.4,0.8c0.5,0.2,1,0.4,1.5,0.5c0.6,0.1,1.2,0.3,1.8,0.6c0.4,0.2,0.7,0.5,1,0.8
	c0.2,0.3,0.3,0.7,0.3,1.2c0,0.7-0.3,1.4-0.9,1.8c-0.7,0.5-1.5,0.7-2.4,0.7c-0.6,0-1.2-0.1-1.8-0.4c-0.5-0.2-0.9-0.6-1.2-1
	c-0.3-0.4-0.4-0.9-0.4-1.4h1.4c0,0.5,0.2,0.9,0.6,1.2c0.4,0.3,0.9,0.5,1.4,0.4c0.5,0,0.9-0.1,1.3-0.3
	C274.1,27.5,274.3,27.1,274.3,26.8L274.3,26.8z M279.2,29h-1.5v-8.5h1.5V29z M277.6,18.3c0-0.2,0.1-0.4,0.2-0.6
	c0.2-0.2,0.4-0.3,0.6-0.2c0.2,0,0.5,0.1,0.6,0.2c0.1,0.2,0.2,0.4,0.2,0.6c0,0.2-0.1,0.4-0.2,0.6c-0.2,0.2-0.4,0.3-0.6,0.2
	c-0.2,0-0.5-0.1-0.6-0.2C277.7,18.7,277.6,18.5,277.6,18.3z M281.2,24.7c-0.1-1.1,0.3-2.2,0.9-3.1c1.1-1.4,3.1-1.6,4.4-0.5
	c0.1,0.1,0.2,0.2,0.4,0.3V17h1.4v12H287l-0.1-0.9c-0.6,0.7-1.5,1.1-2.4,1.1c-0.9,0-1.8-0.4-2.4-1.2c-0.7-0.9-1-2-0.9-3.1V24.7z
	 M282.6,24.9c0,0.8,0.2,1.6,0.6,2.2c0.4,0.5,1,0.8,1.6,0.8c0.9,0,1.7-0.4,2-1.2v-3.9c-0.4-0.8-1.1-1.2-2-1.2c-0.7,0-1.3,0.3-1.7,0.8
	C282.7,23.2,282.5,24,282.6,24.9L282.6,24.9z M294,29.2c-1.1,0-2.1-0.4-2.8-1.1c-0.7-0.8-1.1-1.9-1.1-3v-0.3c0-0.8,0.2-1.5,0.5-2.2
	c0.3-0.6,0.8-1.2,1.3-1.5c0.6-0.4,1.2-0.6,1.9-0.6c1-0.1,1.9,0.3,2.6,1.1c0.7,0.9,1,2,0.9,3.1v0.6h-5.7c0,0.7,0.2,1.5,0.7,2
	c0.5,0.5,1.1,0.8,1.8,0.8c0.5,0,0.9-0.1,1.3-0.3c0.4-0.2,0.7-0.5,0.9-0.8l0.9,0.7C296.5,28.6,295.3,29.2,294,29.2L294,29.2z
	 M293.9,21.6c-0.6,0-1.1,0.2-1.5,0.6c-0.4,0.5-0.7,1.1-0.7,1.8h4.2v-0.1c0-0.6-0.2-1.2-0.6-1.7C294.9,21.8,294.4,21.6,293.9,21.6
	L293.9,21.6z M300.4,20.5l0,1.1c0.6-0.8,1.5-1.2,2.5-1.2c1.8,0,2.7,1,2.7,3V29h-1.4v-5.6c0-0.5-0.1-1-0.4-1.4
	c-0.3-0.3-0.8-0.5-1.3-0.4c-0.4,0-0.9,0.1-1.2,0.4c-0.4,0.3-0.6,0.6-0.8,1v6H299v-8.5L300.4,20.5z M309.8,18.5v2h1.6v1.1h-1.6v5.2
	c0,0.3,0.1,0.5,0.2,0.8c0.2,0.2,0.5,0.3,0.7,0.3c0.2,0,0.5,0,0.7-0.1V29c-0.4,0.1-0.7,0.2-1.1,0.2c-0.6,0-1.1-0.2-1.5-0.6
	c-0.4-0.5-0.5-1.1-0.5-1.7v-5.2h-1.5v-1.1h1.5v-2H309.8z M316.6,29.2c-1.1,0-2.1-0.4-2.8-1.1c-0.7-0.8-1.1-1.9-1.1-3v-0.3
	c0-0.8,0.2-1.5,0.5-2.2c0.3-0.6,0.8-1.2,1.3-1.5c0.6-0.4,1.2-0.6,1.9-0.6c1-0.1,1.9,0.3,2.6,1.1c0.7,0.9,1,2,0.9,3.1v0.6h-5.7
	c0,0.7,0.2,1.5,0.7,2c0.5,0.5,1.1,0.8,1.8,0.8c0.5,0,0.9-0.1,1.3-0.3c0.4-0.2,0.7-0.5,0.9-0.8l0.9,0.7
	C319.1,28.6,317.9,29.2,316.6,29.2z M316.4,21.6c-0.6,0-1.1,0.2-1.5,0.6c-0.4,0.5-0.7,1.1-0.7,1.8h4.2v-0.1c0-0.6-0.2-1.2-0.6-1.7
	C317.5,21.8,316.9,21.6,316.4,21.6L316.4,21.6z M356.3,29c-0.1-0.3-0.2-0.6-0.2-0.9c-0.6,0.7-1.5,1.1-2.4,1c-0.7,0-1.5-0.2-2.1-0.7
	c-0.5-0.4-0.8-1.1-0.8-1.8c0-0.8,0.3-1.6,1-2.1c0.8-0.5,1.8-0.8,2.8-0.7h1.4v-0.7c0-0.4-0.1-0.9-0.5-1.2c-0.4-0.3-0.8-0.5-1.3-0.4
	c-0.5,0-0.9,0.1-1.3,0.4c-0.3,0.2-0.5,0.6-0.5,0.9H351c0-0.4,0.2-0.9,0.4-1.2c0.3-0.4,0.7-0.7,1.2-0.9c0.5-0.2,1.1-0.4,1.7-0.3
	c0.8,0,1.6,0.2,2.3,0.7c0.6,0.5,0.9,1.2,0.9,2V27c0,0.6,0.1,1.3,0.3,1.9V29H356.3z M353.9,27.9c0.5,0,0.9-0.1,1.3-0.4
	c0.4-0.2,0.7-0.5,0.9-0.9v-1.7h-1.1c-1.8,0-2.7,0.5-2.7,1.6c0,0.4,0.1,0.8,0.5,1.1C353,27.8,353.4,27.9,353.9,27.9L353.9,27.9z
	 M368.1,24.4h-2.7V29h-1.5V17.6h3.8c1.1-0.1,2.1,0.2,3,0.9c0.7,0.6,1.1,1.6,1,2.5c0,0.7-0.2,1.3-0.6,1.9c-0.4,0.5-1,1-1.6,1.2
	l2.7,4.8V29h-1.6L368.1,24.4z M365.4,23.2h2.3c0.6,0,1.3-0.2,1.8-0.6c0.4-0.4,0.7-1,0.7-1.6c0-0.6-0.2-1.2-0.6-1.6
	c-0.5-0.4-1.2-0.6-1.8-0.6h-2.3L365.4,23.2z M377.1,29.2c-1.1,0-2.1-0.4-2.8-1.1c-0.7-0.8-1.1-1.9-1.1-3v-0.3c0-0.8,0.2-1.5,0.5-2.2
	c0.3-0.6,0.8-1.2,1.3-1.5c0.6-0.4,1.2-0.6,1.9-0.6c1-0.1,1.9,0.3,2.6,1.1c0.7,0.9,1,2,0.9,3.1v0.6h-5.7c0,0.7,0.2,1.5,0.7,2
	c0.5,0.5,1.1,0.8,1.8,0.8c0.5,0,0.9-0.1,1.3-0.3c0.4-0.2,0.7-0.5,0.9-0.8l0.9,0.7C379.6,28.6,378.3,29.2,377.1,29.2L377.1,29.2z
	 M376.9,21.6c-0.6,0-1.1,0.2-1.5,0.6c-0.4,0.5-0.7,1.1-0.7,1.8h4.2v-0.1c0-0.6-0.2-1.2-0.6-1.7C378,21.8,377.4,21.6,376.9,21.6z
	 M389.2,24.9c0.1,1.1-0.3,2.2-0.9,3.1c-0.6,0.8-1.4,1.2-2.4,1.2c-0.9,0-1.8-0.3-2.4-1v4.1H382V20.5h1.3l0.1,0.9
	c0.6-0.7,1.5-1.1,2.5-1.1c0.9,0,1.8,0.4,2.4,1.1c0.6,0.9,1,2.1,0.9,3.2L389.2,24.9z M387.7,24.7c0-0.8-0.2-1.6-0.6-2.3
	c-0.4-0.5-1-0.9-1.7-0.8c-0.8,0-1.6,0.4-2,1.2v4c0.4,0.7,1.2,1.2,2,1.2c0.7,0,1.3-0.3,1.7-0.8C387.6,26.4,387.8,25.6,387.7,24.7
	L387.7,24.7z M396.2,28.2c-0.6,0.7-1.5,1.1-2.5,1c-0.8,0.1-1.5-0.2-2.1-0.8c-0.5-0.7-0.8-1.5-0.7-2.3v-5.5h1.4V26
	c0,1.3,0.5,1.9,1.6,1.9c0.9,0.1,1.8-0.4,2.2-1.2v-6.1h1.4V29h-1.4L396.2,28.2z M395.1,17h1.8l-2.1,2.3h-1.2L395.1,17z M407,24.9
	c0.1,1.1-0.3,2.2-0.9,3.1c-0.6,0.8-1.4,1.2-2.4,1.2c-1,0-1.9-0.4-2.5-1.1l-0.1,1h-1.3V17h1.4v4.5c0.6-0.7,1.5-1.1,2.4-1.1
	c0.9,0,1.9,0.4,2.4,1.2c0.6,0.9,0.9,2.1,0.9,3.2L407,24.9z M405.5,24.7c0-0.8-0.2-1.6-0.6-2.3c-0.4-0.5-1-0.8-1.6-0.8
	c-0.9,0-1.7,0.5-2.1,1.3v3.6c0.4,0.8,1.2,1.4,2.1,1.3c0.6,0,1.2-0.3,1.6-0.8C405.4,26.4,405.6,25.5,405.5,24.7L405.5,24.7z
	 M410.4,29h-1.4V17h1.4L410.4,29z M348.9,29h-1.4V17h1.4L348.9,29z M414.3,29h-1.4v-8.5h1.4V29z M412.7,18.3c0-0.2,0.1-0.4,0.2-0.6
	c0.2-0.2,0.4-0.3,0.6-0.2c0.2,0,0.5,0.1,0.6,0.2c0.1,0.2,0.2,0.4,0.2,0.6c0,0.2-0.1,0.4-0.2,0.6c-0.2,0.2-0.4,0.3-0.6,0.2
	c-0.2,0-0.5-0.1-0.6-0.2C412.8,18.7,412.7,18.5,412.7,18.3z M420,28c0.5,0,1-0.2,1.4-0.5c0.4-0.3,0.6-0.7,0.6-1.2h1.4
	c0,0.5-0.2,1-0.5,1.4c-0.3,0.4-0.7,0.8-1.2,1c-0.5,0.3-1.1,0.4-1.6,0.4c-1,0-2.1-0.4-2.8-1.2c-0.7-0.9-1.1-2-1-3.2v-0.2
	c0-0.8,0.1-1.5,0.5-2.2c0.3-0.6,0.7-1.1,1.3-1.5c0.6-0.4,1.3-0.5,2-0.5c0.9,0,1.7,0.3,2.4,0.9c0.6,0.6,1,1.4,1,2.2h-1.4
	c0-0.5-0.2-1-0.6-1.3c-0.4-0.4-0.9-0.5-1.4-0.5c-0.7,0-1.3,0.3-1.7,0.8c-0.4,0.7-0.7,1.5-0.6,2.3v0.3c-0.1,0.8,0.2,1.6,0.6,2.2
	C418.6,27.7,419.3,28,420,28L420,28z M430.2,29c-0.1-0.3-0.2-0.6-0.2-0.9c-0.6,0.7-1.5,1.1-2.4,1c-0.7,0-1.5-0.2-2.1-0.7
	c-0.5-0.4-0.8-1.1-0.8-1.8c0-0.8,0.3-1.6,1-2.1c0.8-0.5,1.8-0.8,2.8-0.7h1.4v-0.7c0-0.4-0.1-0.9-0.5-1.2c-0.4-0.3-0.8-0.5-1.3-0.4
	c-0.5,0-0.9,0.1-1.3,0.4c-0.3,0.2-0.5,0.6-0.5,0.9h-1.5c0-0.4,0.2-0.9,0.4-1.2c0.3-0.4,0.7-0.7,1.2-0.9c0.5-0.2,1.1-0.4,1.7-0.3
	c0.8,0,1.6,0.2,2.3,0.7c0.6,0.5,0.9,1.2,0.9,2V27c0,0.6,0.1,1.3,0.3,1.9V29H430.2z M427.8,27.9c0.5,0,0.9-0.1,1.3-0.4
	c0.4-0.2,0.7-0.5,0.9-0.9v-1.7h-1.1c-1.8,0-2.7,0.5-2.7,1.6c0,0.4,0.1,0.8,0.5,1.1C426.9,27.8,427.3,27.9,427.8,27.9L427.8,27.9z
	 M326.5,25c0,0.8,0.2,1.6,0.6,2.2c0.4,0.5,1,0.8,1.6,0.8c0.9,0,1.7-0.5,2-1.2v-3.9c-0.4-0.8-1.1-1.2-2-1.2c-0.7,0-1.3,0.3-1.7,0.8
	C326.6,23.3,326.4,24.1,326.5,25L326.5,25z M325,24.8c-0.1-1.1,0.3-2.2,0.9-3.1c1.1-1.4,3.1-1.6,4.4-0.5c0.1,0.1,0.2,0.2,0.4,0.3
	v-4.4h1.4v12h-1.3l-0.1-0.9c-0.6,0.7-1.5,1.1-2.4,1.1c-0.9,0-1.8-0.4-2.4-1.2c-0.7-0.9-1-2-0.9-3.1V24.8z M337.9,29.3
	c-1.1,0-2.1-0.4-2.8-1.1c-0.7-0.8-1.1-1.9-1.1-3v-0.3c0-0.8,0.2-1.5,0.5-2.2c0.3-0.6,0.8-1.2,1.3-1.5c0.6-0.4,1.2-0.6,1.9-0.6
	c1-0.1,1.9,0.3,2.6,1.1c0.7,0.9,1,2,0.9,3.1v0.6h-5.7c0,0.7,0.2,1.5,0.7,2c0.5,0.5,1.1,0.8,1.8,0.8c0.5,0,0.9-0.1,1.3-0.3
	c0.4-0.2,0.7-0.5,0.9-0.8l0.9,0.7C340.4,28.7,339.2,29.4,337.9,29.3z M337.7,21.7c-0.6,0-1.1,0.2-1.5,0.6c-0.4,0.5-0.7,1.1-0.7,1.8
	h4.2V24c0-0.6-0.2-1.2-0.6-1.7C338.8,21.9,338.3,21.7,337.7,21.7L337.7,21.7z"/>
<path id="Trazado_119384" class="st3" d="M141.3,117.4c-0.1,1.1-0.6,2.1-1.3,2.8c-0.8,0.7-1.9,1-3,1c-1.2,0-2.4-0.5-3.2-1.4
	c-0.9-1.1-1.3-2.5-1.2-3.9v-1.1c0-1,0.2-1.9,0.6-2.8c0.3-0.8,0.9-1.4,1.6-1.8c0.7-0.4,1.6-0.7,2.4-0.6c1.1-0.1,2.1,0.3,2.9,1
	c0.8,0.7,1.2,1.7,1.3,2.8h-1.5c-0.1-0.7-0.4-1.4-0.8-2c-0.5-0.4-1.2-0.6-1.8-0.6c-0.9,0-1.7,0.4-2.3,1.1c-0.6,0.9-0.9,2-0.8,3v1.1
	c-0.1,1,0.2,2.1,0.8,2.9c0.5,0.7,1.3,1.1,2.2,1.1c0.7,0,1.4-0.2,1.9-0.6c0.5-0.5,0.8-1.2,0.9-2L141.3,117.4z M149.7,118h-4.8l-1.1,3
	h-1.5l4.3-11.4h1.3l4.4,11.4h-1.5L149.7,118z M145.4,116.8h3.9l-1.9-5.3L145.4,116.8z M158,116.4h-2.7v4.6h-1.5v-11.4h3.8
	c1.1-0.1,2.1,0.2,3,0.9c0.7,0.6,1.1,1.6,1,2.5c0,0.7-0.2,1.3-0.6,1.9c-0.4,0.5-1,1-1.6,1.2l2.7,4.8v0.1h-1.6L158,116.4z
	 M155.3,115.2h2.3c0.6,0,1.3-0.2,1.8-0.6c0.4-0.4,0.7-1,0.7-1.6c0-0.6-0.2-1.2-0.6-1.6c-0.5-0.4-1.2-0.6-1.8-0.6h-2.3L155.3,115.2z"
	/>
<path id="Trazado_119383" class="st3" d="M46.5,231.4c-0.1,1.1-0.5,2.1-1.3,2.8c-0.8,0.7-1.9,1-3,1c-1.2,0-2.4-0.5-3.2-1.4
	c-0.9-1.1-1.3-2.5-1.2-3.9v-1.1c0-1,0.2-1.9,0.6-2.8c0.3-0.8,0.9-1.4,1.6-1.8c0.7-0.4,1.6-0.7,2.4-0.6c1.1-0.1,2.1,0.3,2.9,1
	c0.8,0.7,1.2,1.7,1.3,2.8H45c-0.1-0.7-0.4-1.4-0.8-2c-0.5-0.4-1.2-0.6-1.8-0.6c-0.9,0-1.7,0.4-2.3,1.1c-0.6,0.9-0.9,2-0.8,3v1.1
	c-0.1,1,0.2,2.1,0.8,2.9c0.5,0.7,1.3,1.1,2.2,1.1c0.7,0,1.4-0.2,1.9-0.6c0.5-0.5,0.8-1.2,0.9-2L46.5,231.4z M48,230.7
	c0-0.8,0.2-1.5,0.5-2.2c0.3-0.6,0.8-1.2,1.4-1.5c0.6-0.4,1.3-0.6,2-0.5c1.1,0,2.1,0.4,2.8,1.2c0.7,0.9,1.1,2,1.1,3.2v0.1
	c0,0.8-0.1,1.5-0.5,2.2c-0.3,0.6-0.8,1.2-1.4,1.5c-0.6,0.4-1.3,0.6-2,0.5c-1.1,0-2.1-0.4-2.8-1.2c-0.7-0.9-1.1-2-1.1-3.2L48,230.7z
	 M49.4,230.9c0,0.8,0.2,1.6,0.7,2.3c0.7,1,2.1,1.1,3.1,0.4c0.1-0.1,0.3-0.3,0.4-0.4c0.5-0.7,0.7-1.6,0.6-2.4c0-0.8-0.2-1.6-0.7-2.3
	c-0.4-0.6-1.1-0.9-1.8-0.9c-0.7,0-1.3,0.3-1.7,0.9C49.6,229.1,49.4,230,49.4,230.9L49.4,230.9z M58.8,226.5l0,1.1
	c0.6-0.8,1.5-1.2,2.5-1.2c1.8,0,2.7,1,2.7,3v5.6h-1.4v-5.6c0-0.5-0.1-1-0.4-1.4c-0.3-0.3-0.8-0.5-1.3-0.4c-0.4,0-0.9,0.1-1.2,0.4
	c-0.4,0.3-0.6,0.6-0.8,1v6h-1.4v-8.5L58.8,226.5z M71.2,232.8c0-0.4-0.2-0.7-0.4-0.9c-0.5-0.3-1-0.5-1.5-0.6
	c-0.6-0.1-1.2-0.3-1.7-0.6c-0.4-0.2-0.7-0.4-1-0.8c-0.2-0.3-0.3-0.7-0.3-1.1c0-0.7,0.3-1.3,0.9-1.8c0.6-0.5,1.4-0.8,2.2-0.7
	c0.8,0,1.7,0.2,2.3,0.7c0.6,0.5,0.9,1.2,0.9,1.9h-1.5c0-0.4-0.2-0.8-0.5-1c-0.4-0.3-0.8-0.4-1.3-0.4c-0.4,0-0.9,0.1-1.2,0.3
	c-0.3,0.2-0.5,0.5-0.4,0.9c0,0.3,0.1,0.6,0.4,0.8c0.5,0.2,1,0.4,1.5,0.5c0.6,0.1,1.2,0.3,1.8,0.6c0.4,0.2,0.7,0.5,1,0.8
	c0.2,0.3,0.3,0.7,0.3,1.2c0,0.7-0.3,1.4-0.9,1.8c-0.7,0.5-1.5,0.7-2.4,0.7c-0.6,0-1.2-0.1-1.8-0.4c-0.5-0.2-0.9-0.6-1.2-1
	c-0.3-0.4-0.4-0.9-0.4-1.4h1.4c0,0.5,0.2,0.9,0.6,1.2c0.4,0.3,0.9,0.5,1.4,0.4c0.5,0,0.9-0.1,1.3-0.3
	C71,233.5,71.2,233.1,71.2,232.8L71.2,232.8z M78.1,235.2c-1.1,0-2.1-0.4-2.8-1.1c-0.7-0.8-1.1-1.9-1.1-3v-0.3
	c0-0.8,0.2-1.5,0.5-2.2c0.3-0.6,0.8-1.2,1.3-1.5c0.6-0.4,1.2-0.6,1.9-0.6c1-0.1,1.9,0.3,2.6,1.1c0.7,0.9,1,2,0.9,3.1v0.6h-5.7
	c0,0.7,0.2,1.5,0.7,2c0.5,0.5,1.1,0.8,1.8,0.8c0.5,0,0.9-0.1,1.3-0.3c0.4-0.2,0.7-0.5,0.9-0.8l0.9,0.7
	C80.6,234.6,79.3,235.2,78.1,235.2L78.1,235.2z M77.9,227.6c-0.6,0-1.1,0.2-1.5,0.6c-0.4,0.5-0.7,1.1-0.7,1.8h4.2v-0.1
	c0-0.6-0.2-1.2-0.6-1.7C79,227.8,78.4,227.6,77.9,227.6L77.9,227.6z M84.5,226.5v9.4c0,1.6-0.7,2.4-2.2,2.4c-0.3,0-0.6,0-0.9-0.1
	v-1.1c0.2,0,0.4,0.1,0.7,0.1c0.3,0,0.5-0.1,0.7-0.3c0.2-0.3,0.3-0.6,0.3-0.9v-9.5L84.5,226.5z M82.9,224.3c0-0.2,0.1-0.4,0.2-0.6
	c0.2-0.2,0.4-0.3,0.6-0.2c0.2,0,0.5,0.1,0.6,0.2c0.1,0.2,0.2,0.4,0.2,0.6c0,0.2-0.1,0.4-0.2,0.6c-0.2,0.2-0.4,0.3-0.6,0.2
	c-0.2,0-0.5-0.1-0.6-0.2C83,224.7,82.9,224.5,82.9,224.3z M86.5,230.7c0-0.8,0.2-1.5,0.5-2.2c0.3-0.6,0.8-1.2,1.4-1.5
	c0.6-0.4,1.3-0.6,2-0.5c1.1,0,2.1,0.4,2.8,1.2c0.7,0.9,1.1,2,1.1,3.2v0.1c0,0.8-0.1,1.5-0.5,2.2c-0.3,0.6-0.8,1.2-1.4,1.5
	c-0.6,0.4-1.3,0.6-2,0.5c-1.1,0-2.1-0.4-2.8-1.2c-0.7-0.9-1.1-2-1.1-3.2V230.7z M87.9,230.9c0,0.8,0.2,1.6,0.7,2.3
	c0.7,1,2.1,1.1,3.1,0.4c0.1-0.1,0.3-0.3,0.4-0.4c0.5-0.7,0.7-1.6,0.6-2.4c0-0.8-0.2-1.6-0.7-2.3c-0.4-0.6-1.1-0.9-1.8-0.9
	c-0.7,0-1.3,0.3-1.7,0.9C88.1,229.1,87.9,230,87.9,230.9L87.9,230.9z M102.1,223.6l3.7,9.3l3.7-9.3h1.9V235H110v-4.4l0.1-4.8
	l-3.7,9.2h-1.1l-3.7-9.2l0.1,4.8v4.4h-1.5v-11.4H102.1z M119.1,234.2c-0.6,0.7-1.5,1.1-2.5,1c-0.8,0.1-1.5-0.2-2.1-0.8
	c-0.5-0.7-0.8-1.5-0.7-2.3v-5.5h1.4v5.5c0,1.3,0.5,1.9,1.6,1.9c0.9,0.1,1.8-0.4,2.2-1.2v-6.1h1.4v8.5h-1.4L119.1,234.2z
	 M124.1,226.5l0,1.1c0.6-0.8,1.5-1.2,2.5-1.2c1.8,0,2.7,1,2.7,3v5.6h-1.4v-5.6c0-0.5-0.1-1-0.4-1.4c-0.3-0.3-0.8-0.5-1.3-0.4
	c-0.4,0-0.9,0.1-1.2,0.4c-0.4,0.3-0.6,0.6-0.8,1v6h-1.4v-8.5H124.1z M133.1,235h-1.4v-8.5h1.4V235z M131.6,224.3
	c0-0.2,0.1-0.4,0.2-0.6c0.2-0.2,0.4-0.3,0.6-0.2c0.2,0,0.5,0.1,0.6,0.2c0.1,0.2,0.2,0.4,0.2,0.6c0,0.2-0.1,0.4-0.2,0.6
	c-0.2,0.2-0.4,0.3-0.6,0.2c-0.2,0-0.5-0.1-0.6-0.2C131.6,224.7,131.6,224.5,131.6,224.3z M138.8,234c0.5,0,1-0.2,1.4-0.5
	c0.4-0.3,0.6-0.7,0.6-1.2h1.4c0,0.5-0.2,1-0.5,1.4c-0.3,0.4-0.7,0.8-1.2,1c-0.5,0.3-1.1,0.4-1.6,0.4c-1,0-2.1-0.4-2.7-1.2
	c-0.7-0.9-1.1-2-1-3.2v-0.2c0-0.8,0.1-1.5,0.5-2.2c0.3-0.6,0.7-1.1,1.3-1.5c0.6-0.4,1.3-0.5,2-0.5c0.9,0,1.7,0.3,2.4,0.9
	c0.6,0.6,1,1.4,1,2.2h-1.4c0-0.5-0.2-1-0.6-1.3c-0.4-0.4-0.9-0.5-1.4-0.5c-0.7,0-1.3,0.3-1.7,0.8c-0.4,0.7-0.7,1.5-0.6,2.3v0.3
	c-0.1,0.8,0.2,1.6,0.6,2.2C137.5,233.7,138.2,234,138.8,234L138.8,234z M145.4,235h-1.4v-8.5h1.4V235z M143.8,224.3
	c0-0.2,0.1-0.4,0.2-0.6c0.2-0.2,0.4-0.3,0.6-0.2c0.2,0,0.5,0.1,0.6,0.2c0.1,0.2,0.2,0.4,0.2,0.6c0,0.2-0.1,0.4-0.2,0.6
	c-0.2,0.2-0.4,0.3-0.6,0.2c-0.2,0-0.5-0.1-0.6-0.2C143.9,224.7,143.8,224.5,143.8,224.3z M154.8,230.9c0.1,1.1-0.3,2.2-0.9,3.1
	c-0.6,0.8-1.4,1.2-2.4,1.2c-0.9,0-1.8-0.3-2.4-1v4.1h-1.4v-11.7h1.3l0.1,0.9c0.6-0.7,1.5-1.1,2.5-1.1c0.9,0,1.8,0.4,2.4,1.1
	c0.6,0.9,1,2.1,0.9,3.2L154.8,230.9z M153.4,230.7c0-0.8-0.2-1.6-0.6-2.3c-0.4-0.5-1-0.9-1.7-0.8c-0.8,0-1.6,0.4-2,1.2v4
	c0.4,0.7,1.2,1.2,2,1.2c0.7,0,1.3-0.3,1.7-0.8C153.2,232.4,153.5,231.6,153.4,230.7L153.4,230.7z M161.9,235
	c-0.1-0.3-0.2-0.6-0.2-0.9c-0.6,0.7-1.5,1.1-2.4,1c-0.7,0-1.5-0.2-2.1-0.7c-0.5-0.4-0.8-1.1-0.8-1.8c0-0.8,0.3-1.6,1-2.1
	c0.8-0.5,1.8-0.8,2.8-0.7h1.4v-0.7c0-0.4-0.1-0.9-0.5-1.2c-0.4-0.3-0.8-0.5-1.3-0.4c-0.5,0-0.9,0.1-1.3,0.4
	c-0.3,0.2-0.5,0.6-0.5,0.9h-1.5c0-0.4,0.2-0.9,0.4-1.2c0.3-0.4,0.7-0.7,1.2-0.9c0.5-0.2,1.1-0.4,1.7-0.3c0.8,0,1.6,0.2,2.3,0.7
	c0.6,0.5,0.9,1.2,0.9,2v3.9c0,0.6,0.1,1.3,0.3,1.9v0.1L161.9,235z M159.5,233.9c0.5,0,0.9-0.1,1.3-0.4c0.4-0.2,0.7-0.5,0.9-0.9v-1.7
	h-1.1c-1.8,0-2.7,0.5-2.7,1.6c0,0.4,0.1,0.8,0.5,1.1C158.7,233.8,159.1,233.9,159.5,233.9L159.5,233.9z M166.9,235h-1.4v-12h1.4
	L166.9,235z M180.4,230.9c0.1,1.1-0.3,2.2-0.9,3.1c-0.6,0.8-1.4,1.2-2.4,1.2c-0.9,0-1.8-0.3-2.4-1v4.1h-1.4v-11.7h1.3l0.1,0.9
	c0.6-0.7,1.5-1.1,2.5-1.1c0.9,0,1.8,0.4,2.4,1.1c0.6,0.9,1,2.1,0.9,3.2L180.4,230.9z M178.9,230.7c0-0.8-0.2-1.6-0.6-2.3
	c-0.4-0.5-1-0.9-1.7-0.8c-0.8,0-1.6,0.4-2,1.2v4c0.4,0.7,1.2,1.2,2,1.2c0.7,0,1.3-0.3,1.7-0.8C178.8,232.4,179,231.6,178.9,230.7
	L178.9,230.7z M187.4,235c-0.1-0.3-0.2-0.6-0.2-0.9c-0.6,0.7-1.5,1.1-2.4,1c-0.7,0-1.5-0.2-2.1-0.7c-0.5-0.4-0.8-1.1-0.8-1.8
	c0-0.8,0.3-1.6,1-2.1c0.8-0.5,1.8-0.8,2.8-0.7h1.4v-0.7c0-0.4-0.1-0.9-0.5-1.2c-0.4-0.3-0.8-0.5-1.3-0.4c-0.5,0-0.9,0.1-1.3,0.4
	c-0.3,0.2-0.5,0.6-0.5,0.9h-1.5c0-0.4,0.2-0.9,0.4-1.2c0.3-0.4,0.7-0.7,1.2-0.9c0.5-0.2,1.1-0.4,1.7-0.3c0.8,0,1.6,0.2,2.3,0.7
	c0.6,0.5,0.9,1.2,0.9,2v3.9c0,0.6,0.1,1.3,0.3,1.9v0.1L187.4,235z M185,233.9c0.5,0,0.9-0.1,1.3-0.4c0.4-0.2,0.7-0.5,0.9-0.9v-1.7
	h-1.1c-1.8,0-2.7,0.5-2.7,1.6c0,0.4,0.1,0.8,0.5,1.1C184.2,233.8,184.6,233.9,185,233.9L185,233.9z M195,227.8
	c-0.2,0-0.5-0.1-0.7-0.1c-0.8-0.1-1.6,0.4-1.9,1.2v6h-1.4v-8.5h1.4l0,1c0.4-0.7,1.2-1.2,2-1.1c0.2,0,0.4,0,0.6,0.1L195,227.8z
	 M201.2,235c-0.1-0.3-0.2-0.6-0.2-0.9c-0.6,0.7-1.5,1.1-2.4,1c-0.7,0-1.5-0.2-2.1-0.7c-0.5-0.4-0.8-1.1-0.8-1.8c0-0.8,0.3-1.6,1-2.1
	c0.8-0.5,1.8-0.8,2.8-0.7h1.4v-0.7c0-0.4-0.1-0.9-0.5-1.2c-0.4-0.3-0.8-0.5-1.3-0.4c-0.5,0-0.9,0.1-1.3,0.4
	c-0.3,0.2-0.5,0.6-0.5,0.9h-1.5c0-0.4,0.2-0.9,0.4-1.2c0.3-0.4,0.7-0.7,1.2-0.9c0.5-0.2,1.1-0.4,1.7-0.3c0.8,0,1.6,0.2,2.3,0.7
	c0.6,0.5,0.9,1.2,0.9,2v3.9c0,0.6,0.1,1.3,0.3,1.9v0.1H201.2z M198.8,233.9c0.5,0,0.9-0.1,1.3-0.4c0.4-0.2,0.7-0.5,0.9-0.9v-1.7
	h-1.1c-1.8,0-2.7,0.5-2.7,1.6c0,0.4,0.1,0.8,0.5,1.1C198,233.8,198.4,233.9,198.8,233.9L198.8,233.9z M210.2,235h-1.4v-12h1.4V235z
	 M217.8,235c-0.1-0.3-0.2-0.6-0.2-0.9c-0.6,0.7-1.5,1.1-2.4,1c-0.7,0-1.5-0.2-2.1-0.7c-0.5-0.4-0.8-1.1-0.8-1.8c0-0.8,0.3-1.6,1-2.1
	c0.8-0.5,1.8-0.8,2.8-0.7h1.4v-0.7c0-0.4-0.1-0.9-0.5-1.2c-0.4-0.3-0.8-0.5-1.3-0.4c-0.5,0-0.9,0.1-1.3,0.4
	c-0.3,0.2-0.5,0.6-0.5,0.9h-1.5c0-0.4,0.2-0.9,0.4-1.2c0.3-0.4,0.7-0.7,1.2-0.9c0.5-0.2,1.1-0.4,1.7-0.3c0.8,0,1.6,0.2,2.3,0.7
	c0.6,0.5,0.9,1.2,0.9,2v3.9c0,0.6,0.1,1.3,0.3,1.9v0.1H217.8z M215.4,233.9c0.5,0,0.9-0.1,1.3-0.4c0.4-0.2,0.7-0.5,0.9-0.9v-1.7
	h-1.1c-1.8,0-2.7,0.5-2.7,1.6c0,0.4,0.1,0.8,0.5,1.1C214.5,233.8,214.9,233.9,215.4,233.9L215.4,233.9z M71.9,257.5
	c-0.4,0.6-1,1-1.6,1.2c-0.8,0.3-1.6,0.4-2.4,0.4c-0.9,0-1.7-0.2-2.5-0.7c-0.7-0.4-1.3-1.1-1.7-1.9c-0.4-0.9-0.6-1.8-0.6-2.8v-1
	c-0.1-1.4,0.3-2.8,1.2-4c0.8-1,2.1-1.5,3.4-1.4c1-0.1,2.1,0.3,2.9,0.9c0.8,0.7,1.2,1.6,1.3,2.6h-1.5c-0.1-1.4-1.3-2.4-2.7-2.3
	c0,0,0,0,0,0c-0.9-0.1-1.8,0.3-2.3,1.1c-0.6,0.9-0.9,2-0.8,3.1v0.9c-0.1,1.1,0.3,2.2,0.9,3c0.6,0.7,1.4,1.2,2.4,1.1
	c0.5,0,1-0.1,1.5-0.2c0.4-0.1,0.8-0.3,1-0.6v-2.6h-2.6v-1.2h4.1V257.5z M77.7,259.2c-1.1,0-2.1-0.4-2.8-1.1c-0.7-0.8-1.1-1.9-1.1-3
	v-0.3c0-0.8,0.2-1.5,0.5-2.2c0.3-0.6,0.8-1.2,1.3-1.5c0.6-0.4,1.2-0.6,1.9-0.6c1-0.1,1.9,0.3,2.6,1.1c0.7,0.9,1,2,0.9,3.1v0.6h-5.7
	c0,0.7,0.2,1.5,0.7,2c0.5,0.5,1.1,0.8,1.8,0.8c0.5,0,0.9-0.1,1.3-0.3c0.4-0.2,0.7-0.5,0.9-0.8l0.9,0.7
	C80.2,258.6,79,259.2,77.7,259.2L77.7,259.2z M77.5,251.6c-0.6,0-1.1,0.2-1.5,0.6c-0.4,0.5-0.7,1.1-0.7,1.8h4.2v-0.1
	c0-0.6-0.2-1.2-0.6-1.7C78.6,251.8,78.1,251.6,77.5,251.6L77.5,251.6z M87.6,256.8c0-0.4-0.2-0.7-0.4-0.9c-0.5-0.3-1-0.5-1.5-0.6
	c-0.6-0.1-1.2-0.3-1.7-0.6c-0.4-0.2-0.7-0.4-1-0.8c-0.2-0.3-0.3-0.7-0.3-1.1c0-0.7,0.3-1.3,0.9-1.8c0.6-0.5,1.4-0.8,2.2-0.7
	c0.8,0,1.7,0.2,2.3,0.7c0.6,0.5,0.9,1.2,0.9,1.9h-1.5c0-0.4-0.2-0.8-0.5-1c-0.4-0.3-0.8-0.4-1.3-0.4c-0.4,0-0.9,0.1-1.2,0.3
	c-0.3,0.2-0.5,0.5-0.4,0.9c0,0.3,0.1,0.6,0.4,0.8c0.5,0.2,1,0.4,1.5,0.5c0.6,0.1,1.2,0.3,1.8,0.6c0.4,0.2,0.7,0.5,1,0.8
	c0.2,0.3,0.3,0.7,0.3,1.2c0,0.7-0.3,1.4-0.9,1.8c-0.7,0.5-1.5,0.7-2.4,0.7c-0.6,0-1.2-0.1-1.8-0.4c-0.5-0.2-0.9-0.6-1.2-1
	c-0.3-0.4-0.4-0.9-0.4-1.4h1.4c0,0.5,0.2,0.9,0.6,1.2c0.4,0.3,0.9,0.5,1.4,0.4c0.5,0,0.9-0.1,1.3-0.3
	C87.4,257.5,87.6,257.1,87.6,256.8L87.6,256.8z M92.9,248.5v2h1.6v1.1h-1.6v5.2c0,0.3,0.1,0.5,0.2,0.8c0.2,0.2,0.5,0.3,0.7,0.3
	c0.2,0,0.5,0,0.7-0.1v1.2c-0.4,0.1-0.7,0.2-1.1,0.2c-0.6,0-1.1-0.2-1.5-0.6c-0.4-0.5-0.5-1.1-0.5-1.7v-5.2h-1.5v-1.1h1.5v-2H92.9z
	 M97.7,259h-1.4v-8.5h1.4V259z M96.2,248.3c0-0.2,0.1-0.4,0.2-0.6c0.2-0.2,0.4-0.3,0.6-0.2c0.2,0,0.5,0.1,0.6,0.2
	c0.1,0.2,0.2,0.4,0.2,0.6c0,0.2-0.1,0.4-0.2,0.6c-0.2,0.2-0.4,0.3-0.6,0.2c-0.2,0-0.5-0.1-0.6-0.2C96.2,248.7,96.2,248.5,96.2,248.3
	z M99.7,254.7c0-0.8,0.2-1.5,0.5-2.2c0.3-0.6,0.8-1.2,1.4-1.5c0.6-0.4,1.3-0.6,2-0.5c1.1,0,2.1,0.4,2.8,1.2c0.7,0.9,1.1,2,1.1,3.2
	v0.1c0,0.8-0.1,1.5-0.5,2.2c-0.3,0.6-0.8,1.2-1.4,1.5c-0.6,0.4-1.3,0.6-2,0.5c-1.1,0-2.1-0.4-2.8-1.2c-0.7-0.9-1.1-2-1.1-3.2V254.7z
	 M101.1,254.9c0,0.8,0.2,1.6,0.7,2.3c0.7,1,2.1,1.1,3.1,0.4c0.1-0.1,0.3-0.3,0.4-0.4c0.5-0.7,0.7-1.6,0.6-2.4c0-0.8-0.2-1.6-0.7-2.3
	c-0.4-0.6-1.1-0.9-1.8-0.9c-0.7,0-1.3,0.3-1.7,0.9C101.3,253.2,101.1,254,101.1,254.9L101.1,254.9z M104.2,247h1.8l-2.1,2.3h-1.2
	L104.2,247z M110.5,250.6l0,1.1c0.6-0.8,1.5-1.2,2.5-1.2c1.8,0,2.7,1,2.7,3v5.6h-1.4v-5.6c0-0.5-0.1-1-0.4-1.4
	c-0.3-0.3-0.8-0.5-1.3-0.4c-0.4,0-0.9,0.1-1.2,0.4c-0.4,0.3-0.6,0.6-0.8,1v6h-1.4v-8.5L110.5,250.6z M123.1,254.9
	c0,0.8,0.2,1.6,0.6,2.2c0.4,0.5,1,0.8,1.6,0.8c0.9,0,1.7-0.5,2-1.2v-3.9c-0.4-0.8-1.1-1.2-2-1.2c-0.7,0-1.3,0.3-1.7,0.8
	C123.2,253.2,123,254,123.1,254.9L123.1,254.9z M121.6,254.7c-0.1-1.1,0.3-2.2,0.9-3.1c1.1-1.4,3.1-1.6,4.4-0.5
	c0.1,0.1,0.2,0.2,0.4,0.3V247h1.4v12h-1.3l-0.1-0.9c-0.6,0.7-1.5,1.1-2.4,1.1c-0.9,0-1.8-0.4-2.4-1.2c-0.7-0.9-1-2-0.9-3.1
	L121.6,254.7z M134.5,259.2c-1.1,0-2.1-0.4-2.8-1.1c-0.7-0.8-1.1-1.9-1.1-3v-0.3c0-0.8,0.2-1.5,0.5-2.2c0.3-0.6,0.8-1.2,1.3-1.5
	c0.6-0.4,1.2-0.6,1.9-0.6c1-0.1,1.9,0.3,2.6,1.1c0.7,0.9,1,2,0.9,3.1v0.6h-5.7c0,0.7,0.2,1.5,0.7,2c0.5,0.5,1.1,0.8,1.8,0.8
	c0.5,0,0.9-0.1,1.3-0.3c0.4-0.2,0.7-0.5,0.9-0.8l0.9,0.7C137,258.6,135.8,259.2,134.5,259.2z M134.3,251.6c-0.6,0-1.1,0.2-1.5,0.6
	c-0.4,0.5-0.7,1.1-0.7,1.8h4.2v-0.1c0-0.6-0.2-1.2-0.6-1.7C135.4,251.8,134.9,251.6,134.3,251.6L134.3,251.6z M141,259h-1.4v-12h1.4
	V259z M151.7,254.4H149v4.6h-1.5v-11.4h3.8c1.1-0.1,2.1,0.2,3,0.9c0.7,0.6,1.1,1.6,1,2.5c0,0.7-0.2,1.3-0.6,1.9
	c-0.4,0.5-1,1-1.6,1.2l2.7,4.8v0.1h-1.6L151.7,254.4z M149,253.2h2.3c0.6,0,1.3-0.2,1.8-0.6c0.4-0.4,0.7-1,0.7-1.5
	c0-0.6-0.2-1.2-0.6-1.6c-0.5-0.4-1.2-0.6-1.8-0.6H149L149,253.2z M158.7,259h-1.4v-8.5h1.4V259z M157.2,248.3c0-0.2,0.1-0.4,0.2-0.6
	c0.2-0.2,0.4-0.3,0.6-0.2c0.2,0,0.5,0.1,0.6,0.2c0.1,0.2,0.2,0.4,0.2,0.6c0,0.2-0.1,0.4-0.2,0.6c-0.2,0.2-0.4,0.3-0.6,0.2
	c-0.2,0-0.5-0.1-0.6-0.2C157.2,248.7,157.2,248.5,157.2,248.3z M164.6,259.2c-1.1,0-2.1-0.4-2.8-1.1c-0.7-0.8-1.1-1.9-1.1-3v-0.3
	c0-0.8,0.2-1.5,0.5-2.2c0.3-0.6,0.8-1.2,1.3-1.5c0.6-0.4,1.2-0.6,1.9-0.6c1-0.1,1.9,0.3,2.6,1.1c0.7,0.9,1,2,0.9,3.1v0.6h-5.7
	c0,0.7,0.2,1.5,0.7,2c0.5,0.5,1.1,0.8,1.8,0.8c0.5,0,0.9-0.1,1.3-0.3c0.4-0.2,0.7-0.5,0.9-0.8l0.9,0.7
	C167,258.6,165.8,259.2,164.6,259.2L164.6,259.2z M164.4,251.6c-0.6,0-1.1,0.2-1.5,0.6c-0.4,0.5-0.7,1.1-0.7,1.8h4.2v-0.1
	c0-0.6-0.2-1.2-0.6-1.7C165.4,251.8,164.9,251.6,164.4,251.6L164.4,251.6z M174.4,256.8c0-0.4-0.2-0.7-0.4-0.9
	c-0.5-0.3-1-0.5-1.5-0.6c-0.6-0.1-1.2-0.3-1.7-0.6c-0.4-0.2-0.7-0.4-1-0.8c-0.2-0.3-0.3-0.7-0.3-1.1c0-0.7,0.3-1.3,0.9-1.8
	c0.6-0.5,1.4-0.8,2.2-0.7c0.8,0,1.7,0.2,2.3,0.7c0.6,0.5,0.9,1.2,0.9,1.9h-1.5c0-0.4-0.2-0.8-0.5-1c-0.4-0.3-0.8-0.4-1.3-0.4
	c-0.4,0-0.9,0.1-1.2,0.3c-0.3,0.2-0.5,0.5-0.4,0.9c0,0.3,0.1,0.6,0.4,0.8c0.5,0.2,1,0.4,1.5,0.5c0.6,0.1,1.2,0.3,1.8,0.6
	c0.4,0.2,0.7,0.5,1,0.8c0.2,0.3,0.3,0.7,0.3,1.2c0,0.7-0.3,1.4-0.9,1.8c-0.7,0.5-1.5,0.7-2.4,0.7c-0.6,0-1.2-0.1-1.8-0.4
	c-0.5-0.2-0.9-0.6-1.2-1c-0.3-0.4-0.4-0.9-0.4-1.4h1.4c0,0.5,0.2,0.9,0.6,1.2c0.4,0.3,0.9,0.5,1.4,0.4c0.5,0,0.9-0.1,1.3-0.3
	C174.3,257.5,174.4,257.1,174.4,256.8L174.4,256.8z M177.4,254.7c-0.1-1.1,0.3-2.2,0.9-3.1c1.1-1.4,3.1-1.6,4.4-0.5
	c0.1,0.1,0.3,0.2,0.4,0.4l0.1-0.9h1.3v8.3c0.1,1-0.3,1.9-1,2.6c-0.7,0.7-1.7,1-2.6,0.9c-0.6,0-1.2-0.1-1.8-0.4
	c-0.5-0.2-1-0.6-1.3-1.1l0.8-0.9c0.5,0.7,1.4,1.1,2.3,1.1c0.6,0,1.2-0.2,1.6-0.6c0.4-0.5,0.6-1.1,0.6-1.7v-0.7c-0.6,0.7-1.5,1-2.4,1
	c-0.9,0-1.8-0.4-2.4-1.2C177.7,257,177.4,255.9,177.4,254.7L177.4,254.7z M178.9,254.9c0,0.8,0.2,1.6,0.6,2.2c0.4,0.5,1,0.8,1.6,0.8
	c0.9,0,1.7-0.5,2-1.2v-3.9c-0.4-0.8-1.1-1.2-2-1.2c-0.7,0-1.3,0.3-1.6,0.8C179,253.2,178.8,254,178.9,254.9L178.9,254.9z
	 M186.4,254.7c0-0.8,0.2-1.5,0.5-2.2c0.3-0.6,0.8-1.2,1.4-1.5c0.6-0.4,1.3-0.6,2-0.5c1.1,0,2.1,0.4,2.8,1.2c0.7,0.9,1.1,2,1.1,3.2
	v0.1c0,0.8-0.1,1.5-0.5,2.2c-0.3,0.6-0.8,1.2-1.4,1.5c-0.6,0.4-1.3,0.6-2,0.5c-1.1,0-2.1-0.4-2.8-1.2c-0.7-0.9-1.1-2-1.1-3.2
	L186.4,254.7z M187.8,254.9c0,0.8,0.2,1.6,0.7,2.3c0.7,1,2.1,1.1,3.1,0.4c0.1-0.1,0.3-0.3,0.4-0.4c0.5-0.7,0.7-1.6,0.6-2.4
	c0-0.8-0.2-1.6-0.7-2.3c-0.4-0.6-1.1-0.9-1.8-0.9c-0.7,0-1.3,0.3-1.7,0.9C188,253.1,187.8,254,187.8,254.9L187.8,254.9z"/>
<path id="Trazado_119380" class="st3" d="M415.8,305.6v7.7c0,1-0.3,1.9-1,2.6c-0.7,0.7-1.7,1.1-2.7,1.1l-0.4,0c-1.1,0.1-2.1-0.3-3-1
	c-0.8-0.7-1.2-1.7-1.1-2.8v-7.8h1.5v7.7c0,0.7,0.2,1.4,0.7,1.9c0.5,0.5,1.2,0.7,1.9,0.7c0.7,0,1.4-0.2,1.9-0.7
	c0.5-0.5,0.7-1.2,0.7-1.9v-7.7H415.8z M419.3,308.5l0,1.1c0.6-0.8,1.5-1.2,2.5-1.2c1.8,0,2.7,1,2.7,3v5.6h-1.4v-5.6
	c0-0.5-0.1-1-0.4-1.4c-0.3-0.3-0.8-0.5-1.3-0.4c-0.4,0-0.9,0.1-1.2,0.4c-0.4,0.3-0.6,0.6-0.8,1v6h-1.4v-8.5H419.3z M428.3,317h-1.4
	v-8.5h1.4V317z M426.7,306.3c0-0.2,0.1-0.4,0.2-0.6c0.2-0.2,0.4-0.3,0.6-0.2c0.2,0,0.5,0.1,0.6,0.2c0.1,0.2,0.2,0.4,0.2,0.6
	c0,0.2-0.1,0.4-0.2,0.6c-0.2,0.2-0.4,0.3-0.6,0.2c-0.2,0-0.5-0.1-0.6-0.2C426.8,306.7,426.7,306.5,426.7,306.3z M430.2,312.7
	c-0.1-1.1,0.3-2.2,0.9-3.1c1.1-1.4,3.1-1.6,4.4-0.5c0.1,0.1,0.2,0.2,0.4,0.3V305h1.4v12h-1.3l-0.1-0.9c-0.6,0.7-1.5,1.1-2.4,1.1
	c-0.9,0-1.8-0.4-2.4-1.2c-0.7-0.9-1-2-0.9-3.1V312.7z M431.7,312.9c0,0.8,0.2,1.6,0.6,2.2c0.4,0.5,1,0.8,1.6,0.8
	c0.9,0,1.7-0.4,2-1.2v-3.9c-0.4-0.8-1.1-1.2-2-1.2c-0.7,0-1.3,0.3-1.7,0.8C431.8,311.2,431.6,312,431.7,312.9L431.7,312.9z
	 M444.8,317c-0.1-0.3-0.2-0.6-0.2-0.9c-0.6,0.7-1.5,1.1-2.4,1c-0.7,0-1.5-0.2-2.1-0.7c-0.5-0.4-0.8-1.1-0.8-1.8c0-0.8,0.3-1.6,1-2.1
	c0.8-0.5,1.8-0.8,2.8-0.7h1.4v-0.7c0-0.4-0.1-0.9-0.5-1.2c-0.4-0.3-0.8-0.5-1.3-0.4c-0.5,0-0.9,0.1-1.3,0.4
	c-0.3,0.2-0.5,0.6-0.5,0.9h-1.5c0-0.4,0.2-0.9,0.4-1.2c0.3-0.4,0.7-0.7,1.2-0.9c0.5-0.2,1.1-0.4,1.7-0.3c0.8,0,1.6,0.2,2.3,0.7
	c0.6,0.5,0.9,1.2,0.9,2v3.9c0,0.6,0.1,1.3,0.3,1.9v0.1H444.8z M442.4,315.9c0.5,0,0.9-0.1,1.3-0.4c0.4-0.2,0.7-0.5,0.9-0.9v-1.7
	h-1.1c-1.8,0-2.7,0.5-2.7,1.6c0,0.4,0.1,0.8,0.5,1.1C441.6,315.8,442,315.9,442.4,315.9L442.4,315.9z M448,312.7
	c-0.1-1.1,0.3-2.2,0.9-3.1c1.1-1.4,3.1-1.6,4.4-0.5c0.1,0.1,0.2,0.2,0.4,0.3V305h1.4v12h-1.3l-0.1-0.9c-0.6,0.7-1.5,1.1-2.4,1.1
	c-0.9,0-1.8-0.4-2.4-1.2c-0.7-0.9-1-2-0.9-3.1L448,312.7z M449.4,312.9c0,0.8,0.2,1.6,0.6,2.2c0.4,0.5,1,0.8,1.6,0.8
	c0.9,0,1.7-0.4,2-1.2v-3.9c-0.4-0.8-1.1-1.2-2-1.2c-0.7,0-1.3,0.3-1.7,0.8C449.6,311.2,449.4,312,449.4,312.9L449.4,312.9z
	 M470.3,317h-1.5l-5.7-8.8v8.8h-1.5v-11.4h1.5l5.7,8.8v-8.8h1.5V317z M477.9,317c-0.1-0.3-0.2-0.6-0.2-0.9c-0.6,0.7-1.5,1.1-2.4,1
	c-0.7,0-1.5-0.2-2.1-0.7c-0.5-0.4-0.8-1.1-0.8-1.8c0-0.8,0.3-1.6,1-2.1c0.8-0.5,1.8-0.8,2.8-0.7h1.4v-0.7c0-0.4-0.1-0.9-0.5-1.2
	c-0.4-0.3-0.8-0.5-1.3-0.4c-0.5,0-0.9,0.1-1.3,0.4c-0.3,0.2-0.5,0.6-0.5,0.9h-1.5c0-0.4,0.2-0.9,0.5-1.2c0.3-0.4,0.7-0.7,1.2-0.9
	c0.5-0.2,1.1-0.4,1.7-0.3c0.8,0,1.6,0.2,2.3,0.7c0.6,0.5,0.9,1.2,0.9,2v3.9c0,0.6,0.1,1.3,0.3,1.9v0.1H477.9z M475.5,315.9
	c0.5,0,0.9-0.1,1.3-0.4c0.4-0.2,0.7-0.5,0.9-0.9v-1.7h-1.1c-1.8,0-2.7,0.5-2.7,1.6c0,0.4,0.1,0.8,0.5,1.1
	C474.7,315.8,475.1,315.9,475.5,315.9L475.5,315.9z M484.8,316c0.5,0,1-0.2,1.4-0.5c0.4-0.3,0.6-0.7,0.6-1.2h1.4
	c0,0.5-0.2,1-0.5,1.4c-0.3,0.4-0.7,0.8-1.2,1c-0.5,0.3-1.1,0.4-1.6,0.4c-1,0-2-0.4-2.7-1.2c-0.7-0.9-1.1-2-1-3.2v-0.2
	c0-0.8,0.1-1.5,0.5-2.2c0.3-0.6,0.7-1.1,1.3-1.5c0.6-0.4,1.3-0.5,2-0.5c0.9,0,1.7,0.3,2.4,0.9c0.6,0.6,1,1.4,1,2.2h-1.4
	c0-0.5-0.2-1-0.6-1.3c-0.4-0.3-0.9-0.5-1.4-0.5c-0.7,0-1.3,0.3-1.7,0.8c-0.4,0.7-0.7,1.5-0.6,2.3v0.3c-0.1,0.8,0.2,1.6,0.6,2.2
	C483.5,315.7,484.1,316,484.8,316L484.8,316z M491.4,317h-1.4v-8.5h1.4V317z M489.8,306.3c0-0.2,0.1-0.4,0.2-0.6
	c0.2-0.2,0.4-0.3,0.6-0.2c0.2,0,0.5,0.1,0.6,0.2c0.1,0.2,0.2,0.4,0.2,0.6c0,0.2-0.1,0.4-0.2,0.6c-0.2,0.2-0.4,0.3-0.6,0.2
	c-0.2,0-0.5-0.1-0.6-0.2C489.9,306.7,489.8,306.5,489.8,306.3z M493.3,312.7c0-0.8,0.2-1.5,0.5-2.2c0.3-0.6,0.8-1.2,1.4-1.5
	c0.6-0.4,1.3-0.6,2-0.5c1.1,0,2.1,0.4,2.8,1.2c0.7,0.9,1.1,2,1.1,3.2v0.1c0,0.8-0.1,1.5-0.5,2.2c-0.3,0.6-0.8,1.2-1.4,1.5
	c-0.6,0.4-1.3,0.6-2,0.5c-1.1,0-2.1-0.4-2.8-1.2C493.6,315.1,493.2,314,493.3,312.7L493.3,312.7z M494.8,312.9
	c0,0.8,0.2,1.6,0.7,2.3c0.7,1,2.1,1.1,3.1,0.4c0.1-0.1,0.3-0.3,0.4-0.4c0.5-0.7,0.7-1.6,0.6-2.4c0-0.8-0.2-1.6-0.7-2.3
	c-0.4-0.6-1.1-0.9-1.8-0.9c-0.7,0-1.3,0.3-1.7,0.9C494.9,311.2,494.7,312,494.8,312.9L494.8,312.9z M504.2,308.6l0,1.1
	c0.6-0.8,1.5-1.2,2.5-1.2c1.8,0,2.7,1,2.7,3v5.6H508v-5.6c0-0.5-0.1-1-0.4-1.4c-0.3-0.3-0.8-0.5-1.3-0.4c-0.4,0-0.9,0.1-1.2,0.4
	c-0.4,0.3-0.6,0.6-0.8,1v6h-1.5v-8.5L504.2,308.6z M516.9,317c-0.1-0.3-0.2-0.6-0.2-0.9c-0.6,0.7-1.5,1.1-2.4,1
	c-0.7,0-1.5-0.2-2.1-0.7c-0.5-0.4-0.8-1.1-0.8-1.8c0-0.8,0.3-1.6,1-2.1c0.8-0.5,1.8-0.8,2.8-0.7h1.4v-0.7c0-0.4-0.1-0.9-0.5-1.2
	c-0.4-0.3-0.8-0.5-1.3-0.4c-0.5,0-0.9,0.1-1.3,0.4c-0.3,0.2-0.5,0.6-0.5,0.9h-1.5c0-0.4,0.2-0.9,0.4-1.2c0.3-0.4,0.7-0.7,1.2-0.9
	c0.5-0.2,1.1-0.4,1.7-0.3c0.8,0,1.6,0.2,2.3,0.7c0.6,0.5,0.9,1.2,0.9,2v3.9c0,0.6,0.1,1.3,0.3,1.9v0.1H516.9z M514.5,315.9
	c0.5,0,0.9-0.1,1.3-0.4c0.4-0.2,0.7-0.5,0.9-0.9v-1.7h-1.1c-1.8,0-2.7,0.5-2.7,1.6c0,0.4,0.1,0.8,0.5,1.1
	C513.6,315.8,514,315.9,514.5,315.9L514.5,315.9z M521.9,317h-1.4v-12h1.4V317z M527.8,312.7c-0.1-1.1,0.3-2.2,0.9-3.1
	c1.1-1.4,3.1-1.6,4.4-0.5c0.1,0.1,0.2,0.2,0.4,0.3V305h1.4v12h-1.3l-0.1-0.9c-0.6,0.7-1.5,1.1-2.4,1.1c-0.9,0-1.8-0.4-2.4-1.2
	c-0.7-0.9-1-2-0.9-3.1V312.7z M529.3,312.9c0,0.8,0.2,1.6,0.6,2.2c0.4,0.5,1,0.8,1.6,0.8c0.9,0,1.7-0.5,2-1.2v-3.9
	c-0.4-0.8-1.1-1.2-2-1.2c-0.7,0-1.3,0.3-1.7,0.8C529.4,311.2,529.2,312,529.3,312.9L529.3,312.9z M540.7,317.2
	c-1.1,0-2.1-0.4-2.8-1.1c-0.7-0.8-1.1-1.9-1.1-3v-0.3c0-0.8,0.2-1.5,0.5-2.2c0.3-0.6,0.8-1.2,1.3-1.5c0.6-0.4,1.2-0.6,1.9-0.6
	c1-0.1,1.9,0.3,2.6,1.1c0.7,0.9,1,2,0.9,3.1v0.6h-5.7c0,0.7,0.2,1.5,0.7,2c0.5,0.5,1.1,0.8,1.8,0.8c0.5,0,0.9-0.1,1.3-0.3
	c0.4-0.2,0.7-0.5,0.9-0.8l0.9,0.7C543.2,316.6,542,317.2,540.7,317.2L540.7,317.2z M540.5,309.6c-0.6,0-1.1,0.2-1.5,0.6
	c-0.4,0.5-0.7,1.1-0.7,1.8h4.2v-0.1c0-0.6-0.2-1.2-0.6-1.7C541.6,309.8,541.1,309.6,540.5,309.6L540.5,309.6z M558.3,315.5
	c-0.4,0.6-1,1-1.6,1.2c-0.8,0.3-1.6,0.4-2.4,0.4c-0.9,0-1.7-0.2-2.5-0.7c-0.7-0.4-1.3-1.1-1.7-1.9c-0.4-0.9-0.6-1.8-0.6-2.8v-1
	c-0.1-1.4,0.3-2.8,1.2-4c0.8-1,2.1-1.5,3.4-1.4c1-0.1,2.1,0.3,2.9,0.9c0.8,0.7,1.2,1.6,1.3,2.6h-1.5c-0.1-1.4-1.3-2.4-2.7-2.3
	c0,0,0,0,0,0c-0.9-0.1-1.8,0.3-2.3,1.1c-0.6,0.9-0.9,2-0.8,3.1v0.9c-0.1,1.1,0.3,2.2,0.9,3c0.6,0.7,1.4,1.2,2.4,1.1
	c0.5,0,1-0.1,1.5-0.2c0.4-0.1,0.8-0.3,1-0.6v-2.6h-2.6v-1.2h4.1L558.3,315.5z M564,317.2c-1.1,0-2.1-0.4-2.8-1.1
	c-0.7-0.8-1.1-1.9-1.1-3v-0.3c0-0.8,0.2-1.5,0.5-2.2c0.3-0.6,0.8-1.2,1.4-1.5c0.6-0.4,1.2-0.6,1.9-0.6c1-0.1,1.9,0.3,2.6,1.1
	c0.7,0.9,1,2,0.9,3.1v0.6h-5.7c0,0.7,0.2,1.5,0.7,2c0.5,0.5,1.1,0.8,1.8,0.8c0.5,0,0.9-0.1,1.3-0.3c0.4-0.2,0.7-0.5,0.9-0.8l0.9,0.7
	C566.5,316.6,565.3,317.2,564,317.2L564,317.2z M563.9,309.6c-0.6,0-1.1,0.2-1.5,0.6c-0.4,0.5-0.7,1.1-0.7,1.8h4.2v-0.1
	c0-0.6-0.2-1.2-0.6-1.7C564.9,309.8,564.4,309.6,563.9,309.6L563.9,309.6z M573.9,314.8c0-0.4-0.2-0.7-0.4-0.9
	c-0.5-0.3-1-0.5-1.5-0.6c-0.6-0.1-1.2-0.3-1.7-0.6c-0.4-0.2-0.7-0.4-1-0.8c-0.2-0.3-0.3-0.7-0.3-1.1c0-0.7,0.3-1.3,0.9-1.8
	c0.6-0.5,1.4-0.8,2.2-0.7c0.8,0,1.7,0.2,2.3,0.7c0.6,0.5,0.9,1.2,0.9,1.9h-1.5c0-0.4-0.2-0.8-0.5-1c-0.4-0.3-0.8-0.4-1.3-0.4
	c-0.4,0-0.9,0.1-1.2,0.3c-0.3,0.2-0.5,0.5-0.4,0.9c0,0.3,0.1,0.6,0.4,0.8c0.5,0.2,1,0.4,1.5,0.5c0.6,0.1,1.2,0.3,1.8,0.6
	c0.4,0.2,0.7,0.5,1,0.8c0.2,0.3,0.3,0.7,0.3,1.2c0,0.7-0.3,1.4-0.9,1.8c-0.7,0.5-1.5,0.7-2.4,0.7c-0.6,0-1.2-0.1-1.8-0.4
	c-0.5-0.2-0.9-0.6-1.2-1c-0.3-0.4-0.4-0.9-0.4-1.4h1.4c0,0.5,0.2,0.9,0.6,1.2c0.4,0.3,0.9,0.5,1.4,0.4c0.5,0,0.9-0.1,1.3-0.3
	C573.8,315.5,573.9,315.1,573.9,314.8L573.9,314.8z M579.2,306.5v2h1.6v1.1h-1.6v5.2c0,0.3,0.1,0.5,0.2,0.8c0.2,0.2,0.5,0.3,0.7,0.3
	c0.2,0,0.5,0,0.7-0.1v1.2c-0.4,0.1-0.7,0.2-1.1,0.2c-0.6,0-1.1-0.2-1.5-0.6c-0.4-0.5-0.5-1.1-0.5-1.7v-5.2h-1.5v-1.1h1.5v-2H579.2z
	 M584.1,317h-1.4v-8.5h1.4V317z M582.5,306.3c0-0.2,0.1-0.4,0.2-0.6c0.2-0.2,0.4-0.3,0.6-0.2c0.2,0,0.5,0.1,0.6,0.2
	c0.1,0.2,0.2,0.4,0.2,0.6c0,0.2-0.1,0.4-0.2,0.6c-0.2,0.2-0.4,0.3-0.6,0.2c-0.2,0-0.5-0.1-0.6-0.2
	C582.6,306.7,582.5,306.5,582.5,306.3z M586,312.7c0-0.8,0.2-1.5,0.5-2.2c0.3-0.6,0.8-1.2,1.4-1.5c0.6-0.4,1.3-0.6,2-0.5
	c1.1,0,2.1,0.4,2.8,1.2c0.7,0.9,1.1,2,1.1,3.2v0.1c0,0.8-0.1,1.5-0.5,2.2c-0.3,0.6-0.8,1.2-1.4,1.5c-0.6,0.4-1.3,0.6-2,0.5
	c-1.1,0-2.1-0.4-2.8-1.2c-0.7-0.9-1.1-2-1.1-3.2L586,312.7z M587.4,312.9c0,0.8,0.2,1.6,0.7,2.3c0.7,1,2.1,1.1,3.1,0.4
	c0.1-0.1,0.3-0.3,0.4-0.4c0.5-0.7,0.7-1.6,0.6-2.4c0-0.8-0.2-1.6-0.7-2.3c-0.4-0.6-1.1-0.9-1.8-0.9c-0.7,0-1.3,0.3-1.7,0.9
	C587.6,311.1,587.4,312,587.4,312.9L587.4,312.9z M590.5,305h1.8l-2.1,2.3H589L590.5,305z M596.9,308.5l0,1.1
	c0.6-0.8,1.5-1.2,2.5-1.2c1.8,0,2.7,1,2.7,3v5.6h-1.4v-5.6c0-0.5-0.1-1-0.4-1.4c-0.3-0.3-0.8-0.5-1.3-0.4c-0.4,0-0.9,0.1-1.2,0.4
	c-0.4,0.3-0.6,0.6-0.8,1v6h-1.4v-8.5L596.9,308.5z M607.9,312.7c-0.1-1.1,0.3-2.2,0.9-3.1c1.1-1.4,3.1-1.6,4.4-0.5
	c0.1,0.1,0.2,0.2,0.4,0.3V305h1.4v12h-1.3l-0.1-0.9c-0.6,0.7-1.5,1.1-2.4,1.1c-0.9,0-1.8-0.4-2.4-1.2c-0.7-0.9-1-2-0.9-3.1V312.7z
	 M609.4,312.9c0,0.8,0.2,1.6,0.6,2.2c0.4,0.5,1,0.8,1.6,0.8c0.9,0,1.7-0.5,2-1.2v-3.9c-0.4-0.8-1.1-1.2-2-1.2
	c-0.7,0-1.3,0.3-1.7,0.8C609.5,311.2,609.3,312,609.4,312.9L609.4,312.9z M620.8,317.2c-1.1,0-2.1-0.4-2.8-1.1
	c-0.7-0.8-1.1-1.9-1.1-3v-0.3c0-0.8,0.2-1.5,0.5-2.2c0.3-0.6,0.8-1.2,1.3-1.5c0.6-0.4,1.2-0.6,1.9-0.6c1-0.1,1.9,0.4,2.6,1.1
	c0.7,0.9,1,2,0.9,3.1v0.6h-5.7c0,0.7,0.2,1.5,0.7,2c0.5,0.5,1.1,0.8,1.8,0.8c0.5,0,0.9-0.1,1.3-0.3c0.4-0.2,0.7-0.5,0.9-0.8l0.9,0.7
	C623.3,316.6,622.1,317.2,620.8,317.2L620.8,317.2z M620.6,309.6c-0.6,0-1.1,0.2-1.5,0.6c-0.4,0.5-0.7,1.1-0.7,1.8h4.2v-0.1
	c0-0.6-0.2-1.2-0.6-1.7C621.7,309.8,621.2,309.6,620.6,309.6L620.6,309.6z M627.4,317h-1.4v-12h1.4V317z M450.3,336.4h-2.7v4.6h-1.5
	v-11.4h3.8c1.1-0.1,2.1,0.2,3,0.9c0.7,0.6,1.1,1.6,1,2.5c0,0.7-0.2,1.3-0.6,1.9c-0.4,0.5-1,1-1.6,1.2l2.7,4.8v0.1h-1.6L450.3,336.4z
	 M447.6,335.2h2.3c0.6,0,1.3-0.2,1.8-0.6c0.4-0.4,0.7-1,0.7-1.5c0-0.6-0.2-1.2-0.6-1.6c-0.5-0.4-1.2-0.6-1.8-0.6h-2.3L447.6,335.2z
	 M457.3,341h-1.4v-8.5h1.4V341z M455.8,330.3c0-0.2,0.1-0.4,0.2-0.6c0.2-0.2,0.4-0.3,0.6-0.2c0.2,0,0.5,0.1,0.6,0.2
	c0.1,0.2,0.2,0.4,0.2,0.6c0,0.2-0.1,0.4-0.2,0.6c-0.2,0.2-0.4,0.3-0.6,0.2c-0.2,0-0.5-0.1-0.6-0.2
	C455.8,330.7,455.8,330.5,455.8,330.3z M463.1,341.2c-1.1,0-2.1-0.4-2.8-1.1c-0.7-0.8-1.1-1.9-1.1-3v-0.3c0-0.8,0.2-1.5,0.5-2.2
	c0.3-0.6,0.8-1.2,1.3-1.5c0.6-0.4,1.2-0.6,1.9-0.6c1-0.1,1.9,0.3,2.6,1.1c0.7,0.9,1,2,0.9,3.1v0.6h-5.7c0,0.7,0.2,1.5,0.7,2
	c0.5,0.5,1.1,0.8,1.8,0.8c0.5,0,0.9-0.1,1.3-0.3c0.4-0.2,0.7-0.5,0.9-0.8l0.9,0.7C465.6,340.6,464.4,341.2,463.1,341.2L463.1,341.2z
	 M463,333.6c-0.6,0-1.1,0.2-1.5,0.6c-0.4,0.5-0.7,1.1-0.7,1.8h4.2v-0.1c0-0.6-0.2-1.2-0.6-1.7C464,333.8,463.5,333.6,463,333.6
	L463,333.6z M473,338.8c0-0.4-0.2-0.7-0.4-0.9c-0.5-0.3-1-0.5-1.5-0.6c-0.6-0.1-1.2-0.3-1.7-0.6c-0.4-0.2-0.7-0.4-1-0.8
	c-0.2-0.3-0.3-0.7-0.3-1.1c0-0.7,0.3-1.3,0.9-1.8c0.6-0.5,1.4-0.8,2.2-0.7c0.8,0,1.7,0.2,2.3,0.7c0.6,0.5,0.9,1.2,0.9,1.9H473
	c0-0.4-0.2-0.8-0.5-1c-0.4-0.3-0.8-0.4-1.3-0.4c-0.4,0-0.9,0.1-1.2,0.3c-0.3,0.2-0.5,0.5-0.4,0.9c0,0.3,0.1,0.6,0.4,0.8
	c0.5,0.2,1,0.4,1.5,0.5c0.6,0.1,1.2,0.3,1.8,0.6c0.4,0.2,0.7,0.5,1,0.8c0.2,0.3,0.3,0.7,0.3,1.2c0,0.7-0.3,1.4-0.9,1.8
	c-0.7,0.5-1.5,0.7-2.4,0.7c-0.6,0-1.2-0.1-1.8-0.4c-0.5-0.2-0.9-0.6-1.2-1c-0.3-0.4-0.4-0.9-0.4-1.4h1.4c0,0.5,0.2,0.9,0.6,1.2
	c0.4,0.3,0.9,0.5,1.4,0.4c0.5,0,0.9-0.1,1.3-0.3C472.9,339.5,473,339.1,473,338.8L473,338.8z M476,336.7c-0.1-1.1,0.3-2.2,0.9-3.1
	c1.1-1.4,3.1-1.6,4.4-0.5c0.1,0.1,0.3,0.2,0.4,0.4l0.1-0.9h1.3v8.3c0.1,1-0.3,1.9-1,2.6c-0.7,0.7-1.7,1-2.6,0.9
	c-0.6,0-1.2-0.1-1.8-0.4c-0.5-0.2-1-0.6-1.3-1.1l0.7-0.9c0.5,0.7,1.4,1.1,2.3,1.1c0.6,0,1.2-0.2,1.6-0.6c0.4-0.5,0.6-1.1,0.6-1.7
	v-0.7c-0.6,0.7-1.5,1-2.4,1c-0.9,0-1.8-0.4-2.4-1.2C476.3,339,476,337.9,476,336.7z M477.5,336.9c0,0.8,0.2,1.6,0.6,2.2
	c0.4,0.5,1,0.8,1.6,0.8c0.9,0,1.7-0.5,2-1.2v-3.9c-0.4-0.8-1.1-1.2-2-1.2c-0.7,0-1.3,0.3-1.6,0.8C477.6,335.2,477.4,336,477.5,336.9
	L477.5,336.9z M485,336.7c0-0.8,0.2-1.5,0.5-2.2c0.3-0.6,0.8-1.2,1.4-1.5c0.6-0.4,1.3-0.6,2-0.5c1.1,0,2.1,0.4,2.8,1.2
	c0.7,0.9,1.1,2,1.1,3.2v0.1c0,0.8-0.1,1.5-0.5,2.2c-0.3,0.6-0.8,1.2-1.4,1.5c-0.6,0.4-1.3,0.6-2,0.5c-1.1,0-2.1-0.4-2.8-1.2
	c-0.7-0.9-1.1-2-1.1-3.2L485,336.7z M486.4,336.9c0,0.8,0.2,1.6,0.7,2.3c0.7,1,2.1,1.1,3.1,0.4c0.1-0.1,0.3-0.3,0.4-0.4
	c0.5-0.7,0.7-1.6,0.6-2.4c0-0.8-0.2-1.6-0.7-2.3c-0.4-0.6-1.1-0.9-1.8-0.9c-0.7,0-1.3,0.3-1.7,0.9
	C486.6,335.1,486.4,336,486.4,336.9L486.4,336.9z M498.1,336.7c-0.1-1.1,0.3-2.2,0.9-3.1c1.1-1.4,3.1-1.6,4.4-0.5
	c0.1,0.1,0.2,0.2,0.4,0.3V329h1.4v12h-1.3l-0.1-0.9c-0.6,0.7-1.5,1.1-2.4,1.1c-0.9,0-1.8-0.4-2.4-1.2c-0.7-0.9-1-2-0.9-3.1
	L498.1,336.7z M499.5,336.9c0,0.8,0.2,1.6,0.6,2.2c0.4,0.5,1,0.8,1.6,0.8c0.9,0,1.7-0.5,2-1.2v-3.9c-0.4-0.8-1.1-1.2-2-1.2
	c-0.7,0-1.3,0.3-1.7,0.8C499.7,335.2,499.5,336,499.5,336.9L499.5,336.9z M511,341.2c-1.1,0-2.1-0.4-2.8-1.1c-0.7-0.8-1.1-1.9-1.1-3
	v-0.3c0-0.8,0.2-1.5,0.5-2.2c0.3-0.6,0.8-1.2,1.3-1.5c0.6-0.4,1.2-0.6,1.9-0.6c1-0.1,1.9,0.3,2.6,1.1c0.7,0.9,1,2,0.9,3.1v0.6h-5.7
	c0,0.7,0.2,1.5,0.7,2c0.5,0.5,1.1,0.8,1.8,0.8c0.5,0,0.9-0.1,1.3-0.3c0.4-0.2,0.7-0.5,0.9-0.8l0.9,0.7
	C513.5,340.6,512.2,341.2,511,341.2L511,341.2z M510.8,333.6c-0.6,0-1.1,0.2-1.5,0.6c-0.4,0.5-0.7,1.1-0.7,1.8h4.2v-0.1
	c0-0.6-0.2-1.2-0.6-1.7C511.9,333.8,511.3,333.6,510.8,333.6L510.8,333.6z M520.1,341v-11.4h3.2c0.9,0,1.8,0.2,2.6,0.7
	c0.8,0.4,1.4,1.1,1.8,1.9c0.4,0.9,0.6,1.8,0.6,2.8v0.7c0,1-0.2,1.9-0.6,2.8c-0.4,0.8-1,1.4-1.8,1.9c-0.8,0.4-1.7,0.7-2.7,0.7
	L520.1,341z M521.6,330.9v8.9h1.6c1,0.1,2-0.3,2.7-1.1c0.7-0.9,1-2,1-3.1V335c0.1-1.1-0.3-2.2-0.9-3c-0.7-0.7-1.6-1.1-2.6-1.1H521.6
	z M533.9,341.2c-1.1,0-2.1-0.4-2.8-1.1c-0.7-0.8-1.1-1.9-1.1-3v-0.3c0-0.8,0.2-1.5,0.5-2.2c0.3-0.6,0.8-1.2,1.3-1.5
	c0.6-0.4,1.2-0.6,1.9-0.6c1-0.1,1.9,0.3,2.6,1.1c0.7,0.9,1,2,0.9,3.1v0.6h-5.7c0,0.7,0.2,1.5,0.7,2c0.5,0.5,1.1,0.8,1.8,0.8
	c0.5,0,0.9-0.1,1.3-0.3c0.4-0.2,0.7-0.5,0.9-0.8l0.9,0.7C536.4,340.6,535.2,341.2,533.9,341.2L533.9,341.2z M533.7,333.6
	c-0.6,0-1.1,0.2-1.5,0.6c-0.4,0.5-0.7,1.1-0.7,1.8h4.2v-0.1c0-0.6-0.2-1.2-0.6-1.7C534.8,333.8,534.3,333.6,533.7,333.6L533.7,333.6
	z M543.8,338.8c0-0.4-0.2-0.7-0.4-0.9c-0.5-0.3-1-0.5-1.5-0.6c-0.6-0.1-1.2-0.3-1.7-0.6c-0.4-0.2-0.7-0.4-1-0.8
	c-0.2-0.3-0.3-0.7-0.3-1.1c0-0.7,0.3-1.3,0.9-1.8c0.6-0.5,1.4-0.8,2.2-0.7c0.8,0,1.7,0.2,2.3,0.7c0.6,0.5,0.9,1.2,0.9,1.9h-1.4
	c0-0.4-0.2-0.8-0.5-1c-0.4-0.3-0.8-0.4-1.3-0.4c-0.4,0-0.9,0.1-1.2,0.3c-0.3,0.2-0.5,0.5-0.4,0.9c0,0.3,0.1,0.6,0.4,0.8
	c0.5,0.2,1,0.4,1.5,0.5c0.6,0.1,1.2,0.3,1.8,0.6c0.4,0.2,0.7,0.5,1,0.8c0.2,0.3,0.3,0.7,0.3,1.2c0,0.7-0.3,1.4-0.9,1.8
	c-0.7,0.5-1.5,0.7-2.4,0.7c-0.6,0-1.2-0.1-1.8-0.4c-0.5-0.2-0.9-0.6-1.2-1c-0.3-0.4-0.4-0.9-0.4-1.4h1.4c0,0.5,0.2,0.9,0.6,1.2
	c0.4,0.3,0.9,0.5,1.4,0.4c0.5,0,0.9-0.1,1.3-0.3C543.6,339.5,543.8,339.1,543.8,338.8L543.8,338.8z M552.3,341
	c-0.1-0.3-0.2-0.6-0.2-0.9c-0.6,0.7-1.5,1.1-2.4,1c-0.7,0-1.5-0.2-2.1-0.7c-0.5-0.4-0.8-1.1-0.8-1.8c0-0.8,0.3-1.6,1-2.1
	c0.8-0.5,1.8-0.8,2.8-0.7h1.4v-0.7c0-0.4-0.1-0.9-0.5-1.2c-0.4-0.3-0.8-0.5-1.3-0.4c-0.5,0-0.9,0.1-1.3,0.4
	c-0.3,0.2-0.5,0.6-0.5,0.9H547c0-0.4,0.2-0.9,0.4-1.2c0.3-0.4,0.7-0.7,1.2-0.9c0.5-0.2,1.1-0.4,1.7-0.3c0.8,0,1.6,0.2,2.3,0.7
	c0.6,0.5,0.9,1.2,0.9,2v3.9c0,0.6,0.1,1.3,0.3,1.9v0.1H552.3z M549.9,339.9c0.5,0,0.9-0.1,1.3-0.4c0.4-0.2,0.7-0.5,0.9-0.9v-1.7H551
	c-1.8,0-2.7,0.5-2.7,1.6c0,0.4,0.1,0.8,0.5,1.1C549.1,339.8,549.5,339.9,549.9,339.9L549.9,339.9z M560.7,338.8
	c0-0.4-0.2-0.7-0.4-0.9c-0.5-0.3-1-0.5-1.5-0.6c-0.6-0.1-1.2-0.3-1.7-0.6c-0.4-0.2-0.7-0.4-1-0.8c-0.2-0.3-0.3-0.7-0.3-1.1
	c0-0.7,0.3-1.3,0.9-1.8c0.6-0.5,1.4-0.8,2.2-0.7c0.8,0,1.7,0.2,2.3,0.7c0.6,0.5,0.9,1.2,0.9,1.9h-1.5c0-0.4-0.2-0.8-0.5-1
	c-0.4-0.3-0.8-0.4-1.3-0.4c-0.4,0-0.9,0.1-1.2,0.3c-0.3,0.2-0.5,0.5-0.4,0.9c0,0.3,0.1,0.6,0.4,0.8c0.5,0.2,1,0.4,1.5,0.5
	c0.6,0.1,1.2,0.3,1.8,0.6c0.4,0.2,0.7,0.5,1,0.8c0.2,0.3,0.3,0.7,0.3,1.2c0,0.7-0.3,1.4-0.9,1.8c-0.7,0.5-1.5,0.7-2.4,0.7
	c-0.6,0-1.2-0.1-1.8-0.4c-0.5-0.2-0.9-0.6-1.2-1c-0.3-0.4-0.4-0.9-0.4-1.4h1.4c0,0.5,0.2,0.9,0.6,1.2c0.4,0.3,0.9,0.5,1.4,0.4
	c0.5,0,0.9-0.1,1.3-0.3C560.6,339.5,560.7,339.1,560.7,338.8L560.7,338.8z M566,330.5v2h1.6v1.1H566v5.2c0,0.3,0.1,0.5,0.2,0.8
	c0.2,0.2,0.5,0.3,0.7,0.3c0.2,0,0.5,0,0.7-0.1v1.2c-0.4,0.1-0.7,0.2-1.1,0.2c-0.6,0-1.1-0.2-1.5-0.6c-0.4-0.5-0.5-1.1-0.5-1.7v-5.2
	H563v-1.1h1.5v-2L566,330.5z M573.4,333.8c-0.2,0-0.5-0.1-0.7-0.1c-0.8-0.1-1.6,0.4-1.9,1.2v6h-1.4v-8.5h1.4l0,1
	c0.4-0.7,1.2-1.2,2-1.1c0.2,0,0.4,0,0.6,0.1L573.4,333.8z M578.1,341.2c-1.1,0-2.1-0.4-2.8-1.1c-0.7-0.8-1.1-1.9-1.1-3v-0.3
	c0-0.8,0.2-1.5,0.5-2.2c0.3-0.6,0.8-1.2,1.3-1.5c0.6-0.4,1.2-0.6,1.9-0.6c1-0.1,1.9,0.3,2.6,1.1c0.7,0.9,1,2,0.9,3.1v0.6h-5.7
	c0,0.7,0.2,1.5,0.7,2c0.5,0.5,1.1,0.8,1.8,0.8c0.5,0,0.9-0.1,1.3-0.3c0.4-0.2,0.7-0.5,0.9-0.8l0.9,0.7
	C580.6,340.6,579.3,341.2,578.1,341.2L578.1,341.2z M577.9,333.6c-0.6,0-1.1,0.2-1.5,0.6c-0.4,0.5-0.7,1.1-0.7,1.8h4.2v-0.1
	c0-0.6-0.2-1.2-0.6-1.7C579,333.8,578.4,333.6,577.9,333.6L577.9,333.6z M587.9,338.8c0-0.4-0.2-0.7-0.4-0.9c-0.5-0.3-1-0.5-1.5-0.6
	c-0.6-0.1-1.2-0.3-1.7-0.6c-0.4-0.2-0.7-0.4-1-0.8c-0.2-0.3-0.3-0.7-0.3-1.1c0-0.7,0.3-1.3,0.9-1.8c0.6-0.5,1.4-0.8,2.2-0.7
	c0.8,0,1.7,0.2,2.3,0.7c0.6,0.5,0.9,1.2,0.9,1.9h-1.5c0-0.4-0.2-0.8-0.5-1c-0.4-0.3-0.8-0.4-1.3-0.4c-0.4,0-0.9,0.1-1.2,0.3
	c-0.3,0.2-0.5,0.5-0.4,0.9c0,0.3,0.1,0.6,0.4,0.8c0.5,0.2,1,0.4,1.5,0.5c0.6,0.1,1.2,0.3,1.8,0.6c0.4,0.2,0.7,0.5,1,0.8
	c0.2,0.3,0.3,0.7,0.3,1.2c0,0.7-0.3,1.4-0.9,1.8c-0.7,0.5-1.5,0.7-2.4,0.7c-0.6,0-1.2-0.1-1.8-0.4c-0.5-0.2-0.9-0.6-1.2-1
	c-0.3-0.4-0.4-0.9-0.4-1.4h1.4c0,0.5,0.2,0.9,0.6,1.2c0.4,0.3,0.9,0.5,1.4,0.4c0.5,0,0.9-0.1,1.3-0.3
	C587.8,339.5,588,339.1,587.9,338.8L587.9,338.8z"/>
<path id="Trazado_119379" class="st3" d="M410.4,151.4c-0.1,1.1-0.5,2.1-1.3,2.8c-0.8,0.7-1.9,1-3,1c-1.2,0-2.4-0.5-3.2-1.4
	c-0.9-1.1-1.3-2.5-1.2-3.9v-1.1c0-1,0.2-1.9,0.6-2.8c0.3-0.8,0.9-1.4,1.6-1.8c0.7-0.4,1.6-0.7,2.4-0.6c1.1-0.1,2.1,0.3,2.9,1
	c0.8,0.7,1.2,1.7,1.3,2.8h-1.5c-0.1-0.7-0.4-1.4-0.8-2c-0.5-0.4-1.2-0.6-1.8-0.6c-0.9,0-1.7,0.4-2.3,1.1c-0.6,0.9-0.9,2-0.8,3v1.1
	c-0.1,1,0.2,2.1,0.8,2.9c0.5,0.7,1.3,1.1,2.2,1.1c0.7,0,1.4-0.2,1.9-0.6c0.5-0.5,0.8-1.2,0.9-2H410.4z M411.9,150.7
	c0-0.8,0.2-1.5,0.5-2.2c0.3-0.6,0.8-1.2,1.4-1.5c0.6-0.4,1.3-0.6,2-0.5c1.1,0,2.1,0.4,2.8,1.2c0.7,0.9,1.1,2,1.1,3.2v0.1
	c0,0.8-0.1,1.5-0.5,2.2c-0.3,0.6-0.8,1.2-1.4,1.5c-0.6,0.4-1.3,0.6-2,0.5c-1.1,0-2.1-0.4-2.8-1.2c-0.7-0.9-1.1-2-1.1-3.2V150.7z
	 M413.3,150.9c0,0.8,0.2,1.6,0.7,2.3c0.7,1,2.1,1.1,3.1,0.4c0.1-0.1,0.3-0.3,0.4-0.4c0.5-0.7,0.7-1.6,0.6-2.4c0-0.8-0.2-1.6-0.7-2.3
	c-0.4-0.6-1.1-0.9-1.8-0.9c-0.7,0-1.3,0.3-1.7,0.9C413.5,149.2,413.2,150,413.3,150.9L413.3,150.9z M422.7,146.5l0,1.1
	c0.6-0.8,1.5-1.2,2.5-1.2c1.8,0,2.7,1,2.7,3v5.6h-1.4v-5.6c0-0.5-0.1-1-0.4-1.4c-0.3-0.3-0.8-0.5-1.3-0.4c-0.4,0-0.9,0.1-1.2,0.4
	c-0.4,0.3-0.6,0.6-0.8,1v6h-1.4v-8.5L422.7,146.5z M435.1,152.8c0-0.4-0.2-0.7-0.4-0.9c-0.5-0.3-1-0.5-1.5-0.6
	c-0.6-0.1-1.2-0.3-1.7-0.6c-0.4-0.2-0.7-0.4-1-0.8c-0.2-0.3-0.3-0.7-0.3-1.1c0-0.7,0.3-1.3,0.9-1.8c0.6-0.5,1.4-0.8,2.2-0.7
	c0.8,0,1.7,0.2,2.3,0.7c0.6,0.5,0.9,1.2,0.9,1.9H435c0-0.4-0.2-0.8-0.5-1c-0.4-0.3-0.8-0.4-1.3-0.4c-0.4,0-0.9,0.1-1.2,0.3
	c-0.3,0.2-0.5,0.5-0.4,0.9c0,0.3,0.1,0.6,0.4,0.8c0.5,0.2,1,0.4,1.5,0.5c0.6,0.1,1.2,0.3,1.8,0.6c0.4,0.2,0.7,0.5,1,0.8
	c0.2,0.3,0.3,0.7,0.3,1.2c0,0.7-0.3,1.4-0.9,1.8c-0.7,0.5-1.5,0.7-2.4,0.7c-0.6,0-1.2-0.1-1.8-0.4c-0.5-0.2-0.9-0.6-1.2-1
	c-0.3-0.4-0.4-0.9-0.4-1.4h1.4c0,0.5,0.2,0.9,0.6,1.2c0.4,0.3,0.9,0.5,1.4,0.4c0.5,0,0.9-0.1,1.3-0.3
	C434.9,153.5,435.1,153.1,435.1,152.8L435.1,152.8z M441.9,155.2c-1.1,0-2.1-0.4-2.8-1.1c-0.7-0.8-1.1-1.9-1.1-3v-0.3
	c0-0.8,0.2-1.5,0.5-2.2c0.3-0.6,0.8-1.2,1.3-1.5c0.6-0.4,1.2-0.6,1.9-0.6c1-0.1,1.9,0.3,2.6,1.1c0.7,0.9,1,2,0.9,3.1v0.6h-5.7
	c0,0.7,0.2,1.5,0.7,2c0.5,0.5,1.1,0.8,1.8,0.8c0.5,0,0.9-0.1,1.3-0.3c0.4-0.2,0.7-0.5,0.9-0.8l0.9,0.7
	C444.4,154.6,443.2,155.2,441.9,155.2L441.9,155.2z M441.8,147.6c-0.6,0-1.1,0.2-1.5,0.6c-0.4,0.5-0.7,1.1-0.7,1.8h4.2v-0.1
	c0-0.6-0.2-1.2-0.6-1.7C442.8,147.8,442.3,147.6,441.8,147.6L441.8,147.6z M448.4,146.5v9.4c0,1.6-0.7,2.4-2.2,2.4
	c-0.3,0-0.6,0-0.9-0.1v-1.1c0.2,0,0.4,0.1,0.7,0.1c0.3,0,0.5-0.1,0.7-0.3c0.2-0.3,0.3-0.6,0.3-0.9v-9.5L448.4,146.5z M446.8,144.3
	c0-0.2,0.1-0.4,0.2-0.6c0.2-0.2,0.4-0.3,0.6-0.2c0.2,0,0.5,0.1,0.6,0.2c0.1,0.2,0.2,0.4,0.2,0.6c0,0.2-0.1,0.4-0.2,0.6
	c-0.2,0.2-0.4,0.3-0.6,0.2c-0.2,0-0.5-0.1-0.6-0.2C446.9,144.7,446.8,144.5,446.8,144.3z M450.4,150.7c0-0.8,0.2-1.5,0.5-2.2
	c0.3-0.6,0.8-1.2,1.4-1.5c0.6-0.4,1.3-0.6,2-0.5c1.1,0,2.1,0.4,2.8,1.2c0.7,0.9,1.1,2,1.1,3.2v0.1c0,0.8-0.1,1.5-0.5,2.2
	c-0.3,0.6-0.8,1.2-1.4,1.5c-0.6,0.4-1.3,0.6-2,0.5c-1.1,0-2.1-0.4-2.8-1.2c-0.7-0.9-1.1-2-1.1-3.2V150.7z M451.8,150.9
	c0,0.8,0.2,1.6,0.7,2.3c0.7,1,2.1,1.1,3.1,0.4c0.1-0.1,0.3-0.3,0.4-0.4c0.5-0.7,0.7-1.6,0.6-2.4c0-0.8-0.2-1.6-0.7-2.3
	c-0.4-0.6-1.1-0.9-1.8-0.9c-0.7,0-1.3,0.3-1.7,0.9C452,149.2,451.7,150,451.8,150.9L451.8,150.9z M472.8,155h-1.5l-5.7-8.8v8.8H464
	v-11.4h1.5l5.7,8.8v-8.8h1.5V155z M480.4,155c-0.1-0.3-0.2-0.6-0.2-0.9c-0.6,0.7-1.5,1.1-2.4,1c-0.7,0-1.5-0.2-2.1-0.7
	c-0.5-0.4-0.8-1.1-0.8-1.8c0-0.8,0.3-1.6,1-2.1c0.8-0.5,1.8-0.8,2.8-0.7h1.4v-0.7c0-0.4-0.1-0.9-0.5-1.2c-0.4-0.3-0.8-0.5-1.3-0.4
	c-0.5,0-0.9,0.1-1.3,0.4c-0.3,0.2-0.5,0.6-0.5,0.9h-1.5c0-0.4,0.2-0.9,0.4-1.2c0.3-0.4,0.7-0.7,1.2-0.9c0.5-0.2,1.1-0.4,1.7-0.3
	c0.8,0,1.6,0.2,2.3,0.7c0.6,0.5,0.9,1.2,0.9,2v3.9c0,0.6,0.1,1.3,0.3,1.9v0.1H480.4z M478,153.9c0.5,0,0.9-0.1,1.3-0.4
	c0.4-0.2,0.7-0.5,0.9-0.9v-1.7h-1.1c-1.8,0-2.7,0.5-2.7,1.6c0,0.4,0.1,0.8,0.5,1.1C477.2,153.8,477.6,153.9,478,153.9L478,153.9z
	 M487.3,154c0.5,0,1-0.2,1.4-0.5c0.4-0.3,0.6-0.7,0.6-1.2h1.4c0,0.5-0.2,1-0.5,1.4c-0.3,0.4-0.7,0.8-1.2,1c-0.5,0.3-1.1,0.4-1.6,0.4
	c-1,0-2.1-0.4-2.7-1.2c-0.7-0.9-1.1-2-1-3.2v-0.2c0-0.8,0.1-1.5,0.5-2.2c0.3-0.6,0.7-1.1,1.3-1.5c0.6-0.4,1.3-0.5,2-0.5
	c0.9,0,1.7,0.3,2.4,0.9c0.6,0.6,1,1.4,1,2.2h-1.4c0-0.5-0.2-1-0.6-1.3c-0.4-0.4-0.9-0.5-1.4-0.5c-0.7,0-1.3,0.3-1.7,0.8
	c-0.4,0.7-0.7,1.5-0.6,2.3v0.3c-0.1,0.8,0.2,1.6,0.6,2.2C486,153.7,486.7,154,487.3,154L487.3,154z M493.9,155h-1.4v-8.5h1.4V155z
	 M492.3,144.3c0-0.2,0.1-0.4,0.2-0.6c0.2-0.2,0.4-0.3,0.6-0.2c0.2,0,0.5,0.1,0.6,0.2c0.1,0.2,0.2,0.4,0.2,0.6c0,0.2-0.1,0.4-0.2,0.6
	c-0.2,0.2-0.4,0.3-0.6,0.2c-0.2,0-0.5-0.1-0.6-0.2C492.4,144.7,492.3,144.5,492.3,144.3z M495.8,150.7c0-0.8,0.2-1.5,0.5-2.2
	c0.3-0.6,0.8-1.2,1.4-1.5c0.6-0.4,1.3-0.6,2-0.5c1.1,0,2.1,0.4,2.8,1.2c0.7,0.9,1.1,2,1.1,3.2v0.1c0,0.8-0.1,1.5-0.5,2.2
	c-0.3,0.6-0.8,1.2-1.4,1.5c-0.6,0.4-1.3,0.6-2,0.5c-1.1,0-2.1-0.4-2.8-1.2c-0.7-0.9-1.1-2-1.1-3.2V150.7z M497.3,150.9
	c0,0.8,0.2,1.6,0.7,2.3c0.7,1,2.1,1.1,3.1,0.4c0.1-0.1,0.3-0.3,0.4-0.4c0.5-0.7,0.7-1.6,0.6-2.4c0-0.8-0.2-1.6-0.7-2.3
	c-0.4-0.6-1.1-0.9-1.8-0.9c-0.7,0-1.3,0.3-1.7,0.9C497.4,149.2,497.2,150,497.3,150.9L497.3,150.9z M506.7,146.6l0,1.1
	c0.6-0.8,1.5-1.2,2.5-1.2c1.8,0,2.7,1,2.7,3v5.6h-1.4v-5.6c0-0.5-0.1-1-0.4-1.4c-0.3-0.3-0.8-0.5-1.3-0.4c-0.4,0-0.9,0.1-1.2,0.4
	c-0.4,0.3-0.6,0.6-0.8,1v6h-1.4v-8.5L506.7,146.6z M519.4,155c-0.1-0.3-0.2-0.6-0.2-0.9c-0.6,0.7-1.5,1.1-2.4,1
	c-0.7,0-1.5-0.2-2.1-0.7c-0.5-0.4-0.8-1.1-0.8-1.8c0-0.8,0.3-1.6,1-2.1c0.8-0.5,1.8-0.8,2.8-0.7h1.4v-0.7c0-0.4-0.1-0.9-0.5-1.2
	c-0.4-0.3-0.8-0.5-1.3-0.4c-0.5,0-0.9,0.1-1.3,0.4c-0.3,0.2-0.5,0.6-0.5,0.9h-1.5c0-0.4,0.2-0.9,0.4-1.2c0.3-0.4,0.7-0.7,1.2-0.9
	c0.5-0.2,1.1-0.4,1.7-0.3c0.8,0,1.6,0.2,2.3,0.7c0.6,0.5,0.9,1.2,0.9,2v3.9c0,0.6,0.1,1.3,0.3,1.9v0.1H519.4z M517,153.9
	c0.5,0,0.9-0.1,1.3-0.4c0.4-0.2,0.7-0.5,0.9-0.9v-1.7H518c-1.8,0-2.7,0.5-2.7,1.6c0,0.4,0.1,0.8,0.5,1.1
	C516.1,153.8,516.5,153.9,517,153.9L517,153.9z M524.4,155H523v-12h1.4V155z M537.8,150.9c0.1,1.1-0.3,2.2-0.9,3.1
	c-0.6,0.8-1.4,1.2-2.4,1.2c-0.9,0-1.8-0.3-2.4-1v4.1h-1.4v-11.7h1.3l0.1,0.9c0.6-0.7,1.5-1.1,2.5-1.1c0.9,0,1.8,0.4,2.4,1.1
	c0.6,0.9,1,2.1,0.9,3.2L537.8,150.9z M536.4,150.7c0-0.8-0.2-1.6-0.6-2.3c-0.4-0.5-1-0.9-1.7-0.8c-0.8,0-1.6,0.4-2,1.2v4
	c0.4,0.7,1.2,1.2,2,1.2c0.7,0,1.3-0.3,1.7-0.8C536.2,152.4,536.4,151.6,536.4,150.7L536.4,150.7z M544.9,155
	c-0.1-0.3-0.2-0.6-0.2-0.9c-0.6,0.7-1.5,1.1-2.4,1c-0.7,0-1.5-0.2-2.1-0.7c-0.5-0.4-0.8-1.1-0.8-1.8c0-0.8,0.3-1.6,1-2.1
	c0.8-0.5,1.8-0.8,2.8-0.7h1.4v-0.7c0-0.4-0.1-0.9-0.5-1.2c-0.4-0.3-0.8-0.5-1.3-0.4c-0.5,0-0.9,0.1-1.3,0.4
	c-0.3,0.2-0.5,0.6-0.5,0.9h-1.5c0-0.4,0.2-0.9,0.4-1.2c0.3-0.4,0.7-0.7,1.2-0.9c0.5-0.2,1.1-0.4,1.7-0.3c0.8,0,1.6,0.2,2.3,0.7
	c0.6,0.5,0.9,1.2,0.9,2v3.9c0,0.6,0.1,1.3,0.3,1.9v0.1L544.9,155z M542.5,153.9c0.5,0,0.9-0.1,1.3-0.4c0.4-0.2,0.7-0.5,0.9-0.9v-1.7
	h-1.1c-1.8,0-2.7,0.5-2.7,1.6c0,0.4,0.1,0.8,0.5,1.1C541.6,153.8,542.1,153.9,542.5,153.9L542.5,153.9z M552.5,147.8
	c-0.2,0-0.5-0.1-0.7-0.1c-0.8-0.1-1.6,0.4-1.9,1.2v6h-1.4v-8.5h1.4l0,1c0.4-0.7,1.2-1.2,2-1.1c0.2,0,0.4,0,0.6,0.1L552.5,147.8z
	 M558.7,155c-0.1-0.3-0.2-0.6-0.2-0.9c-0.6,0.7-1.5,1.1-2.4,1c-0.7,0-1.5-0.2-2.1-0.7c-0.5-0.4-0.8-1.1-0.8-1.8c0-0.8,0.3-1.6,1-2.1
	c0.8-0.5,1.8-0.8,2.8-0.7h1.4v-0.7c0-0.4-0.1-0.9-0.5-1.2c-0.4-0.3-0.8-0.5-1.3-0.4c-0.5,0-0.9,0.1-1.3,0.4
	c-0.3,0.2-0.5,0.6-0.5,0.9h-1.4c0-0.4,0.2-0.9,0.4-1.2c0.3-0.4,0.7-0.7,1.2-0.9c0.5-0.2,1.1-0.4,1.7-0.3c0.8,0,1.6,0.2,2.3,0.7
	c0.6,0.5,0.9,1.2,0.9,2v3.9c0,0.6,0.1,1.3,0.3,1.9v0.1H558.7z M556.3,153.9c0.5,0,0.9-0.1,1.3-0.4c0.4-0.2,0.7-0.5,0.9-0.9v-1.7
	h-1.1c-1.8,0-2.7,0.5-2.7,1.6c0,0.4,0.1,0.8,0.5,1.1C555.5,153.8,555.9,153.9,556.3,153.9L556.3,153.9z M567.7,155h-1.4v-12h1.4V155
	z M575.2,155c-0.1-0.3-0.2-0.6-0.2-0.9c-0.6,0.7-1.5,1.1-2.4,1c-0.7,0-1.5-0.2-2.1-0.7c-0.5-0.4-0.8-1.1-0.8-1.8
	c0-0.8,0.3-1.6,1-2.1c0.8-0.5,1.8-0.8,2.8-0.7h1.4v-0.7c0-0.4-0.1-0.9-0.4-1.2c-0.4-0.3-0.8-0.5-1.3-0.4c-0.5,0-0.9,0.1-1.3,0.4
	c-0.3,0.2-0.5,0.6-0.5,0.9h-1.5c0-0.4,0.2-0.9,0.4-1.2c0.3-0.4,0.7-0.7,1.2-0.9c0.5-0.2,1.1-0.4,1.7-0.3c0.8,0,1.6,0.2,2.3,0.7
	c0.6,0.5,0.9,1.2,0.9,2v3.9c0,0.6,0.1,1.3,0.3,1.9v0.1H575.2z M572.8,153.9c0.5,0,0.9-0.1,1.3-0.4c0.4-0.2,0.7-0.5,0.9-0.9v-1.7
	h-1.1c-1.8,0-2.7,0.5-2.7,1.6c0,0.4,0.1,0.8,0.5,1.1C572,153.8,572.4,153.9,572.8,153.9L572.8,153.9z M591.3,153.5
	c-0.4,0.6-1,1-1.6,1.2c-0.8,0.3-1.6,0.4-2.4,0.4c-0.9,0-1.7-0.2-2.5-0.7c-0.7-0.4-1.3-1.1-1.7-1.9c-0.4-0.9-0.6-1.8-0.6-2.8v-1
	c-0.1-1.4,0.3-2.8,1.2-4c0.8-1,2.1-1.5,3.4-1.4c1-0.1,2.1,0.3,2.9,0.9c0.8,0.7,1.2,1.6,1.3,2.6h-1.5c-0.1-1.4-1.3-2.4-2.7-2.3
	c0,0,0,0,0,0c-0.9-0.1-1.8,0.3-2.3,1.1c-0.6,0.9-0.9,2-0.8,3.1v0.9c-0.1,1.1,0.3,2.2,0.9,3c0.6,0.7,1.4,1.2,2.4,1.1
	c0.5,0,1-0.1,1.5-0.2c0.4-0.1,0.8-0.3,1-0.6v-2.6h-2.6v-1.2h4.1V153.5z M597.1,155.2c-1.1,0-2.1-0.4-2.8-1.1c-0.7-0.8-1.1-1.9-1.1-3
	v-0.3c0-0.8,0.2-1.5,0.5-2.2c0.3-0.6,0.8-1.2,1.3-1.5c0.6-0.4,1.2-0.6,1.9-0.6c1-0.1,1.9,0.3,2.6,1.1c0.7,0.9,1,2,0.9,3.1v0.6h-5.7
	c0,0.7,0.2,1.5,0.7,2c0.5,0.5,1.1,0.8,1.8,0.8c0.5,0,0.9-0.1,1.3-0.3c0.4-0.2,0.7-0.5,0.9-0.8l0.9,0.7
	C599.6,154.6,598.4,155.2,597.1,155.2L597.1,155.2z M596.9,147.6c-0.6,0-1.1,0.2-1.5,0.6c-0.4,0.5-0.7,1.1-0.7,1.8h4.2v-0.1
	c0-0.6-0.2-1.2-0.6-1.7C598,147.8,597.5,147.6,596.9,147.6L596.9,147.6z M607,152.8c0-0.4-0.2-0.7-0.4-0.9c-0.5-0.3-1-0.5-1.5-0.6
	c-0.6-0.1-1.2-0.3-1.7-0.6c-0.4-0.2-0.7-0.4-1-0.8c-0.2-0.3-0.3-0.7-0.3-1.1c0-0.7,0.3-1.3,0.9-1.8c0.6-0.5,1.4-0.8,2.2-0.7
	c0.8,0,1.7,0.2,2.3,0.7c0.6,0.5,0.9,1.2,0.9,1.9h-1.5c0-0.4-0.2-0.8-0.5-1c-0.4-0.3-0.8-0.4-1.3-0.4c-0.4,0-0.9,0.1-1.2,0.3
	c-0.3,0.2-0.5,0.5-0.4,0.9c0,0.3,0.1,0.6,0.4,0.8c0.5,0.2,1,0.4,1.5,0.5c0.6,0.1,1.2,0.3,1.8,0.6c0.4,0.2,0.7,0.5,1,0.8
	c0.2,0.3,0.3,0.7,0.3,1.2c0,0.7-0.3,1.4-0.9,1.8c-0.7,0.5-1.5,0.7-2.4,0.7c-0.6,0-1.2-0.1-1.8-0.4c-0.5-0.2-0.9-0.6-1.2-1
	c-0.3-0.4-0.5-0.9-0.5-1.4h1.4c0,0.5,0.2,0.9,0.6,1.2c0.4,0.3,0.9,0.5,1.4,0.4c0.5,0,0.9-0.1,1.3-0.3
	C606.8,153.5,607,153.1,607,152.8L607,152.8z M612.3,144.5v2h1.6v1.1h-1.6v5.2c0,0.3,0.1,0.5,0.2,0.8c0.2,0.2,0.5,0.3,0.7,0.3
	c0.2,0,0.5,0,0.7-0.1v1.2c-0.4,0.1-0.7,0.2-1.1,0.2c-0.6,0-1.1-0.2-1.5-0.6c-0.4-0.5-0.5-1.1-0.5-1.7v-5.2h-1.5v-1.1h1.5v-2H612.3z
	 M617.1,155h-1.4v-8.5h1.4V155z M615.5,144.3c0-0.2,0.1-0.4,0.2-0.6c0.2-0.2,0.4-0.3,0.6-0.2c0.2,0,0.5,0.1,0.6,0.2
	c0.1,0.2,0.2,0.4,0.2,0.6c0,0.2-0.1,0.4-0.2,0.6c-0.2,0.2-0.4,0.3-0.6,0.2c-0.2,0-0.5-0.1-0.6-0.2
	C615.6,144.7,615.5,144.5,615.5,144.3z M619,150.7c0-0.8,0.2-1.5,0.5-2.2c0.3-0.6,0.8-1.2,1.4-1.5c0.6-0.4,1.3-0.6,2-0.5
	c1.1,0,2.1,0.4,2.8,1.2c0.7,0.9,1.1,2,1.1,3.2v0.1c0,0.8-0.1,1.5-0.5,2.2c-0.3,0.6-0.8,1.2-1.4,1.5c-0.6,0.4-1.3,0.6-2,0.5
	c-1.1,0-2.1-0.4-2.8-1.2c-0.7-0.9-1.1-2-1.1-3.2L619,150.7z M620.5,150.9c0,0.8,0.2,1.6,0.7,2.3c0.7,1,2.1,1.1,3.1,0.4
	c0.1-0.1,0.3-0.3,0.4-0.4c0.5-0.7,0.7-1.6,0.6-2.4c0-0.8-0.2-1.6-0.7-2.3c-0.4-0.6-1.1-0.9-1.8-0.9c-0.7,0-1.3,0.3-1.7,0.9
	C620.7,149.1,620.4,150,620.5,150.9L620.5,150.9z M623.5,143h1.8l-2.1,2.3H622L623.5,143z M629.9,146.5l0,1.1
	c0.6-0.8,1.5-1.2,2.5-1.2c1.8,0,2.7,1,2.7,3v5.6h-1.4v-5.6c0-0.5-0.1-1-0.4-1.4c-0.3-0.3-0.8-0.5-1.3-0.4c-0.4,0-0.9,0.1-1.2,0.4
	c-0.4,0.3-0.6,0.6-0.8,1v6h-1.4v-8.5L629.9,146.5z M482.3,174.7c-0.1-1.1,0.3-2.2,0.9-3.1c1.1-1.4,3.1-1.6,4.4-0.5
	c0.1,0.1,0.2,0.2,0.4,0.3V167h1.4v12h-1.3l-0.1-0.9c-0.6,0.7-1.5,1.1-2.4,1.1c-0.9,0-1.8-0.4-2.4-1.2c-0.7-0.9-1-2-0.9-3.1V174.7z
	 M483.7,174.9c0,0.8,0.2,1.6,0.6,2.2c0.4,0.5,1,0.8,1.6,0.8c0.9,0,1.7-0.4,2-1.2v-3.9c-0.4-0.8-1.1-1.2-2-1.2
	c-0.7,0-1.3,0.3-1.7,0.8C483.9,173.2,483.7,174,483.7,174.9L483.7,174.9z M495.2,179.2c-1.1,0-2.1-0.4-2.8-1.1
	c-0.7-0.8-1.1-1.9-1.1-3v-0.3c0-0.8,0.2-1.5,0.5-2.2c0.3-0.6,0.8-1.2,1.3-1.5c0.6-0.4,1.2-0.6,1.9-0.6c1-0.1,1.9,0.3,2.6,1.1
	c0.7,0.9,1,2,0.9,3.1v0.6h-5.7c0,0.7,0.2,1.5,0.7,2c0.5,0.5,1.1,0.8,1.8,0.8c0.5,0,0.9-0.1,1.3-0.3c0.4-0.2,0.7-0.5,0.9-0.8l0.9,0.7
	C497.7,178.6,496.5,179.2,495.2,179.2L495.2,179.2z M495,171.6c-0.6,0-1.1,0.2-1.5,0.6c-0.4,0.5-0.7,1.1-0.7,1.8h4.2v-0.1
	c0-0.6-0.2-1.2-0.6-1.7C496.1,171.8,495.5,171.6,495,171.6L495,171.6z M501.7,179h-1.4v-12h1.4V179z M512.4,174.4h-2.7v4.6h-1.5
	v-11.4h3.8c1.1-0.1,2.1,0.2,3,0.9c0.7,0.6,1.1,1.6,1,2.5c0,0.7-0.2,1.3-0.6,1.9c-0.4,0.5-1,1-1.6,1.2l2.7,4.8v0.1h-1.6L512.4,174.4z
	 M509.7,173.2h2.3c0.6,0,1.3-0.2,1.8-0.6c0.4-0.4,0.7-1,0.7-1.5c0-0.6-0.2-1.2-0.6-1.6c-0.5-0.4-1.2-0.6-1.8-0.6h-2.3L509.7,173.2z
	 M519.4,179H518v-8.5h1.4V179z M517.8,168.3c0-0.2,0.1-0.4,0.2-0.6c0.2-0.2,0.4-0.3,0.6-0.2c0.2,0,0.5,0.1,0.6,0.2
	c0.1,0.2,0.2,0.4,0.2,0.6c0,0.2-0.1,0.4-0.2,0.6c-0.2,0.2-0.4,0.3-0.6,0.2c-0.2,0-0.5-0.1-0.6-0.2
	C517.9,168.7,517.8,168.5,517.8,168.3L517.8,168.3z M525.2,179.2c-1.1,0-2.1-0.4-2.8-1.1c-0.7-0.8-1.1-1.9-1.1-3v-0.3
	c0-0.8,0.2-1.5,0.5-2.2c0.3-0.6,0.8-1.2,1.3-1.5c0.6-0.4,1.2-0.6,1.9-0.6c1-0.1,1.9,0.3,2.6,1.1c0.7,0.9,1,2,0.9,3.1v0.6h-5.7
	c0,0.7,0.2,1.5,0.7,2c0.5,0.5,1.1,0.8,1.8,0.8c0.5,0,0.9-0.1,1.3-0.3c0.4-0.2,0.7-0.5,0.9-0.8l0.9,0.7
	C527.7,178.6,526.5,179.2,525.2,179.2L525.2,179.2z M525.1,171.6c-0.6,0-1.1,0.2-1.5,0.6c-0.4,0.5-0.7,1.1-0.7,1.8h4.2v-0.1
	c0-0.6-0.2-1.2-0.6-1.7C526.1,171.8,525.6,171.6,525.1,171.6L525.1,171.6z M535.1,176.8c0-0.4-0.2-0.7-0.4-0.9
	c-0.5-0.3-1-0.5-1.5-0.6c-0.6-0.1-1.2-0.3-1.7-0.6c-0.4-0.2-0.7-0.4-1-0.8c-0.2-0.3-0.3-0.7-0.3-1.1c0-0.7,0.3-1.3,0.9-1.8
	c0.6-0.5,1.4-0.8,2.2-0.7c0.8,0,1.7,0.2,2.3,0.7c0.6,0.5,0.9,1.2,0.9,1.9H535c0-0.4-0.2-0.8-0.5-1c-0.4-0.3-0.8-0.4-1.3-0.4
	c-0.4,0-0.9,0.1-1.2,0.3c-0.3,0.2-0.5,0.5-0.4,0.9c0,0.3,0.1,0.6,0.4,0.8c0.5,0.2,1,0.4,1.5,0.5c0.6,0.1,1.2,0.3,1.8,0.6
	c0.4,0.2,0.7,0.5,1,0.8c0.2,0.3,0.3,0.7,0.3,1.2c0,0.7-0.3,1.4-0.9,1.8c-0.7,0.5-1.5,0.7-2.4,0.7c-0.6,0-1.2-0.1-1.8-0.4
	c-0.5-0.2-0.9-0.6-1.2-1c-0.3-0.4-0.4-0.9-0.4-1.4h1.4c0,0.5,0.2,0.9,0.6,1.2c0.4,0.3,0.9,0.5,1.4,0.4c0.5,0,0.9-0.1,1.3-0.3
	C534.9,177.5,535.1,177.1,535.1,176.8L535.1,176.8z M538.1,174.7c-0.1-1.1,0.3-2.2,0.9-3.1c1.1-1.4,3.1-1.6,4.4-0.5
	c0.1,0.1,0.3,0.2,0.4,0.4l0.1-0.9h1.3v8.3c0.1,1-0.3,1.9-1,2.6c-0.7,0.7-1.7,1-2.6,0.9c-0.6,0-1.2-0.1-1.8-0.4
	c-0.5-0.2-1-0.6-1.3-1.1l0.8-0.9c0.5,0.7,1.4,1.1,2.3,1.1c0.6,0,1.2-0.2,1.6-0.6c0.4-0.5,0.6-1.1,0.6-1.7v-0.7c-0.6,0.7-1.5,1-2.4,1
	c-0.9,0-1.8-0.4-2.4-1.2C538.4,177,538,175.9,538.1,174.7z M539.6,174.9c0,0.8,0.2,1.6,0.6,2.2c0.4,0.5,1,0.8,1.6,0.8
	c0.9,0,1.7-0.5,2-1.2v-3.9c-0.4-0.8-1.1-1.2-2-1.2c-0.7,0-1.3,0.3-1.6,0.8C539.7,173.2,539.5,174,539.6,174.9L539.6,174.9z
	 M547,174.7c0-0.8,0.2-1.5,0.5-2.2c0.3-0.6,0.8-1.2,1.4-1.5c0.6-0.4,1.3-0.6,2-0.5c1.1,0,2.1,0.4,2.8,1.2c0.7,0.9,1.1,2,1.1,3.2v0.1
	c0,0.8-0.1,1.5-0.5,2.2c-0.3,0.6-0.8,1.2-1.4,1.5c-0.6,0.4-1.3,0.6-2,0.5c-1.1,0-2.1-0.4-2.8-1.2c-0.7-0.9-1.1-2-1.1-3.2L547,174.7z
	 M548.5,174.9c0,0.8,0.2,1.6,0.7,2.3c0.7,1,2.1,1.1,3.1,0.4c0.1-0.1,0.3-0.3,0.4-0.4c0.5-0.7,0.7-1.6,0.6-2.4c0-0.8-0.2-1.6-0.7-2.3
	c-0.4-0.6-1.1-0.9-1.8-0.9c-0.7,0-1.3,0.3-1.7,0.9C548.7,173.1,548.4,174,548.5,174.9L548.5,174.9z"/>
<path id="Trazado_119381" class="st3" d="M318.7,440.5c-0.4,0.6-1,1-1.6,1.2c-0.8,0.3-1.6,0.4-2.4,0.4c-0.9,0-1.7-0.2-2.5-0.7
	c-0.7-0.4-1.3-1.1-1.7-1.9c-0.4-0.9-0.6-1.8-0.6-2.8v-1c-0.1-1.4,0.3-2.8,1.2-4c0.8-1,2.1-1.5,3.4-1.4c1-0.1,2.1,0.3,2.9,0.9
	c0.8,0.7,1.2,1.6,1.3,2.6h-1.5c-0.1-1.4-1.3-2.4-2.7-2.3c0,0,0,0,0,0c-0.9-0.1-1.7,0.3-2.3,1.1c-0.6,0.9-0.9,2-0.8,3.1v0.9
	c-0.1,1.1,0.3,2.2,0.9,3c0.6,0.7,1.4,1.2,2.4,1.1c0.5,0,1-0.1,1.5-0.2c0.4-0.1,0.8-0.3,1-0.6v-2.5h-2.6v-1.2h4.1V440.5z
	 M329.9,436.7c0,1-0.2,2-0.6,2.9c-0.3,0.8-0.9,1.4-1.6,1.9c-2,1.3-4.8,0.7-6.1-1.3c-0.1-0.2-0.2-0.4-0.3-0.6
	c-0.4-0.9-0.6-1.9-0.6-2.8V436c0-1,0.2-2,0.6-2.9c0.7-1.6,2.3-2.6,4-2.6c0.9,0,1.7,0.2,2.4,0.7c0.7,0.5,1.3,1.1,1.6,1.9
	c0.4,0.9,0.6,1.9,0.6,2.9V436.7z M328.4,435.9c0.1-1.1-0.2-2.2-0.8-3.1c-0.5-0.7-1.4-1.1-2.3-1.1c-0.9,0-1.7,0.4-2.2,1.1
	c-0.6,0.9-0.9,1.9-0.8,3v0.8c-0.1,1.1,0.2,2.2,0.8,3.1c0.5,0.7,1.4,1.2,2.3,1.1c0.9,0,1.7-0.4,2.2-1.1c0.6-0.9,0.9-2,0.8-3V435.9z
	 M332.2,442v-11.4h3.7c1-0.1,2,0.2,2.8,0.8c0.6,0.6,1,1.4,0.9,2.3c0,0.5-0.2,1-0.5,1.4c-0.3,0.4-0.7,0.7-1.2,0.9
	c0.6,0.2,1.1,0.5,1.5,1c0.4,0.5,0.6,1.1,0.5,1.7c0,0.9-0.3,1.8-1,2.4c-0.8,0.6-1.8,0.9-2.8,0.9H332.2z M333.7,436.7v4.1h2.5
	c0.6,0,1.2-0.2,1.7-0.5c0.4-0.4,0.6-0.9,0.6-1.5c0-1.4-0.7-2.1-2.2-2.1L333.7,436.7z M333.7,435.5h2.3c0.6,0,1.1-0.1,1.6-0.5
	c0.4-0.3,0.6-0.8,0.6-1.3c0-0.5-0.2-1-0.5-1.4c-0.5-0.3-1.1-0.5-1.7-0.4h-2.2V435.5z M348.5,436.7h-4.9v4h5.7v1.2h-7.2v-11.4h7.1
	v1.2h-5.6v3.7h4.9V436.7z M355.4,437.4h-2.7v4.6h-1.5v-11.4h3.8c1.1-0.1,2.1,0.2,3,0.9c0.7,0.6,1.1,1.6,1,2.5c0,0.7-0.2,1.3-0.6,1.9
	c-0.4,0.5-1,1-1.6,1.2l2.7,4.8v0.1h-1.6L355.4,437.4z M352.7,436.2h2.3c0.6,0,1.3-0.2,1.8-0.6c0.4-0.4,0.7-1,0.7-1.5
	c0-0.6-0.2-1.2-0.6-1.6c-0.5-0.4-1.2-0.6-1.8-0.6h-2.3L352.7,436.2z M369.8,442h-1.5l-5.7-8.8v8.8h-1.5v-11.4h1.5l5.7,8.8v-8.8h1.5
	V442z M378.9,439h-4.8l-1.1,3h-1.6l4.3-11.4h1.3l4.4,11.4H380L378.9,439z M374.6,437.8h3.9l-1.9-5.3L374.6,437.8z M383,442v-11.4
	h3.2c0.9,0,1.8,0.2,2.6,0.7c0.8,0.4,1.4,1.1,1.8,1.9c0.4,0.9,0.6,1.8,0.6,2.8v0.7c0,1-0.2,1.9-0.6,2.8c-0.4,0.8-1,1.4-1.8,1.9
	c-0.8,0.4-1.7,0.7-2.7,0.7H383z M384.5,431.9v8.9h1.6c1,0.1,2-0.3,2.7-1.1c0.7-0.9,1-2,1-3.1V436c0.1-1.1-0.3-2.2-0.9-3
	c-0.7-0.7-1.6-1.1-2.6-1.1H384.5z M402.3,436.7c0,1-0.2,2-0.6,2.9c-0.3,0.8-0.9,1.4-1.6,1.9c-2,1.3-4.8,0.7-6.1-1.3
	c-0.1-0.2-0.2-0.4-0.3-0.6c-0.4-0.9-0.6-1.9-0.6-2.8V436c0-1,0.2-2,0.6-2.9c0.7-1.6,2.3-2.6,4-2.6c0.9,0,1.7,0.2,2.4,0.7
	c0.7,0.5,1.3,1.1,1.6,1.9c0.4,0.9,0.6,1.9,0.6,2.9L402.3,436.7z M400.8,435.9c0.1-1.1-0.2-2.2-0.8-3.1c-0.5-0.7-1.4-1.1-2.3-1.1
	c-0.9,0-1.7,0.4-2.2,1.1c-0.6,0.9-0.9,1.9-0.8,3v0.8c-0.1,1.1,0.2,2.2,0.8,3.1c1,1.3,2.8,1.5,4.1,0.5c0.2-0.1,0.3-0.3,0.5-0.5
	c0.6-0.9,0.9-2,0.8-3V435.9z M408.7,437.4H406v4.6h-1.5v-11.4h3.8c1.1-0.1,2.1,0.2,3,0.9c0.7,0.6,1.1,1.6,1,2.5
	c0,0.7-0.2,1.3-0.6,1.9c-0.4,0.5-1,1-1.6,1.2l2.7,4.8v0.1h-1.6L408.7,437.4z M406,436.2h2.3c0.6,0,1.3-0.2,1.8-0.6
	c0.4-0.4,0.7-1,0.7-1.5c0-0.6-0.2-1.2-0.6-1.6c-0.5-0.4-1.2-0.6-1.8-0.6H406L406,436.2z"/>
<path id="Trazado_119382" class="st3" d="M163.7,364h-4.8l-1.1,3h-1.5l4.3-11.4h1.3l4.4,11.4h-1.5L163.7,364z M159.4,362.8h3.9
	l-1.9-5.3L159.4,362.8z M169.2,367h-1.4v-12h1.4V367z M174.9,366c0.5,0,1-0.2,1.4-0.5c0.4-0.3,0.6-0.7,0.6-1.2h1.4
	c0,0.5-0.2,1-0.5,1.4c-0.3,0.4-0.7,0.8-1.2,1c-0.5,0.3-1.1,0.4-1.6,0.4c-1,0-2-0.4-2.7-1.2c-0.7-0.9-1.1-2-1-3.2v-0.2
	c0-0.8,0.1-1.5,0.5-2.2c0.3-0.6,0.7-1.1,1.3-1.5c0.6-0.4,1.3-0.5,2-0.5c0.9,0,1.7,0.3,2.4,0.9c0.6,0.6,1,1.4,1,2.2h-1.4
	c0-0.5-0.2-1-0.6-1.3c-0.4-0.4-0.9-0.5-1.4-0.5c-0.7,0-1.3,0.3-1.7,0.8c-0.4,0.7-0.7,1.5-0.6,2.3v0.3c-0.1,0.8,0.2,1.6,0.6,2.2
	C173.6,365.7,174.2,366,174.9,366L174.9,366z M185.1,367c-0.1-0.3-0.2-0.6-0.2-0.9c-0.6,0.7-1.5,1.1-2.4,1c-0.7,0-1.5-0.2-2.1-0.7
	c-0.5-0.4-0.8-1.1-0.8-1.8c0-0.8,0.3-1.6,1-2.1c0.8-0.5,1.8-0.8,2.8-0.7h1.4v-0.7c0-0.4-0.1-0.9-0.5-1.2c-0.4-0.3-0.9-0.5-1.3-0.4
	c-0.5,0-0.9,0.1-1.3,0.4c-0.3,0.2-0.5,0.6-0.5,0.9h-1.4c0-0.4,0.2-0.9,0.4-1.2c0.3-0.4,0.7-0.7,1.2-0.9c0.5-0.2,1.1-0.4,1.7-0.3
	c0.8,0,1.6,0.2,2.3,0.7c0.6,0.5,0.9,1.2,0.9,2v3.9c0,0.6,0.1,1.3,0.3,1.9v0.1H185.1z M182.7,365.9c0.5,0,0.9-0.1,1.3-0.4
	c0.4-0.2,0.7-0.5,0.9-0.9v-1.7h-1.1c-1.8,0-2.7,0.5-2.7,1.6c0,0.4,0.1,0.8,0.5,1.1C181.9,365.8,182.3,365.9,182.7,365.9L182.7,365.9
	z M190.2,367h-1.4v-12h1.4V367z M192.1,362.7c-0.1-1.1,0.3-2.2,0.9-3.1c1.1-1.4,3.1-1.6,4.4-0.5c0.1,0.1,0.2,0.2,0.4,0.3V355h1.4v12
	h-1.3l-0.1-0.9c-0.6,0.7-1.5,1.1-2.4,1.1c-0.9,0-1.8-0.4-2.4-1.2c-0.7-0.9-1-2-0.9-3.1V362.7z M193.6,362.9c0,0.8,0.2,1.6,0.6,2.2
	c0.4,0.5,1,0.8,1.6,0.8c0.9,0,1.6-0.4,2-1.2v-3.9c-0.4-0.8-1.1-1.2-2-1.2c-0.7,0-1.3,0.3-1.7,0.8C193.7,361.2,193.5,362,193.6,362.9
	L193.6,362.9z M205,367.2c-1.1,0-2.1-0.4-2.8-1.1c-0.7-0.8-1.1-1.9-1.1-3v-0.3c0-0.8,0.2-1.5,0.5-2.2c0.3-0.6,0.8-1.2,1.3-1.5
	c0.6-0.4,1.2-0.6,1.9-0.6c1-0.1,1.9,0.3,2.6,1.1c0.7,0.9,1,2,0.9,3.1v0.6h-5.7c0,0.7,0.2,1.5,0.7,2c0.5,0.5,1.1,0.8,1.8,0.8
	c0.5,0,0.9-0.1,1.3-0.3c0.4-0.2,0.7-0.5,0.9-0.8l0.9,0.7C207.5,366.6,206.3,367.2,205,367.2L205,367.2z M204.8,359.6
	c-0.6,0-1.1,0.2-1.5,0.6c-0.4,0.5-0.7,1.1-0.7,1.8h4.2v-0.1c0-0.6-0.2-1.2-0.6-1.7C205.9,359.8,205.4,359.6,204.8,359.6L204.8,359.6
	z"/>
<g id="Grupo_79311" transform="matrix(0.602, 0.799, -0.799, 0.602, -7441.63, -2825.635)">
	<path id="Polígono_7" class="st4" d="M6900.9-4389.2l15,18h-30L6900.9-4389.2z"/>
	
		<rect id="Rectángulo_33839" x="6897.4" y="-4377.7" transform="matrix(2.518744e-06 1 -1 2.518744e-06 2532.2197 -11270.6436)" class="st4" width="8" height="17"/>
</g>
<g id="Grupo_79315" transform="matrix(-0.995, -0.105, 0.105, -0.995, -267.906, -17727.734)">
	<path id="Polígono_7-2" class="st4" d="M-2701.8-17804.7l15,18h-30L-2701.8-17804.7z"/>
	
		<rect id="Rectángulo_33839-2" x="-2705.3" y="-17793.2" transform="matrix(-2.538940e-06 -1 1 -2.538940e-06 15083.3965 -20486.0391)" class="st4" width="8" height="17"/>
</g>
<g id="Grupo_79318" transform="translate(6518.817 -14258.022) rotate(-124)">
	<path id="Polígono_7-3" class="st4" d="M-8767.1-13224.3l15,18h-30L-8767.1-13224.3z"/>
	
		<rect id="Rectángulo_33839-3" x="-8770.6" y="-13212.8" transform="matrix(-2.702122e-06 -1 1 -2.702122e-06 4437.6543 -21970.9883)" class="st4" width="8" height="17"/>
</g>
<g id="Grupo_79319" transform="translate(7889.217 -5770.045) rotate(-67)">
	<path id="Polígono_7-4" class="st4" d="M-8680.3-4637.2l15,18h-30L-8680.3-4637.2z"/>
	
		<rect id="Rectángulo_33839-4" x="-8688.3" y="-4621.2" transform="matrix(-1 2.367569e-06 -2.367569e-06 -1 -17359.6289 -9234.4502)" class="st4" width="17" height="8"/>
</g>
<g id="Grupo_79320" transform="translate(2892.335 -395.973) rotate(-19)">
	<path id="Polígono_7-5" class="st4" d="M-2828.1-240l15,18l-30,0L-2828.1-240z"/>
	
		<rect id="Rectángulo_33839-5" x="-2836.1" y="-224" transform="matrix(-1 2.840756e-06 -2.840756e-06 -1 -5655.2085 -439.9312)" class="st4" width="17" height="8"/>
</g>
<g id="Grupo_79321" transform="translate(-4325.166 -452.728) rotate(28)">
	<path id="Polígono_7-6" class="st4" d="M4226.3-1557.5l15,18h-30L4226.3-1557.5z"/>
	
		<rect id="Rectángulo_33839-6" x="4222.8" y="-1546" transform="matrix(2.706837e-06 1 -1 2.706837e-06 2689.2383 -5764.3022)" class="st4" width="8" height="17"/>
</g>
<g id="Grupo_79317" transform="matrix(-0.766, 0.643, -0.643, -0.766, -6859.165, -15229.752)">
	<path id="Polígono_7-7" class="st4" d="M4206.5-16476.2l15,18h-30L4206.5-16476.2z"/>
	<rect id="Rectángulo_33839-7" x="4198.5" y="-16460.2" class="st4" width="17" height="8"/>
</g>
</svg>
