<svg xmlns="http://www.w3.org/2000/svg" width="99" height="100" viewBox="0 0 99 100">
  <g id="Grupo_85819" data-name="Grupo 85819" transform="translate(-758 -2626)">
    <ellipse id="Elipse_4697" data-name="Elipse 4697" cx="49.5" cy="50" rx="49.5" ry="50" transform="translate(758 2626)" fill="#b2e4f7"/>
    <g id="Grupo_80356" data-name="Grupo 80356" transform="translate(-1154 1896)">
      <path id="Trazado_115836" data-name="Trazado 115836" d="M1931.534,790.074a1.367,1.367,0,0,1-1.814-.075q-3.216-2.45-6.184-5.192a7.774,7.774,0,0,1-2.535-3.678v-1.6a7.889,7.889,0,0,1,2.553-3.665,63.493,63.493,0,0,1,23.162-14.248,45.371,45.371,0,0,1,22.616-1.99,54.624,54.624,0,0,1,18.189,6.656,71.808,71.808,0,0,1,8.23,5.508,1.427,1.427,0,0,1,.644,1.78c-.384.731-.6.825-1.569.669a3.937,3.937,0,0,1-1.08-.7,60.568,60.568,0,0,0-18.017-9.719,16.9,16.9,0,0,1,3.38,3.477,21.407,21.407,0,0,1,2.635,21.573,23.774,23.774,0,0,1-4.547,6.718c-.43.466-.971.8-1.384,1.2a53.309,53.309,0,0,0,7.9-3.293,63.87,63.87,0,0,0,13-8.833c1.022-.9,1.987-1.855,2.939-2.824a1.921,1.921,0,0,0,.013-3.02c-.273-.293-.579-.555-.837-.86a1.879,1.879,0,0,1-.609-1.426c.078-.277.142-.564.454-.685a1.307,1.307,0,0,1,1.975.2,6.934,6.934,0,0,1,2,2.553,4.583,4.583,0,0,1-1.149,5.143,62.575,62.575,0,0,1-27.287,16.233,45.069,45.069,0,0,1-25-.178,59.913,59.913,0,0,1-14.261-6.29,1.322,1.322,0,0,1-.649-1.813,1.26,1.26,0,0,1,1.891-.467c.742.364,1.445.8,2.159,1.222a56.441,56.441,0,0,0,9.729,4.3,21.554,21.554,0,0,1-3.227-29.427,21.894,21.894,0,0,1,3.37-3.482,59.824,59.824,0,0,0-18,9.713,50.917,50.917,0,0,0-5.8,5.136c-1.114,1.164-1.116,2.093-.012,3.259a54.109,54.109,0,0,0,6.616,5.776,2.8,2.8,0,0,1,.843.839A1.051,1.051,0,0,1,1931.534,790.074Z" transform="translate(0 0)"/>
      <path id="Trazado_115837" data-name="Trazado 115837" d="M1933.846,797.892c.538-.931.464-1.365-.417-2.033a66.047,66.047,0,0,1-6.678-5.722c-1.4-1.392-1.4-2.621,0-3.972a48.061,48.061,0,0,1,5.679-4.908,77.61,77.61,0,0,1,14.041-6.246c.554-.193.566-.183.876.193a21.9,21.9,0,0,0-3.6,7.328,21.036,21.036,0,0,0,1.715,15.574,20.477,20.477,0,0,0,5.148,6.354,1.481,1.481,0,0,1,.4.393,39.156,39.156,0,0,1-6.765-2.512,58.412,58.412,0,0,1-5.628-3,1.431,1.431,0,0,0-2,.182C1935.667,799.02,1934.933,798.156,1933.846,797.892Z" transform="translate(-2.313 -7.818)" fill="#d1eef1"/>
      <path id="Trazado_115838" data-name="Trazado 115838" d="M2066.347,788.206a1.345,1.345,0,0,0,1.573-.524c.1.554.581.762.948,1.08.453.391.888.8,1.331,1.2l-.311.664a14.453,14.453,0,0,0-2.823-1.781C2066.787,788.685,2066.379,788.651,2066.347,788.206Z" transform="translate(-71.526 -14.115)" fill="#b1c9cc"/>
      <path id="Trazado_115839" data-name="Trazado 115839" d="M1973.438,771.549a4.459,4.459,0,0,1,.983-.909,21.816,21.816,0,0,1,6.3-1.32,39.711,39.711,0,0,1,7.088-.352,37.885,37.885,0,0,1,5.471.542c.475.234.265.5.015.74a5.247,5.247,0,0,0-1.063,1.769c-.312.688-.143,1.284.378,1.518s.989.021,1.359-.626c.132-.232.268-.46.4-.691.593-1.017.583-1.137-.161-2.1-.105-.136-.194-.268.025-.383a10.871,10.871,0,0,1,4.214.9,18.533,18.533,0,0,1,6.746,12.187,18.922,18.922,0,0,1-8.882,18.514c-.136.08-.284.138-.427.207a21.18,21.18,0,0,1-7.9.606c-.371-.022-.744-.051-1.115-.08-.745-.059-1-.344-.92-1.089a7.681,7.681,0,0,0,.089-1.672c-.05-.463-.233-.83-.757-.882a.942.942,0,0,0-1.053.672,6.161,6.161,0,0,0-.169,1.343c-.125.836-.4,1.037-1.195.773a16.359,16.359,0,0,1-10.1-8.737,5.133,5.133,0,0,1-.792-2.238c.139-.391.519-.4.829-.525.524-.209.982-.513.836-1.156-.14-.623-.652-.757-1.234-.736-.376.014-.784.242-1.125-.12a6.179,6.179,0,0,1-.535-2.644,25.722,25.722,0,0,1,2.228-12.776A8.232,8.232,0,0,1,1973.438,771.549Z" transform="translate(-24.439 -4.886)" fill="#79b7e8"/>
      <path id="Trazado_115840" data-name="Trazado 115840" d="M2047.281,781.91c1.027.589,2.047,1.19,3.084,1.76a.713.713,0,0,1,.457.663,1.6,1.6,0,0,0,.548,1.2c.288.278.577.555.856.841a2.312,2.312,0,0,1-.035,3.58,62.967,62.967,0,0,1-9.584,7.826,58.471,58.471,0,0,1-14.123,6.97c-.267.088-.526.281-.882.166a21.352,21.352,0,0,0,5.3-6.116,21.032,21.032,0,0,0,2.46-14.793,21.673,21.673,0,0,0-3.947-8.8c.313-.374.324-.384.879-.189,2.032.712,4.064,1.429,6.04,2.288a62.238,62.238,0,0,1,7.994,3.958Z" transform="translate(-52.459 -7.818)" fill="#d1eef1"/>
      <path id="Trazado_115841" data-name="Trazado 115841" d="M1968.942,792.72a17.35,17.35,0,0,0,4.56,7.2,17.958,17.958,0,0,0,6.382,3.679c.649.228.851-.073.9-.639a5.9,5.9,0,0,1,.082-1.271,1.161,1.161,0,0,1,1.488-.958c.711.115.832.653.837,1.253a6.425,6.425,0,0,1-.136,1.584c-.112.46,0,.8.622.853a36.435,36.435,0,0,0,4.942.13c1.4-.079,2.788-.3,4.181-.462a16.455,16.455,0,0,1-6.8,2.389,18.748,18.748,0,0,1-21.126-14.755c-1.457-6.677.44-12.546,5.214-17.459a1.479,1.479,0,0,1,.263-.174,10.553,10.553,0,0,1-.816,2.149,26.036,26.036,0,0,0-1.587,6.794,23.552,23.552,0,0,0,.348,7.282c-.012.036-.025.071-.037.106a1.406,1.406,0,0,1-.677.375.919.919,0,0,0-.636,1.121.97.97,0,0,0,1.137.746c.258-.02.513-.14.774-.02Z" transform="translate(-21.357 -7.425)" fill="#6ca4d0"/>
      <path id="Trazado_115842" data-name="Trazado 115842" d="M1997.117,767.146a60.116,60.116,0,0,0-8.315-.478,54.66,54.66,0,0,0-10.346,1.39,3.068,3.068,0,0,1-.394.045,18.823,18.823,0,0,1,24.025,0l-4.321-.8C1997.5,767.438,1997.308,767.306,1997.117,767.146Z" transform="translate(-28.081 -2.348)" fill="#669cc5"/>
      <path id="Trazado_115843" data-name="Trazado 115843" d="M1953.875,771.742c-.366-.385-.694-.022-1.007.082a93.876,93.876,0,0,0-13.461,5.83,2.624,2.624,0,0,1-.449.141,45.408,45.408,0,0,1,6.142-4.273,55.666,55.666,0,0,1,12.136-5.581c.072-.023.149-.029.478-.09A27.828,27.828,0,0,0,1953.875,771.742Z" transform="translate(-8.837 -4.356)" fill="#b2cacd"/>
      <path id="Trazado_115844" data-name="Trazado 115844" d="M2046.415,777.809a1.513,1.513,0,0,1-.734-.287,94.758,94.758,0,0,0-13.318-5.748c-.257-.087-.568-.408-.861-.022a30.9,30.9,0,0,0-3.714-3.875c.471.154.943.306,1.414.463s.959.312,1.43.491a61.867,61.867,0,0,1,15.574,8.75A1.723,1.723,0,0,1,2046.415,777.809Z" transform="translate(-52.551 -4.368)" fill="#b2cacd"/>
      <path id="Trazado_115845" data-name="Trazado 115845" d="M1990.65,779.127a11.1,11.1,0,0,1,5.376,1.247.907.907,0,0,0,1.133-.1,5.819,5.819,0,1,1,5.554,10.085.958.958,0,0,0-.726.941,11.058,11.058,0,1,1-13.792-11.812A10,10,0,0,1,1990.65,779.127Z" transform="translate(-29.001 -9.864)"/>
      <path id="Trazado_115846" data-name="Trazado 115846" d="M2013.983,770.41a1.042,1.042,0,0,1,.65.16c1.047.742,1.141,1.163.513,2.312-.19.348-.4.689-.591,1.036a1.153,1.153,0,0,1-1.543.558,1.212,1.212,0,0,1-.591-1.542A7.907,7.907,0,0,1,2013.983,770.41Z" transform="translate(-44.947 -5.611)" fill="#6ca5d1"/>
      <path id="Trazado_115847" data-name="Trazado 115847" d="M2028.919,809.679a7.675,7.675,0,0,1-2.263-.656,1.1,1.1,0,0,1-.583-1.484,1.14,1.14,0,0,1,1.492-.683c.582.183,1.185.307,1.747.537a1.112,1.112,0,0,1,.788,1.244A1.245,1.245,0,0,1,2028.919,809.679Z" transform="translate(-51.652 -23.514)" fill="#6ca5d1"/>
      <path id="Trazado_115848" data-name="Trazado 115848" d="M2023.555,819.687a4.217,4.217,0,0,1-2.589-2.119.941.941,0,0,1,.349-1c.357-.242.725-.545,1.237-.256a7.452,7.452,0,0,1,1.913,1.538.919.919,0,0,1,.177,1.167C2024.378,819.461,2024.051,819.774,2023.555,819.687Z" transform="translate(-49.182 -28.146)" fill="#6ca5d1"/>
      <path id="Trazado_115849" data-name="Trazado 115849" d="M1985.9,774.75a1.106,1.106,0,0,1-.784,1.115,1.009,1.009,0,0,1-1.208-.339,7.99,7.99,0,0,1-1.3-2.082c-.217-.5.119-.808.425-1.1.322-.3.719-.535,1.147-.241A4.524,4.524,0,0,1,1985.9,774.75Z" transform="translate(-30.284 -6.383)" fill="#6ca5d1"/>
      <path id="Trazado_115850" data-name="Trazado 115850" d="M1972.022,805.864c.448-.013.87-.174,1.328-.174a1.138,1.138,0,0,1,1.186.961,1.121,1.121,0,0,1-.748,1.261,7.116,7.116,0,0,1-1.124.359l-.008-.008a2.975,2.975,0,0,1-.641-2.389Z" transform="translate(-25.079 -22.976)" fill="#6ca4d0"/>
      <path id="Trazado_115851" data-name="Trazado 115851" d="M1970.522,806.054l.642,2.389c-.448.028-.882.286-1.331.147a1.139,1.139,0,0,1-.9-.995,1.09,1.09,0,0,1,.688-1.219C1969.919,806.258,1970.223,806.161,1970.522,806.054Z" transform="translate(-23.587 -23.156)" fill="#6295bb"/>
      <path id="Trazado_115852" data-name="Trazado 115852" d="M1996.711,832.716l2.012.413c-.288.459-.643.692-1.093.566S1996.723,833.382,1996.711,832.716Z" transform="translate(-37.258 -36.276)" fill="#6295bc"/>
      <path id="Trazado_115853" data-name="Trazado 115853" d="M1993.328,801.256a8.659,8.659,0,1,1,3.516-16.569c.565.252.722.5.527,1.143a5.724,5.724,0,0,0,3.743,7.008c.81.246.875.552.734,1.277A8.756,8.756,0,0,1,1993.328,801.256Z" transform="translate(-31.326 -12.277)" fill="#3a6589"/>
      <path id="Trazado_115854" data-name="Trazado 115854" d="M2013.988,787.248a3.436,3.436,0,0,1,3.475-3.428,3.451,3.451,0,1,1-3.475,3.428Z" transform="translate(-45.76 -12.214)" fill="#fefefe"/>
    </g>
  </g>
</svg>
