<svg xmlns="http://www.w3.org/2000/svg" width="99" height="100" viewBox="0 0 99 100">
  <g id="Grupo_85820" data-name="Grupo 85820" transform="translate(-758 -2788)">
    <ellipse id="Elipse_4699" data-name="Elipse 4699" cx="49.5" cy="50" rx="49.5" ry="50" transform="translate(758 2788)" fill="#b2e4f7"/>
    <g id="Grupo_80357" data-name="Grupo 80357" transform="translate(-1339.418 2080.174)">
      <path id="Trazado_115855" data-name="Trazado 115855" d="M2197.842,743.957a1.224,1.224,0,0,1,1.243.735,19.421,19.421,0,0,1,2.236,6.738c.062.461.234.523.634.529a28.3,28.3,0,0,1,5.252.217,11.461,11.461,0,0,1,9.037,9.559c.013.09.018.177.121.211v1.489a1.033,1.033,0,0,0,0,.812v.406a4.209,4.209,0,0,0-.323,1.274,11.177,11.177,0,0,1-10.681,8.552c-9.124.079-18.248.025-27.372.032a1.225,1.225,0,0,1-1.164-.658c-.205-1.2.1-1.541,1.409-1.543q9.539-.012,19.079,0c2.526,0,5.052.039,7.577-.01a9.043,9.043,0,0,0,5.005-16.677,9.543,9.543,0,0,0-5.131-1.461c-1.285,0-2.571.009-3.857,0-1.174-.012-1.536-.388-1.664-1.567a18.585,18.585,0,0,0-1.934-6.513c-.072-.14-.158-.274-.225-.417A1.088,1.088,0,0,1,2197.842,743.957Z" transform="translate(-34.66 -11.38)"/>
      <path id="Trazado_115856" data-name="Trazado 115856" d="M2116.881,742.733a1.059,1.059,0,0,1-.2-1.555,14.252,14.252,0,0,1,13.406-6.872.778.778,0,0,0,.881-.476,19.887,19.887,0,0,1,14.891-10.772c.264-.046.588.041.793-.232h.676c.075.084.175.066.271.07s.2.014.271-.07h2.165a.175.175,0,0,0,.271,0h.406c.911.175,1.828.326,2.733.529a19.7,19.7,0,0,1,9.277,4.964c.574.537.594.91.129,1.662a1.138,1.138,0,0,1-1.674-.08c-.624-.517-1.212-1.076-1.879-1.544a17.563,17.563,0,0,0-8.838-3.243,15.848,15.848,0,0,0-6.085.507,17.71,17.71,0,0,0-10.995,8.367c-.347.581-.62,1.2-.927,1.8a1.306,1.306,0,0,1-1.621.8,2.652,2.652,0,0,0-.527-.047,12.017,12.017,0,0,0-11.479,5.4,4.05,4.05,0,0,1-.573.748A.968.968,0,0,1,2116.881,742.733Z" transform="translate(-2.162 0)"/>
      <path id="Trazado_115857" data-name="Trazado 115857" d="M2112.538,773.076c.063-.7.083-1.421.966-1.634.873-.1,1.292.274,1.29,1.174,0,.7-.163,1.382-.162,2.086a12.541,12.541,0,0,0,10.211,12.186,19.939,19.939,0,0,0,3.5.233c3.515,0,7.03-.023,10.545.008.728.245.924.5.87,1.119-.26.863-.5,1.056-1.388,1.056-3.81,0-7.62.023-11.43,0a14.679,14.679,0,0,1-14.371-12.422c-.024-.141.054-.329-.152-.4v-2.03c.143-.231.036-.485.07-.726A1.8,1.8,0,0,1,2112.538,773.076Z" transform="translate(0 -26.178)"/>
      <path id="Trazado_115858" data-name="Trazado 115858" d="M2162.557,857.927c-.35-.132-.707-.252-1.051-.4a4.872,4.872,0,0,1-2.682-6.222,17.4,17.4,0,0,1,3.833-5.9.894.894,0,0,1,1.383-.108c1.895,2.038,3.674,4.186,4.2,7.022a4.788,4.788,0,0,1-3.771,5.484c-.1.022-.23-.008-.285.125Z" transform="translate(-24.833 -65.814)"/>
      <path id="Trazado_115859" data-name="Trazado 115859" d="M2199.254,857.927c-.146-.216-.4-.169-.6-.236a4.844,4.844,0,0,1-3.211-5.956,16.09,16.09,0,0,1,4.023-6.39.86.86,0,0,1,1.33-.028c1.847,1.99,3.561,4.092,4.147,6.831a4.8,4.8,0,0,1-3.77,5.66c-.1.022-.23-.007-.29.12Z" transform="translate(-44.615 -65.814)"/>
      <path id="Trazado_115860" data-name="Trazado 115860" d="M2262.406,786.993a.6.6,0,0,1,0-.812Z" transform="translate(-80.701 -34.124)" fill="#1a1a1a"/>
      <path id="Trazado_115861" data-name="Trazado 115861" d="M2112.538,775l0,.674c-.031.073-.071.083-.122.018v-.677A.264.264,0,0,0,2112.538,775Z" transform="translate(0 -28.103)" fill="#696969"/>
      <path id="Trazado_115862" data-name="Trazado 115862" d="M2112.418,776.48a.472.472,0,0,0,.122-.018c0,.239.1.495-.122.695Z" transform="translate(0 -28.889)" fill="#1f1f1f"/>
      <path id="Trazado_115863" data-name="Trazado 115863" d="M2183.66,722.939c-.109.013-.222.035-.262-.114h.271c.046.029.06.055.042.079A.066.066,0,0,1,2183.66,722.939Z" transform="translate(-38.231 0)" fill="#616161"/>
      <path id="Trazado_115864" data-name="Trazado 115864" d="M2183.966,722.939c0-.037.007-.076.009-.114h.271A.222.222,0,0,1,2183.966,722.939Z" transform="translate(-38.537 0)" fill="#444"/>
      <path id="Trazado_115865" data-name="Trazado 115865" d="M2189.535,722.826c-.09.179-.18.142-.271,0Z" transform="translate(-41.391 0)" fill="#525252"/>
      <path id="Trazado_115866" data-name="Trazado 115866" d="M2148.656,764.5a1.23,1.23,0,0,0-.821-.974,2.128,2.128,0,0,0-.736-.042q-4.731,0-9.462,0a2.79,2.79,0,0,1-1.366-.3,12.984,12.984,0,0,1-7.221-10.314c-.653-5.71,1.538-10.254,6.421-13.412a4.733,4.733,0,0,1,1.541-.658,2.34,2.34,0,0,1,.533.025,1.175,1.175,0,0,0,1.533-.713,4.745,4.745,0,0,1,2.462-.565,10.491,10.491,0,0,1,2.625.066c.5.1.673-.246.844-.6a19.194,19.194,0,0,1,3.879-5.4,18.808,18.808,0,0,1,6.156-4.062,4.478,4.478,0,0,1,2.193-.149A17.243,17.243,0,0,1,2167.8,732c.545.49,1.06.843,1.789.415a10.3,10.3,0,0,1,1.824,2.159c.176.245.323.478.669.438-.836.5-.978.9-.538,1.712a18.128,18.128,0,0,1,2.156,7.255c.058.736.431,1.036,1.212,1.057,1.869.048,3.744-.119,5.609.1a9.369,9.369,0,0,1,8.053,9.238,9.231,9.231,0,0,1-8.13,9.063,15.974,15.974,0,0,1-1.686.09q-13.192.008-26.385.005c-1.072,0-1.391.341-1.307,1.375a.614.614,0,0,0-.662-.414C2149.823,764.532,2149.238,764.5,2148.656,764.5Z" transform="translate(-8.898 -2.432)" fill="#ebf5fd"/>
      <path id="Trazado_115867" data-name="Trazado 115867" d="M2145.034,829.8a4.878,4.878,0,0,1-4.721-6.1,14.944,14.944,0,0,1,3.128-5.455,10.625,10.625,0,0,1,.843-.966.931.931,0,0,1,1.438-.06c1.806,1.964,3.5,4.029,4.1,6.709A4.84,4.84,0,0,1,2145.034,829.8Z" transform="translate(-14.939 -50.671)"/>
      <path id="Trazado_115868" data-name="Trazado 115868" d="M2186.668,824.915a4.751,4.751,0,0,1-2.835,4.4,4.6,4.6,0,0,1-5.129-.627,4.558,4.558,0,0,1-1.678-4.941,15.664,15.664,0,0,1,4.032-6.527.888.888,0,0,1,1.386-.02,16.149,16.149,0,0,1,4.081,6.577A4.42,4.42,0,0,1,2186.668,824.915Z" transform="translate(-34.707 -50.657)"/>
      <path id="Trazado_115869" data-name="Trazado 115869" d="M2218.524,829.788a4.874,4.874,0,0,1-4.7-6.274,16.4,16.4,0,0,1,3.965-6.272.916.916,0,0,1,1.438-.012,15.916,15.916,0,0,1,4.017,6.465A4.861,4.861,0,0,1,2218.524,829.788Z" transform="translate(-54.51 -50.663)"/>
      <path id="Trazado_115870" data-name="Trazado 115870" d="M2129.383,752.1a15.412,15.412,0,0,0-4.421,3.259,12.947,12.947,0,0,0-3.289,6.807,13.369,13.369,0,0,0,7.629,14.441,1.774,1.774,0,0,0,.795.1q4.7,0,9.4.005c.239,0,.5-.082.712.111-4.014,0-8.029.031-12.043-.006a12.622,12.622,0,0,1-12.432-13.159c.02-.427.091-.851.137-1.277.1-.947-.156-1.275-1.1-1.391a.907.907,0,0,0,.555-.663c.172-.636.435-1.247.659-1.868.9.251,1.081.155,1.65-.682a12.284,12.284,0,0,1,11.483-5.728A1.933,1.933,0,0,1,2129.383,752.1Z" transform="translate(-1.268 -15.729)" fill="#daeafa"/>
      <path id="Trazado_115871" data-name="Trazado 115871" d="M2169.077,727.316c-2.554-.09-4.447,1.394-6.355,2.755a17.9,17.9,0,0,0-5.711,6.957c-.293.609-.583.734-1.286.648a11.423,11.423,0,0,0-4.475.3,2.841,2.841,0,0,1-.332.053,17.749,17.749,0,0,1,12.746-10.411A14.1,14.1,0,0,1,2169.077,727.316Z" transform="translate(-20.737 -2.343)" fill="#daeafa"/>
      <path id="Trazado_115872" data-name="Trazado 115872" d="M2168.312,852.775a10.9,10.9,0,0,1,1.978,3.488,2.83,2.83,0,0,1-2.755,3.787,3.117,3.117,0,0,1-1.258-2.412,6.21,6.21,0,0,1,1.177-3.917C2167.677,853.36,2167.775,852.86,2168.312,852.775Z" transform="translate(-28.998 -69.993)" fill="#8bc9fb"/>
      <path id="Trazado_115873" data-name="Trazado 115873" d="M2166.508,851.735a7.654,7.654,0,0,0-1.877,4.72,4.943,4.943,0,0,0,1.1,2.555,2.808,2.808,0,0,1-2.74-3.482,12.575,12.575,0,0,1,2.576-4.523c.181-.236.294-.2.438.02C2166.165,851.266,2166.34,851.5,2166.508,851.735Z" transform="translate(-27.194 -68.953)" fill="#64b7fb"/>
      <path id="Trazado_115874" data-name="Trazado 115874" d="M2205,852.765a9.882,9.882,0,0,1,2.059,3.8,2.81,2.81,0,0,1-2.735,3.483,2.871,2.871,0,0,1-1.374-2.407,3.848,3.848,0,0,1,.279-2.049,14.4,14.4,0,0,1,1.2-2.335C2204.563,853.045,2204.658,852.748,2205,852.765Z" transform="translate(-48.743 -69.988)" fill="#8bc9fb"/>
      <path id="Trazado_115875" data-name="Trazado 115875" d="M2203.257,851.677a9.032,9.032,0,0,0-1.867,3.917,3.755,3.755,0,0,0,1.192,3.364,2.847,2.847,0,0,1-2.746-3.861,14.2,14.2,0,0,1,2.683-4.354A3.232,3.232,0,0,1,2203.257,851.677Z" transform="translate(-46.998 -68.899)" fill="#63b7fb"/>
      <path id="Trazado_115876" data-name="Trazado 115876" d="M2149.98,824.838a10.092,10.092,0,0,1,1.954,3.634,2.815,2.815,0,0,1-2.746,3.524,3.49,3.49,0,0,1-1.31-3.672,9.5,9.5,0,0,1,1.433-3.093C2149.467,825.011,2149.592,824.686,2149.98,824.838Z" transform="translate(-19.045 -54.925)" fill="#8bc9fb"/>
      <path id="Trazado_115877" data-name="Trazado 115877" d="M2148.242,823.628c-.407.061-.477.446-.661.709a7.741,7.741,0,0,0-1.281,2.883,3.811,3.811,0,0,0,1.149,3.567,2.828,2.828,0,0,1-2.758-3.745,14.041,14.041,0,0,1,2.7-4.489A5.288,5.288,0,0,1,2148.242,823.628Z" transform="translate(-17.306 -53.715)" fill="#64b7fb"/>
      <path id="Trazado_115878" data-name="Trazado 115878" d="M2186.727,824.811a9.984,9.984,0,0,1,1.952,3.577,2.822,2.822,0,0,1-2.765,3.583,3.186,3.186,0,0,1-1.355-3.052,7.834,7.834,0,0,1,1.657-3.938C2186.33,824.81,2186.491,824.671,2186.727,824.811Z" transform="translate(-38.853 -54.9)" fill="#8bc9fb"/>
      <path id="Trazado_115879" data-name="Trazado 115879" d="M2184.951,823.7c-.675.281-.831.979-1.124,1.52-1.138,2.1-1.363,3.656.31,5.64a2.813,2.813,0,0,1-2.8-3.454,12.328,12.328,0,0,1,2.626-4.59c.144-.184.245-.148.361.016C2184.53,823.125,2184.741,823.413,2184.951,823.7Z" transform="translate(-37.077 -53.792)" fill="#64b7fb"/>
      <path id="Trazado_115880" data-name="Trazado 115880" d="M2223.333,824.512a10.212,10.212,0,0,1,2.07,3.655,2.817,2.817,0,0,1-2.768,3.673,2.894,2.894,0,0,1-1.314-2.581A6.88,6.88,0,0,1,2223.333,824.512Z" transform="translate(-58.657 -54.77)" fill="#8bc9fb"/>
      <path id="Trazado_115881" data-name="Trazado 115881" d="M2221.547,823.409c-.376.663-.762,1.322-1.127,1.991a4.272,4.272,0,0,0,.43,5.337,2.81,2.81,0,0,1-2.75-3.53,13.429,13.429,0,0,1,2.785-4.743Z" transform="translate(-56.871 -53.668)" fill="#64b7fb"/>
    </g>
  </g>
</svg>
