<svg xmlns="http://www.w3.org/2000/svg" width="229.026" height="68" viewBox="0 0 229.026 68">
  <g id="Grupo_85821" data-name="Grupo 85821" transform="translate(-1048.974 -4032)">
    <path id="Trazado_119379" data-name="Trazado 119379" d="M5.933,13.52,8.481,4.2h3.445L7.62,17H4.245L-.026,4.2H3.393Zm11,3.656a4.889,4.889,0,0,1-3.542-1.305,4.507,4.507,0,0,1-1.354-3.4v-.246a5.84,5.84,0,0,1,.541-2.575,3.955,3.955,0,0,1,1.578-1.727,4.763,4.763,0,0,1,2.461-.611,4.117,4.117,0,0,1,3.164,1.244,4.887,4.887,0,0,1,1.16,3.467v1.151H15.056a2.135,2.135,0,0,0,.694,1.257,2.066,2.066,0,0,0,1.389.457,2.662,2.662,0,0,0,2.2-.984l1.354,1.6a3.784,3.784,0,0,1-1.569,1.217A5.3,5.3,0,0,1,16.937,17.176ZM16.6,9.6q-1.3,0-1.547,1.723h2.988v-.229a1.467,1.467,0,0,0-.36-1.1A1.434,1.434,0,0,0,16.6,9.6Zm11.285.571-.976-.07a1.752,1.752,0,0,0-1.793.879V17H22.157V7.49h2.777l.1,1.222a2.294,2.294,0,0,1,2.083-1.4,2.888,2.888,0,0,1,.826.105Zm.527,2a5.809,5.809,0,0,1,.976-3.56,3.211,3.211,0,0,1,2.725-1.3,2.731,2.731,0,0,1,2.145,1V3.5H37.23V17H34.567l-.149-1.02a2.8,2.8,0,0,1-2.32,1.2,3.205,3.205,0,0,1-2.689-1.3A5.993,5.993,0,0,1,28.415,12.175Zm2.962.185q0,2.531,1.477,2.531a1.458,1.458,0,0,0,1.406-.826V10.443A1.419,1.419,0,0,0,32.871,9.6q-1.371,0-1.485,2.215Zm12.138,4.816a4.889,4.889,0,0,1-3.542-1.305,4.507,4.507,0,0,1-1.354-3.4v-.246a5.84,5.84,0,0,1,.541-2.575,3.955,3.955,0,0,1,1.578-1.727A4.763,4.763,0,0,1,43.2,7.314a4.117,4.117,0,0,1,3.164,1.244,4.887,4.887,0,0,1,1.16,3.467v1.151H41.634a2.135,2.135,0,0,0,.694,1.257,2.066,2.066,0,0,0,1.389.457,2.662,2.662,0,0,0,2.2-.984l1.354,1.6A3.784,3.784,0,0,1,45.7,16.723,5.3,5.3,0,0,1,43.515,17.176ZM43.181,9.6q-1.3,0-1.547,1.723h2.988v-.229a1.467,1.467,0,0,0-.36-1.1A1.434,1.434,0,0,0,43.181,9.6Z" transform="translate(1049 4052)" fill="#12263f"/>
    <g id="Grupo_78330" data-name="Grupo 78330">
      <g id="Polígono_1" data-name="Polígono 1" transform="translate(1278 4032) rotate(90)" fill="#498d03">
        <path d="M 67.13478851318359 58.5 L 0.8652116656303406 58.5 L 34 1.001396775245667 L 67.13478851318359 58.5 Z" stroke="none"/>
        <path d="M 34 2.002811431884766 L 1.730430603027344 58 L 66.26956939697266 58 L 34 2.002811431884766 M 34 0 L 68 59 L 0 59 L 34 0 Z" stroke="none" fill="#498d03"/>
      </g>
      <g id="Polígono_2" data-name="Polígono 2" transform="translate(1160 4100) rotate(-90)" fill="#498d03">
        <path d="M 67.13478851318359 58.5 L 0.8652116656303406 58.5 L 34 1.001396775245667 L 67.13478851318359 58.5 Z" stroke="none"/>
        <path d="M 34 2.002811431884766 L 1.730430603027344 58 L 66.26956939697266 58 L 34 2.002811431884766 M 34 0 L 68 59 L 0 59 L 34 0 Z" stroke="none" fill="#498d03"/>
      </g>
    </g>
  </g>
</svg>
