<svg xmlns="http://www.w3.org/2000/svg" xmlns:xlink="http://www.w3.org/1999/xlink" width="496.516" height="457" viewBox="0 0 496.516 457">
  <defs>
    <clipPath id="clip-path">
      <rect id="Rectángulo_33841" data-name="Rectángulo 33841" width="281" height="457" transform="translate(861.333 94)" fill="#fff" stroke="#707070" stroke-width="1"/>
    </clipPath>
  </defs>
  <g id="Grupo_79463" data-name="Grupo 79463" transform="translate(-852.333 -125)">
    <g id="Grupo_79461" data-name="Grupo 79461" transform="translate(12016.816 11666.738)">
      <path id="Trazado_114577" data-name="Trazado 114577" d="M21,0H310.032a21,21,0,0,1,21,21V194.169a21,21,0,0,1-21,21H21a21,21,0,0,1-21-21V21A21,21,0,0,1,21,0Z" transform="translate(-10999 -11474.738)" fill="#fff"/>
      <path id="Trazado_114490" data-name="Trazado 114490" d="M1797.617,779.612l4.844-11.4a2.663,2.663,0,0,1,4.014-1.114l6.471,4.692a2.663,2.663,0,0,0,4.106-1.366l3.727-12a2.663,2.663,0,0,1,3.421-1.724l3.568,1.247a2.663,2.663,0,0,0,3.019-.929l.567-.766a2.663,2.663,0,0,1,4.8,1.585v22.818a2.663,2.663,0,0,1-2.663,2.663h-33.427A2.663,2.663,0,0,1,1797.617,779.612Z" transform="translate(-12532.314 -12067.172)" fill="#d4e157"/>
      <path id="Trazado_114491" data-name="Trazado 114491" d="M1701.452,776.628h-.085l-99.657-1.635a4.971,4.971,0,0,1-4.906-4.651l-2.022-28.946a5,5,0,0,1,4.893-5.347l101.679-1.924a5,5,0,0,1,5.094,5v32.506a5,5,0,0,1-5,5Zm0-41.536h-.078l-101.679,1.925a4.031,4.031,0,0,0-3.944,4.31l2.022,28.947a4.007,4.007,0,0,0,3.954,3.749l99.657,1.634a4.03,4.03,0,0,0,4.1-4.029V739.123a4.031,4.031,0,0,0-4.028-4.03Z" transform="translate(-12395.5 -12052.962)" fill="#12263f"/>
      <path id="Trazado_114492" data-name="Trazado 114492" d="M1296.3,432.207h-.076l-99.657-.727c-2.559-.019-4.555-.918-4.747-2.139l-.854-11.987a2.86,2.86,0,0,1,.682-2.2,3.631,3.631,0,0,1,2.885-1.2l101.679-.855a6.666,6.666,0,0,1,4.438,1.28,1.485,1.485,0,0,1,.489,1.049v14.446a1.484,1.484,0,0,1-.488,1.049A6.6,6.6,0,0,1,1296.3,432.207Zm-.072-.647a6.131,6.131,0,0,0,3.967-1.093.851.851,0,0,0,.3-.59V415.431a.85.85,0,0,0-.3-.59,6.106,6.106,0,0,0-3.977-1.093l-101.679.855a3.007,3.007,0,0,0-2.4.967,2.2,2.2,0,0,0-.534,1.71l.855,11.987c.115.726,1.722,1.549,4.11,1.566Z" transform="translate(-12122.841 -11836.214)" fill="#12263f"/>
      <path id="Trazado_114493" data-name="Trazado 114493" d="M1247.921,432.877a3.213,3.213,0,0,1-3.161,2.541l-38.348-.233c-2.127-.013-3.872-.627-4.021-1.416l-.772-9.08c-.165-.872.6-2.3,2.948-2.318l41.663-.271a3.211,3.211,0,0,1,3.162,3.883Z" transform="translate(-12130.037 -11842.29)" fill="#b2e4f7"/>
      <path id="Trazado_114494" data-name="Trazado 114494" d="M1075.91,754.6c-.364-8.143,5.311-17.148,8.416-20.045a3.313,3.313,0,0,1,4.77,0c4.716,4.1,9.21,10.841,9.457,14.658.647,10.02-6.67,13.037-12.257,13.037S1076.16,760.182,1075.91,754.6Z" transform="translate(-12045.164 -12052.569)" fill="#12263f"/>
      <path id="Trazado_114495" data-name="Trazado 114495" d="M1667.754,800.68h-36.015a2.461,2.461,0,0,1-2.118-1.611c-.216-1.612,1.323-2.072,2.116-2.072l36.018.8a1.445,1.445,0,0,1,1.441,1.441h0A1.445,1.445,0,0,1,1667.754,800.68Z" transform="translate(-12419.017 -12095.413)" fill="#12263f"/>
      <path id="Trazado_114496" data-name="Trazado 114496" d="M1658.4,781.352h-27.185a1.88,1.88,0,0,1-1.6-1.295,1.485,1.485,0,0,1,1.6-1.665l27.186.644a1.128,1.128,0,0,1,1.088,1.158h0A1.128,1.128,0,0,1,1658.4,781.352Z" transform="translate(-12419.018 -12082.852)" fill="#12263f"/>
      <path id="Trazado_114497" data-name="Trazado 114497" d="M1658.4,823.173h-27.185a1.88,1.88,0,0,1-1.6-1.295,1.485,1.485,0,0,1,1.6-1.665l27.186.644a1.127,1.127,0,0,1,1.088,1.158h0A1.127,1.127,0,0,1,1658.4,823.173Z" transform="translate(-12419.018 -12111.089)" fill="#12263f"/>
      <g id="Grupo_79334" data-name="Grupo 79334" transform="translate(-10734.913 -11456.284)">
        <path id="Trazado_114498" data-name="Trazado 114498" d="M1798.49,394.441l-.051-.6c-.014-.158-1.342-16.021-.974-33.595.5-23.675,3.676-39.02,9.45-45.61a9.758,9.758,0,0,1,6.98-3.644c2.9-.135,5.1.709,6.546,2.51,4.918,6.113.55,22.36-4.075,39.561l-.19.707-.936-.252.19-.707c4.358-16.21,8.865-32.972,4.256-38.7-1.261-1.568-3.138-2.271-5.745-2.149a8.827,8.827,0,0,0-6.3,3.314c-12.735,14.534-8.785,71.385-8.286,77.883l9.477-2.932a32.659,32.659,0,0,1-.138-3.9l.97.02a30.831,30.831,0,0,0,.174,4.174l.047.4Z" transform="translate(-1797.401 -310.978)" fill="#12263f"/>
      </g>
      <g id="Grupo_79336" data-name="Grupo 79336" transform="translate(-10729.933 -11432.335)">
        <path id="Trazado_114499" data-name="Trazado 114499" d="M1812.732,441.587l.137-.607a230.115,230.115,0,0,1,9.012-29.282c7.6-19.334,15.49-28.36,23.448-26.821,2.645.511,4.357,1.683,5.087,3.482,2.24,5.518-5.105,16.059-12.882,27.218-6.38,9.155-12.977,18.622-14.236,25.353l-.073.386Zm30.879-55.907c-16.131,0-28.221,48.856-29.655,54.9l8.466-.22c1.465-6.9,8-16.274,14.317-25.343,7.286-10.456,14.821-21.269,12.779-26.3-.608-1.5-2.038-2.444-4.372-2.895A8.113,8.113,0,0,0,1843.611,385.68Z" transform="translate(-1812.732 -384.708)" fill="#12263f"/>
      </g>
      <g id="Grupo_79339" data-name="Grupo 79339" transform="translate(-10806.086 -11425.121)">
        <g id="Grupo_79338" data-name="Grupo 79338">
          <path id="Trazado_114500" data-name="Trazado 114500" d="M1617.978,469.631a13.435,13.435,0,0,1-6.554-2.026c-3.7-2.077-3.226-7.11-3.113-7.978l-.025-.074c-.886-2.659-1.331-3.993-2.3-4.814-.984-.838-2.631-1.275-5.911-2.145-1.049-.278-2.239-.594-3.632-.982-6.113-1.707-6.229-6.349-6.341-10.838-.091-3.641-.186-7.406-3.219-10.117h0c-6.7-5.981-9.107-12.585-8.52-16.478a7.4,7.4,0,0,1,4.657-5.766c7.764-3.552,12.411-.118,17.329,3.517.814.6,1.656,1.224,2.519,1.819,2.008,1.387,5.751,1.031,9.714.654,4.9-.465,10.462-.995,13.837,1.846,1.84,1.548,2.856,3.886,3.109,7.149.85,11.008,3.776,12.6,8.626,15.243a41.867,41.867,0,0,1,6.484,4.137,16.134,16.134,0,0,1,3.72,4.1,14.008,14.008,0,0,1,1.8,10.089l-.056.3-.3.079c-3.388.905-7.037,1.731-10.847,2.453-5.551,1.052-9.1,3.621-12.23,5.889C1623.815,467.8,1621.287,469.631,1617.978,469.631Zm-28.767-61.743a13.827,13.827,0,0,0-5.783,1.406,6.488,6.488,0,0,0-4.1,5.029c-.756,5.016,3.724,11.608,8.207,15.609h0c3.345,2.99,3.449,7.147,3.541,10.815.113,4.515.211,8.415,5.633,9.929,1.387.386,2.573.7,3.62.979,6.833,1.813,7,1.956,8.878,7.591l.1.294-.018.117c-.008.052-.77,5.206,2.613,7.1,6.594,3.7,9.814,1.367,14.269-1.86,3.213-2.327,6.854-4.964,12.618-6.057,3.674-.7,7.2-1.489,10.479-2.357a13,13,0,0,0-1.726-9.1,15.183,15.183,0,0,0-3.5-3.85,41.051,41.051,0,0,0-6.344-4.044c-4.962-2.7-8.239-4.487-9.129-16.02-.231-2.99-1.135-5.11-2.766-6.482-3.065-2.579-8.178-2.093-13.121-1.622-4.145.394-8.058.766-10.357-.821-.875-.6-1.724-1.232-2.544-1.838C1596.353,410.178,1593.254,407.888,1589.211,407.888Z" transform="translate(-1578.283 -406.919)" fill="#12263f"/>
        </g>
      </g>
      <g id="Grupo_79343" data-name="Grupo 79343" transform="translate(-10803.683 -11421.897)">
        <g id="Grupo_79342" data-name="Grupo 79342">
          <g id="Grupo_79341" data-name="Grupo 79341">
            <path id="Trazado_114501" data-name="Trazado 114501" d="M1639.625,466.912l.556-.283c-.124-.247-12.85-25.066-54.181-49.785l-.318.541C1626.859,442.012,1639.5,466.666,1639.625,466.912Z" transform="translate(-1585.683 -416.844)" fill="#12263f"/>
          </g>
        </g>
      </g>
      <g id="Grupo_79346" data-name="Grupo 79346" transform="translate(-10766.858 -11408.818)">
        <g id="Grupo_79345" data-name="Grupo 79345">
          <g id="Grupo_79344" data-name="Grupo 79344">
            <path id="Trazado_114502" data-name="Trazado 114502" d="M1699.188,463c8.314-1.889,11.5-5.324,11.632-5.469l-.46-.425c-.031.034-3.208,3.439-11.31,5.281Z" transform="translate(-1699.051 -457.11)" fill="#12263f"/>
          </g>
        </g>
      </g>
      <g id="Grupo_79349" data-name="Grupo 79349" transform="translate(-10771.291 -11417.53)">
        <g id="Grupo_79348" data-name="Grupo 79348">
          <g id="Grupo_79347" data-name="Grupo 79347">
            <path id="Trazado_114503" data-name="Trazado 114503" d="M1685.727,450.274c3.087-1.883,5.152-5.946,5.972-11.751a42.435,42.435,0,0,0,.316-8.234l-.621.05c.012.15,1.108,15.067-5.99,19.4Z" transform="translate(-1685.405 -430.289)" fill="#12263f"/>
          </g>
        </g>
      </g>
      <g id="Grupo_79352" data-name="Grupo 79352" transform="translate(-10803.109 -11408.914)">
        <g id="Grupo_79351" data-name="Grupo 79351">
          <g id="Grupo_79350" data-name="Grupo 79350">
            <path id="Trazado_114504" data-name="Trazado 114504" d="M1609.1,460.983c.966-.183,1.522-.342,1.547-.35l-.175-.6c-.117.034-11.83,3.386-22.7-3.215l-.321.539C1596.208,462.672,1605.5,461.665,1609.1,460.983Z" transform="translate(-1587.449 -456.814)" fill="#12263f"/>
          </g>
        </g>
      </g>
      <g id="Grupo_79355" data-name="Grupo 79355" transform="translate(-10794.145 -11404.517)">
        <g id="Grupo_79354" data-name="Grupo 79354">
          <g id="Grupo_79353" data-name="Grupo 79353">
            <path id="Trazado_114505" data-name="Trazado 114505" d="M1615.248,479.737a14.717,14.717,0,0,0,7.607-5.637,11.053,11.053,0,0,0,1.659-3.62l-.611-.125c-.013.062-1.345,6.2-8.857,8.787Z" transform="translate(-1615.047 -470.354)" fill="#12263f"/>
          </g>
        </g>
      </g>
      <path id="Trazado_114506" data-name="Trazado 114506" d="M1637.36,550.407a17.643,17.643,0,0,1,17.818-3.165c10.8,3.76,14.723-9.733,23.45-6.535s11.171-9.062,21.107-3.348.947,8.553,8.28,11.865,14.431,12.538,2.13,11.828-12.3,6.387-27.442,4.731-9.392-4.022-27.524-2.839S1629.047,556.537,1637.36,550.407Z" transform="translate(-12422.037 -11919.071)" fill="#12263f"/>
      <path id="Trazado_114507" data-name="Trazado 114507" d="M1606.824,329.163h-36.015a2.462,2.462,0,0,1-2.118-1.612c-.216-1.612,1.323-2.072,2.115-2.072l36.017.8a1.445,1.445,0,0,1,1.441,1.441h0A1.445,1.445,0,0,1,1606.824,329.163Z" transform="translate(-12377.879 -11777.053)" fill="#12263f"/>
      <path id="Trazado_114508" data-name="Trazado 114508" d="M1597.47,351.656h-27.185a1.88,1.88,0,0,1-1.6-1.295,1.484,1.484,0,0,1,1.6-1.665l27.186.644a1.128,1.128,0,0,1,1.088,1.158h0A1.128,1.128,0,0,1,1597.47,351.656Z" transform="translate(-12377.879 -11792.729)" fill="#12263f"/>
      <path id="Trazado_114509" data-name="Trazado 114509" d="M1637.885,680.324H1601.87a2.46,2.46,0,0,1-2.117-1.611c-.216-1.612,1.322-2.072,2.116-2.072l36.017.8a1.446,1.446,0,0,1,1.442,1.441h0A1.445,1.445,0,0,1,1637.885,680.324Z" transform="translate(-12398.851 -12014.151)" fill="#12263f"/>
      <path id="Trazado_114510" data-name="Trazado 114510" d="M1628.53,702.817h-27.185a1.879,1.879,0,0,1-1.6-1.3,1.484,1.484,0,0,1,1.6-1.665l27.187.644a1.128,1.128,0,0,1,1.087,1.158h0A1.128,1.128,0,0,1,1628.53,702.817Z" transform="translate(-12398.851 -12029.827)" fill="#12263f"/>
      <path id="Trazado_114511" data-name="Trazado 114511" d="M1237.377,365.572h-36.015a2.462,2.462,0,0,1-2.118-1.612c-.216-1.611,1.323-2.072,2.115-2.072l36.018.8a1.446,1.446,0,0,1,1.441,1.441h0A1.446,1.446,0,0,1,1237.377,365.572Z" transform="translate(-12128.434 -11801.636)" fill="#12263f"/>
      <path id="Trazado_114512" data-name="Trazado 114512" d="M1228.022,388.065h-27.184a1.88,1.88,0,0,1-1.6-1.295,1.485,1.485,0,0,1,1.6-1.665l27.186.644a1.128,1.128,0,0,1,1.088,1.158h0A1.127,1.127,0,0,1,1228.022,388.065Z" transform="translate(-12128.435 -11817.313)" fill="#12263f"/>
      <path id="Trazado_114513" data-name="Trazado 114513" d="M1296.3,610.531h-.076l-99.657-.726c-2.559-.019-4.555-.919-4.747-2.14l-.854-11.987a2.861,2.861,0,0,1,.682-2.2,3.63,3.63,0,0,1,2.885-1.2l101.679-.855a6.7,6.7,0,0,1,4.438,1.28,1.486,1.486,0,0,1,.489,1.05V608.2a1.484,1.484,0,0,1-.488,1.049A6.6,6.6,0,0,1,1296.3,610.531Zm-.072-.647a6.1,6.1,0,0,0,3.967-1.093.851.851,0,0,0,.3-.59V593.756a.851.851,0,0,0-.3-.591,6.072,6.072,0,0,0-3.9-1.093h-.081l-101.679.856a3.007,3.007,0,0,0-2.4.967,2.206,2.206,0,0,0-.534,1.71l.855,11.987c.115.726,1.722,1.549,4.11,1.566Z" transform="translate(-12122.841 -11956.615)" fill="#12263f"/>
      <path id="Trazado_114514" data-name="Trazado 114514" d="M1276.081,611.2c-.511,1.489-2.633,2.55-5.082,2.541l-61.66-.233c-3.42-.013-6.226-.627-6.465-1.416l-1.242-9.08c-.265-.873.972-2.3,4.74-2.317l66.991-.272c3.3-.013,5.774,1.875,5.084,3.883Z" transform="translate(-12130.038 -11962.692)" fill="#e28569"/>
      <path id="Trazado_114515" data-name="Trazado 114515" d="M1237.377,543.9h-36.015a2.462,2.462,0,0,1-2.118-1.612c-.216-1.612,1.323-2.072,2.115-2.072l36.018.8a1.445,1.445,0,0,1,1.441,1.441h0A1.446,1.446,0,0,1,1237.377,543.9Z" transform="translate(-12128.434 -11922.037)" fill="#12263f"/>
      <path id="Trazado_114516" data-name="Trazado 114516" d="M1228.022,566.39h-27.184a1.88,1.88,0,0,1-1.6-1.295,1.484,1.484,0,0,1,1.6-1.665l27.186.644a1.128,1.128,0,0,1,1.088,1.158h0A1.128,1.128,0,0,1,1228.022,566.39Z" transform="translate(-12128.435 -11937.713)" fill="#12263f"/>
      <path id="Trazado_114517" data-name="Trazado 114517" d="M1296.3,777.909h-.076l-99.657-.727c-2.559-.019-4.555-.918-4.747-2.139l-.854-11.987a2.863,2.863,0,0,1,.682-2.2,3.631,3.631,0,0,1,2.885-1.2l101.679-.855a6.67,6.67,0,0,1,4.438,1.28,1.484,1.484,0,0,1,.489,1.049v14.446a1.483,1.483,0,0,1-.488,1.048A6.6,6.6,0,0,1,1296.3,777.909Zm0-18.458h-.081l-101.679.855a3.007,3.007,0,0,0-2.4.967,2.205,2.205,0,0,0-.534,1.71l.855,11.987c.115.726,1.722,1.549,4.11,1.566l99.657.726a6.143,6.143,0,0,0,3.967-1.093.851.851,0,0,0,.3-.59V761.134a.851.851,0,0,0-.3-.591A6.072,6.072,0,0,0,1296.3,759.45Z" transform="translate(-12122.841 -12069.626)" fill="#12263f"/>
      <path id="Trazado_114518" data-name="Trazado 114518" d="M1247.921,778.58a3.212,3.212,0,0,1-3.161,2.541l-38.348-.233c-2.127-.013-3.872-.627-4.021-1.416l-.772-9.08c-.165-.872.6-2.3,2.948-2.317l41.663-.271a3.212,3.212,0,0,1,3.162,3.883Z" transform="translate(-12130.037 -12075.702)" fill="#8d6e61"/>
      <path id="Trazado_114519" data-name="Trazado 114519" d="M1237.377,711.275h-36.015a2.462,2.462,0,0,1-2.118-1.611c-.216-1.612,1.323-2.072,2.115-2.072l36.018.8a1.445,1.445,0,0,1,1.441,1.441h0A1.446,1.446,0,0,1,1237.377,711.275Z" transform="translate(-12128.434 -12035.048)" fill="#12263f"/>
      <path id="Trazado_114520" data-name="Trazado 114520" d="M1228.022,733.768h-27.184a1.88,1.88,0,0,1-1.6-1.295,1.484,1.484,0,0,1,1.6-1.665l27.186.644a1.127,1.127,0,0,1,1.088,1.158h0A1.128,1.128,0,0,1,1228.022,733.768Z" transform="translate(-12128.435 -12050.724)" fill="#12263f"/>
      <path id="Trazado_114521" data-name="Trazado 114521" d="M1116.125,795.537a.324.324,0,0,1-.132-.619c6.3-2.825,5.662-7.052,5.632-7.231a.323.323,0,0,1,.637-.111c.034.2.772,4.891-6,7.932A.331.331,0,0,1,1116.125,795.537Z" transform="translate(-12072.109 -12088.873)" fill="#12263f"/>
      <path id="Trazado_114522" data-name="Trazado 114522" d="M1082.264,583.493a8.164,8.164,0,0,1,7-7.176c4.839-.728,8.065,3.956,8.065,7.74s-4.05,6.97-7.834,6.97S1081.572,589.242,1082.264,583.493Z" transform="translate(-12049.414 -11946.363)" fill="#12263f"/>
      <path id="Trazado_114523" data-name="Trazado 114523" d="M1050.5,598.418s-11.25-.762-11.615.569.039,1.312,1.206,1.494,9.8-.334,10.423-1C1051.348,598.588,1050.5,598.418,1050.5,598.418Z" transform="translate(-12020.087 -11961.189)" fill="#12263f"/>
      <path id="Trazado_114524" data-name="Trazado 114524" d="M1055.877,557.992s-7.6-8.334-8.781-7.625-.879.974-.163,1.914,7.307,6.539,8.217,6.489C1056.374,558.7,1055.877,557.992,1055.877,557.992Z" transform="translate(-12025.185 -11928.863)" fill="#12263f"/>
      <path id="Trazado_114525" data-name="Trazado 114525" d="M1104.052,543.4s.687-11.254-.647-11.611-1.311.048-1.486,1.216.4,9.8,1.069,10.416C1103.888,544.253,1104.052,543.4,1104.052,543.4Z" transform="translate(-12062.715 -11916.266)" fill="#12263f"/>
      <path id="Trazado_114526" data-name="Trazado 114526" d="M1102.146,632.254s-.687,11.254.646,11.612,1.312-.049,1.486-1.216-.4-9.8-1.069-10.416C1102.31,631.4,1102.146,632.254,1102.146,632.254Z" transform="translate(-12062.77 -11983.922)" fill="#12263f"/>
      <path id="Trazado_114527" data-name="Trazado 114527" d="M1132.961,603.042s11.033,2.323,11.581,1.056.144-1.3-.987-1.648-9.751-1.035-10.46-.464C1132.143,602.756,1132.961,603.042,1132.961,603.042Z" transform="translate(-12083.475 -11963.599)" fill="#12263f"/>
      <path id="Trazado_114528" data-name="Trazado 114528" d="M1135.284,558.745s9.468-6.123,8.964-7.408-.817-1.027-1.861-.475-7.65,6.134-7.75,7.04C1134.5,559.118,1135.284,558.745,1135.284,558.745Z" transform="translate(-12084.816 -11928.92)" fill="#12263f"/>
      <path id="Trazado_114529" data-name="Trazado 114529" d="M1134.814,625.3s7.6,8.333,8.78,7.625.879-.974.163-1.913-7.307-6.539-8.217-6.489C1134.317,624.593,1134.814,625.3,1134.814,625.3Z" transform="translate(-12084.879 -11978.964)" fill="#12263f"/>
      <path id="Trazado_114530" data-name="Trazado 114530" d="M1055.467,624.663s-9.468,6.123-8.964,7.409.817,1.027,1.86.475,7.651-6.134,7.751-7.04C1056.249,624.29,1055.467,624.663,1055.467,624.663Z" transform="translate(-12025.308 -11979.021)" fill="#12263f"/>
      <path id="Trazado_114531" data-name="Trazado 114531" d="M1077.547,365.787a8.839,8.839,0,0,1-6.824-3.294,9.1,9.1,0,0,1-1.951-7.557c.769-3.892,2.317-6.678,4.6-8.288l.755-25.742a5.9,5.9,0,0,1,4.591-5.24,5.247,5.247,0,0,1,4.318,1.168,4.335,4.335,0,0,1,1.911,3.275l-.386,26.462a8.766,8.766,0,0,1,4.229,7.432h0c.141,3.727-.785,6.654-2.754,8.7C1084.1,364.72,1081.16,365.787,1077.547,365.787Zm2.066-48.925a2.168,2.168,0,0,0-.556.068c-1.779.472-3.619,2.1-3.619,4l-.776,26.44-.289.186c-2.137,1.375-3.59,3.945-4.319,7.637a7.8,7.8,0,0,0,1.678,6.474,7.54,7.54,0,0,0,5.815,2.817c3.249,0,5.861-.929,7.553-2.687,1.712-1.779,2.516-4.383,2.389-7.742h0a7.5,7.5,0,0,0-3.9-6.537l-.342-.19.4-27.226a3.12,3.12,0,0,0-1.4-2.229A4.583,4.583,0,0,0,1079.614,316.862Z" transform="translate(-12040.242 -11770.352)" fill="#12263f"/>
      <path id="Trazado_114532" data-name="Trazado 114532" d="M1092.254,398.891c.213,5.671-3.127,8.11-7.735,8.11a6.2,6.2,0,0,1-5.941-7.356,10.446,10.446,0,0,1,4.429-6.2l.215-10.556a1.245,1.245,0,0,1,1.272-1.214,9.693,9.693,0,0,1,3.108.892,1.568,1.568,0,0,1,1.013,1.477l-.107,9.51C1090.316,394.552,1092.163,396.513,1092.254,398.891Z" transform="translate(-12046.9 -11814.993)" fill="#12263f"/>
    </g>
    <g id="Enmascarar_grupo_59" data-name="Enmascarar grupo 59" transform="translate(-9 31)" clip-path="url(#clip-path)">
      <g id="Grupo_79460" data-name="Grupo 79460" transform="translate(815.91 159.12) rotate(-8)">
        <path id="Trazado_114533" data-name="Trazado 114533" d="M80.8,218.431c-4.12-4.415-7.978-9.11-11.206-13.258h0C60.186,183.339,45.3,132.1,45.3,132.1,43.7,72.251,36.915,37.6,31.429,18.929,27.926,6.986,24.936,1.583,24.172.307,24.051.1,23.985,0,23.985,0a2.339,2.339,0,0,0-.214.205A69.8,69.8,0,0,0,18.228,5.98c-37.634,43.756-5.486,113.835-4.5,129.849,1.026,16.768,34.476,69.625,34.476,69.625h.007v0c2.217,3.288,12.393,20.032,13.869,29.37,1.614,10.524,19.645,22.045,19.645,22.045s4.4.273,4.435-6.965C86.3,242.633,91.942,230.221,80.8,218.431Z" transform="translate(170.925 160.689)" fill="#f4a671"/>
        <path id="Trazado_114534" data-name="Trazado 114534" d="M10.786,0s-2.308,6.246,1.1,8.695S3.232,22.373.9,31.8s.582,14.44.582,14.44-.349-5.706,1.746-8.5c0,0-2.251,6.484,1.475,11.3S6.245,56.3,6.245,56.3s11.813.2,14.685-7.8a22.424,22.424,0,0,1-1.552,5.2s11.537-4.037,14.54-11.955S31.3,24.552,27.8,23.3,18.6,12.59,19.649,10.03,10.786,0,10.786,0Z" transform="translate(162.986 85.244)" fill="#2c3a64"/>
        <path id="Trazado_114535" data-name="Trazado 114535" d="M107.458,10.658C104.209-.868,77.59-3.448,48.006,4.9S-2.925,29.347.327,40.872s29.868,14.106,59.452,5.763S110.711,22.183,107.458,10.658Z" transform="translate(110.511 38.761)" fill="#e2af64"/>
        <path id="Trazado_114536" data-name="Trazado 114536" d="M113.819,430.151l-13.842,5.156S39.85,351.915,32.447,278.544c-1.323-13.1-.882-25.791,1.978-37.512,0,0-.587-3.355-1.615-9.289-.476-2.769-1.063-6.1-1.73-9.923-1.954-11.2-4.645-26.524-7.719-43.975C16.285,137.689,7.12,86.358,0,48.621l3.73-1.2L44.088,34.4l8.34-26.491L82.48,0s6.712,13.133,12.714,75.169c1.107,8.137,2.113,17.11,2.87,26.841a531.189,531.189,0,0,1-2.859,108.666q-2.069,16.171-5.279,33.351c-1.582,8.386-1.82,19.812-1.152,32.933C91.8,336.939,113.819,430.151,113.819,430.151Z" transform="translate(62.664 327.547)" fill="#2b478b"/>
        <path id="Trazado_114537" data-name="Trazado 114537" d="M98.065,104.774,32.809,234.506c-.476-2.769-1.063-6.1-1.73-9.923-1.954-11.2-4.645-26.524-7.719-43.975C16.285,140.453,7.12,89.121,0,51.385l3.73-1.2L44.088,37.166l8.34-26.491L88.326,0s.867,15.9,6.868,77.932C96.3,86.069,97.308,95.043,98.065,104.774Z" transform="translate(62.664 324.784)" fill="#775b50"/>
        <path id="Trazado_114538" data-name="Trazado 114538" d="M140.423,20.732c1.99-2.384-12.265-1.948-12.265-1.948C102.851,25.506,35.229,0,35.229,0s-24.519,21.552-21.3,73.214c1.572,25.214,4.441,132.365,7.439,164.07,1.083,11.493,2.032,19.671,2.42,22.937a.059.059,0,0,1,.008.032,4.524,4.524,0,0,1-.735,2.807A149,149,0,0,0,12,286.328c-29.421,78.4,4.532,174.955,4.532,174.955l8.812-3.551S44.661,350.281,60.36,302.811c2.666-8.051,5.221-14.379,7.561-18.159,6.825-11.018,13.16-29.018,18.91-50.428,10.867-40.478,19.615-93.134,25.436-133.778C113.069,100.482,119.451,45.861,140.423,20.732Z" transform="translate(2.352 312.458)" fill="#8d6e61"/>
        <path id="Trazado_114539" data-name="Trazado 114539" d="M89.706,38.064,24.535,90.827s-1.9-11.449-8.608-9.688C5.467,83.877-7.267,59.089,5.085,33.723Q6.3,31.236,7.563,29.046C20.353,19.19,34.568,8.208,44.7.532,68.774-5.254,89.706,38.064,89.706,38.064Z" transform="translate(114.143 8.065)" fill="#2c3a64"/>
        <path id="Trazado_114540" data-name="Trazado 114540" d="M84.332,94.2a78.786,78.786,0,0,1-29.147,6.826C11.673,103.411,1.8,65.268,0,39.952a36.486,36.486,0,0,1,14.929-1.888c3.085.17,6.306.486,8.962.814C29.214,36.1,38.776,22.592,44.3,0l1.875.871,31.4,14.76s-3.335,10.216-5.8,19.993c-1.922,7.651-3.3,15.043-2.149,17.11,2.478,1.007,3.957,1.64,3.957,1.64a.1.1,0,0,0,.011.034A215.489,215.489,0,0,1,84.332,94.2Z" transform="translate(96.039 92.867)" fill="#ffb27d"/>
        <path id="Trazado_114541" data-name="Trazado 114541" d="M31.4,14.759s-3.338,10.207-5.8,19.992C7.25,29.631,1.677,10.341,0,0Z" transform="translate(142.215 93.745)" fill="#ed985f"/>
        <path id="Trazado_114542" data-name="Trazado 114542" d="M37.862,79.851S-6.043,69.69.705,42.446,6.332-4.46,34.651.877,65.82,17.952,65.779,27.594,49.458,81.793,37.862,79.851Z" transform="translate(139.616 39.46)" fill="#ffb27d"/>
        <g id="Grupo_79452" data-name="Grupo 79452" transform="translate(162.7 70.228)">
          <g id="Grupo_79400" data-name="Grupo 79400" transform="translate(26.344 10.395)">
            <g id="Grupo_79399" data-name="Grupo 79399">
              <g id="Grupo_79398" data-name="Grupo 79398">
                <g id="Grupo_79397" data-name="Grupo 79397">
                  <g id="Grupo_79396" data-name="Grupo 79396">
                    <g id="Grupo_79395" data-name="Grupo 79395">
                      <path id="Trazado_114543" data-name="Trazado 114543" d="M4.644,2.5A2.329,2.329,0,0,1,2.029,4.433,2.229,2.229,0,0,1,.02,1.953,2.332,2.332,0,0,1,2.633.017,2.23,2.23,0,0,1,4.644,2.5Z" fill="#1a2e35"/>
                    </g>
                  </g>
                </g>
              </g>
            </g>
          </g>
          <g id="Grupo_79407" data-name="Grupo 79407" transform="translate(24.926 7.423)">
            <g id="Grupo_79406" data-name="Grupo 79406">
              <g id="Grupo_79405" data-name="Grupo 79405">
                <g id="Grupo_79404" data-name="Grupo 79404">
                  <g id="Grupo_79403" data-name="Grupo 79403">
                    <g id="Grupo_79402" data-name="Grupo 79402">
                      <g id="Grupo_79401" data-name="Grupo 79401">
                        <path id="Trazado_114544" data-name="Trazado 114544" d="M9.057,3.285C8.721,3.535,7.2,1.946,4.732,1.526c-2.464-.456-4.5.5-4.714.152C-.091,1.521.293,1.031,1.182.593A6.4,6.4,0,0,1,5.019.1,6.146,6.146,0,0,1,8.4,1.874C9.057,2.589,9.221,3.175,9.057,3.285Z" fill="#1a2e35"/>
                      </g>
                    </g>
                  </g>
                </g>
              </g>
            </g>
          </g>
          <g id="Grupo_79413" data-name="Grupo 79413" transform="translate(2.25 6.81)">
            <g id="Grupo_79412" data-name="Grupo 79412">
              <g id="Grupo_79411" data-name="Grupo 79411">
                <g id="Grupo_79410" data-name="Grupo 79410">
                  <g id="Grupo_79409" data-name="Grupo 79409">
                    <g id="Grupo_79408" data-name="Grupo 79408">
                      <path id="Trazado_114545" data-name="Trazado 114545" d="M4.644,2.5A2.331,2.331,0,0,1,2.03,4.433,2.23,2.23,0,0,1,.02,1.953,2.332,2.332,0,0,1,2.634.017,2.23,2.23,0,0,1,4.644,2.5Z" fill="#1a2e35"/>
                    </g>
                  </g>
                </g>
              </g>
            </g>
          </g>
          <g id="Grupo_79420" data-name="Grupo 79420" transform="translate(0.554 3.681)">
            <g id="Grupo_79419" data-name="Grupo 79419">
              <g id="Grupo_79418" data-name="Grupo 79418">
                <g id="Grupo_79417" data-name="Grupo 79417">
                  <g id="Grupo_79416" data-name="Grupo 79416">
                    <g id="Grupo_79415" data-name="Grupo 79415">
                      <g id="Grupo_79414" data-name="Grupo 79414">
                        <path id="Trazado_114546" data-name="Trazado 114546" d="M9.058,3.285c-.337.25-1.857-1.339-4.328-1.76-2.463-.456-4.5.5-4.713.152C-.09,1.521.29,1.031,1.182.593A6.4,6.4,0,0,1,5.019.1,6.148,6.148,0,0,1,8.4,1.874C9.055,2.589,9.221,3.175,9.058,3.285Z" fill="#1a2e35"/>
                      </g>
                    </g>
                  </g>
                </g>
              </g>
            </g>
          </g>
          <g id="Grupo_79426" data-name="Grupo 79426" transform="translate(15.409 6.059)">
            <g id="Grupo_79425" data-name="Grupo 79425">
              <g id="Grupo_79424" data-name="Grupo 79424">
                <g id="Grupo_79423" data-name="Grupo 79423">
                  <g id="Grupo_79422" data-name="Grupo 79422">
                    <g id="Grupo_79421" data-name="Grupo 79421">
                      <path id="Trazado_114547" data-name="Trazado 114547" d="M0,20.786c.013-.143,1.595-.142,4.14-.03.642.045,1.261.022,1.442-.389a3.269,3.269,0,0,0-.1-1.944q-.493-2.444-1.035-5.128C3.041,6,2.138.054,2.433,0S4.107,5.811,5.514,13.1q.5,2.692.951,5.144a3.71,3.71,0,0,1-.1,2.533,1.606,1.606,0,0,1-1.2.743,4.336,4.336,0,0,1-1.1-.036C1.541,21.186-.015,20.929,0,20.786Z" fill="#1a2e35"/>
                    </g>
                  </g>
                </g>
              </g>
            </g>
          </g>
          <g id="Grupo_79431" data-name="Grupo 79431" transform="translate(5.657 30.267)">
            <g id="Grupo_79430" data-name="Grupo 79430">
              <g id="Grupo_79429" data-name="Grupo 79429">
                <g id="Grupo_79428" data-name="Grupo 79428">
                  <g id="Grupo_79427" data-name="Grupo 79427">
                    <path id="Trazado_114548" data-name="Trazado 114548" d="M7.677,2.354A4.518,4.518,0,0,0,3.971.009,4.123,4.123,0,0,0,.9,1.029,2.614,2.614,0,0,0,.2,3.941,3.032,3.032,0,0,0,3.3,5.321,9.5,9.5,0,0,0,6.78,3.982a2.779,2.779,0,0,0,.833-.608.838.838,0,0,0,.155-.92" fill="#bf7075"/>
                  </g>
                </g>
              </g>
            </g>
          </g>
          <g id="Grupo_79437" data-name="Grupo 79437" transform="translate(7.138 27.294)">
            <g id="Grupo_79436" data-name="Grupo 79436">
              <g id="Grupo_79435" data-name="Grupo 79435">
                <g id="Grupo_79434" data-name="Grupo 79434">
                  <g id="Grupo_79433" data-name="Grupo 79433">
                    <g id="Grupo_79432" data-name="Grupo 79432">
                      <path id="Trazado_114549" data-name="Trazado 114549" d="M.7,0C1.109.049.65,2.732,2.616,5.033s4.873,2.5,4.829,2.879c.008.175-.727.411-1.939.235A6.779,6.779,0,0,1,1.449,5.9,5.906,5.906,0,0,1,.016,1.707C.108.568.523-.045.7,0Z" fill="#1a2e35"/>
                    </g>
                  </g>
                </g>
              </g>
            </g>
          </g>
          <g id="Grupo_79444" data-name="Grupo 79444" transform="translate(0 0.003)">
            <g id="Grupo_79443" data-name="Grupo 79443">
              <g id="Grupo_79442" data-name="Grupo 79442">
                <g id="Grupo_79441" data-name="Grupo 79441">
                  <g id="Grupo_79440" data-name="Grupo 79440">
                    <g id="Grupo_79439" data-name="Grupo 79439">
                      <g id="Grupo_79438" data-name="Grupo 79438">
                        <path id="Trazado_114550" data-name="Trazado 114550" d="M11.472,2.829c-.36.629-2.773-.116-5.732-.268C2.783,2.35.3,2.794.017,2.124-.1,1.806.413,1.245,1.47.758A9.531,9.531,0,0,1,5.9.019a9.53,9.53,0,0,1,4.3,1.275C11.188,1.907,11.632,2.528,11.472,2.829Z" fill="#1a2e35"/>
                      </g>
                    </g>
                  </g>
                </g>
              </g>
            </g>
          </g>
          <g id="Grupo_79451" data-name="Grupo 79451" transform="translate(25.97 0)">
            <g id="Grupo_79450" data-name="Grupo 79450">
              <g id="Grupo_79449" data-name="Grupo 79449">
                <g id="Grupo_79448" data-name="Grupo 79448">
                  <g id="Grupo_79447" data-name="Grupo 79447">
                    <g id="Grupo_79446" data-name="Grupo 79446">
                      <g id="Grupo_79445" data-name="Grupo 79445">
                        <path id="Trazado_114551" data-name="Trazado 114551" d="M8.343,3.4c-.531.486-2.133-.39-4.176-.772C2.138,2.172.322,2.349.024,1.693-.1,1.377.268.862,1.117.462A5.877,5.877,0,0,1,4.679.131,5.879,5.879,0,0,1,7.821,1.837C8.445,2.539,8.582,3.157,8.343,3.4Z" fill="#1a2e35"/>
                      </g>
                    </g>
                  </g>
                </g>
              </g>
            </g>
          </g>
        </g>
        <path id="Trazado_114552" data-name="Trazado 114552" d="M79.284,17.093c-4.72-9.874-10.276-9.349-13.75-7.6C44.9-9.593,24.669,6,24.669,6A53.618,53.618,0,0,1,0,32.5s6.745,6.906,26.294,6.755c5.972-.046,11.975-2.788,17.439-6.566A105.136,105.136,0,0,1,20.84,49.768C45.311,45.084,61.722,16.754,63.4,13.745c2.072,3.061,6.038,9.578,6.372,15.081.453,7.479-2.12,22,2.163,22.551C71.938,51.377,86.364,31.9,79.284,17.093Z" transform="translate(128.579 34.493)" fill="#2c3a64"/>
        <path id="Trazado_114553" data-name="Trazado 114553" d="M88.957,36.61c-10.115-2.516-26.2-1.77-43.558,2.664C22.809,45.05,5.108,55.269.926,64.137A46.343,46.343,0,0,1,2.845,39.031a51.273,51.273,0,0,1,2.237-5.309Q6.3,31.235,7.559,29.045C20.35,19.189,34.565,8.207,44.7.531,57.286-2.488,69,7.889,77.323,18.5A121.786,121.786,0,0,1,88.957,36.61Z" transform="translate(114.146 8.066)" fill="#2c3a64"/>
        <path id="Trazado_114554" data-name="Trazado 114554" d="M70.1,39.3H.383S-1.289,28.673,2.353,20.61C5.843,12.875,11.308,9.359,10,0,14.43,4.561,21.65,9.669,31.73,8.313c1.235,2,7.973,12.717,12.1,15.681C48.384,27.27,68.7,26.1,70.1,39.3Z" transform="translate(0 741.641)" fill="#233862"/>
        <path id="Trazado_114555" data-name="Trazado 114555" d="M70.462,36.172H.74s-2.608-11.12,1.971-18.688c4.051-6.695,2.5-10.509-.5-16.048A27.113,27.113,0,0,0,13.951,3.648C17.424,3.448,21.1,1.87,24.318,0c3,3.422,15.851,17.984,19.867,20.869C48.742,24.144,69.058,22.976,70.462,36.172Z" transform="translate(149.345 744.767)" fill="#233862"/>
        <path id="Trazado_114556" data-name="Trazado 114556" d="M177.464,49.523c-3.007-10.247-5.63-15.669-6.8-17.811-.056-.183-1.706-5.122-16.549-10.547-2.357-.853-4.808-2.176-7.634-3.335-.572-.22-1.152-.454-1.747-.69a.219.219,0,0,0,.008.04c.3,1.081,8.221,29.785,5.332,35.9-2.075,4.384-30.231-4.275-47.792-11.393C99.152,40.421,96.349,39.2,94.1,38.11,91.047,36.63,89,35.4,88.48,34.618c-1.715-2.592-2.255-13.03-2.4-21.618-.062-3.6-.056-6.882-.03-9.12.007-.964.007-1.74.014-2.264,0-.5.008-.784.008-.784s-.188-.023-.532-.069L85.458.754C84.33.621,81.714.338,78.347.159c-7.11-.376-17.585-.291-24.7,2.583a89.712,89.712,0,0,1,6.3,21.063c.157,1.049.3,2.091.4,3.147a42.707,42.707,0,0,1,.172,6.625c-.172,2.865-1.652,5.41-4.015,7.9a61.551,61.551,0,0,1-8.355,6.938c-2.162,1.557-4.487,3.193-6.875,4.971-.071,4.26-.024,9.4,0,15.205a388.253,388.253,0,0,1-1.7,42,38.7,38.7,0,0,1-5.559,16.224,39.873,39.873,0,0,1-4.118,5.543c-2.4,2.7-5.169,5.919-8.042,9.482C10.127,156.465-3.168,176.868.676,190.586c.353,16.1,126.545,17.36,123.641-.32,0,0,29.948-78.423,40.973-102.155.391-.877.751-1.722,1.079-2.592,4.281-11.345,2.66-22.806,1.26-32.386A24.129,24.129,0,0,1,177.464,49.523Z" transform="translate(24.891 130.094)" fill="#c22a18"/>
        <path id="Trazado_114557" data-name="Trazado 114557" d="M.7,54.633S-6.627,8.677,26.173,1.846s51.212,5.788,60.435,29.81Z" transform="translate(113.444 0)" fill="#edbd77"/>
        <path id="Trazado_114558" data-name="Trazado 114558" d="M156.462,14.184C153.649,3.182,133.145-1.7,105.813.526a209.242,209.242,0,0,0-34.5,5.917A200.688,200.688,0,0,0,31.335,21.058C10.357,31.631-2.218,44.142.325,54.1c2.831,11.058,23.54,15.93,51.1,13.63-1.295-2.786-3.493-5.488-7.006-4.566-3.595.941-7.47-1.379-10.489-5.859C31.1,55.87,29.278,53.97,28.682,51.65a8,8,0,0,1,.734-5.487C33.6,37.3,51.3,27.077,73.889,21.3c17.355-4.434,33.443-5.18,43.558-2.664,5.888,1.453,9.755,4.015,10.667,7.6.792,3.093-.708,6.578-4.005,10.109a40.014,40.014,0,0,1-3.474,13.2C144.482,38.534,159.2,24.888,156.462,14.184Z" transform="translate(85.656 26.039)" fill="#ffcf83"/>
        <path id="Trazado_114559" data-name="Trazado 114559" d="M48.617,111.507c-18.2-1.286-35.528-2.9-48.617-6.036,2.87-3.568,5.637-6.782,8.04-9.484a39.647,39.647,0,0,0,4.117-5.542,38.674,38.674,0,0,0,5.561-16.228,386.79,386.79,0,0,0,1.7-41.994C35.288,14.449,48.617,0,48.617,0S78.2,27.117,82.788,54.132,96.024,114.86,48.617,111.507Z" transform="translate(46.748 166.464)" fill="#a02618"/>
        <path id="Trazado_114560" data-name="Trazado 114560" d="M25.244,63.632h-8.91a90.091,90.091,0,0,0-.581-25.681A92.608,92.608,0,0,0,7.736,12.84,76.317,76.317,0,0,0,0,0C3.367.179,5.982.462,7.11.595L7.2.6c.18.289.353.571.524.853,9.553,15.667,14.11,29.471,16.216,40.072C26.661,55.279,25.244,63.632,25.244,63.632Z" transform="translate(103.238 130.253)" fill="#8d6e61"/>
        <path id="Trazado_114561" data-name="Trazado 114561" d="M8.794,66.205.149,64.072A90.148,90.148,0,0,0,0,0C2.831,1.155,5.375,2.274,7.639,3.336,19.627,42.47,8.794,66.205,8.794,66.205Z" transform="translate(171.367 147.928)" fill="#8d6e61"/>
        <path id="Trazado_114562" data-name="Trazado 114562" d="M97.79,30.486c.183-2.392,1.87-25.667,1.87-25.667s.953-7.142,13.049-4.036,54.962,14.27,54.962,14.27a13.779,13.779,0,0,1,2.469,12.434c-2.174,7.142-9.363,49.67-9.363,49.67l-26.035,63.979-18.97,19.412L.1,183.064s-2.448-47.982,17.438-76.386c11.6-16.565,25.118-33.415,25.118-33.415S95,67.021,97.79,30.486Z" transform="translate(16.249 183.648)" fill="#8d6e61"/>
        <g id="Grupo_79454" data-name="Grupo 79454" transform="translate(120.24 186.913)">
          <g id="Grupo_79453" data-name="Grupo 79453">
            <path id="Trazado_114563" data-name="Trazado 114563" d="M0,3.727A3.726,3.726,0,1,1,3.726,7.454,3.727,3.727,0,0,1,0,3.727Z" fill="#ed7d2b"/>
            <path id="Trazado_114564" data-name="Trazado 114564" d="M0,3.727A3.726,3.726,0,1,1,3.726,7.454,3.727,3.727,0,0,1,0,3.727Z" transform="translate(0.669)" fill="#f99746"/>
          </g>
          <path id="Trazado_114565" data-name="Trazado 114565" d="M.026.377a.541.541,0,1,1,.351.681A.54.54,0,0,1,.026.377Z" transform="translate(2.169 2.648)" fill="#2b478b"/>
          <path id="Trazado_114566" data-name="Trazado 114566" d="M.026.377a.541.541,0,1,1,.352.681A.54.54,0,0,1,.026.377Z" transform="translate(5.538 3.723)" fill="#2b478b"/>
        </g>
        <g id="Grupo_79456" data-name="Grupo 79456" transform="translate(173.947 199.002)">
          <g id="Grupo_79455" data-name="Grupo 79455">
            <path id="Trazado_114567" data-name="Trazado 114567" d="M0,3.726A3.726,3.726,0,1,1,3.727,7.452,3.726,3.726,0,0,1,0,3.726Z" fill="#ed7d2b"/>
            <path id="Trazado_114568" data-name="Trazado 114568" d="M0,3.726A3.726,3.726,0,1,1,3.726,7.452,3.726,3.726,0,0,1,0,3.726Z" transform="translate(0.67)" fill="#f99746"/>
          </g>
          <path id="Trazado_114569" data-name="Trazado 114569" d="M.026.377a.542.542,0,1,1,.352.68A.542.542,0,0,1,.026.377Z" transform="translate(2.17 2.647)" fill="#2b478b"/>
          <path id="Trazado_114570" data-name="Trazado 114570" d="M.026.377a.542.542,0,1,1,.351.68A.54.54,0,0,1,.026.377Z" transform="translate(5.538 3.722)" fill="#2b478b"/>
        </g>
        <path id="Trazado_114571" data-name="Trazado 114571" d="M10.786,0s-2.307,6.246,1.1,8.694S3.231,22.372.9,31.8s.581,14.439.581,14.439-.349-5.706,1.746-8.5c0,0-2.25,6.482,1.475,11.3s1.537,7.256,1.537,7.256,11.815.2,14.688-7.8a22.434,22.434,0,0,1-1.553,5.2S30.914,49.659,33.92,41.739,31.3,24.551,27.8,23.3s-9.2-10.713-8.15-13.275S10.786,0,10.786,0Z" transform="translate(104.286 72.202)" fill="#2c3a64"/>
        <g id="Grupo_79459" data-name="Grupo 79459" transform="translate(124.635 36.482)">
          <g id="Grupo_79458" data-name="Grupo 79458">
            <path id="Trazado_114576" data-name="Trazado 114576" d="M.854,60.411c-.013.005-.06-.085-.138-.268a6.4,6.4,0,0,1-.311-.827,9.656,9.656,0,0,1-.393-3.373A11.173,11.173,0,0,1,1.6,50.807a10.255,10.255,0,0,1,5.481-4.495c2.46-.953,5.441-1.3,7.757-3.216a5.456,5.456,0,0,0,1.991-3.9,24.258,24.258,0,0,0-.393-4.958,13.566,13.566,0,0,1,2.854-10.471,11.883,11.883,0,0,1,4.688-3.552,14.4,14.4,0,0,1,5.968-.893c2.018.04,3.986.263,5.887.172A11.221,11.221,0,0,0,41.143,18.1a8,8,0,0,0,3.182-4.121,40.939,40.939,0,0,1,2.11-4.919,18.211,18.211,0,0,1,6.841-7.155A14.364,14.364,0,0,1,61.694.061a11.48,11.48,0,0,1,6.558,2.733,11.1,11.1,0,0,1,3.091,4.4,9.4,9.4,0,0,1,.633,3.336,4.819,4.819,0,0,1-.112,1.177,11.566,11.566,0,0,0-.809-4.4A10.953,10.953,0,0,0,61.645.624a13.857,13.857,0,0,0-8.039,1.858,17.616,17.616,0,0,0-6.524,6.932,40.872,40.872,0,0,0-2.052,4.86,8.754,8.754,0,0,1-3.479,4.495,11.945,11.945,0,0,1-5.684,1.517c-1.992.1-3.966-.129-5.942-.167a13.669,13.669,0,0,0-5.65.829,11.133,11.133,0,0,0-4.38,3.309,12.841,12.841,0,0,0-2.732,9.892,24.514,24.514,0,0,1,.361,5.11A6.142,6.142,0,0,1,15.259,43.6c-2.555,2.049-5.6,2.334-7.987,3.238a9.827,9.827,0,0,0-5.3,4.2A11.066,11.066,0,0,0,.323,55.965,12.191,12.191,0,0,0,.854,60.411Z" fill="#375a64"/>
          </g>
        </g>
        <g id="Grupo_79462" data-name="Grupo 79462" transform="translate(179.199 303.234) rotate(8)">
          <path id="Trazado_114578" data-name="Trazado 114578" d="M0,62.714S32.9,15.6,44.627,5.24C51.456-.82,56.321-1.082,59.521,1.711c1.925,1.663,3.266,4.414,4.1,7.671.183.643.314,1.308.448,2C65.89,21.23,1.681,61.106,0,62.714Z" transform="translate(0 32.213)" fill="#e58638"/>
          <path id="Trazado_114579" data-name="Trazado 114579" d="M18.452,40.843c1.172-3.886-10.326-3.927-15.23-2.218-.021-.053-.048-.1-.068-.156C7.519,35.438,36.384,14.913,35.134,2.977,33.8-9.756,13.651,21.453,3.022,38.17c0-.009-.008-.022-.013-.032C5.156,34.372,14.4,16.553,2.84,7.181c0,0-4.359-.708-2.276,6.491,2,6.92,4.547,14.812,2.271,24.069A11.467,11.467,0,0,0,.121,33.924s.544,6.514,4.1,7.671a23.741,23.741,0,0,0-.741-2.38C6.647,40.436,17.409,44.3,18.452,40.843Z" transform="translate(59.4)" fill="#82b378"/>
        </g>
        <path id="Trazado_114574" data-name="Trazado 114574" d="M152.521,211.775c-17.668-1.147-28.08-7.2-31.745-8.715-4.09-3.294-9.013-7.271-14.19-11.613-12.5-10.348-26.751-22.823-36.243-32.735-5.469-5.671-9.485-10.548-10.613-13.733-1.778-4.9-3.4-12.43-5.03-21.667-.83-4.836-1.688-10.1-2.491-15.674-1.528-9.218-2.926-19.159-4.427-29.116C45.1,60.364,42.024,42.031,38.551,27.67c-2.306-9.039-4.77-16.616-7.512-21.476C28.87,2.288,26.507.052,23.855,0c-.432.028-.759.075-1.087.122,0,0-15.59,1.443-21.2,31.3A46.235,46.235,0,0,0,.725,36.7,112.455,112.455,0,0,0,.138,55.862a286.3,286.3,0,0,0,4.675,41.3c.773,3.972,1.527,8.047,2.384,12.14,6.143,29.64,15.817,58,26.3,68.943a12.951,12.951,0,0,0,1.257,1.292c4.476,4.109,11.321,8.644,19.337,13.179,11.42,6.322,25.183,12.639,37.511,18.06l.1.018c7.228,3.009,13.856,5.8,19.424,7.98,0,0,1.181.532,3.272,1.336,1.762.785,4.194,1.605,6.964,2.633.454.17.881.332,1.269.479,5.2,1.989,11.378,4.772,16.679,9.469,13.652,12.093,30.979,5.074,30.979,5.074S164.685,212.564,152.521,211.775Z" transform="translate(57.38 132.244)" fill="#ffb27d"/>
        <path id="Trazado_114575" data-name="Trazado 114575" d="M38.772,28.227C18.929,18.9,0,31.75,0,31.75,5.744,1.444,22.1.11,22.1.11,28.837-1.274,34.213,10.568,38.772,28.227Z" transform="translate(58.92 131.875)" fill="#c22a18"/>
      </g>
    </g>
  </g>
</svg>
