<svg xmlns="http://www.w3.org/2000/svg" width="132.587" height="29" viewBox="0 0 132.587 29">
  <g id="Grupo_85824" data-name="Grupo 85824" transform="translate(-213.413 -4715)">
    <path id="Trazado_119382" data-name="Trazado 119382" d="M3.489,9.362h1.4A1.453,1.453,0,0,0,6.548,7.736a1.406,1.406,0,0,0-.4-1.033,1.5,1.5,0,0,0-1.116-.4,1.606,1.606,0,0,0-1.024.343,1.046,1.046,0,0,0-.435.853H.615a3.032,3.032,0,0,1,.563-1.8,3.715,3.715,0,0,1,1.56-1.235,5.334,5.334,0,0,1,2.193-.444,5.241,5.241,0,0,1,3.357.976A3.243,3.243,0,0,1,9.51,7.675,2.7,2.7,0,0,1,9,9.235a3.6,3.6,0,0,1-1.472,1.191,3.441,3.441,0,0,1,1.6,1.121,2.951,2.951,0,0,1,.58,1.859,3.3,3.3,0,0,1-1.318,2.742,5.472,5.472,0,0,1-3.463,1.028A5.675,5.675,0,0,1,2.6,16.7,3.656,3.656,0,0,1,.967,15.37,3.45,3.45,0,0,1,.413,13.44H3.393a1.334,1.334,0,0,0,.475,1.02,1.676,1.676,0,0,0,1.169.431,1.755,1.755,0,0,0,1.248-.435,1.454,1.454,0,0,0,.466-1.112,1.7,1.7,0,0,0-.483-1.371,2.021,2.021,0,0,0-1.336-.4H3.489Zm11.874,2.795a5.613,5.613,0,0,1,.554-2.536,3.96,3.96,0,0,1,1.591-1.709,4.791,4.791,0,0,1,2.435-.6,4.373,4.373,0,0,1,3.366,1.323,5.076,5.076,0,0,1,1.23,3.6v.105A4.925,4.925,0,0,1,23.3,15.871a4.384,4.384,0,0,1-3.344,1.305A4.434,4.434,0,0,1,16.7,15.958a4.761,4.761,0,0,1-1.327-3.3Zm2.962.185a3.538,3.538,0,0,0,.413,1.934,1.376,1.376,0,0,0,1.222.615q1.582,0,1.617-2.435v-.3q0-2.558-1.635-2.558-1.485,0-1.608,2.206ZM20.347,3.5h3.129L21.032,6.26l-2.417,0ZM38.1,12h1.3v2.285H38.1V17H35.139V14.284H30.19l-.176-1.811,5.124-8.244V4.2H38.1Zm-5.265,0h2.3V8.062l-.185.3Z" transform="translate(213 4718)" fill="#12263f"/>
    <g id="Grupo_78334" data-name="Grupo 78334" transform="translate(-866 490)">
      <g id="Polígono_5" data-name="Polígono 5" transform="translate(1212 4225) rotate(90)" fill="red">
        <path d="M 28.1639404296875 26.5 L 0.8360599875450134 26.5 L 14.5 1.056801438331604 L 28.1639404296875 26.5 Z" stroke="none"/>
        <path d="M 14.5 2.113594055175781 L 1.672115325927734 26 L 27.32788467407227 26 L 14.5 2.113594055175781 M 14.5 0 L 29 27 L 0 27 L 14.5 0 Z" stroke="none" fill="red"/>
      </g>
      <g id="Polígono_6" data-name="Polígono 6" transform="translate(1160 4254) rotate(-90)" fill="red">
        <path d="M 28.13198089599609 24.5 L 0.8680188059806824 24.5 L 14.5 0.9965841174125671 L 28.13198089599609 24.5 Z" stroke="none"/>
        <path d="M 14.5 1.99315071105957 L 1.736026763916016 24 L 27.26397323608398 24 L 14.5 1.99315071105957 M 14.5 0 L 29 25 L 0 25 L 14.5 0 Z" stroke="none" fill="red"/>
      </g>
    </g>
  </g>
</svg>
