<svg xmlns="http://www.w3.org/2000/svg" width="228.033" height="68" viewBox="0 0 228.033 68">
  <g id="Grupo_85823" data-name="Grupo 85823" transform="translate(-1049.967 -4226)">
    <path id="Trazado_119381" data-name="Trazado 119381" d="M5.722,12.474H4.052V17H.967V4.2H6a5.621,5.621,0,0,1,3.56,1.01,3.421,3.421,0,0,1,1.283,2.853,4.155,4.155,0,0,1-.541,2.213A3.837,3.837,0,0,1,8.613,11.7l2.672,5.167V17H7.98ZM4.052,10.1H6a1.751,1.751,0,0,0,1.323-.463A1.788,1.788,0,0,0,7.77,8.347a1.809,1.809,0,0,0-.448-1.3A1.735,1.735,0,0,0,6,6.576H4.052ZM12.2,12.157a5.613,5.613,0,0,1,.554-2.536,3.96,3.96,0,0,1,1.591-1.709,4.791,4.791,0,0,1,2.435-.6,4.373,4.373,0,0,1,3.366,1.323,5.076,5.076,0,0,1,1.23,3.6v.105a4.925,4.925,0,0,1-1.235,3.529A4.384,4.384,0,0,1,16.8,17.176a4.434,4.434,0,0,1-3.261-1.217,4.761,4.761,0,0,1-1.327-3.3Zm2.962.185a3.538,3.538,0,0,0,.413,1.934,1.376,1.376,0,0,0,1.222.615q1.582,0,1.617-2.435v-.3q0-2.558-1.635-2.558-1.485,0-1.608,2.206ZM25.866,7.49v9.835a3.452,3.452,0,0,1-.967,2.6,3.714,3.714,0,0,1-2.672.914,6.308,6.308,0,0,1-1.4-.149V18.45a5.667,5.667,0,0,0,.835.079,1.084,1.084,0,0,0,1.23-1.222V7.49Zm-3.19-2.461a1.334,1.334,0,0,1,.457-1.043,1.934,1.934,0,0,1,2.373,0,1.334,1.334,0,0,1,.457,1.043,1.334,1.334,0,0,1-.457,1.043,1.934,1.934,0,0,1-2.373,0A1.334,1.334,0,0,1,22.676,5.029Zm4.491,7.128a5.613,5.613,0,0,1,.554-2.536,3.96,3.96,0,0,1,1.591-1.709,4.791,4.791,0,0,1,2.435-.6,4.373,4.373,0,0,1,3.366,1.323,5.076,5.076,0,0,1,1.23,3.6v.105a4.925,4.925,0,0,1-1.235,3.529,4.384,4.384,0,0,1-3.344,1.305A4.434,4.434,0,0,1,28.5,15.958a4.761,4.761,0,0,1-1.327-3.3Zm2.962.185a3.538,3.538,0,0,0,.413,1.934,1.376,1.376,0,0,0,1.222.615q1.582,0,1.617-2.435v-.3q0-2.558-1.635-2.558-1.485,0-1.608,2.206Z" transform="translate(1049 4255)" fill="#12263f"/>
    <g id="Grupo_78331" data-name="Grupo 78331" transform="translate(0 1)">
      <g id="Polígono_5" data-name="Polígono 5" transform="translate(1278 4225) rotate(90)" fill="red">
        <path d="M 67.13478851318359 58.5 L 0.8652116656303406 58.5 L 34 1.001396775245667 L 67.13478851318359 58.5 Z" stroke="none"/>
        <path d="M 34 2.002811431884766 L 1.730430603027344 58 L 66.26956939697266 58 L 34 2.002811431884766 M 34 0 L 68 59 L 0 59 L 34 0 Z" stroke="none" fill="red"/>
      </g>
      <g id="Polígono_6" data-name="Polígono 6" transform="translate(1160 4293) rotate(-90)" fill="red">
        <path d="M 67.13478851318359 58.5 L 0.8652116656303406 58.5 L 34 1.001396775245667 L 67.13478851318359 58.5 Z" stroke="none"/>
        <path d="M 34 2.002811431884766 L 1.730430603027344 58 L 66.26956939697266 58 L 34 2.002811431884766 M 34 0 L 68 59 L 0 59 L 34 0 Z" stroke="none" fill="red"/>
      </g>
    </g>
  </g>
</svg>
