<svg xmlns="http://www.w3.org/2000/svg" width="350.492" height="57.164" viewBox="0 0 350.492 57.164">
  <g id="Grupo_85827" data-name="Grupo 85827" transform="translate(-676.004 -4790.775)">
    <g id="Grupo_78342" data-name="Grupo 78342" transform="translate(96.342 4440.873)">
      <path id="Trazado_113225" data-name="Trazado 113225" d="M629.085,350.765h0v0l-24.45,14.17L629.1,378.627l25.44-14.192Z" fill="#fff612" stroke="#000" stroke-width="1"/>
      <path id="Trazado_113226" data-name="Trazado 113226" d="M629.085,378.629h0v0l-24.45,14.17L629.1,406.491l24.744-14.2Z" fill="red" stroke="#000" stroke-width="1"/>
      <path id="Trazado_113227" data-name="Trazado 113227" d="M604.644,364.927h0v0L580.658,379.1l24,13.692L629.1,378.627Z" fill="red" stroke="#000" stroke-width="1"/>
      <path id="Trazado_113228" data-name="Trazado 113228" d="M654.539,364.435,629.1,378.627l24.744,13.66L679.478,378.1Z" fill="#fff612" stroke="#000" stroke-width="1"/>
    </g>
    <g id="Grupo_78343" data-name="Grupo 78343" transform="translate(221.162 4440.873)">
      <path id="Trazado_113225-2" data-name="Trazado 113225" d="M629.085,350.765h0v0l-24.45,14.17L629.1,378.627l25.44-14.192Z" fill="#fff612" stroke="#000" stroke-width="1"/>
      <path id="Trazado_113226-2" data-name="Trazado 113226" d="M629.085,378.629h0v0l-24.45,14.17L629.1,406.491l24.744-14.2Z" fill="red" stroke="#000" stroke-width="1"/>
      <path id="Trazado_113227-2" data-name="Trazado 113227" d="M604.644,364.927h0v0L580.658,379.1l24,13.692L629.1,378.627Z" fill="#fff612" stroke="#000" stroke-width="1"/>
      <path id="Trazado_113228-2" data-name="Trazado 113228" d="M654.539,364.435,629.1,378.627l24.744,13.66L679.478,378.1Z" fill="#fff612" stroke="#000" stroke-width="1"/>
    </g>
    <g id="Grupo_78344" data-name="Grupo 78344" transform="translate(345.982 4440.873)">
      <path id="Trazado_113225-3" data-name="Trazado 113225" d="M629.085,350.765h0v0l-24.45,14.17L629.1,378.627l25.44-14.192Z" fill="#fff612" stroke="#000" stroke-width="1"/>
      <path id="Trazado_113226-3" data-name="Trazado 113226" d="M629.085,378.629h0v0l-24.45,14.17L629.1,406.491l24.744-14.2Z" fill="#fff612" stroke="#000" stroke-width="1"/>
      <path id="Trazado_113227-3" data-name="Trazado 113227" d="M604.644,364.927h0v0L580.658,379.1l24,13.692L629.1,378.627Z" fill="#fff612" stroke="#000" stroke-width="1"/>
      <path id="Trazado_113228-3" data-name="Trazado 113228" d="M654.539,364.435,629.1,378.627l24.744,13.66L679.478,378.1Z" fill="#fff612" stroke="#000" stroke-width="1"/>
    </g>
  </g>
</svg>
