<svg xmlns="http://www.w3.org/2000/svg" width="126.501" height="61" viewBox="0 0 126.501 61">
  <g id="Grupo_85826" data-name="Grupo 85826" transform="translate(-219.499 -4895)">
    <path id="Trazado_119384" data-name="Trazado 119384" d="M29.456,11.771a6.11,6.11,0,0,1-1.165,4,4.024,4.024,0,0,1-3.283,1.406,4.046,4.046,0,0,1-3.3-1.415,6.1,6.1,0,0,1-1.169-3.99V9.433a6.11,6.11,0,0,1,1.165-4,4.034,4.034,0,0,1,3.292-1.406,4.036,4.036,0,0,1,3.3,1.415,6.116,6.116,0,0,1,1.169,4ZM26.494,9.055a4.564,4.564,0,0,0-.36-2.061,1.2,1.2,0,0,0-1.143-.681,1.176,1.176,0,0,0-1.112.633,4.3,4.3,0,0,0-.374,1.916v3.27a4.6,4.6,0,0,0,.36,2.1,1.209,1.209,0,0,0,1.143.664,1.193,1.193,0,0,0,1.116-.646,4.39,4.39,0,0,0,.369-2.026ZM12.388,42H9.417V32.543L6.5,33.4v-2.25L12.115,29.2h.272ZM20.4,37.157a5.613,5.613,0,0,1,.554-2.536,3.96,3.96,0,0,1,1.591-1.709,4.791,4.791,0,0,1,2.435-.6,4.373,4.373,0,0,1,3.366,1.323,5.076,5.076,0,0,1,1.23,3.6v.105a4.925,4.925,0,0,1-1.235,3.529A4.384,4.384,0,0,1,25,42.176a4.434,4.434,0,0,1-3.261-1.217,4.761,4.761,0,0,1-1.327-3.3Zm2.962.185a3.538,3.538,0,0,0,.413,1.934A1.376,1.376,0,0,0,25,39.891q1.582,0,1.617-2.435v-.3q0-2.558-1.635-2.558-1.485,0-1.608,2.206ZM25.387,28.5h3.129l-2.443,2.76-2.417,0ZM44.248,42h-8.93V40.066l4.113-4.324a4.909,4.909,0,0,0,1.521-2.751,1.913,1.913,0,0,0-.36-1.257,1.287,1.287,0,0,0-1.046-.431,1.3,1.3,0,0,0-1.1.576,2.366,2.366,0,0,0-.422,1.437H35.055a4.2,4.2,0,0,1,.589-2.175,4.129,4.129,0,0,1,1.635-1.56,4.856,4.856,0,0,1,2.338-.562,4.777,4.777,0,0,1,3.195.958,3.42,3.42,0,0,1,1.121,2.751A4,4,0,0,1,43.65,34.2a6.456,6.456,0,0,1-.875,1.5,22.029,22.029,0,0,1-1.912,2.1l-1.652,1.907h5.036Z" transform="translate(213 4900)" fill="#12263f"/>
    <g id="Grupo_78336" data-name="Grupo 78336" transform="translate(-866 670)">
      <g id="Polígono_5" data-name="Polígono 5" transform="translate(1212 4225) rotate(90)" fill="red">
        <path d="M 28.1639404296875 26.5 L 0.8360599875450134 26.5 L 14.5 1.056801438331604 L 28.1639404296875 26.5 Z" stroke="none"/>
        <path d="M 14.5 2.113594055175781 L 1.672115325927734 26 L 27.32788467407227 26 L 14.5 2.113594055175781 M 14.5 0 L 29 27 L 0 27 L 14.5 0 Z" stroke="none" fill="red"/>
      </g>
      <g id="Polígono_6" data-name="Polígono 6" transform="translate(1160 4254) rotate(-90)" fill="red">
        <path d="M 28.13198089599609 24.5 L 0.8680188059806824 24.5 L 14.5 0.9965841174125671 L 28.13198089599609 24.5 Z" stroke="none"/>
        <path d="M 14.5 1.99315071105957 L 1.736026763916016 24 L 27.26397323608398 24 L 14.5 1.99315071105957 M 14.5 0 L 29 25 L 0 25 L 14.5 0 Z" stroke="none" fill="red"/>
      </g>
    </g>
    <g id="Grupo_78338" data-name="Grupo 78338" transform="translate(-866 702)">
      <g id="Polígono_5-2" data-name="Polígono 5" transform="translate(1212 4225) rotate(90)" fill="#fff612">
        <path d="M 28.1639404296875 26.5 L 0.8360599875450134 26.5 L 14.5 1.056801438331604 L 28.1639404296875 26.5 Z" stroke="none"/>
        <path d="M 14.5 2.113594055175781 L 1.672115325927734 26 L 27.32788467407227 26 L 14.5 2.113594055175781 M 14.5 0 L 29 27 L 0 27 L 14.5 0 Z" stroke="none" fill="#fff612"/>
      </g>
      <g id="Polígono_6-2" data-name="Polígono 6" transform="translate(1160 4254) rotate(-90)" fill="#fff612">
        <path d="M 28.13198089599609 24.5 L 0.8680188059806824 24.5 L 14.5 0.9965841174125671 L 28.13198089599609 24.5 Z" stroke="none"/>
        <path d="M 14.5 1.99315071105957 L 1.736026763916016 24 L 27.26397323608398 24 L 14.5 1.99315071105957 M 14.5 0 L 29 25 L 0 25 L 14.5 0 Z" stroke="none" fill="#fff612"/>
      </g>
    </g>
  </g>
</svg>
