<svg xmlns="http://www.w3.org/2000/svg" xmlns:xlink="http://www.w3.org/1999/xlink" width="505.166" height="186.633" viewBox="0 0 505.166 186.633">
  <defs>
    <clipPath id="clip-path">
      <path id="Trazado_116171" data-name="Trazado 116171" d="M648.128,106.126c-35.971-2.823-309.117,1.624-345.846,4.533-30.882,2.446-60.506-1.549-80.646-2.558-21.687-1.086-39.337,14.975-39.337,33.445V256.739q0,.4.011.789c0,.086.007.172.01.258.006.176.013.352.023.528.006.1.013.2.02.3.01.16.021.319.034.478.009.107.019.213.029.32.014.153.029.306.046.459.012.108.025.216.038.324q.027.227.058.453.022.161.045.32.034.228.072.456c.017.1.034.207.052.31.028.157.057.314.088.47.019.1.036.193.056.289.035.17.072.34.11.51.018.081.035.162.053.243q.078.338.165.673c.006.024.012.048.018.072q.1.376.205.75c.016.057.034.113.051.169.056.189.112.378.172.566.026.082.054.164.081.246.053.161.106.323.161.483.031.091.064.181.1.272q.081.227.165.452c.035.094.071.187.107.28q.085.22.173.439.057.14.115.28.091.219.185.436c.039.091.079.182.119.272.066.148.134.3.2.443.04.086.079.172.12.257.074.156.151.311.228.467.037.075.073.15.111.224q.141.278.288.553c.023.043.045.086.068.129q.185.343.378.681l.067.114c.106.184.213.367.323.549.046.076.093.151.139.226.088.143.177.287.267.429.055.086.111.172.167.258.085.13.169.26.256.389.061.091.123.181.185.271q.126.184.255.367.1.139.2.277.128.177.258.352.1.14.208.279.13.172.264.342c.072.093.144.185.217.277.089.112.18.224.271.335.075.091.149.183.224.274.093.112.188.222.283.333.076.089.15.178.227.266.107.123.217.245.326.367q.22.245.444.486c.082.088.163.176.245.264l.022.023.134.139q.2.207.4.411l.118.119q.238.237.482.47l.15.143q.244.232.494.46l.134.121q.234.212.472.42l.087.077q.266.231.538.457l.142.119q.269.222.542.44l.133.105q.273.216.551.427l.059.045q.286.217.578.428l.133.1q.291.21.586.415l.136.094q.306.21.617.416l.054.035q.3.2.6.387l.124.079q.311.195.627.384l.139.083q.323.192.651.38l.075.042q.313.177.63.35l.111.061q.33.178.666.351l.144.074q.339.173.681.34l.1.046q.329.159.662.313l.094.044q.349.16.7.315l.147.064q.352.152.707.3l.117.047q.347.141.7.277l.072.028q.366.141.737.275l.15.054q.364.131.733.256l.133.044q.369.124.741.242l.042.013q.383.12.771.234l.149.044q.376.109.756.212l.148.039q.395.105.792.2l.021.005q.392.1.788.185l.146.033q.388.086.779.166l.16.032q.4.08.8.154l.066.012q.388.07.779.132l.139.023q.4.063.8.119l.168.023q.407.055.818.1l.1.011q.392.045.787.083l.123.012q.411.038.824.069l.171.013q.414.03.831.052l.038,0,.168.008.4.018.291.01.337.01.305.007.353.005.278,0q.313,0,.627,0l.688-.006.284,0,.426,0,.277,0,.44,0,.284,0,.441-.005.292,0,.454-.006.261,0,.493-.007.242,0,.535-.008.192,0,.6-.009.151,0,.648-.01.114,0,.736-.012h0c5.519-.1,11.7-.246,18.278-.419,10.844-.287,22.788-.636,34.7-.914h0c10.385-.242,20.744-.428,30.329-.469,10.1-.043,19.34.076,26.843.462h0q.75.039,1.477.081l4.268.248c27.143,1.566,46.96,2.6,63.316,2.762h.114l.808.007h.162l.742,0h.21l.7,0h.221l.687,0h1.127l203.549-1.974q.832,0,1.653,0a287.857,287.857,0,0,0,29.745-1.528,70.661,70.661,0,0,0,9.3-1.617c17.12-4.195,30.032-14.6,30.032-28.99V139.571C687.465,121.1,669.762,107.824,648.128,106.126Z" transform="translate(-2.299 1026.143)" fill="#e29c6d"/>
    </clipPath>
    <clipPath id="clip-path-2">
      <path id="Rect치ngulo_33859" data-name="Rect치ngulo 33859" d="M10.656,0H550.208a10.657,10.657,0,0,1,10.657,10.657V329.485a10.656,10.656,0,0,1-10.656,10.656H10.656A10.656,10.656,0,0,1,0,329.485V10.656A10.656,10.656,0,0,1,10.656,0Z" fill="none"/>
    </clipPath>
    <linearGradient id="linear-gradient" x1="0.132" y1="0.925" x2="0.961" y2="-0.033" gradientUnits="objectBoundingBox">
      <stop offset="0" stop-color="#009e9d"/>
      <stop offset="0.257" stop-color="#29b6a0"/>
      <stop offset="0.999" stop-color="#a0faab"/>
    </linearGradient>
    <linearGradient id="linear-gradient-2" x1="0.5" y1="0.88" x2="0.5" y2="0.161" gradientUnits="objectBoundingBox">
      <stop offset="0" stop-color="#006182"/>
      <stop offset="0.089" stop-color="#116e83" stop-opacity="0.91"/>
      <stop offset="1" stop-color="#c4fa8f" stop-opacity="0"/>
    </linearGradient>
    <linearGradient id="linear-gradient-3" x1="0.5" y1="1.12" x2="0.5" y2="0.125" xlink:href="#linear-gradient-2"/>
    <linearGradient id="linear-gradient-4" x1="0.5" y1="0.961" x2="0.5" y2="0.098" xlink:href="#linear-gradient-2"/>
    <linearGradient id="linear-gradient-5" x1="0.5" y1="1.562" x2="0.5" y2="0.245" xlink:href="#linear-gradient-2"/>
    <linearGradient id="linear-gradient-6" x1="0.5" y1="0.883" x2="0.5" y2="0.156" xlink:href="#linear-gradient-2"/>
    <linearGradient id="linear-gradient-7" x1="0.5" y1="0.965" x2="0.5" y2="0.127" xlink:href="#linear-gradient-2"/>
    <linearGradient id="linear-gradient-8" x1="0.5" y1="0.858" x2="0.5" y2="-0.295" gradientUnits="objectBoundingBox">
      <stop offset="0" stop-color="#00715d"/>
      <stop offset="1" stop-color="#00c2a4"/>
    </linearGradient>
    <linearGradient id="linear-gradient-9" x1="0.149" y1="0.779" x2="0.905" y2="0.025" gradientUnits="objectBoundingBox">
      <stop offset="0" stop-color="#008a92"/>
      <stop offset="0.075" stop-color="#099292"/>
      <stop offset="1" stop-color="#80fa95"/>
    </linearGradient>
    <linearGradient id="linear-gradient-10" x1="0.567" y1="1.298" x2="0.712" y2="0.476" gradientUnits="objectBoundingBox">
      <stop offset="0" stop-color="#00332e"/>
      <stop offset="0.171" stop-color="#004b3c"/>
      <stop offset="1" stop-color="#00c281"/>
    </linearGradient>
    <linearGradient id="linear-gradient-11" x1="0.871" y1="1.004" x2="0.109" y2="0.144" gradientUnits="objectBoundingBox">
      <stop offset="0" stop-color="#004ac9"/>
      <stop offset="0.994" stop-color="#008a7b"/>
    </linearGradient>
    <linearGradient id="linear-gradient-12" x1="0.871" y1="1.004" x2="0.109" y2="0.144" gradientUnits="objectBoundingBox">
      <stop offset="0" stop-color="#004ac9"/>
      <stop offset="0.322" stop-color="#3484c3"/>
      <stop offset="0.993" stop-color="#a0fab7"/>
    </linearGradient>
    <linearGradient id="linear-gradient-13" x1="0.952" y1="0.992" x2="-0.148" y2="0.16" gradientUnits="objectBoundingBox">
      <stop offset="0" stop-color="#004ac9"/>
      <stop offset="0.321" stop-color="#2084a9"/>
      <stop offset="0.992" stop-color="#62fa69"/>
    </linearGradient>
    <linearGradient id="linear-gradient-14" x1="1.286" y1="1.112" x2="0.186" y2="0.28" xlink:href="#linear-gradient-13"/>
    <linearGradient id="linear-gradient-15" x1="0.921" y1="1.004" x2="0.159" y2="0.144" xlink:href="#linear-gradient-11"/>
    <linearGradient id="linear-gradient-16" x1="-2.983" y1="1.004" x2="-3.745" y2="0.144" xlink:href="#linear-gradient-12"/>
    <linearGradient id="linear-gradient-17" x1="-9.897" y1="0.985" x2="-10.965" y2="0.152" xlink:href="#linear-gradient-13"/>
    <linearGradient id="linear-gradient-18" x1="-7.447" y1="1.004" x2="-8.21" y2="0.144" xlink:href="#linear-gradient-12"/>
    <linearGradient id="linear-gradient-19" x1="-4.167" y1="1.004" x2="-4.929" y2="0.144" xlink:href="#linear-gradient-13"/>
    <linearGradient id="linear-gradient-20" x1="0.5" y1="1.318" x2="0.5" y2="0.07" gradientUnits="objectBoundingBox">
      <stop offset="0" stop-color="#000e00"/>
      <stop offset="0.068" stop-color="#001608"/>
      <stop offset="1" stop-color="#00897f"/>
    </linearGradient>
    <linearGradient id="linear-gradient-21" x1="0.5" y1="1.301" x2="0.5" y2="0.019" xlink:href="#linear-gradient-20"/>
    <linearGradient id="linear-gradient-22" x1="0.668" y1="0.973" x2="0.295" y2="-0.208" xlink:href="#linear-gradient-20"/>
    <linearGradient id="linear-gradient-23" x1="0.5" y1="1.115" x2="0.5" y2="0.172" xlink:href="#linear-gradient-20"/>
    <linearGradient id="linear-gradient-24" x1="0.5" y1="0.902" x2="0.5" y2="-0.041" xlink:href="#linear-gradient-20"/>
    <linearGradient id="linear-gradient-25" x1="0.677" y1="1.111" x2="0.376" y2="0.282" gradientUnits="objectBoundingBox">
      <stop offset="0.001" stop-color="#004432"/>
      <stop offset="0.272" stop-color="#00704e"/>
      <stop offset="1" stop-color="#00e79a"/>
    </linearGradient>
    <linearGradient id="linear-gradient-26" x1="0.419" y1="0.879" x2="0.569" y2="0.09" xlink:href="#linear-gradient-10"/>
    <linearGradient id="linear-gradient-27" x1="-0.074" y1="1.41" x2="0.875" y2="0.013" xlink:href="#linear-gradient-10"/>
    <linearGradient id="linear-gradient-28" x1="0.524" y1="0.932" x2="0.156" y2="0.042" xlink:href="#linear-gradient-25"/>
    <linearGradient id="linear-gradient-29" x1="0.675" y1="0.765" x2="0.017" y2="-0.258" xlink:href="#linear-gradient-10"/>
    <linearGradient id="linear-gradient-30" x1="0.706" y1="1.006" x2="0.884" y2="0.082" xlink:href="#linear-gradient-10"/>
    <linearGradient id="linear-gradient-31" x1="0.295" y1="0.958" x2="0.628" y2="-0.078" gradientUnits="objectBoundingBox">
      <stop offset="0" stop-color="#008f9f"/>
      <stop offset="1" stop-color="#47fab0"/>
    </linearGradient>
    <linearGradient id="linear-gradient-32" x1="0.022" y1="0.838" x2="0.997" y2="0.058" gradientUnits="objectBoundingBox">
      <stop offset="0" stop-color="#009c9c"/>
      <stop offset="1" stop-color="#4ffa5f"/>
    </linearGradient>
    <linearGradient id="linear-gradient-33" x1="-0.94" y1="1.748" x2="0.242" y2="1.748" xlink:href="#linear-gradient-10"/>
    <linearGradient id="linear-gradient-34" x1="0.602" y1="1" x2="0.369" y2="-0.031" xlink:href="#linear-gradient-25"/>
    <linearGradient id="linear-gradient-35" x1="0.431" y1="1.234" x2="0.517" y2="0.17" gradientUnits="objectBoundingBox">
      <stop offset="0.002" stop-color="#00d073"/>
      <stop offset="0.017" stop-color="#00d074"/>
      <stop offset="1" stop-color="#25faeb"/>
    </linearGradient>
    <linearGradient id="linear-gradient-36" x1="1.348" y1="1.063" x2="0.783" y2="-0.018" xlink:href="#linear-gradient-32"/>
    <linearGradient id="linear-gradient-37" x1="1.493" y1="0.966" x2="0.41" y2="0.2" xlink:href="#linear-gradient-32"/>
    <linearGradient id="linear-gradient-38" x1="0.739" y1="0.988" x2="-0.194" y2="-0.544" xlink:href="#linear-gradient-32"/>
    <linearGradient id="linear-gradient-39" x1="3.289" y1="2.098" x2="2.206" y2="1.332" gradientUnits="objectBoundingBox">
      <stop offset="0" stop-color="#009c9c"/>
      <stop offset="1" stop-color="#00fae8"/>
    </linearGradient>
    <linearGradient id="linear-gradient-40" x1="-0.093" y1="0.453" x2="1.108" y2="0.453" xlink:href="#linear-gradient-31"/>
    <linearGradient id="linear-gradient-41" x1="0.205" y1="0.979" x2="0.495" y2="-0.078" xlink:href="#linear-gradient-32"/>
    <linearGradient id="linear-gradient-42" x1="-0.03" y1="1.119" x2="0.851" y2="0.059" xlink:href="#linear-gradient-32"/>
    <linearGradient id="linear-gradient-43" x1="0.132" y1="0.872" x2="1.169" y2="0.872" xlink:href="#linear-gradient-32"/>
    <linearGradient id="linear-gradient-44" x1="0.336" y1="2.479" x2="-0.28" y2="1.493" xlink:href="#linear-gradient-32"/>
    <linearGradient id="linear-gradient-45" x1="0.266" y1="0.091" x2="-0.729" y2="-0.703" xlink:href="#linear-gradient-39"/>
    <linearGradient id="linear-gradient-46" x1="0.529" y1="0.482" x2="-0.134" y2="-0.449" xlink:href="#linear-gradient-32"/>
    <radialGradient id="radial-gradient" cx="1.046" cy="-0.096" r="1.862" gradientTransform="translate(0.197) scale(0.606 1)" gradientUnits="objectBoundingBox">
      <stop offset="0.003" stop-color="#d1faa8"/>
      <stop offset="0.489" stop-color="#dafa7e" stop-opacity="0.522"/>
      <stop offset="1" stop-color="#e5fa51" stop-opacity="0"/>
    </radialGradient>
    <linearGradient id="linear-gradient-47" x1="0.752" y1="-0.036" x2="0.382" y2="0.599" gradientUnits="objectBoundingBox">
      <stop offset="0.003" stop-color="#eafac0"/>
      <stop offset="0.514" stop-color="#e1facd" stop-opacity="0.478"/>
      <stop offset="0.999" stop-color="#dafad9" stop-opacity="0"/>
    </linearGradient>
  </defs>
  <g id="Enmascarar_grupo_64" data-name="Enmascarar grupo 64" transform="translate(-180 -1131.367)" clip-path="url(#clip-path)">
    <g id="Grupo_79535" data-name="Grupo 79535" transform="translate(91.391 964.482)">
      <g id="Grupo_79563" data-name="Grupo 79563" transform="translate(60.677 59.376)" clip-path="url(#clip-path-2)">
        <g id="Grupo_79562" data-name="Grupo 79562" transform="translate(-60.245 -84.442)">
          <rect id="Rect치ngulo_33857" data-name="Rect치ngulo 33857" width="560.864" height="340.142" transform="translate(60.245 84.442)" fill="url(#linear-gradient)"/>
          <g id="Grupo_79535-2" data-name="Grupo 79535" transform="translate(29.427 25.018)" opacity="0.3" style="mix-blend-mode: multiply;isolation: isolate">
            <path id="Trazado_114795" data-name="Trazado 114795" d="M601.406,15.985l3.881-2.823A380.374,380.374,0,0,0,637.967,136L632.184-2.065l8.907-5.164q14.844,120.681,29.688,241.363a354.1,354.1,0,0,0,23.974-124.67l4.193-.7A453,453,0,0,1,675,268.491q12.307,100.044,24.612,200.086l-47.558,3.76q-6.3-150.445-12.6-300.893A448.851,448.851,0,0,1,601.406,15.985Z" transform="translate(-88.161 7.229)" fill="url(#linear-gradient-2)"/>
            <path id="Trazado_114796" data-name="Trazado 114796" d="M399.365,117.563c4.13,11.767,27.374,78.05,31.5,89.817q-.695-49.623-1.389-99.247L412.173,63.515l1.609-4.4,15.485,33.835q-.423-30.262-.847-60.525l6.235-1.372q4.56,27.19,8.047,54.545a273.629,273.629,0,0,0,12.281-42.213l5.673-4.465a222.918,222.918,0,0,1-16.261,60.553q7.478,63.624,9.17,127.75c3.761-12.662,28.167-92.918,30.092-105.985l5.474,5.965c-2.278,22.049-28.379,111.186-35.085,132.314q.2,58.98-4.52,117.839L433.2,374.167q-.978-69.921-1.957-139.842c-7.171-16.771-31.233-89.009-33.765-107.072Z" transform="translate(-66.174 3.102)" fill="url(#linear-gradient-3)"/>
            <path id="Trazado_114797" data-name="Trazado 114797" d="M121.4,74.254l4.648-2.924a971.156,971.156,0,0,0,35.407,125.911Q167.28,116.2,180.8,35.962l20.517-.617q-7.177,44.906-11.684,90.181a315.872,315.872,0,0,0,47.484-86.545l5.126,4.889a253.469,253.469,0,0,1-54.507,101.967A1548.14,1548.14,0,0,0,182.2,304.762c12.792-35.889,29.664-84.065,33.3-121.993l5.776,2.081c-4.421,45.508-23.035,101.167-38.486,144.2q1.709,53.036,7.048,105.872L160.4,426.473a1704.855,1704.855,0,0,1-.407-206.878A1073.373,1073.373,0,0,1,121.4,74.254Z" transform="translate(-36.406 2.639)" fill="url(#linear-gradient-4)"/>
            <path id="Trazado_114798" data-name="Trazado 114798" d="M26.135,240.445A465.689,465.689,0,0,0,81.558,7.743l11.395,7.166A888.542,888.542,0,0,1,64.234,201.871c19.385-15.46,41.247-46.144,55.535-76.977l.9,10.04C104.85,173.917,83.3,202.962,58.331,223.111q-6.806,23.333-14.886,46.268Z" transform="translate(-26.135 5.615)" fill="url(#linear-gradient-5)"/>
            <path id="Trazado_114799" data-name="Trazado 114799" d="M470.126,207.943l3.44-3.625c7.822,37.256,31.905,100.042,51.74,132.532q.749-114.944,1.5-229.888a533.6,533.6,0,0,1-17.182-65.63l2.533-7.667,14.831,45.4q.261-40.006.522-80.012L536.15-3.66q7.522,63.6,11.119,127.583A653.336,653.336,0,0,0,582.288,2.006l6.2.655A503.634,503.634,0,0,1,548.3,144.046q2.037,43.611,2.262,87.282a417.509,417.509,0,0,0,22.16-97.2l7.721,4.268a362.993,362.993,0,0,1-29.924,120q-.725,90.562-9.292,180.834l-16.8,31.413.712-108.992-1.883,3.175C501.526,328.159,475.885,250.174,470.126,207.943Z" transform="translate(-74.007 6.844)" fill="url(#linear-gradient-6)"/>
            <path id="Trazado_114800" data-name="Trazado 114800" d="M263.053,58.854l5.1-3.554a828.635,828.635,0,0,0,40.53,132.845q-.668-83.011,5.508-165.887l7.112-1.4A2680.931,2680.931,0,0,0,347.47,432.327L316.862,418c-6.454-57.791-6.226-138.666-7.648-196.8A739.769,739.769,0,0,1,263.053,58.854Z" transform="translate(-51.68 4.2)" fill="url(#linear-gradient-7)"/>
          </g>
          <path id="Trazado_114801" data-name="Trazado 114801" d="M43.3,304.573a22.514,22.514,0,0,1,24.472-1.654,22.515,22.515,0,0,1,10.74,22.053,16.946,16.946,0,0,1,31.133-7.554c-5.193-7.364-3.421-18.722,3.769-24.153s18.6-4.029,24.262,2.98c-.709-9.432,7.929-18.481,17.384-18.212s17.563,9.8,16.318,19.175c3.213-8.588,15.055-12.534,22.776-7.591s9.1,17.35,2.641,23.863c9.643-4,20.69,9.481,14.877,18.151a24.54,24.54,0,0,1,29.034,3.918q.246-11.683.493-23.367a21.517,21.517,0,0,1,23.953,11.8c-3.063-9.336,2.886-20.619,12.319-23.366s20.51,3.579,22.938,13.1c.147-7.933,9.938-13.922,17.067-10.438s8.423,14.887,2.255,19.879a11.946,11.946,0,1,1,19.755,13.437,17.026,17.026,0,0,1,28.9,14.013c6.47-6.274,19.077-3.537,22.362,4.856-5.477-3.928-6.644-12.663-2.391-17.891s13.043-5.862,18-1.3A16.135,16.135,0,0,1,434.7,321.485c-5.432-8.675-2.744-21.438,5.723-27.187s21.323-3.535,27.38,4.715c8.507-10.38,28.542-5.771,31.655,7.284a16,16,0,0,1,31.515-2.879A17.464,17.464,0,0,1,563.76,293.36a22.506,22.506,0,0,1,39.93-13.179c11.521-10.007,30.862-3.9,39.74,8.512s10.049,28.589,10.464,43.843a786.952,786.952,0,0,1-3.121,94.579H43.3Z" transform="translate(1.441 2.145)" opacity="0.77" fill="url(#linear-gradient-8)"/>
          <path id="Trazado_114802" data-name="Trazado 114802" d="M134.067,143.4q-6.3,150.445-12.6,300.893L73.9,440.535Q86.211,340.492,98.516,240.448A453.044,453.044,0,0,1,74.574,80.719l4.194.7a354.089,354.089,0,0,0,23.973,124.671L132.429-35.271l8.907,5.163-5.784,138.066A380.353,380.353,0,0,0,168.232-14.88l3.881,2.823A448.833,448.833,0,0,1,134.067,143.4ZM410,62.258c-13.8,64.073-49.53,113.134-58.646,125.8q.818-58.41,1.635-116.82l20.371-52.519-1.893-5.183L353.242,53.363q.5-35.622,1-71.243L346.9-19.5q-5.366,32-9.47,64.2A321.927,321.927,0,0,1,322.974-4.979l-6.679-5.258A262.4,262.4,0,0,0,335.436,61.04q-8.8,74.89-10.794,150.371c-4.428-14.9-44.377-100.49-42.038-175.092l-6.443,7.021c0,68.686,40.021,181.214,47.914,206.084q-.24,69.423,5.319,138.7l19.212-3.749q1.154-82.3,2.305-164.6C367.541,195.7,406.666,119.353,412.22,73.664Zm156.377-42.9-4.647-2.925a971.454,971.454,0,0,1-35.407,125.911q-5.828-81.04-19.345-161.28l-20.518-.616q7.179,44.9,11.685,90.181A315.842,315.842,0,0,1,450.662-15.91l-5.126,4.889A253.465,253.465,0,0,0,500.043,90.946a1548.652,1548.652,0,0,1,5.539,158.925c-33.668-14.591-63.468-77.133-67.1-115.062l-5.776,2.081c4.42,45.508,30.342,111.417,72.289,137.267q-1.709,53.037-7.048,105.872l29.441-8.447a1705.041,1705.041,0,0,0,.407-206.878A1073.266,1073.266,0,0,0,566.379,19.362Zm78.6,189.014a465.684,465.684,0,0,1-55.424-232.7l-11.395,7.167A888.589,888.589,0,0,0,606.877,169.8c-19.577-17.7-46.761-54.537-60.344-77.169l-3.293,6.929c17.184,27.095,44.575,71.331,69.541,91.48q6.805,23.333,14.885,46.268ZM-6.848,234.56a543.331,543.331,0,0,0,57.677-103.5A542.873,542.873,0,0,0,82.636,28.484L80.742,14.809A398.989,398.989,0,0,1,12.395,156.44Zm319.866-38-3.44-3.625c-7.822,37.256-34.1,98.48-53.935,130.97q-.751-114.944-1.5-229.888a533.562,533.562,0,0,0,17.182-65.63l-2.533-7.667-14.831,45.4q-.262-40-.523-80.011L244.8-16.608q-7.522,63.6-11.12,127.582A653.483,653.483,0,0,1,198.66-10.941l-6.2.655A503.631,503.631,0,0,0,232.644,131.1q-2.038,43.612-2.263,87.282c-20.891-34.847-49.065-85.754-55.732-174.924l-7.721,4.268c3.86,95.212,46.779,159.817,63.5,197.72q.725,90.563,9.292,180.835l16.8,31.413q-.356-54.5-.712-108.993l1.883,3.176C279.422,315.212,307.259,238.788,313.018,196.557ZM465.143,27.96l-5.1-3.554a828.548,828.548,0,0,1-40.531,132.845q.668-83.01-5.508-165.887l-7.112-1.4a2680.838,2680.838,0,0,1-26.168,411.466l30.608-14.33c6.455-57.79,6.226-138.665,7.648-196.8A739.8,739.8,0,0,0,465.143,27.96Z" transform="translate(6.848 35.271)" fill="url(#linear-gradient-9)"/>
          <g id="Grupo_79561" data-name="Grupo 79561" transform="translate(33.84 223.455)">
            <g id="Grupo_79536" data-name="Grupo 79536" transform="translate(567.948 13.428)">
              <path id="Trazado_114803" data-name="Trazado 114803" d="M712.222,356.937c-.087-.052-.166-.1-.252-.161-.413-.25-.832-.513-1.244-.775-8.367-5.355-17.124-13.105-26.054-26.052l5.525-5.721-10.363-1.547s-1.469-4.884-3.306-11.839c-.057-.221-.114-.443-.177-.665-.384-1.46-.776-2.995-1.175-4.59q-.315-1.234-.623-2.507a209.183,209.183,0,0,1-4.8-25.116c-.015-.136-.03-.271-.046-.4-.02-.243-.05-.474-.072-.7-.186-1.681-.354-3.158-.511-4.468-.024-.263-.056-.521-.083-.766-.825-6.932-1.2-8.532-1.371-8.821l9.23-4.5-8.567-1.157a239.516,239.516,0,0,1,6.278-26.91c3.5,1.527,22.431,10.432,31.591,32.292l-5.48,5.34,6.48-.98s.825,2.587,1.926,6.687c.228.839.465,1.745.709,2.706,1.97,7.7,4.4,18.922,4.886,28.9.03.611.051,1.248.076,1.906s.029,1.365.04,2.074C715.09,327.264,712.222,356.937,712.222,356.937Z" transform="translate(-667.667 -230.24)" fill="url(#linear-gradient-10)"/>
              <path id="Trazado_114804" data-name="Trazado 114804" d="M714.487,375.782q-1.766-9.759-3.594-19.493-5.177-27.559-10.958-55-.53-2.524-1.076-5.031c-3.932,2.479-8.18,4.475-12.027,7.125a119.6,119.6,0,0,0-10.137,7.748c-.057-.221-.114-.443-.177-.665a74.53,74.53,0,0,1,9.418-8.252c3.833-2.786,8.072-5.8,12.6-7.468-.048-.233-.1-.473-.15-.714a54.8,54.8,0,0,0-12.772,4.869,61.349,61.349,0,0,0-7.135,4.549,24.015,24.015,0,0,1-3.138,2.426q-.315-1.234-.623-2.507c.838-.861,1.9-1.6,2.67-2.269a57.652,57.652,0,0,1,7.525-5.6c4.053-2.482,8.27-4.255,12.828-4.4-1.154-5.2-2.378-10.359-3.735-15.475-4.132.149-8.289-.052-12.411.272a64.317,64.317,0,0,0-11.724,1.96c-.02-.243-.05-.474-.072-.7a61.9,61.9,0,0,1,23.886-2.754c-.012-.062-.031-.118-.044-.173-8.1-1.127-16.239-2.513-24.353-1.541-.024-.263-.056-.521-.083-.765,7.857-1.488,16.486-.743,24.12,1.136-3.848-13.955-8.849-27.477-16.619-40.067-.032-.058.042-.114.082-.062,11.628,15.453,20.224,50.385,21.047,54.228a111.211,111.211,0,0,1,11.458-13.283c.228.839.465,1.745.709,2.706-3.941,3.678-7.776,7.466-11.454,11.521a.575.575,0,0,1-.468.2c.2.935,1.973,9.4,2.176,10.372q1.911,9.059,3.852,18.127c2.27-3.418,6.045-6.219,9.362-8.44.492-.327.989-.654,1.492-.966.016.669.029,1.365.04,2.074-.305.186-.6.378-.9.572-3.551,2.323-6.38,5.432-9.741,7.928,2.756,13,5.448,26.031,7.779,39.107q1.647,9.293,3.016,18.628A.336.336,0,0,1,714.487,375.782Z" transform="translate(-667.833 -230.527)" fill="#004c39" opacity="0.52"/>
            </g>
            <g id="Grupo_79537" data-name="Grupo 79537" transform="translate(27.165)">
              <path id="Trazado_114805" data-name="Trazado 114805" d="M692.674,388.129q-10.027-17.764-18.62-36.29-2.82-6.058-5.444-12.209a.542.542,0,0,1-.157.219c-.615.507-3.334.043-4.145.016-1.382-.046-2.768-.135-4.143-.293a20.435,20.435,0,0,1-6.343-1.516,9.068,9.068,0,0,1-4.643-4.414,5.888,5.888,0,0,1,.766-6.155c1.927-2.163,5.464-2.161,8.015-.787s4.347,3.787,6.057,6.126l2.865,3.918c.236.323.667.782,1.046,1.258q-3.9-9.259-7.264-18.726a.486.486,0,0,1-.116.1c-.594.389-2.959-.287-3.675-.39-1.22-.177-2.441-.39-3.644-.665a18.193,18.193,0,0,1-5.474-1.962A8.08,8.08,0,0,1,644.071,312a5.249,5.249,0,0,1,1.278-5.38c1.919-1.728,5.054-1.381,7.181.085s3.482,3.781,4.77,6.02q1.078,1.876,2.156,3.753c.116.2.3.464.494.748q-2.951-8.539-5.38-17.246c-.721.213-2.661-.329-3.284-.419-1.144-.165-2.287-.365-3.414-.622a17.05,17.05,0,0,1-5.13-1.839,7.576,7.576,0,0,1-3.452-4.091,4.922,4.922,0,0,1,1.2-5.042c1.8-1.62,4.737-1.295,6.73.079s3.263,3.544,4.47,5.642l2.021,3.516c.051.088.115.188.188.3q-1.519-5.685-2.787-11.438a224.3,224.3,0,0,1-4.723-32.431q-.124-1.808-.232-3.641a12.99,12.99,0,0,1-1.768-.825c-.7-.311-1.387-.645-2.057-1.013a11.3,11.3,0,0,1-2.929-2.1,5.008,5.008,0,0,1-1.454-3.224,3.249,3.249,0,0,1,1.673-2.988,3.7,3.7,0,0,1,4.263,1.267,10.828,10.828,0,0,1,1.821,4.394q.139.554.278,1.11c-.175-3.888-.248-7.823-.128-11.737a9.538,9.538,0,0,1-1.349-.628c-.529-.236-1.052-.489-1.559-.767a8.545,8.545,0,0,1-2.22-1.588,3.8,3.8,0,0,1-1.1-2.444,2.462,2.462,0,0,1,1.268-2.264,2.807,2.807,0,0,1,3.231.959,8.2,8.2,0,0,1,1.381,3.33q.207.832.416,1.666.153-3.307.525-6.569a5.471,5.471,0,0,1-.667-1.541c-.219-.537-.421-1.081-.595-1.634a8.547,8.547,0,0,1-.5-2.683,3.792,3.792,0,0,1,.9-2.527,2.462,2.462,0,0,1,2.482-.757,2.807,2.807,0,0,1,1.667,2.929,8.194,8.194,0,0,1-1.308,3.359l-1.009,1.763c-.052.09-.11.218-.175.355q-.075,3.411-.149,6.8a11.817,11.817,0,0,1,1.656-4.027,4.71,4.71,0,0,1,1.9-1.689,2.212,2.212,0,0,1,2.4.355,2.236,2.236,0,0,1,.394,2.224,5.162,5.162,0,0,1-1.326,1.945,12.8,12.8,0,0,1-5.075,3.391,202.236,202.236,0,0,0,.663,23.5c.239,2.431.531,4.849.854,7.257a21.557,21.557,0,0,1,3.437-10.7,8.549,8.549,0,0,1,3.457-3.068,3.641,3.641,0,0,1,5.076,4.685,9.369,9.369,0,0,1-2.407,3.53c-2.513,2.552-5.959,5.317-9.473,6.242q.582,4.242,1.329,8.439a19.52,19.52,0,0,1,.933-5.561,8.54,8.54,0,0,1,2.487-3.9,3.641,3.641,0,0,1,6.163,3.117,9.354,9.354,0,0,1-1.35,4.055c-1.656,3.025-4.094,6.465-7.066,8.369a274.033,274.033,0,0,0,10.834,37.832,24.967,24.967,0,0,1,.293-13.68,10.023,10.023,0,0,1,2.917-4.572,4.715,4.715,0,0,1,5.128-.672,4.764,4.764,0,0,1,2.1,4.33,10.988,10.988,0,0,1-1.584,4.757c-2.03,3.708-5.052,7.967-8.753,10.126,5.127,14.167,11.208,28.025,17.735,41.679a32.415,32.415,0,0,1-1.171-16.5,12.8,12.8,0,0,1,3.063-6.209,5.453,5.453,0,0,1,9.687,3.631,14.011,14.011,0,0,1-1.344,6.257c-2.05,4.972-5.276,10.776-9.647,14.038,4.179,8.7,8.529,17.324,12.92,25.891C693.542,388.161,692.916,388.559,692.674,388.129ZM668.6,323.572c-.927,3.844-.67,11.016,1.493,15.609,3.867-2.859,6.719-7.988,8.528-12.375a12.316,12.316,0,0,0,1.181-5.5,4.791,4.791,0,0,0-8.51-3.19A11.234,11.234,0,0,0,668.6,323.572Zm-18.627-81.843a15.336,15.336,0,0,0-2.487,8.292c2.573-.657,5.1-2.685,6.938-4.552a6.8,6.8,0,0,0,1.75-2.565,2.952,2.952,0,0,0-.52-2.936,2.92,2.92,0,0,0-3.168-.467A6.21,6.21,0,0,0,649.974,241.728Zm6.367,44.693a23.209,23.209,0,0,0-.187,13.1c3.472-2.021,6.31-6.019,8.214-9.5a10.29,10.29,0,0,0,1.484-4.458,4,4,0,0,0-6.777-3.428A9.407,9.407,0,0,0,656.342,286.421Zm-14.873-22.674c.921.506,1.873.965,2.833,1.394.563.252,2.344,1.358,2.922,1.177.755-.236-.034-1.9-.217-2.635l-.894-3.578a14.915,14.915,0,0,0-2.507-6.048c-1.4-1.7-3.891-2.712-5.867-1.742a4.475,4.475,0,0,0-2.3,4.112,6.887,6.887,0,0,0,2,4.437A15.513,15.513,0,0,0,641.468,263.747Zm31.956,90.905c-1.947-2.662-3.991-5.41-6.894-6.973s-6.93-1.565-9.124.9a6.7,6.7,0,0,0-.871,7.005,10.326,10.326,0,0,0,5.284,5.024,23.275,23.275,0,0,0,7.22,1.725c1.565.18,3.143.28,4.716.333.923.031,4.018.559,4.718-.018.915-.754-1.121-2.619-1.789-3.533Zm-27.116-73.532c.61.088,2.626.665,3.132.333.662-.434-.553-1.82-.929-2.475l-1.839-3.2a14.907,14.907,0,0,0-4.065-5.132c-1.813-1.249-4.485-1.545-6.12-.072a4.476,4.476,0,0,0-1.09,4.586,6.892,6.892,0,0,0,3.14,3.72,15.524,15.524,0,0,0,4.665,1.672C644.228,280.789,645.268,280.971,646.308,281.121Z" transform="translate(-123.382 -215.421)" fill="url(#linear-gradient-11)"/>
              <path id="Trazado_114806" data-name="Trazado 114806" d="M582.721,429.483q-10.734-19.016-19.931-38.848-3.018-6.485-5.828-13.07a.583.583,0,0,1-.168.234c-.658.542-3.57.046-4.438.017-1.48-.049-2.964-.144-4.435-.313a21.857,21.857,0,0,1-6.791-1.622,9.707,9.707,0,0,1-4.969-4.725,6.3,6.3,0,0,1,.819-6.589c2.064-2.315,5.85-2.312,8.581-.843s4.653,4.055,6.483,6.558l3.067,4.194c.253.346.713.837,1.118,1.347-2.779-6.608-5.387-13.289-7.775-20.046a.539.539,0,0,1-.124.112c-.636.417-3.167-.308-3.934-.418-1.307-.188-2.613-.417-3.9-.71a19.479,19.479,0,0,1-5.861-2.1,8.653,8.653,0,0,1-3.943-4.672,5.621,5.621,0,0,1,1.369-5.759c2.055-1.85,5.41-1.479,7.687.09s3.728,4.048,5.106,6.445q1.155,2.009,2.309,4.017c.124.216.321.5.529.8q-3.16-9.142-5.759-18.461c-.773.228-2.849-.352-3.516-.449-1.224-.177-2.448-.39-3.654-.666a18.268,18.268,0,0,1-5.491-1.969,8.107,8.107,0,0,1-3.7-4.378,5.265,5.265,0,0,1,1.283-5.4c1.925-1.734,5.069-1.386,7.2.084s3.493,3.794,4.785,6.04q1.081,1.882,2.163,3.764c.055.094.123.2.2.318q-1.626-6.087-2.984-12.245a240.1,240.1,0,0,1-5.055-34.716q-.134-1.935-.249-3.9a13.737,13.737,0,0,1-1.892-.883c-.747-.334-1.486-.691-2.2-1.084a12.063,12.063,0,0,1-3.135-2.243,5.363,5.363,0,0,1-1.558-3.451,3.483,3.483,0,0,1,1.791-3.2,3.966,3.966,0,0,1,4.564,1.356,11.6,11.6,0,0,1,1.95,4.7q.148.594.3,1.188c-.186-4.162-.266-8.374-.137-12.564a10.221,10.221,0,0,1-1.443-.672c-.567-.253-1.127-.524-1.67-.822a9.132,9.132,0,0,1-2.376-1.7,4.065,4.065,0,0,1-1.18-2.616,2.638,2.638,0,0,1,1.357-2.424,3,3,0,0,1,3.459,1.028,8.777,8.777,0,0,1,1.478,3.565q.223.891.445,1.782c.109-2.359.294-4.707.562-7.031a5.834,5.834,0,0,1-.714-1.65c-.234-.574-.451-1.157-.636-1.749a9.122,9.122,0,0,1-.538-2.872,4.058,4.058,0,0,1,.958-2.7,2.636,2.636,0,0,1,2.657-.811,3,3,0,0,1,1.785,3.136,8.775,8.775,0,0,1-1.4,3.6q-.54.943-1.08,1.888c-.055.1-.118.232-.187.379q-.08,3.651-.16,7.283a12.673,12.673,0,0,1,1.774-4.312,5.037,5.037,0,0,1,2.038-1.808,2.37,2.37,0,0,1,2.57.379,2.4,2.4,0,0,1,.422,2.382,5.526,5.526,0,0,1-1.419,2.081,13.7,13.7,0,0,1-5.432,3.63,216.385,216.385,0,0,0,.709,25.161c.256,2.6.568,5.19.914,7.768a23.088,23.088,0,0,1,3.679-11.45,9.148,9.148,0,0,1,3.7-3.284,4.3,4.3,0,0,1,4.667.69,4.345,4.345,0,0,1,.766,4.325,10.023,10.023,0,0,1-2.576,3.779c-2.69,2.731-6.378,5.691-10.141,6.681q.624,4.542,1.423,9.034a20.9,20.9,0,0,1,1-5.953,9.148,9.148,0,0,1,2.662-4.171,4.3,4.3,0,0,1,4.679-.613,4.346,4.346,0,0,1,1.919,3.95,10.021,10.021,0,0,1-1.444,4.34c-1.773,3.239-4.384,6.921-7.565,8.958a293.18,293.18,0,0,0,11.6,40.5,26.739,26.739,0,0,1,.312-14.644,10.743,10.743,0,0,1,3.123-4.894,4.573,4.573,0,0,1,7.741,3.916,11.75,11.75,0,0,1-1.7,5.093c-2.172,3.968-5.408,8.528-9.37,10.84,5.489,15.164,12,30,18.984,44.616a34.7,34.7,0,0,1-1.254-17.662,13.706,13.706,0,0,1,3.28-6.646c1.774-1.765,4.571-2.683,6.864-1.679a6.509,6.509,0,0,1,3.505,5.566,15.007,15.007,0,0,1-1.44,6.7c-2.194,5.322-5.648,11.534-10.327,15.028,4.474,9.315,9.131,18.544,13.831,27.716C583.65,429.517,582.98,429.943,582.721,429.483Zm-25.769-69.106c-.992,4.115-.717,11.792,1.6,16.709,4.14-3.062,7.193-8.551,9.13-13.248a13.189,13.189,0,0,0,1.264-5.885,5.129,5.129,0,0,0-9.111-3.415A12.042,12.042,0,0,0,556.952,360.377Zm-19.939-87.611a16.422,16.422,0,0,0-2.662,8.877c2.754-.7,5.458-2.875,7.427-4.874a7.284,7.284,0,0,0,1.872-2.746,2.831,2.831,0,0,0-3.948-3.643A6.643,6.643,0,0,0,537.012,272.766Zm6.816,47.842c-1.2,3.327-1.674,9.728-.2,14.023,3.719-2.164,6.756-6.443,8.794-10.167a11.023,11.023,0,0,0,1.589-4.772,4.285,4.285,0,0,0-7.255-3.669A10.06,10.06,0,0,0,543.829,320.608Zm-15.922-24.271c.987.542,2,1.032,3.032,1.492.6.269,2.51,1.452,3.128,1.26.809-.252-.037-2.037-.232-2.821q-.479-1.915-.956-3.831c-.571-2.286-1.183-4.656-2.684-6.474s-4.166-2.9-6.281-1.866a4.788,4.788,0,0,0-2.464,4.4,7.373,7.373,0,0,0,2.143,4.75A16.615,16.615,0,0,0,527.907,296.337Zm34.208,97.31c-2.084-2.849-4.272-5.791-7.38-7.464s-7.418-1.676-9.766.959a7.176,7.176,0,0,0-.932,7.5,11.048,11.048,0,0,0,5.656,5.378,24.87,24.87,0,0,0,7.729,1.847c1.675.193,3.364.3,5.049.357.988.033,4.3.6,5.05-.02.98-.807-1.2-2.8-1.915-3.782Zm-29.026-78.713c.653.094,2.81.711,3.353.356.708-.464-.592-1.948-.995-2.65l-1.968-3.423c-1.174-2.043-2.412-4.155-4.351-5.493s-4.8-1.654-6.552-.077a4.791,4.791,0,0,0-1.166,4.909,7.376,7.376,0,0,0,3.36,3.982,16.6,16.6,0,0,0,4.995,1.791C530.861,314.579,531.974,314.774,533.089,314.935Z" transform="translate(-111.09 -218.582)" fill="url(#linear-gradient-12)"/>
              <path id="Trazado_114807" data-name="Trazado 114807" d="M583.188,406.387q-6.317-20.9-10.955-42.266-1.528-6.988-2.83-14.028a.579.579,0,0,1-.215.192c-.76.385-3.493-.736-4.333-.954-1.434-.372-2.861-.789-4.259-1.276a21.842,21.842,0,0,1-6.272-3.067,9.7,9.7,0,0,1-3.816-5.7,6.3,6.3,0,0,1,2.239-6.25c2.519-1.808,6.214-.978,8.557,1.054s3.653,4.974,4.893,7.816q1.038,2.382,2.076,4.763c.171.393.513.973.8,1.559-1.267-7.055-2.351-14.145-3.2-21.261a.533.533,0,0,1-.146.081c-.712.268-3.024-.992-3.748-1.268-1.234-.469-2.458-.978-3.651-1.546a19.513,19.513,0,0,1-5.259-3.331,8.657,8.657,0,0,1-2.826-5.422,5.62,5.62,0,0,1,2.6-5.321c2.409-1.356,5.6-.261,7.481,1.769s2.752,4.764,3.573,7.405l1.375,4.424c.074.238.205.555.342.9q-1.085-9.611-1.584-19.274c-.8.054-2.7-.966-3.333-1.206-1.156-.44-2.3-.916-3.421-1.449a18.237,18.237,0,0,1-4.928-3.122,8.1,8.1,0,0,1-2.648-5.08,5.267,5.267,0,0,1,2.431-4.986c2.258-1.271,5.25-.244,7.011,1.658s2.579,4.465,3.348,6.939q.645,2.073,1.288,4.146c.032.1.077.224.127.355-.17-4.2-.257-8.4-.235-12.6a240.252,240.252,0,0,1,2.656-34.981q.293-1.918.61-3.858a13.873,13.873,0,0,1-1.654-1.276c-.655-.489-1.3-1-1.912-1.54a12.023,12.023,0,0,1-2.569-2.875,5.356,5.356,0,0,1-.765-3.708,3.481,3.481,0,0,1,2.446-2.729,3.963,3.963,0,0,1,4.156,2.321,11.583,11.583,0,0,1,.874,5.016l.03,1.225c.727-4.1,1.571-8.229,2.613-12.29a10.3,10.3,0,0,1-1.262-.972c-.5-.37-.984-.757-1.45-1.167a9.158,9.158,0,0,1-1.947-2.179,4.061,4.061,0,0,1-.579-2.81,2.638,2.638,0,0,1,1.854-2.069,3.006,3.006,0,0,1,3.15,1.758,8.8,8.8,0,0,1,.663,3.8l.045,1.836q.933-3.418,2.086-6.739a5.832,5.832,0,0,1-.336-1.766c-.1-.611-.187-1.228-.239-1.845a9.152,9.152,0,0,1,.1-2.92,4.061,4.061,0,0,1,1.526-2.43,2.639,2.639,0,0,1,2.77-.21,3,3,0,0,1,1.056,3.45,8.781,8.781,0,0,1-2.153,3.2l-1.467,1.605c-.075.082-.166.2-.266.33q-.877,3.545-1.748,7.071a12.659,12.659,0,0,1,2.673-3.819,5.044,5.044,0,0,1,2.385-1.319,2.369,2.369,0,0,1,2.425.932,2.394,2.394,0,0,1-.109,2.416,5.527,5.527,0,0,1-1.841,1.721,13.7,13.7,0,0,1-6.094,2.355,216.655,216.655,0,0,0-4.809,24.707c-.318,2.6-.58,5.189-.807,7.781a23.09,23.09,0,0,1,6.094-10.37,9.149,9.149,0,0,1,4.33-2.395,4.3,4.3,0,0,1,4.4,1.693,4.345,4.345,0,0,1-.2,4.388,10.011,10.011,0,0,1-3.34,3.124c-3.222,2.077-7.468,4.159-11.357,4.3q-.384,4.567-.586,9.126a20.9,20.9,0,0,1,2.276-5.59,9.147,9.147,0,0,1,3.51-3.488,3.9,3.9,0,0,1,5.708,4.7,10.014,10.014,0,0,1-2.359,3.919c-2.437,2.773-5.79,5.795-9.34,7.088a293.421,293.421,0,0,0,2.463,42.054,26.736,26.736,0,0,1,3.506-14.221,10.737,10.737,0,0,1,4.118-4.092,4.573,4.573,0,0,1,6.7,5.514,11.754,11.754,0,0,1-2.767,4.6c-2.988,3.4-7.143,7.14-11.513,8.53,2.04,16,5.148,31.9,8.769,47.687a34.713,34.713,0,0,1,2.638-17.508,13.707,13.707,0,0,1,4.653-5.768c2.118-1.335,5.048-1.619,7.066-.138a6.51,6.51,0,0,1,2.2,6.2,15.016,15.016,0,0,1-2.869,6.222c-3.3,4.713-8.034,10.02-13.363,12.406,2.329,10.068,4.855,20.092,7.436,30.069C584.089,406.624,583.341,406.892,583.188,406.387Zm-10.036-73.069c-1.867,3.8-3.278,11.35-2.094,16.653,4.709-2.082,8.888-6.771,11.8-10.931a13.182,13.182,0,0,0,2.521-5.466,5.129,5.129,0,0,0-8.144-5.324A12.035,12.035,0,0,0,573.152,333.319Zm-.3-89.851a16.433,16.433,0,0,0-4.538,8.08c2.842-.085,5.955-1.612,8.313-3.132a7.282,7.282,0,0,0,2.427-2.271A2.831,2.831,0,0,0,576,241.728,6.648,6.648,0,0,0,572.85,243.467Zm-3.809,48.176c-1.9,2.984-3.76,9.126-3.262,13.639,4.1-1.3,8-4.81,10.8-8a11.024,11.024,0,0,0,2.594-4.309,4.285,4.285,0,0,0-6.276-5.167A10.066,10.066,0,0,0,569.041,291.643Zm-10.23-27.165c.845.743,1.73,1.445,2.632,2.118.53.394,2.131,1.966,2.777,1.913.844-.07.409-1.995.39-2.8q-.048-1.973-.1-3.947c-.058-2.356-.136-4.8-1.2-6.9s-3.43-3.744-5.721-3.194a4.791,4.791,0,0,0-3.368,3.757,7.381,7.381,0,0,0,1.054,5.1A16.61,16.61,0,0,0,558.811,264.478Zm12.1,102.435c-1.41-3.236-2.9-6.585-5.569-8.9s-6.872-3.257-9.74-1.2a7.175,7.175,0,0,0-2.548,7.113,11.046,11.046,0,0,0,4.343,6.484,24.856,24.856,0,0,0,7.138,3.492c1.593.555,3.217,1.029,4.848,1.452.957.248,4.067,1.524,4.933,1.085,1.132-.574-.559-3-1.042-4.108ZM559.8,283.758c.617.235,2.587,1.309,3.194,1.08.793-.3-.152-2.031-.392-2.8q-.586-1.884-1.171-3.77c-.7-2.25-1.445-4.582-3.046-6.311s-4.323-2.664-6.376-1.508a4.79,4.79,0,0,0-2.211,4.535,7.375,7.375,0,0,0,2.408,4.621,16.633,16.633,0,0,0,4.482,2.839C557.706,282.925,558.75,283.358,559.8,283.758Z" transform="translate(-114.162 -215.421)" fill="url(#linear-gradient-13)"/>
              <path id="Trazado_114808" data-name="Trazado 114808" d="M459.518,466.561q-6.317-20.9-10.955-42.266-1.528-6.987-2.83-14.028a.571.571,0,0,1-.215.192c-.76.385-3.493-.735-4.333-.954-1.434-.371-2.861-.788-4.259-1.275a21.847,21.847,0,0,1-6.272-3.068,9.709,9.709,0,0,1-3.817-5.7,6.3,6.3,0,0,1,2.24-6.25c2.52-1.808,6.214-.978,8.557,1.054s3.654,4.974,4.893,7.817q1.038,2.381,2.076,4.763c.171.393.513.972.8,1.559-1.267-7.056-2.351-14.145-3.2-21.261a.587.587,0,0,1-.146.081c-.712.267-3.024-.993-3.748-1.268-1.234-.47-2.459-.979-3.651-1.547a19.47,19.47,0,0,1-5.259-3.331,8.658,8.658,0,0,1-2.826-5.422,5.621,5.621,0,0,1,2.6-5.321c2.409-1.356,5.6-.26,7.481,1.769s2.752,4.765,3.573,7.405q.688,2.212,1.375,4.424c.074.238.205.555.342.9q-1.085-9.61-1.584-19.274c-.8.054-2.7-.966-3.333-1.206-1.156-.44-2.3-.916-3.421-1.449a18.253,18.253,0,0,1-4.928-3.121,8.11,8.11,0,0,1-2.648-5.081,5.265,5.265,0,0,1,2.431-4.985c2.258-1.271,5.25-.245,7.011,1.658s2.579,4.464,3.348,6.939q.645,2.073,1.288,4.146c.032.1.077.224.128.354-.17-4.2-.257-8.4-.235-12.6a240.243,240.243,0,0,1,2.656-34.981q.293-1.918.609-3.858A13.936,13.936,0,0,1,441.6,310.1c-.655-.489-1.3-1-1.912-1.539a12.056,12.056,0,0,1-2.569-2.875,5.357,5.357,0,0,1-.766-3.708,3.482,3.482,0,0,1,2.446-2.73,3.965,3.965,0,0,1,4.157,2.321,11.586,11.586,0,0,1,.874,5.016q.016.613.03,1.225c.727-4.1,1.571-8.229,2.613-12.29a10.225,10.225,0,0,1-1.262-.972c-.5-.37-.984-.757-1.45-1.167a9.141,9.141,0,0,1-1.947-2.179,4.065,4.065,0,0,1-.58-2.81,2.641,2.641,0,0,1,1.855-2.069,3.007,3.007,0,0,1,3.15,1.759,8.791,8.791,0,0,1,.663,3.8l.045,1.837q.933-3.418,2.086-6.74a5.83,5.83,0,0,1-.336-1.766c-.1-.611-.187-1.228-.239-1.845a9.153,9.153,0,0,1,.1-2.92,4.058,4.058,0,0,1,1.526-2.429,2.637,2.637,0,0,1,2.77-.21,3,3,0,0,1,1.056,3.449,8.783,8.783,0,0,1-2.153,3.2l-1.467,1.606c-.075.082-.166.2-.266.329q-.877,3.545-1.748,7.071a12.643,12.643,0,0,1,2.673-3.819,5.038,5.038,0,0,1,2.385-1.32,2.37,2.37,0,0,1,2.425.933,2.394,2.394,0,0,1-.109,2.416,5.514,5.514,0,0,1-1.841,1.72,13.692,13.692,0,0,1-6.094,2.355,216.705,216.705,0,0,0-4.809,24.708c-.318,2.6-.58,5.188-.807,7.78a23.081,23.081,0,0,1,6.094-10.369,9.15,9.15,0,0,1,4.33-2.4,3.9,3.9,0,0,1,4.206,6.081,10.023,10.023,0,0,1-3.34,3.125c-3.223,2.076-7.468,4.159-11.357,4.3q-.384,4.567-.586,9.126a20.874,20.874,0,0,1,2.276-5.59,9.154,9.154,0,0,1,3.51-3.488,3.9,3.9,0,0,1,5.708,4.7,10.016,10.016,0,0,1-2.359,3.918c-2.437,2.773-5.79,5.795-9.34,7.088a293.406,293.406,0,0,0,2.463,42.054,26.735,26.735,0,0,1,3.506-14.221,10.737,10.737,0,0,1,4.118-4.092,4.573,4.573,0,0,1,6.7,5.514,11.766,11.766,0,0,1-2.768,4.6c-2.988,3.4-7.143,7.139-11.514,8.529,2.04,16,5.149,31.9,8.77,47.687a34.715,34.715,0,0,1,2.638-17.508,13.709,13.709,0,0,1,4.653-5.768c2.118-1.335,5.048-1.619,7.066-.138a6.51,6.51,0,0,1,2.2,6.2,15.01,15.01,0,0,1-2.869,6.222c-3.3,4.713-8.034,10.02-13.363,12.406,2.33,10.068,4.855,20.093,7.436,30.069C460.419,466.8,459.671,467.067,459.518,466.561Zm-10.036-73.069c-1.868,3.8-3.278,11.35-2.094,16.653,4.709-2.081,8.888-6.771,11.8-10.93a13.189,13.189,0,0,0,2.521-5.466,5.129,5.129,0,0,0-8.144-5.324A12.043,12.043,0,0,0,449.482,393.493Zm-.3-89.851a16.43,16.43,0,0,0-4.539,8.081c2.842-.084,5.955-1.611,8.313-3.132a7.284,7.284,0,0,0,2.427-2.271,2.831,2.831,0,0,0-3.056-4.418A6.656,6.656,0,0,0,449.18,303.641Zm-3.809,48.176c-1.9,2.983-3.76,9.126-3.262,13.64,4.1-1.3,8-4.811,10.8-8a11.038,11.038,0,0,0,2.594-4.309,4.286,4.286,0,0,0-6.277-5.167A10.071,10.071,0,0,0,445.371,351.817Zm-10.23-27.165c.845.744,1.73,1.446,2.632,2.119.53.394,2.131,1.966,2.777,1.913.844-.07.41-2,.39-2.8q-.048-1.974-.1-3.948c-.057-2.356-.136-4.8-1.2-6.9s-3.43-3.745-5.721-3.194a4.791,4.791,0,0,0-3.368,3.757,7.374,7.374,0,0,0,1.054,5.1A16.576,16.576,0,0,0,435.141,324.652Zm12.1,102.435c-1.41-3.235-2.9-6.584-5.569-8.9s-6.872-3.256-9.74-1.2a7.176,7.176,0,0,0-2.548,7.113,11.045,11.045,0,0,0,4.343,6.485,24.878,24.878,0,0,0,7.138,3.491c1.592.555,3.217,1.029,4.848,1.452.957.249,4.067,1.524,4.933,1.086,1.132-.574-.559-3-1.042-4.109Zm-11.114-83.155c.617.235,2.587,1.309,3.194,1.081.793-.3-.152-2.031-.392-2.8q-.586-1.886-1.172-3.771c-.7-2.25-1.445-4.581-3.046-6.311s-4.323-2.663-6.376-1.508a4.79,4.79,0,0,0-2.211,4.535,7.376,7.376,0,0,0,2.408,4.621,16.61,16.61,0,0,0,4.482,2.839C434.036,343.1,435.08,343.532,436.132,343.932Z" transform="translate(-100.828 -221.909)" fill="url(#linear-gradient-14)"/>
              <path id="Trazado_114809" data-name="Trazado 114809" d="M61.58,397.587c4.7-9.171,9.356-18.4,13.831-27.716-4.679-3.493-8.133-9.706-10.327-15.028a15,15,0,0,1-1.44-6.7,6.509,6.509,0,0,1,3.505-5.566c2.293-1,5.091-.086,6.864,1.679a13.7,13.7,0,0,1,3.28,6.646,34.7,34.7,0,0,1-1.254,17.662c6.987-14.617,13.5-29.452,18.984-44.616-3.961-2.312-7.2-6.872-9.37-10.84a11.754,11.754,0,0,1-1.7-5.092A4.573,4.573,0,0,1,91.7,304.1,10.746,10.746,0,0,1,94.823,309a26.743,26.743,0,0,1,.312,14.643,293.43,293.43,0,0,0,11.6-40.5c-3.182-2.039-5.792-5.72-7.565-8.958a10.021,10.021,0,0,1-1.444-4.34,3.9,3.9,0,0,1,6.6-3.338,9.157,9.157,0,0,1,2.662,4.171,20.915,20.915,0,0,1,1,5.953q.8-4.494,1.423-9.034c-3.762-.989-7.451-3.95-10.141-6.681a10.029,10.029,0,0,1-2.577-3.78,4.344,4.344,0,0,1,.766-4.324,4.3,4.3,0,0,1,4.667-.69,9.152,9.152,0,0,1,3.7,3.283,23.091,23.091,0,0,1,3.679,11.451c.345-2.578.658-5.166.914-7.768a216.757,216.757,0,0,0,.709-25.161,13.7,13.7,0,0,1-5.432-3.631,5.516,5.516,0,0,1-1.419-2.081,2.394,2.394,0,0,1,.422-2.382,2.37,2.37,0,0,1,2.57-.38,5.045,5.045,0,0,1,2.038,1.808,12.668,12.668,0,0,1,1.774,4.311q-.075-3.635-.16-7.282c-.07-.147-.132-.284-.187-.38q-.541-.943-1.08-1.887a8.786,8.786,0,0,1-1.4-3.6,3.005,3.005,0,0,1,1.786-3.135,2.638,2.638,0,0,1,2.657.81,4.061,4.061,0,0,1,.958,2.705,9.13,9.13,0,0,1-.538,2.872c-.186.591-.4,1.174-.636,1.749a5.859,5.859,0,0,1-.714,1.649q.4,3.488.562,7.032.222-.891.445-1.783a8.789,8.789,0,0,1,1.477-3.565,3.006,3.006,0,0,1,3.459-1.027,2.639,2.639,0,0,1,1.357,2.424,4.065,4.065,0,0,1-1.18,2.616,9.176,9.176,0,0,1-2.376,1.7c-.543.3-1.1.568-1.67.821a10.122,10.122,0,0,1-1.444.672c.128,4.191.05,8.4-.137,12.565l.3-1.188a11.592,11.592,0,0,1,1.95-4.7,3.966,3.966,0,0,1,4.564-1.356,3.479,3.479,0,0,1,1.79,3.2,5.358,5.358,0,0,1-1.557,3.451,12.068,12.068,0,0,1-3.135,2.244c-.716.393-1.456.75-2.2,1.084a13.741,13.741,0,0,1-1.892.883q-.114,1.961-.249,3.9a240.205,240.205,0,0,1-5.055,34.716q-1.348,6.161-2.984,12.244c.079-.116.147-.224.2-.318l2.164-3.763c1.292-2.247,2.652-4.569,4.785-6.04s5.278-1.818,7.2-.085a5.266,5.266,0,0,1,1.283,5.4,8.109,8.109,0,0,1-3.7,4.379,18.242,18.242,0,0,1-5.491,1.968c-1.206.276-2.43.49-3.655.667-.666.1-2.743.677-3.515.448q-2.586,9.321-5.759,18.461c.208-.3.4-.584.529-.8q1.154-2.009,2.309-4.017c1.378-2.4,2.829-4.876,5.106-6.445s5.632-1.941,7.687-.091a5.623,5.623,0,0,1,1.369,5.76,8.66,8.66,0,0,1-3.943,4.672,19.5,19.5,0,0,1-5.861,2.1c-1.287.294-2.594.523-3.9.711-.766.111-3.3.834-3.934.417a.518.518,0,0,1-.124-.111c-2.388,6.756-5,13.438-7.775,20.045.405-.509.865-1,1.118-1.346l3.067-4.194c1.831-2.5,3.753-5.089,6.483-6.558s6.517-1.472,8.581.843a6.3,6.3,0,0,1,.819,6.588,9.709,9.709,0,0,1-4.969,4.726,21.888,21.888,0,0,1-6.791,1.622c-1.471.17-2.955.264-4.435.313-.868.029-3.779.525-4.438-.017a.59.59,0,0,1-.168-.235q-2.805,6.584-5.828,13.07-9.215,19.8-19.931,38.848C62.014,398.475,61.344,398.049,61.58,397.587Zm23.581-74.518a5.662,5.662,0,0,0-6.031-1.476,5.72,5.72,0,0,0-3.08,4.891,13.19,13.19,0,0,0,1.264,5.885c1.937,4.7,4.99,10.186,9.13,13.247,2.315-4.916,2.59-12.593,1.6-16.708A12.042,12.042,0,0,0,85.161,323.069Zm20.131-84.158a3.125,3.125,0,0,0-3.391.5,3.157,3.157,0,0,0-.557,3.142,7.283,7.283,0,0,0,1.872,2.746c1.969,2,4.673,4.17,7.427,4.873a16.418,16.418,0,0,0-2.662-8.876A6.652,6.652,0,0,0,105.292,238.911Zm-7.054,45.643a4.729,4.729,0,0,0-5.143-.674,4.778,4.778,0,0,0-2.111,4.343A11.023,11.023,0,0,0,92.573,293c2.038,3.723,5.076,8,8.793,10.166,1.473-4.295,1-10.7-.2-14.022A10.063,10.063,0,0,0,98.238,284.554ZM121.4,261.781a7.376,7.376,0,0,0,2.143-4.75,4.787,4.787,0,0,0-2.464-4.4c-2.115-1.039-4.78.048-6.281,1.866s-2.113,4.187-2.684,6.474q-.478,1.915-.956,3.831c-.2.784-1.041,2.568-.232,2.82.618.194,2.525-.99,3.128-1.259,1.027-.46,2.045-.951,3.032-1.493A16.591,16.591,0,0,0,121.4,261.781ZM79.388,366.953c-.715.977-2.894,2.974-1.915,3.781.749.617,4.062.053,5.05.02,1.684-.056,3.374-.163,5.049-.357a24.843,24.843,0,0,0,7.729-1.846,11.048,11.048,0,0,0,5.656-5.378,7.176,7.176,0,0,0-.932-7.5c-2.348-2.635-6.658-2.633-9.767-.959s-5.3,4.614-7.379,7.464Zm35.842-84.092a16.629,16.629,0,0,0,4.994-1.791,7.375,7.375,0,0,0,3.36-3.983,4.79,4.79,0,0,0-1.166-4.908c-1.751-1.577-4.612-1.261-6.552.077s-3.177,3.45-4.351,5.493q-.985,1.712-1.968,3.423c-.4.7-1.7,2.185-.995,2.65.542.355,2.7-.262,3.353-.356C113.019,283.306,114.133,283.111,115.23,282.861Z" transform="translate(-61.53 -215.189)" fill="url(#linear-gradient-15)"/>
              <path id="Trazado_114810" data-name="Trazado 114810" d="M197.858,450.418c4.7-9.171,9.356-18.4,13.831-27.716-4.679-3.494-8.133-9.706-10.328-15.028a15,15,0,0,1-1.439-6.7,6.51,6.51,0,0,1,3.505-5.566c2.293-1,5.09-.086,6.864,1.68a13.71,13.71,0,0,1,3.28,6.646,34.715,34.715,0,0,1-1.254,17.662c6.987-14.617,13.5-29.452,18.985-44.616-3.961-2.312-7.2-6.872-9.37-10.841a11.76,11.76,0,0,1-1.7-5.092,5.1,5.1,0,0,1,2.253-4.635,5.049,5.049,0,0,1,5.489.719,10.728,10.728,0,0,1,3.124,4.894,26.738,26.738,0,0,1,.313,14.644,293.458,293.458,0,0,0,11.6-40.5c-3.182-2.039-5.792-5.72-7.565-8.959a10.022,10.022,0,0,1-1.444-4.34,3.9,3.9,0,0,1,6.6-3.338,9.155,9.155,0,0,1,2.662,4.171,20.907,20.907,0,0,1,1,5.953q.8-4.494,1.423-9.034c-3.762-.99-7.451-3.951-10.14-6.682a10.025,10.025,0,0,1-2.577-3.779,3.9,3.9,0,0,1,5.433-5.015,9.154,9.154,0,0,1,3.7,3.284,23.079,23.079,0,0,1,3.678,11.45c.345-2.578.658-5.165.914-7.768a216.757,216.757,0,0,0,.709-25.161,13.7,13.7,0,0,1-5.432-3.63,5.526,5.526,0,0,1-1.419-2.081,2.393,2.393,0,0,1,.421-2.381,2.369,2.369,0,0,1,2.57-.38,5.036,5.036,0,0,1,2.039,1.808,12.642,12.642,0,0,1,1.773,4.311q-.075-3.635-.159-7.282c-.07-.147-.132-.284-.187-.38l-1.08-1.888a8.794,8.794,0,0,1-1.4-3.6,3.006,3.006,0,0,1,1.785-3.136,2.64,2.64,0,0,1,2.658.811,4.065,4.065,0,0,1,.958,2.705,9.119,9.119,0,0,1-.538,2.871c-.186.591-.4,1.175-.636,1.749a5.863,5.863,0,0,1-.714,1.65q.4,3.487.561,7.032.224-.891.445-1.783a8.8,8.8,0,0,1,1.478-3.565,3.005,3.005,0,0,1,3.458-1.028,2.64,2.64,0,0,1,1.358,2.425,4.061,4.061,0,0,1-1.18,2.615,9.134,9.134,0,0,1-2.376,1.7c-.544.3-1.1.569-1.67.822a10.224,10.224,0,0,1-1.444.672c.128,4.191.05,8.4-.137,12.564l.3-1.188a11.6,11.6,0,0,1,1.949-4.7,3.964,3.964,0,0,1,4.563-1.355,3.478,3.478,0,0,1,1.791,3.2,5.358,5.358,0,0,1-1.557,3.451,12.082,12.082,0,0,1-3.135,2.244c-.717.393-1.456.75-2.2,1.084a13.948,13.948,0,0,1-1.892.883q-.115,1.961-.249,3.9a240.1,240.1,0,0,1-5.056,34.716q-1.346,6.161-2.983,12.244c.078-.117.147-.224.2-.319q1.081-1.882,2.164-3.764c1.291-2.247,2.652-4.569,4.785-6.039s5.278-1.819,7.2-.085a5.268,5.268,0,0,1,1.283,5.4A8.112,8.112,0,0,1,252,353.4a18.253,18.253,0,0,1-5.491,1.968c-1.206.276-2.43.49-3.655.666-.667.1-2.743.677-3.515.448q-2.586,9.32-5.76,18.461c.208-.3.405-.584.529-.8q1.155-2.007,2.309-4.017c1.378-2.4,2.83-4.876,5.106-6.445s5.633-1.94,7.688-.09a5.621,5.621,0,0,1,1.369,5.759,8.66,8.66,0,0,1-3.943,4.673,19.5,19.5,0,0,1-5.86,2.1c-1.287.293-2.594.523-3.9.711-.766.11-3.3.834-3.934.417a.576.576,0,0,1-.124-.111c-2.387,6.757-5,13.437-7.775,20.046.405-.509.866-1,1.119-1.347l3.067-4.194c1.831-2.5,3.753-5.088,6.483-6.557s6.517-1.473,8.581.842a6.3,6.3,0,0,1,.818,6.589,9.7,9.7,0,0,1-4.969,4.725,21.856,21.856,0,0,1-6.79,1.622c-1.471.17-2.956.264-4.436.314-.868.029-3.779.525-4.437-.018a.566.566,0,0,1-.168-.234q-2.8,6.584-5.829,13.07-9.214,19.8-19.93,38.848C198.292,451.306,197.622,450.88,197.858,450.418ZM221.439,375.9a5.129,5.129,0,0,0-9.112,3.414,13.2,13.2,0,0,0,1.265,5.886c1.937,4.7,4.99,10.186,9.13,13.247,2.314-4.916,2.59-12.594,1.6-16.708A12.049,12.049,0,0,0,221.439,375.9Zm20.131-84.158a2.832,2.832,0,0,0-3.948,3.644,7.281,7.281,0,0,0,1.872,2.746c1.968,2,4.672,4.169,7.427,4.873a16.423,16.423,0,0,0-2.662-8.877A6.65,6.65,0,0,0,241.57,291.742Zm-7.054,45.642a4.285,4.285,0,0,0-7.254,3.67,11.014,11.014,0,0,0,1.589,4.771c2.038,3.724,5.076,8,8.793,10.167,1.473-4.295,1-10.7-.2-14.022A10.07,10.07,0,0,0,234.516,337.384Zm23.164-22.773a7.372,7.372,0,0,0,2.143-4.749,4.791,4.791,0,0,0-2.464-4.4c-2.116-1.038-4.78.049-6.281,1.866s-2.113,4.187-2.684,6.474q-.478,1.915-.956,3.831c-.2.784-1.041,2.568-.232,2.82.618.194,2.525-.99,3.127-1.26,1.028-.459,2.046-.95,3.033-1.492A16.612,16.612,0,0,0,257.68,314.611ZM215.666,419.783c-.715.978-2.894,2.975-1.916,3.782.749.617,4.062.053,5.051.02,1.684-.056,3.373-.163,5.049-.357a24.9,24.9,0,0,0,7.729-1.846A11.046,11.046,0,0,0,237.234,416a7.174,7.174,0,0,0-.931-7.5c-2.348-2.635-6.658-2.633-9.767-.96s-5.3,4.615-7.379,7.465Zm35.841-84.092a16.6,16.6,0,0,0,4.994-1.79,7.377,7.377,0,0,0,3.361-3.983,4.79,4.79,0,0,0-1.167-4.909c-1.75-1.576-4.611-1.26-6.551.078s-3.177,3.45-4.351,5.493L245.825,334c-.4.7-1.7,2.185-.995,2.65.542.354,2.7-.262,3.353-.357C249.3,336.136,250.41,335.941,251.507,335.691Z" transform="translate(-76.224 -220.885)" fill="url(#linear-gradient-16)"/>
              <path id="Trazado_114811" data-name="Trazado 114811" d="M353.2,464.625c2.749-9.932,5.444-19.912,7.943-29.939-5.288-2.476-9.927-7.862-13.152-12.631a15.015,15.015,0,0,1-2.764-6.269,6.508,6.508,0,0,1,2.308-6.16c2.042-1.446,4.968-1.112,7.062.257a13.71,13.71,0,0,1,4.556,5.846,34.711,34.711,0,0,1,2.341,17.55c3.888-15.726,7.264-31.572,9.575-47.532-4.347-1.464-8.438-5.275-11.367-8.723a11.764,11.764,0,0,1-2.69-4.645,4.573,4.573,0,0,1,6.79-5.4,10.746,10.746,0,0,1,4.048,4.162,26.736,26.736,0,0,1,3.266,14.278,293.283,293.283,0,0,0,3.173-42.007c-3.528-1.353-6.829-4.431-9.219-7.244a10.041,10.041,0,0,1-2.293-3.959,4.348,4.348,0,0,1,1.082-4.257,4.3,4.3,0,0,1,4.705-.345,9.154,9.154,0,0,1,3.45,3.547,20.882,20.882,0,0,1,2.181,5.628q-.127-4.561-.432-9.135c-3.885-.209-8.1-2.362-11.282-4.493a10.018,10.018,0,0,1-3.287-3.181,3.9,3.9,0,0,1,4.307-6.009,9.154,9.154,0,0,1,4.289,2.468,23.082,23.082,0,0,1,5.918,10.471c-.183-2.594-.4-5.192-.675-7.792a216.566,216.566,0,0,0-4.39-24.786,13.709,13.709,0,0,1-6.054-2.458,5.51,5.51,0,0,1-1.81-1.751,2.146,2.146,0,0,1,2.372-3.309,5.042,5.042,0,0,1,2.362,1.359,12.639,12.639,0,0,1,2.608,3.864q-.808-3.545-1.628-7.1c-.1-.13-.186-.251-.26-.334l-1.439-1.63a8.794,8.794,0,0,1-2.1-3.239,3,3,0,0,1,1.115-3.431,2.636,2.636,0,0,1,2.766.257,4.058,4.058,0,0,1,1.485,2.455,9.136,9.136,0,0,1,.054,2.921c-.062.616-.157,1.232-.269,1.841a5.869,5.869,0,0,1-.366,1.759q1.1,3.334,1.972,6.773l.075-1.836a8.8,8.8,0,0,1,.727-3.79,3,3,0,0,1,3.18-1.7,2.636,2.636,0,0,1,1.819,2.1,4.065,4.065,0,0,1-.627,2.8,9.153,9.153,0,0,1-1.983,2.146c-.472.4-.966.78-1.469,1.142a10.234,10.234,0,0,1-1.279.95c.973,4.077,1.748,8.218,2.405,12.332q.026-.611.051-1.224a11.594,11.594,0,0,1,.959-5,3.966,3.966,0,0,1,4.2-2.25,3.481,3.481,0,0,1,2.4,2.771,5.361,5.361,0,0,1-.827,3.695,12.093,12.093,0,0,1-2.617,2.831c-.623.53-1.275,1.03-1.939,1.507a13.822,13.822,0,0,1-1.675,1.247q.284,1.943.544,3.868a240.273,240.273,0,0,1,2.065,35.022c-.049,4.2-.206,8.4-.448,12.595.053-.13.1-.25.133-.353q.68-2.061,1.359-4.123c.81-2.462,1.673-5.01,3.465-6.882s4.8-2.849,7.037-1.539a5.269,5.269,0,0,1,2.347,5.026,8.113,8.113,0,0,1-2.734,5.035,18.267,18.267,0,0,1-4.981,3.038c-1.126.514-2.281.971-3.445,1.391-.634.229-2.55,1.218-3.353,1.15q-.648,9.65-1.908,19.243c.142-.34.278-.654.356-.891q.724-2.2,1.45-4.4c.865-2.627,1.785-5.347,3.7-7.344s5.124-3.04,7.51-1.642a5.621,5.621,0,0,1,2.5,5.364,8.652,8.652,0,0,1-2.917,5.373,19.492,19.492,0,0,1-5.315,3.242c-1.2.548-2.435,1.036-3.677,1.484-.728.263-3.061,1.485-3.769,1.2a.539.539,0,0,1-.144-.083c-.973,7.1-2.177,14.17-3.563,21.2.293-.581.646-1.155.823-1.545l2.155-4.728c1.287-2.822,2.647-5.741,5.025-7.733s6.085-2.759,8.574-.908a6.3,6.3,0,0,1,2.133,6.286A9.709,9.709,0,0,1,383.865,404a21.847,21.847,0,0,1-6.323,2.961c-1.407.464-2.842.856-4.281,1.2-.845.2-3.6,1.279-4.349.88a.58.58,0,0,1-.211-.195q-1.417,7.015-3.066,13.978-5.022,21.252-11.668,42.074C353.8,465.407,353.063,465.125,353.2,464.625Zm8.032-77.746A5.129,5.129,0,0,0,353,392.065a13.184,13.184,0,0,0,2.428,5.508c2.847,4.208,6.946,8.967,11.619,11.128,1.273-5.283-.009-12.857-1.812-16.686A12.044,12.044,0,0,0,361.234,386.879Zm2.706-86.49a3.125,3.125,0,0,0-3.22,1.176,3.158,3.158,0,0,0,.09,3.19,7.286,7.286,0,0,0,2.388,2.311c2.332,1.56,5.419,3.14,8.259,3.272a16.418,16.418,0,0,0-4.4-8.155A6.644,6.644,0,0,0,363.94,300.389Zm2.317,46.126a4.285,4.285,0,0,0-6.363,5.06,11.022,11.022,0,0,0,2.52,4.353c2.749,3.234,6.589,6.812,10.667,8.179.575-4.5-1.183-10.678-3.031-13.692A10.068,10.068,0,0,0,366.257,346.515Zm18.083-26.984a7.38,7.38,0,0,0,1.138-5.085,4.79,4.79,0,0,0-3.3-3.813c-2.282-.589-4.671,1.013-5.774,3.1s-1.223,4.528-1.32,6.882l-.163,3.945c-.033.808-.5,2.726.343,2.81.644.064,2.272-1.48,2.809-1.866.914-.658,1.81-1.345,2.668-2.073A16.635,16.635,0,0,0,384.339,319.531ZM364.45,431.024c-.5,1.1-2.234,3.5-1.112,4.091.858.453,3.989-.77,4.95-1,1.639-.4,3.272-.842,4.872-1.369a24.9,24.9,0,0,0,7.2-3.371,11.052,11.052,0,0,0,4.452-6.41,7.175,7.175,0,0,0-2.428-7.155c-2.833-2.106-7.053-1.233-9.759,1.034s-4.254,5.59-5.718,8.8Zm18.1-89.6a16.6,16.6,0,0,0,4.53-2.763,7.375,7.375,0,0,0,2.487-4.58,4.789,4.789,0,0,0-2.135-4.571c-2.033-1.191-4.771-.3-6.4,1.4s-2.414,4.021-3.151,6.26q-.618,1.875-1.236,3.751c-.253.767-1.227,2.485-.439,2.8.6.238,2.592-.8,3.212-1.027C380.481,342.306,381.532,341.89,382.555,341.422Z" transform="translate(-92.112 -221.747)" fill="url(#linear-gradient-17)"/>
              <path id="Trazado_114812" data-name="Trazado 114812" d="M353.686,481.337c4.7-9.171,9.357-18.4,13.831-27.716-4.679-3.493-8.132-9.706-10.327-15.027a15.021,15.021,0,0,1-1.44-6.7,6.509,6.509,0,0,1,3.506-5.566c2.292-1,5.09-.086,6.864,1.679a13.708,13.708,0,0,1,3.279,6.646,34.7,34.7,0,0,1-1.254,17.662c6.987-14.617,13.5-29.452,18.984-44.616-3.961-2.312-7.2-6.872-9.37-10.84a11.755,11.755,0,0,1-1.7-5.093,4.573,4.573,0,0,1,7.741-3.917,10.746,10.746,0,0,1,3.124,4.894,26.73,26.73,0,0,1,.312,14.644,293.345,293.345,0,0,0,11.6-40.5c-3.182-2.038-5.792-5.72-7.565-8.958a10.023,10.023,0,0,1-1.445-4.34,4.347,4.347,0,0,1,1.92-3.951,4.3,4.3,0,0,1,4.678.613,9.149,9.149,0,0,1,2.662,4.171,20.881,20.881,0,0,1,1,5.953q.8-4.492,1.424-9.034c-3.763-.989-7.451-3.95-10.141-6.681a10.015,10.015,0,0,1-2.578-3.78,4.346,4.346,0,0,1,.766-4.324,4.3,4.3,0,0,1,4.668-.69,9.15,9.15,0,0,1,3.7,3.283,23.082,23.082,0,0,1,3.679,11.451c.345-2.578.658-5.166.914-7.768a216.559,216.559,0,0,0,.71-25.161,13.7,13.7,0,0,1-5.432-3.631,5.507,5.507,0,0,1-1.419-2.081,2.394,2.394,0,0,1,.422-2.382,2.37,2.37,0,0,1,2.57-.38,5.042,5.042,0,0,1,2.039,1.808,12.649,12.649,0,0,1,1.773,4.311q-.075-3.635-.16-7.282c-.07-.147-.132-.284-.187-.38l-1.079-1.887a8.784,8.784,0,0,1-1.4-3.6,3,3,0,0,1,1.785-3.135,2.638,2.638,0,0,1,2.657.81,4.063,4.063,0,0,1,.959,2.705,9.182,9.182,0,0,1-.538,2.872c-.186.591-.4,1.174-.637,1.749a5.8,5.8,0,0,1-.714,1.649q.4,3.487.562,7.032.222-.891.445-1.783a8.787,8.787,0,0,1,1.477-3.565,3.006,3.006,0,0,1,3.459-1.027,2.638,2.638,0,0,1,1.357,2.424,4.065,4.065,0,0,1-1.18,2.616,9.175,9.175,0,0,1-2.376,1.7c-.543.3-1.1.568-1.669.821a10.28,10.28,0,0,1-1.444.673c.129,4.19.05,8.4-.137,12.564q.149-.594.3-1.188a11.605,11.605,0,0,1,1.95-4.7,3.967,3.967,0,0,1,4.564-1.355,3.48,3.48,0,0,1,1.791,3.2,5.356,5.356,0,0,1-1.558,3.451,12.056,12.056,0,0,1-3.134,2.244c-.717.393-1.457.75-2.2,1.084a13.782,13.782,0,0,1-1.891.883q-.115,1.961-.249,3.9a240.2,240.2,0,0,1-5.056,34.716q-1.346,6.161-2.983,12.244c.078-.116.147-.224.2-.318l2.164-3.764c1.291-2.247,2.651-4.569,4.785-6.04s5.277-1.818,7.2-.085a5.267,5.267,0,0,1,1.282,5.4,8.111,8.111,0,0,1-3.694,4.379,18.258,18.258,0,0,1-5.491,1.968c-1.207.276-2.43.49-3.655.667-.667.1-2.744.677-3.516.448q-2.584,9.321-5.759,18.461c.208-.3.405-.584.529-.8l2.309-4.017c1.378-2.4,2.829-4.876,5.106-6.445s5.632-1.941,7.687-.091a5.621,5.621,0,0,1,1.369,5.76,8.652,8.652,0,0,1-3.943,4.672,19.49,19.49,0,0,1-5.861,2.1c-1.287.294-2.594.523-3.9.711-.767.111-3.3.834-3.935.417a.535.535,0,0,1-.124-.111q-3.583,10.135-7.775,20.046c.405-.509.865-1,1.119-1.346l3.066-4.194c1.831-2.5,3.753-5.088,6.484-6.558s6.516-1.472,8.58.843a6.3,6.3,0,0,1,.819,6.588,9.709,9.709,0,0,1-4.969,4.726,21.887,21.887,0,0,1-6.79,1.622c-1.472.169-2.956.264-4.436.313-.868.029-3.779.526-4.438-.017a.574.574,0,0,1-.167-.235q-2.806,6.584-5.829,13.07-9.214,19.8-19.931,38.848C354.12,482.225,353.45,481.8,353.686,481.337Zm23.581-74.517a5.129,5.129,0,0,0-9.111,3.415,13.179,13.179,0,0,0,1.265,5.885c1.937,4.7,4.99,10.186,9.129,13.247,2.315-4.916,2.59-12.593,1.6-16.708A12.041,12.041,0,0,0,377.267,406.82ZM397.4,322.661a2.832,2.832,0,0,0-3.948,3.644,7.275,7.275,0,0,0,1.873,2.746c1.968,2,4.672,4.17,7.427,4.873a16.417,16.417,0,0,0-2.662-8.876A6.646,6.646,0,0,0,397.4,322.661ZM390.345,368.3a4.73,4.73,0,0,0-5.144-.674,4.78,4.78,0,0,0-2.111,4.343,11.033,11.033,0,0,0,1.589,4.772c2.039,3.723,5.076,8,8.794,10.166,1.472-4.295,1-10.7-.2-14.022A10.061,10.061,0,0,0,390.345,368.3Zm23.163-22.773a7.382,7.382,0,0,0,2.144-4.75,4.79,4.79,0,0,0-2.465-4.4c-2.115-1.039-4.779.048-6.28,1.866s-2.113,4.187-2.684,6.474q-.479,1.915-.957,3.831c-.2.784-1.04,2.568-.232,2.82.618.194,2.525-.99,3.128-1.259,1.028-.459,2.045-.951,3.032-1.492A16.614,16.614,0,0,0,413.507,345.531ZM371.495,450.7c-.716.977-2.9,2.974-1.916,3.782.749.616,4.062.052,5.05.019,1.685-.056,3.374-.163,5.049-.356a24.869,24.869,0,0,0,7.729-1.847,11.044,11.044,0,0,0,5.656-5.378,7.172,7.172,0,0,0-.932-7.5c-2.348-2.635-6.657-2.633-9.766-.959s-5.3,4.614-7.379,7.464Zm35.841-84.092a16.631,16.631,0,0,0,4.994-1.791,7.376,7.376,0,0,0,3.36-3.983,4.79,4.79,0,0,0-1.166-4.908c-1.751-1.577-4.611-1.261-6.551.077s-3.178,3.45-4.352,5.493q-.984,1.712-1.968,3.423c-.4.7-1.7,2.186-.995,2.65.543.355,2.7-.262,3.354-.356C405.125,367.056,406.239,366.861,407.336,366.611Z" transform="translate(-93.025 -224.219)" fill="url(#linear-gradient-18)"/>
              <path id="Trazado_114813" data-name="Trazado 114813" d="M239.177,423.416c4.7-9.171,9.356-18.4,13.831-27.715-4.679-3.494-8.133-9.707-10.328-15.028a15.017,15.017,0,0,1-1.439-6.7,6.509,6.509,0,0,1,3.505-5.566c2.293-1,5.09-.086,6.864,1.679a13.71,13.71,0,0,1,3.28,6.646,34.713,34.713,0,0,1-1.254,17.662c6.987-14.617,13.5-29.452,18.985-44.616-3.961-2.312-7.2-6.872-9.37-10.84a11.768,11.768,0,0,1-1.7-5.093,5.1,5.1,0,0,1,2.253-4.635,5.047,5.047,0,0,1,5.489.719,10.728,10.728,0,0,1,3.124,4.894,26.737,26.737,0,0,1,.313,14.644,293.47,293.47,0,0,0,11.6-40.5c-3.181-2.038-5.792-5.72-7.565-8.958a10.021,10.021,0,0,1-1.444-4.34,3.9,3.9,0,0,1,6.6-3.338,9.165,9.165,0,0,1,2.662,4.171,20.917,20.917,0,0,1,1,5.953q.8-4.493,1.423-9.034c-3.762-.989-7.451-3.95-10.14-6.681a10.022,10.022,0,0,1-2.577-3.78,4.344,4.344,0,0,1,.766-4.324,4.3,4.3,0,0,1,4.667-.69,9.148,9.148,0,0,1,3.7,3.284,23.078,23.078,0,0,1,3.678,11.45c.345-2.578.658-5.166.914-7.768a216.748,216.748,0,0,0,.709-25.161,13.71,13.71,0,0,1-5.432-3.63,5.527,5.527,0,0,1-1.419-2.081,2.146,2.146,0,0,1,2.992-2.762,5.042,5.042,0,0,1,2.039,1.808,12.657,12.657,0,0,1,1.773,4.311q-.075-3.635-.159-7.282c-.07-.147-.132-.284-.187-.38l-1.08-1.887a8.8,8.8,0,0,1-1.4-3.6,3,3,0,0,1,1.785-3.135,2.639,2.639,0,0,1,2.658.81,4.066,4.066,0,0,1,.958,2.705,9.128,9.128,0,0,1-.538,2.872c-.186.592-.4,1.174-.636,1.749a5.865,5.865,0,0,1-.714,1.65c.269,2.324.452,4.672.561,7.031q.224-.891.445-1.783a8.794,8.794,0,0,1,1.478-3.564,3,3,0,0,1,3.458-1.028,2.638,2.638,0,0,1,1.358,2.424,4.065,4.065,0,0,1-1.18,2.616,9.155,9.155,0,0,1-2.376,1.7c-.544.3-1.1.568-1.67.821a10.213,10.213,0,0,1-1.444.673c.128,4.19.05,8.4-.137,12.564l.3-1.188a11.594,11.594,0,0,1,1.949-4.7,3.966,3.966,0,0,1,4.563-1.356,3.479,3.479,0,0,1,1.791,3.2,5.355,5.355,0,0,1-1.557,3.451A12.047,12.047,0,0,1,293.762,274c-.717.394-1.456.75-2.2,1.084a13.728,13.728,0,0,1-1.892.883q-.115,1.961-.249,3.9a240.09,240.09,0,0,1-5.056,34.716q-1.346,6.161-2.983,12.244c.078-.116.147-.224.2-.318q1.081-1.883,2.164-3.764c1.291-2.247,2.652-4.569,4.785-6.04s5.278-1.818,7.2-.085a5.268,5.268,0,0,1,1.283,5.4,8.106,8.106,0,0,1-3.7,4.379,18.249,18.249,0,0,1-5.491,1.968c-1.206.276-2.43.49-3.655.666-.667.1-2.743.677-3.515.448q-2.586,9.321-5.76,18.462c.208-.305.405-.585.53-.8l2.308-4.017c1.378-2.4,2.83-4.876,5.107-6.445s5.632-1.941,7.687-.09a5.62,5.62,0,0,1,1.369,5.759,8.654,8.654,0,0,1-3.943,4.672,19.5,19.5,0,0,1-5.86,2.1c-1.287.294-2.594.523-3.9.711-.766.111-3.3.834-3.935.418a.557.557,0,0,1-.124-.112c-2.387,6.756-5,13.438-7.775,20.045.405-.509.866-1,1.119-1.346l3.067-4.194c1.831-2.5,3.752-5.088,6.483-6.558s6.517-1.472,8.581.843a6.3,6.3,0,0,1,.818,6.589,9.708,9.708,0,0,1-4.969,4.725,21.88,21.88,0,0,1-6.79,1.622c-1.471.169-2.956.264-4.436.313-.868.029-3.779.525-4.437-.017a.567.567,0,0,1-.168-.234Q262.824,378.509,259.8,385q-9.214,19.8-19.93,38.848C239.611,424.3,238.941,423.878,239.177,423.416ZM262.758,348.9a5.129,5.129,0,0,0-9.112,3.415,13.19,13.19,0,0,0,1.265,5.885c1.937,4.7,4.99,10.186,9.13,13.248,2.314-4.917,2.59-12.594,1.6-16.709A12.049,12.049,0,0,0,262.758,348.9Zm20.131-84.158a2.832,2.832,0,0,0-3.948,3.644,7.273,7.273,0,0,0,1.872,2.746c1.968,2,4.672,4.17,7.427,4.873a16.418,16.418,0,0,0-2.662-8.876A6.651,6.651,0,0,0,282.889,264.74Zm-7.054,45.643a4.285,4.285,0,0,0-7.254,3.669,11.023,11.023,0,0,0,1.589,4.772c2.038,3.723,5.076,8,8.793,10.166,1.473-4.295,1-10.7-.2-14.022A10.067,10.067,0,0,0,275.835,310.383ZM299,287.61a7.374,7.374,0,0,0,2.143-4.75,4.79,4.79,0,0,0-2.464-4.4c-2.116-1.039-4.78.048-6.281,1.866s-2.113,4.187-2.684,6.474l-.956,3.831c-.2.784-1.041,2.568-.232,2.82.618.194,2.525-.99,3.127-1.259,1.028-.459,2.046-.951,3.033-1.492A16.63,16.63,0,0,0,299,287.61ZM256.985,392.782c-.715.978-2.894,2.974-1.916,3.782.749.617,4.063.052,5.051.019,1.684-.056,3.373-.163,5.049-.356a24.88,24.88,0,0,0,7.729-1.847A11.042,11.042,0,0,0,278.553,389a7.174,7.174,0,0,0-.931-7.5c-2.348-2.635-6.658-2.633-9.767-.959s-5.3,4.615-7.379,7.464Zm35.841-84.092a16.623,16.623,0,0,0,4.994-1.791,7.373,7.373,0,0,0,3.361-3.983,4.788,4.788,0,0,0-1.167-4.908c-1.75-1.577-4.611-1.261-6.551.077s-3.177,3.45-4.351,5.493q-.985,1.712-1.968,3.423c-.4.7-1.7,2.186-.995,2.65.542.355,2.7-.262,3.353-.356C290.616,309.135,291.729,308.94,292.826,308.69Z" transform="translate(-80.679 -217.974)" fill="url(#linear-gradient-19)"/>
            </g>
            <g id="Grupo_79538" data-name="Grupo 79538" transform="translate(0 80.825)">
              <path id="Trazado_114814" data-name="Trazado 114814" d="M288.557,390.392c-.651-4.36-.853-8.9.519-13.1s4.562-7.985,8.825-9.111c5.193-1.371,10.759,1.513,14.119,5.7s4.977,9.473,6.52,14.617c-1.9-7.084-3.814-14.34-3.213-21.649s4.225-14.808,10.807-18.043,16.033-.477,18.257,6.512a21.352,21.352,0,0,1,.75,5.161q.5,8.044,1.01,16.09a33.714,33.714,0,0,1,18.54-26.08c5.182-2.49,12.271-3.194,15.932,1.239,3.02,3.659,2.274,9.087.79,13.592s-3.578,9.13-2.724,13.8c.493-5.947,6.744-10.741,12.614-9.675l1.084,15.25a15.862,15.862,0,0,1,31.5-1.036c.914,6.205-1.871,12.3-4.741,17.879-6.468,12.568-14.267,25.251-26.489,32.355-12.692,7.377-28.149,7.613-42.83,7.649-14.391.035-30.113-.391-41.1-9.679-5.551-4.692-8.119-11-11.492-17.189C293.041,406.982,289.86,399.12,288.557,390.392Z" transform="translate(-58.789 -310.277)" fill="url(#linear-gradient-20)"/>
              <path id="Trazado_114815" data-name="Trazado 114815" d="M425.517,381.06c-.65-4.36-.852-8.9.519-13.1s4.563-7.985,8.825-9.111c5.193-1.371,10.759,1.513,14.119,5.7s4.976,9.473,6.52,14.617c-1.9-7.084-3.814-14.34-3.213-21.649s4.224-14.808,10.806-18.043,16.034-.477,18.257,6.512a21.354,21.354,0,0,1,.751,5.161q.5,8.044,1.01,16.09a33.711,33.711,0,0,1,18.539-26.08c5.183-2.49,12.272-3.194,15.932,1.239,3.021,3.659,2.275,9.087.79,13.592s-3.578,9.13-2.725,13.8c.493-5.947,6.744-10.741,12.615-9.675q.542,7.625,1.083,15.251a15.862,15.862,0,0,1,31.5-1.036c.915,6.2-1.871,12.3-4.741,17.878-6.469,12.568-14.268,25.251-26.489,32.355-12.693,7.377-28.149,7.613-42.831,7.649-14.39.035-30.112-.391-41.1-9.679-5.551-4.692-8.119-11-11.492-17.189C430,397.65,426.82,389.788,425.517,381.06Z" transform="translate(-73.556 -309.27)" fill="url(#linear-gradient-21)"/>
              <path id="Trazado_114816" data-name="Trazado 114816" d="M550.174,366.363c-.65-4.36-.852-8.9.519-13.1s4.562-7.985,8.825-9.111c5.192-1.371,10.76,1.513,14.119,5.7s4.977,9.474,6.52,14.617c-1.9-7.084-3.814-14.34-3.213-21.65s4.225-14.807,10.807-18.043,16.033-.476,18.257,6.512a21.346,21.346,0,0,1,.75,5.161l1.01,16.09a33.714,33.714,0,0,1,18.54-26.08c5.182-2.49,12.271-3.194,15.932,1.239,3.02,3.659,2.275,9.087.789,13.592s-3.578,9.13-2.724,13.8c.493-5.946,6.744-10.741,12.615-9.675L654,360.671a15.861,15.861,0,0,1,31.5-1.036c.915,6.2-1.871,12.3-4.741,17.878-6.468,12.569-14.267,25.251-26.488,32.355-12.693,7.377-28.15,7.613-42.831,7.649-14.391.035-30.113-.391-41.1-9.679-5.55-4.692-8.118-11-11.491-17.189C554.658,382.953,551.477,375.091,550.174,366.363Z" transform="translate(-86.997 -307.686)" fill="url(#linear-gradient-22)"/>
              <path id="Trazado_114817" data-name="Trazado 114817" d="M140.108,348.708c-.651-4.361-.853-8.906.519-13.1s4.562-7.986,8.825-9.111c5.192-1.371,10.759,1.513,14.119,5.7s4.977,9.473,6.52,14.617c-1.9-7.084-3.814-14.34-3.213-21.65s4.224-14.807,10.807-18.043,16.033-.477,18.257,6.511a21.36,21.36,0,0,1,.75,5.162q.5,8.044,1.01,16.089a33.714,33.714,0,0,1,18.54-26.079c5.182-2.491,12.271-3.195,15.932,1.239,3.02,3.658,2.274,9.087.79,13.592s-3.578,9.13-2.724,13.8c.492-5.946,6.744-10.74,12.615-9.674l1.084,15.25a15.861,15.861,0,0,1,31.5-1.036c.914,6.2-1.871,12.3-4.741,17.878-6.469,12.569-14.268,25.252-26.489,32.355-12.693,7.377-28.149,7.613-42.83,7.649-14.391.036-30.113-.39-41.1-9.679-5.551-4.691-8.119-11-11.492-17.189C144.591,365.3,141.411,357.435,140.108,348.708Z" transform="translate(-42.783 -305.782)" fill="url(#linear-gradient-23)"/>
              <path id="Trazado_114818" data-name="Trazado 114818" d="M31.585,398.751c-.65-4.36-.852-8.9.519-13.1s4.562-7.985,8.825-9.111c5.192-1.37,10.76,1.513,14.12,5.7s4.976,9.473,6.52,14.617c-1.9-7.084-3.815-14.34-3.214-21.65s4.225-14.807,10.807-18.043,16.034-.477,18.257,6.512a21.351,21.351,0,0,1,.75,5.161l1.01,16.09a33.714,33.714,0,0,1,18.54-26.08c5.182-2.49,12.271-3.194,15.932,1.239,3.02,3.659,2.275,9.087.79,13.592s-3.577,9.13-2.724,13.8c.493-5.946,6.744-10.741,12.615-9.675q.542,7.626,1.083,15.251a15.861,15.861,0,0,1,31.5-1.036c.914,6.2-1.871,12.3-4.741,17.878-6.468,12.569-14.267,25.251-26.488,32.355-12.693,7.377-28.15,7.613-42.831,7.649-14.39.035-30.113-.391-41.1-9.679-5.55-4.692-8.118-11-11.491-17.189C36.069,415.341,32.888,407.479,31.585,398.751Z" transform="translate(-31.082 -311.178)" fill="url(#linear-gradient-24)"/>
            </g>
            <g id="Grupo_79539" data-name="Grupo 79539" transform="translate(395.038 76.033)">
              <path id="Trazado_114819" data-name="Trazado 114819" d="M549.719,426.742a59.9,59.9,0,0,0,15.9-39.7,18.9,18.9,0,0,0-1.556-8.839c-1.37-2.693-4.13-4.866-7.149-4.741a8.357,8.357,0,0,0-6.264,3.935,24.719,24.719,0,0,0-2.891,7.076,70.535,70.535,0,0,0,1.306-23.746c-.421-3.655-1.742-7.974-5.307-8.886-2.508-.642-5.173.84-6.7,2.929s-2.164,4.681-2.767,7.2c11.616-36.935-9.518-48.219-14.188-23.836-4.21-10.171-8.031-44.773-26.16-36.439s3.486,37.436,8.5,45.391c-4.212-3.522-17.874-14.007-22.525-7.128-6.755,9.989,9.616,24.162,22.594,34.774-5.187-2.3-10.615-4.643-16.281-4.365s-11.595,4.066-12.3,9.7c-.6,4.839,2.664,9.271,6.114,12.719a67.776,67.776,0,0,0,28.652,17c-3.673-.14-7.48-.258-10.877,1.147s-6.548,4.827-5.859,8.438C496.219,441.672,548.66,429.881,549.719,426.742Z" transform="translate(-473.861 -300.411)" fill="url(#linear-gradient-25)"/>
              <path id="Trazado_114820" data-name="Trazado 114820" d="M545.232,366.359c-2.143,10.694-5.2,21.245-7.339,31.928q-4.941-11.337-9.977-22.637c1.293-10.782,1.117-21.845,1.061-32.687,0-.452-.7-.513-.708-.054-.221,10.126-1.125,20.234-1.418,30.348-9.536-21.4-19.2-42.747-28.468-64.245-.091-.21-.4-.053-.318.156,8.532,20.922,17.017,41.947,25.882,62.8-8.578-6.494-18.071-11.9-26.706-18.355-.139-.1-.278.114-.147.221,8.573,7.085,17.571,14.832,27.577,19.836Q530.309,386.894,536.19,400c-11.572-3.128-22.927-4.3-33.538-10.61-.243-.145-.488.213-.246.369A75.869,75.869,0,0,0,536.691,401.1q5.828,12.907,11.99,25.638a.621.621,0,0,0,1.115-.544q-5.479-13.209-11.206-26.319c3.856-10.566,5.573-22.42,6.819-33.5C545.422,366.255,545.255,366.25,545.232,366.359Z" transform="translate(-476.361 -301.328)" fill="#00804f" opacity="0.64"/>
            </g>
            <g id="Grupo_79540" data-name="Grupo 79540" transform="translate(2.228 28.077)">
              <path id="Trazado_114821" data-name="Trazado 114821" d="M61.8,446.841c-.1-.119-.183-.233-.275-.36-.459-.572-.916-1.166-1.366-1.755C51.043,432.719,42.62,417.1,36.67,393.981l10.864-5.261L33.579,381.1s.461-7.726,1.483-18.6c.035-.344.069-.69.095-1.039.218-2.28.46-4.672.727-7.154q.2-1.922.425-3.9c1.445-12.747,3.507-27.133,6.3-38.3.049-.2.1-.4.144-.594.1-.357.178-.7.266-1.04.613-2.492,1.147-4.685,1.609-6.632.1-.389.193-.773.282-1.135,2.45-10.308,2.748-12.785,2.66-13.285l15.505-1.582-11.6-6.13A363.352,363.352,0,0,1,74.49,246.659c4.185,4,26.5,26.595,28.117,62.532l-10.6,4.742,9.744,1.992s-.178,4.118-.754,10.536c-.115,1.313-.25,2.729-.405,4.225-1.222,12-3.622,29.263-8.16,43.736-.276.888-.58,1.806-.889,2.755-.327.963-.673,1.961-1.028,2.976C81.41,406.065,61.8,446.841,61.8,446.841Z" transform="translate(-33.579 -246.659)" fill="url(#linear-gradient-26)"/>
              <path id="Trazado_114822" data-name="Trazado 114822" d="M55.264,474.911q2.59-14.828,5.077-29.653,7.041-41.972,13.16-84.091.565-3.874,1.1-7.73c-6.9,1.474-13.995,2.1-20.865,3.859a181.967,181.967,0,0,0-18.494,5.735c.035-.344.069-.69.095-1.039a113.122,113.122,0,0,1,17.734-6.831c6.919-1.963,14.536-4.046,21.86-4.047.054-.359.111-.725.16-1.1a83.215,83.215,0,0,0-20.742.257A93.161,93.161,0,0,0,41.8,353.021c-1.867.547-3.821,1.6-5.739,1.816q.2-1.922.425-3.9c1.643-.79,3.54-1.286,4.99-1.837a87.467,87.467,0,0,1,13.652-4.048c7.072-1.417,14.008-1.737,20.578.441,1.073-8,2.031-16,2.772-24-5.964-1.948-11.782-4.41-17.824-6.1a97.562,97.562,0,0,0-17.729-3.34c.1-.357.178-.7.266-1.04a93.964,93.964,0,0,1,35.469,8.571c.016-.094.018-.184.029-.269-10.946-5.841-21.821-12.077-33.889-14.934.1-.389.193-.773.282-1.135,11.971,1.99,23.876,7.565,33.77,14.237,1.817-21.9,1.767-43.777-2.718-65.779-.016-.1.12-.141.149-.046,8.483,28.1,2.457,82.363,1.619,88.268a168.826,168.826,0,0,1,23.272-12.929c-.115,1.313-.25,2.729-.405,4.225-7.539,3.18-14.984,6.569-22.345,10.422a.875.875,0,0,1-.769.037c-.2,1.436-2.107,14.429-2.325,15.915q-2.017,13.9-3.994,27.84c5.022-3.681,11.866-5.7,17.753-7.126.872-.21,1.751-.415,2.631-.6-.327.963-.673,1.961-1.028,2.976-.532.105-1.06.223-1.588.342-6.275,1.453-11.931,4.4-18.025,6.2-2.874,19.962-5.856,39.936-9.375,59.785q-2.512,14.1-5.446,28.117A.51.51,0,0,1,55.264,474.911Z" transform="translate(-33.758 -247.192)" fill="#004c39" opacity="0.52"/>
            </g>
            <g id="Grupo_79541" data-name="Grupo 79541" transform="translate(190.625 91.511)">
              <path id="Trazado_114823" data-name="Trazado 114823" d="M293.791,405.193c2.607-2.042,4.956-4.8,5.271-8.095s-2.222-6.955-5.529-6.785c3.234-.265,6.565-.557,9.453-2.037s5.257-4.462,5-7.7-3.988-6-6.887-4.54c3.123-.9,6.313-1.838,8.957-3.729s4.683-4.955,4.459-8.2a8.488,8.488,0,0,0-5.591-7.032,12.144,12.144,0,0,0-9.227.64c4.583-3.545,8.988-7.482,12.031-12.413s4.607-11,3.168-16.616-6.3-10.483-12.084-10.9c-6.659-.479-12.616,4.887-15.044,11.107s-2.122,13.121-1.779,19.789c.08-5.324-6.323-9.14-11.422-7.608s-8.316,6.933-8.686,12.244,1.587,10.513,4,15.258c-1.8-5.365-7.828-8.809-13.433-8.03A14.475,14.475,0,0,0,244.829,371.5c-1.287,5.51,12.532,37.722,12.532,37.722S286.417,410.97,293.791,405.193Z" transform="translate(-244.744 -317.76)" fill="url(#linear-gradient-27)"/>
              <path id="Trazado_114824" data-name="Trazado 114824" d="M284.641,376.821c9.277-15.783,17.281-33.721,20.95-51.734a.061.061,0,0,0-.118-.035c-3.5,8.444-5.806,17.38-9.275,25.865a188.774,188.774,0,0,1-12.616,25.25c-9.5,15.934-21.429,29.8-34.448,42.931a.429.429,0,0,0,.583.629C263.732,407.748,275.329,392.662,284.641,376.821Z" transform="translate(-245.203 -318.541)" fill="#003c67" opacity="0.52"/>
            </g>
            <g id="Grupo_79542" data-name="Grupo 79542" transform="translate(237.655 116.015)">
              <path id="Trazado_114825" data-name="Trazado 114825" d="M333.764,447.591a44.853,44.853,0,0,0,24.215-20.953,14.149,14.149,0,0,0,2-6.415,6.09,6.09,0,0,0-3.128-5.61,6.257,6.257,0,0,0-5.519.467,18.527,18.527,0,0,0-4.353,3.715A52.825,52.825,0,0,0,356,403.444c.975-2.576,1.579-5.9-.478-7.734a5.017,5.017,0,0,0-5.465-.352,14.742,14.742,0,0,0-4.314,3.839c20.414-20.583,10.229-35.349-1.254-20.731.692-8.213,10.034-32.547-4.89-33.228s-10.538,26.1-9.935,33.117c-1.593-3.789-7.081-15.457-12.538-12.478-7.925,4.325-1.9,19.378,3.088,30.9-2.661-3.31-5.467-6.734-9.333-8.5s-9.11-1.278-11.51,2.228c-2.063,3.013-1.411,7.084-.3,10.562A50.747,50.747,0,0,0,312.3,422.214c-2.4-1.354-4.888-2.741-7.631-2.973s-6.015.963-6.8,3.6C293.042,439.148,331.981,449.315,333.764,447.591Z" transform="translate(-297.458 -345.225)" fill="url(#linear-gradient-28)"/>
              <path id="Trazado_114826" data-name="Trazado 114826" d="M352.122,404.988c-5.1,6.379-10.759,12.348-15.849,18.721q.606-9.239,1.137-18.488c4.564-6.73,8.246-14.15,11.932-21.383.153-.3-.287-.581-.452-.278-3.625,6.661-7.7,13.075-11.366,19.7,1.005-17.513,1.91-35.034,3.124-52.521.013-.171-.25-.175-.265-.006-1.509,16.85-3.084,33.753-4.349,50.672-3.478-7.267-7.938-14.121-11.464-21.384-.056-.117-.223-.02-.174.1,3.271,7.658,6.6,15.9,11.535,22.669q-.791,10.734-1.378,21.471c-6.624-6.055-13.776-10.737-18.67-18.578-.112-.179-.4-.025-.29.161a56.8,56.8,0,0,0,18.913,19.323q-.555,10.59-.828,21.176a.465.465,0,0,0,.929.021q.891-10.67,1.584-21.36c6.2-5.705,11.408-13,16.044-19.949C352.284,404.984,352.174,404.924,352.122,404.988Z" transform="translate(-299.411 -345.806)" fill="#00804f" opacity="0.64"/>
            </g>
            <g id="Grupo_79543" data-name="Grupo 79543" transform="translate(528.677 58.531)">
              <path id="Trazado_114827" data-name="Trazado 114827" d="M657.389,392.843a84.02,84.02,0,0,1-28.609-29.349,36.346,36.346,0,0,1-4.88-12.4c-.689-4.414,0-9.185,2.651-12.783s7.453-5.733,11.756-4.531c-3.384-5.516-6.826-11.177-8.137-17.515s-.084-13.6,4.716-17.939,13.518-4.241,17.031,1.194c-2.532-4.352-2.706-10.235.344-14.243,3.549-4.664,10.638-5.636,15.952-3.164s8.934,7.7,10.787,13.265,2.164,11.5,2.461,17.351c.105-5.334,5.151-9.778,10.474-10.133s10.48,2.765,13.559,7.122,4.319,9.78,4.612,15.107a49.2,49.2,0,0,1-12.015,34.756S657.92,392.226,657.389,392.843Z" transform="translate(-623.65 -280.794)" fill="url(#linear-gradient-29)"/>
              <path id="Trazado_114828" data-name="Trazado 114828" d="M659.423,401.65a322.656,322.656,0,0,0,7.105-56.965c-11.142-6.862-19.133-17.052-27.034-27.32-.119-.154.1-.352.231-.2,8.031,9.683,16.279,19.091,26.832,26.061a248.809,248.809,0,0,0-4.416-54.07.306.306,0,0,1,.6-.112c1.476,6.97,2.66,14.055,3.589,21.2,1.164-1.827,2.618-3.469,3.709-5.368a50.861,50.861,0,0,0,3.508-7.425.255.255,0,0,1,.482.164,29.82,29.82,0,0,1-2.46,7.1,36.349,36.349,0,0,1-1.986,3.4c-.695,1.053-2.139,2.353-2.357,3.609a.508.508,0,0,1-.643.426,251.248,251.248,0,0,1,1.653,43.008c11.927-9.222,23.116-20.724,27.692-35.3a.2.2,0,0,1,.4.08c-.171,7.725-5.1,14.434-9.821,20.194-5.245,6.4-11.268,12.44-18.364,16.763a207.236,207.236,0,0,1-7.464,45.184C660.437,402.916,659.252,402.461,659.423,401.65Z" transform="translate(-625.355 -281.658)" fill="#003f55" opacity="0.52"/>
            </g>
            <g id="Grupo_79544" data-name="Grupo 79544" transform="translate(498.173 48.747)">
              <path id="Trazado_114829" data-name="Trazado 114829" d="M642.733,379.2a48.956,48.956,0,0,0,19.341-29.113,15.432,15.432,0,0,0,.228-7.331c-.647-2.383-2.493-4.581-4.929-4.985a6.834,6.834,0,0,0-5.668,2.1,20.236,20.236,0,0,0-3.492,5.179,57.645,57.645,0,0,0,5-18.78c.272-3-.064-6.671-2.764-7.995-1.9-.931-4.279-.191-5.85,1.227a16.066,16.066,0,0,0-3.415,5.3A85.084,85.084,0,0,0,643.6,303.99c-.021-2.48-.256-5.21-2.018-6.956s-6.2-3-7.771,6.334a164.963,164.963,0,0,0-7.162-25.993c-1.332-3.642-3.835-7.916-7.693-7.523s-5.464,5.149-5.741,9.027c-.547,7.664,2.289,21.505,4.973,28.7-2.783-3.52-11.965-14.186-16.833-9.458-7.07,6.865,3.665,20.934,12.278,31.588-3.767-2.7-7.718-5.484-12.3-6.206s-9.955,1.32-11.454,5.706c-1.288,3.771.586,7.863,2.771,11.2a55.385,55.385,0,0,0,20.091,18.375c-2.916-.725-5.942-1.454-8.894-.9s-6.043,2.771-6.094,5.774C597.44,382.222,641.361,381.532,642.733,379.2Z" transform="translate(-589.459 -269.827)" fill="url(#linear-gradient-30)"/>
              <path id="Trazado_114830" data-name="Trazado 114830" d="M649.741,329.636c-3.5,8.2-7.7,16.131-11.194,24.321q-2.064-9.894-4.208-19.774c2.832-8.411,4.536-17.292,6.3-25.976.073-.362-.472-.526-.557-.16-1.866,8.064-4.275,16-6.194,24.044-4.061-18.711-8.231-37.4-12.065-56.147-.037-.184-.314-.111-.281.071,3.339,18.161,6.622,36.4,10.238,54.56-5.781-6.626-12.474-12.53-18.307-19.138-.094-.106-.24.045-.154.153,5.678,7.1,11.586,14.8,18.756,20.468q2.306,11.519,4.826,22.983c-8.736-4.432-17.625-7.266-25.063-14.08-.171-.156-.426.09-.259.254a61.993,61.993,0,0,0,25.539,14.792q2.511,11.3,5.318,22.512a.507.507,0,0,0,.982-.25q-2.18-11.481-4.577-22.925c4.847-7.811,8.2-17.008,11.042-25.669C649.911,329.586,649.777,329.553,649.741,329.636Z" transform="translate(-591.838 -270.475)" fill="#00706d"/>
            </g>
            <g id="Grupo_79545" data-name="Grupo 79545" transform="translate(464.211 66.052)">
              <path id="Trazado_114831" data-name="Trazado 114831" d="M565.158,456.608S551.363,403.947,551.394,366c.02-23.272,1.087-50.6,15.122-69.16,10.994-14.541,26.649-6.311,30.977,8.361,6.007,20.367,1.049,50.579-3.2,71.083C585.971,416.4,565.158,456.608,565.158,456.608Z" transform="translate(-551.394 -289.224)" fill="url(#linear-gradient-31)"/>
              <path id="Trazado_114832" data-name="Trazado 114832" d="M596.93,325.473a293.935,293.935,0,0,0-25.689,33.714c.186-1.907.373-3.813.576-5.717l0,0c8.1-12.361,16.731-24.416,25.792-36.09.027-.035-.021-.086-.051-.05a386.851,386.851,0,0,0-25.5,33.879c1.922-17.414,4.514-34.749,7.215-52.1.021-.134-.181-.193-.205-.057q-1.34,7.521-2.6,15.039-.717-7.212-1.957-14.349c-.008-.045-.076-.026-.069.019q1.232,7.648,1.85,15.364c-3.241,19.425-5.994,38.866-7.5,58.526a462.889,462.889,0,0,0-10.885-48.77.036.036,0,0,0-.069.02c4.4,16.777,7.874,33.756,10.8,50.851-.153,2.129-.3,4.26-.419,6.394q-.152,2.67-.311,5.344c-3.007-17.981-8.188-35.658-11.736-53.525-.011-.057-.1-.033-.087.024,4.191,18.7,6.64,37.954,11.647,56.469-1.564,26.34-3.283,52.9-3.138,79.234a.427.427,0,0,0,.853,0c1.873-20.5,2.369-41.162,3.021-61.781,10.265-7.22,16.84-19.215,23.015-29.8a.142.142,0,0,0-.245-.144c-6.575,10.7-13.435,20.363-22.731,28.786q.1-3.239.211-6.476c9.522-10.1,17.076-21.692,23.628-33.868.028-.052-.05-.1-.078-.046-6.5,11.71-14.693,22.276-23.491,32.311q.262-7.382.61-14.75c.375-7.657.947-15.288,1.668-22.9a362.408,362.408,0,0,1,25.975-35.443C597.089,325.5,596.991,325.4,596.93,325.473Z" transform="translate(-551.9 -290.275)" fill="#007683"/>
            </g>
            <g id="Grupo_79546" data-name="Grupo 79546" transform="translate(157.008 143.618)">
              <path id="Trazado_114833" data-name="Trazado 114833" d="M220.781,413.978c2.84-10.375,8.055-20.4,16.4-27.19,14.244-11.6,34.493-11.741,52.723-9.49,5.069.626,10.539,1.605,14,5.358,3.611,3.914,4.031,9.777,3.628,15.089a67.895,67.895,0,0,1-54.626,61.477c-6.607,1.3-13.556,1.584-19.989-.4S218.4,451.1,216.91,444.081C215.08,435.444,218.493,422.337,220.781,413.978Z" transform="translate(-208.07 -376.163)" fill="url(#linear-gradient-32)"/>
              <path id="Trazado_114834" data-name="Trazado 114834" d="M302.406,389.859q-6.279,3-12.583,6.114a55.268,55.268,0,0,0,5.066-10.523c.058-.148-.194-.256-.26-.109-1.8,4.026-4.192,7.585-6.349,11.391-.442.22-.885.434-1.327.654,2.762-4.124,4.237-8.887,5.639-13.688.026-.088-.107-.122-.137-.037-1.833,5.155-3.84,10.209-7.182,14.562-9.892,4.979-19.688,10.262-29.046,16.143,1.765-9.884,2.961-19.525,6.153-29.148.058-.176-.211-.244-.275-.076-3.551,9.365-6.835,19.758-6.91,29.883q-3.391,2.155-6.7,4.417c1.361-10.947,2.619-21.539,5.6-32.267a.178.178,0,0,0-.344-.094c-3.717,10.343-6.617,22.1-6.48,33.218-1.837,1.278-3.656,2.578-5.445,3.916a129.185,129.185,0,0,0-16.637,14.675c.779-4.819,1.074-9.746,2.069-14.551a100.645,100.645,0,0,1,5.116-16.909c.045-.112-.144-.191-.2-.082-4.611,9.759-9.337,22.117-8.519,33.209-7.782,8.654-13.98,18.646-16.565,29.956a.854.854,0,0,0,1.645.453,100.192,100.192,0,0,1,23.3-35.078c9.853-.6,20.677,3.8,29.676,6.765.492.162.828-.611.356-.844a69.71,69.71,0,0,0-16.879-5.513c-3.973-.82-8.1-1.648-12.149-1.4q1.207-1.164,2.45-2.3c12.293-.648,23.68,3.261,35.519,6.271a.427.427,0,0,0,.227-.823c-11.055-4.254-23.162-7.4-35.05-6.071a129.455,129.455,0,0,1,10.709-8.615c5.622-4.053,11.437-7.872,17.368-11.526a75.9,75.9,0,0,1,19.855,8.423.107.107,0,0,0,.129-.168c-4.7-4.475-12.272-7.843-18.83-8.959q2.64-1.614,5.307-3.192c3.5.56,6.769.888,10.06,2.337a86.753,86.753,0,0,1,9.228,4.963c.4.238.72-.35.359-.614-4.89-3.575-11.39-8.275-17.873-7.721,4.108-2.4,8.262-4.719,12.428-7.009a.352.352,0,0,0,.185-.1c5.848-3.212,11.725-6.349,17.579-9.446C303.02,390.178,302.732,389.7,302.406,389.859Z" transform="translate(-207.065 -376.966)" fill="#003f55" opacity="0.52"/>
            </g>
            <g id="Grupo_79547" data-name="Grupo 79547" transform="translate(527.361 115.788)">
              <path id="Trazado_114835" data-name="Trazado 114835" d="M645.894,433.373c-8.914-5.7-16.8-13.527-20.744-23.346-6.729-16.768-.946-35.828,6.5-52.291,2.07-4.579,4.588-9.43,9.125-11.587,4.732-2.248,10.362-.928,15.231,1a66.784,66.784,0,0,1,41.772,69.272c-.713,6.584-2.473,13.194-6.219,18.656s-11.49,11.381-18.52,10.725C664.388,445,653.076,437.965,645.894,433.373Z" transform="translate(-622.176 -344.971)" fill="url(#linear-gradient-33)"/>
              <path id="Trazado_114836" data-name="Trazado 114836" d="M647.551,348.868q.982,6.774,2.064,13.6a54.383,54.383,0,0,0-8.4-7.833c-.123-.1-.3.107-.179.211,3.255,2.868,5.9,6.155,8.844,9.293.077.479.148.957.226,1.436-3.065-3.8-7.108-6.576-11.207-9.3-.076-.05-.146.064-.076.118,4.307,3.228,8.467,6.591,11.578,11,1.785,10.746,3.884,21.49,6.672,32-8.767-4.547-17.472-8.488-25.576-14.3-.148-.106-.291.126-.151.236,7.758,6.072,16.559,12.194,26.046,15.223q1.033,3.815,2.191,7.584c-9.884-4.477-19.464-8.756-28.668-14.686-.192-.124-.366.16-.189.294,8.628,6.514,18.823,12.674,29.3,15.794.664,2.1,1.352,4.188,2.088,6.258a126.88,126.88,0,0,0,8.919,19.915c-4.3-2.14-8.84-3.858-13.062-6.2a98.913,98.913,0,0,1-14.385-9.746c-.092-.074-.221.078-.135.159,7.817,7.183,18.043,15.233,28.7,17.708,5.854,9.838,13.426,18.58,23.293,24.313a.84.84,0,0,0,.906-1.412,98.549,98.549,0,0,1-26.134-32.138c2.316-9.429,9.612-18.309,15.028-25.894.3-.414-.333-.956-.69-.581a68.554,68.554,0,0,0-10.11,14.241c-1.932,3.491-3.914,7.123-4.862,11q-.74-1.475-1.446-2.974c2.985-11.736,9.983-21.287,16.271-31.526a.42.42,0,0,0-.707-.453c-7.227,9.139-13.724,19.59-15.946,31.145a127.174,127.174,0,0,1-4.961-12.576c-2.164-6.466-4.05-13.042-5.748-19.681a74.592,74.592,0,0,1,13.714-16.186.105.105,0,0,0-.12-.17c-5.576,3.1-10.954,9.233-13.919,15.067q-.743-2.953-1.447-5.917c1.549-3.123,2.813-6.1,5.135-8.766a85.36,85.36,0,0,1,7.359-7.217c.342-.308-.118-.778-.471-.516-4.786,3.547-11.1,8.278-12.475,14.53-1.05-4.56-2.017-9.139-2.95-13.722a.363.363,0,0,0-.041-.2c-1.308-6.431-2.536-12.867-3.734-19.27C648.03,348.385,647.5,348.516,647.551,348.868Z" transform="translate(-623.089 -345.354)" fill="#003f55" opacity="0.52"/>
            </g>
            <g id="Grupo_79548" data-name="Grupo 79548" transform="translate(35.07 88.971)">
              <path id="Trazado_114837" data-name="Trazado 114837" d="M143.849,414.534c14.992-27.637,7.285-53.256-2.12-76.826-2.4-6.018-5.363-11.981-10.034-16.47s-11.343-7.311-17.689-6.009c-7.191,1.475-12.619,8.091-14.1,15.28s.457,14.74,3.874,21.236c-2.327-2.59-4.73-5.239-7.84-6.806s-7.13-1.83-9.9.274c-3.575,2.712-3.742,7.981-3.151,12.43a70.9,70.9,0,0,0,8.706,25.786c-1.726-2.783-3.5-5.622-6.051-7.675s-6.069-3.208-9.16-2.13-5.125,4.167-5.73,7.371a20.55,20.55,0,0,0,.876,9.655c11.848,39.36,51.98,44.008,51.98,44.008S134.772,431.266,143.849,414.534Z" transform="translate(-70.39 -314.912)" fill="url(#linear-gradient-34)"/>
              <path id="Trazado_114838" data-name="Trazado 114838" d="M115.639,335.924c-.129-.291-.581-.177-.488.147,5.457,19.234,11.287,38.036,14.54,57.832,3.311,20.145,3.744,40.337,5.495,60.614a.734.734,0,0,0,1.466-.035c1.847-19.739-.98-40.311-4.495-59.714C128.57,374.969,123.806,354.385,115.639,335.924Z" transform="translate(-75.215 -317.159)" fill="#00804f" opacity="0.64"/>
            </g>
            <g id="Grupo_79549" data-name="Grupo 79549" transform="translate(308.995 118.399)">
              <path id="Trazado_114839" data-name="Trazado 114839" d="M424.589,446.592c28.643-12.964,37.979-38.036,44.725-62.5,1.722-6.246,2.965-12.788,1.954-19.186s-4.622-12.679-10.465-15.476c-6.622-3.169-14.945-1.176-20.47,3.656s-8.541,12.022-9.743,19.263c-.29-3.47-.6-7.032-2.135-10.16s-4.576-5.766-8.058-5.765c-4.488,0-7.8,4.1-10.021,8a70.9,70.9,0,0,0-8.641,25.807c.306-3.259.607-6.593-.186-9.77s-2.9-6.223-6.012-7.232-6.6.225-9.02,2.412a20.549,20.549,0,0,0-5.135,8.222c-14.337,38.523,14.834,66.473,14.834,66.473S407.248,454.442,424.589,446.592Z" transform="translate(-377.42 -347.896)" fill="url(#linear-gradient-35)"/>
              <path id="Trazado_114840" data-name="Trazado 114840" d="M433,407.152c12.489-3.773,23.223-13.367,30.158-24.152.125-.194-.178-.365-.307-.179-7.436,10.78-17.347,17.514-29.034,22.557,6.166-13.4,11.584-27.348,14.926-41.489.073-.31-.355-.492-.478-.178-7.139,18.286-13.747,36.455-22.85,53.9a122.442,122.442,0,0,1-3.678-34.311c0-.091-.138-.091-.143,0a112.094,112.094,0,0,0,3.471,34.987c-.051.1-.1.2-.152.293-4.837,9.162-10.273,17.884-15.872,26.5-7.628-13.995-11.662-30.329-10.128-46.3.005-.059-.086-.059-.091,0-1.516,16.624,1.128,32.622,9.248,47.356a.66.66,0,0,0,.162.19c-5.179,7.945-10.479,15.817-15.56,23.877a.733.733,0,0,0,1.188.857c9.746-10.63,17.783-23.109,24.877-35.891,13.847-5.648,27.9-12.489,37.271-24.5.138-.178-.108-.43-.252-.251-9.394,11.738-22.875,17.709-36.313,23.486,2.4-4.371,4.7-8.772,6.912-13.14C428.619,416.3,430.851,411.76,433,407.152Z" transform="translate(-379.05 -349.584)" fill="#007683" opacity="0.4"/>
            </g>
            <g id="Grupo_79550" data-name="Grupo 79550" transform="translate(255.284 170.064)">
              <path id="Trazado_114841" data-name="Trazado 114841" d="M368.365,450.969c-9.265-5.586-23.142-10-34.388-15.009-14.639-6.517-20.277-19.841-14.563-26.425s19.618-4.452,28.558,6.4C359.464,429.9,368.365,450.969,368.365,450.969Z" transform="translate(-317.218 -405.805)" fill="url(#linear-gradient-36)"/>
              <path id="Trazado_114842" data-name="Trazado 114842" d="M371.584,454.242c-13.45-13.955-27.947-26.961-42.441-39.715-.117-.1-.25.092-.139.195,14.188,13.253,28.431,26.427,41.87,40.367C371.105,454.8,371.345,454.522,371.584,454.242Z" transform="translate(-318.484 -406.742)" fill="#008380"/>
            </g>
            <g id="Grupo_79551" data-name="Grupo 79551" transform="translate(285.758 142.16)">
              <path id="Trazado_114843" data-name="Trazado 114843" d="M372.9,453.724c-3.578-12.946-12.309-28.777-18.167-42.892-7.625-18.374-1.326-35.195,9.445-36.247s21.479,12.742,20.261,30.159C382.875,427.137,372.9,453.724,372.9,453.724Z" transform="translate(-351.374 -374.529)" fill="url(#linear-gradient-37)"/>
              <path id="Trazado_114844" data-name="Trazado 114844" d="M374.681,458.8c-.2-24.06-2.156-48.16-4.325-72.03-.017-.193-.3-.13-.292.056,1.465,24.058,3.05,48.093,3.254,72.13C373.771,458.9,374.226,458.852,374.681,458.8Z" transform="translate(-353.389 -375.836)" fill="#008380"/>
            </g>
            <g id="Grupo_79552" data-name="Grupo 79552" transform="translate(31.757 170.064)">
              <path id="Trazado_114845" data-name="Trazado 114845" d="M117.824,450.969c-9.265-5.586-23.141-10-34.387-15.009-14.639-6.517-20.277-19.841-14.563-26.425s19.618-4.452,28.558,6.4C108.924,429.9,117.824,450.969,117.824,450.969Z" transform="translate(-66.677 -405.805)" fill="url(#linear-gradient-38)"/>
              <path id="Trazado_114846" data-name="Trazado 114846" d="M121.044,454.242C107.594,440.287,93.1,427.281,78.6,414.526c-.117-.1-.25.092-.139.195,14.187,13.253,28.431,26.427,41.869,40.367C120.565,454.8,120.805,454.522,121.044,454.242Z" transform="translate(-67.944 -406.742)" fill="#008380"/>
            </g>
            <g id="Grupo_79553" data-name="Grupo 79553" transform="translate(68.158 136.257)">
              <path id="Trazado_114847" data-name="Trazado 114847" d="M129,447.108c-3.578-12.946-12.309-28.777-18.167-42.891-7.625-18.374-1.326-35.195,9.445-36.247s21.479,12.742,20.261,30.159C138.978,420.522,129,447.108,129,447.108Z" transform="translate(-107.477 -367.913)" fill="url(#linear-gradient-39)"/>
              <path id="Trazado_114848" data-name="Trazado 114848" d="M130.784,452.188c-.2-24.06-2.156-48.159-4.325-72.03-.017-.192-.3-.13-.292.057,1.465,24.058,3.05,48.092,3.254,72.129C129.874,452.283,130.329,452.236,130.784,452.188Z" transform="translate(-109.492 -369.22)" fill="#008380"/>
            </g>
            <g id="Grupo_79554" data-name="Grupo 79554" transform="translate(125.675 108.761)">
              <path id="Trazado_114849" data-name="Trazado 114849" d="M240.061,337.094c-25.324,10.156-84.025,51.971-64.042,116.806,0,0,36.267-9.249,49.7-48.32C234.712,379.434,240.17,349.919,240.061,337.094Z" transform="translate(-171.945 -337.094)" fill="url(#linear-gradient-40)"/>
              <path id="Trazado_114850" data-name="Trazado 114850" d="M176.149,475.822a134.363,134.363,0,0,1,8.637-42.711.955.955,0,0,0,.1-.012c10.624-3.448,21.4-5.365,32.335-7.46a.092.092,0,0,0-.022-.183c-10.762-.009-21.379,2.346-31.626,5.516.081-.214.153-.43.236-.644,5.664-1.627,11.2-3.611,16.951-4.968,5.453-1.285,11.03-1.791,16.48-3,.234-.052.284-.447,0-.457-10.444-.371-22.8,2.265-32.666,6.495,2.444-6.1,5.233-12.123,8.312-18.13.365-.71.744-1.415,1.112-2.124h0c11.064-4.2,22.355-7.3,33.607-10.889.251-.079.136-.474-.117-.441-11.036,1.428-21.968,4.968-32.316,9.082.693-1.324,1.375-2.653,2.079-3.973,10.756-3.781,21.277-8.045,32.192-11.418.062-.019.035-.128-.03-.112-10.6,2.613-21.41,5.647-31.408,10.144q2.044-3.8,4.158-7.563a.58.58,0,0,0,.32-.563,328.805,328.805,0,0,1,28.287-42.9c.147-.186-.142-.4-.294-.222a296.4,296.4,0,0,0-24.735,34.648c.123-6.269-2.349-13.431-5.456-18.521-.087-.143-.277,0-.236.137,1.077,3.563,2.3,7.133,3.063,10.777.666,3.187.7,6.468,1.388,9.63-.817,1.345-1.614,2.7-2.414,4.059-1.3-7.77-2.041-15.442-5.537-22.668a.046.046,0,0,0-.085.035c2.869,7.838,3.281,16.247,4.552,24.431q-5.368,9.2-10.289,18.68-3.181,6.1-5.984,12.273c-1.094-3.1-3.229-5.788-4.747-8.719a103.45,103.45,0,0,1-4.47-10.428.848.848,0,0,0-1.61.208c-.373,3.39,1.539,7.642,2.991,10.594,1.737,3.532,3.8,7.766,6.865,10.239a.633.633,0,0,0,.108.059c-7.086,16.171-11.745,32.89-11.382,51.083C174.524,476.743,176.12,476.761,176.149,475.822Z" transform="translate(-172.219 -338.402)" fill="#007a52" opacity="0.66"/>
            </g>
            <g id="Grupo_79555" data-name="Grupo 79555" transform="translate(102.131 62.126)">
              <path id="Trazado_114851" data-name="Trazado 114851" d="M149.357,449.077s-6.946-53.993-2.06-91.625c3-23.079,7.549-50.041,23.844-66.657,12.764-13.015,27.236-2.851,29.652,12.255,3.353,20.967-5.428,50.3-12.268,70.089C175.141,411.866,149.357,449.077,149.357,449.077Z" transform="translate(-145.555 -284.823)" fill="url(#linear-gradient-41)"/>
              <path id="Trazado_114852" data-name="Trazado 114852" d="M197.42,323.015a294,294,0,0,0-29.792,30.151c.429-1.867.857-3.735,1.3-5.6l0,0c9.613-11.224,19.717-22.075,30.2-32.494.031-.032-.01-.088-.044-.057a386.929,386.929,0,0,0-29.625,30.339c4.133-17.026,8.922-33.886,13.819-50.746.037-.13-.155-.215-.2-.083q-2.29,7.288-4.5,14.583.211-7.244-.105-14.481c0-.046-.071-.036-.07.01q.245,7.743-.129,15.475c-5.7,18.851-10.917,37.779-14.925,57.085a462.879,462.879,0,0,0-4.556-49.761.036.036,0,0,0-.07.01c2.222,17.2,3.49,34.486,4.2,51.814q-.637,3.138-1.234,6.288-.494,2.63-.992,5.26c-.683-18.217-3.559-36.412-4.793-54.585,0-.058-.1-.046-.09.012,1.763,19.087,1.731,38.491,4.329,57.494-4.921,25.925-10.023,52.044-13.247,78.183a.427.427,0,0,0,.846.109c4.48-20.1,7.615-40.52,10.9-60.887,11.1-5.847,19.159-16.9,26.638-26.615a.142.142,0,0,0-.225-.174c-7.891,9.775-15.93,18.477-26.227,25.641q.518-3.2,1.039-6.4c10.736-8.794,19.71-19.329,27.765-30.568.035-.047-.037-.1-.071-.055-7.94,10.782-17.421,20.213-27.431,29.04q1.2-7.288,2.492-14.551c1.351-7.548,2.9-15.042,4.584-22.5a362.405,362.405,0,0,1,30.295-31.83C197.572,323.066,197.489,322.954,197.42,323.015Z" transform="translate(-145.7 -285.862)" fill="#007a52" opacity="0.66"/>
            </g>
            <g id="Grupo_79556" data-name="Grupo 79556" transform="translate(477.498 122.966)">
              <path id="Trazado_114853" data-name="Trazado 114853" d="M634.4,353.016c-25.324,10.156-84.026,51.971-64.043,116.806,0,0,36.267-9.248,49.7-48.319C629.053,395.357,634.511,365.842,634.4,353.016Z" transform="translate(-566.286 -353.016)" fill="url(#linear-gradient-42)"/>
              <path id="Trazado_114854" data-name="Trazado 114854" d="M570.49,491.745a134.39,134.39,0,0,1,8.637-42.712c.034-.007.064,0,.1-.011,10.623-3.448,21.4-5.366,32.334-7.46a.092.092,0,0,0-.022-.183c-10.761-.009-21.378,2.346-31.626,5.516.082-.214.154-.43.236-.644,5.664-1.628,11.195-3.611,16.951-4.968,5.452-1.286,11.029-1.791,16.48-3,.234-.051.283-.446,0-.456-10.444-.371-22.8,2.264-32.667,6.495,2.444-6.1,5.233-12.123,8.312-18.13.365-.711.744-1.415,1.113-2.124h0c11.065-4.2,22.356-7.3,33.608-10.888.251-.08.135-.474-.117-.441-11.037,1.427-21.968,4.967-32.317,9.082.694-1.324,1.376-2.654,2.08-3.973,10.756-3.782,21.276-8.046,32.192-11.418.063-.02.035-.128-.03-.112-10.6,2.613-21.41,5.648-31.407,10.143q2.042-3.8,4.158-7.562a.577.577,0,0,0,.32-.563,328.883,328.883,0,0,1,28.288-42.9c.148-.187-.142-.4-.293-.223a296.431,296.431,0,0,0-24.736,34.649c.124-6.269-2.348-13.431-5.455-18.521-.088-.143-.278,0-.236.137,1.076,3.562,2.3,7.133,3.063,10.777.666,3.187.7,6.468,1.387,9.63-.817,1.345-1.614,2.7-2.414,4.059-1.3-7.769-2.041-15.441-5.536-22.669a.046.046,0,0,0-.086.036c2.869,7.837,3.281,16.246,4.552,24.431q-5.368,9.2-10.289,18.68c-2.12,4.067-4.125,8.154-5.984,12.273-1.093-3.1-3.229-5.788-4.747-8.72a103.561,103.561,0,0,1-4.47-10.427.847.847,0,0,0-1.609.208c-.374,3.39,1.539,7.642,2.991,10.594,1.737,3.532,3.8,7.766,6.866,10.239a.612.612,0,0,0,.107.058c-7.086,16.172-11.745,32.89-11.381,51.083C568.865,492.666,570.461,492.683,570.49,491.745Z" transform="translate(-566.56 -354.324)" fill="#007a52" opacity="0.66"/>
            </g>
            <g id="Grupo_79557" data-name="Grupo 79557" transform="translate(400.122 135.217)">
              <path id="Trazado_114855" data-name="Trazado 114855" d="M479.559,366.747c26.346,7.095,89.574,41.688,77.385,108.428,0,0-37.106-4.9-55.059-42.114C489.87,408.159,480.966,379.5,479.559,366.747Z" transform="translate(-479.559 -366.747)" fill="url(#linear-gradient-43)"/>
              <path id="Trazado_114856" data-name="Trazado 114856" d="M560.579,496.817a134.352,134.352,0,0,0-13.619-41.393.958.958,0,0,1-.1,0c-10.957-2.17-21.886-2.8-32.989-3.589a.092.092,0,0,1,0-.185c10.686-1.279,21.506-.194,32.056,1.744-.107-.2-.2-.409-.311-.611-5.816-.948-11.543-2.264-17.419-2.933-5.566-.633-11.163-.476-16.719-1.03-.238-.023-.335-.409-.057-.453,10.327-1.6,22.907-.442,33.205,2.594-3.146-5.766-6.626-11.421-10.394-17.022-.446-.663-.906-1.317-1.355-1.978h0c-11.482-2.859-23.062-4.613-34.658-6.845-.258-.05-.19-.455.064-.452,11.128.114,22.4,2.339,33.163,5.2-.845-1.233-1.679-2.473-2.534-3.7-11.127-2.485-22.077-5.477-33.315-7.537-.064-.012-.049-.124.017-.116,10.836,1.345,21.927,3.082,32.385,6.366q-2.476-3.533-5.021-7.02a.579.579,0,0,1-.385-.521,328.742,328.742,0,0,0-33.154-39.257c-.169-.169.094-.418.265-.256a296.193,296.193,0,0,1,28.652,31.486c-.862-6.211.747-13.615,3.232-19.036.07-.152.276-.032.251.109-.649,3.665-1.443,7.354-1.769,11.062-.286,3.244.069,6.507-.241,9.727.97,1.239,1.921,2.494,2.876,3.745.37-7.868.2-15.575,2.821-23.164a.046.046,0,0,1,.089.025c-1.924,8.121-1.34,16.521-1.636,24.8q6.417,8.5,12.422,17.334,3.878,5.684,7.391,11.481c.72-3.209,2.523-6.129,3.685-9.22a103.714,103.714,0,0,0,3.208-10.882.847.847,0,0,1,1.623.016c.771,3.323-.626,7.771-1.719,10.873-1.309,3.712-2.855,8.161-5.609,10.977a.639.639,0,0,1-.1.07c8.945,15.221,15.545,31.273,17.332,49.382C562.3,497.539,560.718,497.745,560.579,496.817Z" transform="translate(-480.618 -367.936)" fill="#007a52" opacity="0.66"/>
            </g>
            <g id="Grupo_79558" data-name="Grupo 79558" transform="translate(513.023 163.442)">
              <path id="Trazado_114857" data-name="Trazado 114857" d="M609.729,447.915c6-9.007,11.029-22.671,16.533-33.682,7.166-14.333,20.729-19.369,27.05-13.367s3.571,19.8-7.675,28.242C631.177,439.966,609.729,447.915,609.729,447.915Z" transform="translate(-606.495 -398.383)" fill="url(#linear-gradient-44)"/>
              <path id="Trazado_114858" data-name="Trazado 114858" d="M606.919,451.039c14.542-12.813,28.184-26.712,41.574-40.622.107-.112-.081-.253-.188-.148-13.875,13.581-27.673,27.221-42.2,40.022C606.381,450.536,606.649,450.788,606.919,451.039Z" transform="translate(-606.104 -399.66)" fill="#008380"/>
            </g>
            <g id="Grupo_79559" data-name="Grupo 79559" transform="translate(447.202 148.697)">
              <path id="Trazado_114859" data-name="Trazado 114859" d="M565.945,458.157c-6.111-11.961-17.852-25.708-26.432-38.355-11.168-16.462-8.386-34.206,1.953-37.406s23.605,8.155,25.92,25.461C570.362,430.107,565.945,458.157,565.945,458.157Z" transform="translate(-532.328 -381.856)" fill="url(#linear-gradient-45)"/>
              <path id="Trazado_114860" data-name="Trazado 114860" d="M568.3,463.14c-5.044-23.526-11.811-46.738-18.741-69.684-.056-.184-.323-.066-.275.115,6.28,23.27,12.672,46.492,17.712,70C567.432,463.416,567.868,463.279,568.3,463.14Z" transform="translate(-534.156 -383.097)" fill="#008380"/>
            </g>
            <g id="Grupo_79560" data-name="Grupo 79560" transform="translate(371.101 155.295)">
              <path id="Trazado_114861" data-name="Trazado 114861" d="M451.389,454.389c6.489-11.76,11.307-29.185,16.982-43.374,7.387-18.471,23.648-26.1,32.087-19.325s6.459,24.125-6.584,35.731C477.1,442.345,451.389,454.389,451.389,454.389Z" transform="translate(-447.501 -389.252)" fill="url(#linear-gradient-46)"/>
              <path id="Trazado_114862" data-name="Trazado 114862" d="M448.116,458.484c16.669-17.35,32.114-35.953,47.245-54.542.122-.149-.126-.3-.248-.163-15.766,18.232-31.429,36.529-48.082,53.864C447.4,457.917,447.756,458.2,448.116,458.484Z" transform="translate(-447.031 -390.812)" fill="#008380"/>
            </g>
          </g>
          <rect id="Rect치ngulo_33858" data-name="Rect치ngulo 33858" width="560.864" height="340.142" transform="translate(60.245 84.442)" opacity="0.51" fill="url(#radial-gradient)" style="mix-blend-mode: overlay;isolation: isolate"/>
          <path id="Trazado_114863" data-name="Trazado 114863" d="M619.472-2.459,353.738,453.983H188.977L581.053-2.459ZM647,12.029,389.28,484.368l44.565,3.525,224.1-471.469ZM222.4-8.6,54,160.6l-3.14,65.162S245.679,5.267,246.922,2.37Zm58.049,11.93L30.289,310.479l29.942,26.2L306.612,3.335Zm123.751,0c-3.983,2.9-358.46,399.355-358.46,399.355L119.532,450.1,424.366-2.459Z" transform="translate(2.844 32.395)" opacity="0.44" fill="url(#linear-gradient-47)" style="mix-blend-mode: overlay;isolation: isolate"/>
        </g>
      </g>
    </g>
  </g>
</svg>
