<svg xmlns="http://www.w3.org/2000/svg" xmlns:xlink="http://www.w3.org/1999/xlink" width="1328" height="1117" viewBox="0 0 1328 1117">
  <defs>
    <clipPath id="clip-path">
      <rect id="Rectángulo_33793" data-name="Rectángulo 33793" width="1328" height="1117" transform="translate(116 3567)" fill="#8d6e61" stroke="#707070" stroke-width="1"/>
    </clipPath>
  </defs>
  <g id="Enmascarar_grupo_52" data-name="Enmascarar grupo 52" transform="translate(-116 -3567)" clip-path="url(#clip-path)">
    <path id="Trazado_113392" data-name="Trazado 113392" d="M2200.624,437.871c-48.095,96.355-137.639,159.664-237.8,189.577-118.747,35.466-233.013,16.55-352.156-2.275-109.852-17.358-232.03-22.193-324.718,51.347-143.868,114.149-157.609,335.3-289.34,463.26-65.174,63.305-153.916,100.194-243.488,101.207-99.029,1.125-224.347-43.275-274.991-137.4-49.18-91.394.659-182.4-16.8-275.961C427.173,644.642,181.866,655.517,63.341,564.689,6.71,521.288-31.4,456.534-57.512,388.982-86.49,314-102.272,230.479-82.654,152.35-50.164,22.928,71.884-25.515,190.744-30.167c88.322-3.456,176.129,19.96,257.24,56.136,71.738,32,139.213,73.972,212.582,101.763,181.191,68.625,359.678-18.948,516.008-113.105,200.683-120.872,407.948-237.394,647.886-195.811,183.345,31.777,373.618,147.955,409.6,349.923,15.223,85.438,8.164,176.044-26.824,255.08Q2204.074,430.959,2200.624,437.871Z" transform="translate(-624.04 3249.496) rotate(21)" fill="#8d6e61" opacity="0.118"/>
  </g>
</svg>
