<svg xmlns="http://www.w3.org/2000/svg" xmlns:xlink="http://www.w3.org/1999/xlink" width="1328" height="1303" viewBox="0 0 1328 1303">
  <defs>
    <clipPath id="clip-path">
      <rect id="Rect치ngulo_33799" data-name="Rect치ngulo 33799" width="1328" height="696" transform="translate(0 -89)" fill="#8d6e61" stroke="#707070" stroke-width="1"/>
    </clipPath>
    <clipPath id="clip-path-2">
      <rect id="Rect치ngulo_33798" data-name="Rect치ngulo 33798" width="1328" height="607" fill="#8d6e61" stroke="#707070" stroke-width="1"/>
    </clipPath>
  </defs>
  <g id="Grupo_85819" data-name="Grupo 85819" transform="translate(-134 -4563)">
    <g id="Enmascarar_grupo_57" data-name="Enmascarar grupo 57" transform="translate(134 4652)" clip-path="url(#clip-path)">
      <path id="Trazado_113416" data-name="Trazado 113416" d="M3498.07,748.351C3422.75,892.37,3282.517,987,3125.659,1031.707c-185.968,53.01-364.918,24.736-551.505-3.4-172.038-25.945-363.378-33.171-508.535,76.747-225.309,170.616-246.829,501.158-453.131,692.422-102.068,94.62-241.046,149.758-381.322,151.271-155.088,1.682-351.345-64.681-430.659-205.363-77.02-136.6,1.031-272.63-26.315-412.471C720.7,1057.4,336.532,1073.659,150.912,937.9,62.223,873.031,2.537,776.246-38.354,675.277c-45.381-112.067-70.1-236.91-39.373-353.687C-26.846,128.146,164.291,55.74,350.435,48.787c138.32-5.166,275.833,29.834,402.858,83.9,112.347,47.822,218.018,110.564,332.92,152.1,283.76,102.571,563.286-28.32,808.111-169.055C2208.611-64.925,2533.2-239.088,2908.967-176.935c287.133,47.5,585.116,221.145,641.472,523.02,23.84,127.7,12.786,263.129-42.009,381.261Q3503.474,738.019,3498.07,748.351Z" transform="translate(-648.211 -154)" fill="#8d6e61" opacity="0.12"/>
    </g>
    <g id="Enmascarar_grupo_56" data-name="Enmascarar grupo 56" transform="translate(134 5259)" clip-path="url(#clip-path-2)">
      <path id="Trazado_113415" data-name="Trazado 113415" d="M60.813,887.913c71.288,136.31,204.016,225.871,352.478,268.189,176.014,50.172,345.385,23.412,521.986-3.218,162.83-24.556,343.928-31.4,481.315,72.639,213.25,161.484,233.617,474.333,428.877,655.36,96.6,89.556,228.144,141.742,360.912,143.175,146.787,1.592,332.54-61.219,407.608-194.371,72.9-129.292-.977-258.037,24.906-390.394,50.627-258.868,414.236-243.484,589.92-371.975,83.942-61.4,140.433-153,179.135-248.567,42.952-106.069,66.346-224.23,37.266-334.755-48.158-183.09-229.064-251.621-405.245-258.2-130.917-4.889-261.069,28.237-381.3,79.414-106.333,45.263-206.349,104.646-315.1,143.96-268.572,97.081-533.136-26.8-764.857-160.006C1281.254,118.167,974.035-46.673,618.385,12.153,346.621,57.108,64.587,221.461,11.248,507.178c-22.564,120.866-12.1,249.045,39.76,360.854Q55.7,878.134,60.813,887.913Z" transform="matrix(-0.995, 0.105, -0.105, -0.995, 2699.752, 245.528)" fill="#8d6e61" opacity="0.12"/>
    </g>
  </g>
</svg>
