<svg xmlns="http://www.w3.org/2000/svg" xmlns:xlink="http://www.w3.org/1999/xlink" width="826.323" height="307.372" viewBox="0 0 826.323 307.372">
  <defs>
    <linearGradient id="linear-gradient" x1="1.012" y1="-0.304" x2="-0.354" y2="1.643" gradientUnits="objectBoundingBox">
      <stop offset="0.015" stop-color="#65768f" stop-opacity="0"/>
      <stop offset="0.109" stop-color="#687a91" stop-opacity="0.043"/>
      <stop offset="0.264" stop-color="#708598" stop-opacity="0.157"/>
      <stop offset="0.459" stop-color="#7d97a3" stop-opacity="0.341"/>
      <stop offset="0.688" stop-color="#90b1b3" stop-opacity="0.596"/>
      <stop offset="0.943" stop-color="#a7d1c7" stop-opacity="0.922"/>
      <stop offset="1" stop-color="#add9cc"/>
    </linearGradient>
    <linearGradient id="linear-gradient-2" x1="1.209" y1="1.01" x2="-0.104" y2="0.328" gradientUnits="objectBoundingBox">
      <stop offset="0.015" stop-color="#6db5ae" stop-opacity="0"/>
      <stop offset="0.156" stop-color="#6cafaa" stop-opacity="0.071"/>
      <stop offset="0.386" stop-color="#6a9fa1" stop-opacity="0.267"/>
      <stop offset="0.678" stop-color="#678691" stop-opacity="0.584"/>
      <stop offset="1" stop-color="#64657e"/>
    </linearGradient>
    <linearGradient id="linear-gradient-3" x1="-11.687" y1="5.835" x2="-10.687" y2="5.835" gradientUnits="objectBoundingBox">
      <stop offset="0" stop-color="#add9cc" stop-opacity="0"/>
      <stop offset="1" stop-color="#d76579"/>
    </linearGradient>
    <linearGradient id="linear-gradient-4" x1="0.755" y1="-0.021" x2="0.055" y2="1.292" xlink:href="#linear-gradient"/>
    <linearGradient id="linear-gradient-5" x1="0.132" y1="1.387" x2="0.708" y2="-0.337" gradientUnits="objectBoundingBox">
      <stop offset="0.007" stop-color="#65768f" stop-opacity="0"/>
      <stop offset="1" stop-color="#46475c"/>
    </linearGradient>
  </defs>
  <g id="Grupo_80294" data-name="Grupo 80294" transform="translate(-385.677 -1427.001)">
    <rect id="Rectángulo_33860" data-name="Rectángulo 33860" width="189" height="35" transform="translate(820 1449)" fill="#d4e157"/>
    <rect id="Rectángulo_33861" data-name="Rectángulo 33861" width="392" height="35" transform="translate(820 1531)" fill="#d4e157"/>
    <rect id="Rectángulo_33862" data-name="Rectángulo 33862" width="119" height="35" transform="translate(820 1610)" fill="#d4e157"/>
    <rect id="Rectángulo_33863" data-name="Rectángulo 33863" width="180" height="35" transform="translate(820 1689)" fill="#d4e157"/>
    <path id="Trazado_119366" data-name="Trazado 119366" d="M4.672,9.93A7.053,7.053,0,0,1,1.863,8.566a2.6,2.6,0,0,1-.879-2A2.751,2.751,0,0,1,2.059,4.348a4.269,4.269,0,0,1,2.793-.879,4.66,4.66,0,0,1,2.09.453,3.436,3.436,0,0,1,1.422,1.25,3.2,3.2,0,0,1,.5,1.742H7.359A2.08,2.08,0,0,0,6.7,5.287,2.669,2.669,0,0,0,4.852,4.7a2.732,2.732,0,0,0-1.73.489A1.632,1.632,0,0,0,2.5,6.542,1.468,1.468,0,0,0,3.09,7.72,5.785,5.785,0,0,0,5.1,8.6a9.316,9.316,0,0,1,2.219.88A3.367,3.367,0,0,1,8.5,10.6a2.861,2.861,0,0,1,.387,1.508,2.658,2.658,0,0,1-1.078,2.215,4.6,4.6,0,0,1-2.883.832,5.347,5.347,0,0,1-2.187-.449,3.681,3.681,0,0,1-1.566-1.23A3,3,0,0,1,.625,11.7H2.133a1.959,1.959,0,0,0,.762,1.629,3.207,3.207,0,0,0,2.035.6,2.948,2.948,0,0,0,1.82-.484,1.573,1.573,0,0,0,.633-1.32A1.545,1.545,0,0,0,6.8,10.832,6.755,6.755,0,0,0,4.672,9.93Zm9.422,5.227a3.693,3.693,0,0,1-2.8-1.129,4.19,4.19,0,0,1-1.078-3.02v-.266A5.073,5.073,0,0,1,10.7,8.5a3.748,3.748,0,0,1,1.344-1.547,3.378,3.378,0,0,1,1.871-.559,3.166,3.166,0,0,1,2.563,1.086,4.7,4.7,0,0,1,.914,3.109v.6H11.664a3,3,0,0,0,.73,2.02,2.3,2.3,0,0,0,1.777.77,2.517,2.517,0,0,0,1.3-.312,3.259,3.259,0,0,0,.93-.828l.883.688A3.55,3.55,0,0,1,14.094,15.156Zm-.18-7.578a1.928,1.928,0,0,0-1.469.637A3.1,3.1,0,0,0,11.711,10h4.234V9.891a2.753,2.753,0,0,0-.594-1.707A1.815,1.815,0,0,0,13.914,7.578ZM20.43,6.547l.047,1.063a3.08,3.08,0,0,1,2.531-1.219q2.68,0,2.7,3.023V15H24.266V9.406a1.946,1.946,0,0,0-.418-1.352,1.675,1.675,0,0,0-1.277-.437,2.086,2.086,0,0,0-1.234.375,2.546,2.546,0,0,0-.828.984V15H19.063V6.547Zm12.383,6.211a1.064,1.064,0,0,0-.441-.91,4.249,4.249,0,0,0-1.539-.559,7.277,7.277,0,0,1-1.742-.562,2.479,2.479,0,0,1-.953-.781,1.869,1.869,0,0,1-.309-1.078,2.193,2.193,0,0,1,.879-1.758,3.432,3.432,0,0,1,2.246-.719,3.532,3.532,0,0,1,2.332.742,2.357,2.357,0,0,1,.895,1.9H32.727a1.3,1.3,0,0,0-.5-1.023,1.888,1.888,0,0,0-1.27-.43,1.976,1.976,0,0,0-1.234.344,1.082,1.082,0,0,0-.445.9.877.877,0,0,0,.414.789,5.1,5.1,0,0,0,1.5.508,7.8,7.8,0,0,1,1.754.578,2.558,2.558,0,0,1,1,.809,1.988,1.988,0,0,1,.324,1.152,2.163,2.163,0,0,1-.906,1.816A3.8,3.8,0,0,1,31,15.156a4.257,4.257,0,0,1-1.8-.359,2.922,2.922,0,0,1-1.223-1,2.42,2.42,0,0,1-.441-1.395h1.445a1.5,1.5,0,0,0,.582,1.152A2.258,2.258,0,0,0,31,13.977a2.331,2.331,0,0,0,1.316-.332A1.02,1.02,0,0,0,32.813,12.758ZM37.711,15H36.266V6.547h1.445ZM36.148,4.3a.863.863,0,0,1,.215-.594A.807.807,0,0,1,37,3.469a.819.819,0,0,1,.641.242.854.854,0,0,1,.219.594.826.826,0,0,1-.219.586A.834.834,0,0,1,37,5.125a.821.821,0,0,1-.637-.234A.834.834,0,0,1,36.148,4.3ZM47.18,10.867a5.026,5.026,0,0,1-.891,3.113A2.846,2.846,0,0,1,43.9,15.156a2.947,2.947,0,0,1-2.477-1.133l-.07.977H40.023V3h1.445V7.477a2.93,2.93,0,0,1,2.414-1.086A2.863,2.863,0,0,1,46.3,7.555a5.177,5.177,0,0,1,.879,3.188ZM45.734,10.7a3.906,3.906,0,0,0-.57-2.281,1.888,1.888,0,0,0-1.641-.8,2.122,2.122,0,0,0-2.055,1.328V12.6a2.181,2.181,0,0,0,2.07,1.328,1.878,1.878,0,0,0,1.617-.8A4.153,4.153,0,0,0,45.734,10.7ZM50.57,15H49.125V3H50.57Zm5.82.156a3.693,3.693,0,0,1-2.8-1.129,4.19,4.19,0,0,1-1.078-3.02v-.266A5.073,5.073,0,0,1,53,8.5,3.748,3.748,0,0,1,54.34,6.949a3.378,3.378,0,0,1,1.871-.559,3.166,3.166,0,0,1,2.563,1.086,4.7,4.7,0,0,1,.914,3.109v.6H53.961a3,3,0,0,0,.73,2.02,2.3,2.3,0,0,0,1.777.77,2.517,2.517,0,0,0,1.3-.312,3.259,3.259,0,0,0,.93-.828l.883.688A3.55,3.55,0,0,1,56.391,15.156Zm-.18-7.578a1.928,1.928,0,0,0-1.469.637A3.1,3.1,0,0,0,54.008,10h4.234V9.891a2.753,2.753,0,0,0-.594-1.707A1.815,1.815,0,0,0,56.211,7.578Zm10.07,5.18a1.064,1.064,0,0,0-.441-.91,4.249,4.249,0,0,0-1.539-.559,7.277,7.277,0,0,1-1.742-.562,2.479,2.479,0,0,1-.953-.781A1.869,1.869,0,0,1,61.3,8.867a2.193,2.193,0,0,1,.879-1.758,3.432,3.432,0,0,1,2.246-.719,3.532,3.532,0,0,1,2.332.742,2.357,2.357,0,0,1,.895,1.9H66.2a1.3,1.3,0,0,0-.5-1.023,1.888,1.888,0,0,0-1.27-.43,1.976,1.976,0,0,0-1.234.344,1.082,1.082,0,0,0-.445.9.877.877,0,0,0,.414.789,5.1,5.1,0,0,0,1.5.508,7.8,7.8,0,0,1,1.754.578,2.558,2.558,0,0,1,1,.809,1.988,1.988,0,0,1,.324,1.152,2.163,2.163,0,0,1-.906,1.816,3.8,3.8,0,0,1-2.352.684,4.257,4.257,0,0,1-1.8-.359,2.922,2.922,0,0,1-1.223-1,2.42,2.42,0,0,1-.441-1.395h1.445a1.5,1.5,0,0,0,.582,1.152,2.258,2.258,0,0,0,1.434.426,2.331,2.331,0,0,0,1.316-.332A1.02,1.02,0,0,0,66.281,12.758ZM78.789,15a3.036,3.036,0,0,1-.2-.891,3.225,3.225,0,0,1-2.406,1.047,2.984,2.984,0,0,1-2.051-.707,2.288,2.288,0,0,1-.8-1.793,2.39,2.39,0,0,1,1-2.051,4.733,4.733,0,0,1,2.824-.73h1.406V9.211A1.623,1.623,0,0,0,78.109,8a1.821,1.821,0,0,0-1.336-.449,2.108,2.108,0,0,0-1.3.391,1.151,1.151,0,0,0-.523.945H73.5a2,2,0,0,1,.449-1.223,3.066,3.066,0,0,1,1.219-.934,4.1,4.1,0,0,1,1.691-.344,3.342,3.342,0,0,1,2.289.73,2.635,2.635,0,0,1,.859,2.012v3.891a4.757,4.757,0,0,0,.3,1.852V15Zm-2.4-1.1a2.54,2.54,0,0,0,1.289-.352,2.127,2.127,0,0,0,.883-.914V10.9H77.43q-2.656,0-2.656,1.555a1.316,1.316,0,0,0,.453,1.063A1.742,1.742,0,0,0,76.391,13.9Zm14.766-1.141a1.064,1.064,0,0,0-.441-.91,4.249,4.249,0,0,0-1.539-.559,7.277,7.277,0,0,1-1.742-.562,2.479,2.479,0,0,1-.953-.781,1.869,1.869,0,0,1-.309-1.078,2.193,2.193,0,0,1,.879-1.758A3.432,3.432,0,0,1,89.3,6.391a3.532,3.532,0,0,1,2.332.742,2.357,2.357,0,0,1,.895,1.9H91.07a1.3,1.3,0,0,0-.5-1.023,1.888,1.888,0,0,0-1.27-.43,1.976,1.976,0,0,0-1.234.344,1.082,1.082,0,0,0-.445.9.877.877,0,0,0,.414.789,5.1,5.1,0,0,0,1.5.508,7.8,7.8,0,0,1,1.754.578,2.558,2.558,0,0,1,1,.809,1.988,1.988,0,0,1,.324,1.152,2.163,2.163,0,0,1-.906,1.816,3.8,3.8,0,0,1-2.352.684,4.257,4.257,0,0,1-1.8-.359,2.922,2.922,0,0,1-1.223-1,2.42,2.42,0,0,1-.441-1.395h1.445a1.5,1.5,0,0,0,.582,1.152,2.258,2.258,0,0,0,1.434.426,2.331,2.331,0,0,0,1.316-.332A1.02,1.02,0,0,0,91.156,12.758ZM99.7,14.164a3.07,3.07,0,0,1-2.477.992,2.628,2.628,0,0,1-2.059-.785,3.4,3.4,0,0,1-.715-2.324v-5.5H95.9v5.461q0,1.922,1.563,1.922a2.163,2.163,0,0,0,2.2-1.234V6.547h1.445V15H99.734Zm8.922-7.617.039.938a3.122,3.122,0,0,1,2.508-1.094,2.417,2.417,0,0,1,2.414,1.359,3.2,3.2,0,0,1,1.1-.984,3.242,3.242,0,0,1,1.6-.375q2.781,0,2.828,2.945V15h-1.445V9.422a1.941,1.941,0,0,0-.414-1.355,1.823,1.823,0,0,0-1.391-.449,1.916,1.916,0,0,0-1.336.48,1.949,1.949,0,0,0-.617,1.293V15h-1.453V9.461a1.613,1.613,0,0,0-1.8-1.844A1.934,1.934,0,0,0,108.7,8.828V15h-1.445V6.547ZM124.8,15.156a3.693,3.693,0,0,1-2.8-1.129,4.19,4.19,0,0,1-1.078-3.02v-.266A5.073,5.073,0,0,1,121.4,8.5a3.748,3.748,0,0,1,1.344-1.547,3.378,3.378,0,0,1,1.871-.559,3.166,3.166,0,0,1,2.563,1.086,4.7,4.7,0,0,1,.914,3.109v.6h-5.727a3,3,0,0,0,.73,2.02,2.3,2.3,0,0,0,1.777.77,2.517,2.517,0,0,0,1.3-.312,3.259,3.259,0,0,0,.93-.828l.883.688A3.55,3.55,0,0,1,124.8,15.156Zm-.18-7.578a1.928,1.928,0,0,0-1.469.637A3.1,3.1,0,0,0,122.414,10h4.234V9.891a2.753,2.753,0,0,0-.594-1.707A1.815,1.815,0,0,0,124.617,7.578Zm4.8,3.125a4.952,4.952,0,0,1,.922-3.129,3.137,3.137,0,0,1,4.766-.168V3h1.445V15h-1.328l-.07-.906a2.943,2.943,0,0,1-2.414,1.063,2.887,2.887,0,0,1-2.395-1.2,5.008,5.008,0,0,1-.926-3.141Zm1.445.164a3.749,3.749,0,0,0,.594,2.25,1.919,1.919,0,0,0,1.641.813A2.108,2.108,0,0,0,135.1,12.7V8.813a2.125,2.125,0,0,0-1.992-1.2,1.929,1.929,0,0,0-1.656.82A4.128,4.128,0,0,0,130.859,10.867Zm9.5,4.133h-1.445V6.547h1.445ZM138.8,4.3a.863.863,0,0,1,.215-.594.807.807,0,0,1,.637-.242.819.819,0,0,1,.641.242.854.854,0,0,1,.219.594.826.826,0,0,1-.219.586.834.834,0,0,1-.641.234.821.821,0,0,1-.637-.234A.834.834,0,0,1,138.8,4.3Zm3.492,6.391a4.993,4.993,0,0,1,.488-2.234,3.642,3.642,0,0,1,1.359-1.531,3.7,3.7,0,0,1,1.988-.539,3.565,3.565,0,0,1,2.793,1.2,4.6,4.6,0,0,1,1.066,3.18v.1a5.036,5.036,0,0,1-.473,2.215,3.589,3.589,0,0,1-1.352,1.527,3.743,3.743,0,0,1-2.02.547,3.556,3.556,0,0,1-2.785-1.2,4.575,4.575,0,0,1-1.066-3.164Zm1.453.172a3.616,3.616,0,0,0,.652,2.258,2.211,2.211,0,0,0,3.5-.012,3.954,3.954,0,0,0,.648-2.418,3.61,3.61,0,0,0-.66-2.254,2.1,2.1,0,0,0-1.754-.863,2.075,2.075,0,0,0-1.727.852A3.925,3.925,0,0,0,143.742,10.867Zm8.086,3.375a.905.905,0,0,1,.223-.625.848.848,0,0,1,.668-.25.874.874,0,0,1,.676.25.887.887,0,0,1,.23.625.839.839,0,0,1-.23.6.89.89,0,0,1-.676.242.8.8,0,0,1-.891-.844Z" transform="translate(833 1456.688)" fill="#12263f"/>
    <g id="Elipse_4771" data-name="Elipse 4771" transform="translate(799.867 1459.688)" fill="#d4e157" stroke="#d4e157" stroke-width="1">
      <circle cx="6.5" cy="6.5" r="6.5" stroke="none"/>
      <circle cx="6.5" cy="6.5" r="6" fill="none"/>
    </g>
    <line id="Línea_169" data-name="Línea 169" x1="186.867" transform="translate(619.5 1466.188)" fill="none" stroke="#d4e157" stroke-width="3"/>
    <path id="Trazado_119365" data-name="Trazado 119365" d="M7.6,12.023H2.836L1.766,15H.219L4.563,3.625H5.875L10.227,15H8.688ZM3.289,10.8H7.156L5.219,5.477Zm15.4.07A5.026,5.026,0,0,1,17.8,13.98a2.846,2.846,0,0,1-2.391,1.176,2.947,2.947,0,0,1-2.477-1.133l-.07.977H11.531V3h1.445V7.477a2.93,2.93,0,0,1,2.414-1.086,2.863,2.863,0,0,1,2.418,1.164,5.177,5.177,0,0,1,.879,3.188ZM17.242,10.7a3.906,3.906,0,0,0-.57-2.281,1.888,1.888,0,0,0-1.641-.8,2.122,2.122,0,0,0-2.055,1.328V12.6a2.181,2.181,0,0,0,2.07,1.328,1.878,1.878,0,0,0,1.617-.8A4.153,4.153,0,0,0,17.242,10.7Zm8.484,3.461a3.07,3.07,0,0,1-2.477.992,2.628,2.628,0,0,1-2.059-.785,3.4,3.4,0,0,1-.715-2.324v-5.5h1.445v5.461q0,1.922,1.563,1.922a2.163,2.163,0,0,0,2.2-1.234V6.547h1.445V15H25.758ZM30.7,6.547l.047,1.063a3.08,3.08,0,0,1,2.531-1.219q2.68,0,2.7,3.023V15H34.531V9.406a1.946,1.946,0,0,0-.418-1.352,1.675,1.675,0,0,0-1.277-.437,2.086,2.086,0,0,0-1.234.375,2.546,2.546,0,0,0-.828.984V15H29.328V6.547ZM37.8,10.7a4.952,4.952,0,0,1,.922-3.129,3.137,3.137,0,0,1,4.766-.168V3h1.445V15H43.609l-.07-.906a2.943,2.943,0,0,1-2.414,1.063,2.887,2.887,0,0,1-2.395-1.2,5.008,5.008,0,0,1-.926-3.141Zm1.445.164a3.749,3.749,0,0,0,.594,2.25,1.92,1.92,0,0,0,1.641.813A2.108,2.108,0,0,0,43.492,12.7V8.813a2.125,2.125,0,0,0-1.992-1.2,1.929,1.929,0,0,0-1.656.82A4.128,4.128,0,0,0,39.25,10.867ZM52.4,15a3.036,3.036,0,0,1-.2-.891,3.225,3.225,0,0,1-2.406,1.047,2.984,2.984,0,0,1-2.051-.707,2.287,2.287,0,0,1-.8-1.793,2.39,2.39,0,0,1,1-2.051,4.733,4.733,0,0,1,2.824-.73h1.406V9.211A1.623,1.623,0,0,0,51.719,8a1.821,1.821,0,0,0-1.336-.449,2.107,2.107,0,0,0-1.3.391,1.151,1.151,0,0,0-.523.945H47.109a2,2,0,0,1,.449-1.223,3.066,3.066,0,0,1,1.219-.934,4.1,4.1,0,0,1,1.691-.344,3.342,3.342,0,0,1,2.289.73,2.635,2.635,0,0,1,.859,2.012v3.891a4.757,4.757,0,0,0,.3,1.852V15ZM50,13.9a2.54,2.54,0,0,0,1.289-.352,2.127,2.127,0,0,0,.883-.914V10.9H51.039q-2.656,0-2.656,1.555a1.316,1.316,0,0,0,.453,1.063A1.742,1.742,0,0,0,50,13.9Zm7.25-7.352L57.3,7.609a3.08,3.08,0,0,1,2.531-1.219q2.68,0,2.7,3.023V15H61.086V9.406a1.946,1.946,0,0,0-.418-1.352,1.675,1.675,0,0,0-1.277-.437,2.086,2.086,0,0,0-1.234.375,2.546,2.546,0,0,0-.828.984V15H55.883V6.547ZM66.672,4.5V6.547H68.25V7.664H66.672v5.249a1.173,1.173,0,0,0,.211.763.888.888,0,0,0,.719.254,3.5,3.5,0,0,0,.688-.094V15a4.215,4.215,0,0,1-1.109.155,1.8,1.8,0,0,1-1.461-.586,2.517,2.517,0,0,1-.492-1.664V7.664H63.688V6.547h1.539V4.5Zm6.773,10.656a3.693,3.693,0,0,1-2.8-1.129,4.19,4.19,0,0,1-1.078-3.02v-.266a5.073,5.073,0,0,1,.48-2.246,3.748,3.748,0,0,1,1.344-1.547,3.378,3.378,0,0,1,1.871-.559,3.166,3.166,0,0,1,2.563,1.086,4.7,4.7,0,0,1,.914,3.109v.6H71.016a3,3,0,0,0,.73,2.02,2.3,2.3,0,0,0,1.777.77,2.517,2.517,0,0,0,1.3-.312,3.259,3.259,0,0,0,.93-.828l.883.688A3.55,3.55,0,0,1,73.445,15.156Zm-.18-7.578a1.928,1.928,0,0,0-1.469.637A3.1,3.1,0,0,0,71.063,10H75.3V9.891A2.753,2.753,0,0,0,74.7,8.184,1.815,1.815,0,0,0,73.266,7.578Zm10.07,5.18a1.064,1.064,0,0,0-.441-.91,4.249,4.249,0,0,0-1.539-.559,7.277,7.277,0,0,1-1.742-.562,2.479,2.479,0,0,1-.953-.781,1.869,1.869,0,0,1-.309-1.078,2.193,2.193,0,0,1,.879-1.758,3.432,3.432,0,0,1,2.246-.719,3.532,3.532,0,0,1,2.332.742,2.357,2.357,0,0,1,.895,1.9H83.25a1.3,1.3,0,0,0-.5-1.023,1.888,1.888,0,0,0-1.27-.43,1.976,1.976,0,0,0-1.234.344,1.082,1.082,0,0,0-.445.9.877.877,0,0,0,.414.789,5.1,5.1,0,0,0,1.5.508,7.8,7.8,0,0,1,1.754.578,2.558,2.558,0,0,1,1,.809,1.988,1.988,0,0,1,.324,1.152,2.163,2.163,0,0,1-.906,1.816,3.8,3.8,0,0,1-2.352.684,4.257,4.257,0,0,1-1.8-.359,2.922,2.922,0,0,1-1.223-1,2.42,2.42,0,0,1-.441-1.395h1.445a1.5,1.5,0,0,0,.582,1.152,2.258,2.258,0,0,0,1.434.426,2.331,2.331,0,0,0,1.316-.332A1.02,1.02,0,0,0,83.336,12.758Zm7.234-2.375a12.079,12.079,0,0,1,.473-3.391,9.849,9.849,0,0,1,1.41-2.953A6,6,0,0,1,94.4,2.164l.3.953a6.222,6.222,0,0,0-1.871,2.672,11.583,11.583,0,0,0-.8,4.023l-.008.664a11.643,11.643,0,0,0,1.1,5.234A6.252,6.252,0,0,0,94.7,17.789l-.3.883a6.192,6.192,0,0,1-1.984-1.937A10.859,10.859,0,0,1,90.57,10.383Zm8.914,3.594a2.082,2.082,0,0,0,1.352-.469,1.649,1.649,0,0,0,.641-1.172h1.367a2.621,2.621,0,0,1-.5,1.383,3.293,3.293,0,0,1-1.23,1.047,3.55,3.55,0,0,1-1.629.391A3.482,3.482,0,0,1,96.738,14a4.59,4.59,0,0,1-1.02-3.152v-.242a5.089,5.089,0,0,1,.453-2.2,3.451,3.451,0,0,1,1.3-1.492,3.7,3.7,0,0,1,2-.531,3.39,3.39,0,0,1,2.363.852,3.043,3.043,0,0,1,1,2.211h-1.367a1.992,1.992,0,0,0-.621-1.348,1.932,1.932,0,0,0-1.379-.527,2.023,2.023,0,0,0-1.707.793,3.724,3.724,0,0,0-.605,2.293v.273a3.65,3.65,0,0,0,.6,2.25A2.033,2.033,0,0,0,99.484,13.977Zm4.6-3.281a4.993,4.993,0,0,1,.488-2.234,3.643,3.643,0,0,1,1.359-1.531,3.7,3.7,0,0,1,1.988-.539,3.565,3.565,0,0,1,2.793,1.2,4.6,4.6,0,0,1,1.066,3.18v.1a5.036,5.036,0,0,1-.473,2.215,3.589,3.589,0,0,1-1.352,1.527,3.743,3.743,0,0,1-2.02.547,3.556,3.556,0,0,1-2.785-1.2,4.575,4.575,0,0,1-1.066-3.164Zm1.453.172a3.616,3.616,0,0,0,.652,2.258,2.211,2.211,0,0,0,3.5-.012,3.955,3.955,0,0,0,.648-2.418,3.61,3.61,0,0,0-.66-2.254,2.1,2.1,0,0,0-1.754-.863,2.075,2.075,0,0,0-1.727.852A3.925,3.925,0,0,0,105.539,10.867Zm9.414-4.32.039.938A3.122,3.122,0,0,1,117.5,6.391a2.417,2.417,0,0,1,2.414,1.359,3.2,3.2,0,0,1,1.1-.984,3.242,3.242,0,0,1,1.6-.375q2.781,0,2.828,2.945V15h-1.445V9.422a1.941,1.941,0,0,0-.414-1.355,1.823,1.823,0,0,0-1.391-.449,1.916,1.916,0,0,0-1.336.48,1.949,1.949,0,0,0-.617,1.293V15h-1.453V9.461a1.613,1.613,0,0,0-1.8-1.844,1.934,1.934,0,0,0-1.945,1.211V15h-1.445V6.547ZM127.234,10.7a4.993,4.993,0,0,1,.488-2.234,3.642,3.642,0,0,1,1.359-1.531,3.7,3.7,0,0,1,1.988-.539,3.565,3.565,0,0,1,2.793,1.2,4.6,4.6,0,0,1,1.066,3.18v.1a5.036,5.036,0,0,1-.473,2.215,3.589,3.589,0,0,1-1.352,1.527,3.743,3.743,0,0,1-2.02.547,3.556,3.556,0,0,1-2.785-1.2,4.575,4.575,0,0,1-1.066-3.164Zm1.453.172a3.616,3.616,0,0,0,.652,2.258,2.211,2.211,0,0,0,3.5-.012,3.954,3.954,0,0,0,.648-2.418,3.61,3.61,0,0,0-.66-2.254,2.1,2.1,0,0,0-1.754-.863,2.075,2.075,0,0,0-1.727.852A3.925,3.925,0,0,0,128.688,10.867ZM145.922,15a3.036,3.036,0,0,1-.2-.891,3.225,3.225,0,0,1-2.406,1.047,2.984,2.984,0,0,1-2.051-.707,2.287,2.287,0,0,1-.8-1.793,2.39,2.39,0,0,1,1-2.051,4.733,4.733,0,0,1,2.824-.73H145.7V9.211A1.623,1.623,0,0,0,145.242,8a1.821,1.821,0,0,0-1.336-.449,2.107,2.107,0,0,0-1.3.391,1.151,1.151,0,0,0-.523.945h-1.453a2,2,0,0,1,.449-1.223,3.066,3.066,0,0,1,1.219-.934,4.1,4.1,0,0,1,1.691-.344,3.342,3.342,0,0,1,2.289.73,2.635,2.635,0,0,1,.859,2.012v3.891a4.757,4.757,0,0,0,.3,1.852V15Zm-2.4-1.1a2.54,2.54,0,0,0,1.289-.352,2.127,2.127,0,0,0,.883-.914V10.9h-1.133q-2.656,0-2.656,1.555a1.316,1.316,0,0,0,.453,1.063A1.742,1.742,0,0,0,143.523,13.9Zm7.453,1.1h-1.445V3h1.445Zm1.969-4.3a4.968,4.968,0,0,1,.914-3.145,3.151,3.151,0,0,1,4.836-.074l.07-.937h1.32V14.8a3.439,3.439,0,0,1-.973,2.586,3.589,3.589,0,0,1-2.613.945,4.348,4.348,0,0,1-1.789-.391,3.08,3.08,0,0,1-1.336-1.07l.75-.867a2.826,2.826,0,0,0,2.273,1.148,2.214,2.214,0,0,0,1.645-.594,2.269,2.269,0,0,0,.59-1.672v-.727a2.971,2.971,0,0,1-2.367,1,2.887,2.887,0,0,1-2.4-1.2A5.224,5.224,0,0,1,152.945,10.7Zm1.453.164a3.79,3.79,0,0,0,.586,2.246,1.9,1.9,0,0,0,1.641.816,2.117,2.117,0,0,0,2.008-1.242V8.828a2.142,2.142,0,0,0-1.992-1.211,1.921,1.921,0,0,0-1.648.82A4.128,4.128,0,0,0,154.4,10.867Zm13.086,3.3a3.07,3.07,0,0,1-2.477.992,2.628,2.628,0,0,1-2.059-.785,3.4,3.4,0,0,1-.715-2.324v-5.5h1.445v5.461q0,1.922,1.563,1.922a2.163,2.163,0,0,0,2.2-1.234V6.547h1.445V15h-1.375Zm4.969-7.617.047,1.063a3.08,3.08,0,0,1,2.531-1.219q2.68,0,2.7,3.023V15h-1.445V9.406a1.946,1.946,0,0,0-.418-1.352,1.675,1.675,0,0,0-1.277-.437,2.086,2.086,0,0,0-1.234.375,2.546,2.546,0,0,0-.828.984V15h-1.445V6.547ZM185.133,15a3.036,3.036,0,0,1-.2-.891,3.225,3.225,0,0,1-2.406,1.047,2.984,2.984,0,0,1-2.051-.707,2.287,2.287,0,0,1-.8-1.793,2.39,2.39,0,0,1,1-2.051,4.733,4.733,0,0,1,2.824-.73h1.406V9.211A1.623,1.623,0,0,0,184.453,8a1.821,1.821,0,0,0-1.336-.449,2.107,2.107,0,0,0-1.3.391,1.151,1.151,0,0,0-.523.945h-1.453a2,2,0,0,1,.449-1.223,3.066,3.066,0,0,1,1.219-.934,4.1,4.1,0,0,1,1.691-.344,3.342,3.342,0,0,1,2.289.73,2.635,2.635,0,0,1,.859,2.012v3.891a4.757,4.757,0,0,0,.3,1.852V15Zm-2.4-1.1a2.54,2.54,0,0,0,1.289-.352,2.127,2.127,0,0,0,.883-.914V10.9h-1.133q-2.656,0-2.656,1.555a1.316,1.316,0,0,0,.453,1.063A1.742,1.742,0,0,0,182.734,13.9Zm10.8-1.141a1.064,1.064,0,0,0-.441-.91,4.249,4.249,0,0,0-1.539-.559,7.277,7.277,0,0,1-1.742-.562,2.479,2.479,0,0,1-.953-.781,1.869,1.869,0,0,1-.309-1.078,2.193,2.193,0,0,1,.879-1.758,3.432,3.432,0,0,1,2.246-.719,3.532,3.532,0,0,1,2.332.742,2.357,2.357,0,0,1,.895,1.9h-1.453a1.3,1.3,0,0,0-.5-1.023,1.888,1.888,0,0,0-1.27-.43,1.976,1.976,0,0,0-1.234.344,1.082,1.082,0,0,0-.445.9.877.877,0,0,0,.414.789,5.1,5.1,0,0,0,1.5.508,7.8,7.8,0,0,1,1.754.578,2.558,2.558,0,0,1,1,.809,1.988,1.988,0,0,1,.324,1.152,2.163,2.163,0,0,1-.906,1.816,3.8,3.8,0,0,1-2.352.684,4.257,4.257,0,0,1-1.8-.359,2.922,2.922,0,0,1-1.223-1,2.42,2.42,0,0,1-.441-1.395h1.445a1.5,1.5,0,0,0,.582,1.152,2.258,2.258,0,0,0,1.434.426,2.331,2.331,0,0,0,1.316-.332A1.02,1.02,0,0,0,193.539,12.758Zm10.8,2.4a3.693,3.693,0,0,1-2.8-1.129,4.19,4.19,0,0,1-1.078-3.02v-.266a5.073,5.073,0,0,1,.48-2.246,3.748,3.748,0,0,1,1.344-1.547,3.378,3.378,0,0,1,1.871-.559,3.166,3.166,0,0,1,2.563,1.086,4.7,4.7,0,0,1,.914,3.109v.6h-5.727a3,3,0,0,0,.73,2.02,2.3,2.3,0,0,0,1.777.77,2.517,2.517,0,0,0,1.3-.312,3.258,3.258,0,0,0,.93-.828l.883.688A3.55,3.55,0,0,1,204.336,15.156Zm-.18-7.578a1.928,1.928,0,0,0-1.469.637A3.1,3.1,0,0,0,201.953,10h4.234V9.891a2.753,2.753,0,0,0-.594-1.707A1.815,1.815,0,0,0,204.156,7.578Zm10.07,5.18a1.064,1.064,0,0,0-.441-.91,4.249,4.249,0,0,0-1.539-.559,7.277,7.277,0,0,1-1.742-.562,2.479,2.479,0,0,1-.953-.781,1.869,1.869,0,0,1-.309-1.078,2.193,2.193,0,0,1,.879-1.758,3.432,3.432,0,0,1,2.246-.719,3.532,3.532,0,0,1,2.332.742,2.357,2.357,0,0,1,.895,1.9h-1.453a1.3,1.3,0,0,0-.5-1.023,1.888,1.888,0,0,0-1.27-.43,1.976,1.976,0,0,0-1.234.344,1.082,1.082,0,0,0-.445.9.877.877,0,0,0,.414.789,5.1,5.1,0,0,0,1.5.508,7.8,7.8,0,0,1,1.754.578,2.558,2.558,0,0,1,1,.809,1.988,1.988,0,0,1,.324,1.152,2.163,2.163,0,0,1-.906,1.816,3.8,3.8,0,0,1-2.352.684,4.257,4.257,0,0,1-1.8-.359,2.922,2.922,0,0,1-1.223-1,2.42,2.42,0,0,1-.441-1.395H210.4a1.5,1.5,0,0,0,.582,1.152,2.258,2.258,0,0,0,1.434.426,2.331,2.331,0,0,0,1.316-.332A1.02,1.02,0,0,0,214.227,12.758ZM224.7,10.867a5.062,5.062,0,0,1-.883,3.109,2.829,2.829,0,0,1-2.391,1.18A3.1,3.1,0,0,1,219,14.18v4.07h-1.445V6.547h1.32l.07.938A2.977,2.977,0,0,1,221.4,6.391a2.882,2.882,0,0,1,2.41,1.148,5.117,5.117,0,0,1,.887,3.2ZM223.25,10.7a3.735,3.735,0,0,0-.609-2.258,1.963,1.963,0,0,0-1.672-.828A2.125,2.125,0,0,0,219,8.781V12.82a2.129,2.129,0,0,0,1.984,1.156,1.954,1.954,0,0,0,1.652-.824A4.077,4.077,0,0,0,223.25,10.7Zm6.789,4.453a3.693,3.693,0,0,1-2.8-1.129,4.19,4.19,0,0,1-1.078-3.02v-.266a5.073,5.073,0,0,1,.48-2.246,3.748,3.748,0,0,1,1.344-1.547,3.378,3.378,0,0,1,1.871-.559,3.166,3.166,0,0,1,2.563,1.086,4.7,4.7,0,0,1,.914,3.109v.6h-5.727a3,3,0,0,0,.73,2.02,2.3,2.3,0,0,0,1.777.77,2.517,2.517,0,0,0,1.3-.312,3.258,3.258,0,0,0,.93-.828l.883.688A3.55,3.55,0,0,1,230.039,15.156Zm-.18-7.578a1.928,1.928,0,0,0-1.469.637A3.1,3.1,0,0,0,227.656,10h4.234V9.891a2.753,2.753,0,0,0-.594-1.707A1.815,1.815,0,0,0,229.859,7.578Zm8.539,6.4a2.082,2.082,0,0,0,1.352-.469,1.649,1.649,0,0,0,.641-1.172h1.367a2.621,2.621,0,0,1-.5,1.383,3.293,3.293,0,0,1-1.23,1.047,3.55,3.55,0,0,1-1.629.391A3.482,3.482,0,0,1,235.652,14a4.59,4.59,0,0,1-1.02-3.152v-.242a5.089,5.089,0,0,1,.453-2.2,3.451,3.451,0,0,1,1.3-1.492,3.7,3.7,0,0,1,2-.531,3.39,3.39,0,0,1,2.363.852,3.043,3.043,0,0,1,1,2.211h-1.367a1.992,1.992,0,0,0-.621-1.348,1.932,1.932,0,0,0-1.379-.527,2.023,2.023,0,0,0-1.707.793,3.724,3.724,0,0,0-.605,2.293v.273a3.65,3.65,0,0,0,.6,2.25A2.033,2.033,0,0,0,238.4,13.977ZM244.953,15h-1.445V6.547h1.445ZM243.391,4.3a.863.863,0,0,1,.215-.594.807.807,0,0,1,.637-.242.819.819,0,0,1,.641.242.854.854,0,0,1,.219.594.826.826,0,0,1-.219.586.834.834,0,0,1-.641.234.821.821,0,0,1-.637-.234A.834.834,0,0,1,243.391,4.3Zm7.383,10.852a3.693,3.693,0,0,1-2.8-1.129,4.19,4.19,0,0,1-1.078-3.02v-.266a5.073,5.073,0,0,1,.48-2.246,3.748,3.748,0,0,1,1.344-1.547,3.378,3.378,0,0,1,1.871-.559,3.166,3.166,0,0,1,2.563,1.086,4.7,4.7,0,0,1,.914,3.109v.6h-5.727a3,3,0,0,0,.73,2.02,2.3,2.3,0,0,0,1.777.77,2.517,2.517,0,0,0,1.3-.312,3.258,3.258,0,0,0,.93-.828l.883.688A3.55,3.55,0,0,1,250.773,15.156Zm-.18-7.578a1.928,1.928,0,0,0-1.469.637A3.1,3.1,0,0,0,248.391,10h4.234V9.891a2.753,2.753,0,0,0-.594-1.707A1.815,1.815,0,0,0,250.594,7.578Zm10.07,5.18a1.064,1.064,0,0,0-.441-.91,4.249,4.249,0,0,0-1.539-.559,7.276,7.276,0,0,1-1.742-.562,2.478,2.478,0,0,1-.953-.781,1.869,1.869,0,0,1-.309-1.078,2.193,2.193,0,0,1,.879-1.758,3.432,3.432,0,0,1,2.246-.719,3.532,3.532,0,0,1,2.332.742,2.357,2.357,0,0,1,.895,1.9h-1.453a1.3,1.3,0,0,0-.5-1.023,1.888,1.888,0,0,0-1.27-.43,1.976,1.976,0,0,0-1.234.344,1.082,1.082,0,0,0-.445.9.877.877,0,0,0,.414.789,5.1,5.1,0,0,0,1.5.508,7.8,7.8,0,0,1,1.754.578,2.559,2.559,0,0,1,1,.809,1.988,1.988,0,0,1,.324,1.152,2.163,2.163,0,0,1-.906,1.816,3.8,3.8,0,0,1-2.352.684,4.257,4.257,0,0,1-1.8-.359,2.922,2.922,0,0,1-1.223-1,2.42,2.42,0,0,1-.441-1.395h1.445a1.5,1.5,0,0,0,.582,1.152,2.258,2.258,0,0,0,1.434.426,2.331,2.331,0,0,0,1.316-.332A1.02,1.02,0,0,0,260.664,12.758ZM267.6,10.7a4.952,4.952,0,0,1,.922-3.129,3.137,3.137,0,0,1,4.766-.168V3h1.445V15h-1.328l-.07-.906a2.943,2.943,0,0,1-2.414,1.063,2.887,2.887,0,0,1-2.395-1.2,5.008,5.008,0,0,1-.926-3.141Zm1.445.164a3.749,3.749,0,0,0,.594,2.25,1.92,1.92,0,0,0,1.641.813,2.109,2.109,0,0,0,2.008-1.234V8.813a2.125,2.125,0,0,0-1.992-1.2,1.929,1.929,0,0,0-1.656.82A4.128,4.128,0,0,0,269.047,10.867Zm7.547-.172a4.993,4.993,0,0,1,.488-2.234,3.643,3.643,0,0,1,1.359-1.531,3.7,3.7,0,0,1,1.988-.539,3.565,3.565,0,0,1,2.793,1.2,4.6,4.6,0,0,1,1.066,3.18v.1a5.036,5.036,0,0,1-.473,2.215,3.589,3.589,0,0,1-1.352,1.527,3.743,3.743,0,0,1-2.02.547,3.556,3.556,0,0,1-2.785-1.2,4.575,4.575,0,0,1-1.066-3.164Zm1.453.172a3.616,3.616,0,0,0,.652,2.258,2.211,2.211,0,0,0,3.5-.012,3.955,3.955,0,0,0,.648-2.418,3.61,3.61,0,0,0-.66-2.254,2.1,2.1,0,0,0-1.754-.863,2.075,2.075,0,0,0-1.727.852A3.925,3.925,0,0,0,278.047,10.867Zm9.414-4.32.039.938a3.122,3.122,0,0,1,2.508-1.094,2.417,2.417,0,0,1,2.414,1.359,3.2,3.2,0,0,1,1.1-.984,3.242,3.242,0,0,1,1.6-.375q2.781,0,2.828,2.945V15H296.5V9.422a1.941,1.941,0,0,0-.414-1.355,1.823,1.823,0,0,0-1.391-.449,1.916,1.916,0,0,0-1.336.48,1.949,1.949,0,0,0-.617,1.293V15h-1.453V9.461a1.613,1.613,0,0,0-1.8-1.844,1.934,1.934,0,0,0-1.945,1.211V15h-1.445V6.547ZM301.7,15H300.25V6.547H301.7ZM300.133,4.3a.863.863,0,0,1,.215-.594.807.807,0,0,1,.637-.242.819.819,0,0,1,.641.242.854.854,0,0,1,.219.594.826.826,0,0,1-.219.586.834.834,0,0,1-.641.234.821.821,0,0,1-.637-.234A.834.834,0,0,1,300.133,4.3Zm5.242,2.242.047,1.063a3.08,3.08,0,0,1,2.531-1.219q2.68,0,2.7,3.023V15h-1.445V9.406a1.946,1.946,0,0,0-.418-1.352,1.675,1.675,0,0,0-1.277-.437,2.086,2.086,0,0,0-1.234.375,2.546,2.546,0,0,0-.828.984V15h-1.445V6.547ZM318.055,15a3.036,3.036,0,0,1-.2-.891,3.225,3.225,0,0,1-2.406,1.047,2.984,2.984,0,0,1-2.051-.707,2.288,2.288,0,0,1-.8-1.793,2.39,2.39,0,0,1,1-2.051,4.733,4.733,0,0,1,2.824-.73h1.406V9.211A1.623,1.623,0,0,0,317.375,8a1.821,1.821,0,0,0-1.336-.449,2.108,2.108,0,0,0-1.3.391,1.151,1.151,0,0,0-.523.945h-1.453a2,2,0,0,1,.449-1.223,3.066,3.066,0,0,1,1.219-.934,4.1,4.1,0,0,1,1.691-.344,3.342,3.342,0,0,1,2.289.73,2.635,2.635,0,0,1,.859,2.012v3.891a4.757,4.757,0,0,0,.3,1.852V15Zm-2.4-1.1a2.54,2.54,0,0,0,1.289-.352,2.126,2.126,0,0,0,.883-.914V10.9H316.7q-2.656,0-2.656,1.555a1.316,1.316,0,0,0,.453,1.063A1.742,1.742,0,0,0,315.656,13.9Zm7.25-7.352.047,1.063a3.08,3.08,0,0,1,2.531-1.219q2.68,0,2.7,3.023V15h-1.445V9.406a1.946,1.946,0,0,0-.418-1.352,1.675,1.675,0,0,0-1.277-.437,2.086,2.086,0,0,0-1.234.375,2.546,2.546,0,0,0-.828.984V15h-1.445V6.547ZM332.328,4.5V6.547h1.578V7.664h-1.578v5.249a1.173,1.173,0,0,0,.211.763.888.888,0,0,0,.719.254,3.5,3.5,0,0,0,.688-.094V15a4.215,4.215,0,0,1-1.109.155,1.8,1.8,0,0,1-1.461-.586,2.517,2.517,0,0,1-.492-1.664V7.664h-1.539V6.547h1.539V4.5ZM339.1,15.156a3.693,3.693,0,0,1-2.8-1.129,4.19,4.19,0,0,1-1.078-3.02v-.266a5.073,5.073,0,0,1,.48-2.246,3.748,3.748,0,0,1,1.344-1.547,3.378,3.378,0,0,1,1.871-.559,3.166,3.166,0,0,1,2.563,1.086,4.7,4.7,0,0,1,.914,3.109v.6h-5.727a3,3,0,0,0,.73,2.02,2.3,2.3,0,0,0,1.777.77,2.517,2.517,0,0,0,1.3-.312,3.259,3.259,0,0,0,.93-.828l.883.688A3.55,3.55,0,0,1,339.1,15.156Zm-.18-7.578a1.928,1.928,0,0,0-1.469.637A3.1,3.1,0,0,0,336.719,10h4.234V9.891a2.753,2.753,0,0,0-.594-1.707A1.815,1.815,0,0,0,338.922,7.578Zm10.07,5.18a1.064,1.064,0,0,0-.441-.91,4.249,4.249,0,0,0-1.539-.559,7.276,7.276,0,0,1-1.742-.562,2.478,2.478,0,0,1-.953-.781,1.869,1.869,0,0,1-.309-1.078,2.193,2.193,0,0,1,.879-1.758,3.432,3.432,0,0,1,2.246-.719,3.532,3.532,0,0,1,2.332.742,2.357,2.357,0,0,1,.895,1.9h-1.453a1.3,1.3,0,0,0-.5-1.023,1.888,1.888,0,0,0-1.27-.43,1.976,1.976,0,0,0-1.234.344,1.082,1.082,0,0,0-.445.9.877.877,0,0,0,.414.789,5.1,5.1,0,0,0,1.5.508,7.8,7.8,0,0,1,1.754.578,2.559,2.559,0,0,1,1,.809,1.988,1.988,0,0,1,.324,1.152,2.163,2.163,0,0,1-.906,1.816,3.8,3.8,0,0,1-2.352.684,4.257,4.257,0,0,1-1.8-.359,2.922,2.922,0,0,1-1.223-1,2.42,2.42,0,0,1-.441-1.395h1.445a1.5,1.5,0,0,0,.582,1.152,2.258,2.258,0,0,0,1.434.426,2.331,2.331,0,0,0,1.316-.332A1.02,1.02,0,0,0,348.992,12.758Zm6.664-2.3a12.084,12.084,0,0,1-.457,3.34,9.876,9.876,0,0,1-1.4,2.949,6.127,6.127,0,0,1-1.973,1.922l-.3-.883a6.281,6.281,0,0,0,1.934-2.863,12.387,12.387,0,0,0,.746-4.309v-.25a12.862,12.862,0,0,0-.344-3.051,10.3,10.3,0,0,0-.957-2.527,5.838,5.838,0,0,0-1.379-1.742l.3-.883a6.1,6.1,0,0,1,1.965,1.906,9.9,9.9,0,0,1,1.4,2.945A12.363,12.363,0,0,1,355.656,10.461Zm2.258,3.781a.905.905,0,0,1,.223-.625.848.848,0,0,1,.668-.25.874.874,0,0,1,.676.25.887.887,0,0,1,.23.625.839.839,0,0,1-.23.6.89.89,0,0,1-.676.242.8.8,0,0,1-.891-.844Z" transform="translate(833 1537.688)" fill="#12263f"/>
    <g id="Elipse_4772" data-name="Elipse 4772" transform="translate(799.867 1540.688)" fill="#d4e157" stroke="#d4e157" stroke-width="1">
      <circle cx="6.5" cy="6.5" r="6.5" stroke="none"/>
      <circle cx="6.5" cy="6.5" r="6" fill="none"/>
    </g>
    <line id="Línea_170" data-name="Línea 170" x1="186.867" transform="translate(619.5 1547.188)" fill="none" stroke="#d4e157" stroke-width="3"/>
    <path id="Trazado_119367" data-name="Trazado 119367" d="M9.688,11.391a4.185,4.185,0,0,1-1.332,2.785,4.365,4.365,0,0,1-2.98.98,4.008,4.008,0,0,1-3.23-1.445A5.815,5.815,0,0,1,.93,9.844V8.75A6.481,6.481,0,0,1,1.5,5.961,4.231,4.231,0,0,1,3.1,4.113a4.47,4.47,0,0,1,2.406-.645A4.11,4.11,0,0,1,8.414,4.48a4.235,4.235,0,0,1,1.273,2.8H8.18a3.268,3.268,0,0,0-.848-1.975A2.565,2.565,0,0,0,5.508,4.7,2.684,2.684,0,0,0,3.254,5.759a4.882,4.882,0,0,0-.816,3.026v1.1a5.018,5.018,0,0,0,.773,2.948A2.5,2.5,0,0,0,5.375,13.93a2.887,2.887,0,0,0,1.918-.566,3.143,3.143,0,0,0,.887-1.973Zm1.438-.7a4.993,4.993,0,0,1,.488-2.234A3.643,3.643,0,0,1,12.973,6.93a3.7,3.7,0,0,1,1.988-.539,3.565,3.565,0,0,1,2.793,1.2,4.6,4.6,0,0,1,1.066,3.18v.1a5.036,5.036,0,0,1-.473,2.215A3.589,3.589,0,0,1,17,14.609a3.743,3.743,0,0,1-2.02.547,3.556,3.556,0,0,1-2.785-1.2A4.575,4.575,0,0,1,11.125,10.8Zm1.453.172a3.616,3.616,0,0,0,.652,2.258,2.211,2.211,0,0,0,3.5-.012,3.955,3.955,0,0,0,.648-2.418,3.61,3.61,0,0,0-.66-2.254,2.1,2.1,0,0,0-1.754-.863,2.075,2.075,0,0,0-1.727.852A3.925,3.925,0,0,0,12.578,10.867ZM22,6.547l.047,1.063a3.08,3.08,0,0,1,2.531-1.219q2.68,0,2.7,3.023V15H25.836V9.406a1.946,1.946,0,0,0-.418-1.352,1.675,1.675,0,0,0-1.277-.437,2.086,2.086,0,0,0-1.234.375,2.546,2.546,0,0,0-.828.984V15H20.633V6.547Zm12.383,6.211a1.064,1.064,0,0,0-.441-.91,4.249,4.249,0,0,0-1.539-.559,7.277,7.277,0,0,1-1.742-.562,2.479,2.479,0,0,1-.953-.781A1.869,1.869,0,0,1,29.4,8.867a2.193,2.193,0,0,1,.879-1.758,3.432,3.432,0,0,1,2.246-.719,3.532,3.532,0,0,1,2.332.742,2.357,2.357,0,0,1,.895,1.9H34.3a1.3,1.3,0,0,0-.5-1.023,1.888,1.888,0,0,0-1.27-.43,1.976,1.976,0,0,0-1.234.344,1.082,1.082,0,0,0-.445.9.877.877,0,0,0,.414.789,5.1,5.1,0,0,0,1.5.508,7.8,7.8,0,0,1,1.754.578,2.558,2.558,0,0,1,1,.809,1.988,1.988,0,0,1,.324,1.152,2.163,2.163,0,0,1-.906,1.816,3.8,3.8,0,0,1-2.352.684,4.257,4.257,0,0,1-1.8-.359,2.922,2.922,0,0,1-1.223-1,2.42,2.42,0,0,1-.441-1.395h1.445a1.5,1.5,0,0,0,.582,1.152,2.258,2.258,0,0,0,1.434.426,2.331,2.331,0,0,0,1.316-.332A1.02,1.02,0,0,0,34.383,12.758Zm10.469-1.891a5.062,5.062,0,0,1-.883,3.109,2.829,2.829,0,0,1-2.391,1.18,3.1,3.1,0,0,1-2.422-.977v4.07H37.711V6.547h1.32l.07.938a2.977,2.977,0,0,1,2.453-1.094,2.882,2.882,0,0,1,2.41,1.148,5.117,5.117,0,0,1,.887,3.2ZM43.406,10.7A3.735,3.735,0,0,0,42.8,8.445a1.963,1.963,0,0,0-1.672-.828,2.125,2.125,0,0,0-1.969,1.164V12.82a2.129,2.129,0,0,0,1.984,1.156,1.954,1.954,0,0,0,1.652-.824A4.077,4.077,0,0,0,43.406,10.7ZM48.258,15H46.813V6.547h1.445ZM46.7,4.3a.863.863,0,0,1,.215-.594.807.807,0,0,1,.637-.242.819.819,0,0,1,.641.242.854.854,0,0,1,.219.594.826.826,0,0,1-.219.586.834.834,0,0,1-.641.234.821.821,0,0,1-.637-.234A.834.834,0,0,1,46.7,4.3Zm7.266,9.672a2.082,2.082,0,0,0,1.352-.469,1.649,1.649,0,0,0,.641-1.172H57.32a2.621,2.621,0,0,1-.5,1.383,3.293,3.293,0,0,1-1.23,1.047,3.55,3.55,0,0,1-1.629.391A3.482,3.482,0,0,1,51.215,14a4.59,4.59,0,0,1-1.02-3.152v-.242a5.089,5.089,0,0,1,.453-2.2,3.451,3.451,0,0,1,1.3-1.492,3.7,3.7,0,0,1,2-.531,3.39,3.39,0,0,1,2.363.852,3.043,3.043,0,0,1,1,2.211H55.953a1.992,1.992,0,0,0-.621-1.348,1.932,1.932,0,0,0-1.379-.527,2.023,2.023,0,0,0-1.707.793,3.724,3.724,0,0,0-.605,2.293v.273a3.65,3.65,0,0,0,.6,2.25A2.033,2.033,0,0,0,53.961,13.977Zm10.2.188a3.07,3.07,0,0,1-2.477.992,2.628,2.628,0,0,1-2.059-.785,3.4,3.4,0,0,1-.715-2.324v-5.5h1.445v5.461q0,1.922,1.563,1.922a2.163,2.163,0,0,0,2.2-1.234V6.547H65.57V15H64.2Zm8.82.836a3.036,3.036,0,0,1-.2-.891,3.225,3.225,0,0,1-2.406,1.047,2.984,2.984,0,0,1-2.051-.707,2.288,2.288,0,0,1-.8-1.793,2.39,2.39,0,0,1,1-2.051,4.733,4.733,0,0,1,2.824-.73h1.406V9.211A1.623,1.623,0,0,0,72.3,8a1.821,1.821,0,0,0-1.336-.449,2.108,2.108,0,0,0-1.3.391,1.151,1.151,0,0,0-.523.945H67.7a2,2,0,0,1,.449-1.223,3.066,3.066,0,0,1,1.219-.934,4.1,4.1,0,0,1,1.691-.344,3.342,3.342,0,0,1,2.289.73A2.635,2.635,0,0,1,74.2,9.133v3.891a4.757,4.757,0,0,0,.3,1.852V15Zm-2.4-1.1a2.54,2.54,0,0,0,1.289-.352,2.127,2.127,0,0,0,.883-.914V10.9H71.625q-2.656,0-2.656,1.555a1.316,1.316,0,0,0,.453,1.063A1.742,1.742,0,0,0,70.586,13.9Zm10.8-1.141a1.064,1.064,0,0,0-.441-.91,4.249,4.249,0,0,0-1.539-.559,7.277,7.277,0,0,1-1.742-.562,2.479,2.479,0,0,1-.953-.781,1.869,1.869,0,0,1-.309-1.078,2.193,2.193,0,0,1,.879-1.758,3.432,3.432,0,0,1,2.246-.719,3.532,3.532,0,0,1,2.332.742,2.357,2.357,0,0,1,.895,1.9H81.3a1.3,1.3,0,0,0-.5-1.023,1.888,1.888,0,0,0-1.27-.43,1.976,1.976,0,0,0-1.234.344,1.082,1.082,0,0,0-.445.9.877.877,0,0,0,.414.789,5.1,5.1,0,0,0,1.5.508,7.8,7.8,0,0,1,1.754.578,2.558,2.558,0,0,1,1,.809,1.988,1.988,0,0,1,.324,1.152,2.163,2.163,0,0,1-.906,1.816,3.8,3.8,0,0,1-2.352.684,4.257,4.257,0,0,1-1.8-.359,2.922,2.922,0,0,1-1.223-1,2.42,2.42,0,0,1-.441-1.395h1.445a1.5,1.5,0,0,0,.582,1.152,2.258,2.258,0,0,0,1.434.426,2.331,2.331,0,0,0,1.316-.332A1.02,1.02,0,0,0,81.391,12.758Zm3.359,1.484a.905.905,0,0,1,.223-.625.848.848,0,0,1,.668-.25.874.874,0,0,1,.676.25.887.887,0,0,1,.23.625.839.839,0,0,1-.23.6.89.89,0,0,1-.676.242.8.8,0,0,1-.891-.844Z" transform="translate(833 1617.688)" fill="#12263f"/>
    <g id="Elipse_4773" data-name="Elipse 4773" transform="translate(799.867 1620.688)" fill="#d4e157" stroke="#d4e157" stroke-width="1">
      <circle cx="6.5" cy="6.5" r="6.5" stroke="none"/>
      <circle cx="6.5" cy="6.5" r="6" fill="none"/>
    </g>
    <line id="Línea_171" data-name="Línea 171" x1="302.724" transform="translate(503.524 1627.188)" fill="none" stroke="#d4e157" stroke-width="3"/>
    <path id="Trazado_119368" data-name="Trazado 119368" d="M7.594,9.977H2.82V15H1.32V3.625H8.367V4.852H2.82v3.9H7.594ZM14.891,15a3.036,3.036,0,0,1-.2-.891,3.225,3.225,0,0,1-2.406,1.047,2.984,2.984,0,0,1-2.051-.707,2.287,2.287,0,0,1-.8-1.793,2.39,2.39,0,0,1,1-2.051,4.733,4.733,0,0,1,2.824-.73h1.406V9.211A1.623,1.623,0,0,0,14.211,8a1.821,1.821,0,0,0-1.336-.449,2.107,2.107,0,0,0-1.3.391,1.151,1.151,0,0,0-.523.945H9.6a2,2,0,0,1,.449-1.223,3.066,3.066,0,0,1,1.219-.934,4.1,4.1,0,0,1,1.691-.344,3.342,3.342,0,0,1,2.289.73,2.635,2.635,0,0,1,.859,2.012v3.891a4.757,4.757,0,0,0,.3,1.852V15Zm-2.4-1.1a2.54,2.54,0,0,0,1.289-.352,2.127,2.127,0,0,0,.883-.914V10.9H13.531q-2.656,0-2.656,1.555a1.316,1.316,0,0,0,.453,1.063A1.742,1.742,0,0,0,12.492,13.9ZM13.828,3.016h1.75l-2.094,2.3-1.164,0Zm7.938,10.961a2.082,2.082,0,0,0,1.352-.469,1.649,1.649,0,0,0,.641-1.172h1.367a2.621,2.621,0,0,1-.5,1.383,3.293,3.293,0,0,1-1.23,1.047,3.55,3.55,0,0,1-1.629.391A3.482,3.482,0,0,1,19.02,14,4.59,4.59,0,0,1,18,10.852v-.242a5.089,5.089,0,0,1,.453-2.2,3.451,3.451,0,0,1,1.3-1.492,3.7,3.7,0,0,1,2-.531,3.39,3.39,0,0,1,2.363.852,3.043,3.043,0,0,1,1,2.211H23.758a1.992,1.992,0,0,0-.621-1.348,1.932,1.932,0,0,0-1.379-.527,2.023,2.023,0,0,0-1.707.793,3.724,3.724,0,0,0-.605,2.293v.273a3.65,3.65,0,0,0,.6,2.25A2.033,2.033,0,0,0,21.766,13.977ZM28.32,15H26.875V6.547H28.32ZM26.758,4.3a.863.863,0,0,1,.215-.594.807.807,0,0,1,.637-.242.819.819,0,0,1,.641.242.854.854,0,0,1,.219.594.826.826,0,0,1-.219.586.834.834,0,0,1-.641.234.821.821,0,0,1-.637-.234A.834.834,0,0,1,26.758,4.3ZM32.2,15H30.758V3H32.2Zm5.82.156a3.693,3.693,0,0,1-2.8-1.129,4.19,4.19,0,0,1-1.078-3.02v-.266a5.073,5.073,0,0,1,.48-2.246,3.748,3.748,0,0,1,1.344-1.547,3.378,3.378,0,0,1,1.871-.559,3.166,3.166,0,0,1,2.563,1.086,4.7,4.7,0,0,1,.914,3.109v.6H35.594a3,3,0,0,0,.73,2.02,2.3,2.3,0,0,0,1.777.77,2.517,2.517,0,0,0,1.3-.312,3.259,3.259,0,0,0,.93-.828l.883.688A3.55,3.55,0,0,1,38.023,15.156Zm-.18-7.578a1.928,1.928,0,0,0-1.469.637A3.1,3.1,0,0,0,35.641,10h4.234V9.891a2.753,2.753,0,0,0-.594-1.707A1.815,1.815,0,0,0,37.844,7.578Zm10.07,5.18a1.064,1.064,0,0,0-.441-.91,4.249,4.249,0,0,0-1.539-.559,7.277,7.277,0,0,1-1.742-.562,2.479,2.479,0,0,1-.953-.781,1.869,1.869,0,0,1-.309-1.078,2.193,2.193,0,0,1,.879-1.758,3.432,3.432,0,0,1,2.246-.719,3.532,3.532,0,0,1,2.332.742,2.357,2.357,0,0,1,.895,1.9H47.828a1.3,1.3,0,0,0-.5-1.023,1.888,1.888,0,0,0-1.27-.43,1.976,1.976,0,0,0-1.234.344,1.082,1.082,0,0,0-.445.9.877.877,0,0,0,.414.789,5.1,5.1,0,0,0,1.5.508,7.8,7.8,0,0,1,1.754.578,2.558,2.558,0,0,1,1,.809,1.988,1.988,0,0,1,.324,1.152,2.163,2.163,0,0,1-.906,1.816,3.8,3.8,0,0,1-2.352.684,4.257,4.257,0,0,1-1.8-.359,2.922,2.922,0,0,1-1.223-1,2.42,2.42,0,0,1-.441-1.395h1.445a1.5,1.5,0,0,0,.582,1.152,2.258,2.258,0,0,0,1.434.426,2.331,2.331,0,0,0,1.316-.332A1.02,1.02,0,0,0,47.914,12.758ZM54.852,10.7a4.952,4.952,0,0,1,.922-3.129,3.137,3.137,0,0,1,4.766-.168V3h1.445V15H60.656l-.07-.906a2.943,2.943,0,0,1-2.414,1.063,2.887,2.887,0,0,1-2.395-1.2,5.008,5.008,0,0,1-.926-3.141Zm1.445.164a3.749,3.749,0,0,0,.594,2.25,1.92,1.92,0,0,0,1.641.813A2.108,2.108,0,0,0,60.539,12.7V8.813a2.125,2.125,0,0,0-1.992-1.2,1.929,1.929,0,0,0-1.656.82A4.128,4.128,0,0,0,56.3,10.867Zm11.438,4.289a3.693,3.693,0,0,1-2.8-1.129,4.19,4.19,0,0,1-1.078-3.02v-.266A5.073,5.073,0,0,1,64.34,8.5a3.748,3.748,0,0,1,1.344-1.547,3.378,3.378,0,0,1,1.871-.559,3.166,3.166,0,0,1,2.563,1.086,4.7,4.7,0,0,1,.914,3.109v.6H65.3a3,3,0,0,0,.73,2.02,2.3,2.3,0,0,0,1.777.77,2.517,2.517,0,0,0,1.3-.312,3.259,3.259,0,0,0,.93-.828l.883.688A3.55,3.55,0,0,1,67.734,15.156Zm-.18-7.578a1.928,1.928,0,0,0-1.469.637A3.1,3.1,0,0,0,65.352,10h4.234V9.891a2.753,2.753,0,0,0-.594-1.707A1.815,1.815,0,0,0,67.555,7.578ZM78.234,15H76.789V6.547h1.445ZM76.672,4.3a.863.863,0,0,1,.215-.594.807.807,0,0,1,.637-.242.819.819,0,0,1,.641.242.854.854,0,0,1,.219.594.826.826,0,0,1-.219.586.834.834,0,0,1-.641.234.821.821,0,0,1-.637-.234A.834.834,0,0,1,76.672,4.3ZM80.2,10.7a4.952,4.952,0,0,1,.922-3.129,3.137,3.137,0,0,1,4.766-.168V3h1.445V15H86l-.07-.906a2.943,2.943,0,0,1-2.414,1.063,2.887,2.887,0,0,1-2.395-1.2,5.008,5.008,0,0,1-.926-3.141Zm1.445.164a3.749,3.749,0,0,0,.594,2.25,1.92,1.92,0,0,0,1.641.813A2.108,2.108,0,0,0,85.883,12.7V8.813a2.125,2.125,0,0,0-1.992-1.2,1.929,1.929,0,0,0-1.656.82A4.128,4.128,0,0,0,81.641,10.867Zm11.438,4.289a3.693,3.693,0,0,1-2.8-1.129,4.19,4.19,0,0,1-1.078-3.02v-.266a5.073,5.073,0,0,1,.48-2.246,3.748,3.748,0,0,1,1.344-1.547A3.378,3.378,0,0,1,92.9,6.391a3.166,3.166,0,0,1,2.563,1.086,4.7,4.7,0,0,1,.914,3.109v.6H90.648a3,3,0,0,0,.73,2.02,2.3,2.3,0,0,0,1.777.77,2.517,2.517,0,0,0,1.3-.312,3.259,3.259,0,0,0,.93-.828l.883.688A3.55,3.55,0,0,1,93.078,15.156ZM92.9,7.578a1.928,1.928,0,0,0-1.469.637A3.1,3.1,0,0,0,90.7,10H94.93V9.891a2.753,2.753,0,0,0-.594-1.707A1.815,1.815,0,0,0,92.9,7.578Zm6.516-1.031.047,1.063a3.08,3.08,0,0,1,2.531-1.219q2.68,0,2.7,3.023V15H103.25V9.406a1.946,1.946,0,0,0-.418-1.352,1.675,1.675,0,0,0-1.277-.437,2.086,2.086,0,0,0-1.234.375,2.546,2.546,0,0,0-.828.984V15H98.047V6.547ZM108.836,4.5V6.547h1.578V7.664h-1.578v5.249a1.173,1.173,0,0,0,.211.763.888.888,0,0,0,.719.254,3.5,3.5,0,0,0,.688-.094V15a4.215,4.215,0,0,1-1.109.155,1.8,1.8,0,0,1-1.461-.586,2.517,2.517,0,0,1-.492-1.664V7.664h-1.539V6.547h1.539V4.5ZM113.672,15h-1.445V6.547h1.445ZM112.109,4.3a.863.863,0,0,1,.215-.594.807.807,0,0,1,.637-.242.819.819,0,0,1,.641.242.854.854,0,0,1,.219.594.826.826,0,0,1-.219.586.834.834,0,0,1-.641.234.821.821,0,0,1-.637-.234A.834.834,0,0,1,112.109,4.3ZM116.469,15V7.664h-1.336V6.547h1.336V5.828a2.937,2.937,0,0,1,.809-2.2,3.136,3.136,0,0,1,2.285-.789,6.881,6.881,0,0,1,2.211.477l-.242,1.219a5.008,5.008,0,0,0-1.859-.391,1.819,1.819,0,0,0-1.34.418,1.723,1.723,0,0,0-.41,1.254v.734h1.727V7.664h-1.727V15Zm6.023,0h-1.453V6.547h1.453Zm5.742-1.023a2.082,2.082,0,0,0,1.352-.469,1.649,1.649,0,0,0,.641-1.172h1.367a2.621,2.621,0,0,1-.5,1.383,3.293,3.293,0,0,1-1.23,1.047,3.55,3.55,0,0,1-1.629.391A3.482,3.482,0,0,1,125.488,14a4.59,4.59,0,0,1-1.02-3.152v-.242a5.089,5.089,0,0,1,.453-2.2,3.451,3.451,0,0,1,1.3-1.492,3.7,3.7,0,0,1,2-.531,3.39,3.39,0,0,1,2.363.852,3.043,3.043,0,0,1,1,2.211h-1.367a1.992,1.992,0,0,0-.621-1.348,1.932,1.932,0,0,0-1.379-.527,2.023,2.023,0,0,0-1.707.793,3.724,3.724,0,0,0-.605,2.293v.273a3.65,3.65,0,0,0,.6,2.25A2.033,2.033,0,0,0,128.234,13.977ZM138.438,15a3.036,3.036,0,0,1-.2-.891,3.225,3.225,0,0,1-2.406,1.047,2.984,2.984,0,0,1-2.051-.707,2.287,2.287,0,0,1-.8-1.793,2.39,2.39,0,0,1,1-2.051,4.733,4.733,0,0,1,2.824-.73h1.406V9.211A1.623,1.623,0,0,0,137.758,8a1.821,1.821,0,0,0-1.336-.449,2.107,2.107,0,0,0-1.3.391,1.151,1.151,0,0,0-.523.945h-1.453a2,2,0,0,1,.449-1.223,3.066,3.066,0,0,1,1.219-.934,4.1,4.1,0,0,1,1.691-.344,3.342,3.342,0,0,1,2.289.73,2.635,2.635,0,0,1,.859,2.012v3.891a4.757,4.757,0,0,0,.3,1.852V15Zm-2.4-1.1a2.54,2.54,0,0,0,1.289-.352,2.127,2.127,0,0,0,.883-.914V10.9h-1.133q-2.656,0-2.656,1.555a1.316,1.316,0,0,0,.453,1.063A1.742,1.742,0,0,0,136.039,13.9Zm9.969-6.055a4.331,4.331,0,0,0-.711-.055A1.9,1.9,0,0,0,143.367,9v6h-1.445V6.547h1.406l.023.977a2.251,2.251,0,0,1,2.016-1.133,1.477,1.477,0,0,1,.641.109Zm.4,6.4a.905.905,0,0,1,.223-.625.848.848,0,0,1,.668-.25.874.874,0,0,1,.676.25.887.887,0,0,1,.23.625.839.839,0,0,1-.23.6.89.89,0,0,1-.676.242.8.8,0,0,1-.891-.844Z" transform="translate(833 1698.688)" fill="#12263f"/>
    <g id="Elipse_4774" data-name="Elipse 4774" transform="translate(799.867 1701.688)" fill="#d4e157" stroke="#d4e157" stroke-width="1">
      <circle cx="6.5" cy="6.5" r="6.5" stroke="none"/>
      <circle cx="6.5" cy="6.5" r="6" fill="none"/>
    </g>
    <line id="Línea_172" data-name="Línea 172" x1="333.05" transform="translate(466.524 1708.188)" fill="none" stroke="#d4e157" stroke-width="3"/>
    <g id="Grupo_79564" data-name="Grupo 79564" transform="translate(532.418 1600.179)">
      <path id="Trazado_114864" data-name="Trazado 114864" d="M335.723,385.043s2.956,12.318,3.341,13.858,22.208,22.849,22.208,22.849,16.43-3.594,22.334,3.979" transform="translate(-335.723 -385.043)" fill="none" stroke="#64657e" stroke-linecap="round" stroke-linejoin="round" stroke-width="1"/>
      <path id="Trazado_114865" data-name="Trazado 114865" d="M342.7,420.035c2.569-4.75,15.019-10.654,15.019-10.654a12.662,12.662,0,0,1,11.424,7.573" transform="translate(-332.175 -372.674)" fill="none" stroke="#64657e" stroke-linecap="round" stroke-linejoin="round" stroke-width="1"/>
    </g>
    <g id="Grupo_79579" data-name="Grupo 79579" transform="translate(443.125 1427.001)">
      <path id="Trazado_114866" data-name="Trazado 114866" d="M470.959,340.962v.015c0,.392-.015.769-.015,1.131-.015.452-.03,1-.075,1.584-.9,12.111-8.763,51.824-35.927,81.416-13.846,15.1-28.416,20.166-40.452,21.463-12.73,1.357-22.609-1.508-25.776-1.252-1.87.151-5.46,2.579-8.929,5.973-.5.5-1,1.011-1.478,1.538-5.43,5.852-10.588,14.947-13.075,18.6-.167.241-.318.453-.468.649-.573.784-.891,1.222-.891,1.222s-.407,1.176-1.146,3.273c-.09.256-.181.528-.287.814-.769,2.2-1.84,5.219-3.092,8.823-.2.528-.377,1.071-.573,1.629-.994,2.836-2.1,5.958-3.273,9.321q-.475,1.335-.95,2.715c-.649,1.855-1.327,3.771-2.006,5.716-.211.6-.421,1.207-.633,1.81-2.79,7.918-5.777,16.44-8.673,24.675l-.813,2.308q-.975,2.738-1.9,5.43-.566,1.606-1.131,3.167c-2.928,8.341-5.582,15.882-7.573,21.523-.045.136-.091.272-.136.392-1.976,5.581-3.273,9.216-3.5,9.819a1.181,1.181,0,0,1-.2.3c-.047.045-.107.091-.152.136-.075.06-.166.121-.271.2a3,3,0,0,1-.5.241,7.061,7.061,0,0,1-.754.287c-.377.121-.814.226-1.3.332-.315.075-.649.136-1.011.2-.345.06-.722.121-1.116.166-.089.015-.2.03-.3.045l-.287.045a3,3,0,0,0-.422.045h-.014c-1.63.181-3.471.3-5.386.377-1.161.045-2.336.075-3.529.075h-.015a3.655,3.655,0,0,0-.406,0c-.771,0-1.54-.015-2.294-.045-.722-.015-1.448-.045-2.14-.075-1.54-.075-3-.166-4.329-.3h-.017c-.121-.015-.211-.03-.332-.045a24.568,24.568,0,0,1-4.84-.89,1.546,1.546,0,0,1-.318-.106c-.091-.03-.181-.075-.272-.106-.121-.06-.226-.121-.332-.166a2.248,2.248,0,0,1-.271-.166,1.361,1.361,0,0,1-.151-.136c-.045-.06-.09-.106-.121-.151a4.353,4.353,0,0,1-.437-3.529c.03-.106.045-.226.075-.362s.06-.287.106-.453c.122-.483.271-1.041.468-1.659.09-.3.2-.633.318-.98.511-1.584,1.235-3.575,2.2-6.124l.136-.362c.362-.95.739-1.976,1.176-3.092.422-1.1.875-2.293,1.373-3.575s1.026-2.639,1.584-4.118c1.312-3.424,2.821-7.375,4.556-11.945.164-.422.33-.86.5-1.3.332-.875.679-1.78,1.041-2.7.241-.618.483-1.237.725-1.87.21-.513.406-1.041.617-1.569,2.309-5.777,4.977-12.262,7.813-18.989.513-1.222,1.041-2.458,1.57-3.7,1.643-3.891,3.347-7.843,5.036-11.765.424-1,.845-1.976,1.282-2.956.045-.121.106-.241.151-.362.453-1.026.89-2.051,1.344-3.077.5-1.131.979-2.262,1.477-3.394.287-.634.558-1.282.83-1.916.287-.633.558-1.267.83-1.885.618-1.388,1.222-2.775,1.825-4.133.739-1.7,1.478-3.363,2.2-4.992.783-1.765,1.537-3.469,2.262-5.128.451-1,.888-1.991,1.327-2.956.272-.634.558-1.252.813-1.855.528-1.146,1.011-2.247,1.493-3.318s.935-2.1,1.374-3.077c.181-.407.362-.814.541-1.207.528-1.192,1.026-2.293,1.493-3.318.452-1.026.876-1.946,1.253-2.79.24-.528.468-1.011.664-1.463l.044-.091q.475-1.063.814-1.81v-.015c.151-.317.273-.6.377-.83.045-.106.106-.211.136-.3-.015.015-.03.015-.03.03-.406.724-1.25,2.217-2.368,4.072l-.045.075c-3.514,5.746-9.713,14.736-13.771,13.861-5.294-1.146-4.178-7.044-3.906-8.25l.06-.211a2.781,2.781,0,0,1-1.463.437c-1.116.075-2.881-.287-5.292-2.112l-.183-.136c-.045-.03-.09-.075-.136-.106-1.146-1.041-.9-2.926.06-5.113.045-.121.106-.241.166-.377a36.1,36.1,0,0,1,3.725-5.988c.075-.106.151-.211.228-.3,1.069-1.433,2.172-2.79,3.136-3.906.121-.151.241-.287.362-.422l.015-.015c1.131-1.327,2.021-2.293,2.338-2.624.077-.09.121-.136.121-.136a1.027,1.027,0,0,1-.075-.181.945.945,0,0,1-.075-.211,1.118,1.118,0,0,1-.151-.362v-.015a7.323,7.323,0,0,1-.287-1,3.507,3.507,0,0,1-.075-.422,8.306,8.306,0,0,1-.151-1.388,2.746,2.746,0,0,1-.015-.5,10.881,10.881,0,0,1,.091-1.946,15.967,15.967,0,0,1,.347-2.1,6.167,6.167,0,0,1,.151-.724c.121-.483.241-.98.394-1.493.119-.407.255-.814.391-1.237.091-.317.211-.634.332-.965.468-1.312,1.026-2.715,1.7-4.178,0-.015.017-.03.032-.045.21-.452.421-.95.649-1.418.014,0,.014-.015.014-.03.015-.015.015-.015.015-.03.317-.633.649-1.3,1-1.961v-.015c.347-.679.724-1.357,1.116-2.066.769-1.418,1.63-2.9,2.564-4.419.649-1.071,1.342-2.142,2.066-3.213.3-.468.618-.92.935-1.373.633-.9,1.282-1.81,1.931-2.7.121-.151.226-.287.332-.437.754-1.011,1.54-2.006,2.308-2.986.3-.377.588-.739.89-1.1,2.338-2.9,4.676-5.535,6.682-7.722.483-.528.965-1.041,1.4-1.508.453-.483.875-.935,1.267-1.342.091-.106.181-.2.272-.287.362-.392.709-.754,1.026-1.056.769-.8,1.373-1.388,1.75-1.765l.2-.2.241-.241s.09-.287.287-.845c-.015-.015,0-.015,0-.015a210,210,0,0,1,17.028-36.5c1.719-2.9,3.559-5.867,5.535-8.854,15.671-23.619,23.107-22.594,23.107-22.594l14.555-22.639,3.394-5.309.032-.03-.047.015c-.633.166-8.235,2.2-9.593-.015-1.4-2.323,4.374-4.63,4.374-4.63-3.6-.769-7.194-4.359-6.424-6.923.391-1.327,4.086-1.765,9-1.931,4.585-.166,10.241-.06,15.264-.256,10.392-.392,20.015-1.418,20.015-1.418,15.158.256,24.645,10.528,28.764,16.44a10.12,10.12,0,0,1,.994,1.976,5.777,5.777,0,0,1,.271.769c.136.377.243.769.362,1.192,0,.03.015.045.015.075.062.181.106.362.152.558,0,.03.014.06.014.09.045.181.092.377.136.588.211.92.392,1.915.543,2.941,0,.015.015.03,0,.045l.015.015c.106.664.2,1.357.271,2.051.03.256.062.513.091.769.03.272.062.513.09.784v.06c.03.256.062.513.077.754a3.809,3.809,0,0,1,.029.392c.03.2.045.392.062.588.044.543.09,1.1.119,1.644V302c.015.09.015.181.03.271v.121a2.937,2.937,0,0,1,.032.377c.014.151.014.317.029.483l.045.95c.06,1,.106,1.976.122,2.911.014.287.029.573.029.86,0,.136.015.271.015.407,0,.226.015.453.015.664v.2c.015.151.015.3.015.453v.377c.017.226.017.437.017.649.029,2.006.014,3.529,0,4.238v.452a1.451,1.451,0,0,0,.014.166c0,.045.015.121.015.2v.075a.114.114,0,0,0,.015.06v.136c.015.136.03.3.047.483s.029.407.059.633a1.643,1.643,0,0,0,.015.271c0,.03.017.06.017.091.015.256.044.528.059.814a.924.924,0,0,1,.015.211c.015.06.015.151.032.211.059.769.119,1.659.195,2.624l.045.588v.136a.565.565,0,0,0,.015.151c.017.3.045.618.06.935.062.664.106,1.357.136,2.066.075,1.071.151,2.2.213,3.348.029.618.059,1.252.091,1.87.029.6.059,1.191.09,1.795.044,1.191.091,2.4.119,3.575,0,.317.015.633.015.95C470.959,338.262,470.975,339.665,470.959,340.962Z" transform="translate(-276.52 -270.224)" fill="#65768f"/>
      <path id="Trazado_114867" data-name="Trazado 114867" d="M411.318,329.145l-.121.633-.03.2c-8.431,9.351-21.749,20.105-36.274,30.588a.27.27,0,0,1-.106.075c-2.941,2.142-5.943,4.223-8.959,6.32-.151.121-.317.226-.467.332-12.654,8.748-25.6,17.028-36.591,23.831-.166.106-.332.211-.5.3-3.891,2.413-7.526,4.615-10.8,6.591-.573.347-1.146.679-1.689,1.011-9.578,5.746-15.777,9.261-15.777,9.261a.926.926,0,0,1-.075-.181.871.871,0,0,1-.075-.211,1.086,1.086,0,0,1-.151-.362v-.015a6.909,6.909,0,0,1-.287-1,3.513,3.513,0,0,1-.075-.422,8.153,8.153,0,0,1-.151-1.388,2.748,2.748,0,0,1-.015-.5,16.672,16.672,0,0,1,.437-4.042,6.171,6.171,0,0,1,.151-.724,43.1,43.1,0,0,1,2.82-7.873c0-.015.015-.03.03-.045.211-.453.422-.95.649-1.418.015,0,.015-.015.015-.03,1.267-2.594,2.82-5.43,4.691-8.492,1.493-2.459,3.182-4.917,4.932-7.285.121-.151.226-.287.332-.437a165.979,165.979,0,0,1,12.549-14.66c.09-.106.181-.2.271-.287,1.463-1.523,2.534-2.594,2.971-3.017l.241-.241,22.76-20.9.9-.83v.015c-.06.121-.3.513-.573,1.116-1.569,3.258-4.706,12.232,8.884,10.965,12.519-1.161,20.075-10.241,23.016-14.615a.015.015,0,0,0,.015-.015c.709-1.041,1.146-1.81,1.327-2.142a19.514,19.514,0,0,0-.664,1.9.055.055,0,0,1-.015.045c-1,3.379-1.734,9.5,6.742,7.511,9.261-2.157,14.811-11.372,16.651-14.932.392-.754.6-1.252.664-1.388a8.5,8.5,0,0,0-.241,1.644v.015C408.618,325.8,408.9,328.346,411.318,329.145Z" transform="translate(-265.007 -243.711)" fill="url(#linear-gradient)"/>
      <path id="Trazado_114868" data-name="Trazado 114868" d="M447.962,320.367v.015c0,.392-.015.769-.015,1.131-.015.452-.03,1-.075,1.584-.9,12.111-8.763,51.824-35.927,81.416-13.846,15.1-28.416,20.166-40.452,21.463-12.73,1.357-22.609-1.508-25.776-1.252-1.87.151-5.46,2.579-8.929,5.973-.5.5-1,1.011-1.478,1.538-5.43,5.852-10.588,14.947-13.075,18.6-.167.241-.318.453-.468.649l19.757-49.652v-.015l.09-.2.151-.377.151-.392s1-.5,2.866-1.554a.855.855,0,0,1,.2-.121c2.339-1.327,5.973-3.469,10.694-6.516A386.623,386.623,0,0,0,388.884,368.5q5.9-4.728,12.366-10.286c.151-.121.3-.256.454-.392.511-.453,1.041-.89,1.567-1.342.015-.03.045-.045.075-.075.573-.5,1.146-1,1.734-1.508,16.3-14.283,15.324-32.654,13.968-40.422a29.355,29.355,0,0,0-.86-3.725c.059.015.225.075.483.151.225.091.451.166.692.241,3.786,1.161,15.9,4.57,28.552,4.118,0,.317.015.633.015.95C447.978,317.667,447.978,319.07,447.962,320.367Z" transform="translate(-253.523 -249.629)" fill="#add9cc" opacity="0.35"/>
      <g id="Grupo_79570" data-name="Grupo 79570" transform="translate(116.403 0.006)">
        <g id="Grupo_79566" data-name="Grupo 79566">
          <path id="Trazado_114869" data-name="Trazado 114869" d="M431.734,340.981a62.662,62.662,0,0,0-15.294-4.133c-8.341-.89-22.835-2.428-32.473-7.315-9.623-4.872-5.007-10.392-5.007-10.392s-9.623-3.077-12.579-8.989c-2.941-5.9,2.443-10.784,2.443-10.784a14.767,14.767,0,0,1-6.033-5.777,4.485,4.485,0,0,1-.724-2.866c.211-3.047,3.424-5.339,3.424-5.339l-.045.015c-.633.166-8.235,2.2-9.593-.015-1.4-2.323,4.374-4.63,4.374-4.63-3.6-.769-7.194-4.359-6.425-6.923.392-1.327,4.087-1.765,9-1.931,4.585-.166,10.241-.06,15.264-.256,10.392-.392,20.015-1.418,20.015-1.418,15.158.256,24.645,10.528,28.763,16.44,4.1,5.9,3.59,28.748,3.59,28.748s1.011,11.056,1.252,20.437c0,.317.015.633.015.95C431.734,338.266,431.749,339.684,431.734,340.981Z" transform="translate(-353.696 -270.228)" fill="#46475c"/>
          <g id="Grupo_79565" data-name="Grupo 79565" transform="translate(9.109)">
            <path id="Trazado_114870" data-name="Trazado 114870" d="M428.634,336.8c-13.243.845-26.365-3.8-38.612-9.065-2.655-1.146-5.415-2.413-7.149-4.721s-2.006-5.988.211-7.858a10.314,10.314,0,0,1-4.9-19.7,8.9,8.9,0,0,1-4.781-4.389,4.083,4.083,0,0,1-.468-2.609c.407-1.885,2.624-2.67,4.495-3.122-4.238-1.4-8.567-2.851-12.081-5.611-1.614-1.282-4.872-4.826-5.611-7.828,4.585-.166,10.241-.06,15.264-.256,10.392-.392,20.015-1.418,20.015-1.418,15.158.256,24.645,10.528,28.763,16.44,4.1,5.9,3.59,28.748,3.59,28.748s1.011,11.056,1.252,20.437C428.619,336.17,428.634,336.486,428.634,336.8Z" transform="translate(-359.736 -270.228)" fill="#f4ebd6"/>
            <path id="Trazado_114871" data-name="Trazado 114871" d="M428.634,336.8c-13.243.845-26.365-3.8-38.612-9.065-2.655-1.146-5.415-2.413-7.149-4.721s-2.006-5.988.211-7.858a10.314,10.314,0,0,1-4.9-19.7,8.9,8.9,0,0,1-4.781-4.389,4.083,4.083,0,0,1-.468-2.609c.407-1.885,2.624-2.67,4.495-3.122-1.252-.422-2.519-.845-3.771-1.3a29.637,29.637,0,0,1-8.311-4.314c-1.614-1.282-4.872-4.826-5.611-7.828,4.585-.166,10.241-.06,15.264-.256,10.392-.392,20.015-1.418,20.015-1.418,15.158.256,24.645,10.528,28.763,16.44a10.035,10.035,0,0,1,1,1.976,17.653,17.653,0,0,1,.633,1.961c2.323,8.642,1.961,24.811,1.961,24.811s.03.392.09,1.116c.272,3.032.965,11.719,1.161,19.321C428.619,336.17,428.634,336.486,428.634,336.8Z" transform="translate(-359.736 -270.228)" fill="#add9cc" opacity="0.35"/>
          </g>
        </g>
        <g id="Grupo_79569" data-name="Grupo 79569" transform="translate(18.577 17.951)">
          <path id="Trazado_114872" data-name="Trazado 114872" d="M412.839,310.483c-.075-.03-.136-.045-.211-.075-1.252-.437-2.5-.89-3.756-1.327a12.8,12.8,0,0,0-3.213-.845,4.381,4.381,0,0,0-3.152.83c-.468.392-.875.92-1.478,1.026-.86.121-1.538-.769-1.75-1.614a10.113,10.113,0,0,0-.573-2.549,2.976,2.976,0,0,0-2.127-1.433,6.128,6.128,0,0,0-2.609.211,6.5,6.5,0,0,1-2.127.362,1.723,1.723,0,0,1-1.644-1.176c-.226-.95.664-1.735,1.342-2.443a3.076,3.076,0,0,0,1.041-2.745c-.377-1.4-2.112-1.84-3.3-2.7a1.745,1.745,0,0,1-.769-1.056c-.151-.98,1.011-1.584,1.931-1.991a12.818,12.818,0,0,0,7.3-9.185c.121-.649.317-1.463.95-1.614a1.262,1.262,0,0,1,.709.06c1.222.407,1.961,1.6,2.82,2.549.86.965,2.247,1.78,3.379,1.176.98-.528,1.327-1.9,2.383-2.247a2.645,2.645,0,0,1,2.1.453c.226.136.468.287.709.407,2.323,8.642,1.961,24.811,1.961,24.811S412.779,309.759,412.839,310.483Z" transform="translate(-354.585 -282.129)" fill="#46475c"/>
          <path id="Trazado_114873" data-name="Trazado 114873" d="M374.778,287.705c8.97,2.968,18.442,4,27.775,5.458.475.074,1.086.327,1.006.8-.069.412-.6.519-1.02.523-6.368.065-12.582-1.8-18.9-2.576a55.688,55.688,0,0,0-10.694-.279c-1.9.134-4.075.274-5.434-1.062a4.518,4.518,0,0,1-.932-1.434c-.614-1.4-1.389-7.47,1.668-6.279,1.232.481,1.575,1.964,2.5,2.805A10.923,10.923,0,0,0,374.778,287.705Z" transform="translate(-366.013 -281.839)" fill="#46475c"/>
          <g id="Grupo_79567" data-name="Grupo 79567" transform="translate(21.452 2.336)">
            <path id="Trazado_114874" data-name="Trazado 114874" d="M395.415,291.268a7.59,7.59,0,1,1-7.59-7.59A7.59,7.59,0,0,1,395.415,291.268Z" transform="translate(-380.236 -283.678)" fill="#fff"/>
            <path id="Trazado_114875" data-name="Trazado 114875" d="M393.644,290.7a6.193,6.193,0,1,1-6.193-6.193A6.192,6.192,0,0,1,393.644,290.7Z" transform="translate(-379.717 -283.256)" fill="#46475c"/>
          </g>
          <g id="Grupo_79568" data-name="Grupo 79568" transform="translate(39.327 4.646)">
            <path id="Trazado_114876" data-name="Trazado 114876" d="M392.087,297.051A17.551,17.551,0,0,0,399.6,292a20.505,20.505,0,0,0,4.14-6.787s32.155,10.2,33.5,17.232c0,0-.1,1.926-3.178,2.888-3.926,1.228-35.14,3.273-35.524,1.252S396.95,299.169,392.087,297.051Z" transform="translate(-392.087 -285.21)" fill="#add9cc"/>
            <path id="Trazado_114877" data-name="Trazado 114877" d="M392.087,297.051A17.551,17.551,0,0,0,399.6,292a20.505,20.505,0,0,0,4.14-6.787s32.155,10.2,33.5,17.232c0,0-.1,1.926-3.178,2.888-3.926,1.228-35.14,3.273-35.524,1.252S396.95,299.169,392.087,297.051Z" transform="translate(-392.087 -285.21)" opacity="0.42" fill="url(#linear-gradient-2)"/>
            <line id="Línea_167" data-name="Línea 167" x2="44.895" y2="5.873" transform="translate(0.001 11.841)" fill="none" stroke="#46475c" stroke-linecap="round" stroke-linejoin="round" stroke-width="0.25"/>
          </g>
        </g>
        <circle id="Elipse_4768" data-name="Elipse 4768" cx="17.072" cy="17.072" r="17.072" transform="translate(6.648 53.565) rotate(-59.551)" opacity="0.53" fill="url(#linear-gradient-3)"/>
      </g>
      <path id="Trazado_114878" data-name="Trazado 114878" d="M366.466,370.144l-.06.271-6.621,30.09c-.5.5-1,1.011-1.478,1.538-5.43,5.852-10.588,14.947-13.075,18.6-.167.241-.318.453-.468.649-.573.784-.891,1.222-.891,1.222s-.407,1.176-1.146,3.273c-.09.256-.181.528-.287.814-.769,2.2-1.84,5.219-3.092,8.823-.2.528-.377,1.071-.573,1.629-.994,2.836-2.1,5.958-3.273,9.321q-.475,1.335-.95,2.715c-.649,1.855-1.327,3.771-2.006,5.716-.211.6-.421,1.207-.633,1.81-2.79,7.918-5.777,16.44-8.673,24.675l-.813,2.308q-.975,2.738-1.9,5.43-.566,1.606-1.131,3.167c-2.928,8.341-5.582,15.882-7.573,21.523-.045.136-.091.272-.136.392-1.976,5.581-3.273,9.216-3.5,9.819a1.18,1.18,0,0,1-.2.3c-.047.045-.107.091-.152.136-.075.06-.166.121-.271.2a3.005,3.005,0,0,1-.5.241,7.061,7.061,0,0,1-.754.287c-.377.121-.814.226-1.3.332-.315.076-.649.136-1.011.2-.345.06-.722.121-1.116.166-.089.015-.2.03-.3.045a1.857,1.857,0,0,0-.287.03,1.014,1.014,0,0,1-.211.03,1,1,0,0,1-.211.03h-.014c-1.63.181-3.471.3-5.386.377-1.161.045-2.336.06-3.529.06a3.67,3.67,0,0,1-.407,0c-.768,0-1.538-.015-2.308-.03-.722-.015-1.448-.045-2.14-.075-1.54-.075-3-.166-4.329-.3h-.017c-.121-.015-.211-.03-.332-.045a24.563,24.563,0,0,1-4.84-.89,1.542,1.542,0,0,1-.318-.106c-.091-.03-.181-.075-.272-.106-.121-.06-.226-.121-.332-.166a2.247,2.247,0,0,1-.271-.166,1.367,1.367,0,0,1-.151-.136c-.045-.06-.09-.106-.121-.151a4.353,4.353,0,0,1-.437-3.529c.03-.106.045-.226.075-.362s.06-.287.106-.453c.122-.483.271-1.041.468-1.659.09-.3.2-.633.318-.98.511-1.584,1.235-3.575,2.2-6.124l.136-.362c.362-.95.739-1.976,1.176-3.092.422-1.1.875-2.293,1.373-3.575s1.026-2.639,1.584-4.118c1.312-3.424,2.821-7.375,4.556-11.946.164-.422.33-.86.5-1.3.332-.875.679-1.78,1.041-2.7.241-.618.483-1.237.725-1.87.21-.513.406-1.041.617-1.569,2.309-5.777,4.977-12.262,7.813-18.989.513-1.222,1.041-2.459,1.57-3.7,1.643-3.891,3.347-7.843,5.036-11.765.424-1,.845-1.976,1.282-2.956.045-.121.106-.241.151-.362.453-1.026.89-2.051,1.344-3.077.5-1.131.979-2.262,1.477-3.394.287-.634.558-1.282.83-1.916.287-.633.558-1.267.83-1.885.618-1.388,1.222-2.775,1.825-4.133.739-1.7,1.478-3.363,2.2-4.992.783-1.765,1.537-3.469,2.262-5.128.451-1,.888-1.991,1.327-2.956.272-.634.558-1.252.813-1.855.528-1.146,1.011-2.247,1.493-3.318s.935-2.1,1.374-3.077c.181-.407.362-.814.541-1.207.528-1.192,1.026-2.293,1.493-3.318.452-1.026.876-1.946,1.253-2.79.24-.528.468-1.011.664-1.463l.044-.091q.475-1.063.814-1.81v-.015c.151-.317.273-.6.377-.83.045-.106.106-.211.136-.3-.015.015-.03.015-.03.03-.406.724-1.25,2.217-2.368,4.072l-.045.075c-3.514,5.746-9.713,14.736-13.771,13.861-5.294-1.146-4.178-7.044-3.906-8.25l.06-.211a2.781,2.781,0,0,1-1.463.437l.181-.437s17.767-8.823,37.33-20.543a.114.114,0,0,1,.06-.03c4.419-2.64,8.914-5.43,13.333-8.3.407-.256.8-.513,1.192-.784,1.87-1.222,3.725-2.474,5.535-3.725C365.229,371,365.847,370.566,366.466,370.144Z" transform="translate(-276.52 -219.438)" fill="url(#linear-gradient-4)"/>
      <path id="Trazado_114879" data-name="Trazado 114879" d="M317.44,387l-1.976,3.771-.045.075c-3.514,5.746-9.713,14.736-13.771,13.861-5.294-1.146-4.178-7.044-3.906-8.25l.06-.211Z" transform="translate(-265.878 -210.871)" fill="url(#linear-gradient-5)"/>
      <path id="Trazado_114880" data-name="Trazado 114880" d="M331.269,357a2.9,2.9,0,0,0,2.457,3.584l-.053.143" transform="translate(-248.736 -226.117)" fill="none" stroke="#f4ebd6" stroke-linecap="round" stroke-linejoin="round" stroke-width="0.25"/>
      <line id="Línea_168" data-name="Línea 168" x2="26.828" y2="1.155" transform="translate(122.031 107.066)" fill="none" stroke="#f4ebd6" stroke-linecap="round" stroke-linejoin="round" stroke-width="0.5"/>
      <g id="Grupo_79575" data-name="Grupo 79575" transform="translate(24.797 70.756)">
        <g id="Grupo_79571" data-name="Grupo 79571" transform="translate(0 40.486)">
          <path id="Trazado_114881" data-name="Trazado 114881" d="M298,400.1a.188.188,0,0,1-.081-.359c.6-.285,60.194-28.909,84.407-54.77a.191.191,0,0,1,.265-.009.189.189,0,0,1,.008.267c-24.262,25.912-83.919,54.566-84.519,54.853A.188.188,0,0,1,298,400.1Z" transform="translate(-290.494 -343.502)" fill="#add9cc" opacity="0.35"/>
          <path id="Trazado_114882" data-name="Trazado 114882" d="M295.789,404.815a.189.189,0,0,1-.063-.366c.314-.113,31.757-11.54,60.664-33.22,28.832-21.623,32.526-27.111,32.559-27.164a.188.188,0,0,1,.318.2c-.137.217-3.689,5.543-32.65,27.263s-60.45,33.159-60.765,33.272A.2.2,0,0,1,295.789,404.815Z" transform="translate(-291.619 -343.978)" fill="#add9cc" opacity="0.35"/>
          <path id="Trazado_114883" data-name="Trazado 114883" d="M293.151,410.889a.189.189,0,0,1-.033-.374c.13-.024,13.406-2.609,52.047-27.187,38.665-24.594,50.417-38.714,50.532-38.855a.189.189,0,0,1,.293.238c-.116.14-11.893,14.3-50.621,38.935s-52.055,27.217-52.185,27.239Z" transform="translate(-292.96 -343.762)" fill="#add9cc" opacity="0.35"/>
          <path id="Trazado_114884" data-name="Trazado 114884" d="M293.15,415.45a.188.188,0,0,1-.078-.359,483.493,483.493,0,0,0,68.518-39.512c33.493-23.508,37.266-29.41,37.3-29.466a.188.188,0,0,1,.324.192c-.136.232-3.745,5.956-37.405,29.583a483.966,483.966,0,0,1-68.58,39.545A.179.179,0,0,1,293.15,415.45Z" transform="translate(-292.961 -342.94)" fill="#add9cc" opacity="0.35"/>
          <path id="Trazado_114885" data-name="Trazado 114885" d="M311.12,397.809a.189.189,0,0,1-.106-.345c.36-.24,36.09-24.06,49.925-32.437a.191.191,0,0,1,.258.063.188.188,0,0,1-.063.259c-13.828,8.372-49.551,32.188-49.91,32.428A.187.187,0,0,1,311.12,397.809Z" transform="translate(-283.827 -333.293)" fill="#add9cc" opacity="0.35"/>
        </g>
        <g id="Grupo_79573" data-name="Grupo 79573" transform="translate(9.368)">
          <g id="Grupo_79572" data-name="Grupo 79572" transform="translate(29.742)">
            <path id="Trazado_114886" data-name="Trazado 114886" d="M394.114,317.708a51.873,51.873,0,0,1-4.885,6.771,34.38,34.38,0,0,1-6.131,5.778,15.934,15.934,0,0,1-3.831,2.014,8.576,8.576,0,0,1-4.454.294,4.25,4.25,0,0,1-2.078-1.187,4.574,4.574,0,0,1-1.086-2.075,8.974,8.974,0,0,1,.216-4.335.377.377,0,0,1,.736.158l0,.024a8.686,8.686,0,0,0,.128,3.864,3.012,3.012,0,0,0,2.385,2.267,7.842,7.842,0,0,0,3.706-.351,15.174,15.174,0,0,0,3.442-1.879,36.615,36.615,0,0,0,6-5.433c1.842-2.009,3.585-4.139,5.228-6.321l.008-.009a.376.376,0,0,1,.528-.075A.381.381,0,0,1,394.114,317.708Z" transform="translate(-292.165 -317.136)" fill="#f4ebd6"/>
            <path id="Trazado_114887" data-name="Trazado 114887" d="M380.931,322.485a1.131,1.131,0,0,1-.084.311l-.053.148-.115.3-.238.6c-.161.4-.347.784-.529,1.172-.37.774-.762,1.537-1.184,2.285a33.742,33.742,0,0,1-2.909,4.271,24.7,24.7,0,0,1-7.988,6.73,23.658,23.658,0,0,1-2.46,1.041,19.25,19.25,0,0,1-2.6.668l-1.335.213-1.407.011a6.094,6.094,0,0,1-2.884-.8,4.284,4.284,0,0,1-1.8-2.532,7.171,7.171,0,0,1-.148-2.814,15.65,15.65,0,0,1,1.676-4.962.379.379,0,0,1,.7.287l0,.014a18.117,18.117,0,0,0-.885,4.783c-.091,1.569.368,3.059,1.448,3.588a6.675,6.675,0,0,0,4.247.122,17.2,17.2,0,0,0,2.285-.621c.741-.279,1.472-.6,2.195-.926a27.344,27.344,0,0,0,7.594-5.964,37.6,37.6,0,0,0,3.089-3.863c.49-.67.955-1.359,1.4-2.062l.65-1.066.318-.536.157-.271.075-.14c.024-.011.066-.195.038.018a.377.377,0,1,1,.754,0Z" transform="translate(-300.473 -314.609)" fill="#f4ebd6"/>
            <path id="Trazado_114888" data-name="Trazado 114888" d="M376.047,326.955a.534.534,0,0,1-.14.312l.068-.094a35.465,35.465,0,0,1-8.042,10.172,29.868,29.868,0,0,1-11.4,6.333,29.538,29.538,0,0,1-6.492,1.11,19.772,19.772,0,0,1-3.333-.106,10.076,10.076,0,0,1-3.327-.913,5.359,5.359,0,0,1-2.585-2.528,6.579,6.579,0,0,1-.528-3.487,14.872,14.872,0,0,1,2.347-6.178l0-.006.578.474c-1.843,1.956-3.747,3.848-5.671,5.716-1.9,1.9-3.894,3.688-5.835,5.535s-3.979,3.6-5.976,5.386c-2.041,1.74-4.078,3.486-6.213,5.125a.378.378,0,0,1-.51-.555c1.814-1.988,3.725-3.87,5.633-5.756,1.952-1.839,3.876-3.707,5.873-5.5s3.959-3.615,6.01-5.345c2.026-1.759,4.071-3.495,6.176-5.166l.042-.033a.373.373,0,0,1,.537.507l0,0a15.764,15.764,0,0,0-1.739,5.882,5.244,5.244,0,0,0,.534,2.757,4.178,4.178,0,0,0,1.991,1.792,12.733,12.733,0,0,0,5.914.765,31.516,31.516,0,0,0,6.134-1.015,30.488,30.488,0,0,0,10.962-5.839,38.162,38.162,0,0,0,8.25-9.481l.068-.093a.258.258,0,0,0-.08.22.377.377,0,1,1,.754,0Z" transform="translate(-318.891 -312.336)" fill="#f4ebd6"/>
          </g>
          <path id="Trazado_114889" data-name="Trazado 114889" d="M349.9,335.907c-.151.09-.3.181-.452.287-6.063,3.786-12.941,9.834-19.653,16.546-.151.151-.317.3-.468.468-5.234,5.264-10.362,10.89-14.9,16.108l-.437.483v.015c-5.188,5.958-9.593,11.357-12.534,15.022.211-.453.422-.95.649-1.418.015,0,.015-.015.015-.03,2.926-3.62,6.968-8.522,11.629-13.876.106-.121.211-.256.332-.377,4.419-5.083,9.381-10.543,14.464-15.671.015-.015.015-.015.03-.015.332-.332.664-.679,1-1.011h.015c6.757-6.757,13.665-12.835,19.743-16.636.136-.075.256-.151.377-.226a.2.2,0,0,1,.256.06A.2.2,0,0,1,349.9,335.907Z" transform="translate(-298.011 -307.774)" fill="#f4ebd6"/>
          <path id="Trazado_114890" data-name="Trazado 114890" d="M359.013,338.625c-.121.075-.256.151-.377.241a193.217,193.217,0,0,0-22.172,16.908c-.121.106-.256.211-.377.317-6.184,5.354-12.126,10.95-17.39,16.093a6.5,6.5,0,0,1-.468.453v.015c-9.608,9.427-16.832,17.3-18.763,19.442a6.175,6.175,0,0,1,.151-.724c2.443-2.7,9.5-10.317,18.672-19.306.121-.121.256-.241.377-.362,5.038-4.932,10.709-10.256,16.591-15.4h.015c.226-.211.468-.407.694-.618h.015a193.894,193.894,0,0,1,21.991-16.832c.287-.2.558-.377.83-.543a.177.177,0,0,1,.256.06A.189.189,0,0,1,359.013,338.625Z" transform="translate(-299.022 -306.39)" fill="#f4ebd6"/>
          <path id="Trazado_114891" data-name="Trazado 114891" d="M371.092,336.665c-.573.347-1.176.724-1.795,1.116-7.677,4.932-18.265,13.454-28.929,22.579a3.819,3.819,0,0,1-.392.332v.015c-6.32,5.415-12.654,11.04-18.4,16.229-.121.106-.241.211-.362.332-10.86,9.819-19.577,18.039-22.021,20.362a2.748,2.748,0,0,1-.015-.5c2.76-2.609,11.357-10.724,22.006-20.347.136-.121.287-.256.422-.362v-.015c5.535-5.008,11.6-10.392,17.677-15.6.211-.181.407-.362.618-.528,10.136-8.688,20.226-16.862,27.843-21.93,1.1-.739,2.157-1.4,3.152-2.006a.186.186,0,1,1,.2.317Z" transform="translate(-299.172 -307.386)" fill="#f4ebd6"/>
          <path id="Trazado_114892" data-name="Trazado 114892" d="M385.574,333.237c-.136.136-.272.272-.422.407-6.878,6.591-23.695,19.985-40.693,33.167-.121.09-.226.166-.332.256-6.486,5.022-12.971,10-18.929,14.54v.015c-.136.106-.287.211-.422.317-12.715,9.713-22.971,17.39-25.414,19.23a3.514,3.514,0,0,1-.075-.422c2.715-2.036,12.866-9.653,25.4-19.23.211-.151.422-.317.633-.468v-.015c5.822-4.419,12.126-9.261,18.416-14.133a4.538,4.538,0,0,1,.422-.332h.015c16.983-13.2,33.815-26.591,40.693-33.182.151-.151.3-.287.437-.422a.206.206,0,0,1,.272,0A.191.191,0,0,1,385.574,333.237Z" transform="translate(-299.114 -309.116)" fill="#f4ebd6"/>
          <path id="Trazado_114893" data-name="Trazado 114893" d="M396.613,332.254c-.528.513-1.1,1.041-1.689,1.584-14.178,12.956-45.188,34.977-68.114,50.784-.151.106-.287.2-.437.3-13.484,9.291-24.1,16.38-26.7,18.114a1.086,1.086,0,0,1-.151-.362v-.015c2.685-1.78,13.137-8.763,26.425-17.918.121-.075.241-.166.362-.241,6.44-4.434,13.529-9.381,20.724-14.464.181-.121.347-.256.528-.377h.015c17.8-12.639,36.078-26.2,46.364-35.429.86-.784,1.674-1.539,2.413-2.247a.187.187,0,0,1,.256.015A.174.174,0,0,1,396.613,332.254Z" transform="translate(-298.992 -309.612)" fill="#f4ebd6"/>
          <path id="Trazado_114894" data-name="Trazado 114894" d="M338.973,362.369a.2.2,0,0,1-.166.211c-.106,0-.2.015-.287.015a1.64,1.64,0,0,1-.271-.015,3.534,3.534,0,0,1-3.032-2.474l-.045-.136a2.688,2.688,0,0,1-.347-.03,4.5,4.5,0,0,1-3.816-4.464v-.015a2.165,2.165,0,0,1-.694.121,2.923,2.923,0,0,1-2.1-.965,4.463,4.463,0,0,1-.95-2.76v-.03a4.019,4.019,0,0,1-.83.241,4.1,4.1,0,0,1-4.917-4.48.732.732,0,0,1,.015-.181c-.226.136-.483.287-.769.422-.015,0-.015,0-.03.015a3.679,3.679,0,0,1-2.428.271,2.451,2.451,0,0,1-1.493-1.222c.09-.106.181-.2.271-.287a2.182,2.182,0,0,0,1.312,1.146,4.143,4.143,0,0,0,3.3-.92.053.053,0,0,1,.075-.015.139.139,0,0,1,.151.015.21.21,0,0,1,.075.211c0,.03-.015.045-.015.075a3.73,3.73,0,0,0,5.173,4.329c.075-.03.136-.06.2-.09a.185.185,0,0,1,.2.015.2.2,0,0,1,.09.151v.015a4.259,4.259,0,0,0,.86,2.836,2.214,2.214,0,0,0,2.428.679.757.757,0,0,0,.2-.075.186.186,0,0,1,.2.015.158.158,0,0,1,.075.136v.045a3.9,3.9,0,0,0,1.026,3.047,3.945,3.945,0,0,0,2.836,1.388h.075a.179.179,0,0,1,.181.151.215.215,0,0,0,.03.091,3.1,3.1,0,0,0,3.213,2.353h.03A.193.193,0,0,1,338.973,362.369Z" transform="translate(-290.204 -302.156)" fill="#f4ebd6"/>
          <path id="Trazado_114895" data-name="Trazado 114895" d="M324.249,373.923a.167.167,0,0,1-.166.2h-.09a.738.738,0,0,1-.181-.015.639.639,0,0,1-.166-.03,1.69,1.69,0,0,1-.845-.468,1.76,1.76,0,0,1-.528-1.1,2.843,2.843,0,0,1-.347-.075,2.542,2.542,0,0,1-.422-.181,2.642,2.642,0,0,1-.935-.935,2.57,2.57,0,0,1-.362-1.373,1.49,1.49,0,0,1,.06-.452.538.538,0,0,1-.151.03,2.857,2.857,0,0,1-2.428-.5,2.9,2.9,0,0,1-1.1-2.021,2.575,2.575,0,0,1,0-.483h-.03a2.326,2.326,0,0,1-2.383-1.041,3.228,3.228,0,0,1-.422-2.1,4.016,4.016,0,0,1,.106-.588h-.045a3.508,3.508,0,0,1-2.4-1.312,3.589,3.589,0,0,1-.89-2.323v-.015a1.633,1.633,0,0,1,.015-.271,1.465,1.465,0,0,1-.256-.015,2.269,2.269,0,0,1-1.84-1.388,3.386,3.386,0,0,1-.166-.513c.121-.151.226-.287.332-.437a2.551,2.551,0,0,0,.181.814,1.854,1.854,0,0,0,1.825,1.146.259.259,0,0,0,.106-.015.165.165,0,0,1,.181.045.194.194,0,0,1,.06.151v.015a3.123,3.123,0,0,0,.739,2.564,3.157,3.157,0,0,0,2.4,1.176.1.1,0,0,1,.091.015c.015.015.045.03.06.06a.164.164,0,0,1,.03.166,2.064,2.064,0,0,0-.06.256,3.008,3.008,0,0,0,.272,2.353,1.866,1.866,0,0,0,2.247.8.231.231,0,0,1,.2.03l.045.045v.015a.178.178,0,0,1,.015.121,1.744,1.744,0,0,0-.045.392,2.6,2.6,0,0,0,.965,2.066,2.515,2.515,0,0,0,2.594.256.183.183,0,0,1,.226.03c0,.015.015.015.015.03a.226.226,0,0,1,.015.2,1.769,1.769,0,0,0-.136.362v.015a1.99,1.99,0,0,0,.256,1.493,2.137,2.137,0,0,0,.98.89,1.152,1.152,0,0,0,.5.121.257.257,0,0,0,.106.015.184.184,0,0,1,.136.06.211.211,0,0,1,.045.136,1.39,1.39,0,0,0,1.4,1.4.111.111,0,0,1,.09.03.154.154,0,0,1,.091.075A.136.136,0,0,1,324.249,373.923Z" transform="translate(-294.544 -297.119)" fill="#f4ebd6"/>
          <path id="Trazado_114896" data-name="Trazado 114896" d="M299.79,406.237a.188.188,0,0,1-.092-.353c.463-.256,46.628-25.9,72.628-46.2s37.987-32.719,38.106-32.843a.19.19,0,0,1,.267,0,.187.187,0,0,1,0,.265c-.118.124-12.119,12.568-38.144,32.88s-72.215,45.971-72.679,46.228A.2.2,0,0,1,299.79,406.237Z" transform="translate(-298.954 -312.23)" fill="#f4ebd6"/>
        </g>
        <g id="Grupo_79574" data-name="Grupo 79574" transform="translate(107.863 2.293)">
          <path id="Trazado_114897" data-name="Trazado 114897" d="M379.805,327.107a173.639,173.639,0,0,1-15.33,21.561" transform="translate(-364.475 -314.361)" fill="none" stroke="#f4ebd6" stroke-linecap="round" stroke-linejoin="round" stroke-width="0.5"/>
          <path id="Trazado_114898" data-name="Trazado 114898" d="M382.761,325.3A84.3,84.3,0,0,1,371.5,350.066" transform="translate(-360.903 -315.278)" fill="none" stroke="#f4ebd6" stroke-linecap="round" stroke-linejoin="round" stroke-width="0.5"/>
          <path id="Trazado_114899" data-name="Trazado 114899" d="M390.737,318.656a52.232,52.232,0,0,1-16.113,35.567" transform="translate(-359.317 -318.656)" fill="none" stroke="#f4ebd6" stroke-linecap="round" stroke-linejoin="round" stroke-width="0.5"/>
        </g>
      </g>
      <path id="Trazado_114900" data-name="Trazado 114900" d="M353.151,346.139s2.5,5.968,10.013-.481c0,0-2.888,6.739,2.118,7.7s9.915-5.97,9.915-5.97-5.006,5.873-.192,8.665c0,0,6.93,2.023,10.4-13.381L359.24,341.3Z" transform="translate(-237.571 -234.098)" fill="#f4ebd6"/>
      <g id="Grupo_79576" data-name="Grupo 79576" transform="translate(1.886 158.93)">
        <path id="Trazado_114901" data-name="Trazado 114901" d="M277.96,516.729h-.014a.189.189,0,0,1-.175-.2c.953-13.926,50.538-129.06,51.038-130.221a.193.193,0,0,1,.25-.1.189.189,0,0,1,.1.247c-.5,1.161-50.06,116.235-51.01,130.1A.19.19,0,0,1,277.96,516.729Z" transform="translate(-277.771 -370.211)" fill="#f4ebd6"/>
        <path id="Trazado_114902" data-name="Trazado 114902" d="M281.279,519.117a.214.214,0,0,1-.068-.012.191.191,0,0,1-.109-.244l51.8-134.974a.185.185,0,0,1,.244-.109.191.191,0,0,1,.109.244L281.454,519A.186.186,0,0,1,281.279,519.117Z" transform="translate(-276.084 -371.444)" fill="#f4ebd6"/>
        <path id="Trazado_114903" data-name="Trazado 114903" d="M287.279,521.378a.187.187,0,0,1-.063-.011.189.189,0,0,1-.115-.241l50.061-140.173a.191.191,0,0,1,.241-.113.189.189,0,0,1,.116.24L287.457,521.253A.188.188,0,0,1,287.279,521.378Z" transform="translate(-273.034 -372.936)" fill="#f4ebd6"/>
        <path id="Trazado_114904" data-name="Trazado 114904" d="M293.407,523.847a.188.188,0,0,1-.178-.252L345.985,375.72a.191.191,0,0,1,.241-.113.189.189,0,0,1,.116.24L293.585,523.722A.19.19,0,0,1,293.407,523.847Z" transform="translate(-269.919 -375.596)" fill="#f4ebd6"/>
        <path id="Trazado_114905" data-name="Trazado 114905" d="M310.7,466.707c-.045.136-.091.272-.136.392-2.519.422-4.947,1.222-6.2,3.3a.166.166,0,0,1-.151.091h-.06a.2.2,0,0,1-.136-.181v-.558a8.453,8.453,0,0,0-.332-2.549,3.222,3.222,0,0,0-1.946-2.172,3.789,3.789,0,0,0-3,.573,9.434,9.434,0,0,0-2.881,2.459l-.015.015a4.2,4.2,0,0,0-.392.513.153.153,0,0,1-.211.06h-.015a.186.186,0,0,1-.106-.226c.8-2.4.664-4.012-.392-4.811a2.74,2.74,0,0,0-1.327-.483,5.506,5.506,0,0,0-3.891,1.373,14.263,14.263,0,0,0-2.323,2.624.015.015,0,0,0-.015.015c-.151.211-.3.437-.452.649a.174.174,0,0,1-.226.06h-.015a.178.178,0,0,1-.09-.226,6.666,6.666,0,0,0,.483-2.715,2.079,2.079,0,0,0-1.554-1.87,2.933,2.933,0,0,0-2.142.95,20.434,20.434,0,0,0-2.609,2.745c-.03.03-.045.06-.075.09a.18.18,0,0,1-.211.06c-.06-.03-.106-.06-.106-.121a.055.055,0,0,1-.015-.045,4.449,4.449,0,0,0-.272-1.78,1.448,1.448,0,0,0-1.161-.875l.136-.362a1.809,1.809,0,0,1,1.357,1.071,3.562,3.562,0,0,1,.271,1.026v.03c.015.121.015.241.03.362a4.4,4.4,0,0,1,.362-.407l.015-.015a17.448,17.448,0,0,1,2.021-2.066,3.25,3.25,0,0,1,2.443-1.041,2.44,2.44,0,0,1,1.885,2.2,4.008,4.008,0,0,1-.015,1.041v.015a5.581,5.581,0,0,1-.151.724c.181-.256.377-.513.573-.769l.015-.015a11.79,11.79,0,0,1,1.6-1.644,5.656,5.656,0,0,1,4.163-1.448,2.971,2.971,0,0,1,1.523.543c.89.664,1.207,1.795.98,3.379v.015a7.114,7.114,0,0,1-.166.86c.136-.166.287-.332.437-.483a10.111,10.111,0,0,1,2.338-1.81,4.153,4.153,0,0,1,3.318-.588,3.578,3.578,0,0,1,2.187,2.4,7.233,7.233,0,0,1,.317,1.7v.015c.015.3.03.6.03.9.03-.03.045-.06.075-.09C305.86,467.868,308.183,467.114,310.7,466.707Z" transform="translate(-277.285 -331.351)" fill="#f4ebd6"/>
      </g>
      <g id="Grupo_79577" data-name="Grupo 79577" transform="translate(89.249 52.928)">
        <path id="Trazado_114906" data-name="Trazado 114906" d="M346.072,305.316c-1.505,2.072-3.047,4.246-3.487,6.771s.572,5.5,2.941,6.472a5.782,5.782,0,0,0,4.982-.591,17.105,17.105,0,0,0,3.869-3.439,7.169,7.169,0,0,0-.1,6.707,5.943,5.943,0,0,0,5.817,3.065c2.489-.345,4.371-2.345,6.036-4.226-1.231,3.67.439,8.511,4.2,9.44,3.354.83,6.567-1.576,9.188-3.826" transform="translate(-332.241 -305.316)" fill="none" stroke="#f4ebd6" stroke-linecap="round" stroke-linejoin="round" stroke-width="0.5"/>
        <path id="Trazado_114907" data-name="Trazado 114907" d="M337.363,315.73a5.565,5.565,0,0,0-.665,7.139c1.614,2.059,5.175,2.3,6.84.282-1.281,2.7.621,6.2,3.455,7.148s6.081-.278,8.125-2.46" transform="translate(-335.693 -300.023)" fill="none" stroke="#f4ebd6" stroke-linecap="round" stroke-linejoin="round" stroke-width="0.5"/>
      </g>
      <g id="Grupo_79578" data-name="Grupo 79578" transform="translate(167.634 87.579)">
        <path id="Trazado_114908" data-name="Trazado 114908" d="M391.889,332.326a1.634,1.634,0,0,0,.268,1.724,1.177,1.177,0,0,0,1.146.136,2.472,2.472,0,0,0,.952-.726,5.672,5.672,0,0,0,1.365-3.095c.143-1.3-1.078-1.747-2.02-.965A6.474,6.474,0,0,0,391.889,332.326Z" transform="translate(-385.575 -327.922)" fill="#46475c"/>
        <path id="Trazado_114909" data-name="Trazado 114909" d="M396.956,331.6a1.637,1.637,0,0,0,.27,1.725,1.178,1.178,0,0,0,1.145.134,2.473,2.473,0,0,0,.952-.725,5.661,5.661,0,0,0,1.365-3.1c.143-1.3-1.078-1.747-2.02-.965A6.5,6.5,0,0,0,396.956,331.6Z" transform="translate(-382.999 -328.29)" fill="#46475c"/>
        <path id="Trazado_114910" data-name="Trazado 114910" d="M398.973,336.23a1.634,1.634,0,0,0,.268,1.724,1.181,1.181,0,0,0,1.146.134,2.479,2.479,0,0,0,.952-.724,5.669,5.669,0,0,0,1.363-3.1c.145-1.3-1.077-1.745-2.018-.964A6.465,6.465,0,0,0,398.973,336.23Z" transform="translate(-381.975 -325.938)" fill="#46475c"/>
        <path id="Trazado_114911" data-name="Trazado 114911" d="M396.19,341.865a1.634,1.634,0,0,0,.268,1.724,1.181,1.181,0,0,0,1.146.134,2.465,2.465,0,0,0,.952-.724,5.669,5.669,0,0,0,1.363-3.1c.145-1.3-1.077-1.745-2.02-.964A6.477,6.477,0,0,0,396.19,341.865Z" transform="translate(-383.389 -323.074)" fill="#46475c"/>
        <path id="Trazado_114912" data-name="Trazado 114912" d="M392.018,349.189a1.631,1.631,0,0,0,.268,1.724,1.181,1.181,0,0,0,1.146.136,2.483,2.483,0,0,0,.952-.725,5.664,5.664,0,0,0,1.363-3.1c.143-1.3-1.078-1.747-2.02-.965A6.486,6.486,0,0,0,392.018,349.189Z" transform="translate(-385.51 -319.351)" fill="#46475c"/>
        <path id="Trazado_114913" data-name="Trazado 114913" d="M393.762,337.351a1.634,1.634,0,0,0,.27,1.724,1.18,1.18,0,0,0,1.146.136,2.468,2.468,0,0,0,.95-.725,5.666,5.666,0,0,0,1.365-3.1c.143-1.3-1.078-1.747-2.02-.965A6.5,6.5,0,0,0,393.762,337.351Z" transform="translate(-384.623 -325.368)" fill="#46475c"/>
        <path id="Trazado_114914" data-name="Trazado 114914" d="M390.271,343.866a1.634,1.634,0,0,0,.268,1.724,1.181,1.181,0,0,0,1.146.136,2.483,2.483,0,0,0,.952-.725A5.659,5.659,0,0,0,394,341.905c.145-1.3-1.077-1.747-2.018-.965A6.474,6.474,0,0,0,390.271,343.866Z" transform="translate(-386.397 -322.056)" fill="#46475c"/>
        <path id="Trazado_114915" data-name="Trazado 114915" d="M387.78,339.246a1.634,1.634,0,0,0,.268,1.724,1.181,1.181,0,0,0,1.146.134,2.464,2.464,0,0,0,.952-.724,5.664,5.664,0,0,0,1.363-3.095c.143-1.3-1.077-1.747-2.02-.965A6.484,6.484,0,0,0,387.78,339.246Z" transform="translate(-387.663 -324.405)" fill="#46475c"/>
      </g>
    </g>
    <path id="Trazado_114916" data-name="Trazado 114916" d="M341.906,415.127c9.805,3.952,19.61,7.9,29.509,11.615a58.006,58.006,0,0,0,11.879,3.469c4.7.685,9.486.256,14.232.424,8.344.293,16.5,2.415,24.577,4.526" transform="translate(199.838 1230.427)" fill="none" stroke="#46475c" stroke-linecap="round" stroke-linejoin="round" stroke-width="4"/>
    <g id="Grupo_79594" data-name="Grupo 79594" transform="translate(389 1453.094)">
      <path id="Trazado_114917" data-name="Trazado 114917" d="M240.635,523.478a530.367,530.367,0,0,1,52.408-40.016c8.114-5.431,16.482-10.689,25.737-13.8,31.457-10.59,66.845,5.175,98.817-3.736,7.206-2.009,14.081-5.244,21.451-6.529,14.731-2.57,31.224,2.594,44.066-5.069,7.4-4.418,11.927-12.246,17.3-18.989,9.8-12.308,23.378-22.03,29.547-36.5,3.688-8.65,4.825-19.069,12.016-25.126,3.4-2.867,7.78-4.353,11.276-7.1,4.383-3.445,7.042-8.581,9.513-13.579q10.631-21.5,19.881-43.645" transform="translate(-240.635 -276.416)" fill="none" stroke="#46475c" stroke-linecap="round" stroke-linejoin="round" stroke-width="4.711"/>
      <path id="Trazado_114918" data-name="Trazado 114918" d="M411.647,414.963c-2.762-3.947-3.573-9.022-3.029-13.808a43.227,43.227,0,0,1,4.433-13.683,57.786,57.786,0,0,0,3.311-7.532,45.221,45.221,0,0,0,1.567-9.393L419.2,357.2" transform="translate(-155.335 -252.109)" fill="none" stroke="#46475c" stroke-linecap="round" stroke-linejoin="round" stroke-width="4"/>
      <path id="Trazado_114919" data-name="Trazado 114919" d="M436.407,371.349c7.648-6.258,20.912-4.458,29.553-9.255a40.665,40.665,0,0,0,7.449-5.81l24.745-22.6" transform="translate(-141.13 -264.061)" fill="none" stroke="#46475c" stroke-linecap="round" stroke-linejoin="round" stroke-width="4"/>
      <g id="Grupo_79584" data-name="Grupo 79584" transform="translate(45.373 138.476)">
        <g id="Grupo_79582" data-name="Grupo 79582" transform="translate(186.476 61.87)">
          <g id="Grupo_79580" data-name="Grupo 79580">
            <path id="Trazado_114920" data-name="Trazado 114920" d="M394.354,432.808s31.831-21.543,55.835-7.959c0,0-13.656,10.122-23.215,10.816S394.354,432.808,394.354,432.808Z" transform="translate(-394.354 -420.356)" fill="#add9cc"/>
            <path id="Trazado_114921" data-name="Trazado 114921" d="M450.189,423.335s-31.787,2.232-55.835,7.959" transform="translate(-394.354 -418.841)" fill="none" stroke="#64657e" stroke-linecap="round" stroke-linejoin="round" stroke-width="0.311"/>
          </g>
          <g id="Grupo_79581" data-name="Grupo 79581" transform="translate(0.499 13.654)">
            <path id="Trazado_114922" data-name="Trazado 114922" d="M394.685,429.424s38.41-1.428,51.586,22.8c0,0-16.944,1.357-25.422-3.113S394.685,429.424,394.685,429.424Z" transform="translate(-394.685 -429.408)" fill="#add9cc"/>
            <path id="Trazado_114923" data-name="Trazado 114923" d="M446.271,452.223s-28.15-14.933-51.586-22.8" transform="translate(-394.685 -429.403)" fill="none" stroke="#64657e" stroke-linecap="round" stroke-linejoin="round" stroke-width="0.311"/>
          </g>
        </g>
        <g id="Grupo_79583" data-name="Grupo 79583">
          <path id="Trazado_114924" data-name="Trazado 114924" d="M276.816,444.634s-16.528-41.449,4.837-65.3c0,0,8.089,18,6.5,29.015S276.816,444.634,276.816,444.634Z" transform="translate(-270.718 -379.335)" fill="#add9cc"/>
          <path id="Trazado_114925" data-name="Trazado 114925" d="M279.61,379.335s-5.362,36.6-4.837,65.3" transform="translate(-268.675 -379.335)" fill="none" stroke="#64657e" stroke-linecap="round" stroke-linejoin="round" stroke-width="0.361"/>
        </g>
      </g>
      <g id="Grupo_79590" data-name="Grupo 79590" transform="translate(248.122)">
        <g id="Grupo_79585" data-name="Grupo 79585" transform="translate(0 89.894)">
          <path id="Trazado_114926" data-name="Trazado 114926" d="M414.814,388.136a19.554,19.554,0,0,1-9.434-15.982,177.941,177.941,0,0,1,.578-25.03s7.7,7.894,8.857,14.247S414.814,388.136,414.814,388.136Z" transform="translate(-405.143 -347.125)" fill="#add9cc"/>
          <path id="Trazado_114927" data-name="Trazado 114927" d="M405.683,347.125s2.7,11.231,3.851,20.988a76.655,76.655,0,0,0,5.006,20.024" transform="translate(-404.868 -347.125)" fill="none" stroke="#64657e" stroke-linecap="round" stroke-linejoin="round" stroke-width="0.25"/>
        </g>
        <g id="Grupo_79586" data-name="Grupo 79586" transform="translate(5.914 59.087)">
          <path id="Trazado_114928" data-name="Trazado 114928" d="M418.406,371.754s-16.752-25.994-5.392-45.055c0,0,7.894,11.167,8.28,18.87S418.406,371.754,418.406,371.754Z" transform="translate(-409.064 -326.699)" fill="#add9cc"/>
          <path id="Trazado_114929" data-name="Trazado 114929" d="M411.683,326.7s1.22,25.609,5.392,45.055" transform="translate(-407.732 -326.699)" fill="none" stroke="#64657e" stroke-linecap="round" stroke-linejoin="round" stroke-width="0.25"/>
        </g>
        <g id="Grupo_79587" data-name="Grupo 79587" transform="translate(15.768 62.67)">
          <path id="Trazado_114930" data-name="Trazado 114930" d="M415.656,371.061s-1.986-30.861,17.212-41.986c0,0,1.463,13.6-1.947,20.512S415.656,371.061,415.656,371.061Z" transform="translate(-415.597 -329.075)" fill="#add9cc"/>
          <path id="Trazado_114931" data-name="Trazado 114931" d="M432.848,329.075s-11.395,22.965-17.212,41.986" transform="translate(-415.578 -329.075)" fill="none" stroke="#64657e" stroke-linecap="round" stroke-linejoin="round" stroke-width="0.25"/>
        </g>
        <g id="Grupo_79588" data-name="Grupo 79588" transform="translate(63.084)">
          <path id="Trazado_114932" data-name="Trazado 114932" d="M446.968,341.525s4.446-43.1,33.567-54c0,0-1.146,19.129-7.472,27.889S446.968,341.525,446.968,341.525Z" transform="translate(-446.968 -287.524)" fill="#add9cc"/>
          <path id="Trazado_114933" data-name="Trazado 114933" d="M480.535,287.524s-21.1,29.076-33.567,54" transform="translate(-446.968 -287.524)" fill="none" stroke="#64657e" stroke-linecap="round" stroke-linejoin="round" stroke-width="0.35"/>
        </g>
        <g id="Grupo_79589" data-name="Grupo 79589" transform="translate(43.691 19.983)">
          <path id="Trazado_114934" data-name="Trazado 114934" d="M445.55,351.163s-19.618-28.641-7.472-50.39c0,0,9.211,12.282,9.887,20.914S445.55,351.163,445.55,351.163Z" transform="translate(-434.111 -300.773)" fill="#add9cc"/>
          <path id="Trazado_114935" data-name="Trazado 114935" d="M436.741,300.773s2.176,28.7,7.472,50.39" transform="translate(-432.774 -300.773)" fill="none" stroke="#64657e" stroke-linecap="round" stroke-linejoin="round" stroke-width="0.281"/>
        </g>
      </g>
      <path id="Trazado_114936" data-name="Trazado 114936" d="M439.167,370.388c2.934-3.864,3.888-8.875,4.184-13.718s.023-9.74.881-14.517c1.336-7.427,5.339-14.164,6.728-21.582" transform="translate(-139.727 -270.727)" fill="none" stroke="#46475c" stroke-linecap="round" stroke-linejoin="round" stroke-width="3"/>
      <g id="Grupo_79592" data-name="Grupo 79592" transform="translate(283.71 99.072)">
        <g id="Grupo_79591" data-name="Grupo 79591" transform="translate(18.354 25.372)">
          <path id="Trazado_114937" data-name="Trazado 114937" d="M440.907,371.584a19.556,19.556,0,0,1,18.481,1.694,177.686,177.686,0,0,1,19.965,15.11s-10.908,1.629-16.737-1.149S440.907,371.584,440.907,371.584Z" transform="translate(-440.907 -370.032)" fill="#add9cc"/>
          <path id="Trazado_114938" data-name="Trazado 114938" d="M479.353,387.865s-10.686-4.383-19.276-9.152a76.551,76.551,0,0,0-19.17-7.651" transform="translate(-440.907 -369.509)" fill="none" stroke="#64657e" stroke-linecap="round" stroke-linejoin="round" stroke-width="0.25"/>
        </g>
        <path id="Trazado_114939" data-name="Trazado 114939" d="M428.738,386.05c5.255-4.737,12.347-6.709,18.9-9.362,13.681-5.532,25.775-14.481,39.464-19.989" transform="translate(-428.738 -351.437)" fill="none" stroke="#46475c" stroke-linecap="round" stroke-linejoin="round" stroke-width="2.756"/>
        <path id="Trazado_114940" data-name="Trazado 114940" d="M441.248,371.3a145.264,145.264,0,0,1,21.585-3.051,53.309,53.309,0,0,1,21.457,3.026" transform="translate(-422.38 -345.602)" fill="none" stroke="#46475c" stroke-linecap="round" stroke-linejoin="round" stroke-width="1.791"/>
        <path id="Trazado_114941" data-name="Trazado 114941" d="M465.938,357.445a4.236,4.236,0,1,1,4.237,4.237A4.236,4.236,0,0,1,465.938,357.445Z" transform="translate(-409.83 -353.21)" fill="#d9add2"/>
        <path id="Trazado_114942" data-name="Trazado 114942" d="M467.641,371.319a4.236,4.236,0,1,1,4.235,4.235A4.236,4.236,0,0,1,467.641,371.319Z" transform="translate(-408.965 -346.159)" fill="#d9add2"/>
      </g>
      <g id="Grupo_79593" data-name="Grupo 79593" transform="translate(247.031 158.344)">
        <path id="Trazado_114943" data-name="Trazado 114943" d="M404.419,403.661a23.953,23.953,0,0,1,16.12.262c4.911,1.864,9.274,5.375,14.491,6.01,5.332.649,10.541-1.839,15.9-2.158,7.134-.425,14.558,2.961,21.242.431" transform="translate(-404.419 -387.484)" fill="none" stroke="#46475c" stroke-linecap="round" stroke-linejoin="round" stroke-width="2.756"/>
        <path id="Trazado_114944" data-name="Trazado 114944" d="M426,412.719a15.2,15.2,0,0,0,6.033-3.743c1.483-1.5,2.664-3.326,4.372-4.566,1.932-1.4,4.344-1.922,6.561-2.805a20.75,20.75,0,0,0,8.359-6.13" transform="translate(-393.452 -390.999)" fill="none" stroke="#46475c" stroke-linecap="round" stroke-linejoin="round" stroke-width="1.214"/>
        <path id="Trazado_114945" data-name="Trazado 114945" d="M431.981,407a77.958,77.958,0,0,1,12.078,8.173,23.674,23.674,0,0,0,2.828,2.057c2.78,1.6,6.279,1.843,8.743,3.893" transform="translate(-390.41 -385.143)" fill="none" stroke="#46475c" stroke-linecap="round" stroke-linejoin="round" stroke-width="2.143"/>
        <ellipse id="Elipse_4769" data-name="Elipse 4769" cx="4.236" cy="4.268" rx="4.236" ry="4.268" transform="translate(64.548 15.885)" fill="#d9add2"/>
        <path id="Trazado_114946" data-name="Trazado 114946" d="M445.428,417.648a4.236,4.236,0,1,1,4.235,4.268A4.252,4.252,0,0,1,445.428,417.648Z" transform="translate(-383.575 -381.899)" fill="#d9add2"/>
        <ellipse id="Elipse_4770" data-name="Elipse 4770" cx="4.236" cy="4.268" rx="4.236" ry="4.268" transform="translate(54.825)" fill="#d9add2"/>
      </g>
    </g>
    <g id="Grupo_79595" data-name="Grupo 79595" transform="translate(556.297 1593.815)">
      <path id="Trazado_114947" data-name="Trazado 114947" d="M351.555,380.824a99.282,99.282,0,0,0,4.8,9.532c.256.422.513.845.769,1.237,1.1,1.735,2.2,3.092,3.092,3.484,3.092,1.342,32.292,16.878,32.292,16.878s13.439,1.388,16.425,4.1a43.677,43.677,0,0,1,5.173,5.973c.151.2.226.317.226.317" transform="translate(-351.555 -380.824)" fill="none" stroke="#64657e" stroke-linecap="round" stroke-linejoin="round" stroke-width="1"/>
      <path id="Trazado_114948" data-name="Trazado 114948" d="M382.208,401.465s-9.5,8.728-10.4,12.837" transform="translate(-341.259 -370.333)" fill="none" stroke="#64657e" stroke-linecap="round" stroke-linejoin="round" stroke-width="1"/>
    </g>
    <path id="Trazado_114949" data-name="Trazado 114949" d="M378.96,401.891s11.039,5.262,12.707,12.066" transform="translate(218.671 1223.699)" fill="none" stroke="#64657e" stroke-linecap="round" stroke-linejoin="round" stroke-width="1"/>
  </g>
</svg>
