<svg xmlns="http://www.w3.org/2000/svg" xmlns:xlink="http://www.w3.org/1999/xlink" width="505" height="663" viewBox="0 0 505 663">
  <defs>
    <clipPath id="clip-path">
      <path id="Trazado_116172" data-name="Trazado 116172" d="M758.864,110.252c-79.04-7.707-232.221-.957-312.925,6.983-67.856,6.676-132.949-4.229-177.2-6.983-47.654-2.963-86.435,40.877-86.435,91.3V515.993q0,1.08.025,2.153c.005.235.015.469.022.7.014.481.029.961.05,1.441.012.277.028.553.043.829.023.436.046.871.075,1.3.019.291.042.582.063.872.031.419.064.837.1,1.253q.039.443.082.884.06.619.128,1.236.048.438.1.874.075.624.158,1.244c.037.282.074.564.114.845.061.429.126.857.193,1.284.041.263.08.526.123.788.076.465.158.928.241,1.391.039.221.077.442.117.662q.172.922.362,1.838c.013.065.025.132.039.2q.214,1.027.451,2.046c.036.155.075.308.112.462.122.516.247,1.032.377,1.545.057.225.118.448.177.673.116.44.232.881.354,1.318.069.248.141.495.211.742q.177.619.362,1.235.116.383.235.765.187.6.38,1.2.125.383.252.764.2.6.408,1.19c.087.248.173.5.262.743.145.4.294.807.444,1.208.088.234.174.469.264.7.164.426.332.85.5,1.274.081.2.161.409.244.612q.31.758.634,1.509c.05.118.1.236.149.353q.406.935.83,1.859c.048.1.1.208.147.312q.349.753.71,1.5c.1.207.2.412.306.618.194.391.388.783.587,1.171.121.236.245.47.368.7.186.355.372.709.562,1.061.134.248.27.494.406.741q.277.5.56,1,.215.379.434.757.28.482.566.961.228.381.458.761.287.469.579.935c.158.253.316.506.477.757.2.306.4.611.6.915.164.249.326.5.492.748.2.305.413.607.621.908.166.242.33.486.5.725.236.336.477.668.717,1q.483.668.976,1.326c.18.24.358.482.539.72l.048.062c.1.127.2.253.295.38q.438.565.884,1.123c.086.108.172.217.259.324q.523.648,1.059,1.284l.33.391q.537.633,1.085,1.256l.294.331q.514.578,1.037,1.147c.064.069.127.14.191.209q.585.631,1.182,1.249l.313.324q.59.606,1.191,1.2l.293.287q.6.589,1.21,1.166l.131.123q.629.592,1.271,1.17l.292.264q.639.573,1.289,1.132l.3.256q.673.574,1.356,1.136l.118.1q.656.536,1.323,1.057l.273.215q.684.532,1.378,1.049l.306.227q.71.525,1.43,1.037l.165.115q.688.484,1.385.955l.244.165q.726.487,1.463.957l.317.2q.744.472,1.5.929l.21.125q.723.435,1.454.855l.207.12q.767.438,1.543.859l.323.175q.773.416,1.554.816l.256.129q.762.386,1.531.756l.159.077q.8.385,1.619.751l.329.148q.8.357,1.61.7l.291.121q.811.337,1.629.66l.092.037q.843.329,1.694.638l.328.119q.827.3,1.662.578l.324.107c.578.191,1.158.378,1.741.557l.047.014q.861.263,1.731.506l.32.09q.852.236,1.711.453l.351.087c.587.146,1.176.287,1.767.42l.145.031q.853.19,1.712.361l.305.061q.876.172,1.759.323l.369.063q.9.15,1.8.282l.214.03q.861.122,1.728.226l.271.033q.9.105,1.81.189l.377.034q.91.081,1.826.143l.084.007c.122.008.246.013.368.021q.442.027.885.05l.639.029q.37.015.741.027l.67.02c.258.006.517.01.776.014.2,0,.407.007.611.009q.687.005,1.377,0l1.511-.015.624-.007.936-.011.608-.008.967-.013.624-.009.97-.014.641-.01,1-.016.574-.01,1.084-.018.532-.01,1.175-.021.423-.008,1.317-.025.331-.006,1.423-.029.25-.005,1.617-.034h.008c12.127-.262,25.7-.671,40.162-1.145,23.827-.785,50.071-1.737,76.242-2.495h0c22.819-.66,45.582-1.168,66.643-1.279,22.193-.117,42.5.207,58.982,1.261h0q1.648.106,3.245.221l9.379.677c59.641,4.276,103.186,7.1,139.124,7.54l.251,0,1.774.019.357,0,1.631.014.461,0,1.54.009.486,0,1.51,0h2.734q1.829,0,3.632-.011a510.448,510.448,0,0,0,65.36-4.172,128.046,128.046,0,0,0,20.445-4.413c37.619-11.451,65.99-39.851,65.99-79.135V201.548C845.3,151.129,806.4,114.888,758.864,110.252Z" transform="translate(791.857 2293.701) rotate(90)" fill="#e29c6d"/>
    </clipPath>
    <linearGradient id="linear-gradient" x1="0.431" y1="0.979" x2="1.417" y2="0.979" gradientUnits="objectBoundingBox">
      <stop offset="0" stop-color="#ccf2fc"/>
      <stop offset="0.996" stop-color="#e5f8ff"/>
    </linearGradient>
    <linearGradient id="linear-gradient-2" y1="0.5" x2="1" y2="0.5" gradientUnits="objectBoundingBox">
      <stop offset="0" stop-color="#2e4d48"/>
      <stop offset="1" stop-color="#437069"/>
    </linearGradient>
    <linearGradient id="linear-gradient-4" y1="0.5" x2="1" y2="0.5" gradientUnits="objectBoundingBox">
      <stop offset="0" stop-color="#2f4f4a"/>
      <stop offset="1" stop-color="#44726b"/>
    </linearGradient>
    <linearGradient id="linear-gradient-5" y1="0.5" x2="1" y2="0.5" gradientUnits="objectBoundingBox">
      <stop offset="0" stop-color="#32544f"/>
      <stop offset="1" stop-color="#477770"/>
    </linearGradient>
    <linearGradient id="linear-gradient-8" x1="-0.192" y1="0.519" x2="0.812" y2="0.519" xlink:href="#linear-gradient"/>
    <linearGradient id="linear-gradient-9" x1="7.611" y1="-0.956" x2="7.611" y2="-1.7" gradientUnits="objectBoundingBox">
      <stop offset="0" stop-color="#e3dfcc"/>
      <stop offset="0.993" stop-color="#fffbe6"/>
    </linearGradient>
    <linearGradient id="linear-gradient-10" x1="1.451" y1="0.864" x2="1.451" y2="-0.101" gradientUnits="objectBoundingBox">
      <stop offset="0" stop-color="#d6d3c4"/>
      <stop offset="0.993" stop-color="#f7f4e3"/>
    </linearGradient>
    <linearGradient id="linear-gradient-11" x1="0" y1="0.5" x2="1" y2="0.5" xlink:href="#linear-gradient"/>
    <linearGradient id="linear-gradient-12" x1="0.5" y1="1" x2="0.5" gradientUnits="objectBoundingBox">
      <stop offset="0" stop-color="#6ed9e0"/>
      <stop offset="0.993" stop-color="#bef7ff"/>
    </linearGradient>
    <linearGradient id="linear-gradient-13" x1="0.5" y1="1" x2="0.5" gradientUnits="objectBoundingBox">
      <stop offset="0" stop-color="#4abcc4"/>
      <stop offset="0.993" stop-color="#9cebf6"/>
    </linearGradient>
    <linearGradient id="linear-gradient-16" x1="0.5" y1="1" x2="0.5" y2="-0.897" xlink:href="#linear-gradient-13"/>
    <linearGradient id="linear-gradient-17" x1="0.5" y1="1" x2="0.5" y2="-0.855" xlink:href="#linear-gradient-13"/>
  </defs>
  <g id="Enmascarar_grupo_65" data-name="Enmascarar grupo 65" transform="translate(-180 -2476)" clip-path="url(#clip-path)">
    <g id="Grupo_80354" data-name="Grupo 80354" transform="translate(194.953 2558.953)">
      <g id="BG" transform="translate(-71.025 -92.364)">
        <rect id="Rect치ngulo_33897" data-name="Rect치ngulo 33897" width="664.405" height="685.744" transform="translate(0 0)" fill="#92d0bb"/>
      </g>
      <g id="Design" transform="translate(-159.131 -159.131)">
        <g id="Grupo_80301" data-name="Grupo 80301" transform="translate(0 0)">
          <circle id="Elipse_4790" data-name="Elipse 4790" cx="297.203" cy="297.203" r="297.203" transform="translate(0 420.308) rotate(-45)" fill="#fff" opacity="0.2"/>
          <circle id="Elipse_4791" data-name="Elipse 4791" cx="268.365" cy="268.365" r="268.365" transform="translate(40.783 420.308) rotate(-45)" fill="#fff" opacity="0.2"/>
          <circle id="Elipse_4792" data-name="Elipse 4792" cx="232.858" cy="232.858" r="232.858" transform="translate(90.997 420.309) rotate(-45)" fill="#fff" opacity="0.2"/>
          <circle id="Elipse_4793" data-name="Elipse 4793" cx="200.134" cy="200.134" r="200.134" transform="translate(137.276 420.308) rotate(-45)" fill="#fff" opacity="0.2"/>
        </g>
        <path id="Trazado_115664" data-name="Trazado 115664" d="M192.493,800.507c-4.643.183-9.452.407-13.6,2.509s-7.439,6.638-6.569,11.2c1.311,6.885,10.016,8.946,17,9.546l31.829,2.737c3.452.3,7.009.623,10.078,2.234s5.556,4.847,5.2,8.294c-.357,3.418-3.409,6.06-6.7,7.042s-6.816.648-10.239.34a528.222,528.222,0,0,0-77.043-1.3c-4.244.238-8.636.57-12.375,2.592s-6.648,6.215-5.823,10.385c1.258,6.36,9.288,8.269,15.748,8.818,58.737,4.992,117.884,7.286,176.612,2.184,4.406-.383,8.963-.854,12.8-3.06s6.752-6.639,5.79-10.956c-.931-4.18-5.046-6.874-9.11-8.224s-8.447-1.836-12.226-3.85-6.9-6.3-5.686-10.4c1.286-4.349,6.608-6.13,11.136-5.883s8.99,1.829,13.5,1.369,9.277-4.184,8.461-8.644c-.783-4.278-5.8-6.1-10.037-7.071-23.983-5.476-47.92-6.393-72.091-9.85C237.147,797.371,214.8,799.627,192.493,800.507Z" transform="translate(32.713 -268.466)" opacity="0.9" fill="url(#linear-gradient)"/>
        <g id="Grupo_80304" data-name="Grupo 80304" transform="translate(566.427 325.224)">
          <g id="Grupo_80302" data-name="Grupo 80302" transform="translate(0 0)">
            <circle id="Elipse_4794" data-name="Elipse 4794" cx="46.715" cy="46.715" r="46.715" transform="translate(5.833 5.833)" fill="#faf3c5"/>
            <circle id="Elipse_4795" data-name="Elipse 4795" cx="37.157" cy="37.157" r="37.157" transform="translate(0 52.548) rotate(-45)" fill="#f7eda8"/>
            <circle id="Elipse_4796" data-name="Elipse 4796" cx="32.297" cy="32.297" r="32.297" transform="translate(6.874 52.548) rotate(-45)" fill="#f7e672"/>
            <circle id="Elipse_4797" data-name="Elipse 4797" cx="26.565" cy="26.565" r="26.565" transform="translate(14.979 52.548) rotate(-45)" fill="#f7de34"/>
          </g>
          <g id="Grupo_80303" data-name="Grupo 80303" transform="translate(30.863 30.862)">
            <path id="Trazado_115665" data-name="Trazado 115665" d="M956.672,484.006a26.558,26.558,0,0,1-37.021,37.021,26.561,26.561,0,1,0,37.021-37.021Z" transform="translate(-919.651 -484.006)" fill="#f2cf33"/>
          </g>
        </g>
        <g id="Grupo_80312" data-name="Grupo 80312" transform="translate(164.455 193.868)">
          <circle id="Elipse_4798" data-name="Elipse 4798" cx="121.256" cy="121.256" r="121.256" transform="translate(111.373 113.506)" fill="#4b7d74"/>
          <circle id="Elipse_4799" data-name="Elipse 4799" cx="180.916" cy="180.916" r="180.916" transform="translate(0 255.854) rotate(-45)" fill="url(#linear-gradient-2)"/>
          <circle id="Elipse_4800" data-name="Elipse 4800" cx="142.149" cy="142.149" r="142.149" transform="translate(90.48 92.613)" fill="url(#linear-gradient-2)"/>
          <circle id="Elipse_4801" data-name="Elipse 4801" cx="112.232" cy="112.232" r="112.232" transform="translate(120.397 122.53)" fill="url(#linear-gradient-4)"/>
          <circle id="Elipse_4802" data-name="Elipse 4802" cx="96.324" cy="96.324" r="96.324" transform="translate(96.407 234.762) rotate(-45)" fill="url(#linear-gradient-5)"/>
          <g id="Grupo_80305" data-name="Grupo 80305" transform="translate(283.771 284.055)">
            <path id="Trazado_115666" data-name="Trazado 115666" d="M760.244,708.527c-8.827-.867-17.923-1.364-26.394,1.264-4.637,1.439-9.616,4.8-9.484,9.658.078,2.82,1.927,5.344,2.108,8.159.267,4.154-3.273,7.758-7.214,9.1s-8.224.979-12.384.824a117.437,117.437,0,0,0-41.887,6.1c-5.66,1.915-12.114,5.582-12.1,11.557.008,3.353,2.272,6.4,5.137,8.141a23.08,23.08,0,0,0,9.592,2.746c3.424.374,6.945.507,10.134,1.807s6.051,4.112,6.217,7.552c.23,4.79-4.731,8.327-9.462,9.1s-9.615-.2-14.357.517-9.77,4.088-9.729,8.883c.047,5.465,6.411,8.626,11.867,8.933,7.9.444,15.607-2.309,23.481-3.091s17.029,1.162,20.906,8.059c1.736,3.088,2.559,7.225,5.836,8.567,3.814,1.562,7.626-1.858,11.28-3.765,5.7-2.978,12.292-2.281,18.831-1.493A180.618,180.618,0,0,0,801.233,704.06a35.915,35.915,0,0,1-14.465,5.262C777.992,710.6,769.072,709.394,760.244,708.527Z" transform="translate(-650.423 -704.06)" fill="#406b64"/>
          </g>
          <g id="Grupo_80306" data-name="Grupo 80306" transform="translate(74.938 255.854)">
            <path id="Trazado_115667" data-name="Trazado 115667" d="M431.175,821.439c-3.329-5.876-13.766-5.17-15.932-11.566-1.619-4.783,2.874-9.323,7.07-12.13s9.15-6.309,8.921-11.353c-.244-5.374-6.387-8.474-11.751-8.889-6.471-.5-12.883,1.183-19.223,2.576s-12.983,2.5-19.267.871-12.112-6.685-12.662-13.152c-.393-4.624,1.88-9.121,1.768-13.759-.18-7.485-6.662-13.588-13.767-15.948s-14.791-1.843-22.275-1.641-15.328-.025-21.886-3.637-11.273-11.629-8.766-18.684c1.367-3.846,4.535-6.72,6.911-10.04s3.962-7.923,1.813-11.394c-3.14-5.074-12.213-4.6-14.051-10.279-.924-2.856.643-5.978,2.79-8.077,3.908-3.823,9.851-5.889,10.7-11.966.525-3.749-.891-6.151-4.364-7.406-3.772-1.364-8.343-.864-12.277-1.407-.927-.128-1.846-.277-2.761-.435H273.243a180.953,180.953,0,0,0,155.84,179.19C431.7,828.98,433.167,824.953,431.175,821.439Z" transform="translate(-273.243 -653.124)" fill="url(#linear-gradient-4)"/>
          </g>
          <path id="Trazado_115668" data-name="Trazado 115668" d="M608.871,492.488a28.463,28.463,0,0,0-8.785,7.963c-2.2,3.32-3.266,7.564-2.093,11.369,1.5,4.878,6.48,9.118,5.119,14.038-.986,3.564-4.861,5.361-8.307,6.7l-22.147,8.622c-3.444,1.34-6.952,2.718-9.81,5.061s-5.009,5.858-4.778,9.546c.359,5.719,6.229,9.695,11.9,10.489s11.4-.641,17.123-.945c3.416-.182,6.993.082,9.962,1.78s5.15,5.139,4.491,8.5c-.639,3.261-3.565,5.464-5.919,7.81s-4.372,5.936-2.767,8.845c1.795,3.252,6.5,3.025,10.1,2.119,9.95-2.5,20.461-6.787,30.067-3.18,7.17,2.692,12.139,9.273,18.8,13.061,7.792,4.433,17.415,4.69,26.129,2.583s16.727-6.378,24.6-10.664c6.125-3.334,12.435-6.877,16.538-12.517s5.339-14,.963-19.431c-3.733-4.633-10.144-5.823-15.683-8s-11.269-7.14-10-12.952c1.041-4.766,6.127-7.229,10.313-9.736,3.407-2.041,6.635-4.624,8.528-8.117s2.214-8.036.005-11.337c-2.843-4.25-8.612-5.171-13.712-5.532s-10.8-.818-14.187-4.646c-2.439-2.755-3.306-6.461-5.957-9.1-2.465-2.451-5.94-4.05-8.975-5.7a45.97,45.97,0,0,0-14.522-4.921C639.661,481.29,622.943,483.582,608.871,492.488Z" transform="translate(-325.424 -321.342)" fill="#406b64"/>
          <g id="Grupo_80307" data-name="Grupo 80307" transform="translate(284.286 122.53)">
            <path id="Trazado_115669" data-name="Trazado 115669" d="M771.351,765.222c.249.314-.094-.13-.162-.2a2.078,2.078,0,0,0-1.071-.584c-.03,0-.06,0-.09-.006a.867.867,0,0,0-.391-.281,5.452,5.452,0,0,1-.833-.5,5.307,5.307,0,0,1-.73-.409,1.386,1.386,0,0,0-2.145.276,2.647,2.647,0,0,0,.858,3.39,5.929,5.929,0,0,0,1.494.79,1.839,1.839,0,0,1,.819.517,1.62,1.62,0,0,0,2.518-.325,2.173,2.173,0,0,0,.053-2.225A3.524,3.524,0,0,0,771.351,765.222Z" transform="translate(-702.352 -568.778)" fill="#52877e"/>
            <path id="Trazado_115670" data-name="Trazado 115670" d="M788.619,774.4a1.464,1.464,0,0,0-2.248-.628,1.216,1.216,0,0,0-.227.084,1.605,1.605,0,0,0-.338,2.492,2.364,2.364,0,0,0,.57.895,2.6,2.6,0,0,0,3.274.221,1.664,1.664,0,0,0,.337-2.612A1.548,1.548,0,0,0,788.619,774.4Z" transform="translate(-711.166 -573.514)" fill="#52877e"/>
            <path id="Trazado_115671" data-name="Trazado 115671" d="M800.741,790.517a1.948,1.948,0,0,1-.489-.973.919.919,0,0,0-1.014-.663.932.932,0,0,0-.8.909,6.01,6.01,0,0,0,.059,1.159,4.5,4.5,0,0,0,.1.5c.022.081.1.533.107.23a1.351,1.351,0,1,0,2.044-1.16Z" transform="translate(-716.996 -580.389)" fill="#52877e"/>
            <path id="Trazado_115672" data-name="Trazado 115672" d="M745.943,755.987a.916.916,0,0,0-.668.674,1.026,1.026,0,0,0,.7,1.239,1.215,1.215,0,0,0,1.281-.394,1.076,1.076,0,0,0,0-1.348A.963.963,0,0,0,745.943,755.987Z" transform="translate(-693.26 -565.628)" fill="#52877e"/>
            <path id="Trazado_115673" data-name="Trazado 115673" d="M679.612,498.3a20.517,20.517,0,0,1,3.011.729c.285.155.627.341,1,.55a3.06,3.06,0,0,1,1.149,2.2c.188,1.615-.147,2.971,1.313,4.1,1.9,1.465,6.209,1.249,6.682-1.59a3.914,3.914,0,0,0-.541-2.661.928.928,0,0,0,.078-.51c-.437-3.807-4.545-3.962-6.979-6.111a5.94,5.94,0,0,1-1.7-2.869,4.541,4.541,0,0,0-.884-1.841,6.8,6.8,0,0,0-4.459-1.6c-2.492-.077-6.79,1.3-7.1,4.274C670.827,496.444,677.134,497.759,679.612,498.3Z" transform="translate(-660.199 -446.409)" fill="#52877e"/>
            <path id="Trazado_115674" data-name="Trazado 115674" d="M659.8,484.349a1.952,1.952,0,0,0,1.157-.456,1.731,1.731,0,0,0,.749.06,1.639,1.639,0,0,0,1.223-.8,1.757,1.757,0,0,0,0-1.69,2.738,2.738,0,0,0-2.424-1.519,2.335,2.335,0,0,0-2.256,1.781,2.461,2.461,0,0,0,.048,1.359A1.743,1.743,0,0,0,659.8,484.349Z" transform="translate(-654.399 -442.506)" fill="#52877e"/>
            <path id="Trazado_115675" data-name="Trazado 115675" d="M663.472,466.792a1.32,1.32,0,0,0,.446-.1,1.242,1.242,0,0,0,.193.021,1.382,1.382,0,0,0,1.31-1.72,1.921,1.921,0,0,0-1.9-1.472c-.584.029-1.272.525-1.192,1.191a9.717,9.717,0,0,1,.038.976A1.115,1.115,0,0,0,663.472,466.792Z" transform="translate(-656.251 -435.175)" fill="#52877e"/>
            <path id="Trazado_115676" data-name="Trazado 115676" d="M670.031,519.767a2.144,2.144,0,0,0,.762-.712,1.169,1.169,0,0,0-.3-1.51,1.186,1.186,0,0,0-1.538.091,1.641,1.641,0,0,0-.429.625,1.143,1.143,0,0,0,.172,1.334A1.127,1.127,0,0,0,670.031,519.767Z" transform="translate(-658.957 -459.179)" fill="#52877e"/>
            <path id="Trazado_115677" data-name="Trazado 115677" d="M685.576,525.726a1.277,1.277,0,0,0,0-2.552A1.277,1.277,0,0,0,685.576,525.726Z" transform="translate(-666.077 -461.8)" fill="#52877e"/>
            <path id="Trazado_115678" data-name="Trazado 115678" d="M668.714,640.786a1.417,1.417,0,0,0,0,2.833A1.417,1.417,0,0,0,668.714,640.786Z" transform="translate(-658.491 -514.294)" fill="#52877e"/>
            <path id="Trazado_115679" data-name="Trazado 115679" d="M664.689,654.6a1.23,1.23,0,0,0-1.2-2.055l-.316.056a1.172,1.172,0,0,0,0,2.258l.316.056A1.26,1.26,0,0,0,664.689,654.6Z" transform="translate(-656.246 -519.529)" fill="#52877e"/>
            <path id="Trazado_115680" data-name="Trazado 115680" d="M665.479,665.543a.961.961,0,0,0,0,1.92A.961.961,0,0,0,665.479,665.543Z" transform="translate(-657.244 -525.344)" fill="#52877e"/>
            <path id="Trazado_115681" data-name="Trazado 115681" d="M803.171,530.066a180.049,180.049,0,0,0-38.931-97.381l-9.39-3.039a17.961,17.961,0,0,0-6.6-1.236,29.124,29.124,0,0,0-9.65-4.363c-3.591-.894-6.734-.888-9.592-3.533-2.431-2.25-4.609-4.286-7.725-5.568a33.836,33.836,0,0,0-8.864-2.074c-3.124-.381-6.709-1.085-9.715.15a21.737,21.737,0,0,0-3.671,2.335c-1.386.921-2.732,1.028-4.281,1.476a8.148,8.148,0,0,0-5.107,4.5c-.936,1.927-1.4,4.026-2.206,6-1.361,3.357-3.773,4.344-7.193,4.965-5.945,1.08-11.247,3.518-14.174,9.146-.946,1.818-2.553,5.147-.855,6.974a3.41,3.41,0,0,0,3.009.82c2.131-.177,4.193-.579,6.344-.6.911-.007,1.824.015,2.733.079,1.665.118,1.409.631,2,1.913a4.938,4.938,0,0,0,2.168,2.258c1.961,1.082,5.588.682,6.707,2.834.7,1.355.553,2.742,1.7,3.937a7.352,7.352,0,0,0,3.627,1.919,22.739,22.739,0,0,0,5.032.279,9.627,9.627,0,0,1,3.007.315c1.4.479,3.315,2.281,2.094,3.973a7.857,7.857,0,0,0-1.752,1.187c-.045.04-.085.083-.126.125a32.732,32.732,0,0,0-7.641,4.229,77.408,77.408,0,0,0-7.515,5.462c-2.683,2.271-4.8,5.042-7.318,7.468a13.372,13.372,0,0,1-8.922,3.832c-3.171.2-6.348-.082-9.5.437-4.919.809-9.647,3.9-9.52,9.38a7.021,7.021,0,0,0,2.105,5.009,6.322,6.322,0,0,0,2.68,1.359c.378.106,1.524.141,1.795.431.8.85-.365,3-.643,3.875l-1.775,5.587a30.055,30.055,0,0,0-1.705,5.677c-.217,2.149,1.29,3.268,3.215,3.7,1.6.359,2.885.075,3.539,1.86.432,1.178.446,2.131,1.418,3.039a6.2,6.2,0,0,0,4.932,1.278c-.527,1.946-.577,4.021.7,5.4a7.178,7.178,0,0,0,.6,2.693c.984,2.362,3.488,4.646,2.406,6.965-.634,1.359-2.232,1.9-3.57,2.579s-2.692,2.055-2.2,3.472c.686,1.978,3.842,1.466,5.3,2.969,1.5,1.549.375,4.144-1.013,5.8s-3.122,3.544-2.607,5.639c.447,1.815,2.473,2.817,4.339,2.926s3.712-.418,5.581-.486c6.3-.229,12.117,5.7,11.772,11.99-.111,2.023-.586,4.494,1.036,5.707,1.183.885,2.894.518,4.179-.212a26.138,26.138,0,0,1,3.787-2.283,5.311,5.311,0,0,1,6.1,8.116l1.366.985a2.733,2.733,0,0,0,.622,2.714c.713.834,1.784,1.045,2.677,1.6,1.412.875,1.685,2.07,2.242,3.526.9,2.345,2.306,3.4,4.554,4.437,2.923,1.349,5.83,2.786,8.806,4.012a9.907,9.907,0,0,0,6.528.77l7.557,3.183c1.719.724,4.166,1.221,5.056-.417l1.018,2.217,11.635.249c3.219.069,6.646.083,9.377-1.624s4.19-5.825,2.046-8.228c-.766-.858-1.892-1.41-2.417-2.433-.858-1.675.281-3.641,1.378-5.171l.541-.756a6.354,6.354,0,0,0,4.493-1.112.849.849,0,0,0,1.2.566,2.89,2.89,0,0,0,1.475-1.844,4.484,4.484,0,0,0,3.887-1.1,4.006,4.006,0,0,0,1.259-3.317c-.128-1.549-1-2.116.31-3.26a4.943,4.943,0,0,0,1.754-2.531,10.579,10.579,0,0,1,.267-1.9,4.715,4.715,0,0,1,.989-1.236c1.433-1.139,2.906-1.975,3.838-3.685a1.82,1.82,0,0,0-.182-2.034,2.17,2.17,0,0,0,.236-2.805c-.961-1.459-2.792-1.291-4.105-.479a1.992,1.992,0,0,0-.625.615c-2-.271-3.8-1.014-4.733-2.736-1.789-3.314,1.2-7.076,3.747-9.847,1.736-1.885,3.421-3.96,4.02-6.451a6.649,6.649,0,0,0-1.059-5.525,9.184,9.184,0,0,0,3.459-7.4,7.2,7.2,0,0,0-.407-2.009c-.2-.6-1-1.571-.973-2.176a3.014,3.014,0,0,1,.636-1.508l8.492.078a10.261,10.261,0,0,0,4.683-.693c1.428-.707,2.526-2.355,2.063-3.88A5.886,5.886,0,0,0,803.171,530.066Z" transform="translate(-651.352 -412.325)" fill="#52877e"/>
          </g>
          <g id="Grupo_80308" data-name="Grupo 80308" transform="translate(74.938 74.938)">
            <path id="Trazado_115682" data-name="Trazado 115682" d="M287.965,517.232c4.975-5.009,9.438-11.587,16.4-12.733,3.806-.627,7.7.556,11.544.231s8.1-3.254,7.485-7.063c-.424-2.639-2.942-4.347-4.412-6.579-3.256-4.944-.73-12.007,3.9-15.692s10.722-4.85,16.548-5.9l41.195-7.419c5.186-.934,10.542-1.935,14.908-4.885s7.5-8.411,6.083-13.488c-1.385-4.971-6.52-8.094-8.318-12.931-2.05-5.51.915-11.873,5.49-15.565s10.432-5.309,16.108-6.837l47.3-12.731c4.853-1.306,9.85-2.683,13.806-5.782s6.636-8.4,5.156-13.2c-1.936-6.283-9.359-8.634-15.594-10.719s-13.346-6.533-12.643-13.069c.627-5.821,7.314-9.384,8.477-15.122.9-4.422-1.732-8.421-5.388-11.369-.62-.006-1.239-.012-1.86-.012A180.916,180.916,0,0,0,273.243,507.283q0,8.039.691,15.905C278.663,523.855,284.308,520.914,287.965,517.232Z" transform="translate(-273.243 -326.367)" fill="url(#linear-gradient-2)"/>
          </g>
          <g id="Grupo_80309" data-name="Grupo 80309" transform="translate(100.966 145.229)">
            <path id="Trazado_115683" data-name="Trazado 115683" d="M505.361,630.05c-1.555-.5-3.389-1.692-2.97-3.27-1.518,1.107-3.69.1-5.018-1.227s-2.438-3.043-4.219-3.642c-1.646-.554-2.5.09-3.855,1.177a1.816,1.816,0,0,1-2.432-1.38,3.99,3.99,0,0,1,.926-3.026A14.579,14.579,0,0,0,489.625,616c1.211-2.881-1.333-6.382-4.431-6.791l-.219-1.915a6.474,6.474,0,0,1-6.1-.965,26.548,26.548,0,0,1-2.067-2.035,24.347,24.347,0,0,0-4.327-3.135l-4.065-2.511a59.944,59.944,0,0,0-11.013-5.792c.579.974-.785,2.1-1.908,1.945s-2.057-.942-3.15-1.241c-1.7-.465-3.445.313-5.02,1.144a2.865,2.865,0,0,0-.838-1.009,3.845,3.845,0,0,0-3.994-.1c-2.607,1.348-3.2,3.548-2.694,5.327-1.312.841-2.851,1.746-3.706,1.56-.815-.177-1.944-2.137-3.034-2.543a5.2,5.2,0,0,0-4.257.211l-9.5-1.622c-1.2-1.573-.7-3.837.071-5.662s1.78-3.726,1.416-5.673c-.374-2-2.086-3.431-3.686-4.687l-4.733.481q-.029-1.124-.059-2.246a1.394,1.394,0,0,1-1.928-.644,4.04,4.04,0,0,1-.216-2.27q.288-2.948.575-5.9a5.377,5.377,0,0,0-.247-2.88,1.852,1.852,0,0,0-2.412-.989q-.057-.825-.114-1.649a3.561,3.561,0,0,0-4.081.567,10.428,10.428,0,0,0-2.414,3.655l-2.1,4.437-4.576-.154a2.611,2.611,0,0,0-2.438-3.42c-2.484-2.117-2.915-3.955-5.037-6.436a8.316,8.316,0,0,1-2.233-4.024c-.295-2.064.87-4.023,1.988-5.782,1.107-1.742,2.337-3.589,4.257-4.345,2.168-.854,4.59-.09,6.916.052s5.2-.9,5.427-3.218c.285,1.712,2.8,1.9,4.3,1.032s2.745-2.342,4.465-2.582a5.037,5.037,0,0,1,4.052,1.677c1.077,1.065,1.876,2.377,2.881,3.511a12.094,12.094,0,0,0,1.183,1.158.744.744,0,0,0,.129.413c.907,1.378.427,3.075.859,4.6a3.69,3.69,0,0,0,2.642,2.7,2.916,2.916,0,0,0,3.139-1.206,5.558,5.558,0,0,0,.422-2.022,18.377,18.377,0,0,0,1.942-1.846l4.742-2.064c1.339-2.851,3.612-4.659,4.951-7.51l1.236-2.632q.509-1.085,1.018-2.169l2.122-4.518c1.266-2.695,2.53-5.4,3.562-8.188a11.416,11.416,0,0,0,4.25-6.77c.527-2.817-.335-5.654.087-8.459.452-3,2.346-5.488,2.224-8.629-.113-2.907-1.752-5.282-2.285-8.069-.568-2.968.626-5.969-.287-8.932a6.483,6.483,0,0,0-5.531-4.736c-1.552-.229-2.248-.161-2.84-1.618a29.209,29.209,0,0,1-.859-3.19c-.57-2.05-1.461-4.11-3.365-5.255a8.255,8.255,0,0,0-4.506-.92c-1.129.024-3.713.559-4.012-1.005a2.238,2.238,0,0,0-4.051-.529c-2.222,4.444-7.5,3.011-10.583.4a2.231,2.231,0,0,0-3.752,1.554c-.218,1.99-.417,4.552-2.085,5.935-1.731,1.435-3.136.14-4.053-1.356-1.788-2.917-2.2-6.5-3.569-9.6-1.4-3.167-4-4.2-7.3-4.423a20.516,20.516,0,0,1-11.294-3.753,1.888,1.888,0,0,0-2.759,1.122c.14-.671-1.158-2.153-1.618-2.693a5.056,5.056,0,0,0-2.39-1.67c-2.211-.634-4.509.59-5.941,2.22-1.651,1.878-1.974,4.718-3.867,6.385-1.794,1.579-4.566,1.673-6.813,1.946a20.6,20.6,0,0,0-6.264,1.449,25.5,25.5,0,0,0-5.952,4.5,17.392,17.392,0,0,1-6.5,3.451,6.109,6.109,0,0,0-4.319,4.242c-.668,2.438.4,5.165-1.315,7.275-2.115,2.6-4.858,4.828-7.229,7.2-2.217,2.217-4.616,4.352-6.678,6.713-1.294,1.482-2.073,3.282-1.312,5.209a7.205,7.205,0,0,0,2.84,3.055c1.368.958,3.788,1.763,3,3.735-.742,1.859-2.3,3.109-1.921,5.315.367,2.107,2.208,3.253,4.194,3.543,1.273.186,2.5-.244,3.75-.134,1.8.158,2.2,1.356,3.389,2.468a5.555,5.555,0,0,0,3.1,1.473c1.581.249,2.829-.047,3.644,1.61,1.092,2.221,1.1,4.614,2.65,6.667.135.178.277.346.424.505-.123,3.938-.1,8.011,1.662,11.51a7.1,7.1,0,0,0,2.778,3.136,3.855,3.855,0,0,0,4.031-.083c-1.07,1.2-.641,3.177.43,4.372a14.528,14.528,0,0,0,4,2.623,21.141,21.141,0,0,1,10.323,14.212c.351,1.8.482,3.687,1.371,5.286s2.869,2.8,4.551,2.081l.573,1.074a10.805,10.805,0,0,0,4.576,4.815,22.184,22.184,0,0,0,6.512,1.629l8.886,1.284a19.919,19.919,0,0,1,12.922,5.854,9.862,9.862,0,0,1,3.189,3.681c.54,1.358.478,2.964,1.335,4.149a6.026,6.026,0,0,0,3.586,1.917,54.229,54.229,0,0,0,14.791,1.612l1.844,4.077c2.2,4.873-1.364,10.386-5.46,13.823-1.421,1.192-3.1,2.178-4.029,3.785a9.665,9.665,0,0,0-.879,5.172,14.581,14.581,0,0,1-.391,5.27c-.581,1.675-2.107,3.175-3.878,3.086l1.362,5.792c-.764.845.324,2.384,1.22,3.088s2.047,1.1,2.75,2c1.014,1.293.76,3.123.68,4.764s.312,3.636,1.855,4.2c1.576.579,3.7-.639,4.852.58.608.643.574,1.664,1.026,2.424a2.113,2.113,0,0,0,3.928-1.035,5.782,5.782,0,0,0,4.538,1.318c.868-.127,1.324.284,1.77,1.04a6.165,6.165,0,0,1,.636,2.532l.542,5.236a4.463,4.463,0,0,1-.24,2.562c-1.148,2.164-5.211,1.655-5.819,4.028-.457,1.781,1.594,3.157,2.186,4.9.834,2.45-1.339,4.815-3.329,6.469s-4.228,3.908-3.546,6.4a3.3,3.3,0,0,0,2.793,2.186,8.268,8.268,0,0,0,3.774-.556l8.169-2.546c1.966-.613,4.266-1.594,4.578-3.629,1.67,0,2.918-1.534,3.644-3.038s1.252-3.207,2.555-4.251c2.79-2.236,7.066-.1,10.442-1.283,2.364-.826,3.846-3.1,5.639-4.845s4.722-3.024,6.709-1.5l3.958-3.583c-1.15-1.624.852-4.072,2.322-5.414s3.354-2.358,4.229-4.146c.687-1.4.627-3.046,1.057-4.546.691-2.408,2.571-4.259,4.38-5.993l10.314-9.893c-.984.308-1.861-.952-1.644-1.96a5.178,5.178,0,0,1,1.812-2.443,3.591,3.591,0,0,0,1.441-2.62C508.836,631.293,506.916,630.547,505.361,630.05Z" transform="translate(-320.253 -453.322)" fill="#52877e"/>
            <path id="Trazado_115684" data-name="Trazado 115684" d="M515.615,659.97a2.409,2.409,0,0,0,2.183-2.231c-.034-1.533-1.807-2.387-3.328-2.579s-3.236-.149-4.345-1.208a4.171,4.171,0,0,0-2.318-2.152c-2.509-1.323-7-4.955-9.95-4.858-1.4.046-3.369,1.438-3.232,3.029.121,1.413,2.209,2.567,3.105,1.041q-.291,2.059-.581,4.118a11.912,11.912,0,0,1,12.753,1.5c.871.737,1.632,1.6,2.545,2.286A4.528,4.528,0,0,0,515.615,659.97Z" transform="translate(-398.077 -539.74)" fill="#52877e"/>
            <path id="Trazado_115685" data-name="Trazado 115685" d="M540,671.8c1.429,1.25,3.593,1.358,5.42,1.474l6.7.427c.822.052,1.908-.085,2.065-.894.109-.564-.35-1.07-.8-1.423C550.262,668.948,542.314,667.4,540,671.8Z" transform="translate(-418.334 -549.591)" fill="#52877e"/>
            <path id="Trazado_115686" data-name="Trazado 115686" d="M546.374,657l0,0,.014.006Z" transform="translate(-421.177 -544.231)" fill="#52877e"/>
            <path id="Trazado_115687" data-name="Trazado 115687" d="M545.533,657.5a7.131,7.131,0,0,0-1.165-.647l1.153.644a2.188,2.188,0,0,1-1.167-.65,2.661,2.661,0,0,0-.908-.206,1.493,1.493,0,0,0-1.608,1.332c.031.943,1.16,1.384,2.081,1.59l2.868.641c.648.144,1.442.244,1.869-.265a1.3,1.3,0,0,0-.447-1.786,4.483,4.483,0,0,0-1.988-.528A5.947,5.947,0,0,1,545.533,657.5Z" transform="translate(-419.152 -544.067)" fill="#52877e"/>
            <path id="Trazado_115688" data-name="Trazado 115688" d="M519.992,674.018a1.676,1.676,0,0,0-1.163,1.789,5.842,5.842,0,0,0,2.086,1.82,2.005,2.005,0,0,0,2.483-.615,1.938,1.938,0,0,0-.576-2.331,4.525,4.525,0,0,0-2.419-.868l.234.173A1.521,1.521,0,0,0,519.992,674.018Z" transform="translate(-408.877 -551.734)" fill="#52877e"/>
            <path id="Trazado_115689" data-name="Trazado 115689" d="M477.3,759.953a5.162,5.162,0,0,0-2.447-.68l.615-.072a2.1,2.1,0,1,0-1.59,3.881,4.23,4.23,0,0,0,2.155.035,2.614,2.614,0,0,0,1.958-.938A1.773,1.773,0,0,0,477.3,759.953Z" transform="translate(-388.222 -589.774)" fill="#52877e"/>
            <path id="Trazado_115690" data-name="Trazado 115690" d="M460.98,759.5a1.181,1.181,0,0,0-1.256.319,1.373,1.373,0,0,0,.341,1.921,1.7,1.7,0,0,0,2.028-.21,2.254,2.254,0,0,0,.636-2.01Z" transform="translate(-382.388 -589.95)" fill="#52877e"/>
            <path id="Trazado_115691" data-name="Trazado 115691" d="M466.464,750.793c-.91-.276-2.175-.351-2.531.532-.313.776.507,1.629,1.343,1.682a4.033,4.033,0,0,0,2.312-.863l-.688.725a.717.717,0,0,0,1.158-.183,1.148,1.148,0,0,0-.335-1.278A3.118,3.118,0,0,0,466.464,750.793Z" transform="translate(-384.351 -586.009)" fill="#52877e"/>
            <path id="Trazado_115692" data-name="Trazado 115692" d="M591.185,709.11a3.078,3.078,0,0,0-.448-.008l.224.084a.745.745,0,0,0-.317.267,1.43,1.43,0,0,0,.425,1.76,4.642,4.642,0,0,0,1.8.776,3.475,3.475,0,0,1,1.727.9,3.827,3.827,0,0,0-2.653-3.625A.932.932,0,0,0,591.185,709.11Z" transform="translate(-440.865 -567.478)" fill="#52877e"/>
            <path id="Trazado_115693" data-name="Trazado 115693" d="M587.153,699.408l-.066.041,2.68-.7a2.834,2.834,0,0,0-2.268-1.83c-1.024-.033-1.987,1.2-1.419,2.049A1.119,1.119,0,0,0,587.153,699.408Z" transform="translate(-438.823 -562.048)" fill="#52877e"/>
            <path id="Trazado_115694" data-name="Trazado 115694" d="M531.315,644.265a.925.925,0,1,0-.925-.925A.935.935,0,0,0,531.315,644.265Z" transform="translate(-414.043 -537.72)" fill="#52877e"/>
            <path id="Trazado_115695" data-name="Trazado 115695" d="M534.859,651.7a1.3,1.3,0,0,0-1.214-.932,1.184,1.184,0,0,0-1.131.861,1.153,1.153,0,0,0-.019.547,1.011,1.011,0,0,0,.148.4c0,.011,0,.024.039.066.008.012.013.024.022.035a.814.814,0,0,0,.08.078,1.234,1.234,0,0,0,1.248.4A1.2,1.2,0,0,0,534.859,651.7Z" transform="translate(-414.972 -541.446)" fill="#52877e"/>
            <path id="Trazado_115696" data-name="Trazado 115696" d="M524.855,651.59a.94.94,0,0,0,.591-.541,1.066,1.066,0,0,0,.063-1.535,1.043,1.043,0,0,0-1.638.212,1.426,1.426,0,0,0-.06,1.44A.926.926,0,0,0,524.855,651.59Z" transform="translate(-411.033 -540.752)" fill="#52877e"/>
            <path id="Trazado_115697" data-name="Trazado 115697" d="M576.553,678.523l.255-.122a.8.8,0,1,0-1.089-1.089l-.122.255A.705.705,0,0,0,576.553,678.523Z" transform="translate(-434.184 -553.122)" fill="#52877e"/>
            <path id="Trazado_115698" data-name="Trazado 115698" d="M572.534,686.293a.635.635,0,0,0,0-1.268A.635.635,0,0,0,572.534,686.293Z" transform="translate(-432.58 -556.738)" fill="#52877e"/>
            <path id="Trazado_115699" data-name="Trazado 115699" d="M563.646,682.929a.57.57,0,0,0,0-1.14A.57.57,0,0,0,563.646,682.929Z" transform="translate(-428.641 -555.294)" fill="#52877e"/>
            <path id="Trazado_115700" data-name="Trazado 115700" d="M581.28,683.362a.882.882,0,0,0,0-1.763A.882.882,0,0,0,581.28,683.362Z" transform="translate(-436.377 -555.209)" fill="#52877e"/>
            <path id="Trazado_115701" data-name="Trazado 115701" d="M590.523,683.751a.968.968,0,0,0,0-1.935A.968.968,0,0,0,590.523,683.751Z" transform="translate(-440.465 -555.306)" fill="#52877e"/>
          </g>
          <g id="Grupo_80310" data-name="Grupo 80310" transform="translate(116.792 116.792)" opacity="0.15" style="mix-blend-mode: multiply;isolation: isolate">
            <path id="Trazado_115702" data-name="Trazado 115702" d="M603.626,401.961A180.917,180.917,0,0,1,348.837,656.75,180.917,180.917,0,1,0,603.626,401.961Z" transform="translate(-348.837 -401.961)" fill="#45736b"/>
          </g>
          <g id="Grupo_80311" data-name="Grupo 80311" transform="translate(74.938 74.938)" opacity="0.05" style="mix-blend-mode: multiply;isolation: isolate">
            <path id="Trazado_115703" data-name="Trazado 115703" d="M463.074,335.282a180.279,180.279,0,0,1,123.391,48.61,180.915,180.915,0,1,0-255.7,255.7A180.915,180.915,0,0,1,463.074,335.282Z" transform="translate(-273.243 -326.367)" fill="#45736b"/>
          </g>
        </g>
        <g id="Grupo_80331" data-name="Grupo 80331" transform="translate(499.192 159.188)">
          <g id="Grupo_80318" data-name="Grupo 80318" transform="translate(44.867 39.926)">
            <g id="Grupo_80316" data-name="Grupo 80316">
              <path id="Trazado_115704" data-name="Trazado 115704" d="M881.758,265.7l-1.825-1.137-56.424,87.747,4.32,2.691Z" transform="translate(-823.509 -229.09)" fill="#e8e5d4"/>
              <path id="Trazado_115705" data-name="Trazado 115705" d="M928.315,249.975l-5.263,2.665a1.8,1.8,0,0,0-.138,3.132l5.19,3.233a1.8,1.8,0,0,0,2.751-1.505l.071-5.9A1.8,1.8,0,0,0,928.315,249.975Z" transform="translate(-867.498 -222.492)" fill="#d6d3c4"/>
              <g id="Grupo_80313" data-name="Grupo 80313" transform="translate(22.762 29.984)">
                <path id="Trazado_115706" data-name="Trazado 115706" d="M883.775,254.65l12.005,1.6-30.751,1.639a.388.388,0,0,1-.071-.772Z" transform="translate(-864.62 -254.65)" fill="#f0eddb"/>
                <path id="Trazado_115707" data-name="Trazado 115707" d="M884.046,260.394l11.768-2.863-30.751,1.639a.388.388,0,0,0,.012.775Z" transform="translate(-864.654 -255.936)" fill="#e8e5d4"/>
              </g>
              <g id="Grupo_80314" data-name="Grupo 80314" transform="translate(62.793 37.105)">
                <path id="Trazado_115708" data-name="Trazado 115708" d="M943.646,277.583l-6.725-10.072,12.088,28.323a.388.388,0,0,0,.724-.277Z" transform="translate(-936.921 -267.511)" fill="#e8e5d4"/>
                <path id="Trazado_115709" data-name="Trazado 115709" d="M939.541,279.335l-2.62-11.824,12.088,28.323a.388.388,0,0,1-.7.331Z" transform="translate(-936.921 -267.511)" fill="#f0eddb"/>
              </g>
              <g id="Grupo_80315" data-name="Grupo 80315" transform="translate(63.097)">
                <path id="Trazado_115710" data-name="Trazado 115710" d="M945.659,218.639l-8.188,8.924,16.281-26.139a.388.388,0,0,1,.673.384Z" transform="translate(-937.471 -200.826)" fill="#f0eddb"/>
                <path id="Trazado_115711" data-name="Trazado 115711" d="M941.869,215.947l-4.4,11.284,16.281-26.139a.388.388,0,0,0-.642-.435Z" transform="translate(-937.471 -200.495)" fill="#e8e5d4"/>
              </g>
            </g>
            <g id="Grupo_80317" data-name="Grupo 80317" transform="translate(54.568 27.287)">
              <path id="Trazado_115712" data-name="Trazado 115712" d="M926.03,253.926a5.657,5.657,0,0,0,3.654.166,4.425,4.425,0,0,0,2.045-1.365l.013-1.125a1.8,1.8,0,0,0-2.612-1.627l-5.237,2.653A6.788,6.788,0,0,0,926.03,253.926Z" transform="translate(-922.881 -249.778)" fill="none"/>
              <path id="Trazado_115713" data-name="Trazado 115713" d="M925.214,256.223a6.788,6.788,0,0,1-2.137-1.3l-.025.013a1.8,1.8,0,0,0-.138,3.132l5.19,3.233a1.8,1.8,0,0,0,2.751-1.505l.058-4.773a4.425,4.425,0,0,1-2.045,1.365A5.657,5.657,0,0,1,925.214,256.223Z" transform="translate(-922.066 -252.075)" fill="#ccc9bb"/>
            </g>
          </g>
          <g id="Grupo_80324" data-name="Grupo 80324" transform="translate(16.397)">
            <g id="Grupo_80322" data-name="Grupo 80322">
              <path id="Trazado_115714" data-name="Trazado 115714" d="M841.762,209.2l-2.183-1.36-67.49,104.957,5.168,3.219Z" transform="translate(-772.089 -163.846)" fill="#e8e5d4"/>
              <path id="Trazado_115715" data-name="Trazado 115715" d="M897.45,190.388l-6.295,3.189a2.152,2.152,0,0,0-.165,3.746l6.208,3.867a2.152,2.152,0,0,0,3.29-1.8l.086-7.055A2.152,2.152,0,0,0,897.45,190.388Z" transform="translate(-824.705 -155.953)" fill="#d6d3c4"/>
              <g id="Grupo_80319" data-name="Grupo 80319" transform="translate(25.332 37.426)">
                <path id="Trazado_115716" data-name="Trazado 115716" d="M842.647,195.98l14.359,1.909-38.757,2.066a.388.388,0,0,1-.071-.772Z" transform="translate(-817.841 -195.98)" fill="#f0eddb"/>
                <path id="Trazado_115717" data-name="Trazado 115717" d="M842.965,202.851l14.075-3.424-38.757,2.066a.388.388,0,0,0,.012.775Z" transform="translate(-817.875 -197.518)" fill="#e8e5d4"/>
              </g>
              <g id="Grupo_80320" data-name="Grupo 80320" transform="translate(75.108 45.944)">
                <path id="Trazado_115718" data-name="Trazado 115718" d="M915.789,223.411l-8.045-12.047,15.236,35.7a.388.388,0,0,0,.724-.277Z" transform="translate(-907.744 -211.364)" fill="#e8e5d4"/>
                <path id="Trazado_115719" data-name="Trazado 115719" d="M910.878,225.507l-3.134-14.143,15.236,35.7a.388.388,0,0,1-.7.331Z" transform="translate(-907.744 -211.364)" fill="#f0eddb"/>
              </g>
              <g id="Grupo_80321" data-name="Grupo 80321" transform="translate(75.473)">
                <path id="Trazado_115720" data-name="Trazado 115720" d="M918.2,151.583,908.4,162.256l20.52-32.944a.388.388,0,0,1,.673.384Z" transform="translate(-908.402 -128.715)" fill="#f0eddb"/>
                <path id="Trazado_115721" data-name="Trazado 115721" d="M913.663,148.428l-5.261,13.5,20.52-32.944a.388.388,0,0,0-.641-.435Z" transform="translate(-908.402 -128.384)" fill="#e8e5d4"/>
              </g>
            </g>
            <g id="Grupo_80323" data-name="Grupo 80323" transform="translate(65.271 34.2)">
              <path id="Trazado_115722" data-name="Trazado 115722" d="M894.716,195.115a6.768,6.768,0,0,0,4.371.2,5.3,5.3,0,0,0,2.445-1.632l.017-1.346a2.152,2.152,0,0,0-3.124-1.946l-6.265,3.173A8.144,8.144,0,0,0,894.716,195.115Z" transform="translate(-890.95 -190.153)" fill="none"/>
              <path id="Trazado_115723" data-name="Trazado 115723" d="M893.741,197.863a8.143,8.143,0,0,1-2.556-1.554l-.03.016a2.152,2.152,0,0,0-.165,3.746l6.208,3.867a2.152,2.152,0,0,0,3.29-1.8l.069-5.709a5.3,5.3,0,0,1-2.445,1.632A6.767,6.767,0,0,1,893.741,197.863Z" transform="translate(-889.975 -192.901)" fill="#ccc9bb"/>
            </g>
          </g>
          <g id="Grupo_80330" data-name="Grupo 80330" transform="translate(0 53.437)">
            <g id="Grupo_80328" data-name="Grupo 80328">
              <path id="Trazado_115724" data-name="Trazado 115724" d="M782.338,264.984l-1.249-.778-38.615,60.052,2.957,1.842Z" transform="translate(-742.474 -242.442)" fill="#e8e5d4"/>
              <path id="Trazado_115725" data-name="Trazado 115725" d="M814.2,254.222l-3.6,1.824a1.231,1.231,0,0,0-.095,2.143l3.552,2.213a1.232,1.232,0,0,0,1.882-1.03l.049-4.037A1.231,1.231,0,0,0,814.2,254.222Z" transform="translate(-772.579 -237.926)" fill="#d6d3c4"/>
              <g id="Grupo_80325" data-name="Grupo 80325" transform="translate(18.627 18.008)">
                <path id="Trazado_115726" data-name="Trazado 115726" d="M786.176,257.422l8.216,1.092-17.867.952a.388.388,0,0,1-.071-.772Z" transform="translate(-776.116 -257.422)" fill="#f0eddb"/>
                <path id="Trazado_115727" data-name="Trazado 115727" d="M786.373,261.353l8.053-1.959-17.867.952a.388.388,0,0,0,.011.775Z" transform="translate(-776.15 -258.302)" fill="#e8e5d4"/>
              </g>
              <g id="Grupo_80326" data-name="Grupo 80326" transform="translate(42.974 22.881)">
                <path id="Trazado_115728" data-name="Trazado 115728" d="M824.694,273.117l-4.6-6.893,7.023,16.456a.388.388,0,0,0,.724-.276Z" transform="translate(-820.091 -266.224)" fill="#e8e5d4"/>
                <path id="Trazado_115729" data-name="Trazado 115729" d="M821.884,274.316l-1.793-8.092,7.023,16.456a.388.388,0,0,1-.7.332Z" transform="translate(-820.091 -266.224)" fill="#f0eddb"/>
              </g>
              <g id="Grupo_80327" data-name="Grupo 80327" transform="translate(43.182)">
                <path id="Trazado_115730" data-name="Trazado 115730" d="M826.071,234.907l-5.6,6.107,9.46-15.188a.388.388,0,0,1,.673.384Z" transform="translate(-820.467 -225.229)" fill="#f0eddb"/>
                <path id="Trazado_115731" data-name="Trazado 115731" d="M823.477,232.96l-3.01,7.723,9.46-15.188a.388.388,0,0,0-.642-.435Z" transform="translate(-820.467 -224.898)" fill="#e8e5d4"/>
              </g>
            </g>
            <g id="Grupo_80329" data-name="Grupo 80329" transform="translate(37.345 16.162)">
              <path id="Trazado_115732" data-name="Trazado 115732" d="M812.636,256.927a3.869,3.869,0,0,0,2.5.114,3.03,3.03,0,0,0,1.4-.934l.009-.77a1.231,1.231,0,0,0-1.787-1.113l-3.585,1.815A4.657,4.657,0,0,0,812.636,256.927Z" transform="translate(-810.482 -254.088)" fill="none"/>
              <path id="Trazado_115733" data-name="Trazado 115733" d="M812.078,258.5a4.658,4.658,0,0,1-1.462-.889l-.017.009a1.231,1.231,0,0,0-.095,2.143l3.552,2.213a1.232,1.232,0,0,0,1.882-1.03l.039-3.267a3.031,3.031,0,0,1-1.4.934A3.869,3.869,0,0,1,812.078,258.5Z" transform="translate(-809.924 -255.66)" fill="#ccc9bb"/>
            </g>
          </g>
        </g>
        <g id="Grupo_80332" data-name="Grupo 80332" transform="translate(373.727 186.682)">
          <path id="Trazado_115734" data-name="Trazado 115734" d="M553.353,234.593c-.568-1.8.868-3.567,2.266-4.829s3.011-2.729,2.907-4.61c-.1-1.72-1.673-3.026-3.313-3.556a46.133,46.133,0,0,0-5.092-.852c-1.689-.344-3.444-1.2-4.1-2.791-.746-1.8.209-3.924,1.653-5.237a26,26,0,0,1,5-3.008c1.7-.956,3.366-2.276,3.917-4.148.811-2.752-1.209-5.72-3.829-6.887s-5.635-.948-8.47-.507c-2.221.346-5.007.579-6.2-1.326a4.239,4.239,0,0,1,.085-3.948c.575-1.246,1.448-2.338,2.01-3.591a8.03,8.03,0,0,0-12.5-9.441,8.141,8.141,0,0,0-1.555,10.206c1.188,1.87,3.25,3.474,3.164,5.688-.09,2.3-2.444,3.75-4.517,4.754s-4.444,2.388-4.623,4.684c-.18,2.319,2.009,4.072,4.038,5.21s4.372,2.4,4.887,4.67c.558,2.454-1.34,4.756-3.269,6.372-1.961,1.643-4.108,3.066-5.963,4.829a12.139,12.139,0,0,0-3.88,6.471,6.5,6.5,0,0,0,2.706,6.686,14.5,14.5,0,0,0,4.685,1.24c1.6.311,3.293.964,4.052,2.4a11.408,11.408,0,0,1,.7,3.421,7.646,7.646,0,0,0,3.971,5.378c2.358,1.211,4.15.462,6.556.3,2.442-.169,4.4.265,6.76-.862a21.516,21.516,0,0,0,3.43-2.211l6.355-4.692c1.555-1.148,3.3-2.77,2.851-4.651C557.487,237.442,554.069,236.857,553.353,234.593Z" transform="translate(-515.868 -178.04)" fill="#548c83"/>
          <path id="Trazado_115735" data-name="Trazado 115735" d="M559.8,277.664l-.628-.44-8.893,5.932-.176-16.741h-1.313l-.1,9.1-8.826-5.887-.628.44,9.44,6.93-.382,40.282H550.6l-.31-32.639Z" transform="translate(-526.296 -217.485)" fill="#3f6962"/>
        </g>
        <g id="Grupo_80333" data-name="Grupo 80333" transform="translate(391.531 147.247)">
          <path id="Trazado_115736" data-name="Trazado 115736" d="M563.887,207.658c.3-1.364,1.014-2.7.807-4.077-.258-1.716-1.881-2.923-3.538-3.441s-3.429-.543-5.109-.978a10.728,10.728,0,0,1-3.677-19.017c2.024-1.493,4.5-2.226,6.706-3.429s4.3-3.159,4.49-5.667c.2-2.6-1.7-4.9-3.814-6.426s-4.558-2.626-6.366-4.5c-4.07-4.224-3.226-12.09,1.647-15.356,2.339-1.567,5.211-2.085,7.78-3.238s5.054-3.392,4.986-6.208c-.072-3.01-2.893-5.079-4.749-7.45a13.088,13.088,0,1,1,22.716-3.917c-.821,2.456-2.35,4.612-3.367,6.994s-1.469,5.258-.136,7.478c3.18,5.293,12.63,2.23,16.506,7.037,2.226,2.761,1.452,6.95-.44,9.949s-4.7,5.317-6.733,8.223-3.207,6.908-1.4,9.959c1.314,2.22,3.832,3.357,5.982,4.782s4.209,3.738,3.707,6.269c-.893,4.5-8.478,4.724-9.66,9.162-.706,2.651,1.343,5.179,1.973,7.849C596.023,217.855,560.71,222.059,563.887,207.658Z" transform="translate(-548.024 -106.816)" fill="#6c9c94"/>
          <path id="Trazado_115737" data-name="Trazado 115737" d="M600.122,258.117l-.686-.48-9.711,6.477-.192-18.281H588.1l-.113,9.94-9.638-6.429-.686.48,10.309,7.568-.417,43.986h2.525l-.338-35.641Z" transform="translate(-561.252 -168.864)" fill="#527872"/>
        </g>
        <g id="Grupo_80335" data-name="Grupo 80335" transform="translate(206.678 314.962)">
          <path id="Trazado_115738" data-name="Trazado 115738" d="M217.493,454.421c-3.787-8.5-4.821-18.671-.615-26.942,3.356-6.6,9.715-11.335,16.654-13.992S248,410.063,255.44,409.82a166.693,166.693,0,0,1,26.009,1.186c3.488.434,9.923,1.391,11.742,4.39,1.561,2.572,1,5.841.321,8.762-3.343,14.486-10.634,28.51-16.764,42.054-3.03,6.7-6.762,13.637-13.253,17.127C243.866,493.892,224.426,469.98,217.493,454.421Z" transform="translate(-214.157 -409.731)" fill="#78b0a6"/>
          <g id="Grupo_80334" data-name="Grupo 80334" transform="translate(3.187 8.865)">
            <path id="Trazado_115739" data-name="Trazado 115739" d="M293.314,431.681a110.457,110.457,0,0,1-25.367,40.761c-3.139,3.2-6.68,6.31-11.041,7.329a17.936,17.936,0,0,1-10.931-1.319,53.452,53.452,0,0,1-9.587-5.738L219.912,461.22c.05.116.1.232.15.347,6.932,15.559,26.373,39.471,46,28.918,6.491-3.489,10.222-10.431,13.252-17.127,6.13-13.544,13.421-27.568,16.764-42.054a18.9,18.9,0,0,0,.648-5.562,6.442,6.442,0,0,0-1.266,1.27A16.79,16.79,0,0,0,293.314,431.681Z" transform="translate(-219.912 -425.742)" fill="#6ea198"/>
          </g>
        </g>
        <g id="Grupo_80336" data-name="Grupo 80336" transform="translate(341.377 294.809)">
          <path id="Trazado_115740" data-name="Trazado 115740" d="M631.7,643.182c.713-7.352,6.611-13.206,13.026-16.867s13.623-5.8,19.934-9.639a42.7,42.7,0,0,0,9.123-65.538c-5.551-5.98-13.225-11.1-14.516-19.156-1.468-9.163,6.08-17.074,13.141-23.1s14.96-13.282,14.5-22.551c-.466-9.479-9.359-15.921-16.807-21.8s-14.882-15.145-11.283-23.927c3.93-9.59,17.342-10.206,26.172-15.527a181.914,181.914,0,0,0-47.773-47.051c-7.913-1.93-15.892-5.311-24.15-4.6-18.756,1.619-42.39,15.55-41.578,36.865.462,12.133,9.673,22.475,20.4,28.166s22.943,7.709,34.782,10.4,23.963,6.377,32.93,14.564,13.824,22.017,8.367,32.863c-5.8,11.536-21.409,17.2-23.656,29.916-2.978,16.846,19.6,27.776,22.435,44.646,2.555,15.186-12.3,28.227-27.262,31.862s-30.79,1.343-45.94,4.095-31.09,13.5-31.231,28.9c-.057,6.193,2.493,12.193,2.4,18.386-.233,15.879-17.619,26.485-33.474,27.382s-31.393-4.56-47.254-5.351c-10.805-.538-24.117,3.2-26.359,13.787-.083.388-.145.777-.191,1.167A181.066,181.066,0,0,0,647.7,670.857C640.608,662.017,630.646,654.041,631.7,643.182Z" transform="translate(-457.439 -373.331)" fill="#a2e8f5"/>
        </g>
        <g id="Grupo_80338" data-name="Grupo 80338" transform="translate(461.748 237.884)">
          <path id="Trazado_115741" data-name="Trazado 115741" d="M713.961,270.79a31.018,31.018,0,0,1,22.11,15.343,34.437,34.437,0,0,1,3.824,19.18,63.407,63.407,0,0,1-4.73,18.484c-1.03,2.607-2.232,5.293-4.535,6.9-3.4,2.374-8.245,1.776-12.573.863-11.218-2.365-20.629-6.425-32.623-11.463-4.113-1.728-8.169-4.535-9.825-8.562-1.347-3.276-.7-6.836.28-10.044,3.838-12.621,12.486-25.084,25.562-29.536A27.047,27.047,0,0,1,713.961,270.79Z" transform="translate(-674.845 -270.519)" fill="#8dc2b9"/>
          <g id="Grupo_80337" data-name="Grupo 80337" transform="translate(0 0.607)">
            <path id="Trazado_115742" data-name="Trazado 115742" d="M711.176,324.717c-6.1-2.768-12.028-6.33-16.008-11.017a22.316,22.316,0,0,1-3.737-23.25,33.008,33.008,0,0,1,4.032-7.007,58.56,58.56,0,0,1,4.625-5.451c.862-.911,1.749-1.807,2.647-2.695.578-.572,2.289-1.606,2.334-2.41a1.463,1.463,0,0,0-.623-1.272,26.763,26.763,0,0,0-2.994.828c-13.076,4.452-21.724,16.915-25.562,29.536-.976,3.208-1.627,6.769-.28,10.044,1.656,4.027,5.712,6.834,9.825,8.562,11.994,5.038,21.4,9.1,32.623,11.463,3.775.8,7.94,1.352,11.2-.095C723.267,329.454,717.082,327.4,711.176,324.717Z" transform="translate(-674.845 -271.615)" fill="#89bdb4"/>
          </g>
        </g>
        <g id="Grupo_80340" data-name="Grupo 80340" transform="translate(502.898 267.15)">
          <path id="Trazado_115743" data-name="Trazado 115743" d="M801.268,357.377a58.9,58.9,0,0,0,2.445-15.848c-.052-5.01-1.2-9.611-3.783-12.832-3.96-4.942-11.063-6.257-18.531-4.708s-15.273,5.737-22.619,10.887a35.262,35.262,0,0,0-5.6,4.637,15.01,15.01,0,0,0-3.71,6.235,8.387,8.387,0,0,0,2.305,8.434,282.961,282.961,0,0,0,32.07,25.951,9.346,9.346,0,0,0,6.009,1.481c2.632-.184,3.5-3.566,4.673-6.081A114.792,114.792,0,0,0,801.268,357.377Z" transform="translate(-749.168 -323.376)" fill="#568f85"/>
          <g id="Grupo_80339" data-name="Grupo 80339" transform="translate(1.108 18.346)">
            <path id="Trazado_115744" data-name="Trazado 115744" d="M802.73,362.31a30.29,30.29,0,0,1-7.178,10.47,22.533,22.533,0,0,1-6,3.99c-6.33,2.841-13.753,2.421-20.334.223-6.532-2.182-12.387-5.982-18.053-9.9a8.012,8.012,0,0,0,1.5,1.879,282.916,282.916,0,0,0,32.07,25.951,9.346,9.346,0,0,0,6.009,1.481c2.632-.184,3.5-3.566,4.673-6.081a114.793,114.793,0,0,0,6.739-18.156,59.317,59.317,0,0,0,2.444-15.656,24.627,24.627,0,0,0-.727,2.741Q803.37,360.8,802.73,362.31Z" transform="translate(-751.168 -356.511)" fill="#4e8279"/>
          </g>
        </g>
        <path id="Trazado_115745" data-name="Trazado 115745" d="M942.558,406.9c-.282-3.232-2.991-5.84-6.026-6.99s-6.367-1.127-9.612-1.09l-52.6.605c-4.36.05-9.746-.544-11.37-4.59-1.6-3.985,2.035-8.353,6.093-9.755s8.514-.972,12.72-1.835,8.632-3.851,8.667-8.144c.027-3.213-2.532-5.99-5.5-7.235s-6.273-1.276-9.486-1.288l-36.188-.141-66.056-.256c-5.019-.019-10.174.3-15.172-.178-2.852-.272-6.166-1.711-9.033-1.288-6.614.976-10.461,10.114-4.652,14.707,3.393,2.682,8.235,2.1,12.5,1.379l19.337-3.263c3.968-.67,8.9-.951,11.11,2.412a6.562,6.562,0,0,1-.637,7.39,11.656,11.656,0,0,1-6.724,3.874c-5.592,1.288-11.509.05-17.142,1.146s-11.388,6.264-9.709,11.751c1.25,4.087,6.021,6.068,10.294,6.114s8.466-1.273,12.739-1.312c3.287-.029,7.334,1.54,7.467,4.825.138,3.4-3.89,5.2-7.181,6.068l-27.543,7.257c-2.585.681-5.249,1.4-7.356,3.046s-3.526,4.479-2.712,7.026c1.236,3.867,6.262,4.671,10.32,4.79l124.063,3.642c3.79.111,7.765.183,11.142-1.541s5.834-5.887,4.338-9.371c-1.738-4.048-7.126-4.658-11.531-4.658l-39.45-.006c-3.5,0-8-.747-8.728-4.174-.473-2.21,1.125-4.444,3.145-5.458a15.543,15.543,0,0,1,6.623-1.155l87.856-2.343c3.539-.095,7.191-.215,10.4-1.7S942.866,410.431,942.558,406.9Z" transform="translate(-241.536 -74.645)" opacity="0.9" fill="url(#linear-gradient-8)"/>
        <g id="Grupo_80341" data-name="Grupo 80341" transform="translate(439.883 236.564)">
          <rect id="Rect치ngulo_33898" data-name="Rect치ngulo 33898" width="40.543" height="28.866" transform="matrix(0.962, 0.272, -0.272, 0.962, 7.841, 0)" fill="#f9f5df"/>
          <path id="Trazado_115746" data-name="Trazado 115746" d="M635.355,304.793l39.019,11.013,7.841-27.781Z" transform="translate(-635.355 -277.012)" fill="#f2efda"/>
          <path id="Trazado_115747" data-name="Trazado 115747" d="M681.065,278.823l-6.059-1.71h0l-.8-.225h0l-7.137-2.014h0l-.8-.225h0l-7.137-2.014h0l-.8-.225h0l-7.137-2.014h0l-.8-.225h0l-6.059-1.71-1.15-.324-.324,1.15-2.217,7.853h0l-.225.8h0l-2.309,8.179h0l-.225.8h0l-2.216,7.853-.324,1.149,1.149.325,6.059,1.71h0l.8.225h0l7.137,2.014h0l.8.225h0l7.137,2.014h0l.8.225h0l7.137,2.014h0l.8.225h0l6.059,1.71,1.15.324.324-1.15,7.192-25.481.324-1.149Zm-7.181-.785-2.216,7.853-7.137-2.014,2.216-7.853ZM675.99,296.8l-6.059-1.71,2.309-8.179,6.059,1.71Zm-6.857-1.935L662,292.853l2.309-8.179,7.137,2.014Zm-12.763-12.433,7.137,2.014-2.308,8.179-7.137-2.014Zm-3.106,7.954-7.137-2.014,2.308-8.179,7.137,2.014Zm12.685-14.59-2.216,7.853-7.137-2.014,2.216-7.853Zm-7.934-2.24-2.217,7.853-7.137-2.014,2.217-7.853Zm-13.993-3.95,6.059,1.71-2.217,7.853-6.059-1.71Zm-2.442,8.651,6.059,1.71-2.309,8.179-6.059-1.71Zm-4.75,16.831,2.216-7.853,6.059,1.71-2.216,7.853Zm6.857,1.935,2.216-7.853,7.137,2.014-2.217,7.853Zm7.934,2.24,2.217-7.853,7.137,2.014-2.217,7.853Zm7.935,2.24,2.217-7.853,7.137,2.014-2.217,7.853Zm7.935,2.24,2.217-7.853,6.059,1.71-2.217,7.853Zm11.035-15.917-6.059-1.71,2.216-7.853,6.059,1.71Z" transform="translate(-635.355 -268.134)" fill="url(#linear-gradient-9)"/>
          <path id="Trazado_115748" data-name="Trazado 115748" d="M663.588,344.822l-4.377-1.235a2.776,2.776,0,0,0-3.426,1.917h0l9.72,2.744h0A2.776,2.776,0,0,0,663.588,344.822Z" transform="translate(-644.473 -301.764)" fill="#e3dfcc"/>
          <rect id="Rect치ngulo_33899" data-name="Rect치ngulo 33899" width="1.398" height="10.675" transform="translate(18.999 32.523) rotate(15.761)" fill="#e3dfcc"/>
        </g>
        <g id="Grupo_80342" data-name="Grupo 80342" transform="translate(420.665 244.492)">
          <rect id="Rect치ngulo_33900" data-name="Rect치ngulo 33900" width="32.757" height="23.322" transform="translate(0.599 0) rotate(1.471)" fill="#f0eddb"/>
          <path id="Trazado_115749" data-name="Trazado 115749" d="M600.644,306.446l32.746.841.6-23.314Z" transform="translate(-600.644 -283.132)" fill="#e8e5d4"/>
          <path id="Trazado_115750" data-name="Trazado 115750" d="M633.024,283.27l-5.085-.131h0l-.669-.017h0l-5.99-.154h0l-.669-.017h0l-5.99-.154h0l-.669-.017h0l-5.99-.154h0l-.669-.017h0l-5.084-.131-.965-.024-.025.965-.169,6.59h0l-.017.669h0l-.176,6.864h0l-.017.669h0l-.169,6.59-.025.965.965.025,5.085.131h0l.669.017h0l5.989.154h0l.669.017h0l5.99.154h0l.669.017h0l5.99.154h0l.669.017h0l5.085.131.965.024.025-.965.549-21.384.025-.965Zm-5.779.817-.169,6.59-5.99-.154.169-6.59Zm5.392,14.272-5.085-.131.176-6.864,5.085.13Zm-5.754-.148-5.99-.154.176-6.864,5.99.154Zm-12.472-7.189,5.989.154-.176,6.864-5.99-.154Zm-.846,6.847-5.99-.154.177-6.864,5.989.154Zm7.022-13.953-.169,6.59-5.989-.153.169-6.591Zm-6.659-.171-.169,6.59-5.989-.153.169-6.591Zm-11.743-.3,5.084.131-.169,6.591-5.085-.131ZM602,290.7l5.085.131L606.9,297.7l-5.085-.13Zm-.363,14.124.169-6.59,5.085.131-.169,6.59Zm5.754.148.169-6.59,5.99.154-.169,6.59Zm6.658.171.169-6.59,5.99.153-.169,6.591Zm6.659.171.169-6.59,5.99.153-.169,6.591Zm6.659.171.169-6.591,5.084.131-.169,6.591Zm5.465-14.663-5.085-.131.169-6.59,5.085.131Z" transform="translate(-600.644 -282.454)" fill="url(#linear-gradient-10)"/>
          <path id="Trazado_115751" data-name="Trazado 115751" d="M628.361,339.2l-3.673-.095a2.243,2.243,0,0,0-2.3,2.185h0l8.158.209h0A2.243,2.243,0,0,0,628.361,339.2Z" transform="translate(-610.349 -307.74)" fill="#d6d3c4"/>
          <rect id="Rect치ngulo_33901" data-name="Rect치ngulo 33901" width="1.129" height="8.625" transform="translate(15.821 23.238) rotate(1.472)" fill="#d6d3c4"/>
        </g>
        <g id="Grupo_80343" data-name="Grupo 80343" transform="translate(175.328 308.339)">
          <path id="Trazado_115752" data-name="Trazado 115752" d="M196,448.523c-1.227-1.489-3.4-1.674-5.124-1.564s-3.73.229-5.251-1.015a4.331,4.331,0,0,1-1.377-4.353,29.386,29.386,0,0,1,1.739-3.806,4.508,4.508,0,0,0-.357-4.383,6.107,6.107,0,0,0-5.171-2.213,20.691,20.691,0,0,0-4.92,1.334,7.528,7.528,0,0,1-5.351-.076,6.987,6.987,0,0,1-3.911-6.769c.286-2.415,1.92-4.215,3.653-5.761,1.358-1.211,2.893-2.856,1.875-4.814a5.615,5.615,0,0,0-3.34-2.415c-1.318-.41-2.65-.532-3.967-.954a10.5,10.5,0,0,1-6.857-7.285,5.489,5.489,0,0,1,4.981-6.652c3.41-.312,7.6,2.109,9.276,5.385.991,1.933,1.338,4.262,3.23,5.591,1.966,1.382,4.31.775,6.146.07s4.134-1.363,6.138-.041c2.025,1.335,2.436,3.839,2.41,5.855s-.1,4.312,1.55,6.062c1.782,1.893,4.619,2.113,6.9,1.884,2.317-.233,4.538-.723,6.9-.812a13.78,13.78,0,0,1,7.274,1.553c2.318,1.294,4.264,3.693,4.284,5.921a9.622,9.622,0,0,1-1.218,3.787,4.439,4.439,0,0,0,.056,4.107,15.083,15.083,0,0,0,2.523,2.587,8.115,8.115,0,0,1,2.582,5.917c-.123,2.273-1.611,2.957-2.908,4.4-1.317,1.463-1.9,2.994-3.973,3.805a17.534,17.534,0,0,1-3.5.822l-6.978,1.149c-1.708.281-3.9.388-5.258-1.076C196.4,452.962,197.551,450.4,196,448.523Z" transform="translate(-157.533 -397.768)" fill="#528782"/>
          <path id="Trazado_115753" data-name="Trazado 115753" d="M232.135,474.428l-.065-.679,9.236-2.006-13.9-10.585.632-.844,7.656,5.628-.672-9.356.67-.129,1.247,10.4,33.839,24.951-1.113,1.486-27.121-20.615Z" transform="translate(-188.718 -423.963)" fill="#68b0a6"/>
        </g>
        <g id="Grupo_80344" data-name="Grupo 80344" transform="translate(149.933 222.602)">
          <path id="Trazado_115754" data-name="Trazado 115754" d="M193.162,362.686c-5.74,1.035-13.881-1.472-18.9-7.5-4.4-5.281-5.807-12.333-11.308-16.449-4.656-3.484-9.83-2.985-13.851-1.81s-8.263,2.752-13.282.713c-5.821-2.366-10.478-9.033-11.586-14.624s.554-10.264,2.611-14.4,4.548-8.049,5.191-13.032a20.481,20.481,0,0,0-5.677-16.339c-3.246-3.38-7.549-5.624-10.6-9.153a15.893,15.893,0,0,1-4-11.913,14.927,14.927,0,0,1,4.695-8.7,20.791,20.791,0,0,1,15.891-6.547c6.708.267,15,4.207,20.1,10.727,4.042,5.167,6.167,11.788,11.587,15.426,4.728,3.174,9.665,2.449,13.558,1.162s7.994-2.942,12.956-1.1c5.616,2.081,10.411,8.191,12.179,13.687s1.153,10.5.327,15.2c-.421,2.4-.888,4.857-.154,7.637s3.034,5.991,5.894,7.14c3.937,1.581,6.567-1.352,10.388-.746,4.8.761,9.338,6.993,9.654,11.574s-2.22,7.781-4.677,10.717c-4.966,5.938-9.855,11.95-14.9,17.816-1.888,2.194-4.391,3.8-6.629,5.675a24.74,24.74,0,0,1-4.43,3.077C196.908,361.6,194.065,361.74,193.162,362.686Z" transform="translate(-111.667 -242.916)" fill="#487571"/>
          <path id="Trazado_115755" data-name="Trazado 115755" d="M260.97,378.877l-.973.149L258.255,392.6l-16.713-15.643-1.124,1.178,8.917,8.685-13.377,2.361-.1.978,14.935-1.927,39.523,38.361,1.979-2.075-32.554-30.527Z" transform="translate(-167.096 -302.743)" fill="#509188"/>
        </g>
        <g id="Grupo_80345" data-name="Grupo 80345" transform="translate(209.312 235.033)">
          <path id="Trazado_115756" data-name="Trazado 115756" d="M274.734,341.01c-.585-1.084-.875-2.384-1.809-3.187a4.2,4.2,0,0,0-4.344-.26c-1.4.608-2.6,1.612-3.974,2.289A9.46,9.46,0,0,1,251.2,329.271c.492-2.162,1.721-4.077,2.5-6.152s1.051-4.585-.266-6.369c-1.364-1.848-3.959-2.29-6.248-2.095s-4.556.872-6.843.66c-5.151-.477-9.118-6.216-7.745-11.2.659-2.394,2.279-4.393,3.33-6.643s1.421-5.176-.245-7.017c-1.782-1.968-4.858-1.726-7.462-2.24a11.541,11.541,0,1,1,12.913-15.7c.866,2.113,1.087,4.433,1.78,6.61s2.047,4.357,4.217,5.071c5.172,1.7,9.719-5.785,15.075-4.807,3.076.561,4.973,3.8,5.437,6.9s-.075,6.257.24,9.368,1.837,6.46,4.8,7.457c2.155.725,4.492.034,6.749-.252s4.964.072,6.086,2.051c2,3.522-2.941,8.038-1.173,11.681,1.055,2.177,3.88,2.685,5.838,4.105C302.068,329.31,280.908,352.457,274.734,341.01Z" transform="translate(-218.914 -265.37)" fill="#7aa39f"/>
          <path id="Trazado_115757" data-name="Trazado 115757" d="M319.486,362.381l-.735.075L316,372.375l-10.658-12.1-.957.826,5.65,6.7-10.138,1.258-.182.716,11.242-.884,25.056,29.613,1.686-1.455-20.754-23.6Z" transform="translate(-254.976 -307.73)" fill="#82bdb5"/>
        </g>
        <g id="Grupo_80347" data-name="Grupo 80347" transform="translate(300.296 257.602)">
          <path id="Trazado_115758" data-name="Trazado 115758" d="M386.49,313.9c4.089-6.993,12.471-9.134,21.232-6.947s17.812,8.306,25.821,15.925a22.571,22.571,0,0,1,3.488,3.955,8.011,8.011,0,0,1,1.506,4.777,4.754,4.754,0,0,1-1.56,2.9c-8.509,8.619-17.912,14.974-29.583,21.033-3.7,1.919-8.2,2.945-13.023.7a19.735,19.735,0,0,1-8.3-8.091c-3.253-5.779-2.757-12.251-2.824-17.662C383.172,324.3,383.906,318.319,386.49,313.9Z" transform="translate(-383.242 -306.13)" fill="#47756d"/>
          <g id="Grupo_80346" data-name="Grupo 80346" transform="translate(0 15.91)">
            <path id="Trazado_115759" data-name="Trazado 115759" d="M435.943,346.426a8.329,8.329,0,0,0-2.467,1.492c-5.1,3.911-10.787,7.241-17.048,8.7s-13.172.88-18.612-2.545a24.794,24.794,0,0,1-7.027-6.963,56.928,56.928,0,0,1-4.384-7.928,16.107,16.107,0,0,0-2.615-4.315,49.793,49.793,0,0,0-.543,8.442c.066,5.412-.429,11.883,2.824,17.662a19.735,19.735,0,0,0,8.3,8.091c4.822,2.248,9.327,1.222,13.023-.7,11.67-6.059,21.074-12.414,29.583-21.033a7.5,7.5,0,0,0,.792-.924A3.062,3.062,0,0,0,435.943,346.426Z" transform="translate(-383.242 -334.865)" fill="#436e66"/>
          </g>
        </g>
        <g id="Grupo_80349" data-name="Grupo 80349" transform="translate(255.811 269.291)">
          <path id="Trazado_115760" data-name="Trazado 115760" d="M307.407,375.579c-3.5-9.174-5.455-18.587-4.055-26.362a27.535,27.535,0,0,1,8.264-14.935c3.582-3.5,7.946-6.3,13.454-6.913,6.806-.754,14.918,1.928,22.543,6.208s14.859,10.089,21.867,16.087c2.043,1.748,4.233,3.738,5.138,6.1,1.375,3.6-.864,6.031-2.987,7.766q-13.6,11.111-27.347,22.039-6.8,5.407-13.642,10.768c-2.268,1.777-4.4,3.969-6.929,5.414-1.917,1.1-3.311-.149-4.938-2.757A147.893,147.893,0,0,1,307.407,375.579Z" transform="translate(-302.896 -327.242)" fill="#568f85"/>
          <path id="Trazado_115761" data-name="Trazado 115761" d="M368.642,388.74a5.171,5.171,0,0,0-2.349,1.19,45.35,45.35,0,0,1-34.135,7.993,44.3,44.3,0,0,1-11.393-3.64,45.9,45.9,0,0,1-9.02-5.651c-2.675-2.144-4.708-4.848-7.245-7.1a5.71,5.71,0,0,0-1.492-1,64.35,64.35,0,0,0,4.449,18.833,147.9,147.9,0,0,0,11.368,23.419c1.626,2.608,3.02,3.853,4.937,2.757,2.527-1.445,4.661-3.637,6.929-5.414q6.839-5.362,13.642-10.768,12.751-10.133,25.366-20.427A1.963,1.963,0,0,0,368.642,388.74Z" transform="translate(-302.946 -351.027)" fill="#51877e"/>
          <g id="Grupo_80348" data-name="Grupo 80348" transform="translate(9.185 43.785)">
            <path id="Trazado_115762" data-name="Trazado 115762" d="M339.661,453.794a.325.325,0,0,0,.429.487A.325.325,0,0,0,339.661,453.794Z" transform="translate(-328.441 -427.474)" fill="#416b64"/>
            <path id="Trazado_115763" data-name="Trazado 115763" d="M336.638,448.125a.632.632,0,0,0,.833.948A.632.632,0,0,0,336.638,448.125Z" transform="translate(-327.046 -424.91)" fill="#416b64"/>
            <path id="Trazado_115764" data-name="Trazado 115764" d="M340.921,449.034a.561.561,0,0,0,.74.842A.561.561,0,0,0,340.921,449.034Z" transform="translate(-328.968 -425.323)" fill="#416b64"/>
            <path id="Trazado_115765" data-name="Trazado 115765" d="M346.62,446.8a.72.72,0,0,0,.951,1.081A.72.72,0,0,0,346.62,446.8Z" transform="translate(-331.488 -424.308)" fill="#416b64"/>
            <path id="Trazado_115766" data-name="Trazado 115766" d="M341.964,453.6a.466.466,0,0,0,.615.7A.466.466,0,0,0,341.964,453.6Z" transform="translate(-329.448 -427.373)" fill="#416b64"/>
            <path id="Trazado_115767" data-name="Trazado 115767" d="M338.606,446.112a.508.508,0,0,0-.67-.762A.508.508,0,0,0,338.606,446.112Z" transform="translate(-327.644 -423.685)" fill="#416b64"/>
            <path id="Trazado_115768" data-name="Trazado 115768" d="M332.722,441.672a.443.443,0,0,0,.585.664A.443.443,0,0,0,332.722,441.672Z" transform="translate(-325.327 -422.05)" fill="#416b64"/>
            <path id="Trazado_115769" data-name="Trazado 115769" d="M329.783,439.463a.484.484,0,0,0-.639-.727A.484.484,0,0,0,329.783,439.463Z" transform="translate(-323.724 -420.736)" fill="#416b64"/>
            <path id="Trazado_115770" data-name="Trazado 115770" d="M329.761,433.51a.549.549,0,0,0-.724-.824A.549.549,0,0,0,329.761,433.51Z" transform="translate(-323.666 -418.028)" fill="#416b64"/>
            <path id="Trazado_115771" data-name="Trazado 115771" d="M335.132,435.1a.525.525,0,0,0,.693.788A.525.525,0,0,0,335.132,435.1Z" transform="translate(-326.39 -419.106)" fill="#416b64"/>
            <path id="Trazado_115772" data-name="Trazado 115772" d="M338.739,441.757a.649.649,0,0,0,.857.975A.649.649,0,0,0,338.739,441.757Z" transform="translate(-327.981 -422.065)" fill="#416b64"/>
            <path id="Trazado_115773" data-name="Trazado 115773" d="M348.411,438.625a.6.6,0,0,0,.787.895A.6.6,0,0,0,348.411,438.625Z" transform="translate(-332.306 -420.673)" fill="#416b64"/>
            <path id="Trazado_115774" data-name="Trazado 115774" d="M350.871,444.528a.555.555,0,0,0,.732.833A.555.555,0,0,0,350.871,444.528Z" transform="translate(-333.41 -423.313)" fill="#416b64"/>
            <path id="Trazado_115775" data-name="Trazado 115775" d="M342.518,440.123a.667.667,0,0,0,.88,1A.667.667,0,0,0,342.518,440.123Z" transform="translate(-329.665 -421.334)" fill="#416b64"/>
            <path id="Trazado_115776" data-name="Trazado 115776" d="M343.151,434.607a.49.49,0,0,0,.647.735A.49.49,0,0,0,343.151,434.607Z" transform="translate(-329.974 -418.892)" fill="#416b64"/>
            <path id="Trazado_115777" data-name="Trazado 115777" d="M353.8,434.572a.531.531,0,0,0,.7.8A.531.531,0,0,0,353.8,434.572Z" transform="translate(-334.72 -418.871)" fill="#416b64"/>
            <path id="Trazado_115778" data-name="Trazado 115778" d="M357.65,438.953a.508.508,0,0,0,.67.762A.508.508,0,0,0,357.65,438.953Z" transform="translate(-336.443 -420.829)" fill="#416b64"/>
            <path id="Trazado_115779" data-name="Trazado 115779" d="M354.118,441.993a.443.443,0,0,0,.584.665A.443.443,0,0,0,354.118,441.993Z" transform="translate(-334.876 -422.194)" fill="#416b64"/>
            <path id="Trazado_115780" data-name="Trazado 115780" d="M363.455,430.88a.679.679,0,0,0,.9,1.019A.679.679,0,0,0,363.455,430.88Z" transform="translate(-339.008 -417.207)" fill="#416b64"/>
            <path id="Trazado_115781" data-name="Trazado 115781" d="M372.028,427.621a.573.573,0,0,0,.756.86A.573.573,0,0,0,372.028,427.621Z" transform="translate(-342.851 -415.765)" fill="#416b64"/>
            <path id="Trazado_115782" data-name="Trazado 115782" d="M379.405,424.126a.4.4,0,0,0,.522.594A.4.4,0,0,0,379.405,424.126Z" transform="translate(-346.17 -414.224)" fill="#416b64"/>
            <path id="Trazado_115783" data-name="Trazado 115783" d="M361.755,436.849a.59.59,0,0,0,.779.886A.59.59,0,0,0,361.755,436.849Z" transform="translate(-338.263 -419.881)" fill="#416b64"/>
            <path id="Trazado_115784" data-name="Trazado 115784" d="M357.416,431.905a.525.525,0,0,0,.693.789A.525.525,0,0,0,357.416,431.905Z" transform="translate(-336.336 -417.682)" fill="#416b64"/>
            <path id="Trazado_115785" data-name="Trazado 115785" d="M370.067,423.954a.354.354,0,0,0-.467-.532A.354.354,0,0,0,370.067,423.954Z" transform="translate(-341.799 -413.915)" fill="#416b64"/>
            <path id="Trazado_115786" data-name="Trazado 115786" d="M369.025,432.386a.437.437,0,0,0,.576.656A.437.437,0,0,0,369.025,432.386Z" transform="translate(-341.531 -417.907)" fill="#416b64"/>
            <path id="Trazado_115787" data-name="Trazado 115787" d="M349.033,431.126a.508.508,0,0,0,.67.762A.508.508,0,0,0,349.033,431.126Z" transform="translate(-332.597 -417.336)" fill="#416b64"/>
            <path id="Trazado_115788" data-name="Trazado 115788" d="M335.581,427.7a.543.543,0,0,0,.716.816A.543.543,0,0,0,335.581,427.7Z" transform="translate(-326.588 -415.801)" fill="#416b64"/>
            <path id="Trazado_115789" data-name="Trazado 115789" d="M328.51,428.138a.62.62,0,0,0-.818-.931A.62.62,0,0,0,328.51,428.138Z" transform="translate(-323.055 -415.574)" fill="#416b64"/>
            <path id="Trazado_115790" data-name="Trazado 115790" d="M324.847,418.6a.6.6,0,0,0,.787.9A.6.6,0,0,0,324.847,418.6Z" transform="translate(-321.789 -411.734)" fill="#416b64"/>
            <path id="Trazado_115791" data-name="Trazado 115791" d="M321.723,420.965a.472.472,0,0,0-.623-.709A.472.472,0,0,0,321.723,420.965Z" transform="translate(-320.135 -412.488)" fill="#416b64"/>
            <path id="Trazado_115792" data-name="Trazado 115792" d="M324.731,427.5a.525.525,0,0,0-.693-.788A.525.525,0,0,0,324.731,427.5Z" transform="translate(-321.438 -415.365)" fill="#416b64"/>
            <path id="Trazado_115793" data-name="Trazado 115793" d="M320.878,411.793a.354.354,0,0,0-.467-.531A.354.354,0,0,0,320.878,411.793Z" transform="translate(-319.845 -408.488)" fill="#416b64"/>
            <path id="Trazado_115794" data-name="Trazado 115794" d="M320.239,407.12a.455.455,0,0,0-.6-.683A.455.455,0,0,0,320.239,407.12Z" transform="translate(-319.485 -406.323)" fill="#416b64"/>
            <path id="Trazado_115795" data-name="Trazado 115795" d="M333.252,420.517a.484.484,0,0,0-.639-.727A.484.484,0,0,0,333.252,420.517Z" transform="translate(-325.272 -412.279)" fill="#416b64"/>
            <path id="Trazado_115796" data-name="Trazado 115796" d="M340.036,423.725a.6.6,0,0,0-.787-.895A.6.6,0,0,0,340.036,423.725Z" transform="translate(-328.217 -413.624)" fill="#416b64"/>
            <path id="Trazado_115797" data-name="Trazado 115797" d="M349.29,420.4a.531.531,0,0,0,.7.8A.531.531,0,0,0,349.29,420.4Z" transform="translate(-332.708 -412.546)" fill="#416b64"/>
            <path id="Trazado_115798" data-name="Trazado 115798" d="M354.194,424.838a.425.425,0,0,0,.561.638A.425.425,0,0,0,354.194,424.838Z" transform="translate(-334.913 -414.539)" fill="#416b64"/>
            <path id="Trazado_115799" data-name="Trazado 115799" d="M344.209,428.754a.578.578,0,0,0-.763-.868A.578.578,0,0,0,344.209,428.754Z" transform="translate(-330.092 -415.882)" fill="#416b64"/>
            <path id="Trazado_115800" data-name="Trazado 115800" d="M339.419,430.073a.443.443,0,0,0,.585.664A.443.443,0,0,0,339.419,430.073Z" transform="translate(-328.316 -416.873)" fill="#416b64"/>
            <path id="Trazado_115801" data-name="Trazado 115801" d="M338.156,433.73a.508.508,0,0,0,.67.762A.508.508,0,0,0,338.156,433.73Z" transform="translate(-327.742 -418.498)" fill="#416b64"/>
            <path id="Trazado_115802" data-name="Trazado 115802" d="M340.817,438.454a.513.513,0,0,0-.678-.771A.513.513,0,0,0,340.817,438.454Z" transform="translate(-328.627 -420.262)" fill="#416b64"/>
            <path id="Trazado_115803" data-name="Trazado 115803" d="M336.193,440.268a.6.6,0,0,0-.795-.9A.6.6,0,0,0,336.193,440.268Z" transform="translate(-326.497 -421.002)" fill="#416b64"/>
            <path id="Trazado_115804" data-name="Trazado 115804" d="M333.262,447.656a.443.443,0,0,0,.584.664A.443.443,0,0,0,333.262,447.656Z" transform="translate(-325.567 -424.721)" fill="#416b64"/>
            <path id="Trazado_115805" data-name="Trazado 115805" d="M344.769,444.655a.59.59,0,0,0-.779-.886A.59.59,0,0,0,344.769,444.655Z" transform="translate(-330.334 -422.969)" fill="#416b64"/>
            <path id="Trazado_115806" data-name="Trazado 115806" d="M337.019,451.373a.508.508,0,0,0,.67.762A.508.508,0,0,0,337.019,451.373Z" transform="translate(-327.235 -426.373)" fill="#416b64"/>
            <path id="Trazado_115807" data-name="Trazado 115807" d="M345.517,451.18a.614.614,0,0,0,.81.922A.614.614,0,0,0,345.517,451.18Z" transform="translate(-331.012 -426.275)" fill="#416b64"/>
            <path id="Trazado_115808" data-name="Trazado 115808" d="M349.375,441.983a.6.6,0,0,0,.795.9A.6.6,0,0,0,349.375,441.983Z" transform="translate(-332.735 -422.171)" fill="#416b64"/>
            <path id="Trazado_115809" data-name="Trazado 115809" d="M346.827,435.4a.537.537,0,0,0-.709-.807A.537.537,0,0,0,346.827,435.4Z" transform="translate(-331.292 -418.882)" fill="#416b64"/>
            <path id="Trazado_115810" data-name="Trazado 115810" d="M353.981,438.734a.5.5,0,0,0,.654.744A.5.5,0,0,0,353.981,438.734Z" transform="translate(-334.807 -420.733)" fill="#416b64"/>
            <path id="Trazado_115811" data-name="Trazado 115811" d="M333.463,425.556a.443.443,0,0,0-.584-.664A.443.443,0,0,0,333.463,425.556Z" transform="translate(-325.396 -414.561)" fill="#416b64"/>
            <path id="Trazado_115812" data-name="Trazado 115812" d="M332.809,431.325a.561.561,0,0,0-.74-.842A.561.561,0,0,0,332.809,431.325Z" transform="translate(-325.017 -417.044)" fill="#416b64"/>
            <path id="Trazado_115813" data-name="Trazado 115813" d="M325.166,431.641a.254.254,0,0,0-.335-.381A.254.254,0,0,0,325.166,431.641Z" transform="translate(-321.833 -417.425)" fill="#416b64"/>
            <path id="Trazado_115814" data-name="Trazado 115814" d="M328.053,423.088a.549.549,0,0,0-.725-.824A.549.549,0,0,0,328.053,423.088Z" transform="translate(-322.903 -413.376)" fill="#416b64"/>
            <path id="Trazado_115815" data-name="Trazado 115815" d="M346.722,425.954a.508.508,0,0,0,.67.762A.508.508,0,0,0,346.722,425.954Z" transform="translate(-331.565 -415.028)" fill="#416b64"/>
            <path id="Trazado_115816" data-name="Trazado 115816" d="M352.5,428.021a.614.614,0,0,0,.81.922A.614.614,0,0,0,352.5,428.021Z" transform="translate(-334.13 -415.938)" fill="#416b64"/>
            <path id="Trazado_115817" data-name="Trazado 115817" d="M363.716,425.515a.608.608,0,0,0-.8-.913A.608.608,0,0,0,363.716,425.515Z" transform="translate(-338.777 -414.413)" fill="#416b64"/>
            <path id="Trazado_115818" data-name="Trazado 115818" d="M359.707,434.514a.549.549,0,0,0-.724-.824A.549.549,0,0,0,359.707,434.514Z" transform="translate(-337.031 -418.476)" fill="#416b64"/>
            <path id="Trazado_115819" data-name="Trazado 115819" d="M366.071,426.791a.7.7,0,0,0,.92,1.046A.7.7,0,0,0,366.071,426.791Z" transform="translate(-340.173 -415.38)" fill="#416b64"/>
            <path id="Trazado_115820" data-name="Trazado 115820" d="M357.192,425.993a.49.49,0,0,0,.646.735A.49.49,0,0,0,357.192,425.993Z" transform="translate(-336.241 -415.047)" fill="#416b64"/>
            <path id="Trazado_115821" data-name="Trazado 115821" d="M366.383,433.64a.638.638,0,0,0,.842.957A.638.638,0,0,0,366.383,433.64Z" transform="translate(-340.321 -418.444)" fill="#416b64"/>
            <path id="Trazado_115822" data-name="Trazado 115822" d="M374.965,427.39a.62.62,0,0,0,.818.931A.62.62,0,0,0,374.965,427.39Z" transform="translate(-344.154 -415.656)" fill="#416b64"/>
            <path id="Trazado_115823" data-name="Trazado 115823" d="M373.819,423.165a.626.626,0,0,0,.826.939A.626.626,0,0,0,373.819,423.165Z" transform="translate(-343.642 -413.769)" fill="#416b64"/>
          </g>
        </g>
        <path id="Trazado_115824" data-name="Trazado 115824" d="M296.037,463.424c5.307-.243,10.893-.429,15.622,1.993s8.073,8.419,5.717,13.18c-2.086,4.217-7.29,5.554-11.548,7.555s-8.426,6.884-6.047,10.944c3.353,5.723,14.573,1.381,17.49,7.41a5.774,5.774,0,0,1-1.18,6.49c-3.221,3.317-7.725,3.347-11.955,3.311l-77.247-.656c-3.61-.031-7.435-.012-10.253,2.714a5.165,5.165,0,0,0-1.427,5.236c1.116,3.5,5.53,4.006,9.086,3.978l23.487-.185a21.694,21.694,0,0,1,7.972.934c2.514.963,4.754,3.135,4.977,5.818.238,2.851-1.872,5.482-4.437,6.75s-5.51,1.458-8.366,1.607a667.246,667.246,0,0,1-103.675-2.658c-6.012-.624-13.044-2.041-15.54-7.545-2.19-4.831.54-10.792,4.9-13.807s9.9-3.716,15.2-3.919,10.711-.013,15.782-1.566c4.3-1.317,8.421-4.093,9.693-8.612a7.967,7.967,0,0,0-1.143-6.948c-2.552-3.409-6.98-3.313-10.782-2.494-3.2.69-6.428,1.805-9.673,1.359s-6.506-3.181-6.075-6.429c.512-3.861,5.268-5.289,9.121-5.856,8.58-1.263,17.572-.106,26.241.142,7.738.221,30.8-1.253,21.353-7.149-3.785-1.7-5.33-1.216-8.527-2.791a3.432,3.432,0,0,1,1.521-6.514c11.444.046,22.878.9,34.329.644C252.448,465.881,274.261,464.421,296.037,463.424Z" transform="translate(31.002 -118.674)" opacity="0.9" fill="url(#linear-gradient-11)"/>
        <g id="Grupo_80350" data-name="Grupo 80350" transform="translate(322.565 241.108)">
          <path id="Trazado_115825" data-name="Trazado 115825" d="M450.656,298.712c-.752-.714-.532-1.949-.194-2.93s.724-2.117.173-3a2.432,2.432,0,0,0-2.543-.831,25.369,25.369,0,0,0-2.681.946,2.969,2.969,0,0,1-2.72-.252,2.7,2.7,0,0,1-.6-2.963,14.3,14.3,0,0,1,1.61-2.782,4.225,4.225,0,0,0,.783-3.042,3.411,3.411,0,0,0-3.679-2.3,8.329,8.329,0,0,0-4.216,2.012c-.978.758-2.258,1.613-3.34,1.012a2.333,2.333,0,0,1-1.01-1.925c-.055-.754.075-1.512.012-2.266a4.421,4.421,0,0,0-8.535-1.221,4.482,4.482,0,0,0,1.969,5.332c1.071.585,2.492.808,3.039,1.9.57,1.133-.179,2.458-.91,3.494s-1.506,2.334-.98,3.488,2.052,1.427,3.333,1.435,2.746-.007,3.6.949c.922,1.034.621,2.649.122,3.941-.508,1.314-1.163,2.571-1.587,3.914a6.682,6.682,0,0,0-.146,4.151,3.576,3.576,0,0,0,3.084,2.5,8,8,0,0,0,2.588-.65,3.059,3.059,0,0,1,2.592.078,6.287,6.287,0,0,1,1.247,1.463,4.207,4.207,0,0,0,3.345,1.534c1.459-.044,2.123-.883,3.238-1.6,1.132-.732,2.191-1.044,3.027-2.216a11.836,11.836,0,0,0,1.064-1.979l1.813-3.953c.443-.967.852-2.213.135-3C453.407,298.984,451.6,299.612,450.656,298.712Z" transform="translate(-423.462 -276.341)" fill="#659490"/>
          <path id="Trazado_115826" data-name="Trazado 115826" d="M461.239,319.53l-.42-.045-2.705,5.227-4.543-8.02-.633.35,2.374,4.414-5.821-.486-.186.379,6.394.825,10.543,19.511,1.114-.616-8.841-15.644Z" transform="translate(-434.997 -294.351)" fill="#74b6ad"/>
        </g>
        <g id="Grupo_80353" data-name="Grupo 80353" transform="translate(177.091 433.953)">
          <g id="Grupo_80351" data-name="Grupo 80351" transform="translate(0 17.521)">
            <path id="Trazado_115827" data-name="Trazado 115827" d="M163.857,680.491c-4.558,7.976-6.368,23,10.416,26.409V656.288S173.522,663.577,163.857,680.491Z" transform="translate(-160.718 -656.288)" fill="url(#linear-gradient-12)"/>
            <path id="Trazado_115828" data-name="Trazado 115828" d="M195.615,680.491c4.558,7.976,6.368,23-10.416,26.409V656.288S185.95,663.577,195.615,680.491Z" transform="translate(-171.645 -656.288)" fill="url(#linear-gradient-13)"/>
          </g>
          <g id="Grupo_80352" data-name="Grupo 80352" transform="translate(22.512 0)">
            <path id="Trazado_115829" data-name="Trazado 115829" d="M203.469,640.771c-3.037,5.315-4.243,15.327,6.941,17.6V624.643S209.909,629.5,203.469,640.771Z" transform="translate(-201.377 -624.643)" fill="url(#linear-gradient-12)"/>
            <path id="Trazado_115830" data-name="Trazado 115830" d="M224.632,640.771c3.037,5.315,4.243,15.327-6.941,17.6V624.643S218.192,629.5,224.632,640.771Z" transform="translate(-208.658 -624.643)" fill="url(#linear-gradient-13)"/>
          </g>
          <path id="Trazado_115831" data-name="Trazado 115831" d="M185.467,699.517c3.829,8.247,4.335,21.508-11.3,24.684-5.771-1.172-9.343-3.717-11.362-6.877,1.7,4.062,5.46,7.459,12.4,8.869,16.783-3.409,14.973-18.433,10.416-26.409C185.566,699.694,185.518,699.607,185.467,699.517Z" transform="translate(-161.648 -658.061)" opacity="0.28" fill="url(#linear-gradient-16)" style="mix-blend-mode: multiply;isolation: isolate"/>
          <path id="Trazado_115832" data-name="Trazado 115832" d="M217.856,653.3c-.113-.2-.22-.389-.329-.584,2.442,5.51,2.608,14.106-7.651,16.19-3.658-.743-5.99-2.314-7.366-4.277,1.059,2.865,3.577,5.289,8.405,6.269C222.1,668.629,220.894,658.617,217.856,653.3Z" transform="translate(-179.371 -637.174)" opacity="0.28" fill="url(#linear-gradient-17)" style="mix-blend-mode: multiply;isolation: isolate"/>
          <path id="Trazado_115833" data-name="Trazado 115833" d="M171.667,680.67a25.013,25.013,0,0,0-2.069,3.455,5.526,5.526,0,0,0-.355,3.925,3.161,3.161,0,0,0,3.016,2.225,3.429,3.429,0,0,0,2.7-2.163,10.1,10.1,0,0,0,.625-3.562q.414-7.779.828-15.556l.1-1.855A31.884,31.884,0,0,1,171.667,680.67Z" transform="translate(-164.425 -643.61)" fill="#fff" opacity="0.25"/>
          <path id="Trazado_115834" data-name="Trazado 115834" d="M210.313,639.547a13.806,13.806,0,0,0-1.138,1.9,3.04,3.04,0,0,0-.195,2.159,1.739,1.739,0,0,0,1.659,1.224,1.886,1.886,0,0,0,1.486-1.19,5.548,5.548,0,0,0,.344-1.96q.228-4.28.456-8.559l.053-1.021A17.54,17.54,0,0,1,210.313,639.547Z" transform="translate(-182.204 -627.972)" fill="#fff" opacity="0.25"/>
        </g>
        <path id="Trazado_115835" data-name="Trazado 115835" d="M873.465,898.96c-3.584-1.432-7.552-1.416-11.4-1.765-2.824-.256-5.758-.773-8.014-2.49s-3.579-4.957-2.307-7.491c2.193-4.369,10.507-7.294,12.683-11.671,1.366-2.747-.633-8.3-3.216-9.958s-5.779-1.949-8.836-2.2c-30.5-2.5-61.542-.053-92.128-.661-8.894-.176-17.482,1.037-25.656,4.718a18.554,18.554,0,0,0-7.179,5.012c-1.827,2.313-2.654,5.614-1.387,8.275,1.174,2.464,3.964,4.177,4.221,6.895.371,3.932-4.569,5.994-8.5,6.345-4.477.4-9.009.236-13.441.983s-8.908,2.553-11.688,6.085-3.314,9.056-.319,12.408c2.715,3.039,7.274,3.493,11.343,3.27s8.317-.886,12.095.64,6.584,6.363,4.326,9.755c-2.3,3.463-8.278,3.388-9.82,7.251-1.017,2.549.7,5.531,3.089,6.875s5.257,1.466,8,1.555l57.289,1.86c13.057.424,26.473.8,38.787-3.567,3.8-1.346,8.144-4.632,6.81-8.436-1.649-4.7-10.227-4.175-11.125-9.076-.442-2.412,1.582-4.716,3.907-5.5s4.855-.443,7.292-.163a134.646,134.646,0,0,0,39.3-1.261c5.413-.978,11.909-3.536,12.337-9.02C880.225,903.783,877.05,900.392,873.465,898.96Z" transform="translate(-221.771 -296.735)" opacity="0.9" fill="url(#linear-gradient-11)"/>
      </g>
    </g>
  </g>
</svg>
